0
SECTION
2
HEADER
9
$INSUNITS
70
4
9
$ACADVER
1
AC1014
9
$HANDSEED
5
FFFF
0
ENDSEC
0
SECTION
2
TABLES
0
TABLE
2
VPORT
5
8
100
AcDbSymbolTable
0
ENDTAB
0
TABLE
2
LTYPE
5
5
100
AcDbSymbolTable
0
LTYPE
5
14
100
AcDbSymbolTableRecord
100
AcDbLinetypeTableRecord
2
BYBLOCK
70
0
0
LTYPE
5
15
100
AcDbSymbolTableRecord
100
AcDbLinetypeTableRecord
2
BYLAYER
70
0
0
ENDTAB
0
TABLE
2
LAYER
5
2
100
AcDbSymbolTable
70
2
0
LAYER
5
50
100
AcDbSymbolTableRecord
100
AcDbLayerTableRecord
2
0
70
0
6
CONTINUOUS
0
ENDTAB
0
TABLE
2
STYLE
5
3
100
AcDbSymbolTable
70
1
0
STYLE
5
11
100
AcDbSymbolTableRecord
100
AcDbTextStyleTableRecord
2
STANDARD
70
0
0
ENDTAB
0
TABLE
2
VIEW
5
6
100
AcDbSymbolTable
70
0
0
ENDTAB
0
TABLE
2
UCS
5
7
100
AcDbSymbolTable
70
0
0
ENDTAB
0
TABLE
2
APPID
5
9
100
AcDbSymbolTable
70
2
0
APPID
5
12
100
AcDbSymbolTableRecord
100
AcDbRegAppTableRecord
2
ACAD
70
0
0
ENDTAB
0
TABLE
2
DIMSTYLE
5
A
100
AcDbSymbolTable
70
1
0
ENDTAB
0
TABLE
2
BLOCK_RECORD
5
1
100
AcDbSymbolTable
70
1
0
BLOCK_RECORD
5
1F
100
AcDbSymbolTableRecord
100
AcDbBlockTableRecord
2
*MODEL_SPACE
0
BLOCK_RECORD
5
1B
100
AcDbSymbolTableRecord
100
AcDbBlockTableRecord
2
*PAPER_SPACE
0
ENDTAB
0
ENDSEC
0
SECTION
2
BLOCKS
0
BLOCK
5
20
100
AcDbEntity
100
AcDbBlockBegin
2
*MODEL_SPACE
0
ENDBLK
5
21
100
AcDbEntity
100
AcDbBlockEnd
0
BLOCK
5
1C
100
AcDbEntity
100
AcDbBlockBegin
2
*PAPER_SPACE
0
ENDBLK
5
1D
100
AcDbEntity
100
AcDbBlockEnd
0
ENDSEC
0
SECTION
2
ENTITIES
0
LWPOLYLINE
5
100
100
AcDbEntity
8
0
100
AcDbPolyline
90
4
70
1
43
0.0
10
611.9999971985817
20
198.00000295042992
10
-188.0000028014183
20
198.00000295042992
10
-188.0000028014183
20
-201.99999704957008
10
611.9999971985817
20
-201.99999704957008
0
CIRCLE
5
101
100
AcDbEntity
8
0
100
AcDbCircle
10
171.78249430169231
20
135.00000079333884
30
0
40
1.4999999999999991
210
0
220
0
230
1
0
LWPOLYLINE
5
102
100
AcDbEntity
8
0
100
AcDbPolyline
90
4
70
1
43
0.0
10
354.57567496074461
20
190.00000360162744
10
354.57567492177236
20
195.00000360162744
10
324.57567492177236
20
195.00000336779385
10
324.57567496074461
20
190.00000336779379
0
LWPOLYLINE
5
103
100
AcDbEntity
8
0
100
AcDbPolyline
90
4
70
1
43
0.0
10
289.57567496074461
20
190.00000309498796
10
289.57567492177236
20
195.00000309498796
10
259.57567492177236
20
195.00000286115437
10
259.57567496074461
20
190.00000286115431
0
LWPOLYLINE
5
104
100
AcDbEntity
8
0
100
AcDbPolyline
90
4
70
1
43
0.0
10
224.57567496074461
20
190.00000258834845
10
224.57567492177233
20
195.00000258834845
10
194.57567492177233
20
195.00000235451489
10
194.57567496074461
20
190.00000235451481
0
LWPOLYLINE
5
105
100
AcDbEntity
8
0
100
AcDbPolyline
90
4
70
1
43
0.0
10
179.99999881524303
20
152.00000187586514
10
174.99999881524303
20
152.00000183689286
10
174.99999908025444
20
118.00000190964107
10
179.99999908025447
20
118.00000194861333
0
CIRCLE
5
106
100
AcDbEntity
8
0
100
AcDbCircle
10
354.49999905687116
20
121.00000287225613
30
0
40
2.9000000000000004
210
0
220
-0
230
1
0
LWPOLYLINE
5
107
100
AcDbEntity
8
0
100
AcDbPolyline
90
6
70
1
43
0.0
10
169.99999846262358
20
197.23978783405701
10
401.34069952726077
20
197.23978963723155
10
374.07407368435145
20
50.000003675662143
10
172.99999961027731
20
50.000002108399499
42
-0.41421356237309437
10
164.9999995479217
20
58.000002046043818
10
164.99999850159585
20
192.23978779508474
42
-0.41421356237309503
0
CIRCLE
5
108
100
AcDbEntity
8
0
100
AcDbCircle
10
604.63227890991993
20
112.23979147509797
30
0
40
1.4999999999999991
210
0
220
0
230
1
0
LWPOLYLINE
5
109
100
AcDbEntity
8
0
100
AcDbPolyline
90
4
70
1
43
0.0
10
421.83909828983985
20
52.239789797005187
10
421.83909825086766
20
57.239789797005187
10
451.83909825086766
20
57.239790030838805
10
451.83909828983991
20
52.239790030838805
0
LWPOLYLINE
5
110
100
AcDbEntity
8
0
100
AcDbPolyline
90
4
70
1
43
0.0
10
486.83909828983991
20
52.239790303644689
10
486.83909825086766
20
57.239790303644689
10
516.83909825086755
20
57.239790537478328
10
516.83909828983997
20
52.239790537478314
0
LWPOLYLINE
5
111
100
AcDbEntity
8
0
100
AcDbPolyline
90
4
70
1
43
0.0
10
551.83909828983997
20
52.239790810284191
10
551.83909825086766
20
57.239790810284191
10
581.83909825086755
20
57.239791044117823
10
581.83909828983997
20
52.239791044117815
0
LWPOLYLINE
5
112
100
AcDbEntity
8
0
100
AcDbPolyline
90
4
70
1
43
0.0
10
601.41477439636924
20
95.239791559141651
10
596.41477439636924
20
95.239791520169376
10
596.41477413135772
20
129.23979141104701
10
601.41477413135783
20
129.23979145001928
0
CIRCLE
5
113
100
AcDbEntity
8
0
100
AcDbCircle
10
421.91477415474111
20
126.23979044843196
30
0
40
2.8999999999999999
210
0
220
-0
230
1
0
LWPOLYLINE
5
114
100
AcDbEntity
8
0
100
AcDbPolyline
90
6
70
1
43
0.0
10
402.34069952726082
20
197.23978964502592
10
375.07407368435139
20
50.000003683456562
10
606.41477474898863
20
50.000005486631061
42
0.41421356237309503
10
611.41477471001633
20
55.000005525603335
10
611.41477366369054
20
189.2397912746442
42
0.41421356237309503
10
603.4147736013349
20
197.23979121228859
0
LWPOLYLINE
5
115
100
AcDbEntity
8
0
100
AcDbPolyline
90
4
70
1
43
0.0
10
-58.499999431004909
20
-89.500000603275197
10
-63.499999431004888
20
-89.500000564302951
10
-63.499999080254469
20
-44.500000564302944
10
-58.499999080254469
20
-44.500000603275218
0
LWPOLYLINE
5
116
100
AcDbEntity
8
0
100
AcDbPolyline
90
4
70
1
43
0.0
10
-58.499998924365414
20
-24.500000096635727
10
-63.499998924365393
20
-24.500000057663456
10
-63.499998573614974
20
20.499999942336558
10
-58.499998573614974
20
20.499999903364291
0
LWPOLYLINE
5
117
100
AcDbEntity
8
0
100
AcDbPolyline
90
40
70
1
43
0.0
10
-68.07567595064026
20
-99.500000528637969
10
-88.499999508949458
20
-99.500000369441537
10
-88.499998495670425
20
30.500000137197794
10
-68.075674937361271
20
30.499999978001348
10
-68.075674898388996
20
35.49999997800137
42
-0.41421356237309531
10
-63.075674859416708
20
40.499999939029109
10
-43.075674859416758
20
40.499999783140041
42
-0.41421356237309453
10
-38.075674898389032
20
35.499999744167766
10
-38.075674937361299
20
30.499999744167738
10
-3.0756749373612635
20
30.499999471361857
10
-3.0756748983890048
20
35.499999471361889
42
-0.41421356237309459
10
1.9243251405832607
20
40.4999994323896
10
21.924325140583253
20
40.499999276500546
42
-0.41421356237309426
10
26.924325101610975
20
35.499999237528279
10
26.924325062638715
20
30.49999923752825
10
61.924325062638736
20
30.499998964722366
10
61.924325101610989
20
35.499998964722401
42
-0.41421356237309476
10
66.924325140583264
20
40.499998925750127
10
86.92432514058325
20
40.499998769861065
42
-0.41421356237309453
10
91.924325101610989
20
35.499998730888798
10
91.924325062638729
20
30.499998730888763
10
121.50000150432956
20
30.499998500362526
10
121.50000049105057
20
-99.500002006276787
10
91.924324049359726
20
-99.500001775750547
10
91.924324010387494
20
-104.50000177575055
42
-0.41421356237309503
10
86.92432397141522
20
-109.50000173677827
10
66.92432397141522
20
-109.50000158088923
42
-0.41421356237309503
10
61.924324010387501
20
-104.50000154191696
10
61.924324049359768
20
-99.500001541916959
10
26.924324049359729
20
-99.500001269111067
10
26.924324010387494
20
-104.50000126911107
42
-0.41421356237309453
10
21.92432397141523
20
-109.50000123013879
10
1.9243239714152074
20
-109.50000107424975
42
-0.41421356237309431
10
-3.0756759896125061
20
-104.50000103527748
10
-3.0756759506402398
20
-99.50000103527745
10
-38.075675950640274
20
-99.500000762471586
10
-38.075675989612506
20
-104.50000076247157
42
-0.41421356237309503
10
-43.07567602858478
20
-109.5000007234993
10
-63.07567602858478
20
-109.50000056761026
42
-0.41421356237309609
10
-68.075675989612535
20
-104.50000052863798
0
LWPOLYLINE
5
118
100
AcDbEntity
8
0
100
AcDbPolyline
90
4
70
1
43
0.0
10
111.50000056899512
20
-89.500001928332324
10
106.50000056899512
20
-89.50000188936005
10
106.50000091974553
20
-44.500001889360057
10
111.50000091974553
20
-44.500001928332331
0
CIRCLE
5
119
100
AcDbEntity
8
0
100
AcDbCircle
10
-32.581836520515893
20
-34.500000551973407
30
0
40
16.5
210
0
220
-0
230
1
0
LWPOLYLINE
5
120
100
AcDbEntity
8
0
100
AcDbPolyline
90
4
70
1
43
0.0
10
111.5000010756346
20
-24.500001421692858
10
106.5000010756346
20
-24.500001382720583
10
106.50000142638501
20
20.499998617279452
10
111.50000142638503
20
20.499998578307167
0
LWPOLYLINE
5
121
100
AcDbEntity
8
0
100
AcDbPolyline
90
4
70
1
43
0.0
10
107.2500018960008
20
178.24999739080678
10
112.2500018960008
20
178.24999735183462
10
112.25000154525037
20
133.24999735183459
10
107.25000154525037
20
133.24999739080687
0
LWPOLYLINE
5
122
100
AcDbEntity
8
0
100
AcDbPolyline
90
4
70
1
43
0.0
10
107.25000138936132
20
113.2499989107252
10
112.25000138936132
20
113.24999887175304
10
112.25000103861089
20
68.249998871753007
10
107.25000103861089
20
68.249998910725282
0
LINE
5
123
100
AcDbEntity
8
0
100
AcDbLine
10
162.25000197394536
20
188.24999696211188
30
0
11
116.82567841563618
21
188.24999731616967
31
0
0
LINE
5
124
100
AcDbEntity
8
0
100
AcDbLine
10
162.25000096066634
20
58.24999848203035
30
0
11
162.25000197394536
21
188.24999696211188
31
0
0
LINE
5
125
100
AcDbEntity
8
0
100
AcDbLine
10
116.82567740235717
20
58.249998836088125
30
0
11
162.25000096066634
21
58.24999848203035
31
0
0
LINE
5
126
100
AcDbEntity
8
0
100
AcDbLine
10
116.8256773633849
20
53.249998836088153
30
0
11
116.82567740235714
21
58.249998836088189
31
0
0
LINE
5
127
100
AcDbEntity
8
0
100
AcDbLine
10
91.825677324412638
20
48.249999030949496
30
0
11
111.8256773244126
21
48.249998875060427
31
0
0
LINE
5
128
100
AcDbEntity
8
0
100
AcDbLine
10
86.825677402357172
20
58.24999906992177
30
0
11
86.825677363384912
21
53.249999069921785
31
0
0
LINE
5
129
100
AcDbEntity
8
0
100
AcDbLine
10
51.825677402357172
20
58.249999342727619
30
0
11
86.825677402357172
21
58.249999069921749
31
0
0
LINE
5
130
100
AcDbEntity
8
0
100
AcDbLine
10
51.825677363384919
20
53.249999342727598
30
0
11
51.825677402357194
21
58.249999342727634
31
0
0
LINE
5
131
100
AcDbEntity
8
0
100
AcDbLine
10
26.825677324412631
20
48.249999537589012
30
0
11
46.825677324412645
21
48.249999381699872
31
0
0
LINE
5
132
100
AcDbEntity
8
0
100
AcDbLine
10
21.825677402357169
20
58.249999576561287
30
0
11
21.825677363384916
21
53.249999576561294
31
0
0
LINE
5
133
100
AcDbEntity
8
0
100
AcDbLine
10
-13.17432259764284
20
58.249999849367128
30
0
11
21.825677402357169
21
58.249999576561244
31
0
0
LINE
5
134
100
AcDbEntity
8
0
100
AcDbLine
10
-13.174322636615109
20
53.249999849367107
30
0
11
-13.174322597642846
21
58.249999849367143
31
0
0
LINE
5
135
100
AcDbEntity
8
0
100
AcDbLine
10
-38.174322675587376
20
48.250000044228536
30
0
11
-18.17432267558738
21
48.249999888339381
31
0
0
LINE
5
136
100
AcDbEntity
8
0
100
AcDbLine
10
-43.174322597642828
20
58.250000083200803
30
0
11
-43.174322636615102
21
53.25000008320081
31
0
0
LINE
5
137
100
AcDbEntity
8
0
100
AcDbLine
10
-72.749999039333645
20
58.250000313726986
30
0
11
-43.174322597642828
21
58.250000083200739
31
0
0
LINE
5
138
100
AcDbEntity
8
0
100
AcDbLine
10
-72.749998026054669
20
188.24999879380852
30
0
11
-72.749999039333645
21
58.250000313726986
31
0
0
LINE
5
139
100
AcDbEntity
8
0
100
AcDbLine
10
-43.174321584363824
20
188.24999856328225
30
0
11
-72.749998026054669
21
188.24999879380852
31
0
0
LINE
5
140
100
AcDbEntity
8
0
100
AcDbLine
10
-43.174321584363824
20
188.25000058984011
30
0
11
-43.17432154539155
21
193.25000058984014
31
0
0
LINE
5
141
100
AcDbEntity
8
0
100
AcDbLine
10
-38.17432150641929
20
198.2500005508679
30
0
11
-18.17432150641929
21
198.25000039497883
31
0
0
LINE
5
142
100
AcDbEntity
8
0
100
AcDbLine
10
-13.174321545391553
20
193.25000035600652
30
0
11
-13.174321584363827
21
188.2500003560065
31
0
0
LINE
5
143
100
AcDbEntity
8
0
100
AcDbLine
10
21.825678415636194
20
188.24999805664277
30
0
11
-13.174321584363824
21
188.24999832944866
31
0
0
LINE
5
144
100
AcDbEntity
8
0
100
AcDbLine
10
21.82567841563619
20
188.25000008320058
30
0
11
21.825678454608457
21
193.2500000832006
31
0
0
LINE
5
145
100
AcDbEntity
8
0
100
AcDbLine
10
26.825678493580725
20
198.25000004422836
30
0
11
46.82567849358071
21
198.24999988833929
31
0
0
LINE
5
146
100
AcDbEntity
8
0
100
AcDbLine
10
51.825678454608443
20
193.24999984936704
30
0
11
51.825678415636169
21
188.24999984936699
31
0
0
LINE
5
147
100
AcDbEntity
8
0
100
AcDbLine
10
86.82567841563619
20
188.24999755000329
30
0
11
51.825678415636176
21
188.24999782280915
31
0
0
LINE
5
148
100
AcDbEntity
8
0
100
AcDbLine
10
86.825678415636176
20
188.24999957656107
30
0
11
86.82567845460845
21
193.24999957656109
31
0
0
LINE
5
149
100
AcDbEntity
8
0
100
AcDbLine
10
91.825678493580725
20
198.24999953758888
30
0
11
111.82567849358071
21
198.24999938169981
31
0
0
LINE
5
150
100
AcDbEntity
8
0
100
AcDbLine
10
116.82567845460845
20
193.24999934272756
30
0
11
116.82567841563622
21
188.24999934272753
31
0
0
LWPOLYLINE
5
151
100
AcDbEntity
8
0
100
AcDbPolyline
90
6
70
1
43
0.0
10
-62.749998103999197
20
178.249998715864
10
-57.749998103999197
20
178.24999867689172
10
-57.749998454749623
20
133.24999867689166
10
-62.749998454749623
20
133.24999871586397
10
-62.749998158722782
20
171.22916771520761
42
-1.9654356893441616
10
-62.749998127220181
20
175.27083123643882
0
LWPOLYLINE
5
152
100
AcDbEntity
8
0
100
AcDbPolyline
90
6
70
1
43
0.0
10
-62.749998610638684
20
113.25000023578242
10
-57.749998610638684
20
113.25000019681015
10
-57.74999896138911
20
68.250000196810092
10
-62.74999896138911
20
68.250000235782394
10
-62.749998938168112
20
71.229167715207481
42
-1.9654356893441249
10
-62.74999890666556
20
75.270831236438852
0
LWPOLYLINE
5
153
100
AcDbEntity
8
0
100
AcDbPolyline
90
4
70
1
43
0.0
10
157.25000187261742
20
175.2499977610434
42
-0.99999999999999989
10
157.25000184143965
20
171.24999776104343
10
146.83257753639549
20
171.24999784224158
42
-4.791287847477931
10
146.83257756757331
20
175.24999784224156
0
LWPOLYLINE
5
154
100
AcDbEntity
8
0
100
AcDbPolyline
90
4
70
1
43
0.0
10
157.25000148289473
20
125.24999776104335
42
-0.99999999999999989
10
157.25000145171694
20
121.24999776104335
10
146.8325771466728
20
121.24999784224146
42
-4.7912878474778777
10
146.8325771778506
20
125.2499978422415
0
LWPOLYLINE
5
155
100
AcDbEntity
8
0
100
AcDbPolyline
90
4
70
1
43
0.0
10
157.25000109317205
20
75.249997761043318
42
-0.99999999999999989
10
157.25000106199425
20
71.249997761043346
10
146.83257675695006
20
71.249997842241498
42
-4.7912878474778777
10
146.83257678812788
20
75.249997842241513
0
LINE
5
156
100
AcDbEntity
8
0
100
AcDbLine
10
289.49999960348316
20
-5.628343355745189
30
0
11
284.49999960348316
21
-5.6283434343521987
31
0
0
LINE
5
157
100
AcDbEntity
8
0
100
AcDbLine
10
289.49999990338972
20
-25.028936671711083
30
0
11
289.49999960348316
21
-5.628343355745189
31
0
0
LINE
5
158
100
AcDbEntity
8
0
100
AcDbLine
10
289.49999991058934
20
-25.028936627713936
30
0
11
284.49999991058934
21
-25.028936706320945
31
0
0
LINE
5
159
100
AcDbEntity
8
0
100
AcDbLine
10
284.49999960348316
20
-5.6283434343521987
30
0
11
284.49999990338978
21
-25.028936748984847
31
0
0
LINE
5
160
100
AcDbEntity
8
0
100
AcDbLine
10
144.49999991058922
20
-25.028937797544483
30
0
11
139.49999991058922
21
-25.028937796882008
31
0
0
LINE
5
161
100
AcDbEntity
8
0
100
AcDbLine
10
144.49999991526127
20
-5.6283445255757067
30
0
11
139.4999999152613
21
-5.6283445249132349
31
0
0
LINE
5
162
100
AcDbEntity
8
0
100
AcDbLine
10
144.49999991778876
20
-25.028937840208357
30
0
11
144.49999991526127
21
-5.6283445255757067
31
0
0
LINE
5
163
100
AcDbEntity
8
0
100
AcDbLine
10
139.4999999152613
20
-5.6283445249132349
30
0
11
139.49999991778884
21
-25.028937840879138
31
0
0
LINE
5
164
100
AcDbEntity
8
0
100
AcDbLine
10
304.50000060786221
20
-114.48651453599156
30
0
11
304.49999934527011
21
47.499443606537696
31
0
0
LINE
5
165
100
AcDbEntity
8
0
100
AcDbLine
10
296.50000067032249
20
-122.49994090387031
30
0
11
132.50000067032255
21
-122.49994218216074
31
0
0
LINE
5
166
100
AcDbEntity
8
0
100
AcDbLine
10
124.49999934527014
20
47.499442203536013
30
0
11
124.50000060786221
21
-114.48651593899335
31
0
0
LWPOLYLINE
5
167
100
AcDbEntity
8
0
100
AcDbPolyline
90
4
70
1
43
0.0
10
461.99999828911757
20
-5.9999981293312477
10
461.99999828911757
20
-25.999998129331246
10
456.99999828911763
20
-25.999998129331246
10
456.99999828911763
20
-5.9999981293312477
0
LWPOLYLINE
5
168
100
AcDbEntity
8
0
100
AcDbPolyline
90
4
70
1
43
0.0
10
601.9999977824782
20
-25.999998129331246
10
601.9999977824782
20
-5.9999981293312477
10
606.99999778247809
20
-5.9999981293312477
10
606.99999778247809
20
-25.999998129331246
0
LINE
5
169
100
AcDbEntity
8
0
100
AcDbLine
10
611.99999783703925
20
-3.9999981657053585
30
0
11
611.99999783703925
21
-27.999998129331239
31
0
0
LINE
5
170
100
AcDbEntity
8
0
100
AcDbLine
10
596.99999757202795
20
1.0000017615463985
30
0
11
606.99999780066514
21
1.0000018342946413
31
0
0
LINE
5
171
100
AcDbEntity
8
0
100
AcDbLine
10
596.99999731481091
20
34.00000212398848
30
0
11
596.99999757202795
21
1.0000017615463985
31
0
0
LINE
5
172
100
AcDbEntity
8
0
100
AcDbLine
10
586.99999727583861
20
39.000002046043953
30
0
11
591.99999727583861
21
39.000002085016213
31
0
0
LINE
5
173
100
AcDbEntity
8
0
100
AcDbLine
10
586.99999723686642
20
44.000002046043953
30
0
11
586.99999727583861
21
39.000002046043953
31
0
0
LINE
5
174
100
AcDbEntity
8
0
100
AcDbLine
10
546.99999719789412
20
49.000001734265794
30
0
11
581.99999719789412
21
49.000002007071686
31
0
0
LINE
5
175
100
AcDbEntity
8
0
100
AcDbLine
10
541.99999727583861
20
39.000001695293534
30
0
11
541.99999723686642
21
44.000001695293527
31
0
0
LINE
5
176
100
AcDbEntity
8
0
100
AcDbLine
10
531.99999778247809
20
39.000001617348985
30
0
11
541.99999727583861
21
39.000001695293534
31
0
0
LINE
5
177
100
AcDbEntity
8
0
100
AcDbLine
10
521.99999879575705
20
39.00000169529352
30
0
11
531.99999778247809
21
39.000001617348957
31
0
0
LINE
5
178
100
AcDbEntity
8
0
100
AcDbLine
10
521.99999883472935
20
44.00000169529352
30
0
11
521.99999879575705
21
39.00000169529352
31
0
0
LINE
5
179
100
AcDbEntity
8
0
100
AcDbLine
10
481.9999988737016
20
49.000002007071679
30
0
11
516.99999887370166
21
49.000001734265801
31
0
0
LINE
5
180
100
AcDbEntity
8
0
100
AcDbLine
10
476.99999879575699
20
39.000002046043953
30
0
11
476.99999883472935
21
44.000002046043953
31
0
0
LINE
5
181
100
AcDbEntity
8
0
100
AcDbLine
10
471.99999879575716
20
39.000002085016206
30
0
11
476.99999879575699
21
39.000002046043953
31
0
0
LINE
5
182
100
AcDbEntity
8
0
100
AcDbLine
10
466.99999849956788
20
1.0000017615463852
30
0
11
466.99999875678486
21
34.00000212398848
31
0
0
LINE
5
183
100
AcDbEntity
8
0
100
AcDbLine
10
456.99999827093052
20
1.0000018342946413
30
0
11
466.99999849956788
21
1.0000017615463852
31
0
0
LINE
5
184
100
AcDbEntity
8
0
100
AcDbLine
10
451.99999823455641
20
-27.999998129331239
30
0
11
451.99999823455641
21
-3.9999981657053585
31
0
0
LINE
5
185
100
AcDbEntity
8
0
100
AcDbLine
10
466.99999823455641
20
-32.999998129331239
30
0
11
456.99999823455641
21
-32.999998129331239
31
0
0
LINE
5
186
100
AcDbEntity
8
0
100
AcDbLine
10
466.99999782145051
20
-85.999997876011491
30
0
11
466.99999823455641
21
-32.999998129331239
31
0
0
LINE
5
187
100
AcDbEntity
8
0
100
AcDbLine
10
476.99999778247815
20
-90.99999795395604
30
0
11
471.9999977824782
21
-90.99999791498378
31
0
0
LINE
5
188
100
AcDbEntity
8
0
100
AcDbLine
10
476.99999761100008
20
-112.999997953956
30
0
11
476.99999778247815
21
-90.99999795395604
31
0
0
LINE
5
189
100
AcDbEntity
8
0
100
AcDbLine
10
521.9999975486445
20
-120.99999830470645
30
0
11
484.99999754864456
21
-120.99999801631162
31
0
0
LINE
5
190
100
AcDbEntity
8
0
100
AcDbLine
10
521.99999778247809
20
-90.999998304706452
30
0
11
521.9999975486445
21
-120.99999830470645
31
0
0
LINE
5
191
100
AcDbEntity
8
0
100
AcDbLine
10
531.9999977824782
20
-90.999998382651029
30
0
11
521.99999778247809
21
-90.999998304706452
31
0
0
LINE
5
192
100
AcDbEntity
8
0
100
AcDbLine
10
541.99999828911757
20
-90.99999830470648
30
0
11
531.99999828911757
21
-90.999998382651029
31
0
0
LINE
5
193
100
AcDbEntity
8
0
100
AcDbLine
10
541.99999852295127
20
-120.99999830470639
30
0
11
541.99999828911757
21
-90.99999830470648
31
0
0
LINE
5
194
100
AcDbEntity
8
0
100
AcDbLine
10
578.99999852295116
20
-120.99999801631164
30
0
11
541.99999852295127
21
-120.99999830470639
31
0
0
LINE
5
195
100
AcDbEntity
8
0
100
AcDbLine
10
586.99999828911757
20
-90.99999795395604
30
0
11
586.99999846059552
21
-112.999997953956
31
0
0
LINE
5
196
100
AcDbEntity
8
0
100
AcDbLine
10
591.99999828911768
20
-90.99999791498378
30
0
11
586.99999828911757
21
-90.99999795395604
31
0
0
LINE
5
197
100
AcDbEntity
8
0
100
AcDbLine
10
596.99999783703925
20
-32.999998129331239
30
0
11
596.99999825014538
21
-85.999997876011506
31
0
0
LINE
5
198
100
AcDbEntity
8
0
100
AcDbLine
10
606.99999783703925
20
-32.999998129331239
30
0
11
596.99999783703925
21
-32.999998129331239
31
0
0
CIRCLE
5
199
100
AcDbEntity
8
0
100
AcDbCircle
10
399.99999849291953
20
-36.999998674943029
30
0
40
2.9000000000000004
210
0
220
0
230
1
0
LWPOLYLINE
5
200
100
AcDbEntity
8
0
100
AcDbPolyline
90
4
70
1
43
0.0
10
390.99999726804407
20
-33.499998674943008
10
390.99999726804407
20
-40.499998674943008
10
380.99999726804407
20
-40.499998674943015
10
380.99999726804407
20
-33.499998674943015
0
CIRCLE
5
201
100
AcDbEntity
8
0
100
AcDbCircle
10
371.99999604316866
20
-36.999998565820647
30
0
40
2.9000000000000004
210
0
220
0
230
1
0
LWPOLYLINE
5
202
100
AcDbEntity
8
0
100
AcDbPolyline
90
4
70
1
43
0.0
10
455.99999725245516
20
-60.999998674943015
10
455.99999725245516
20
-40.999998674943015
10
460.99999725245516
20
-40.999998674943015
10
460.99999725245516
20
-60.999998674943015
0
LWPOLYLINE
5
203
100
AcDbEntity
8
0
100
AcDbPolyline
90
4
70
1
43
0.0
10
315.99999775909464
20
-40.999998674943015
10
315.99999775909464
20
-60.999998674943015
10
310.99999775909464
20
-60.999998674943015
10
310.99999775909464
20
-40.999998674943015
0
LINE
5
204
100
AcDbEntity
8
0
100
AcDbLine
10
305.99999770453348
20
-62.999998638568904
30
0
11
305.99999770453348
21
-38.999998674943022
31
0
0
LINE
5
205
100
AcDbEntity
8
0
100
AcDbLine
10
320.99999796954489
20
-67.999998565820661
30
0
11
310.99999774090759
21
-67.999998638568883
31
0
0
LINE
5
206
100
AcDbEntity
8
0
100
AcDbLine
10
320.99999822676187
20
-100.99999892826274
30
0
11
320.99999796954489
21
-67.999998565820661
31
0
0
LINE
5
207
100
AcDbEntity
8
0
100
AcDbLine
10
330.99999826573418
20
-105.99999885031821
30
0
11
325.99999826573418
21
-105.99999888929048
31
0
0
LINE
5
208
100
AcDbEntity
8
0
100
AcDbLine
10
330.99999830470642
20
-110.99999885031821
30
0
11
330.99999826573418
21
-105.99999885031821
31
0
0
LINE
5
209
100
AcDbEntity
8
0
100
AcDbLine
10
370.99999834367873
20
-115.99999853854004
30
0
11
335.99999834367873
21
-115.99999881134593
31
0
0
LINE
5
210
100
AcDbEntity
8
0
100
AcDbLine
10
375.99999826573418
20
-105.99999849956777
30
0
11
375.99999830470642
21
-110.99999849956781
31
0
0
LINE
5
211
100
AcDbEntity
8
0
100
AcDbLine
10
385.99999775909475
20
-105.99999842162325
30
0
11
375.99999826573418
21
-105.99999849956777
31
0
0
LINE
5
212
100
AcDbEntity
8
0
100
AcDbLine
10
395.99999674581568
20
-105.99999849956777
30
0
11
385.99999775909464
21
-105.9999984216232
31
0
0
LINE
5
213
100
AcDbEntity
8
0
100
AcDbLine
10
395.99999670684338
20
-110.99999849956777
30
0
11
395.99999674581568
21
-105.99999849956777
31
0
0
LINE
5
214
100
AcDbEntity
8
0
100
AcDbLine
10
435.99999666787119
20
-115.99999881134593
30
0
11
400.99999666787113
21
-115.99999853854007
31
0
0
LINE
5
215
100
AcDbEntity
8
0
100
AcDbLine
10
440.99999674581574
20
-105.99999885031821
30
0
11
440.99999670684349
21
-110.99999885031822
31
0
0
LINE
5
216
100
AcDbEntity
8
0
100
AcDbLine
10
445.99999674581562
20
-105.99999888929047
30
0
11
440.99999674581574
21
-105.99999885031821
31
0
0
LINE
5
217
100
AcDbEntity
8
0
100
AcDbLine
10
450.99999704200485
20
-67.999998565820647
30
0
11
450.99999678478787
21
-100.99999892826276
31
0
0
LINE
5
218
100
AcDbEntity
8
0
100
AcDbLine
10
460.99999727064221
20
-67.999998638568911
30
0
11
450.99999704200485
21
-67.999998565820647
31
0
0
LINE
5
219
100
AcDbEntity
8
0
100
AcDbLine
10
465.99999730701632
20
-38.999998674943022
30
0
11
465.99999730701632
21
-62.999998638568904
31
0
0
LINE
5
220
100
AcDbEntity
8
0
100
AcDbLine
10
450.99999730701632
20
-33.999998674943022
30
0
11
460.99999730701632
21
-33.999998674943022
31
0
0
LINE
5
221
100
AcDbEntity
8
0
100
AcDbLine
10
450.99999772012234
20
19.000001071737241
30
0
11
450.99999730701632
21
-33.999998674943022
31
0
0
LINE
5
222
100
AcDbEntity
8
0
100
AcDbLine
10
440.99999775909464
20
24.000001149681786
30
0
11
445.99999775909458
21
24.000001110709505
31
0
0
LINE
5
223
100
AcDbEntity
8
0
100
AcDbLine
10
440.99999779806694
20
29.000001149681793
30
0
11
440.99999775909464
21
24.000001149681786
31
0
0
LINE
5
224
100
AcDbEntity
8
0
100
AcDbLine
10
395.99999775909464
20
24.000001500432219
30
0
11
395.99999779806689
21
29.000001500432163
31
0
0
LINE
5
225
100
AcDbEntity
8
0
100
AcDbLine
10
385.99999775909464
20
24.000001578376757
30
0
11
395.99999775909464
21
24.000001500432219
31
0
0
LINE
5
226
100
AcDbEntity
8
0
100
AcDbLine
10
375.99999725245527
20
24.000001500432191
30
0
11
385.99999725245516
21
24.000001578376757
31
0
0
LINE
5
227
100
AcDbEntity
8
0
100
AcDbLine
10
375.99999721348291
20
29.000001734265783
30
0
11
375.99999725245527
21
24.000001500432191
31
0
0
LINE
5
228
100
AcDbEntity
8
0
100
AcDbLine
10
330.99999725245516
20
24.000001149681786
30
0
11
330.99999721348291
21
29.000001929127095
31
0
0
LINE
5
229
100
AcDbEntity
8
0
100
AcDbLine
10
325.99999725245516
20
24.000001110709523
30
0
11
330.99999725245516
21
24.000001149681786
31
0
0
LINE
5
230
100
AcDbEntity
8
0
100
AcDbLine
10
320.99999770453348
20
-33.999998674943022
30
0
11
320.99999729142746
21
19.000001071737252
31
0
0
LINE
5
231
100
AcDbEntity
8
0
100
AcDbLine
10
310.99999770453348
20
-33.999998674943022
30
0
11
320.99999770453348
21
-33.999998674943022
31
0
0
CIRCLE
5
232
100
AcDbEntity
8
0
100
AcDbCircle
10
-141.31693212329714
20
176.07254286212986
30
0
40
1.5000000000000009
210
0
220
-0
230
1
0
LWPOLYLINE
5
233
100
AcDbEntity
8
0
100
AcDbPolyline
90
12
70
1
43
0.0
10
-121.50000290778539
20
182.52914101097667
42
-0.41421356237309592
10
-115.50000281425199
20
176.5291411045101
10
-115.50000278948653
20
174.94048147604272
10
-125.36243242871917
20
173.11410545790852
10
-125.36242886273047
20
-55.63757212987511
42
-0.41421356237310114
10
-128.3624288159638
20
-58.637572176641868
10
-142.36242881596377
20
-58.637572394886568
42
-0.41421356237309592
10
-145.3624288627305
20
-55.637572441653305
10
-145.36243237098245
20
169.41040144242666
10
-155.50000267401316
20
167.53307344507891
10
-155.50000281425199
20
176.5291404809538
42
-0.4142135623730942
10
-149.5000029077855
20
182.5291405744872
0
CIRCLE
5
234
100
AcDbEntity
8
0
100
AcDbCircle
10
-135.36242892169545
20
-51.855076931820619
30
0
40
1.4999999999999996
210
0
220
-0
230
1
0
CIRCLE
5
235
100
AcDbEntity
8
0
100
AcDbCircle
10
-105.67835999063379
20
-85.072546399147882
30
0
40
1.5000000000000002
210
0
220
0
230
1
0
LWPOLYLINE
5
236
100
AcDbEntity
8
0
100
AcDbPolyline
90
12
70
1
43
0.0
10
-125.49528920614557
20
-91.529144547994548
42
-0.41421356237309503
10
-131.49528929967897
20
-85.529144641528035
10
-131.49528932444443
20
-83.940485013060595
10
-121.6328596852118
20
-82.114108994926539
10
-121.63286325120046
20
146.63756859285715
42
-0.41421356237309503
10
-118.63286329796719
20
149.63756863962385
10
-104.63286329796719
20
149.63756885786856
42
-0.41421356237309503
10
-101.63286325120049
20
146.63756890463526
10
-101.6328597429485
20
-78.410404979444678
10
-91.49528943991784
20
-76.533076982096929
10
-91.495289299679058
20
-85.529144017971802
42
-0.41421356237309503
10
-97.495289206145486
20
-91.529144111505119
0
CIRCLE
5
237
100
AcDbEntity
8
0
100
AcDbCircle
10
-111.63286319223552
20
142.85507339480262
30
0
40
1.4999999999999991
210
0
220
0
230
1
0
LWPOLYLINE
5
238
100
AcDbEntity
8
0
100
AcDbPolyline
90
4
70
1
43
0.0
10
349.99999881524303
20
152.00000320092227
10
344.99999881524303
20
152.00000316194999
10
344.99999908025444
20
118.00000323469823
10
349.99999908025444
20
118.00000327367047
0
LWPOLYLINE
5
239
100
AcDbEntity
8
0
100
AcDbPolyline
90
4
70
1
43
0.0
10
194.5756759740236
20
60.000002354514649
10
194.57567601299587
20
55.000002354514656
10
224.57567601299587
20
55.000002588348273
10
224.5756759740236
20
60.000002588348273
0
LWPOLYLINE
5
240
100
AcDbEntity
8
0
100
AcDbPolyline
90
4
70
1
43
0.0
10
259.57567597402362
20
60.000002861154144
10
259.57567601299587
20
55.000002861154151
10
289.57567601299587
20
55.000003094987768
10
289.57567597402362
20
60.000003094987768
0
LWPOLYLINE
5
241
100
AcDbEntity
8
0
100
AcDbPolyline
90
4
70
1
43
0.0
10
324.57567601299587
20
55.000003367793653
10
354.57567601299587
20
55.000003601627263
10
354.57567597402362
20
60.000003601627263
10
324.57567597402362
20
60.000003367793639
0
LWPOLYLINE
5
242
100
AcDbEntity
8
0
100
AcDbPolyline
90
4
70
1
43
0.0
10
431.41477439636924
20
95.239790234084495
10
426.41477439636924
20
95.239790195112221
10
426.41477413135783
20
129.23979008598985
10
431.41477413135783
20
129.23979012496213
0
LWPOLYLINE
5
243
100
AcDbEntity
8
0
100
AcDbPolyline
90
4
70
1
43
0.0
10
581.8390971986164
20
192.23979104411799
10
581.8390972375887
20
187.23979104411799
10
551.83909723758859
20
187.23979081028435
10
551.8390971986164
20
192.23979081028435
0
LWPOLYLINE
5
244
100
AcDbEntity
8
0
100
AcDbPolyline
90
4
70
1
43
0.0
10
516.8390971986164
20
192.23979053747848
10
516.8390972375887
20
187.23979053747848
10
486.83909723758859
20
187.23979030364484
10
486.8390971986164
20
192.23979030364487
0
LWPOLYLINE
5
245
100
AcDbEntity
8
0
100
AcDbPolyline
90
4
70
1
43
0.0
10
421.8390971986164
20
192.23978979700536
10
451.83909719861629
20
192.23979003083895
10
451.83909723758865
20
187.23979003083898
10
421.83909723758865
20
187.23978979700536
0
ARC
5
246
100
AcDbEntity
8
0
100
AcDbCircle
10
-38.174322636615102
20
53.250000044228536
30
0
40
5
210
0
220
0
230
1
100
AcDbArc
50
180
51
269.99999955341065
0
ARC
5
247
100
AcDbEntity
8
0
100
AcDbCircle
10
-38.174321545391557
20
193.2500005508679
30
0
40
5
210
-0
220
0
230
1
100
AcDbArc
50
89.999999553410731
51
180
0
ARC
5
248
100
AcDbEntity
8
0
100
AcDbCircle
10
-18.174321545391553
20
193.2500003949788
30
0
40
5
210
0
220
0
230
1
100
AcDbArc
50
0
51
89.99999955341076
0
ARC
5
249
100
AcDbEntity
8
0
100
AcDbCircle
10
26.82567845460845
20
193.25000004422836
30
0
40
5
210
-0
220
0
230
1
100
AcDbArc
50
89.999999553410632
51
180
0
ARC
5
250
100
AcDbEntity
8
0
100
AcDbCircle
10
46.825678454608443
20
193.24999988833929
30
0
40
5
210
0
220
0
230
1
100
AcDbArc
50
0
51
89.999999553410731
0
ARC
5
251
100
AcDbEntity
8
0
100
AcDbCircle
10
91.82567845460845
20
193.24999953758888
30
0
40
5
210
-0
220
0
230
1
100
AcDbArc
50
89.999999553410632
51
180
0
ARC
5
252
100
AcDbEntity
8
0
100
AcDbCircle
10
111.82567845460845
20
193.24999938169984
30
0
40
5
210
0
220
0
230
1
100
AcDbArc
50
0
51
89.999999553410802
0
ARC
5
253
100
AcDbEntity
8
0
100
AcDbCircle
10
111.82567736338487
20
53.249998875060427
30
0
40
5
210
0
220
0
230
1
100
AcDbArc
50
269.99999955341065
51
360
0
ARC
5
254
100
AcDbEntity
8
0
100
AcDbCircle
10
91.825677363384912
20
53.24999903094951
30
0
40
5
210
0
220
0
230
1
100
AcDbArc
50
180
51
269.99999955341065
0
ARC
5
255
100
AcDbEntity
8
0
100
AcDbCircle
10
46.825677363384919
20
53.249999381699872
30
0
40
5
210
0
220
0
230
1
100
AcDbArc
50
269.99999955341065
51
360
0
ARC
5
256
100
AcDbEntity
8
0
100
AcDbCircle
10
26.825677363384916
20
53.249999537589019
30
0
40
5
210
0
220
0
230
1
100
AcDbArc
50
180
51
269.99999955341053
0
ARC
5
257
100
AcDbEntity
8
0
100
AcDbCircle
10
-18.174322636615109
20
53.249999888339381
30
0
40
5
210
0
220
0
230
1
100
AcDbArc
50
269.9999995534107
51
360
0
ARC
5
258
100
AcDbEntity
8
0
100
AcDbCircle
10
456.99999823455641
20
-27.999998129331239
30
0
40
5
210
0
220
0
230
1
100
AcDbArc
50
180
51
270
0
ARC
5
259
100
AcDbEntity
8
0
100
AcDbCircle
10
456.99999823455641
20
-3.9999981657053585
30
0
40
5
210
0
220
-0
230
1
100
AcDbArc
50
89.999999583183481
51
180
0
ARC
5
260
100
AcDbEntity
8
0
100
AcDbCircle
10
481.99999883472935
20
44.000002007071679
30
0
40
5
210
0
220
-0
230
1
100
AcDbArc
50
89.999999553410959
51
180
0
ARC
5
261
100
AcDbEntity
8
0
100
AcDbCircle
10
516.99999883472935
20
44.000001734265794
30
0
40
5
210
-0
220
0
230
1
100
AcDbArc
50
0
51
89.999999553410305
0
ARC
5
262
100
AcDbEntity
8
0
100
AcDbCircle
10
546.99999723686642
20
44.000001734265794
30
0
40
5
210
0
220
0
230
1
100
AcDbArc
50
90.000000446589695
51
180
0
ARC
5
263
100
AcDbEntity
8
0
100
AcDbCircle
10
581.99999723686642
20
44.000002007071679
30
0
40
5
210
0
220
-0
230
1
100
AcDbArc
50
0
51
90.000000446589695
0
ARC
5
264
100
AcDbEntity
8
0
100
AcDbCircle
10
606.99999783703925
20
-27.999998129331239
30
0
40
5
210
-0
220
0
230
1
100
AcDbArc
50
-90
51
0
0
ARC
5
265
100
AcDbEntity
8
0
100
AcDbCircle
10
606.99999783703925
20
-3.9999981657053585
30
0
40
5
210
0
220
-0
230
1
100
AcDbArc
50
0
51
90.000000416816533
0
ARC
5
266
100
AcDbEntity
8
0
100
AcDbCircle
10
484.99999761100014
20
-112.99999801631162
30
0
40
8.0000000000000426
210
0
220
0
230
1
100
AcDbArc
50
180
51
269.99999955341104
0
ARC
5
267
100
AcDbEntity
8
0
100
AcDbCircle
10
578.99999846059563
20
-112.99999801631162
30
0
40
8.0000000000000071
210
-0
220
0
230
1
100
AcDbArc
50
-89.999999553411456
51
0
0
ARC
5
268
100
AcDbEntity
8
0
100
AcDbCircle
10
335.99999721348291
20
29.000001968099369
30
0
40
5
210
0
220
-0
230
1
100
AcDbArc
50
89.999999553410959
51
180
0
LINE
5
269
100
AcDbEntity
8
0
100
AcDbLine
10
335.99999725245516
20
34.000001968099369
30
0
11
370.9999972524551
21
34.000001695293498
31
0
0
ARC
5
270
100
AcDbEntity
8
0
100
AcDbCircle
10
370.99999721348291
20
29.00000169529352
30
0
40
5
210
0
220
-0
230
1
100
AcDbArc
50
0
51
89.999999553411612
0
ARC
5
271
100
AcDbEntity
8
0
100
AcDbCircle
10
400.99999779806694
20
29.00000146145991
30
0
40
5
210
0
220
-0
230
1
100
AcDbArc
50
89.999999553410305
51
180
0
LINE
5
272
100
AcDbEntity
8
0
100
AcDbLine
10
400.99999783703925
20
34.00000146145991
30
0
11
435.99999783703925
21
34.000001188654068
31
0
0
ARC
5
273
100
AcDbEntity
8
0
100
AcDbCircle
10
435.99999779806694
20
29.000001188654061
30
0
40
5
210
0
220
0
230
1
100
AcDbArc
50
0
51
89.999999553410305
0
ARC
5
274
100
AcDbEntity
8
0
100
AcDbCircle
10
460.99999730701632
20
-38.999998674943022
30
0
40
5
210
0
220
0
230
1
100
AcDbArc
50
0
51
90
0
ARC
5
275
100
AcDbEntity
8
0
100
AcDbCircle
10
460.99999730701632
20
-62.999998638568904
30
0
40
5
210
0
220
0
230
1
100
AcDbArc
50
-90.000000416816533
51
0
0
ARC
5
276
100
AcDbEntity
8
0
100
AcDbCircle
10
435.99999670684349
20
-110.99999881134593
30
0
40
5
210
0
220
0
230
1
100
AcDbArc
50
269.9999995534103
51
360
0
ARC
5
277
100
AcDbEntity
8
0
100
AcDbCircle
10
400.99999670684338
20
-110.99999853854004
30
0
40
5
210
0
220
0
230
1
100
AcDbArc
50
180
51
269.99999955341093
0
ARC
5
278
100
AcDbEntity
8
0
100
AcDbCircle
10
370.99999830470642
20
-110.99999853854004
30
0
40
5
210
0
220
0
230
1
100
AcDbArc
50
-89.999999553410333
51
0
0
ARC
5
279
100
AcDbEntity
8
0
100
AcDbCircle
10
335.99999830470642
20
-110.99999881134593
30
0
40
5
210
0
220
0
230
1
100
AcDbArc
50
180
51
270.0000004465897
0
ARC
5
280
100
AcDbEntity
8
0
100
AcDbCircle
10
310.99999770453348
20
-62.999998638568904
30
0
40
5
210
0
220
0
230
1
100
AcDbArc
50
180
51
270.00000041681653
0
ARC
5
281
100
AcDbEntity
8
0
100
AcDbCircle
10
310.99999770453348
20
-38.999998674943022
30
0
40
5
210
-0
220
0
230
1
100
AcDbArc
50
90
51
180
0
CIRCLE
5
282
100
AcDbEntity
8
0
100
AcDbCircle
10
-49.497866442538466
20
-51.416030210293542
30
0
40
0.99999999999999867
210
0
220
-0
230
1
0
CIRCLE
5
283
100
AcDbEntity
8
0
100
AcDbCircle
10
-15.665806598493345
20
-17.583970893653262
30
0
40
0.99999999999999867
210
0
220
-0
230
1
0
LINE
5
284
100
AcDbEntity
8
0
100
AcDbLine
10
466.99999782145051
20
-85.999997876011491
30
0
11
471.9999977824782
21
-90.99999791498378
31
0
0
LINE
5
285
100
AcDbEntity
8
0
100
AcDbLine
10
471.99999879575716
20
39.000002085016206
30
0
11
466.99999875678486
21
34.00000212398848
31
0
0
LINE
5
286
100
AcDbEntity
8
0
100
AcDbLine
10
596.99999731481091
20
34.00000212398848
30
0
11
591.99999727583861
21
39.000002085016213
31
0
0
LINE
5
287
100
AcDbEntity
8
0
100
AcDbLine
10
591.99999828911768
20
-90.99999791498378
30
0
11
596.99999825014538
21
-85.999997876011506
31
0
0
LINE
5
288
100
AcDbEntity
8
0
100
AcDbLine
10
325.99999725245516
20
24.000001110709523
30
0
11
320.99999729142746
21
19.000001071737252
31
0
0
LINE
5
289
100
AcDbEntity
8
0
100
AcDbLine
10
450.99999772012234
20
19.000001071737241
30
0
11
445.99999775909458
21
24.000001110709505
31
0
0
LINE
5
290
100
AcDbEntity
8
0
100
AcDbLine
10
445.99999674581562
20
-105.99999888929047
30
0
11
450.99999678478787
21
-100.99999892826276
31
0
0
LINE
5
291
100
AcDbEntity
8
0
100
AcDbLine
10
320.99999822676187
20
-100.99999892826274
30
0
11
325.99999826573418
21
-105.99999888929048
31
0
0
LINE
5
292
100
AcDbEntity
8
0
100
AcDbLine
10
124.49999934516526
20
47.512897476209673
30
0
11
304.49999934516529
21
47.512898879211363
31
0
0
ELLIPSE
5
293
100
AcDbEntity
8
0
100
AcDbEllipse
10
296.50000060796708
20
-114.4999698710208
30
0
11
8
21
6.2643075171564533e-08
31
0.0
40
0.99999637910619021
41
4.7123889803487575
42
6.2831853071436612
0
ELLIPSE
5
294
100
AcDbEntity
8
0
100
AcDbEllipse
10
132.50000060796714
20
-114.49997114931122
30
0
11
8
21
6.2259795652330752e-08
31
0.0
40
0.99999637910619021
41
3.1415926536017711
42
4.7123889803966694
0
LINE
5
295
100
AcDbEntity
8
0
100
AcDbLine
10
124.49999934516526
20
47.512897476209673
30
0
11
124.49999934527014
21
47.499442203536013
31
0
0
LINE
5
296
100
AcDbEntity
8
0
100
AcDbLine
10
304.49999934527011
20
47.499443606537696
30
0
11
304.49999934516529
21
47.512898879211363
31
0
0
ENDSEC
0
SECTION
2
OBJECTS
0
DICTIONARY
5
C
100
AcDbDictionary
3
ACAD_GROUP
350
D
3
ACAD_MLINESTYLE
350
17
0
DICTIONARY
5
D
100
AcDbDictionary
0
DICTIONARY
5
1A
330
C
100
AcDbDictionary
0
DICTIONARY
5
17
100
AcDbDictionary
0
ENDSEC
0
EOF
