0
SECTION
2
HEADER
9
$INSUNITS
70
4
9
$ACADVER
1
AC1014
9
$HANDSEED
5
FFFF
0
ENDSEC
0
SECTION
2
TABLES
0
TABLE
2
VPORT
5
8
100
AcDbSymbolTable
0
ENDTAB
0
TABLE
2
LTYPE
5
5
100
AcDbSymbolTable
0
LTYPE
5
14
100
AcDbSymbolTableRecord
100
AcDbLinetypeTableRecord
2
BYBLOCK
70
0
0
LTYPE
5
15
100
AcDbSymbolTableRecord
100
AcDbLinetypeTableRecord
2
BYLAYER
70
0
0
ENDTAB
0
TABLE
2
LAYER
5
2
100
AcDbSymbolTable
70
2
0
LAYER
5
50
100
AcDbSymbolTableRecord
100
AcDbLayerTableRecord
2
0
70
0
6
CONTINUOUS
0
ENDTAB
0
TABLE
2
STYLE
5
3
100
AcDbSymbolTable
70
1
0
STYLE
5
11
100
AcDbSymbolTableRecord
100
AcDbTextStyleTableRecord
2
STANDARD
70
0
0
ENDTAB
0
TABLE
2
VIEW
5
6
100
AcDbSymbolTable
70
0
0
ENDTAB
0
TABLE
2
UCS
5
7
100
AcDbSymbolTable
70
0
0
ENDTAB
0
TABLE
2
APPID
5
9
100
AcDbSymbolTable
70
2
0
APPID
5
12
100
AcDbSymbolTableRecord
100
AcDbRegAppTableRecord
2
ACAD
70
0
0
ENDTAB
0
TABLE
2
DIMSTYLE
5
A
100
AcDbSymbolTable
70
1
0
ENDTAB
0
TABLE
2
BLOCK_RECORD
5
1
100
AcDbSymbolTable
70
1
0
BLOCK_RECORD
5
1F
100
AcDbSymbolTableRecord
100
AcDbBlockTableRecord
2
*MODEL_SPACE
0
BLOCK_RECORD
5
1B
100
AcDbSymbolTableRecord
100
AcDbBlockTableRecord
2
*PAPER_SPACE
0
ENDTAB
0
ENDSEC
0
SECTION
2
BLOCKS
0
BLOCK
5
20
100
AcDbEntity
100
AcDbBlockBegin
2
*MODEL_SPACE
0
ENDBLK
5
21
100
AcDbEntity
100
AcDbBlockEnd
0
BLOCK
5
1C
100
AcDbEntity
100
AcDbBlockBegin
2
*PAPER_SPACE
0
ENDBLK
5
1D
100
AcDbEntity
100
AcDbBlockEnd
0
ENDSEC
0
SECTION
2
ENTITIES
0
LWPOLYLINE
5
100
100
AcDbEntity
8
0
100
AcDbPolyline
90
4
70
1
43
0.0
10
300.00000447034836
20
198.00000295042992
10
-188.0000028014183
20
198.00000295042989
10
-188.0000028014183
20
-296.37065261140953
10
300.00000447034836
20
-296.37065261140947
0
CIRCLE
5
101
100
AcDbEntity
8
0
100
AcDbCircle
10
-181.21750569830766
20
134.99999805748584
30
0
40
1.4999999999999991
210
0
220
0
230
1
0
LWPOLYLINE
5
102
100
AcDbEntity
8
0
100
AcDbPolyline
90
4
70
1
43
0.0
10
1.5756749607445535
20
190.00000031080947
10
1.5756749381406365
20
192.90000031080947
10
-28.424325061859356
20
192.90000007697583
10
-28.424325039255443
20
190.00000007697582
0
LWPOLYLINE
5
103
100
AcDbEntity
8
0
100
AcDbPolyline
90
4
70
1
43
0.0
10
-63.424325039255443
20
189.99999980416999
10
-63.424325061859363
20
192.89999980416997
10
-93.424325061859363
20
192.89999957033632
10
-93.424325039255436
20
189.99999957033634
0
LWPOLYLINE
5
104
100
AcDbEntity
8
0
100
AcDbPolyline
90
4
70
1
43
0.0
10
-128.42432503925545
20
189.99999929753048
10
-128.42432506185935
20
192.89999929753048
10
-158.42432506185935
20
192.89999906369684
10
-158.42432503925545
20
189.99999906369683
0
LWPOLYLINE
5
105
100
AcDbEntity
8
0
100
AcDbPolyline
90
4
70
1
43
0.0
10
-173.00000118475702
20
151.99999911808632
10
-175.90000118475703
20
151.99999909548239
10
-175.90000091974559
20
117.99999915819885
10
-173.00000091974553
20
117.99999918158251
0
CIRCLE
5
106
100
AcDbEntity
8
0
100
AcDbCircle
10
1.499999056871042
20
121.00000012081394
30
0
40
2.9000000000000004
210
0
220
-0
230
1
0
LWPOLYLINE
5
107
100
AcDbEntity
8
0
100
AcDbPolyline
90
6
70
1
43
0.0
10
-183.0000015373663
20
197.23848241209305
10
48.361639468118653
20
197.23848421543065
10
21.454476627954371
20
54.200000420545521
10
-177.90000042245947
20
54.199998866686279
42
-0.41421356237309404
10
-185.90000048481505
20
62.19999880433059
10
-185.90000151476235
20
194.33848238948912
42
-0.41421356237309503
0
CIRCLE
5
108
100
AcDbEntity
8
0
100
AcDbCircle
10
254.03362179438076
20
116.43848556521171
30
0
40
1.4999999999999991
210
0
220
0
230
1
0
LWPOLYLINE
5
109
100
AcDbEntity
8
0
100
AcDbPolyline
90
4
70
1
43
0.0
10
71.240441157932395
20
58.538484393757955
10
71.240441135328467
20
61.438484393757975
10
101.24044113532847
20
61.438484627591592
10
101.24044115793239
20
58.5384846275916
0
LWPOLYLINE
5
110
100
AcDbEntity
8
0
100
AcDbPolyline
90
4
70
1
43
0.0
10
136.24044115793239
20
58.538484900397485
10
136.24044113532847
20
61.438484900397476
10
166.24044113532847
20
61.438485134231094
10
166.24044115793239
20
58.538485134231102
0
LWPOLYLINE
5
111
100
AcDbEntity
8
0
100
AcDbPolyline
90
4
70
1
43
0.0
10
201.24044115793239
20
58.538485407036987
10
201.24044113532847
20
61.438485407036978
10
231.24044113532847
20
61.438485640870589
10
231.24044115793239
20
58.538485640870604
0
LWPOLYLINE
5
112
100
AcDbEntity
8
0
100
AcDbPolyline
90
4
70
1
43
0.0
10
248.7161172808301
20
99.438485609503658
10
245.8161172808301
20
99.438485586899759
10
245.81611701581863
20
133.43848550116076
10
248.71611701581861
20
133.43848552376465
0
CIRCLE
5
113
100
AcDbEntity
8
0
100
AcDbCircle
10
71.316117039201956
20
130.43848453854565
30
0
40
2.8999999999999999
210
0
220
-0
230
1
0
LWPOLYLINE
5
114
100
AcDbEntity
8
0
100
AcDbPolyline
90
6
70
1
43
0.0
10
51.361639468118632
20
197.23848423881407
10
24.454476627954378
20
54.200000443928886
10
255.81611763343938
20
54.200002247266568
42
0.41421356237309415
10
258.71611761083545
20
57.100002269870487
10
258.71611658088807
20
189.23848585502896
42
0.41421356237309503
10
250.71611651853246
20
197.23848579267332
0
LWPOLYLINE
5
115
100
AcDbEntity
8
0
100
AcDbPolyline
90
4
70
1
43
0.0
10
227.91611749703634
20
36.70000246473181
10
230.81611749703637
20
36.700002442127882
10
230.81611714628593
20
-8.2999975578721479
10
227.91611714628596
20
-8.2999975352682309
0
LWPOLYLINE
5
116
100
AcDbEntity
8
0
100
AcDbPolyline
90
4
70
1
43
0.0
10
227.91611699039686
20
-28.299999055186689
10
230.81611699039684
20
-28.299999077790599
10
230.8161166396464
20
-73.299999077790616
10
227.91611663964642
20
-73.299999055186689
0
LWPOLYLINE
5
117
100
AcDbEntity
8
0
100
AcDbPolyline
90
40
70
1
43
0.0
10
235.39179401667172
20
46.700002406462986
10
255.81611757498092
20
46.700002247266553
10
255.81611656170185
20
-83.299999272651931
10
235.39179300339265
20
-83.299999113455499
10
235.39179298078878
20
-86.199999113455476
42
-0.41421356237309503
10
232.49179295818482
20
-89.099999090851568
10
208.29179295818483
20
-89.099998902225778
42
-0.41421356237309326
10
205.39179298078875
20
-86.199998879621873
10
205.39179300339265
20
-83.299998879621867
10
170.39179300339265
20
-83.299998606815976
10
170.39179298078878
20
-86.199998606815953
42
-0.41421356237309503
10
167.49179295818482
20
-89.099998584212031
10
143.29179295818483
20
-89.099998395586226
42
-0.41421356237309687
10
140.39179298078875
20
-86.199998372982321
10
140.39179300339268
20
-83.29999837298233
10
105.39179300339268
20
-83.299998100176467
10
105.39179298078875
20
-86.19999810017643
42
-0.41421356237309503
10
102.49179295818482
20
-89.099998077572522
10
78.291792958184843
20
-89.099997888946731
42
-0.41421356237309503
10
75.39179298078875
20
-86.199997866342827
10
75.391793003392678
20
-83.299997866342821
10
47.916116561701841
20
-83.299997652184913
10
47.916117574980895
20
46.700003867733521
10
75.391794016671724
20
46.700003653575635
10
75.391794039275609
20
49.600003653575641
42
-0.41421356237309592
10
78.291794061879528
20
52.500003630971726
10
102.49179406187952
20
52.500003442345964
42
-0.41421356237309415
10
105.39179403927562
20
49.600003419742038
10
105.3917940166717
20
46.700003419742011
10
140.39179401667172
20
46.700003146936133
10
140.39179403927562
20
49.600003146936118
42
-0.41421356237309503
10
143.29179406187953
20
52.50000312433221
10
167.49179406187955
20
52.500002935706462
42
-0.41421356237309415
10
170.39179403927565
20
49.600002913102514
10
170.39179401667172
20
46.700002913102487
10
205.39179401667172
20
46.700002640296631
10
205.39179403927562
20
49.600002640296601
42
-0.41421356237309592
10
208.29179406187956
20
52.500002617692687
10
232.49179406187955
20
52.500002429066939
42
-0.41421356237309415
10
235.39179403927565
20
49.600002406462991
0
LWPOLYLINE
5
118
100
AcDbEntity
8
0
100
AcDbPolyline
90
4
70
1
43
0.0
10
57.916117497036346
20
36.700003789789015
10
60.816117497036345
20
36.700003767185095
10
60.816117146285897
20
-8.2999962328149479
10
57.916117146285927
20
-8.2999962102110292
0
CIRCLE
5
119
100
AcDbEntity
8
0
100
AcDbCircle
10
199.89795458654731
20
-18.299998076841145
30
0
40
16.5
210
0
220
-0
230
1
0
LWPOLYLINE
5
120
100
AcDbEntity
8
0
100
AcDbPolyline
90
4
70
1
43
0.0
10
57.916116990396816
20
-28.299997730129487
10
60.816116990396822
20
-28.299997752733404
10
60.816116639646381
20
-73.299997752733432
10
57.91611663964639
20
-73.29999773012949
0
LWPOLYLINE
5
121
100
AcDbEntity
8
0
100
AcDbPolyline
90
4
70
1
43
0.0
10
-7.9838825029636684
20
36.700004303443457
10
-5.0838825029636681
20
36.700004280839529
10
-5.0838828537140905
20
-8.2999957191604707
10
-7.983882853714082
20
-8.2999956965565538
0
LWPOLYLINE
5
122
100
AcDbEntity
8
0
100
AcDbPolyline
90
4
70
1
43
0.0
10
-7.9838830096031632
20
-28.299995189917194
10
-5.0838830096031629
20
-28.29999521252099
10
-5.0838833603535836
20
-73.299995212520997
10
-7.983883360353575
20
-73.299995189917098
0
LINE
5
123
100
AcDbEntity
8
0
100
AcDbLine
10
44.916117574980881
20
46.700003891116886
30
0
11
-0.50820598332830258
21
46.700004245174675
31
0
0
LINE
5
124
100
AcDbEntity
8
0
100
AcDbLine
10
44.916116561701863
20
-83.299995602243598
30
0
11
44.916117574980881
21
46.700003891116886
31
0
0
LINE
5
125
100
AcDbEntity
8
0
100
AcDbLine
10
-0.50820699660736324
20
-83.299995248185837
30
0
11
44.916116561701863
21
-83.299995602243598
31
0
0
LINE
5
126
100
AcDbEntity
8
0
100
AcDbLine
10
-0.50820701921123645
20
-86.199995248185928
30
0
11
-0.50820699660732038
21
-83.299995248185908
31
0
0
LINE
5
127
100
AcDbEntity
8
0
100
AcDbLine
10
-27.608207041815152
20
-89.099995036956216
30
0
11
-3.4082070418151451
21
-89.099995225581949
31
0
0
LINE
5
128
100
AcDbEntity
8
0
100
AcDbLine
10
-30.508206996607324
20
-83.299995014352319
30
0
11
-30.508207019211227
21
-86.199995014352325
31
0
0
LINE
5
129
100
AcDbEntity
8
0
100
AcDbLine
10
-65.508206996607356
20
-83.299994741546342
30
0
11
-30.508206996607363
21
-83.299995014352234
31
0
0
LINE
5
130
100
AcDbEntity
8
0
100
AcDbLine
10
-65.508207019211227
20
-86.199994741546476
30
0
11
-65.508206996607313
21
-83.29999474154647
31
0
0
LINE
5
131
100
AcDbEntity
8
0
100
AcDbLine
10
-92.608207041815149
20
-89.099994530316707
30
0
11
-68.408207041815132
21
-89.099994718942511
31
0
0
LINE
5
132
100
AcDbEntity
8
0
100
AcDbLine
10
-95.508206996607313
20
-83.29999450771281
30
0
11
-95.508207019211241
21
-86.199994507712816
31
0
0
LINE
5
133
100
AcDbEntity
8
0
100
AcDbLine
10
-130.50820699660736
20
-83.299994234906848
30
0
11
-95.508206996607356
21
-83.299994507712739
31
0
0
LINE
5
134
100
AcDbEntity
8
0
100
AcDbLine
10
-130.50820701921123
20
-86.199994234906967
30
0
11
-130.50820699660733
21
-83.299994234906961
31
0
0
LINE
5
135
100
AcDbEntity
8
0
100
AcDbLine
10
-157.60820704181515
20
-89.099994023677198
30
0
11
-133.40820704181519
21
-89.099994212302988
31
0
0
LINE
5
136
100
AcDbEntity
8
0
100
AcDbLine
10
-160.50820699660736
20
-83.299994001073287
30
0
11
-160.50820701921123
21
-86.199994001073307
31
0
0
LINE
5
137
100
AcDbEntity
8
0
100
AcDbLine
10
-187.98388343829816
20
-83.299993786915337
30
0
11
-160.50820699660736
21
-83.29999400107323
31
0
0
LINE
5
138
100
AcDbEntity
8
0
100
AcDbLine
10
-187.98388242501917
20
46.700005706445097
30
0
11
-187.98388343829816
21
-83.299993786915337
31
0
0
LINE
5
139
100
AcDbEntity
8
0
100
AcDbLine
10
-160.50820598332831
20
46.700005492287282
30
0
11
-187.98388242501917
21
46.700005706445097
31
0
0
LINE
5
140
100
AcDbEntity
8
0
100
AcDbLine
10
-160.50820598332831
20
46.700007518845169
30
0
11
-160.50820596072438
21
49.60000751884516
31
0
0
LINE
5
141
100
AcDbEntity
8
0
100
AcDbLine
10
-157.60820593812048
20
52.500007496241246
30
0
11
-133.40820593812049
21
52.500007307615519
31
0
0
LINE
5
142
100
AcDbEntity
8
0
100
AcDbLine
10
-130.50820596072438
20
49.600007285011543
30
0
11
-130.50820598332831
21
46.700007285011623
31
0
0
LINE
5
143
100
AcDbEntity
8
0
100
AcDbLine
10
-95.50820598332831
20
46.700004985647787
30
0
11
-130.50820598332831
21
46.700005258453672
31
0
0
LINE
5
144
100
AcDbEntity
8
0
100
AcDbLine
10
-95.50820598332831
20
46.70000701220566
30
0
11
-95.508205960724396
21
49.600007012205651
31
0
0
LINE
5
145
100
AcDbEntity
8
0
100
AcDbLine
10
-92.608205938120491
20
52.500006989601729
30
0
11
-68.408205938120489
21
52.500006800976003
31
0
0
LINE
5
146
100
AcDbEntity
8
0
100
AcDbLine
10
-65.508205960724382
20
49.600006778372034
30
0
11
-65.508205983328295
21
46.700006778372114
31
0
0
LINE
5
147
100
AcDbEntity
8
0
100
AcDbLine
10
-30.508205983328303
20
46.700004479008292
30
0
11
-65.50820598332831
21
46.70000475181417
31
0
0
LINE
5
148
100
AcDbEntity
8
0
100
AcDbLine
10
-30.508205983328306
20
46.700006505566151
30
0
11
-30.508205960724393
21
49.600006505566142
31
0
0
LINE
5
149
100
AcDbEntity
8
0
100
AcDbLine
10
-27.608205938120474
20
52.50000648296222
30
0
11
-3.4082059381204655
21
52.500006294336494
31
0
0
LINE
5
150
100
AcDbEntity
8
0
100
AcDbLine
10
-0.50820596072435664
20
49.600006271732589
30
0
11
-0.50820598332828082
21
46.700006271732668
31
0
0
LWPOLYLINE
5
151
100
AcDbEntity
8
0
100
AcDbPolyline
90
4
70
1
43
0.0
10
-177.9838825029637
20
36.70000562850062
10
-175.08388250296372
20
36.700005605896706
10
-175.0838828537141
20
-8.2999943941033667
10
-177.98388285371414
20
-8.2999943714994338
0
CIRCLE
5
152
100
AcDbEntity
8
0
100
AcDbCircle
10
-181.5556981858555
20
-68.299994090339396
30
0
40
2.5
210
0
220
-0
230
1
0
CIRCLE
5
153
100
AcDbEntity
8
0
100
AcDbCircle
10
-181.5556974064101
20
31.700005909660689
30
0
40
2.5
210
0
220
-0
230
1
0
LWPOLYLINE
5
154
100
AcDbEntity
8
0
100
AcDbPolyline
90
4
70
1
43
0.0
10
-177.98388300960318
20
-28.299993864860028
10
-175.0838830096032
20
-28.299993887463948
10
-175.08388336035358
20
-73.299993887463955
10
-177.98388336035362
20
-73.299993864859971
0
LWPOLYLINE
5
155
100
AcDbEntity
8
0
100
AcDbPolyline
90
4
70
1
43
0.0
10
39.916117473652982
20
33.700004183408865
42
-0.99999999999999989
10
39.916117442475169
20
29.700004183408886
10
29.498693137431005
20
29.70000426460701
42
-4.7912878474778777
10
29.49869316860881
20
33.700004264607045
0
LWPOLYLINE
5
156
100
AcDbEntity
8
0
100
AcDbPolyline
90
4
70
1
43
0.0
10
39.916117083930274
20
-16.299995816591199
42
-0.99999999999999989
10
39.916117052752462
20
-20.299995816591185
10
29.498692747708304
20
-20.299995735393054
42
-4.7912878474778777
10
29.49869277888611
20
-16.299995735393029
0
LWPOLYLINE
5
157
100
AcDbEntity
8
0
100
AcDbPolyline
90
4
70
1
43
0.0
10
39.916116694207574
20
-66.299995816591206
42
-0.99999999999999989
10
39.916116663029761
20
-70.299995816591192
10
29.498692357985597
20
-70.299995735393068
42
-4.7912878474778831
10
29.498692389163406
20
-66.29999573539304
0
LINE
5
158
100
AcDbEntity
8
0
100
AcDbLine
10
-71.457982791610405
20
-246.19999847821316
30
0
11
-71.457982837214686
21
-243.29999847821315
31
0
0
LINE
5
159
100
AcDbEntity
8
0
100
AcDbLine
10
-91.26363849624812
20
-246.19999878430082
30
0
11
-71.457982791610405
21
-246.19999847821316
31
0
0
LINE
5
160
100
AcDbEntity
8
0
100
AcDbLine
10
-91.263638454399825
20
-246.19999878847651
30
0
11
-91.263638500004106
21
-243.2999987884765
31
0
0
LINE
5
161
100
AcDbEntity
8
0
100
AcDbLine
10
-71.457982837214686
20
-243.29999847821315
30
0
11
-91.263638541066882
21
-243.29999878430073
31
0
0
LINE
5
162
100
AcDbEntity
8
0
100
AcDbLine
10
-91.263639558490951
20
-107.49999878847649
30
0
11
-91.263639558094511
21
-104.59999878847651
31
0
0
LINE
5
163
100
AcDbEntity
8
0
100
AcDbLine
10
-71.457983895701474
20
-107.49999878999132
30
0
11
-71.457983895305034
21
-104.59999878999129
31
0
0
LINE
5
164
100
AcDbEntity
8
0
100
AcDbLine
10
-91.263639599553713
20
-107.49999879265221
30
0
11
-71.457983895701474
21
-107.49999878999132
31
0
0
LINE
5
165
100
AcDbEntity
8
0
100
AcDbLine
10
-71.457983895305034
20
-104.59999878999129
30
0
11
-91.263639599942763
21
-104.59999879265223
31
0
0
LWPOLYLINE
5
166
100
AcDbEntity
8
0
100
AcDbPolyline
90
8
70
1
43
0.0
10
-18.303282263652356
20
-259.09999821979045
10
-180.30328075204719
20
-259.09999948249185
10
-180.30367691576441
20
-259.0999994078478
42
-0.41421356237309243
10
-188.30367690347288
20
-251.09999954485062
10
-188.30367808355311
20
-99.699999544850542
42
-0.41421356237309437
10
-180.30367822055592
20
-91.699999557142092
10
-180.30328205683867
20
-91.699999482491791
10
-18.303283568443891
20
-91.699998219790331
0
LWPOLYLINE
5
167
100
AcDbEntity
8
0
100
AcDbPolyline
90
4
70
1
43
0.0
10
34.947641051714243
20
-229.39999821937499
10
54.947641051714243
20
-229.39999821937499
10
54.947641051714257
20
-232.29999821937503
10
34.947641051714257
20
-232.299998219375
0
LWPOLYLINE
5
168
100
AcDbEntity
8
0
100
AcDbPolyline
90
4
70
1
43
0.0
10
54.947641051714264
20
-93.599997712735501
10
34.947641051714264
20
-93.599997712735501
10
34.947641051714264
20
-90.699997712735509
10
54.947641051714257
20
-90.699997712735581
0
LINE
5
169
100
AcDbEntity
8
0
100
AcDbLine
10
30.84764107473675
20
-85.699997658174354
30
0
11
59.047641051714265
21
-85.699997658174354
31
0
0
LINE
5
170
100
AcDbEntity
8
0
100
AcDbLine
10
27.94764113745326
20
-96.499997923185745
30
0
11
27.947641074736769
21
-88.599997681196854
31
0
0
LINE
5
171
100
AcDbEntity
8
0
100
AcDbLine
10
-5.0523586949660224
20
-96.499998180402713
30
0
11
27.94764113745326
21
-96.499997923185745
31
0
0
LINE
5
172
100
AcDbEntity
8
0
100
AcDbLine
10
-10.052358617021513
20
-106.49999821937499
30
0
11
-10.052358655993785
21
-101.49999821937497
31
0
0
LINE
5
173
100
AcDbEntity
8
0
100
AcDbLine
10
-12.952358617021531
20
-106.49999824197891
30
0
11
-10.052358617021513
21
-106.49999821937499
31
0
0
LINE
5
174
100
AcDbEntity
8
0
100
AcDbLine
10
-15.852358288874981
20
-148.59999826458281
30
0
11
-15.852358594417614
21
-109.39999826458279
31
0
0
LINE
5
175
100
AcDbEntity
8
0
100
AcDbLine
10
-10.052358266271026
20
-151.49999821937496
30
0
11
-12.952358266271062
21
-151.49999824197889
31
0
0
LINE
5
176
100
AcDbEntity
8
0
100
AcDbLine
10
-10.052358188326487
20
-161.49999771273548
30
0
11
-10.052358266271026
21
-151.49999821937496
31
0
0
LINE
5
177
100
AcDbEntity
8
0
100
AcDbLine
10
-10.052358266271062
20
-171.49999771273548
30
0
11
-10.052358188326531
21
-161.49999821937496
31
0
0
LINE
5
178
100
AcDbEntity
8
0
100
AcDbLine
10
-12.952358266271107
20
-171.49999769013161
30
0
11
-10.052358266271062
21
-171.49999771273548
31
0
0
LINE
5
179
100
AcDbEntity
8
0
100
AcDbLine
10
-15.852358594417595
20
-213.5999976675277
30
0
11
-15.85235828887501
21
-174.39999766752771
31
0
0
LINE
5
180
100
AcDbEntity
8
0
100
AcDbLine
10
-10.052358617021495
20
-216.49999771273554
30
0
11
-12.952358617021513
21
-216.49999769013164
31
0
0
LINE
5
181
100
AcDbEntity
8
0
100
AcDbLine
10
-10.052358655993752
20
-221.49999771273554
30
0
11
-10.052358617021495
21
-216.49999771273554
31
0
0
LINE
5
182
100
AcDbEntity
8
0
100
AcDbLine
10
27.94764113745326
20
-226.49999800892473
30
0
11
-5.052358694966026
21
-226.49999775170778
31
0
0
LINE
5
183
100
AcDbEntity
8
0
100
AcDbLine
10
27.947641074736751
20
-234.39999825091365
30
0
11
27.94764113745326
21
-226.49999800892473
31
0
0
LINE
5
184
100
AcDbEntity
8
0
100
AcDbLine
10
59.047641051714265
20
-237.29999827393618
30
0
11
30.84764107473675
21
-237.29999827393618
31
0
0
LINE
5
185
100
AcDbEntity
8
0
100
AcDbLine
10
61.947641051714243
20
-226.49999827393617
30
0
11
61.947641051714257
21
-234.39999827393621
31
0
0
LINE
5
186
100
AcDbEntity
8
0
100
AcDbLine
10
114.94764130503401
20
-226.49999868704228
30
0
11
61.947641051714243
21
-226.49999827393617
31
0
0
LINE
5
187
100
AcDbEntity
8
0
100
AcDbLine
10
119.94764138297855
20
-216.49999872601455
30
0
11
119.94764134400627
21
-221.49999872601452
31
0
0
LINE
5
188
100
AcDbEntity
8
0
100
AcDbLine
10
141.94764138297853
20
-216.4999988974925
30
0
11
119.94764138297855
21
-216.49999872601455
31
0
0
LINE
5
189
100
AcDbEntity
8
0
100
AcDbLine
10
149.94764173372883
20
-171.49999895984814
30
0
11
149.94764144533414
21
-208.49999895984811
31
0
0
LINE
5
190
100
AcDbEntity
8
0
100
AcDbLine
10
119.94764173372889
20
-171.49999872601452
30
0
11
149.94764173372883
21
-171.49999895984814
31
0
0
LINE
5
191
100
AcDbEntity
8
0
100
AcDbLine
10
119.94764181167352
20
-161.4999987260145
30
0
11
119.94764173372889
21
-171.49999872601452
31
0
0
LINE
5
192
100
AcDbEntity
8
0
100
AcDbLine
10
119.94764173372901
20
-151.49999720609603
30
0
11
119.94764181167355
21
-161.49999720609603
31
0
0
LINE
5
193
100
AcDbEntity
8
0
100
AcDbLine
10
149.94764173372886
20
-151.49999697226241
30
0
11
119.94764173372901
21
-151.49999720609603
31
0
0
LINE
5
194
100
AcDbEntity
8
0
100
AcDbLine
10
149.94764144533409
20
-114.49999697226244
30
0
11
149.94764173372886
21
-151.49999697226241
31
0
0
LINE
5
195
100
AcDbEntity
8
0
100
AcDbLine
10
119.94764138297855
20
-106.49999720609603
30
0
11
141.94764138297845
21
-106.49999703461808
31
0
0
LINE
5
196
100
AcDbEntity
8
0
100
AcDbLine
10
119.94764134400627
20
-101.49999720609603
30
0
11
119.94764138297855
21
-106.49999720609603
31
0
0
LINE
5
197
100
AcDbEntity
8
0
100
AcDbLine
10
61.947641051714243
20
-96.499997658174379
30
0
11
114.947641305034
21
-96.499997245068286
31
0
0
LINE
5
198
100
AcDbEntity
8
0
100
AcDbLine
10
61.947641051714257
20
-88.599997658174345
30
0
11
61.947641051714243
21
-96.499997658174379
31
0
0
CIRCLE
5
199
100
AcDbEntity
8
0
100
AcDbCircle
10
227.90884073655334
20
-180.99999359445465
30
0
40
2.9000000000000004
210
0
220
0
230
1
0
LWPOLYLINE
5
200
100
AcDbEntity
8
0
100
AcDbPolyline
90
4
70
1
43
0.0
10
231.40884073655332
20
-171.99999236957925
10
224.40884073655332
20
-171.99999236957925
10
224.40884073655337
20
-161.99999236957925
10
231.40884073655337
20
-161.99999236957925
0
CIRCLE
5
201
100
AcDbEntity
8
0
100
AcDbCircle
10
227.90884084567574
20
-152.99999114470378
30
0
40
2.9000000000000004
210
0
220
0
230
1
0
LWPOLYLINE
5
202
100
AcDbEntity
8
0
100
AcDbPolyline
90
4
70
1
43
0.0
10
203.90884073655337
20
-234.89999286062979
10
223.90884073655337
20
-234.89999286062979
10
223.90884073655337
20
-237.79999286062977
10
203.90884073655337
20
-237.79999286062977
0
LWPOLYLINE
5
203
100
AcDbEntity
8
0
100
AcDbPolyline
90
4
70
1
43
0.0
10
223.90884073655337
20
-99.099992353990302
10
203.90884073655337
20
-99.099992353990302
10
203.90884073655337
20
-96.199992353990325
10
223.90884073655337
20
-96.199992353990325
0
LINE
5
204
100
AcDbEntity
8
0
100
AcDbLine
10
199.80884075957584
20
-91.199992299429141
30
0
11
228.00884073655334
21
-91.199992299429169
31
0
0
LINE
5
205
100
AcDbEntity
8
0
100
AcDbLine
10
196.90884082229232
20
-101.99999256444056
30
0
11
196.90884075957584
21
-94.099992322451669
31
0
0
LINE
5
206
100
AcDbEntity
8
0
100
AcDbLine
10
163.90884098987306
20
-101.99999282165751
30
0
11
196.90884082229232
21
-101.99999256444056
31
0
0
LINE
5
207
100
AcDbEntity
8
0
100
AcDbLine
10
158.90884106781755
20
-111.99999286062979
30
0
11
158.9088410288453
21
-106.99999286062979
31
0
0
LINE
5
208
100
AcDbEntity
8
0
100
AcDbLine
10
156.00884106781757
20
-111.99999288323372
30
0
11
158.90884106781755
21
-111.99999286062979
31
0
0
LINE
5
209
100
AcDbEntity
8
0
100
AcDbLine
10
153.10884139596411
20
-154.09999290583764
30
0
11
153.10884109042146
21
-114.89999290583765
31
0
0
LINE
5
210
100
AcDbEntity
8
0
100
AcDbLine
10
158.90884141856802
20
-156.99999286062979
30
0
11
156.00884141856795
21
-156.99999288323374
31
0
0
LINE
5
211
100
AcDbEntity
8
0
100
AcDbLine
10
158.90884149651254
20
-166.99999235399034
30
0
11
158.90884141856802
21
-156.99999286062979
31
0
0
LINE
5
212
100
AcDbEntity
8
0
100
AcDbLine
10
158.90884141856802
20
-176.99999235399025
30
0
11
158.90884149651254
21
-166.99999286062976
31
0
0
LINE
5
213
100
AcDbEntity
8
0
100
AcDbLine
10
156.00884141856801
20
-176.99999233138638
30
0
11
158.90884141856802
21
-176.99999235399025
31
0
0
LINE
5
214
100
AcDbEntity
8
0
100
AcDbLine
10
153.10884109042149
20
-219.09999230878245
30
0
11
153.10884139596408
21
-179.89999230878249
31
0
0
LINE
5
215
100
AcDbEntity
8
0
100
AcDbLine
10
158.9088410678176
20
-221.99999235399034
30
0
11
156.00884106781757
21
-221.99999233138638
31
0
0
LINE
5
216
100
AcDbEntity
8
0
100
AcDbLine
10
158.90884102884536
20
-226.99999235399034
30
0
11
158.9088410678176
21
-221.99999235399034
31
0
0
LINE
5
217
100
AcDbEntity
8
0
100
AcDbLine
10
196.90884082229243
20
-231.99999265017959
30
0
11
163.90884098987311
21
-231.99999239296258
31
0
0
LINE
5
218
100
AcDbEntity
8
0
100
AcDbLine
10
196.90884075957592
20
-239.89999289216843
30
0
11
196.90884082229243
21
-231.99999265017959
31
0
0
LINE
5
219
100
AcDbEntity
8
0
100
AcDbLine
10
228.0088407365534
20
-242.79999291519093
30
0
11
199.8088407595759
21
-242.79999291519093
31
0
0
LINE
5
220
100
AcDbEntity
8
0
100
AcDbLine
10
230.90884073655337
20
-231.99999291519094
30
0
11
230.90884073655337
21
-239.89999291519098
31
0
0
LINE
5
221
100
AcDbEntity
8
0
100
AcDbLine
10
283.90884098987311
20
-231.99999332829702
30
0
11
230.90884073655337
21
-231.99999291519094
31
0
0
LINE
5
222
100
AcDbEntity
8
0
100
AcDbLine
10
288.9088410678176
20
-221.9999933672693
30
0
11
288.90884102884536
21
-226.99999336726927
31
0
0
LINE
5
223
100
AcDbEntity
8
0
100
AcDbLine
10
291.80884106781764
20
-221.99999338987325
30
0
11
288.9088410678176
21
-221.9999933672693
31
0
0
LINE
5
224
100
AcDbEntity
8
0
100
AcDbLine
10
288.9088414185681
20
-176.9999933672693
30
0
11
291.80884141856802
21
-176.99999338987317
31
0
0
LINE
5
225
100
AcDbEntity
8
0
100
AcDbLine
10
288.90884149651265
20
-166.9999933672693
30
0
11
288.9088414185681
21
-176.9999933672693
31
0
0
LINE
5
226
100
AcDbEntity
8
0
100
AcDbLine
10
288.9088414185681
20
-156.9999918473508
30
0
11
288.90884149651259
21
-166.99999184735083
31
0
0
LINE
5
227
100
AcDbEntity
8
0
100
AcDbLine
10
291.80884161966497
20
-156.99999182474693
30
0
11
288.9088414185681
21
-156.9999918473508
31
0
0
LINE
5
228
100
AcDbEntity
8
0
100
AcDbLine
10
288.9088410678176
20
-111.99999184735084
30
0
11
291.80884187999965
21
-111.99999182474691
31
0
0
LINE
5
229
100
AcDbEntity
8
0
100
AcDbLine
10
288.90884102884536
20
-106.9999918473508
30
0
11
288.9088410678176
21
-111.99999184735084
31
0
0
LINE
5
230
100
AcDbEntity
8
0
100
AcDbLine
10
230.90884073655332
20
-101.99999229942915
30
0
11
283.90884098987311
21
-101.99999188632306
31
0
0
LINE
5
231
100
AcDbEntity
8
0
100
AcDbLine
10
230.90884073655332
20
-94.099992299429147
30
0
11
230.90884073655332
21
-101.99999229942915
31
0
0
CIRCLE
5
232
100
AcDbEntity
8
0
100
AcDbCircle
10
243.87562610126722
20
-269.5454956144514
30
0
40
1.5000000000000009
210
0
220
-0
230
1
0
LWPOLYLINE
5
233
100
AcDbEntity
8
0
100
AcDbPolyline
90
12
70
1
43
0.0
10
250.33222425011402
20
-289.36242482996323
42
-0.41421356237309503
10
244.33222434364751
20
-295.36242492349663
10
240.50659836449483
20
-295.36242498313391
10
238.6513631340566
20
-285.49999534435119
10
14.265511109262263
20
-285.49999884228151
42
-0.41421356237309503
10
11.265511062495513
20
-282.49999888904824
10
11.265510844250795
20
-268.49999888904824
42
-0.41421356237309137
10
14.265510797484069
20
-265.49999884228151
10
234.88913558375322
20
-265.49999540300018
10
232.98214326388813
20
-255.36242510043195
10
244.33222372009124
20
-255.36242492349658
42
-0.41421356237309503
10
250.33222381362461
20
-261.36242482996306
0
CIRCLE
5
234
100
AcDbEntity
8
0
100
AcDbCircle
10
15.948006307316753
20
-275.49999881605322
30
0
40
1.4999999999999996
210
0
220
-0
230
1
0
CIRCLE
5
235
100
AcDbEntity
8
0
100
AcDbCircle
10
-1.7101111610308628
20
-259.45449869457525
30
0
40
1.5000000000000002
210
0
220
0
230
1
0
LWPOLYLINE
5
236
100
AcDbEntity
8
0
100
AcDbPolyline
90
12
70
1
43
0.0
10
-8.1667093098775823
20
-239.63756947906353
42
-0.41421356237309792
10
-2.1667094034110819
20
-233.63756938553018
10
1.6589165757415447
20
-233.63756932589283
10
3.5141518061798038
20
-243.49999896467554
10
227.90000383097413
20
-243.49999546674522
42
-0.41421356237309503
10
230.90000387774091
20
-246.49999541997846
10
230.90000409598562
20
-260.49999541997852
42
-0.41421356237309159
10
227.90000414275238
20
-263.49999546674519
10
7.2763793564831758
20
-263.49999890602652
10
9.1833716763482851
20
-273.63756920859475
10
-2.1667087798547784
20
-273.63756938553013
42
-0.41421356237309431
10
-8.166708873388167
20
-267.63756947906364
0
CIRCLE
5
237
100
AcDbEntity
8
0
100
AcDbCircle
10
226.21750863291967
20
-253.49999549297348
30
0
40
1.4999999999999991
210
0
220
0
230
1
0
LWPOLYLINE
5
238
100
AcDbEntity
8
0
100
AcDbPolyline
90
4
70
1
43
0.0
10
-3.0000011847570214
20
152.00000044314348
10
-5.9000011847570129
20
152.00000042053955
10
-5.9000009197456027
20
118.000000483256
10
-3.000000919745593
20
118.0000005066394
0
LWPOLYLINE
5
239
100
AcDbEntity
8
0
100
AcDbPolyline
90
4
70
1
43
0.0
10
-158.42432402597643
20
59.999999063696364
10
-158.42432400337253
20
57.099999063696373
10
-128.42432400337256
20
57.099999297529969
10
-128.42432402597646
20
59.999999297529961
0
LWPOLYLINE
5
240
100
AcDbEntity
8
0
100
AcDbPolyline
90
4
70
1
43
0.0
10
-93.424324025976446
20
59.999999570335859
10
-93.424324003372533
20
57.099999570335868
10
-63.424324003372533
20
57.099999804169464
10
-63.424324025976453
20
59.999999804169455
0
LWPOLYLINE
5
241
100
AcDbEntity
8
0
100
AcDbPolyline
90
4
70
1
43
0.0
10
-28.424324003372536
20
57.100000076975348
10
1.5756759966274636
20
57.100000310808959
10
1.5756759740235449
20
60.00000031080895
10
-28.424324025976453
20
60.000000076975354
0
LWPOLYLINE
5
242
100
AcDbEntity
8
0
100
AcDbPolyline
90
4
70
1
43
0.0
10
78.716117280830048
20
99.43848428444646
10
75.816117280830056
20
99.438484261842589
10
75.81611701581862
20
133.43848417610357
10
78.716117015818611
20
133.4384841987075
0
LWPOLYLINE
5
243
100
AcDbEntity
8
0
100
AcDbPolyline
90
4
70
1
43
0.0
10
231.24044009944555
20
194.338485640871
10
231.24044012204948
20
191.43848564087108
10
201.24044012204948
20
191.43848540703743
10
201.24044009944558
20
194.33848540703738
0
LWPOLYLINE
5
244
100
AcDbEntity
8
0
100
AcDbPolyline
90
4
70
1
43
0.0
10
166.24044009944555
20
194.33848513423152
10
166.24044012204948
20
191.4384851342316
10
136.24044012204948
20
191.43848490039795
10
136.24044009944558
20
194.3384849003979
0
LWPOLYLINE
5
245
100
AcDbEntity
8
0
100
AcDbPolyline
90
4
70
1
43
0.0
10
71.240440099445564
20
194.33848439375839
10
101.24044009944556
20
194.33848462759201
10
101.24044012204948
20
191.43848462759209
10
71.240440122049478
20
191.43848439375847
0
ARC
5
246
100
AcDbEntity
8
0
100
AcDbCircle
10
-157.60820701921122
20
-86.19999402367722
30
0
40
2.8999999999999915
210
0
220
0
230
1
100
AcDbArc
50
180
51
269.99999955341042
0
ARC
5
247
100
AcDbEntity
8
0
100
AcDbCircle
10
-157.6082059607244
20
49.600007496241247
30
0
40
2.9000000000000004
210
0
220
-0
230
1
100
AcDbArc
50
89.999999553410476
51
180
0
ARC
5
248
100
AcDbEntity
8
0
100
AcDbCircle
10
-133.40820596072439
20
49.600007307615464
30
0
40
2.8999999999999915
210
-0
220
0
230
1
100
AcDbArc
50
0
51
89.99999955341103
0
ARC
5
249
100
AcDbEntity
8
0
100
AcDbCircle
10
-92.608205960724405
20
49.600006989601731
30
0
40
2.9000000000000004
210
0
220
-0
230
1
100
AcDbArc
50
89.999999553410746
51
180
0
ARC
5
250
100
AcDbEntity
8
0
100
AcDbCircle
10
-68.408205960724388
20
49.600006800975947
30
0
40
2.9000000000000004
210
-0
220
0
230
1
100
AcDbArc
50
0
51
89.99999955341103
0
ARC
5
251
100
AcDbEntity
8
0
100
AcDbCircle
10
-27.608205960724391
20
49.600006482962222
30
0
40
2.9000000000000004
210
0
220
-0
230
1
100
AcDbArc
50
89.999999553410689
51
180
0
ARC
5
252
100
AcDbEntity
8
0
100
AcDbCircle
10
-3.4082059607243571
20
49.600006294336509
30
0
40
2.9000000000000004
210
-0
220
0
230
1
100
AcDbArc
50
0
51
89.999999553411172
0
ARC
5
253
100
AcDbEntity
8
0
100
AcDbCircle
10
-3.4082070192112273
20
-86.199995225581958
30
0
40
2.8999999999999915
210
0
220
0
230
1
100
AcDbArc
50
269.99999955341065
51
360
0
ARC
5
254
100
AcDbEntity
8
0
100
AcDbCircle
10
-27.608207019211228
20
-86.199995036956238
30
0
40
2.9000000000000004
210
0
220
0
230
1
100
AcDbArc
50
180
51
269.99999955341053
0
ARC
5
255
100
AcDbEntity
8
0
100
AcDbCircle
10
-68.408207019211218
20
-86.19999471894252
30
0
40
2.8999999999999915
210
0
220
0
230
1
100
AcDbArc
50
269.9999995534107
51
360
0
ARC
5
256
100
AcDbEntity
8
0
100
AcDbCircle
10
-92.608207019211221
20
-86.199994530316729
30
0
40
2.9000000000000092
210
0
220
0
230
1
100
AcDbArc
50
180
51
269.99999955341042
0
ARC
5
257
100
AcDbEntity
8
0
100
AcDbCircle
10
-133.40820701921126
20
-86.199994212303011
30
0
40
2.8999999999999915
210
0
220
0
230
1
100
AcDbArc
50
269.99999955341042
51
360
0
ARC
5
258
100
AcDbEntity
8
0
100
AcDbCircle
10
59.047641051714251
20
-234.39999827393621
30
0
40
2.8999999999999915
210
-0
220
0
230
1
100
AcDbArc
50
-89.999999999999702
51
0
0
ARC
5
259
100
AcDbEntity
8
0
100
AcDbCircle
10
30.84764107473675
20
-234.39999827393618
30
0
40
2.9000000000000004
210
0
220
0
230
1
100
AcDbArc
50
180
51
270
0
ARC
5
260
100
AcDbEntity
8
0
100
AcDbCircle
10
-12.952358594417595
20
-213.59999769013166
30
0
40
2.9000000000000004
210
0
220
0
230
1
100
AcDbArc
50
180
51
269.99999955341065
0
ARC
5
261
100
AcDbEntity
8
0
100
AcDbCircle
10
-12.952358288875017
20
-174.39999769013158
30
0
40
2.8999999999999915
210
0
220
-0
230
1
100
AcDbArc
50
89.999999553410817
51
180
0
ARC
5
262
100
AcDbEntity
8
0
100
AcDbCircle
10
-12.952358288874981
20
-148.59999824197888
30
0
40
2.9000000000000004
210
0
220
0
230
1
100
AcDbArc
50
180
51
270.00000044658935
0
ARC
5
263
100
AcDbEntity
8
0
100
AcDbCircle
10
-12.952358594417612
20
-109.39999824197891
30
0
40
2.8999999999999915
210
0
220
0
230
1
100
AcDbArc
50
90.000000446589368
51
180
0
ARC
5
264
100
AcDbEntity
8
0
100
AcDbCircle
10
59.047641051714251
20
-88.599997658174345
30
0
40
2.9000000000000004
210
-0
220
0
230
1
100
AcDbArc
50
0
51
89.999999999999716
0
ARC
5
265
100
AcDbEntity
8
0
100
AcDbCircle
10
30.847641074736771
20
-88.599997658174345
30
0
40
2.8999999999999915
210
0
220
0
230
1
100
AcDbArc
50
90.000000000000412
51
180
0
ARC
5
266
100
AcDbEntity
8
0
100
AcDbCircle
10
141.94764144533417
20
-208.4999988974925
30
0
40
8.0000000000000071
210
0
220
0
230
1
100
AcDbArc
50
269.99999955341065
51
360
0
ARC
5
267
100
AcDbEntity
8
0
100
AcDbCircle
10
141.94764144533409
20
-114.49999703461806
30
0
40
7.9999999999999893
210
0
220
-0
230
1
100
AcDbArc
50
0
51
90.000000446589368
0
ARC
5
268
100
AcDbEntity
8
0
100
AcDbCircle
10
291.80884190260349
20
-114.89999182474691
30
0
40
2.8999999999999915
210
-0
220
0
230
1
100
AcDbArc
50
0
51
90.000000446587848
0
LINE
5
269
100
AcDbEntity
8
0
100
AcDbLine
10
294.70884190260347
20
-114.89999184735082
30
0
11
294.708841597061
21
-154.09999184735085
31
0
0
ARC
5
270
100
AcDbEntity
8
0
100
AcDbCircle
10
291.80884159706102
20
-154.09999182474692
30
0
40
2.8999999999999915
210
-0
220
0
230
1
100
AcDbArc
50
270.00000044659009
51
360
0
ARC
5
271
100
AcDbEntity
8
0
100
AcDbCircle
10
291.80884139596407
20
-179.8999933898732
30
0
40
2.8999999999999915
210
-0
220
0
230
1
100
AcDbArc
50
0
51
89.999999553409907
0
LINE
5
272
100
AcDbEntity
8
0
100
AcDbLine
10
294.7088413959641
20
-179.89999341247713
30
0
11
294.70884109042157
21
-219.09999341247712
31
0
0
ARC
5
273
100
AcDbEntity
8
0
100
AcDbCircle
10
291.80884109042154
20
-219.09999338987322
30
0
40
2.900000000000027
210
0
220
0
230
1
100
AcDbArc
50
269.99999955341104
51
360
0
ARC
5
274
100
AcDbEntity
8
0
100
AcDbCircle
10
228.0088407365534
20
-239.89999291519095
30
0
40
2.8999999999999915
210
-0
220
0
230
1
100
AcDbArc
50
270
51
360
0
ARC
5
275
100
AcDbEntity
8
0
100
AcDbCircle
10
199.8088407595759
20
-239.89999291519095
30
0
40
2.8999999999999915
210
0
220
0
230
1
100
AcDbArc
50
180
51
270
0
ARC
5
276
100
AcDbEntity
8
0
100
AcDbCircle
10
156.00884109042147
20
-219.09999233138637
30
0
40
2.8999999999999915
210
0
220
0
230
1
100
AcDbArc
50
180
51
269.99999955341104
0
ARC
5
277
100
AcDbEntity
8
0
100
AcDbCircle
10
156.00884139596411
20
-179.89999233138636
30
0
40
2.8999999999999915
210
0
220
-0
230
1
100
AcDbArc
50
89.99999955341103
51
180
0
ARC
5
278
100
AcDbEntity
8
0
100
AcDbCircle
10
156.00884139596411
20
-154.09999288323374
30
0
40
2.8999999999999915
210
0
220
0
230
1
100
AcDbArc
50
180
51
270.00000044658782
0
ARC
5
279
100
AcDbEntity
8
0
100
AcDbCircle
10
156.00884109042147
20
-114.89999288323372
30
0
40
2.8999999999999915
210
0
220
0
230
1
100
AcDbArc
50
90.00000044658897
51
180
0
ARC
5
280
100
AcDbEntity
8
0
100
AcDbCircle
10
199.80884075957584
20
-94.099992299429147
30
0
40
2.9000000000000092
210
0
220
-0
230
1
100
AcDbArc
50
90
51
180
0
ARC
5
281
100
AcDbEntity
8
0
100
AcDbCircle
10
228.00884073655334
20
-94.099992299429147
30
0
40
2.8999999999999915
210
0
220
-0
230
1
100
AcDbArc
50
0
51
90
0
CIRCLE
5
282
100
AcDbEntity
8
0
100
AcDbCircle
10
216.81398450856986
20
-1.383968418521015
30
0
40
0.99999999999999867
210
0
220
-0
230
1
0
CIRCLE
5
283
100
AcDbEntity
8
0
100
AcDbCircle
10
182.98192466452477
20
-35.216027735161283
30
0
40
0.99999999999999867
210
0
220
-0
230
1
0
LINE
5
284
100
AcDbEntity
8
0
100
AcDbLine
10
114.94764130503401
20
-226.49999868704228
30
0
11
119.94764134400627
21
-221.49999872601452
31
0
0
LINE
5
285
100
AcDbEntity
8
0
100
AcDbLine
10
-10.052358655993752
20
-221.49999771273554
30
0
11
-5.052358694966026
21
-226.49999775170778
31
0
0
LINE
5
286
100
AcDbEntity
8
0
100
AcDbLine
10
-5.0523586949660224
20
-96.499998180402713
30
0
11
-10.052358655993785
21
-101.49999821937497
31
0
0
LINE
5
287
100
AcDbEntity
8
0
100
AcDbLine
10
119.94764134400627
20
-101.49999720609603
30
0
11
114.947641305034
21
-96.499997245068286
31
0
0
LINE
5
288
100
AcDbEntity
8
0
100
AcDbLine
10
288.90884102884536
20
-106.9999918473508
30
0
11
283.90884098987311
21
-101.99999188632306
31
0
0
LINE
5
289
100
AcDbEntity
8
0
100
AcDbLine
10
283.90884098987311
20
-231.99999332829702
30
0
11
288.90884102884536
21
-226.99999336726927
31
0
0
LINE
5
290
100
AcDbEntity
8
0
100
AcDbLine
10
158.90884102884536
20
-226.99999235399034
30
0
11
163.90884098987311
21
-231.99999239296258
31
0
0
LINE
5
291
100
AcDbEntity
8
0
100
AcDbLine
10
163.90884098987306
20
-101.99999282165751
30
0
11
158.9088410288453
21
-106.99999286062979
31
0
0
ENDSEC
0
SECTION
2
OBJECTS
0
DICTIONARY
5
C
100
AcDbDictionary
3
ACAD_GROUP
350
D
3
ACAD_MLINESTYLE
350
17
0
DICTIONARY
5
D
100
AcDbDictionary
0
DICTIONARY
5
1A
330
C
100
AcDbDictionary
0
DICTIONARY
5
17
100
AcDbDictionary
0
ENDSEC
0
EOF
