0
SECTION
2
HEADER
9
$INSUNITS
70
4
9
$ACADVER
1
AC1014
9
$HANDSEED
5
FFFF
0
ENDSEC
0
SECTION
2
TABLES
0
TABLE
2
VPORT
5
8
100
AcDbSymbolTable
0
ENDTAB
0
TABLE
2
LTYPE
5
5
100
AcDbSymbolTable
0
LTYPE
5
14
100
AcDbSymbolTableRecord
100
AcDbLinetypeTableRecord
2
BYBLOCK
70
0
0
LTYPE
5
15
100
AcDbSymbolTableRecord
100
AcDbLinetypeTableRecord
2
BYLAYER
70
0
0
ENDTAB
0
TABLE
2
LAYER
5
2
100
AcDbSymbolTable
70
2
0
LAYER
5
50
100
AcDbSymbolTableRecord
100
AcDbLayerTableRecord
2
0
70
0
6
CONTINUOUS
0
ENDTAB
0
TABLE
2
STYLE
5
3
100
AcDbSymbolTable
70
1
0
STYLE
5
11
100
AcDbSymbolTableRecord
100
AcDbTextStyleTableRecord
2
STANDARD
70
0
0
ENDTAB
0
TABLE
2
VIEW
5
6
100
AcDbSymbolTable
70
0
0
ENDTAB
0
TABLE
2
UCS
5
7
100
AcDbSymbolTable
70
0
0
ENDTAB
0
TABLE
2
APPID
5
9
100
AcDbSymbolTable
70
2
0
APPID
5
12
100
AcDbSymbolTableRecord
100
AcDbRegAppTableRecord
2
ACAD
70
0
0
ENDTAB
0
TABLE
2
DIMSTYLE
5
A
100
AcDbSymbolTable
70
1
0
ENDTAB
0
TABLE
2
BLOCK_RECORD
5
1
100
AcDbSymbolTable
70
1
0
BLOCK_RECORD
5
1F
100
AcDbSymbolTableRecord
100
AcDbBlockTableRecord
2
*MODEL_SPACE
0
BLOCK_RECORD
5
1B
100
AcDbSymbolTableRecord
100
AcDbBlockTableRecord
2
*PAPER_SPACE
0
ENDTAB
0
ENDSEC
0
SECTION
2
BLOCKS
0
BLOCK
5
20
100
AcDbEntity
100
AcDbBlockBegin
2
*MODEL_SPACE
0
ENDBLK
5
21
100
AcDbEntity
100
AcDbBlockEnd
0
BLOCK
5
1C
100
AcDbEntity
100
AcDbBlockBegin
2
*PAPER_SPACE
0
ENDBLK
5
1D
100
AcDbEntity
100
AcDbBlockEnd
0
ENDSEC
0
SECTION
2
ENTITIES
0
LWPOLYLINE
5
100
100
AcDbEntity
8
0
100
AcDbPolyline
90
4
70
1
43
0.0
10
611.9999971985817
20
198.00000295042992
10
-188.0000028014183
20
198.00000295042992
10
-188.0000028014183
20
-201.99999704957008
10
611.9999971985817
20
-201.99999704957008
0
CIRCLE
5
101
100
AcDbEntity
8
0
100
AcDbCircle
10
171.78249430169231
20
135.00000079723608
30
0
40
1.4999999999999991
210
0
220
0
230
1
0
LWPOLYLINE
5
102
100
AcDbEntity
8
0
100
AcDbPolyline
90
4
70
1
43
0.0
10
354.57567496074461
20
190.0000030871939
10
354.57567492566955
20
194.50000308719387
10
324.57567492566955
20
194.50000285336031
10
324.57567496074461
20
190.00000285336029
0
LWPOLYLINE
5
103
100
AcDbEntity
8
0
100
AcDbPolyline
90
4
70
1
43
0.0
10
289.57567496074461
20
190.00000258055439
10
289.57567492566955
20
194.50000258055439
10
259.57567492566955
20
194.50000234672081
10
259.57567496074461
20
190.00000234672081
0
LWPOLYLINE
5
104
100
AcDbEntity
8
0
100
AcDbPolyline
90
4
70
1
43
0.0
10
224.57567496074461
20
190.00000207391491
10
224.57567492566955
20
194.50000207391491
10
194.57567492566955
20
194.50000184008132
10
194.57567496074461
20
190.0000018400813
0
LWPOLYLINE
5
105
100
AcDbEntity
8
0
100
AcDbPolyline
90
4
70
1
43
0.0
10
179.99999881524303
20
152.00000188653607
10
175.49999881524303
20
152.00000185146104
10
175.49999908025444
20
118.00000190964107
10
179.99999908025444
20
118.00000194471615
0
CIRCLE
5
106
100
AcDbEntity
8
0
100
AcDbCircle
10
354.49999905687116
20
121.00000287225613
30
0
40
2.9000000000000004
210
0
220
-0
230
1
0
LWPOLYLINE
5
107
100
AcDbEntity
8
0
100
AcDbPolyline
90
6
70
1
43
0.0
10
169.99999846262597
20
197.2394831161873
10
401.34562700125235
20
197.23948491940007
10
374.16356837571703
20
51.000003169720273
10
173.49999960248286
20
51.000001605657282
42
-0.41421356237309664
10
165.49999954012719
20
59.000001543301735
10
165.499998497701
20
192.73948308111221
42
-0.41421356237309503
0
CIRCLE
5
108
100
AcDbEntity
8
0
100
AcDbCircle
10
605.06313230204296
20
113.23948625394712
30
0
40
1.4999999999999991
210
0
220
0
230
1
0
LWPOLYLINE
5
109
100
AcDbEntity
8
0
100
AcDbPolyline
90
4
70
1
43
0.0
10
422.26995167806569
20
53.739485082493417
10
422.26995164299069
20
58.239485082493403
10
452.26995164299069
20
58.23948531632702
10
452.26995167806564
20
53.739485316327006
0
LWPOLYLINE
5
110
100
AcDbEntity
8
0
100
AcDbPolyline
90
4
70
1
43
0.0
10
487.26995167806564
20
53.739485589132897
10
487.26995164299069
20
58.239485589132904
10
517.26995164299069
20
58.239485822966522
10
517.26995167806558
20
53.739485822966515
0
LWPOLYLINE
5
111
100
AcDbEntity
8
0
100
AcDbPolyline
90
4
70
1
43
0.0
10
552.26995167806569
20
53.739486095772399
10
552.26995164299069
20
58.239486095772406
10
582.26995164299069
20
58.239486329606038
10
582.26995167806558
20
53.739486329606017
0
LWPOLYLINE
5
112
100
AcDbEntity
8
0
100
AcDbPolyline
90
4
70
1
43
0.0
10
601.34562778849227
20
96.239486310710177
10
596.84562778849227
20
96.239486275635144
10
596.84562752348086
20
130.23948618989616
10
601.34562752348086
20
130.23948622497119
0
CIRCLE
5
113
100
AcDbEntity
8
0
100
AcDbCircle
10
422.34562754686414
20
127.23948522728108
30
0
40
2.8999999999999999
210
0
220
-0
230
1
0
LWPOLYLINE
5
114
100
AcDbEntity
8
0
100
AcDbPolyline
90
6
70
1
43
0.0
10
402.68205822801826
20
197.23948492981691
10
375.49999960248294
20
51.000003180137135
10
606.84562814110927
20
51.000004983349967
42
0.41421356237309681
10
611.34562810603416
20
55.500005018425007
10
611.34562706360805
20
189.23948655623548
42
0.41421356237309764
10
603.34562700125241
20
197.23948649387984
0
LWPOLYLINE
5
115
100
AcDbEntity
8
0
100
AcDbPolyline
90
4
70
1
43
0.0
10
-52.999999431004881
20
-89.500001106812462
10
-57.499999431004838
20
-89.500001071737415
10
-57.499999080254426
20
-44.500001071737415
10
-52.999999080254426
20
-44.500001106812441
0
LWPOLYLINE
5
116
100
AcDbEntity
8
0
100
AcDbPolyline
90
4
70
1
43
0.0
10
-52.999998924365357
20
-24.499999586893964
10
-57.499998924365336
20
-24.499999551818924
10
-57.499998573614917
20
20.500000448181076
10
-52.999998573614924
20
20.500000413106036
0
LWPOLYLINE
5
117
100
AcDbEntity
8
0
100
AcDbPolyline
90
40
70
1
43
0.0
10
-62.07567595064021
20
-99.500001036072518
10
-82.499999508949386
20
-99.500000876876101
10
-82.499998495670397
20
30.500000643042387
10
-62.0756749373612
20
30.500000483845945
10
-62.075674902286195
20
35.000000483845966
42
-0.41421356237309503
10
-57.575674867211148
20
39.500000448770926
10
-36.575674867211127
20
39.500000285087388
42
-0.41421356237309503
10
-32.075674902286174
20
35.000000250012341
10
-32.075674937361221
20
30.500000250012313
10
2.924325062638804
20
30.499999977206453
10
2.9243250977138135
20
34.999999977206471
42
-0.41421356237309492
10
7.4243251327888604
20
39.499999942131431
10
28.424325132788866
20
39.499999778447908
42
-0.41421356237309442
10
32.924325097713812
20
34.999999743372861
10
32.924325062638779
20
30.499999743372825
10
67.924325062638786
20
30.499999470566962
10
67.924325097713819
20
34.999999470566991
42
-0.41421356237309503
10
72.424325132788866
20
39.499999435491944
10
93.424325132788866
20
39.499999271808427
42
-0.4142135623730942
10
97.924325097713819
20
34.999999236733373
10
97.924325062638786
20
30.499999236733338
10
127.00000150432962
20
30.499999010104339
10
127.0000004910506
20
-99.500002509814109
10
97.924324049359797
20
-99.500002283185097
10
97.924324014284778
20
-104.00000228318507
42
-0.41421356237309503
10
93.424323979209731
20
-108.50000224811005
10
72.424323979209717
20
-108.50000208442654
42
-0.41421356237309442
10
67.924324014284764
20
-104.00000204935151
10
67.924324049359811
20
-99.50000204935148
10
32.924324049359797
20
-99.500001776545616
10
32.924324014284771
20
-104.0000017765456
42
-0.41421356237309559
10
28.424323979209717
20
-108.50000174147057
10
7.4243239792097082
20
-108.50000157778706
42
-0.41421356237309492
10
2.9243240142847453
20
-104.00000154271203
10
2.9243240493597922
20
-99.500001542712013
10
-32.075675950640203
20
-99.50000126990615
10
-32.075675985715229
20
-104.00000126990611
42
-0.41421356237309559
10
-36.575676020790283
20
-108.50000123483107
10
-57.575676020790269
20
-108.50000107114755
42
-0.41421356237309503
10
-62.075675985715229
20
-104.00000103607252
0
LWPOLYLINE
5
118
100
AcDbEntity
8
0
100
AcDbPolyline
90
4
70
1
43
0.0
10
117.00000056899515
20
-89.500002431869575
10
112.50000056899516
20
-89.500002396794542
10
112.50000091974556
20
-44.500002396794528
10
117.00000091974556
20
-44.500002431869568
0
CIRCLE
5
119
100
AcDbEntity
8
0
100
AcDbCircle
10
-26.581836520515839
20
-34.500000552768377
30
0
40
16.5
210
0
220
-0
230
1
0
LWPOLYLINE
5
120
100
AcDbEntity
8
0
100
AcDbPolyline
90
4
70
1
43
0.0
10
117.00000107563466
20
-24.500000911951091
10
112.50000107563466
20
-24.500000876876051
10
112.50000142638507
20
20.49999912312397
10
117.00000142638507
20
20.499999088048909
0
LWPOLYLINE
5
121
100
AcDbEntity
8
0
100
AcDbPolyline
90
4
70
1
43
0.0
10
107.75000189600081
20
178.24999789354911
10
112.25000189600081
20
178.24999785847405
10
112.2500015452504
20
133.24999785847405
10
107.7500015452504
20
133.24999789354908
0
LWPOLYLINE
5
122
100
AcDbEntity
8
0
100
AcDbPolyline
90
4
70
1
43
0.0
10
107.75000138936133
20
113.24999840018855
10
112.25000138936132
20
113.24999836511353
10
112.2500010386109
20
68.249998365113512
10
107.7500010386109
20
68.249998400188559
0
LINE
5
123
100
AcDbEntity
8
0
100
AcDbLine
10
162.25000197394536
20
188.24999746875142
30
0
11
116.82567841563618
21
188.24999782280923
31
0
0
LINE
5
124
100
AcDbEntity
8
0
100
AcDbLine
10
162.25000096066634
20
58.249997975390926
30
0
11
162.25000197394536
21
188.24999746875142
31
0
0
LINE
5
125
100
AcDbEntity
8
0
100
AcDbLine
10
116.82567740235714
20
58.249998329448701
30
0
11
162.25000096066634
21
58.249997975390926
31
0
0
LINE
5
126
100
AcDbEntity
8
0
100
AcDbLine
10
116.82567736728211
20
53.749998329448687
30
0
11
116.82567740235717
21
58.249998329448687
31
0
0
LINE
5
127
100
AcDbEntity
8
0
100
AcDbLine
10
91.325677332207093
20
49.249998528207179
30
0
11
112.32567733220708
21
49.249998364523677
31
0
0
LINE
5
128
100
AcDbEntity
8
0
100
AcDbLine
10
86.825677402357172
20
58.249998563282205
30
0
11
86.825677367282111
21
53.749998563282261
31
0
0
LINE
5
129
100
AcDbEntity
8
0
100
AcDbLine
10
51.825677402357151
20
58.249998836088196
30
0
11
86.825677402357144
21
58.249998563282318
31
0
0
LINE
5
130
100
AcDbEntity
8
0
100
AcDbLine
10
51.825677367282132
20
53.749998836088125
30
0
11
51.825677402357172
21
58.249998836088125
31
0
0
LINE
5
131
100
AcDbEntity
8
0
100
AcDbLine
10
26.325677332207075
20
49.249999034846688
30
0
11
47.325677332207086
21
49.249998871163129
31
0
0
LINE
5
132
100
AcDbEntity
8
0
100
AcDbLine
10
21.825677402357169
20
58.249999069921721
30
0
11
21.825677367282118
21
53.74999906992177
31
0
0
LINE
5
133
100
AcDbEntity
8
0
100
AcDbLine
10
-13.174322597642849
20
58.249999342727705
30
0
11
21.825677402357151
21
58.24999906992182
31
0
0
LINE
5
134
100
AcDbEntity
8
0
100
AcDbLine
10
-13.174322632717889
20
53.749999342727584
30
0
11
-13.174322597642847
21
58.249999342727641
31
0
0
LINE
5
135
100
AcDbEntity
8
0
100
AcDbLine
10
-38.674322667792921
20
49.24999954148624
30
0
11
-17.674322667792929
21
49.249999377802631
31
0
0
LINE
5
136
100
AcDbEntity
8
0
100
AcDbLine
10
-43.174322597642842
20
58.249999576561237
30
0
11
-43.174322632717875
21
53.749999576561287
31
0
0
LINE
5
137
100
AcDbEntity
8
0
100
AcDbLine
10
-72.249999039333659
20
58.249999803190335
30
0
11
-43.174322597642842
21
58.249999576561315
31
0
0
LINE
5
138
100
AcDbEntity
8
0
100
AcDbLine
10
-72.249998026054655
20
188.24999929655078
30
0
11
-72.249999039333659
21
58.249999803190335
31
0
0
LINE
5
139
100
AcDbEntity
8
0
100
AcDbLine
10
-43.174321584363824
20
188.24999906992184
30
0
11
-72.249998026054655
21
188.24999929655078
31
0
0
LINE
5
140
100
AcDbEntity
8
0
100
AcDbLine
10
-43.174321584363824
20
188.25000109647974
30
0
11
-43.174321549288777
21
192.75000109647976
31
0
0
LINE
5
141
100
AcDbEntity
8
0
100
AcDbLine
10
-38.674321514213723
20
197.2500010614047
30
0
11
-17.674321514213741
21
197.25000089772121
31
0
0
LINE
5
142
100
AcDbEntity
8
0
100
AcDbLine
10
-13.174321549288774
20
192.75000086264612
30
0
11
-13.174321584363822
21
188.25000086264612
31
0
0
LINE
5
143
100
AcDbEntity
8
0
100
AcDbLine
10
21.825678415636176
20
188.24999856328233
30
0
11
-13.174321584363824
21
188.24999883608822
31
0
0
LINE
5
144
100
AcDbEntity
8
0
100
AcDbLine
10
21.82567841563619
20
188.2500005898402
30
0
11
21.82567845071123
21
192.75000058984023
31
0
0
LINE
5
145
100
AcDbEntity
8
0
100
AcDbLine
10
26.325678485786273
20
197.25000055476517
30
0
11
47.325678485786263
21
197.25000039108167
31
0
0
LINE
5
146
100
AcDbEntity
8
0
100
AcDbLine
10
51.825678450711223
20
192.75000035600658
30
0
11
51.825678415636176
21
188.25000035600664
31
0
0
LINE
5
147
100
AcDbEntity
8
0
100
AcDbLine
10
86.825678415636176
20
188.24999805664282
30
0
11
51.825678415636176
21
188.24999832944872
31
0
0
LINE
5
148
100
AcDbEntity
8
0
100
AcDbLine
10
86.825678415636176
20
188.25000008320072
30
0
11
86.825678450711209
21
192.75000008320075
31
0
0
LINE
5
149
100
AcDbEntity
8
0
100
AcDbLine
10
91.325678485786256
20
197.25000004812568
30
0
11
112.32567848578624
21
197.24999988444216
31
0
0
LINE
5
150
100
AcDbEntity
8
0
100
AcDbLine
10
116.82567845071121
20
192.74999984936716
30
0
11
116.82567841563619
21
188.24999984936716
31
0
0
LWPOLYLINE
5
151
100
AcDbEntity
8
0
100
AcDbPolyline
90
6
70
1
43
0.0
10
-62.249998103999189
20
178.24999921860615
10
-57.749998103999197
20
178.24999918353114
10
-57.749998454749623
20
133.24999918353117
10
-62.249998454749615
20
133.24999921860618
10
-62.249998154950504
20
171.71313703818686
42
-2.9097040608861215
10
-62.249998130992459
20
174.78686190566515
0
LWPOLYLINE
5
152
100
AcDbEntity
8
0
100
AcDbPolyline
90
6
70
1
43
0.0
10
-62.249998610638684
20
113.24999972524567
10
-57.749998610638691
20
113.24999969017064
10
-57.74999896138911
20
68.249999690170597
10
-62.24999896138911
20
68.249999725245672
10
-62.24999893439584
20
71.713137038186744
42
-2.9097040608860207
10
-62.249998910437839
20
74.786861905665148
0
LWPOLYLINE
5
153
100
AcDbEntity
8
0
100
AcDbPolyline
90
4
70
1
43
0.0
10
157.25000187261742
20
175.2499977610434
42
-0.99999999999999989
10
157.25000184143965
20
171.24999776104343
10
146.83257753639549
20
171.24999784224158
42
-4.791287847477931
10
146.83257756757331
20
175.24999784224156
0
LWPOLYLINE
5
154
100
AcDbEntity
8
0
100
AcDbPolyline
90
4
70
1
43
0.0
10
157.25000148289473
20
125.24999776104335
42
-0.99999999999999989
10
157.25000145171694
20
121.24999776104335
10
146.8325771466728
20
121.24999784224146
42
-4.7912878474778777
10
146.8325771778506
20
125.2499978422415
0
LWPOLYLINE
5
155
100
AcDbEntity
8
0
100
AcDbPolyline
90
4
70
1
43
0.0
10
157.25000109317205
20
75.249997761043318
42
-0.99999999999999989
10
157.25000106199425
20
71.249997761043346
10
146.83257675695006
20
71.249997842241498
42
-4.7912878474778777
10
146.83257678812788
20
75.249997842241513
0
LINE
5
156
100
AcDbEntity
8
0
100
AcDbLine
10
292.49999960353057
20
-5.6344232989345899
30
0
11
287.99999960353057
21
-5.6344233696853596
31
0
0
LINE
5
157
100
AcDbEntity
8
0
100
AcDbLine
10
292.49999990490829
20
-25.131393507781471
30
0
11
292.49999960353057
21
-5.6344232989345899
31
0
0
LINE
5
158
100
AcDbEntity
8
0
100
AcDbLine
10
292.49999991138787
20
-25.131393464289854
30
0
11
287.99999991138782
21
-25.131393535040623
31
0
0
LINE
5
159
100
AcDbEntity
8
0
100
AcDbLine
10
287.99999960353057
20
-5.6344233696853596
30
0
11
287.99999990490835
21
-25.131393577327856
31
0
0
LINE
5
160
100
AcDbEntity
8
0
100
AcDbLine
10
148.99999991138787
20
-25.131394618469717
30
0
11
144.49999991138787
21
-25.131394617869031
31
0
0
LINE
5
161
100
AcDbEntity
8
0
100
AcDbLine
10
148.99999991530873
20
-5.6344244531144119
30
0
11
144.49999991530871
21
-5.6344244525137253
31
0
0
LINE
5
162
100
AcDbEntity
8
0
100
AcDbLine
10
148.99999991786748
20
-25.131394660756921
30
0
11
148.99999991530873
21
-5.6344244531144119
31
0
0
LINE
5
163
100
AcDbEntity
8
0
100
AcDbLine
10
144.49999991530871
20
-5.6344244525137253
30
0
11
144.49999991786748
21
-25.13139466136062
31
0
0
LINE
5
164
100
AcDbEntity
8
0
100
AcDbLine
10
307.00000060789614
20
-114.49085539035194
30
0
11
306.99999934526824
21
47.499697335166871
31
0
0
LINE
5
165
100
AcDbEntity
8
0
100
AcDbLine
10
299.00000067032266
20
-122.49995398662062
30
0
11
138.00000067032258
21
-122.49995524152766
31
0
0
LINE
5
166
100
AcDbEntity
8
0
100
AcDbLine
10
129.99999934526818
20
47.49969595554856
30
0
11
130.00000060789608
21
-114.49085676997024
31
0
0
LWPOLYLINE
5
167
100
AcDbEntity
8
0
100
AcDbPolyline
90
4
70
1
43
0.0
10
462.499997798067
20
-3.9999981293312459
10
462.499997798067
20
-23.999998129331246
10
457.99999779806694
20
-23.999998129331246
10
457.99999779806694
20
-3.9999981293312459
0
LWPOLYLINE
5
168
100
AcDbEntity
8
0
100
AcDbPolyline
90
4
70
1
43
0.0
10
601.49999830470642
20
-23.999998129331246
10
601.49999830470642
20
-3.9999981293312459
10
605.99999830470654
20
-3.9999981293312459
10
605.99999830470654
20
-23.999998129331246
0
LINE
5
169
100
AcDbEntity
8
0
100
AcDbLine
10
610.99999835926769
20
-1.4999981568901966
30
0
11
610.99999835926769
21
-26.499998129331246
31
0
0
LINE
5
170
100
AcDbEntity
8
0
100
AcDbLine
10
596.99999809425617
20
3.0000017849297578
30
0
11
606.49999833170864
21
3.0000018431097866
31
0
0
LINE
5
171
100
AcDbEntity
8
0
100
AcDbLine
10
596.99999783703925
20
36.000001617349014
30
0
11
596.99999809425617
21
3.0000017849297578
31
0
0
LINE
5
172
100
AcDbEntity
8
0
100
AcDbLine
10
586.99999779806706
20
41.000001539404529
30
0
11
591.99999779806694
21
41.000001578376768
31
0
0
LINE
5
173
100
AcDbEntity
8
0
100
AcDbLine
10
586.99999776299182
20
45.50000153940455
30
0
11
586.99999779806706
21
41.000001539404529
31
0
0
LINE
5
174
100
AcDbEntity
8
0
100
AcDbLine
10
546.49999772791693
20
50.000001223729143
30
0
11
582.49999772791693
21
50.000001504329504
31
0
0
LINE
5
175
100
AcDbEntity
8
0
100
AcDbLine
10
541.99999779806706
20
41.000001188654053
30
0
11
541.99999776299205
21
45.500001188654096
31
0
0
LINE
5
176
100
AcDbEntity
8
0
100
AcDbLine
10
531.99999830470654
20
41.000001110709533
30
0
11
541.99999779806706
21
41.000001188654053
31
0
0
LINE
5
177
100
AcDbEntity
8
0
100
AcDbLine
10
521.99999830470642
20
41.000001188654025
30
0
11
531.99999779806694
21
41.000001110709491
31
0
0
LINE
5
178
100
AcDbEntity
8
0
100
AcDbLine
10
521.99999833978143
20
45.500001188654096
30
0
11
521.99999830470642
21
41.000001188654025
31
0
0
LINE
5
179
100
AcDbEntity
8
0
100
AcDbLine
10
481.4999983748566
20
50.000001504329468
30
0
11
517.49999837485655
21
50.000001223729143
31
0
0
LINE
5
180
100
AcDbEntity
8
0
100
AcDbLine
10
476.99999830470654
20
41.000001539404458
30
0
11
476.9999983397816
21
45.500001539404515
31
0
0
LINE
5
181
100
AcDbEntity
8
0
100
AcDbLine
10
471.99999830470654
20
41.000001578376761
30
0
11
476.99999830470654
21
41.000001539404458
31
0
0
LINE
5
182
100
AcDbEntity
8
0
100
AcDbLine
10
466.9999980085172
20
3.00000178492974
30
0
11
466.99999826573423
21
36.000001617349035
31
0
0
LINE
5
183
100
AcDbEntity
8
0
100
AcDbLine
10
457.49999777106484
20
3.0000018431097857
30
0
11
466.9999980085172
21
3.00000178492974
31
0
0
LINE
5
184
100
AcDbEntity
8
0
100
AcDbLine
10
452.99999774350579
20
-26.499998129331246
30
0
11
452.99999774350579
21
-1.4999981568902054
31
0
0
LINE
5
185
100
AcDbEntity
8
0
100
AcDbLine
10
466.9999977435059
20
-30.999998129331239
30
0
11
457.49999774350584
21
-30.999998129331246
31
0
0
LINE
5
186
100
AcDbEntity
8
0
100
AcDbLine
10
466.99999733039982
20
-83.999998382651
30
0
11
466.9999977435059
21
-30.999998129331239
31
0
0
LINE
5
187
100
AcDbEntity
8
0
100
AcDbLine
10
476.99999729142746
20
-88.999998460595549
30
0
11
471.99999729142752
21
-88.999998421623275
31
0
0
LINE
5
188
100
AcDbEntity
8
0
100
AcDbLine
10
476.99999711994951
20
-110.99999846059558
30
0
11
476.99999729142746
21
-88.999998460595549
31
0
0
LINE
5
189
100
AcDbEntity
8
0
100
AcDbLine
10
521.99999705759387
20
-118.99999881134589
30
0
11
484.99999705759393
21
-118.99999852295119
31
0
0
LINE
5
190
100
AcDbEntity
8
0
100
AcDbLine
10
521.99999729142746
20
-88.999998811345932
30
0
11
521.99999705759387
21
-118.99999881134589
31
0
0
LINE
5
191
100
AcDbEntity
8
0
100
AcDbLine
10
531.99999729142746
20
-88.999998889290509
30
0
11
521.99999729142746
21
-88.999998811345932
31
0
0
LINE
5
192
100
AcDbEntity
8
0
100
AcDbLine
10
541.99999881134602
20
-88.999998811345975
30
0
11
531.99999881134602
21
-88.999998889290509
31
0
0
LINE
5
193
100
AcDbEntity
8
0
100
AcDbLine
10
541.99999904517961
20
-118.9999988113459
30
0
11
541.99999881134602
21
-88.999998811345975
31
0
0
LINE
5
194
100
AcDbEntity
8
0
100
AcDbLine
10
578.99999904517949
20
-118.99999852295113
30
0
11
541.99999904517961
21
-118.9999988113459
31
0
0
LINE
5
195
100
AcDbEntity
8
0
100
AcDbLine
10
586.99999881134602
20
-88.999998460595549
30
0
11
586.99999898282397
21
-110.99999846059549
31
0
0
LINE
5
196
100
AcDbEntity
8
0
100
AcDbLine
10
591.9999988113459
20
-88.999998421623289
30
0
11
586.99999881134602
21
-88.999998460595549
31
0
0
LINE
5
197
100
AcDbEntity
8
0
100
AcDbLine
10
596.99999835926758
20
-30.999998129331239
30
0
11
596.99999877237371
21
-83.999998382651015
31
0
0
LINE
5
198
100
AcDbEntity
8
0
100
AcDbLine
10
606.49999835926769
20
-30.999998129331246
30
0
11
596.99999835926758
21
-30.999998129331239
31
0
0
CIRCLE
5
199
100
AcDbEntity
8
0
100
AcDbCircle
10
400.99999849291953
20
-34.999998674943029
30
0
40
2.9000000000000004
210
0
220
0
230
1
0
LWPOLYLINE
5
200
100
AcDbEntity
8
0
100
AcDbPolyline
90
4
70
1
43
0.0
10
391.99999726804407
20
-31.499998674943008
10
391.99999726804407
20
-38.499998674943008
10
381.99999726804407
20
-38.499998674943022
10
381.99999726804407
20
-31.499998674943015
0
CIRCLE
5
201
100
AcDbEntity
8
0
100
AcDbCircle
10
372.99999604316866
20
-34.999998565820647
30
0
40
2.9000000000000004
210
0
220
0
230
1
0
LWPOLYLINE
5
202
100
AcDbEntity
8
0
100
AcDbPolyline
90
4
70
1
43
0.0
10
456.49999775909464
20
-58.999998674943015
10
456.49999775909464
20
-38.999998674943015
10
460.99999775909464
20
-38.999998674943015
10
460.99999775909464
20
-58.999998674943015
0
LWPOLYLINE
5
203
100
AcDbEntity
8
0
100
AcDbPolyline
90
4
70
1
43
0.0
10
317.49999725245516
20
-38.999998674943015
10
317.49999725245522
20
-58.999998674943015
10
312.99999725245522
20
-58.999998674943015
10
312.99999725245516
20
-38.999998674943015
0
LINE
5
204
100
AcDbEntity
8
0
100
AcDbLine
10
307.999997197894
20
-61.499998647384039
30
0
11
307.99999719789406
21
-36.499998674943022
31
0
0
LINE
5
205
100
AcDbEntity
8
0
100
AcDbLine
10
321.99999746290541
20
-65.999998589204012
30
0
11
312.499997225453
21
-65.999998647384047
31
0
0
LINE
5
206
100
AcDbEntity
8
0
100
AcDbLine
10
321.99999772012239
20
-98.999998421623275
30
0
11
321.99999746290541
21
-65.999998589204012
31
0
0
LINE
5
207
100
AcDbEntity
8
0
100
AcDbLine
10
331.9999977590947
20
-103.99999834367878
30
0
11
326.9999977590947
21
-103.99999838265103
31
0
0
LINE
5
208
100
AcDbEntity
8
0
100
AcDbLine
10
331.99999779416976
20
-108.49999834367881
30
0
11
331.9999977590947
21
-103.99999834367878
31
0
0
LINE
5
209
100
AcDbEntity
8
0
100
AcDbLine
10
372.49999782924476
20
-112.99999802800342
30
0
11
336.49999782924482
21
-112.99999830860378
31
0
0
LINE
5
210
100
AcDbEntity
8
0
100
AcDbLine
10
376.9999977590947
20
-103.99999799292831
30
0
11
376.99999779416976
21
-108.49999799292839
31
0
0
LINE
5
211
100
AcDbEntity
8
0
100
AcDbLine
10
386.99999725245516
20
-103.99999791498379
30
0
11
376.9999977590947
21
-103.99999799292831
31
0
0
LINE
5
212
100
AcDbEntity
8
0
100
AcDbLine
10
396.99999725245516
20
-103.99999799292829
30
0
11
386.9999977590947
21
-103.99999791498375
31
0
0
LINE
5
213
100
AcDbEntity
8
0
100
AcDbLine
10
396.99999721738016
20
-108.49999799292834
30
0
11
396.99999725245516
21
-103.99999799292829
31
0
0
LINE
5
214
100
AcDbEntity
8
0
100
AcDbLine
10
437.49999718230515
20
-112.99999830860372
30
0
11
401.49999718230509
21
-112.99999802800342
31
0
0
LINE
5
215
100
AcDbEntity
8
0
100
AcDbLine
10
441.99999725245516
20
-103.99999834367873
30
0
11
441.99999721738016
21
-108.49999834367877
31
0
0
LINE
5
216
100
AcDbEntity
8
0
100
AcDbLine
10
446.99999725245516
20
-103.99999838265103
30
0
11
441.99999725245516
21
-103.99999834367873
31
0
0
LINE
5
217
100
AcDbEntity
8
0
100
AcDbLine
10
451.99999754864444
20
-65.999998589203997
30
0
11
451.99999729142746
21
-98.999998421623289
31
0
0
LINE
5
218
100
AcDbEntity
8
0
100
AcDbLine
10
461.49999778609691
20
-65.999998647384047
30
0
11
451.99999754864444
21
-65.999998589203997
31
0
0
LINE
5
219
100
AcDbEntity
8
0
100
AcDbLine
10
465.99999781365591
20
-36.499998674943015
30
0
11
465.9999978136558
21
-61.499998647384054
31
0
0
LINE
5
220
100
AcDbEntity
8
0
100
AcDbLine
10
451.99999781365585
20
-31.999998674943022
30
0
11
461.49999781365585
21
-31.999998674943022
31
0
0
LINE
5
221
100
AcDbEntity
8
0
100
AcDbLine
10
451.99999822676182
20
21.000001578376736
30
0
11
451.99999781365585
21
-31.999998674943022
31
0
0
LINE
5
222
100
AcDbEntity
8
0
100
AcDbLine
10
441.99999826573418
20
26.000001656321281
30
0
11
446.99999826573418
21
26.00000161734901
31
0
0
LINE
5
223
100
AcDbEntity
8
0
100
AcDbLine
10
441.99999830080912
20
30.500001656321292
30
0
11
441.99999826573418
21
26.000001656321281
31
0
0
LINE
5
224
100
AcDbEntity
8
0
100
AcDbLine
10
396.99999826573418
20
26.000002007071714
30
0
11
396.99999830080918
21
30.500002007071654
31
0
0
LINE
5
225
100
AcDbEntity
8
0
100
AcDbLine
10
386.99999826573418
20
26.000002085016245
30
0
11
396.99999826573418
21
26.000002007071714
31
0
0
LINE
5
226
100
AcDbEntity
8
0
100
AcDbLine
10
376.99999674581568
20
26.000002007071707
30
0
11
386.99999674581568
21
26.000002085016245
31
0
0
LINE
5
227
100
AcDbEntity
8
0
100
AcDbLine
10
376.99999671074062
20
30.500002233110834
30
0
11
376.99999674581568
21
26.000002007071707
31
0
0
LINE
5
228
100
AcDbEntity
8
0
100
AcDbLine
10
331.99999674581568
20
26.000001656321281
30
0
11
331.99999671074067
21
30.500002443561051
31
0
0
LINE
5
229
100
AcDbEntity
8
0
100
AcDbLine
10
326.99999674581568
20
26.000001617349024
30
0
11
331.99999674581568
21
26.000001656321281
31
0
0
LINE
5
230
100
AcDbEntity
8
0
100
AcDbLine
10
321.999997197894
20
-31.999998674943022
30
0
11
321.99999678478787
21
21.00000157837675
31
0
0
LINE
5
231
100
AcDbEntity
8
0
100
AcDbLine
10
312.499997197894
20
-31.999998674943015
30
0
11
321.999997197894
21
-31.999998674943022
31
0
0
CIRCLE
5
232
100
AcDbEntity
8
0
100
AcDbCircle
10
-135.31693213109148
20
176.07254286912934
30
0
40
1.5000000000000009
210
0
220
-0
230
1
0
LWPOLYLINE
5
233
100
AcDbEntity
8
0
100
AcDbPolyline
90
12
70
1
43
0.0
10
-115.50000291557977
20
182.5291410179762
42
-0.41421356237309592
10
-109.50000282204635
20
176.52914111150966
10
-109.50000278898555
20
174.40835613296815
10
-119.36243242811238
20
172.57519061347938
10
-119.36242887831935
20
-55.137572122875618
42
-0.41421356237308898
10
-122.36242883155263
20
-58.137572169642304
10
-136.36242883155253
20
-58.137572387887005
42
-0.41421356237309592
10
-139.36242887831926
20
-55.137572434653741
10
-139.362432370161
20
168.85771818274205
10
-149.50000267308295
20
166.97341127149357
10
-149.5000028220463
20
176.52914048795336
42
-0.4142135623730942
10
-143.50000291557981
20
182.52914058148676
0
CIRCLE
5
234
100
AcDbEntity
8
0
100
AcDbCircle
10
-129.36242892948979
20
-51.855076924821105
30
0
40
1.4999999999999996
210
0
220
-0
230
1
0
CIRCLE
5
235
100
AcDbEntity
8
0
100
AcDbCircle
10
-99.678359975044799
20
-85.072546392148098
30
0
40
1.5000000000000002
210
0
220
0
230
1
0
LWPOLYLINE
5
236
100
AcDbEntity
8
0
100
AcDbPolyline
90
12
70
1
43
0.0
10
-119.49528919055659
20
-91.529144540994764
42
-0.41421356237309503
10
-125.49528928409001
20
-85.529144634528251
10
-125.49528931715074
20
-83.408359655986644
10
-115.63285967802389
20
-81.575194136497956
10
-115.63286322781707
20
146.13756859985696
42
-0.41421356237309503
10
-112.6328632745838
20
149.13756864662366
10
-98.632863274583812
20
149.13756886486834
42
-0.41421356237309503
10
-95.632863227817097
20
146.1375689116351
10
-95.632859735975231
20
-77.857721705760682
10
-85.495289433053358
20
-75.973414794512252
10
-85.495289284090049
20
-85.529144010972033
42
-0.41421356237309592
10
-91.495289190556491
20
-91.529144104505349
0
CIRCLE
5
237
100
AcDbEntity
8
0
100
AcDbCircle
10
-105.63286317664654
20
142.85507340180246
30
0
40
1.4999999999999991
210
0
220
0
230
1
0
LWPOLYLINE
5
238
100
AcDbEntity
8
0
100
AcDbPolyline
90
4
70
1
43
0.0
10
349.99999881524303
20
152.00000321159325
10
345.49999881524298
20
152.00000317651819
10
345.4999990802545
20
118.0000032346982
10
349.99999908025444
20
118.00000326977327
0
LWPOLYLINE
5
239
100
AcDbEntity
8
0
100
AcDbPolyline
90
4
70
1
43
0.0
10
194.5756759740236
20
60.000001840080799
10
194.57567600909866
20
55.500001840080806
10
224.57567600909866
20
55.500002073914459
10
224.5756759740236
20
60.000002073914416
0
LWPOLYLINE
5
240
100
AcDbEntity
8
0
100
AcDbPolyline
90
4
70
1
43
0.0
10
259.57567597402362
20
60.000002346720294
10
259.57567600909863
20
55.500002346720301
10
289.57567600909863
20
55.500002580553954
10
289.57567597402362
20
60.000002580553911
0
LWPOLYLINE
5
241
100
AcDbEntity
8
0
100
AcDbPolyline
90
4
70
1
43
0.0
10
324.57567600909869
20
55.500002853359838
10
354.57567600909869
20
55.500003087193448
10
354.57567597402362
20
60.000003087193406
10
324.57567597402362
20
60.000002853359788
0
LWPOLYLINE
5
242
100
AcDbEntity
8
0
100
AcDbPolyline
90
4
70
1
43
0.0
10
431.34562778849221
20
96.239484985653007
10
426.84562778849227
20
96.239484950578003
10
426.84562752348086
20
130.239484864839
10
431.34562752348086
20
130.23948489991403
0
LWPOLYLINE
5
243
100
AcDbEntity
8
0
100
AcDbPolyline
90
4
70
1
43
0.0
10
582.26995059463661
20
192.73948632960642
10
582.26995062971173
20
188.23948632960648
10
552.26995062971162
20
188.23948609577286
10
552.26995059463661
20
192.7394860957728
0
LWPOLYLINE
5
244
100
AcDbEntity
8
0
100
AcDbPolyline
90
4
70
1
43
0.0
10
517.26995059463661
20
192.73948582296694
10
517.26995062971173
20
188.23948582296697
10
487.26995062971162
20
188.23948558913338
10
487.26995059463661
20
192.73948558913332
0
LWPOLYLINE
5
245
100
AcDbEntity
8
0
100
AcDbPolyline
90
4
70
1
43
0.0
10
422.26995059463661
20
192.73948508249384
10
452.26995059463661
20
192.73948531632749
10
452.26995062971173
20
188.23948531632749
10
422.26995062971173
20
188.23948508249387
0
ARC
5
246
100
AcDbEntity
8
0
100
AcDbCircle
10
-38.674322632717882
20
53.74999954148624
30
0
40
4.4999999999999973
210
0
220
0
230
1
100
AcDbArc
50
180
51
269.9999995534107
0
ARC
5
247
100
AcDbEntity
8
0
100
AcDbCircle
10
-38.67432154928877
20
192.7500010614047
30
0
40
4.4999999999999929
210
-0
220
0
230
1
100
AcDbArc
50
89.999999553410632
51
180
0
ARC
5
248
100
AcDbEntity
8
0
100
AcDbCircle
10
-17.674321549288774
20
192.75000089772118
30
0
40
4.5
210
0
220
0
230
1
100
AcDbArc
50
0
51
89.999999553410817
0
ARC
5
249
100
AcDbEntity
8
0
100
AcDbCircle
10
26.325678450711226
20
192.75000055476517
30
0
40
4.4999999999999929
210
-0
220
0
230
1
100
AcDbArc
50
89.999999553410632
51
180
0
ARC
5
250
100
AcDbEntity
8
0
100
AcDbCircle
10
47.325678450711223
20
192.75000039108164
30
0
40
4.5000000000000018
210
0
220
0
230
1
100
AcDbArc
50
0
51
89.999999553410731
0
ARC
5
251
100
AcDbEntity
8
0
100
AcDbCircle
10
91.325678450711223
20
192.75000004812568
30
0
40
4.4999999999999929
210
-0
220
0
230
1
100
AcDbArc
50
89.999999553410817
51
180
0
ARC
5
252
100
AcDbEntity
8
0
100
AcDbCircle
10
112.32567845071122
20
192.74999988444222
30
0
40
4.4999999999999929
210
0
220
0
230
1
100
AcDbArc
50
0
51
89.999999553411001
0
ARC
5
253
100
AcDbEntity
8
0
100
AcDbCircle
10
112.32567736728213
20
53.749998364523677
30
0
40
4.5000000000000018
210
0
220
0
230
1
100
AcDbArc
50
269.99999955341065
51
360
0
ARC
5
254
100
AcDbEntity
8
0
100
AcDbCircle
10
91.325677367282125
20
53.749998528207215
30
0
40
4.5000000000000107
210
0
220
0
230
1
100
AcDbArc
50
180
51
269.99999955341082
0
ARC
5
255
100
AcDbEntity
8
0
100
AcDbCircle
10
47.325677367282132
20
53.749998871163115
30
0
40
4.4999999999999929
210
0
220
0
230
1
100
AcDbArc
50
269.99999955341065
51
360
0
ARC
5
256
100
AcDbEntity
8
0
100
AcDbCircle
10
26.325677367282122
20
53.749999034846724
30
0
40
4.5000000000000018
210
0
220
0
230
1
100
AcDbArc
50
180
51
269.99999955341065
0
ARC
5
257
100
AcDbEntity
8
0
100
AcDbCircle
10
-17.674322632717889
20
53.749999377802631
30
0
40
4.5000000000000018
210
0
220
0
230
1
100
AcDbArc
50
269.9999995534107
51
360
0
ARC
5
258
100
AcDbEntity
8
0
100
AcDbCircle
10
457.49999774350584
20
-26.499998129331246
30
0
40
4.5000000000000284
210
0
220
0
230
1
100
AcDbArc
50
180
51
270
0
ARC
5
259
100
AcDbEntity
8
0
100
AcDbCircle
10
457.49999774350584
20
-1.4999981568902143
30
0
40
4.5
210
0
220
-0
230
1
100
AcDbArc
50
89.999999649107963
51
180
0
ARC
5
260
100
AcDbEntity
8
0
100
AcDbCircle
10
481.49999833978154
20
45.500001504329468
30
0
40
4.5000000000000018
210
0
220
-0
230
1
100
AcDbArc
50
89.999999553410461
51
180
0
ARC
5
261
100
AcDbEntity
8
0
100
AcDbCircle
10
517.49999833978154
20
45.500001223729143
30
0
40
4.4999999999999574
210
-0
220
0
230
1
100
AcDbArc
50
0
51
89.999999553411172
0
ARC
5
262
100
AcDbEntity
8
0
100
AcDbCircle
10
546.49999776299194
20
45.500001223729143
30
0
40
4.5000000000000018
210
0
220
0
230
1
100
AcDbArc
50
90.000000446588828
51
180
0
ARC
5
263
100
AcDbEntity
8
0
100
AcDbCircle
10
582.49999776299194
20
45.500001504329504
30
0
40
4.4999999999999574
210
0
220
-0
230
1
100
AcDbArc
50
0
51
90.000000446588828
0
ARC
5
264
100
AcDbEntity
8
0
100
AcDbCircle
10
606.49999835926769
20
-26.499998129331246
30
0
40
4.5000000000000018
210
-0
220
0
230
1
100
AcDbArc
50
-90
51
0
0
ARC
5
265
100
AcDbEntity
8
0
100
AcDbCircle
10
606.49999835926769
20
-1.4999981568902143
30
0
40
4.5000000000000284
210
0
220
-0
230
1
100
AcDbArc
50
0
51
90.000000350892776
0
ARC
5
266
100
AcDbEntity
8
0
100
AcDbCircle
10
484.99999711994951
20
-110.9999985229512
30
0
40
8.0000000000000426
210
0
220
0
230
1
100
AcDbArc
50
180
51
269.99999955341104
0
ARC
5
267
100
AcDbEntity
8
0
100
AcDbCircle
10
578.99999898282397
20
-110.99999852295113
30
0
40
8.0000000000000071
210
-0
220
0
230
1
100
AcDbArc
50
-89.999999553411456
51
0
0
ARC
5
268
100
AcDbEntity
8
0
100
AcDbCircle
10
336.49999671074062
20
30.500002478636077
30
0
40
4.5000000000000018
210
0
220
-0
230
1
100
AcDbArc
50
89.999999553410461
51
180
0
LINE
5
269
100
AcDbEntity
8
0
100
AcDbLine
10
336.49999674581568
20
35.000002478636077
30
0
11
372.49999674581574
21
35.000002198035759
31
0
0
ARC
5
270
100
AcDbEntity
8
0
100
AcDbCircle
10
372.49999671074067
20
30.500002198035787
30
0
40
4.4999999999999574
210
0
220
-0
230
1
100
AcDbArc
50
0
51
89.999999553410461
0
ARC
5
271
100
AcDbEntity
8
0
100
AcDbCircle
10
401.49999830080924
20
30.500001971996618
30
0
40
4.5000000000000018
210
0
220
-0
230
1
100
AcDbArc
50
89.999999553411172
51
180
0
LINE
5
272
100
AcDbEntity
8
0
100
AcDbLine
10
401.49999833588424
20
35.000001971996618
30
0
11
437.49999833588424
21
35.000001691396321
31
0
0
ARC
5
273
100
AcDbEntity
8
0
100
AcDbCircle
10
437.49999830080918
20
30.500001691396328
30
0
40
4.4999999999999574
210
0
220
0
230
1
100
AcDbArc
50
0
51
89.999999553410461
0
ARC
5
274
100
AcDbEntity
8
0
100
AcDbCircle
10
461.49999781365585
20
-36.499998674943015
30
0
40
4.5000000000000284
210
0
220
0
230
1
100
AcDbArc
50
0
51
90
0
ARC
5
275
100
AcDbEntity
8
0
100
AcDbCircle
10
461.49999781365585
20
-61.499998647384047
30
0
40
4.5000000000000018
210
0
220
0
230
1
100
AcDbArc
50
269.9999996491087
51
360
0
ARC
5
276
100
AcDbEntity
8
0
100
AcDbCircle
10
437.49999721738016
20
-108.49999830860372
30
0
40
4.4999999999999929
210
0
220
0
230
1
100
AcDbArc
50
269.9999995534111
51
360
0
ARC
5
277
100
AcDbEntity
8
0
100
AcDbCircle
10
401.49999721738016
20
-108.4999980280034
30
0
40
4.4999999999999574
210
0
220
0
230
1
100
AcDbArc
50
180
51
269.99999955341042
0
ARC
5
278
100
AcDbEntity
8
0
100
AcDbCircle
10
372.49999779416976
20
-108.4999980280034
30
0
40
4.5000000000000107
210
0
220
0
230
1
100
AcDbArc
50
-89.9999995534112
51
0
0
ARC
5
279
100
AcDbEntity
8
0
100
AcDbCircle
10
336.49999779416976
20
-108.49999830860376
30
0
40
4.4999999999999574
210
0
220
0
230
1
100
AcDbArc
50
180
51
270.00000044658958
0
ARC
5
280
100
AcDbEntity
8
0
100
AcDbCircle
10
312.499997197894
20
-61.499998647384047
30
0
40
4.4999999999999929
210
0
220
0
230
1
100
AcDbArc
50
180
51
270.00000035089204
0
ARC
5
281
100
AcDbEntity
8
0
100
AcDbCircle
10
312.499997197894
20
-36.499998674943015
30
0
40
4.5000000000000018
210
-0
220
0
230
1
100
AcDbArc
50
90
51
180
0
CIRCLE
5
282
100
AcDbEntity
8
0
100
AcDbCircle
10
-43.49786644253841
20
-51.416030211088511
30
0
40
0.99999999999999867
210
0
220
-0
230
1
0
CIRCLE
5
283
100
AcDbEntity
8
0
100
AcDbCircle
10
-9.6658065984932904
20
-17.583970894448232
30
0
40
0.99999999999999867
210
0
220
-0
230
1
0
LINE
5
284
100
AcDbEntity
8
0
100
AcDbLine
10
466.99999733039982
20
-83.999998382651
30
0
11
471.99999729142752
21
-88.999998421623275
31
0
0
LINE
5
285
100
AcDbEntity
8
0
100
AcDbLine
10
471.99999830470654
20
41.000001578376761
30
0
11
466.99999826573423
21
36.000001617349035
31
0
0
LINE
5
286
100
AcDbEntity
8
0
100
AcDbLine
10
596.99999783703925
20
36.000001617349014
30
0
11
591.99999779806694
21
41.000001578376768
31
0
0
LINE
5
287
100
AcDbEntity
8
0
100
AcDbLine
10
591.9999988113459
20
-88.999998421623289
30
0
11
596.99999877237371
21
-83.999998382651015
31
0
0
LINE
5
288
100
AcDbEntity
8
0
100
AcDbLine
10
326.99999674581568
20
26.000001617349024
30
0
11
321.99999678478787
21
21.00000157837675
31
0
0
LINE
5
289
100
AcDbEntity
8
0
100
AcDbLine
10
451.99999822676182
20
21.000001578376736
30
0
11
446.99999826573418
21
26.00000161734901
31
0
0
LINE
5
290
100
AcDbEntity
8
0
100
AcDbLine
10
446.99999725245516
20
-103.99999838265103
30
0
11
451.99999729142746
21
-98.999998421623289
31
0
0
LINE
5
291
100
AcDbEntity
8
0
100
AcDbLine
10
321.99999772012239
20
-98.999998421623275
30
0
11
326.9999977590947
21
-103.99999838265103
31
0
0
LINE
5
292
100
AcDbEntity
8
0
100
AcDbLine
10
129.99999934519712
20
47.508810900782464
30
0
11
306.99999934519718
21
47.50881228040079
31
0
0
ELLIPSE
5
293
100
AcDbEntity
8
0
100
AcDbEllipse
10
299.00000060796719
20
-114.49997039794148
30
0
11
8.0000000000000036
21
6.2355616781140126e-08
31
0.0
40
0.9999979485848931
41
4.7123889803846897
42
6.2831853071795916
0
ELLIPSE
5
294
100
AcDbEntity
8
0
100
AcDbEllipse
10
138.00000060796711
20
-114.49997165284853
30
0
11
8.0000000000000036
21
6.2355621777143737e-08
31
0.0
40
0.9999979485848931
41
3.1415926535897931
42
4.7123889803846861
0
LINE
5
295
100
AcDbEntity
8
0
100
AcDbLine
10
129.99999934519712
20
47.508810900782464
30
0
11
129.99999934526818
21
47.49969595554856
31
0
0
LINE
5
296
100
AcDbEntity
8
0
100
AcDbLine
10
306.99999934526824
20
47.499697335166871
30
0
11
306.99999934519718
21
47.50881228040079
31
0
0
ENDSEC
0
SECTION
2
OBJECTS
0
DICTIONARY
5
C
100
AcDbDictionary
3
ACAD_GROUP
350
D
3
ACAD_MLINESTYLE
350
17
0
DICTIONARY
5
D
100
AcDbDictionary
0
DICTIONARY
5
1A
330
C
100
AcDbDictionary
0
DICTIONARY
5
17
100
AcDbDictionary
0
ENDSEC
0
EOF
