G04 #@! TF.GenerationSoftware,KiCad,Pcbnew,(5.1.6)-1*
G04 #@! TF.CreationDate,2020-10-11T12:38:22+02:00*
G04 #@! TF.ProjectId,AdaptaddorCubeCell,41646170-7461-4646-946f-724375626543,1.0*
G04 #@! TF.SameCoordinates,Original*
G04 #@! TF.FileFunction,Copper,L2,Bot*
G04 #@! TF.FilePolarity,Positive*
%FSLAX46Y46*%
G04 Gerber Fmt 4.6, Leading zero omitted, Abs format (unit mm)*
G04 Created by KiCad (PCBNEW (5.1.6)-1) date 2020-10-11 12:38:22*
%MOMM*%
%LPD*%
G01*
G04 APERTURE LIST*
G04 #@! TA.AperFunction,ComponentPad*
%ADD10O,2.524000X1.524000*%
G04 #@! TD*
G04 #@! TA.AperFunction,ComponentPad*
%ADD11C,3.510000*%
G04 #@! TD*
G04 #@! TA.AperFunction,ComponentPad*
%ADD12R,2.524000X1.524000*%
G04 #@! TD*
G04 #@! TA.AperFunction,ComponentPad*
%ADD13R,5.500000X3.500000*%
G04 #@! TD*
G04 #@! TA.AperFunction,ComponentPad*
%ADD14O,5.500000X3.500000*%
G04 #@! TD*
G04 #@! TA.AperFunction,ComponentPad*
%ADD15O,2.000000X1.600000*%
G04 #@! TD*
G04 #@! TA.AperFunction,ComponentPad*
%ADD16O,1.600000X2.000000*%
G04 #@! TD*
G04 #@! TA.AperFunction,ComponentPad*
%ADD17O,2.700000X2.000000*%
G04 #@! TD*
G04 #@! TA.AperFunction,ComponentPad*
%ADD18O,1.524000X2.524000*%
G04 #@! TD*
G04 #@! TA.AperFunction,ComponentPad*
%ADD19R,1.700000X2.300000*%
G04 #@! TD*
G04 #@! TA.AperFunction,ComponentPad*
%ADD20O,1.700000X2.300000*%
G04 #@! TD*
G04 #@! TA.AperFunction,ComponentPad*
%ADD21R,2.300000X1.700000*%
G04 #@! TD*
G04 #@! TA.AperFunction,ComponentPad*
%ADD22O,2.300000X1.700000*%
G04 #@! TD*
G04 #@! TA.AperFunction,ComponentPad*
%ADD23C,3.000000*%
G04 #@! TD*
G04 #@! TA.AperFunction,ComponentPad*
%ADD24R,3.000000X3.000000*%
G04 #@! TD*
G04 #@! TA.AperFunction,ComponentPad*
%ADD25R,1.500000X0.900000*%
G04 #@! TD*
G04 #@! TA.AperFunction,ComponentPad*
%ADD26O,1.500000X0.900000*%
G04 #@! TD*
G04 #@! TA.AperFunction,ViaPad*
%ADD27C,2.000000*%
G04 #@! TD*
G04 #@! TA.AperFunction,ViaPad*
%ADD28C,0.800000*%
G04 #@! TD*
G04 #@! TA.AperFunction,Conductor*
%ADD29C,0.600000*%
G04 #@! TD*
G04 #@! TA.AperFunction,Conductor*
%ADD30C,0.254000*%
G04 #@! TD*
G04 APERTURE END LIST*
D10*
X112395000Y-101600000D03*
X112395000Y-99060000D03*
X112395000Y-96520000D03*
X112395000Y-93980000D03*
X112395000Y-91440000D03*
D11*
X99695000Y-101600000D03*
D12*
X112395000Y-86360000D03*
D10*
X112395000Y-88900000D03*
D11*
X99695000Y-86360000D03*
D13*
X165735000Y-121285000D03*
D14*
X93735000Y-121285000D03*
D15*
X121285000Y-73025000D03*
X121285000Y-68025000D03*
X107950000Y-68025000D03*
X107950000Y-73025000D03*
X125095000Y-73025000D03*
X132715000Y-73025000D03*
X132715000Y-69850000D03*
X125095000Y-69850000D03*
D16*
X116840000Y-100965000D03*
X116840000Y-108585000D03*
X120650000Y-106680000D03*
X120650000Y-99060000D03*
D17*
X110975000Y-73025000D03*
X110975000Y-68525000D03*
X117475000Y-73025000D03*
X117475000Y-68525000D03*
X104775000Y-68525000D03*
X104775000Y-73025000D03*
X98275000Y-68525000D03*
X98275000Y-73025000D03*
D10*
X148590000Y-93980000D03*
X148590000Y-91440000D03*
D18*
X131445000Y-102870000D03*
X133985000Y-102870000D03*
X136525000Y-102870000D03*
X139065000Y-102870000D03*
X141605000Y-102870000D03*
X144145000Y-102870000D03*
X146685000Y-102870000D03*
X149225000Y-102870000D03*
X151765000Y-102870000D03*
X154305000Y-102870000D03*
X131445000Y-82550000D03*
X133985000Y-82550000D03*
X136525000Y-82550000D03*
X139065000Y-82550000D03*
X141605000Y-82550000D03*
X144145000Y-82550000D03*
X146685000Y-82550000D03*
X149225000Y-82550000D03*
X151765000Y-82550000D03*
X154305000Y-82550000D03*
X156845000Y-102870000D03*
X156845000Y-82550000D03*
D19*
X156845000Y-78105000D03*
D20*
X154305000Y-78105000D03*
X151765000Y-78105000D03*
X149225000Y-78105000D03*
X146685000Y-78105000D03*
X144145000Y-78105000D03*
X141605000Y-78105000D03*
X139065000Y-78105000D03*
X136525000Y-78105000D03*
X133985000Y-78105000D03*
X131445000Y-78105000D03*
D19*
X156845000Y-108585000D03*
D20*
X154305000Y-108585000D03*
X151765000Y-108585000D03*
X149225000Y-108585000D03*
X146685000Y-108585000D03*
X144145000Y-108585000D03*
X141605000Y-108585000D03*
X139065000Y-108585000D03*
X136525000Y-108585000D03*
X133985000Y-108585000D03*
X131445000Y-108585000D03*
D21*
X152400000Y-91440000D03*
D22*
X152400000Y-93980000D03*
D21*
X163195000Y-96520000D03*
D22*
X163195000Y-99060000D03*
D19*
X163195000Y-108585000D03*
D20*
X165735000Y-108585000D03*
D21*
X97790000Y-78105000D03*
D22*
X97790000Y-80645000D03*
D21*
X92710000Y-78105000D03*
D22*
X92710000Y-80645000D03*
D19*
X112395000Y-76835000D03*
D20*
X109855000Y-76835000D03*
X107315000Y-76835000D03*
X104775000Y-76835000D03*
D19*
X112395000Y-108585000D03*
D20*
X109855000Y-108585000D03*
X107315000Y-108585000D03*
X104775000Y-108585000D03*
D23*
X159385000Y-71755000D03*
D24*
X154305000Y-71755000D03*
D16*
X123825000Y-106680000D03*
X123825000Y-99060000D03*
D25*
X123825000Y-95250000D03*
D26*
X123825000Y-92710000D03*
X123825000Y-93980000D03*
X119380000Y-93980000D03*
X119380000Y-92710000D03*
D25*
X119380000Y-95250000D03*
X167640000Y-95250000D03*
D26*
X167640000Y-92710000D03*
X167640000Y-93980000D03*
D22*
X92710000Y-94615000D03*
X92710000Y-92075000D03*
X92710000Y-89535000D03*
D21*
X92710000Y-86995000D03*
D22*
X92710000Y-100965000D03*
X92710000Y-103505000D03*
X92710000Y-106045000D03*
D21*
X92710000Y-108585000D03*
D20*
X138430000Y-70485000D03*
X140970000Y-70485000D03*
X143510000Y-70485000D03*
D19*
X146050000Y-70485000D03*
X146050000Y-73660000D03*
D20*
X143510000Y-73660000D03*
X140970000Y-73660000D03*
X138430000Y-73660000D03*
X138430000Y-67310000D03*
X140970000Y-67310000D03*
X143510000Y-67310000D03*
D19*
X146050000Y-67310000D03*
D27*
X156845000Y-85725000D03*
D28*
X130810000Y-96520000D03*
X130810000Y-99060000D03*
X107315000Y-105410000D03*
X139065000Y-86995000D03*
X130810000Y-91440000D03*
X136525000Y-90805000D03*
D29*
X165735000Y-121285000D02*
X165735000Y-108585000D01*
X165735000Y-101600000D02*
X163195000Y-99060000D01*
X165735000Y-108585000D02*
X165735000Y-101600000D01*
X146685000Y-78105000D02*
X146685000Y-82550000D01*
X146685000Y-74295000D02*
X146050000Y-73660000D01*
X146685000Y-78105000D02*
X146685000Y-74295000D01*
X146050000Y-73660000D02*
X143510000Y-73660000D01*
X143510000Y-73660000D02*
X140970000Y-73660000D01*
X140970000Y-73660000D02*
X138430000Y-73660000D01*
X133985000Y-102870000D02*
X133985000Y-108585000D01*
X125095000Y-73025000D02*
X121285000Y-73025000D01*
X121285000Y-73025000D02*
X117475000Y-73025000D01*
X117475000Y-73025000D02*
X110975000Y-73025000D01*
X110975000Y-73025000D02*
X110975000Y-73810000D01*
X110975000Y-73810000D02*
X109855000Y-74930000D01*
X109855000Y-74930000D02*
X102870000Y-74930000D01*
X102870000Y-74930000D02*
X100330000Y-77470000D01*
X100330000Y-77470000D02*
X100330000Y-80010000D01*
X99695000Y-80645000D02*
X97790000Y-80645000D01*
X100330000Y-80010000D02*
X99695000Y-80645000D01*
X133985000Y-102870000D02*
X133985000Y-89535000D01*
X133985000Y-89535000D02*
X132715000Y-88265000D01*
X132715000Y-88265000D02*
X129540000Y-88265000D01*
X125095000Y-83820000D02*
X125095000Y-73025000D01*
X129540000Y-88265000D02*
X125095000Y-83820000D01*
X131445000Y-78105000D02*
X131445000Y-82550000D01*
X133985000Y-78105000D02*
X133985000Y-82550000D01*
X141605000Y-78105000D02*
X141605000Y-82550000D01*
X116205000Y-101600000D02*
X116840000Y-100965000D01*
X112395000Y-101600000D02*
X116205000Y-101600000D01*
X92710000Y-94615000D02*
X99060000Y-94615000D01*
X99060000Y-94615000D02*
X104775000Y-100330000D01*
X112395000Y-101600000D02*
X104775000Y-101600000D01*
X104775000Y-100330000D02*
X104775000Y-101600000D01*
X104775000Y-101600000D02*
X104775000Y-108585000D01*
X104775000Y-76835000D02*
X104775000Y-100330000D01*
X116840000Y-100965000D02*
X117475000Y-101600000D01*
X117475000Y-101600000D02*
X125730000Y-101600000D01*
X125730000Y-101600000D02*
X130810000Y-96520000D01*
X144145000Y-78105000D02*
X144145000Y-82550000D01*
X107950000Y-104775000D02*
X125095000Y-104775000D01*
X125095000Y-104775000D02*
X130810000Y-99060000D01*
X107315000Y-108585000D02*
X107315000Y-105410000D01*
X107315000Y-105410000D02*
X107950000Y-104775000D01*
X107315000Y-105410000D02*
X107315000Y-105410000D01*
X120015000Y-98425000D02*
X120650000Y-99060000D01*
X114935000Y-98425000D02*
X120015000Y-98425000D01*
X112395000Y-99060000D02*
X114300000Y-99060000D01*
X114300000Y-99060000D02*
X114935000Y-98425000D01*
X149225000Y-78105000D02*
X149225000Y-82550000D01*
X150825001Y-87325001D02*
X166065001Y-87325001D01*
X149225000Y-82550000D02*
X149225000Y-85725000D01*
X167640000Y-88900000D02*
X167640000Y-92710000D01*
X166065001Y-87325001D02*
X167640000Y-88900000D01*
X149225000Y-85725000D02*
X150825001Y-87325001D01*
X149225000Y-78105000D02*
X149225000Y-71120000D01*
X148590000Y-70485000D02*
X146050000Y-70485000D01*
X149225000Y-71120000D02*
X148590000Y-70485000D01*
X146050000Y-70485000D02*
X143510000Y-70485000D01*
X143510000Y-70485000D02*
X140970000Y-70485000D01*
X140970000Y-70485000D02*
X138430000Y-70485000D01*
X119380000Y-92710000D02*
X123825000Y-92710000D01*
X120650000Y-106680000D02*
X120650000Y-107315000D01*
X116840000Y-108585000D02*
X112395000Y-108585000D01*
X92710000Y-100965000D02*
X94615000Y-100965000D01*
X94615000Y-100965000D02*
X97790000Y-104140000D01*
X97790000Y-104140000D02*
X97790000Y-111125000D01*
X97790000Y-111125000D02*
X99060000Y-112395000D01*
X99060000Y-112395000D02*
X111760000Y-112395000D01*
X112395000Y-111760000D02*
X112395000Y-108585000D01*
X111760000Y-112395000D02*
X112395000Y-111760000D01*
X90170000Y-100330000D02*
X90805000Y-100965000D01*
X90170000Y-87630000D02*
X90170000Y-100330000D01*
X92710000Y-86995000D02*
X90805000Y-86995000D01*
X90805000Y-100965000D02*
X92710000Y-100965000D01*
X90805000Y-86995000D02*
X90170000Y-87630000D01*
X119380000Y-88265000D02*
X119380000Y-92710000D01*
X112395000Y-86360000D02*
X117475000Y-86360000D01*
X117475000Y-86360000D02*
X119380000Y-88265000D01*
X150825001Y-87325001D02*
X139395001Y-87325001D01*
X139395001Y-87325001D02*
X139065000Y-86995000D01*
X120650000Y-106680000D02*
X118745000Y-108585000D01*
X118745000Y-108585000D02*
X116840000Y-108585000D01*
X120650000Y-106680000D02*
X123825000Y-106680000D01*
X151765000Y-78105000D02*
X151765000Y-82550000D01*
X132715000Y-69850000D02*
X132715000Y-73025000D01*
X132715000Y-69850000D02*
X132715000Y-67945000D01*
X133350000Y-67310000D02*
X138430000Y-67310000D01*
X132715000Y-67945000D02*
X133350000Y-67310000D01*
X138430000Y-67310000D02*
X140970000Y-67310000D01*
X140970000Y-67310000D02*
X143510000Y-67310000D01*
X143510000Y-67310000D02*
X146050000Y-67310000D01*
X146050000Y-67310000D02*
X149225000Y-67310000D01*
X149225000Y-67310000D02*
X151130000Y-69215000D01*
X151130000Y-69215000D02*
X151130000Y-75565000D01*
X151765000Y-76200000D02*
X151765000Y-78105000D01*
X151130000Y-75565000D02*
X151765000Y-76200000D01*
X154305000Y-102870000D02*
X154305000Y-108585000D01*
X151765000Y-102870000D02*
X151765000Y-108585000D01*
X149225000Y-102870000D02*
X149225000Y-108585000D01*
X146685000Y-102870000D02*
X146685000Y-108585000D01*
X144145000Y-102870000D02*
X144145000Y-108585000D01*
X141605000Y-102870000D02*
X141605000Y-108585000D01*
X136525000Y-102870000D02*
X136525000Y-108585000D01*
X136525000Y-108585000D02*
X136525000Y-111760000D01*
X136525000Y-111760000D02*
X133985000Y-114300000D01*
X133985000Y-114300000D02*
X97155000Y-114300000D01*
X97155000Y-114300000D02*
X95885000Y-113030000D01*
X95885000Y-113030000D02*
X95885000Y-107315000D01*
X95885000Y-107315000D02*
X94615000Y-106045000D01*
X94615000Y-106045000D02*
X92710000Y-106045000D01*
X131445000Y-102870000D02*
X131445000Y-108585000D01*
X139065000Y-78105000D02*
X139065000Y-82550000D01*
X98275000Y-73025000D02*
X104775000Y-73025000D01*
X104775000Y-73025000D02*
X107950000Y-73025000D01*
X125095000Y-69850000D02*
X123825000Y-69850000D01*
X106680000Y-71120000D02*
X104775000Y-73025000D01*
X95250000Y-74295000D02*
X96520000Y-73025000D01*
X96520000Y-73025000D02*
X98275000Y-73025000D01*
X92710000Y-80645000D02*
X93980000Y-80645000D01*
X95250000Y-79375000D02*
X95250000Y-74295000D01*
X93980000Y-80645000D02*
X95250000Y-79375000D01*
X139065000Y-76200000D02*
X139065000Y-78105000D01*
X138430000Y-75565000D02*
X139065000Y-76200000D01*
X125095000Y-69850000D02*
X127635000Y-69850000D01*
X127635000Y-69850000D02*
X128905000Y-71120000D01*
X128905000Y-71120000D02*
X128905000Y-73660000D01*
X128905000Y-73660000D02*
X130810000Y-75565000D01*
X130810000Y-75565000D02*
X138430000Y-75565000D01*
X106680000Y-71120000D02*
X121920000Y-71120000D01*
X123190000Y-69850000D02*
X125095000Y-69850000D01*
X121920000Y-71120000D02*
X123190000Y-69850000D01*
X154305000Y-78105000D02*
X154305000Y-82550000D01*
X154305000Y-71755000D02*
X154305000Y-78105000D01*
X136525000Y-78105000D02*
X136525000Y-82550000D01*
X167640000Y-93980000D02*
X165735000Y-93980000D01*
X165735000Y-93980000D02*
X160655000Y-88900000D01*
X160655000Y-88900000D02*
X137795000Y-88900000D01*
X136525000Y-87630000D02*
X136525000Y-82550000D01*
X137795000Y-88900000D02*
X136525000Y-87630000D01*
X119380000Y-93980000D02*
X123825000Y-93980000D01*
X125730000Y-99060000D02*
X127000000Y-97790000D01*
X125730000Y-99060000D02*
X123825000Y-99060000D01*
X127000000Y-95250000D02*
X127000000Y-97790000D01*
X125730000Y-93980000D02*
X127000000Y-95250000D01*
X123825000Y-93980000D02*
X125730000Y-93980000D01*
X125730000Y-93980000D02*
X128270000Y-93980000D01*
X128270000Y-93980000D02*
X130810000Y-91440000D01*
X136525000Y-87630000D02*
X136525000Y-90805000D01*
X139065000Y-102870000D02*
X139065000Y-108585000D01*
X148590000Y-91440000D02*
X152400000Y-91440000D01*
X148590000Y-93980000D02*
X152400000Y-93980000D01*
D30*
G36*
X169520001Y-131420000D02*
G01*
X89560000Y-131420000D01*
X89560000Y-121783003D01*
X90402573Y-121783003D01*
X90482947Y-122080368D01*
X90681388Y-122504439D01*
X90958748Y-122881648D01*
X91304369Y-123197498D01*
X91704968Y-123439852D01*
X92145150Y-123599396D01*
X92608000Y-123670000D01*
X93608000Y-123670000D01*
X93608000Y-121412000D01*
X93862000Y-121412000D01*
X93862000Y-123670000D01*
X94862000Y-123670000D01*
X95324850Y-123599396D01*
X95765032Y-123439852D01*
X96165631Y-123197498D01*
X96511252Y-122881648D01*
X96788612Y-122504439D01*
X96987053Y-122080368D01*
X97067427Y-121783003D01*
X96957625Y-121412000D01*
X93862000Y-121412000D01*
X93608000Y-121412000D01*
X90512375Y-121412000D01*
X90402573Y-121783003D01*
X89560000Y-121783003D01*
X89560000Y-120786997D01*
X90402573Y-120786997D01*
X90512375Y-121158000D01*
X93608000Y-121158000D01*
X93608000Y-118900000D01*
X93862000Y-118900000D01*
X93862000Y-121158000D01*
X96957625Y-121158000D01*
X96985187Y-121064872D01*
X99245000Y-121064872D01*
X99245000Y-121505128D01*
X99330890Y-121936925D01*
X99499369Y-122343669D01*
X99743962Y-122709729D01*
X100055271Y-123021038D01*
X100421331Y-123265631D01*
X100828075Y-123434110D01*
X101259872Y-123520000D01*
X101820128Y-123520000D01*
X102251925Y-123434110D01*
X102658669Y-123265631D01*
X103024729Y-123021038D01*
X103336038Y-122709729D01*
X103580631Y-122343669D01*
X103749110Y-121936925D01*
X103835000Y-121505128D01*
X103835000Y-121064872D01*
X154610000Y-121064872D01*
X154610000Y-121505128D01*
X154695890Y-121936925D01*
X154864369Y-122343669D01*
X155108962Y-122709729D01*
X155420271Y-123021038D01*
X155786331Y-123265631D01*
X156193075Y-123434110D01*
X156624872Y-123520000D01*
X157310128Y-123520000D01*
X157741925Y-123434110D01*
X158148669Y-123265631D01*
X158514729Y-123021038D01*
X158826038Y-122709729D01*
X159070631Y-122343669D01*
X159239110Y-121936925D01*
X159325000Y-121505128D01*
X159325000Y-121064872D01*
X159239110Y-120633075D01*
X159070631Y-120226331D01*
X158826038Y-119860271D01*
X158514729Y-119548962D01*
X158148669Y-119304369D01*
X157741925Y-119135890D01*
X157310128Y-119050000D01*
X156624872Y-119050000D01*
X156193075Y-119135890D01*
X155786331Y-119304369D01*
X155420271Y-119548962D01*
X155108962Y-119860271D01*
X154864369Y-120226331D01*
X154695890Y-120633075D01*
X154610000Y-121064872D01*
X103835000Y-121064872D01*
X103749110Y-120633075D01*
X103580631Y-120226331D01*
X103336038Y-119860271D01*
X103024729Y-119548962D01*
X102658669Y-119304369D01*
X102251925Y-119135890D01*
X101820128Y-119050000D01*
X101259872Y-119050000D01*
X100828075Y-119135890D01*
X100421331Y-119304369D01*
X100055271Y-119548962D01*
X99743962Y-119860271D01*
X99499369Y-120226331D01*
X99330890Y-120633075D01*
X99245000Y-121064872D01*
X96985187Y-121064872D01*
X97067427Y-120786997D01*
X96987053Y-120489632D01*
X96788612Y-120065561D01*
X96511252Y-119688352D01*
X96165631Y-119372502D01*
X95765032Y-119130148D01*
X95324850Y-118970604D01*
X94862000Y-118900000D01*
X93862000Y-118900000D01*
X93608000Y-118900000D01*
X92608000Y-118900000D01*
X92145150Y-118970604D01*
X91704968Y-119130148D01*
X91304369Y-119372502D01*
X90958748Y-119688352D01*
X90681388Y-120065561D01*
X90482947Y-120489632D01*
X90402573Y-120786997D01*
X89560000Y-120786997D01*
X89560000Y-109435000D01*
X90921928Y-109435000D01*
X90934188Y-109559482D01*
X90970498Y-109679180D01*
X91029463Y-109789494D01*
X91108815Y-109886185D01*
X91205506Y-109965537D01*
X91315820Y-110024502D01*
X91435518Y-110060812D01*
X91560000Y-110073072D01*
X92424250Y-110070000D01*
X92583000Y-109911250D01*
X92583000Y-108712000D01*
X92837000Y-108712000D01*
X92837000Y-109911250D01*
X92995750Y-110070000D01*
X93860000Y-110073072D01*
X93984482Y-110060812D01*
X94104180Y-110024502D01*
X94214494Y-109965537D01*
X94311185Y-109886185D01*
X94390537Y-109789494D01*
X94449502Y-109679180D01*
X94485812Y-109559482D01*
X94498072Y-109435000D01*
X94495000Y-108870750D01*
X94336250Y-108712000D01*
X92837000Y-108712000D01*
X92583000Y-108712000D01*
X91083750Y-108712000D01*
X90925000Y-108870750D01*
X90921928Y-109435000D01*
X89560000Y-109435000D01*
X89560000Y-101042289D01*
X90111370Y-101593659D01*
X90140656Y-101629344D01*
X90283028Y-101746186D01*
X90372509Y-101794014D01*
X90445459Y-101833007D01*
X90621708Y-101886472D01*
X90805000Y-101904524D01*
X90850935Y-101900000D01*
X91256275Y-101900000D01*
X91354866Y-102020134D01*
X91580986Y-102205706D01*
X91635791Y-102235000D01*
X91580986Y-102264294D01*
X91354866Y-102449866D01*
X91169294Y-102675986D01*
X91031401Y-102933966D01*
X90946487Y-103213889D01*
X90917815Y-103505000D01*
X90946487Y-103796111D01*
X91031401Y-104076034D01*
X91169294Y-104334014D01*
X91354866Y-104560134D01*
X91580986Y-104745706D01*
X91635791Y-104775000D01*
X91580986Y-104804294D01*
X91354866Y-104989866D01*
X91169294Y-105215986D01*
X91031401Y-105473966D01*
X90946487Y-105753889D01*
X90917815Y-106045000D01*
X90946487Y-106336111D01*
X91031401Y-106616034D01*
X91169294Y-106874014D01*
X91354866Y-107100134D01*
X91384687Y-107124607D01*
X91315820Y-107145498D01*
X91205506Y-107204463D01*
X91108815Y-107283815D01*
X91029463Y-107380506D01*
X90970498Y-107490820D01*
X90934188Y-107610518D01*
X90921928Y-107735000D01*
X90925000Y-108299250D01*
X91083750Y-108458000D01*
X92583000Y-108458000D01*
X92583000Y-108438000D01*
X92837000Y-108438000D01*
X92837000Y-108458000D01*
X94336250Y-108458000D01*
X94495000Y-108299250D01*
X94498072Y-107735000D01*
X94485812Y-107610518D01*
X94449502Y-107490820D01*
X94390537Y-107380506D01*
X94311185Y-107283815D01*
X94214494Y-107204463D01*
X94104180Y-107145498D01*
X94035313Y-107124607D01*
X94065134Y-107100134D01*
X94163725Y-106980000D01*
X94227711Y-106980000D01*
X94950001Y-107702291D01*
X94950000Y-112984068D01*
X94945476Y-113030000D01*
X94950000Y-113075931D01*
X94963529Y-113213291D01*
X95016993Y-113389539D01*
X95103814Y-113551971D01*
X95220656Y-113694344D01*
X95256341Y-113723630D01*
X96461374Y-114928664D01*
X96490656Y-114964344D01*
X96633028Y-115081186D01*
X96795460Y-115168007D01*
X96918243Y-115205253D01*
X96971707Y-115221471D01*
X97154999Y-115239524D01*
X97200931Y-115235000D01*
X133939068Y-115235000D01*
X133985000Y-115239524D01*
X134030932Y-115235000D01*
X134168292Y-115221471D01*
X134344540Y-115168007D01*
X134506972Y-115081186D01*
X134649344Y-114964344D01*
X134678630Y-114928659D01*
X137153664Y-112453626D01*
X137189344Y-112424344D01*
X137306186Y-112281972D01*
X137393007Y-112119540D01*
X137446471Y-111943292D01*
X137460000Y-111805932D01*
X137460000Y-111805926D01*
X137464523Y-111760001D01*
X137460000Y-111714076D01*
X137460000Y-110038725D01*
X137580134Y-109940134D01*
X137765706Y-109714014D01*
X137795000Y-109659208D01*
X137824294Y-109714013D01*
X138009866Y-109940134D01*
X138235986Y-110125706D01*
X138493966Y-110263599D01*
X138773889Y-110348513D01*
X139065000Y-110377185D01*
X139356110Y-110348513D01*
X139636033Y-110263599D01*
X139894013Y-110125706D01*
X140120134Y-109940134D01*
X140305706Y-109714014D01*
X140335000Y-109659208D01*
X140364294Y-109714013D01*
X140549866Y-109940134D01*
X140775986Y-110125706D01*
X141033966Y-110263599D01*
X141313889Y-110348513D01*
X141605000Y-110377185D01*
X141896110Y-110348513D01*
X142176033Y-110263599D01*
X142434013Y-110125706D01*
X142660134Y-109940134D01*
X142845706Y-109714014D01*
X142875000Y-109659208D01*
X142904294Y-109714013D01*
X143089866Y-109940134D01*
X143315986Y-110125706D01*
X143573966Y-110263599D01*
X143853889Y-110348513D01*
X144145000Y-110377185D01*
X144436110Y-110348513D01*
X144716033Y-110263599D01*
X144974013Y-110125706D01*
X145200134Y-109940134D01*
X145385706Y-109714014D01*
X145415000Y-109659208D01*
X145444294Y-109714013D01*
X145629866Y-109940134D01*
X145855986Y-110125706D01*
X146113966Y-110263599D01*
X146393889Y-110348513D01*
X146685000Y-110377185D01*
X146976110Y-110348513D01*
X147256033Y-110263599D01*
X147514013Y-110125706D01*
X147740134Y-109940134D01*
X147925706Y-109714014D01*
X147955000Y-109659208D01*
X147984294Y-109714013D01*
X148169866Y-109940134D01*
X148395986Y-110125706D01*
X148653966Y-110263599D01*
X148933889Y-110348513D01*
X149225000Y-110377185D01*
X149516110Y-110348513D01*
X149796033Y-110263599D01*
X150054013Y-110125706D01*
X150280134Y-109940134D01*
X150465706Y-109714014D01*
X150495000Y-109659208D01*
X150524294Y-109714013D01*
X150709866Y-109940134D01*
X150935986Y-110125706D01*
X151193966Y-110263599D01*
X151473889Y-110348513D01*
X151765000Y-110377185D01*
X152056110Y-110348513D01*
X152336033Y-110263599D01*
X152594013Y-110125706D01*
X152820134Y-109940134D01*
X153005706Y-109714014D01*
X153035000Y-109659208D01*
X153064294Y-109714013D01*
X153249866Y-109940134D01*
X153475986Y-110125706D01*
X153733966Y-110263599D01*
X154013889Y-110348513D01*
X154305000Y-110377185D01*
X154596110Y-110348513D01*
X154876033Y-110263599D01*
X155134013Y-110125706D01*
X155360134Y-109940134D01*
X155384607Y-109910313D01*
X155405498Y-109979180D01*
X155464463Y-110089494D01*
X155543815Y-110186185D01*
X155640506Y-110265537D01*
X155750820Y-110324502D01*
X155870518Y-110360812D01*
X155995000Y-110373072D01*
X156559250Y-110370000D01*
X156718000Y-110211250D01*
X156718000Y-108712000D01*
X156972000Y-108712000D01*
X156972000Y-110211250D01*
X157130750Y-110370000D01*
X157695000Y-110373072D01*
X157819482Y-110360812D01*
X157939180Y-110324502D01*
X158049494Y-110265537D01*
X158146185Y-110186185D01*
X158225537Y-110089494D01*
X158284502Y-109979180D01*
X158320812Y-109859482D01*
X158333072Y-109735000D01*
X161706928Y-109735000D01*
X161719188Y-109859482D01*
X161755498Y-109979180D01*
X161814463Y-110089494D01*
X161893815Y-110186185D01*
X161990506Y-110265537D01*
X162100820Y-110324502D01*
X162220518Y-110360812D01*
X162345000Y-110373072D01*
X162909250Y-110370000D01*
X163068000Y-110211250D01*
X163068000Y-108712000D01*
X161868750Y-108712000D01*
X161710000Y-108870750D01*
X161706928Y-109735000D01*
X158333072Y-109735000D01*
X158330000Y-108870750D01*
X158171250Y-108712000D01*
X156972000Y-108712000D01*
X156718000Y-108712000D01*
X156698000Y-108712000D01*
X156698000Y-108458000D01*
X156718000Y-108458000D01*
X156718000Y-106958750D01*
X156972000Y-106958750D01*
X156972000Y-108458000D01*
X158171250Y-108458000D01*
X158330000Y-108299250D01*
X158333072Y-107435000D01*
X161706928Y-107435000D01*
X161710000Y-108299250D01*
X161868750Y-108458000D01*
X163068000Y-108458000D01*
X163068000Y-106958750D01*
X162909250Y-106800000D01*
X162345000Y-106796928D01*
X162220518Y-106809188D01*
X162100820Y-106845498D01*
X161990506Y-106904463D01*
X161893815Y-106983815D01*
X161814463Y-107080506D01*
X161755498Y-107190820D01*
X161719188Y-107310518D01*
X161706928Y-107435000D01*
X158333072Y-107435000D01*
X158320812Y-107310518D01*
X158284502Y-107190820D01*
X158225537Y-107080506D01*
X158146185Y-106983815D01*
X158049494Y-106904463D01*
X157939180Y-106845498D01*
X157819482Y-106809188D01*
X157695000Y-106796928D01*
X157130750Y-106800000D01*
X156972000Y-106958750D01*
X156718000Y-106958750D01*
X156559250Y-106800000D01*
X155995000Y-106796928D01*
X155870518Y-106809188D01*
X155750820Y-106845498D01*
X155640506Y-106904463D01*
X155543815Y-106983815D01*
X155464463Y-107080506D01*
X155405498Y-107190820D01*
X155384607Y-107259687D01*
X155360134Y-107229866D01*
X155240000Y-107131275D01*
X155240000Y-104409885D01*
X155297607Y-104362608D01*
X155472183Y-104149887D01*
X155576038Y-103955587D01*
X155602941Y-104021942D01*
X155753994Y-104251729D01*
X155946974Y-104447632D01*
X156174465Y-104602122D01*
X156427724Y-104709262D01*
X156501930Y-104724220D01*
X156718000Y-104601720D01*
X156718000Y-102997000D01*
X156972000Y-102997000D01*
X156972000Y-104601720D01*
X157188070Y-104724220D01*
X157262276Y-104709262D01*
X157515535Y-104602122D01*
X157743026Y-104447632D01*
X157936006Y-104251729D01*
X158087059Y-104021942D01*
X158190381Y-103767101D01*
X158242000Y-103497000D01*
X158242000Y-102997000D01*
X156972000Y-102997000D01*
X156718000Y-102997000D01*
X156698000Y-102997000D01*
X156698000Y-102743000D01*
X156718000Y-102743000D01*
X156718000Y-101138280D01*
X156972000Y-101138280D01*
X156972000Y-102743000D01*
X158242000Y-102743000D01*
X158242000Y-102243000D01*
X158190381Y-101972899D01*
X158087059Y-101718058D01*
X157936006Y-101488271D01*
X157743026Y-101292368D01*
X157515535Y-101137878D01*
X157262276Y-101030738D01*
X157188070Y-101015780D01*
X156972000Y-101138280D01*
X156718000Y-101138280D01*
X156501930Y-101015780D01*
X156427724Y-101030738D01*
X156174465Y-101137878D01*
X155946974Y-101292368D01*
X155753994Y-101488271D01*
X155602941Y-101718058D01*
X155576038Y-101784413D01*
X155472183Y-101590113D01*
X155297608Y-101377392D01*
X155084887Y-101202817D01*
X154842195Y-101073096D01*
X154578860Y-100993214D01*
X154305000Y-100966241D01*
X154031141Y-100993214D01*
X153767806Y-101073096D01*
X153525114Y-101202817D01*
X153312393Y-101377392D01*
X153137817Y-101590113D01*
X153035000Y-101782471D01*
X152932183Y-101590113D01*
X152757608Y-101377392D01*
X152544887Y-101202817D01*
X152302195Y-101073096D01*
X152038860Y-100993214D01*
X151765000Y-100966241D01*
X151491141Y-100993214D01*
X151227806Y-101073096D01*
X150985114Y-101202817D01*
X150772393Y-101377392D01*
X150597817Y-101590113D01*
X150495000Y-101782471D01*
X150392183Y-101590113D01*
X150217608Y-101377392D01*
X150004887Y-101202817D01*
X149762195Y-101073096D01*
X149498860Y-100993214D01*
X149225000Y-100966241D01*
X148951141Y-100993214D01*
X148687806Y-101073096D01*
X148445114Y-101202817D01*
X148232393Y-101377392D01*
X148057817Y-101590113D01*
X147955000Y-101782471D01*
X147852183Y-101590113D01*
X147677608Y-101377392D01*
X147464887Y-101202817D01*
X147222195Y-101073096D01*
X146958860Y-100993214D01*
X146685000Y-100966241D01*
X146411141Y-100993214D01*
X146147806Y-101073096D01*
X145905114Y-101202817D01*
X145692393Y-101377392D01*
X145517817Y-101590113D01*
X145415000Y-101782471D01*
X145312183Y-101590113D01*
X145137608Y-101377392D01*
X144924887Y-101202817D01*
X144682195Y-101073096D01*
X144418860Y-100993214D01*
X144145000Y-100966241D01*
X143871141Y-100993214D01*
X143607806Y-101073096D01*
X143365114Y-101202817D01*
X143152393Y-101377392D01*
X142977817Y-101590113D01*
X142875000Y-101782471D01*
X142772183Y-101590113D01*
X142597608Y-101377392D01*
X142384887Y-101202817D01*
X142142195Y-101073096D01*
X141878860Y-100993214D01*
X141605000Y-100966241D01*
X141331141Y-100993214D01*
X141067806Y-101073096D01*
X140825114Y-101202817D01*
X140612393Y-101377392D01*
X140437817Y-101590113D01*
X140335000Y-101782471D01*
X140232183Y-101590113D01*
X140057608Y-101377392D01*
X139844887Y-101202817D01*
X139602195Y-101073096D01*
X139338860Y-100993214D01*
X139065000Y-100966241D01*
X138791141Y-100993214D01*
X138527806Y-101073096D01*
X138285114Y-101202817D01*
X138072393Y-101377392D01*
X137897817Y-101590113D01*
X137795000Y-101782471D01*
X137692183Y-101590113D01*
X137517608Y-101377392D01*
X137304887Y-101202817D01*
X137062195Y-101073096D01*
X136798860Y-100993214D01*
X136525000Y-100966241D01*
X136251141Y-100993214D01*
X135987806Y-101073096D01*
X135745114Y-101202817D01*
X135532393Y-101377392D01*
X135357817Y-101590113D01*
X135255000Y-101782471D01*
X135152183Y-101590113D01*
X134977608Y-101377392D01*
X134920000Y-101330115D01*
X134920000Y-99060000D01*
X161402815Y-99060000D01*
X161431487Y-99351111D01*
X161516401Y-99631034D01*
X161654294Y-99889014D01*
X161839866Y-100115134D01*
X162065986Y-100300706D01*
X162323966Y-100438599D01*
X162603889Y-100523513D01*
X162822050Y-100545000D01*
X163357711Y-100545000D01*
X164800001Y-101987291D01*
X164800000Y-107131274D01*
X164679866Y-107229866D01*
X164655393Y-107259687D01*
X164634502Y-107190820D01*
X164575537Y-107080506D01*
X164496185Y-106983815D01*
X164399494Y-106904463D01*
X164289180Y-106845498D01*
X164169482Y-106809188D01*
X164045000Y-106796928D01*
X163480750Y-106800000D01*
X163322000Y-106958750D01*
X163322000Y-108458000D01*
X163342000Y-108458000D01*
X163342000Y-108712000D01*
X163322000Y-108712000D01*
X163322000Y-110211250D01*
X163480750Y-110370000D01*
X164045000Y-110373072D01*
X164169482Y-110360812D01*
X164289180Y-110324502D01*
X164399494Y-110265537D01*
X164496185Y-110186185D01*
X164575537Y-110089494D01*
X164634502Y-109979180D01*
X164655393Y-109910313D01*
X164679866Y-109940134D01*
X164800001Y-110038726D01*
X164800000Y-118896928D01*
X162985000Y-118896928D01*
X162860518Y-118909188D01*
X162740820Y-118945498D01*
X162630506Y-119004463D01*
X162533815Y-119083815D01*
X162454463Y-119180506D01*
X162395498Y-119290820D01*
X162359188Y-119410518D01*
X162346928Y-119535000D01*
X162346928Y-123035000D01*
X162359188Y-123159482D01*
X162395498Y-123279180D01*
X162454463Y-123389494D01*
X162533815Y-123486185D01*
X162630506Y-123565537D01*
X162740820Y-123624502D01*
X162860518Y-123660812D01*
X162985000Y-123673072D01*
X168485000Y-123673072D01*
X168609482Y-123660812D01*
X168729180Y-123624502D01*
X168839494Y-123565537D01*
X168936185Y-123486185D01*
X169015537Y-123389494D01*
X169074502Y-123279180D01*
X169110812Y-123159482D01*
X169123072Y-123035000D01*
X169123072Y-119535000D01*
X169110812Y-119410518D01*
X169074502Y-119290820D01*
X169015537Y-119180506D01*
X168936185Y-119083815D01*
X168839494Y-119004463D01*
X168729180Y-118945498D01*
X168609482Y-118909188D01*
X168485000Y-118896928D01*
X166670000Y-118896928D01*
X166670000Y-110038725D01*
X166790134Y-109940134D01*
X166975706Y-109714014D01*
X167113599Y-109456034D01*
X167198513Y-109176110D01*
X167220000Y-108957949D01*
X167220000Y-108212050D01*
X167198513Y-107993889D01*
X167113599Y-107713966D01*
X166975706Y-107455986D01*
X166790134Y-107229866D01*
X166670000Y-107131275D01*
X166670000Y-101645924D01*
X166674523Y-101599999D01*
X166670000Y-101554074D01*
X166670000Y-101554068D01*
X166656471Y-101416708D01*
X166603007Y-101240460D01*
X166516186Y-101078028D01*
X166399344Y-100935656D01*
X166363664Y-100906374D01*
X164923575Y-99466286D01*
X164958513Y-99351111D01*
X164987185Y-99060000D01*
X164958513Y-98768889D01*
X164873599Y-98488966D01*
X164735706Y-98230986D01*
X164550134Y-98004866D01*
X164520313Y-97980393D01*
X164589180Y-97959502D01*
X164699494Y-97900537D01*
X164796185Y-97821185D01*
X164875537Y-97724494D01*
X164934502Y-97614180D01*
X164970812Y-97494482D01*
X164983072Y-97370000D01*
X164980000Y-96805750D01*
X164821250Y-96647000D01*
X163322000Y-96647000D01*
X163322000Y-96667000D01*
X163068000Y-96667000D01*
X163068000Y-96647000D01*
X161568750Y-96647000D01*
X161410000Y-96805750D01*
X161406928Y-97370000D01*
X161419188Y-97494482D01*
X161455498Y-97614180D01*
X161514463Y-97724494D01*
X161593815Y-97821185D01*
X161690506Y-97900537D01*
X161800820Y-97959502D01*
X161869687Y-97980393D01*
X161839866Y-98004866D01*
X161654294Y-98230986D01*
X161516401Y-98488966D01*
X161431487Y-98768889D01*
X161402815Y-99060000D01*
X134920000Y-99060000D01*
X134920000Y-95670000D01*
X161406928Y-95670000D01*
X161410000Y-96234250D01*
X161568750Y-96393000D01*
X163068000Y-96393000D01*
X163068000Y-95193750D01*
X163322000Y-95193750D01*
X163322000Y-96393000D01*
X164821250Y-96393000D01*
X164980000Y-96234250D01*
X164982908Y-95700000D01*
X166251928Y-95700000D01*
X166264188Y-95824482D01*
X166300498Y-95944180D01*
X166359463Y-96054494D01*
X166438815Y-96151185D01*
X166535506Y-96230537D01*
X166645820Y-96289502D01*
X166765518Y-96325812D01*
X166890000Y-96338072D01*
X167354250Y-96335000D01*
X167513000Y-96176250D01*
X167513000Y-95377000D01*
X167767000Y-95377000D01*
X167767000Y-96176250D01*
X167925750Y-96335000D01*
X168390000Y-96338072D01*
X168514482Y-96325812D01*
X168634180Y-96289502D01*
X168744494Y-96230537D01*
X168841185Y-96151185D01*
X168920537Y-96054494D01*
X168979502Y-95944180D01*
X169015812Y-95824482D01*
X169028072Y-95700000D01*
X169025000Y-95535750D01*
X168866250Y-95377000D01*
X167767000Y-95377000D01*
X167513000Y-95377000D01*
X166413750Y-95377000D01*
X166255000Y-95535750D01*
X166251928Y-95700000D01*
X164982908Y-95700000D01*
X164983072Y-95670000D01*
X164970812Y-95545518D01*
X164934502Y-95425820D01*
X164875537Y-95315506D01*
X164796185Y-95218815D01*
X164699494Y-95139463D01*
X164589180Y-95080498D01*
X164469482Y-95044188D01*
X164345000Y-95031928D01*
X163480750Y-95035000D01*
X163322000Y-95193750D01*
X163068000Y-95193750D01*
X162909250Y-95035000D01*
X162045000Y-95031928D01*
X161920518Y-95044188D01*
X161800820Y-95080498D01*
X161690506Y-95139463D01*
X161593815Y-95218815D01*
X161514463Y-95315506D01*
X161455498Y-95425820D01*
X161419188Y-95545518D01*
X161406928Y-95670000D01*
X134920000Y-95670000D01*
X134920000Y-89580931D01*
X134924524Y-89534999D01*
X134906471Y-89351707D01*
X134856347Y-89186471D01*
X134853007Y-89175460D01*
X134766186Y-89013028D01*
X134649344Y-88870656D01*
X134613664Y-88841374D01*
X133408630Y-87636341D01*
X133379344Y-87600656D01*
X133236972Y-87483814D01*
X133074540Y-87396993D01*
X132898292Y-87343529D01*
X132760932Y-87330000D01*
X132715000Y-87325476D01*
X132669068Y-87330000D01*
X129927290Y-87330000D01*
X126030000Y-83432711D01*
X126030000Y-74259264D01*
X126096101Y-74223932D01*
X126314608Y-74044608D01*
X126493932Y-73826101D01*
X126627182Y-73576808D01*
X126709236Y-73306309D01*
X126736943Y-73025000D01*
X126709236Y-72743691D01*
X126627182Y-72473192D01*
X126493932Y-72223899D01*
X126314608Y-72005392D01*
X126096101Y-71826068D01*
X125846808Y-71692818D01*
X125576309Y-71610764D01*
X125365492Y-71590000D01*
X124824508Y-71590000D01*
X124613691Y-71610764D01*
X124343192Y-71692818D01*
X124093899Y-71826068D01*
X123875392Y-72005392D01*
X123805956Y-72090000D01*
X122574044Y-72090000D01*
X122504608Y-72005392D01*
X122403009Y-71922012D01*
X122441972Y-71901186D01*
X122584344Y-71784344D01*
X122613630Y-71748659D01*
X123577290Y-70785000D01*
X123805956Y-70785000D01*
X123875392Y-70869608D01*
X124093899Y-71048932D01*
X124343192Y-71182182D01*
X124613691Y-71264236D01*
X124824508Y-71285000D01*
X125365492Y-71285000D01*
X125576309Y-71264236D01*
X125846808Y-71182182D01*
X126096101Y-71048932D01*
X126314608Y-70869608D01*
X126384044Y-70785000D01*
X127247711Y-70785000D01*
X127970000Y-71507290D01*
X127970001Y-73614058D01*
X127965476Y-73660000D01*
X127983529Y-73843291D01*
X128012184Y-73937752D01*
X128036994Y-74019540D01*
X128123815Y-74181972D01*
X128240657Y-74324344D01*
X128276336Y-74353625D01*
X130116370Y-76193659D01*
X130145656Y-76229344D01*
X130288028Y-76346186D01*
X130450460Y-76433007D01*
X130590413Y-76475461D01*
X130626708Y-76486471D01*
X130740598Y-76497688D01*
X130615987Y-76564294D01*
X130389866Y-76749866D01*
X130204294Y-76975986D01*
X130066401Y-77233966D01*
X129981487Y-77513889D01*
X129960000Y-77732050D01*
X129960000Y-78477949D01*
X129981487Y-78696110D01*
X130066401Y-78976033D01*
X130204294Y-79234013D01*
X130389866Y-79460134D01*
X130510000Y-79558726D01*
X130510001Y-81010115D01*
X130452393Y-81057392D01*
X130277817Y-81270113D01*
X130148096Y-81512805D01*
X130068214Y-81776140D01*
X130048000Y-81981375D01*
X130048000Y-83118624D01*
X130068214Y-83323859D01*
X130148096Y-83587194D01*
X130277817Y-83829886D01*
X130452392Y-84042607D01*
X130665113Y-84217183D01*
X130907805Y-84346904D01*
X131171140Y-84426786D01*
X131445000Y-84453759D01*
X131718859Y-84426786D01*
X131982194Y-84346904D01*
X132224886Y-84217183D01*
X132437607Y-84042608D01*
X132612183Y-83829887D01*
X132715000Y-83637529D01*
X132817817Y-83829886D01*
X132992392Y-84042607D01*
X133205113Y-84217183D01*
X133447805Y-84346904D01*
X133711140Y-84426786D01*
X133985000Y-84453759D01*
X134258859Y-84426786D01*
X134522194Y-84346904D01*
X134764886Y-84217183D01*
X134977607Y-84042608D01*
X135152183Y-83829887D01*
X135255000Y-83637529D01*
X135357817Y-83829886D01*
X135532392Y-84042607D01*
X135590001Y-84089885D01*
X135590000Y-87584068D01*
X135585476Y-87630000D01*
X135590000Y-87675931D01*
X135590001Y-90357703D01*
X135529774Y-90503102D01*
X135490000Y-90703061D01*
X135490000Y-90906939D01*
X135529774Y-91106898D01*
X135607795Y-91295256D01*
X135721063Y-91464774D01*
X135865226Y-91608937D01*
X136034744Y-91722205D01*
X136223102Y-91800226D01*
X136423061Y-91840000D01*
X136626939Y-91840000D01*
X136826898Y-91800226D01*
X137015256Y-91722205D01*
X137184774Y-91608937D01*
X137328937Y-91464774D01*
X137345490Y-91440000D01*
X146686241Y-91440000D01*
X146713214Y-91713860D01*
X146793096Y-91977195D01*
X146922817Y-92219887D01*
X147097392Y-92432608D01*
X147310113Y-92607183D01*
X147502471Y-92710000D01*
X147310113Y-92812817D01*
X147097392Y-92987392D01*
X146922817Y-93200113D01*
X146793096Y-93442805D01*
X146713214Y-93706140D01*
X146686241Y-93980000D01*
X146713214Y-94253860D01*
X146793096Y-94517195D01*
X146922817Y-94759887D01*
X147097392Y-94972608D01*
X147310113Y-95147183D01*
X147552805Y-95276904D01*
X147816140Y-95356786D01*
X148021375Y-95377000D01*
X149158625Y-95377000D01*
X149363860Y-95356786D01*
X149627195Y-95276904D01*
X149869887Y-95147183D01*
X150082608Y-94972608D01*
X150129885Y-94915000D01*
X150946275Y-94915000D01*
X151044866Y-95035134D01*
X151270986Y-95220706D01*
X151528966Y-95358599D01*
X151808889Y-95443513D01*
X152027050Y-95465000D01*
X152772950Y-95465000D01*
X152991111Y-95443513D01*
X153271034Y-95358599D01*
X153529014Y-95220706D01*
X153755134Y-95035134D01*
X153940706Y-94809014D01*
X154078599Y-94551034D01*
X154163513Y-94271111D01*
X154192185Y-93980000D01*
X154163513Y-93688889D01*
X154078599Y-93408966D01*
X153940706Y-93150986D01*
X153755134Y-92924866D01*
X153725313Y-92900393D01*
X153794180Y-92879502D01*
X153904494Y-92820537D01*
X154001185Y-92741185D01*
X154080537Y-92644494D01*
X154139502Y-92534180D01*
X154175812Y-92414482D01*
X154188072Y-92290000D01*
X154188072Y-90590000D01*
X154175812Y-90465518D01*
X154139502Y-90345820D01*
X154080537Y-90235506D01*
X154001185Y-90138815D01*
X153904494Y-90059463D01*
X153794180Y-90000498D01*
X153674482Y-89964188D01*
X153550000Y-89951928D01*
X151250000Y-89951928D01*
X151125518Y-89964188D01*
X151005820Y-90000498D01*
X150895506Y-90059463D01*
X150798815Y-90138815D01*
X150719463Y-90235506D01*
X150660498Y-90345820D01*
X150624188Y-90465518D01*
X150620299Y-90505000D01*
X150129885Y-90505000D01*
X150082608Y-90447392D01*
X149869887Y-90272817D01*
X149627195Y-90143096D01*
X149363860Y-90063214D01*
X149158625Y-90043000D01*
X148021375Y-90043000D01*
X147816140Y-90063214D01*
X147552805Y-90143096D01*
X147310113Y-90272817D01*
X147097392Y-90447392D01*
X146922817Y-90660113D01*
X146793096Y-90902805D01*
X146713214Y-91166140D01*
X146686241Y-91440000D01*
X137345490Y-91440000D01*
X137442205Y-91295256D01*
X137520226Y-91106898D01*
X137560000Y-90906939D01*
X137560000Y-90703061D01*
X137520226Y-90503102D01*
X137460000Y-90357705D01*
X137460000Y-89775451D01*
X137558243Y-89805253D01*
X137611707Y-89821471D01*
X137794999Y-89839524D01*
X137840931Y-89835000D01*
X160267711Y-89835000D01*
X165041370Y-94608659D01*
X165070656Y-94644344D01*
X165213028Y-94761186D01*
X165375460Y-94848007D01*
X165515413Y-94890461D01*
X165551708Y-94901471D01*
X165735000Y-94919524D01*
X165780932Y-94915000D01*
X166254079Y-94915000D01*
X166255000Y-94964250D01*
X166413750Y-95123000D01*
X167513000Y-95123000D01*
X167513000Y-95103000D01*
X167767000Y-95103000D01*
X167767000Y-95123000D01*
X168866250Y-95123000D01*
X169025000Y-94964250D01*
X169028072Y-94800000D01*
X169015812Y-94675518D01*
X168979502Y-94555820D01*
X168920993Y-94446360D01*
X168947259Y-94397220D01*
X169009300Y-94192697D01*
X169030249Y-93980000D01*
X169009300Y-93767303D01*
X168947259Y-93562780D01*
X168846509Y-93374290D01*
X168822471Y-93345000D01*
X168846509Y-93315710D01*
X168947259Y-93127220D01*
X169009300Y-92922697D01*
X169030249Y-92710000D01*
X169009300Y-92497303D01*
X168947259Y-92292780D01*
X168846509Y-92104290D01*
X168710922Y-91939078D01*
X168575000Y-91827529D01*
X168575000Y-88945932D01*
X168579524Y-88900000D01*
X168561471Y-88716708D01*
X168546390Y-88666993D01*
X168508007Y-88540460D01*
X168421186Y-88378028D01*
X168304344Y-88235656D01*
X168268660Y-88206371D01*
X166758631Y-86696342D01*
X166729345Y-86660657D01*
X166586973Y-86543815D01*
X166424541Y-86456994D01*
X166248293Y-86403530D01*
X166110933Y-86390001D01*
X166065001Y-86385477D01*
X166019069Y-86390001D01*
X151212291Y-86390001D01*
X150160000Y-85337711D01*
X150160000Y-84089885D01*
X150217607Y-84042608D01*
X150392183Y-83829887D01*
X150495000Y-83637529D01*
X150597817Y-83829886D01*
X150772392Y-84042607D01*
X150985113Y-84217183D01*
X151227805Y-84346904D01*
X151491140Y-84426786D01*
X151765000Y-84453759D01*
X152038859Y-84426786D01*
X152302194Y-84346904D01*
X152544886Y-84217183D01*
X152757607Y-84042608D01*
X152932183Y-83829887D01*
X153035000Y-83637529D01*
X153137817Y-83829886D01*
X153312392Y-84042607D01*
X153525113Y-84217183D01*
X153767805Y-84346904D01*
X154031140Y-84426786D01*
X154305000Y-84453759D01*
X154578859Y-84426786D01*
X154842194Y-84346904D01*
X155084886Y-84217183D01*
X155297607Y-84042608D01*
X155472183Y-83829887D01*
X155576038Y-83635587D01*
X155602941Y-83701942D01*
X155753994Y-83931729D01*
X155946974Y-84127632D01*
X156174465Y-84282122D01*
X156427724Y-84389262D01*
X156501930Y-84404220D01*
X156718000Y-84281720D01*
X156718000Y-82677000D01*
X156972000Y-82677000D01*
X156972000Y-84281720D01*
X157188070Y-84404220D01*
X157262276Y-84389262D01*
X157515535Y-84282122D01*
X157743026Y-84127632D01*
X157936006Y-83931729D01*
X158087059Y-83701942D01*
X158190381Y-83447101D01*
X158242000Y-83177000D01*
X158242000Y-82677000D01*
X156972000Y-82677000D01*
X156718000Y-82677000D01*
X156698000Y-82677000D01*
X156698000Y-82423000D01*
X156718000Y-82423000D01*
X156718000Y-80818280D01*
X156972000Y-80818280D01*
X156972000Y-82423000D01*
X158242000Y-82423000D01*
X158242000Y-81923000D01*
X158190381Y-81652899D01*
X158087059Y-81398058D01*
X157936006Y-81168271D01*
X157743026Y-80972368D01*
X157515535Y-80817878D01*
X157262276Y-80710738D01*
X157188070Y-80695780D01*
X156972000Y-80818280D01*
X156718000Y-80818280D01*
X156501930Y-80695780D01*
X156427724Y-80710738D01*
X156174465Y-80817878D01*
X155946974Y-80972368D01*
X155753994Y-81168271D01*
X155602941Y-81398058D01*
X155576038Y-81464413D01*
X155472183Y-81270113D01*
X155297608Y-81057392D01*
X155240000Y-81010115D01*
X155240000Y-79558725D01*
X155360134Y-79460134D01*
X155384607Y-79430313D01*
X155405498Y-79499180D01*
X155464463Y-79609494D01*
X155543815Y-79706185D01*
X155640506Y-79785537D01*
X155750820Y-79844502D01*
X155870518Y-79880812D01*
X155995000Y-79893072D01*
X156559250Y-79890000D01*
X156718000Y-79731250D01*
X156718000Y-78232000D01*
X156972000Y-78232000D01*
X156972000Y-79731250D01*
X157130750Y-79890000D01*
X157695000Y-79893072D01*
X157819482Y-79880812D01*
X157939180Y-79844502D01*
X158049494Y-79785537D01*
X158146185Y-79706185D01*
X158225537Y-79609494D01*
X158284502Y-79499180D01*
X158320812Y-79379482D01*
X158333072Y-79255000D01*
X158330000Y-78390750D01*
X158171250Y-78232000D01*
X156972000Y-78232000D01*
X156718000Y-78232000D01*
X156698000Y-78232000D01*
X156698000Y-77978000D01*
X156718000Y-77978000D01*
X156718000Y-76478750D01*
X156972000Y-76478750D01*
X156972000Y-77978000D01*
X158171250Y-77978000D01*
X158330000Y-77819250D01*
X158333072Y-76955000D01*
X158320812Y-76830518D01*
X158284502Y-76710820D01*
X158225537Y-76600506D01*
X158146185Y-76503815D01*
X158049494Y-76424463D01*
X157939180Y-76365498D01*
X157819482Y-76329188D01*
X157695000Y-76316928D01*
X157130750Y-76320000D01*
X156972000Y-76478750D01*
X156718000Y-76478750D01*
X156559250Y-76320000D01*
X155995000Y-76316928D01*
X155870518Y-76329188D01*
X155750820Y-76365498D01*
X155640506Y-76424463D01*
X155543815Y-76503815D01*
X155464463Y-76600506D01*
X155405498Y-76710820D01*
X155384607Y-76779687D01*
X155360134Y-76749866D01*
X155240000Y-76651275D01*
X155240000Y-73893072D01*
X155805000Y-73893072D01*
X155929482Y-73880812D01*
X156049180Y-73844502D01*
X156159494Y-73785537D01*
X156256185Y-73706185D01*
X156335537Y-73609494D01*
X156394502Y-73499180D01*
X156430812Y-73379482D01*
X156443072Y-73255000D01*
X156443072Y-73246653D01*
X158072952Y-73246653D01*
X158228962Y-73562214D01*
X158603745Y-73753020D01*
X159008551Y-73867044D01*
X159427824Y-73899902D01*
X159845451Y-73850334D01*
X160245383Y-73720243D01*
X160541038Y-73562214D01*
X160697048Y-73246653D01*
X159385000Y-71934605D01*
X158072952Y-73246653D01*
X156443072Y-73246653D01*
X156443072Y-71797824D01*
X157240098Y-71797824D01*
X157289666Y-72215451D01*
X157419757Y-72615383D01*
X157577786Y-72911038D01*
X157893347Y-73067048D01*
X159205395Y-71755000D01*
X159564605Y-71755000D01*
X160876653Y-73067048D01*
X161192214Y-72911038D01*
X161383020Y-72536255D01*
X161497044Y-72131449D01*
X161529902Y-71712176D01*
X161480334Y-71294549D01*
X161350243Y-70894617D01*
X161192214Y-70598962D01*
X160876653Y-70442952D01*
X159564605Y-71755000D01*
X159205395Y-71755000D01*
X157893347Y-70442952D01*
X157577786Y-70598962D01*
X157386980Y-70973745D01*
X157272956Y-71378551D01*
X157240098Y-71797824D01*
X156443072Y-71797824D01*
X156443072Y-70263347D01*
X158072952Y-70263347D01*
X159385000Y-71575395D01*
X160697048Y-70263347D01*
X160541038Y-69947786D01*
X160166255Y-69756980D01*
X159761449Y-69642956D01*
X159594496Y-69629872D01*
X164135000Y-69629872D01*
X164135000Y-70070128D01*
X164220890Y-70501925D01*
X164389369Y-70908669D01*
X164633962Y-71274729D01*
X164945271Y-71586038D01*
X165311331Y-71830631D01*
X165718075Y-71999110D01*
X166149872Y-72085000D01*
X166590128Y-72085000D01*
X167021925Y-71999110D01*
X167428669Y-71830631D01*
X167794729Y-71586038D01*
X168106038Y-71274729D01*
X168350631Y-70908669D01*
X168519110Y-70501925D01*
X168605000Y-70070128D01*
X168605000Y-69629872D01*
X168519110Y-69198075D01*
X168350631Y-68791331D01*
X168106038Y-68425271D01*
X167794729Y-68113962D01*
X167428669Y-67869369D01*
X167021925Y-67700890D01*
X166590128Y-67615000D01*
X166149872Y-67615000D01*
X165718075Y-67700890D01*
X165311331Y-67869369D01*
X164945271Y-68113962D01*
X164633962Y-68425271D01*
X164389369Y-68791331D01*
X164220890Y-69198075D01*
X164135000Y-69629872D01*
X159594496Y-69629872D01*
X159342176Y-69610098D01*
X158924549Y-69659666D01*
X158524617Y-69789757D01*
X158228962Y-69947786D01*
X158072952Y-70263347D01*
X156443072Y-70263347D01*
X156443072Y-70255000D01*
X156430812Y-70130518D01*
X156394502Y-70010820D01*
X156335537Y-69900506D01*
X156256185Y-69803815D01*
X156159494Y-69724463D01*
X156049180Y-69665498D01*
X155929482Y-69629188D01*
X155805000Y-69616928D01*
X152805000Y-69616928D01*
X152680518Y-69629188D01*
X152560820Y-69665498D01*
X152450506Y-69724463D01*
X152353815Y-69803815D01*
X152274463Y-69900506D01*
X152215498Y-70010820D01*
X152179188Y-70130518D01*
X152166928Y-70255000D01*
X152166928Y-73255000D01*
X152179188Y-73379482D01*
X152215498Y-73499180D01*
X152274463Y-73609494D01*
X152353815Y-73706185D01*
X152450506Y-73785537D01*
X152560820Y-73844502D01*
X152680518Y-73880812D01*
X152805000Y-73893072D01*
X153370000Y-73893072D01*
X153370001Y-76651274D01*
X153249866Y-76749866D01*
X153064294Y-76975986D01*
X153035000Y-77030791D01*
X153005706Y-76975986D01*
X152820134Y-76749866D01*
X152700000Y-76651275D01*
X152700000Y-76245935D01*
X152704524Y-76200000D01*
X152686472Y-76016708D01*
X152633007Y-75840459D01*
X152602765Y-75783880D01*
X152546186Y-75678028D01*
X152429344Y-75535656D01*
X152393660Y-75506371D01*
X152065000Y-75177711D01*
X152065000Y-69260932D01*
X152069524Y-69215000D01*
X152051471Y-69031708D01*
X152016068Y-68915000D01*
X151998007Y-68855460D01*
X151911186Y-68693028D01*
X151794344Y-68550656D01*
X151758660Y-68521371D01*
X149937289Y-66700000D01*
X169520000Y-66700000D01*
X169520001Y-131420000D01*
G37*
X169520001Y-131420000D02*
X89560000Y-131420000D01*
X89560000Y-121783003D01*
X90402573Y-121783003D01*
X90482947Y-122080368D01*
X90681388Y-122504439D01*
X90958748Y-122881648D01*
X91304369Y-123197498D01*
X91704968Y-123439852D01*
X92145150Y-123599396D01*
X92608000Y-123670000D01*
X93608000Y-123670000D01*
X93608000Y-121412000D01*
X93862000Y-121412000D01*
X93862000Y-123670000D01*
X94862000Y-123670000D01*
X95324850Y-123599396D01*
X95765032Y-123439852D01*
X96165631Y-123197498D01*
X96511252Y-122881648D01*
X96788612Y-122504439D01*
X96987053Y-122080368D01*
X97067427Y-121783003D01*
X96957625Y-121412000D01*
X93862000Y-121412000D01*
X93608000Y-121412000D01*
X90512375Y-121412000D01*
X90402573Y-121783003D01*
X89560000Y-121783003D01*
X89560000Y-120786997D01*
X90402573Y-120786997D01*
X90512375Y-121158000D01*
X93608000Y-121158000D01*
X93608000Y-118900000D01*
X93862000Y-118900000D01*
X93862000Y-121158000D01*
X96957625Y-121158000D01*
X96985187Y-121064872D01*
X99245000Y-121064872D01*
X99245000Y-121505128D01*
X99330890Y-121936925D01*
X99499369Y-122343669D01*
X99743962Y-122709729D01*
X100055271Y-123021038D01*
X100421331Y-123265631D01*
X100828075Y-123434110D01*
X101259872Y-123520000D01*
X101820128Y-123520000D01*
X102251925Y-123434110D01*
X102658669Y-123265631D01*
X103024729Y-123021038D01*
X103336038Y-122709729D01*
X103580631Y-122343669D01*
X103749110Y-121936925D01*
X103835000Y-121505128D01*
X103835000Y-121064872D01*
X154610000Y-121064872D01*
X154610000Y-121505128D01*
X154695890Y-121936925D01*
X154864369Y-122343669D01*
X155108962Y-122709729D01*
X155420271Y-123021038D01*
X155786331Y-123265631D01*
X156193075Y-123434110D01*
X156624872Y-123520000D01*
X157310128Y-123520000D01*
X157741925Y-123434110D01*
X158148669Y-123265631D01*
X158514729Y-123021038D01*
X158826038Y-122709729D01*
X159070631Y-122343669D01*
X159239110Y-121936925D01*
X159325000Y-121505128D01*
X159325000Y-121064872D01*
X159239110Y-120633075D01*
X159070631Y-120226331D01*
X158826038Y-119860271D01*
X158514729Y-119548962D01*
X158148669Y-119304369D01*
X157741925Y-119135890D01*
X157310128Y-119050000D01*
X156624872Y-119050000D01*
X156193075Y-119135890D01*
X155786331Y-119304369D01*
X155420271Y-119548962D01*
X155108962Y-119860271D01*
X154864369Y-120226331D01*
X154695890Y-120633075D01*
X154610000Y-121064872D01*
X103835000Y-121064872D01*
X103749110Y-120633075D01*
X103580631Y-120226331D01*
X103336038Y-119860271D01*
X103024729Y-119548962D01*
X102658669Y-119304369D01*
X102251925Y-119135890D01*
X101820128Y-119050000D01*
X101259872Y-119050000D01*
X100828075Y-119135890D01*
X100421331Y-119304369D01*
X100055271Y-119548962D01*
X99743962Y-119860271D01*
X99499369Y-120226331D01*
X99330890Y-120633075D01*
X99245000Y-121064872D01*
X96985187Y-121064872D01*
X97067427Y-120786997D01*
X96987053Y-120489632D01*
X96788612Y-120065561D01*
X96511252Y-119688352D01*
X96165631Y-119372502D01*
X95765032Y-119130148D01*
X95324850Y-118970604D01*
X94862000Y-118900000D01*
X93862000Y-118900000D01*
X93608000Y-118900000D01*
X92608000Y-118900000D01*
X92145150Y-118970604D01*
X91704968Y-119130148D01*
X91304369Y-119372502D01*
X90958748Y-119688352D01*
X90681388Y-120065561D01*
X90482947Y-120489632D01*
X90402573Y-120786997D01*
X89560000Y-120786997D01*
X89560000Y-109435000D01*
X90921928Y-109435000D01*
X90934188Y-109559482D01*
X90970498Y-109679180D01*
X91029463Y-109789494D01*
X91108815Y-109886185D01*
X91205506Y-109965537D01*
X91315820Y-110024502D01*
X91435518Y-110060812D01*
X91560000Y-110073072D01*
X92424250Y-110070000D01*
X92583000Y-109911250D01*
X92583000Y-108712000D01*
X92837000Y-108712000D01*
X92837000Y-109911250D01*
X92995750Y-110070000D01*
X93860000Y-110073072D01*
X93984482Y-110060812D01*
X94104180Y-110024502D01*
X94214494Y-109965537D01*
X94311185Y-109886185D01*
X94390537Y-109789494D01*
X94449502Y-109679180D01*
X94485812Y-109559482D01*
X94498072Y-109435000D01*
X94495000Y-108870750D01*
X94336250Y-108712000D01*
X92837000Y-108712000D01*
X92583000Y-108712000D01*
X91083750Y-108712000D01*
X90925000Y-108870750D01*
X90921928Y-109435000D01*
X89560000Y-109435000D01*
X89560000Y-101042289D01*
X90111370Y-101593659D01*
X90140656Y-101629344D01*
X90283028Y-101746186D01*
X90372509Y-101794014D01*
X90445459Y-101833007D01*
X90621708Y-101886472D01*
X90805000Y-101904524D01*
X90850935Y-101900000D01*
X91256275Y-101900000D01*
X91354866Y-102020134D01*
X91580986Y-102205706D01*
X91635791Y-102235000D01*
X91580986Y-102264294D01*
X91354866Y-102449866D01*
X91169294Y-102675986D01*
X91031401Y-102933966D01*
X90946487Y-103213889D01*
X90917815Y-103505000D01*
X90946487Y-103796111D01*
X91031401Y-104076034D01*
X91169294Y-104334014D01*
X91354866Y-104560134D01*
X91580986Y-104745706D01*
X91635791Y-104775000D01*
X91580986Y-104804294D01*
X91354866Y-104989866D01*
X91169294Y-105215986D01*
X91031401Y-105473966D01*
X90946487Y-105753889D01*
X90917815Y-106045000D01*
X90946487Y-106336111D01*
X91031401Y-106616034D01*
X91169294Y-106874014D01*
X91354866Y-107100134D01*
X91384687Y-107124607D01*
X91315820Y-107145498D01*
X91205506Y-107204463D01*
X91108815Y-107283815D01*
X91029463Y-107380506D01*
X90970498Y-107490820D01*
X90934188Y-107610518D01*
X90921928Y-107735000D01*
X90925000Y-108299250D01*
X91083750Y-108458000D01*
X92583000Y-108458000D01*
X92583000Y-108438000D01*
X92837000Y-108438000D01*
X92837000Y-108458000D01*
X94336250Y-108458000D01*
X94495000Y-108299250D01*
X94498072Y-107735000D01*
X94485812Y-107610518D01*
X94449502Y-107490820D01*
X94390537Y-107380506D01*
X94311185Y-107283815D01*
X94214494Y-107204463D01*
X94104180Y-107145498D01*
X94035313Y-107124607D01*
X94065134Y-107100134D01*
X94163725Y-106980000D01*
X94227711Y-106980000D01*
X94950001Y-107702291D01*
X94950000Y-112984068D01*
X94945476Y-113030000D01*
X94950000Y-113075931D01*
X94963529Y-113213291D01*
X95016993Y-113389539D01*
X95103814Y-113551971D01*
X95220656Y-113694344D01*
X95256341Y-113723630D01*
X96461374Y-114928664D01*
X96490656Y-114964344D01*
X96633028Y-115081186D01*
X96795460Y-115168007D01*
X96918243Y-115205253D01*
X96971707Y-115221471D01*
X97154999Y-115239524D01*
X97200931Y-115235000D01*
X133939068Y-115235000D01*
X133985000Y-115239524D01*
X134030932Y-115235000D01*
X134168292Y-115221471D01*
X134344540Y-115168007D01*
X134506972Y-115081186D01*
X134649344Y-114964344D01*
X134678630Y-114928659D01*
X137153664Y-112453626D01*
X137189344Y-112424344D01*
X137306186Y-112281972D01*
X137393007Y-112119540D01*
X137446471Y-111943292D01*
X137460000Y-111805932D01*
X137460000Y-111805926D01*
X137464523Y-111760001D01*
X137460000Y-111714076D01*
X137460000Y-110038725D01*
X137580134Y-109940134D01*
X137765706Y-109714014D01*
X137795000Y-109659208D01*
X137824294Y-109714013D01*
X138009866Y-109940134D01*
X138235986Y-110125706D01*
X138493966Y-110263599D01*
X138773889Y-110348513D01*
X139065000Y-110377185D01*
X139356110Y-110348513D01*
X139636033Y-110263599D01*
X139894013Y-110125706D01*
X140120134Y-109940134D01*
X140305706Y-109714014D01*
X140335000Y-109659208D01*
X140364294Y-109714013D01*
X140549866Y-109940134D01*
X140775986Y-110125706D01*
X141033966Y-110263599D01*
X141313889Y-110348513D01*
X141605000Y-110377185D01*
X141896110Y-110348513D01*
X142176033Y-110263599D01*
X142434013Y-110125706D01*
X142660134Y-109940134D01*
X142845706Y-109714014D01*
X142875000Y-109659208D01*
X142904294Y-109714013D01*
X143089866Y-109940134D01*
X143315986Y-110125706D01*
X143573966Y-110263599D01*
X143853889Y-110348513D01*
X144145000Y-110377185D01*
X144436110Y-110348513D01*
X144716033Y-110263599D01*
X144974013Y-110125706D01*
X145200134Y-109940134D01*
X145385706Y-109714014D01*
X145415000Y-109659208D01*
X145444294Y-109714013D01*
X145629866Y-109940134D01*
X145855986Y-110125706D01*
X146113966Y-110263599D01*
X146393889Y-110348513D01*
X146685000Y-110377185D01*
X146976110Y-110348513D01*
X147256033Y-110263599D01*
X147514013Y-110125706D01*
X147740134Y-109940134D01*
X147925706Y-109714014D01*
X147955000Y-109659208D01*
X147984294Y-109714013D01*
X148169866Y-109940134D01*
X148395986Y-110125706D01*
X148653966Y-110263599D01*
X148933889Y-110348513D01*
X149225000Y-110377185D01*
X149516110Y-110348513D01*
X149796033Y-110263599D01*
X150054013Y-110125706D01*
X150280134Y-109940134D01*
X150465706Y-109714014D01*
X150495000Y-109659208D01*
X150524294Y-109714013D01*
X150709866Y-109940134D01*
X150935986Y-110125706D01*
X151193966Y-110263599D01*
X151473889Y-110348513D01*
X151765000Y-110377185D01*
X152056110Y-110348513D01*
X152336033Y-110263599D01*
X152594013Y-110125706D01*
X152820134Y-109940134D01*
X153005706Y-109714014D01*
X153035000Y-109659208D01*
X153064294Y-109714013D01*
X153249866Y-109940134D01*
X153475986Y-110125706D01*
X153733966Y-110263599D01*
X154013889Y-110348513D01*
X154305000Y-110377185D01*
X154596110Y-110348513D01*
X154876033Y-110263599D01*
X155134013Y-110125706D01*
X155360134Y-109940134D01*
X155384607Y-109910313D01*
X155405498Y-109979180D01*
X155464463Y-110089494D01*
X155543815Y-110186185D01*
X155640506Y-110265537D01*
X155750820Y-110324502D01*
X155870518Y-110360812D01*
X155995000Y-110373072D01*
X156559250Y-110370000D01*
X156718000Y-110211250D01*
X156718000Y-108712000D01*
X156972000Y-108712000D01*
X156972000Y-110211250D01*
X157130750Y-110370000D01*
X157695000Y-110373072D01*
X157819482Y-110360812D01*
X157939180Y-110324502D01*
X158049494Y-110265537D01*
X158146185Y-110186185D01*
X158225537Y-110089494D01*
X158284502Y-109979180D01*
X158320812Y-109859482D01*
X158333072Y-109735000D01*
X161706928Y-109735000D01*
X161719188Y-109859482D01*
X161755498Y-109979180D01*
X161814463Y-110089494D01*
X161893815Y-110186185D01*
X161990506Y-110265537D01*
X162100820Y-110324502D01*
X162220518Y-110360812D01*
X162345000Y-110373072D01*
X162909250Y-110370000D01*
X163068000Y-110211250D01*
X163068000Y-108712000D01*
X161868750Y-108712000D01*
X161710000Y-108870750D01*
X161706928Y-109735000D01*
X158333072Y-109735000D01*
X158330000Y-108870750D01*
X158171250Y-108712000D01*
X156972000Y-108712000D01*
X156718000Y-108712000D01*
X156698000Y-108712000D01*
X156698000Y-108458000D01*
X156718000Y-108458000D01*
X156718000Y-106958750D01*
X156972000Y-106958750D01*
X156972000Y-108458000D01*
X158171250Y-108458000D01*
X158330000Y-108299250D01*
X158333072Y-107435000D01*
X161706928Y-107435000D01*
X161710000Y-108299250D01*
X161868750Y-108458000D01*
X163068000Y-108458000D01*
X163068000Y-106958750D01*
X162909250Y-106800000D01*
X162345000Y-106796928D01*
X162220518Y-106809188D01*
X162100820Y-106845498D01*
X161990506Y-106904463D01*
X161893815Y-106983815D01*
X161814463Y-107080506D01*
X161755498Y-107190820D01*
X161719188Y-107310518D01*
X161706928Y-107435000D01*
X158333072Y-107435000D01*
X158320812Y-107310518D01*
X158284502Y-107190820D01*
X158225537Y-107080506D01*
X158146185Y-106983815D01*
X158049494Y-106904463D01*
X157939180Y-106845498D01*
X157819482Y-106809188D01*
X157695000Y-106796928D01*
X157130750Y-106800000D01*
X156972000Y-106958750D01*
X156718000Y-106958750D01*
X156559250Y-106800000D01*
X155995000Y-106796928D01*
X155870518Y-106809188D01*
X155750820Y-106845498D01*
X155640506Y-106904463D01*
X155543815Y-106983815D01*
X155464463Y-107080506D01*
X155405498Y-107190820D01*
X155384607Y-107259687D01*
X155360134Y-107229866D01*
X155240000Y-107131275D01*
X155240000Y-104409885D01*
X155297607Y-104362608D01*
X155472183Y-104149887D01*
X155576038Y-103955587D01*
X155602941Y-104021942D01*
X155753994Y-104251729D01*
X155946974Y-104447632D01*
X156174465Y-104602122D01*
X156427724Y-104709262D01*
X156501930Y-104724220D01*
X156718000Y-104601720D01*
X156718000Y-102997000D01*
X156972000Y-102997000D01*
X156972000Y-104601720D01*
X157188070Y-104724220D01*
X157262276Y-104709262D01*
X157515535Y-104602122D01*
X157743026Y-104447632D01*
X157936006Y-104251729D01*
X158087059Y-104021942D01*
X158190381Y-103767101D01*
X158242000Y-103497000D01*
X158242000Y-102997000D01*
X156972000Y-102997000D01*
X156718000Y-102997000D01*
X156698000Y-102997000D01*
X156698000Y-102743000D01*
X156718000Y-102743000D01*
X156718000Y-101138280D01*
X156972000Y-101138280D01*
X156972000Y-102743000D01*
X158242000Y-102743000D01*
X158242000Y-102243000D01*
X158190381Y-101972899D01*
X158087059Y-101718058D01*
X157936006Y-101488271D01*
X157743026Y-101292368D01*
X157515535Y-101137878D01*
X157262276Y-101030738D01*
X157188070Y-101015780D01*
X156972000Y-101138280D01*
X156718000Y-101138280D01*
X156501930Y-101015780D01*
X156427724Y-101030738D01*
X156174465Y-101137878D01*
X155946974Y-101292368D01*
X155753994Y-101488271D01*
X155602941Y-101718058D01*
X155576038Y-101784413D01*
X155472183Y-101590113D01*
X155297608Y-101377392D01*
X155084887Y-101202817D01*
X154842195Y-101073096D01*
X154578860Y-100993214D01*
X154305000Y-100966241D01*
X154031141Y-100993214D01*
X153767806Y-101073096D01*
X153525114Y-101202817D01*
X153312393Y-101377392D01*
X153137817Y-101590113D01*
X153035000Y-101782471D01*
X152932183Y-101590113D01*
X152757608Y-101377392D01*
X152544887Y-101202817D01*
X152302195Y-101073096D01*
X152038860Y-100993214D01*
X151765000Y-100966241D01*
X151491141Y-100993214D01*
X151227806Y-101073096D01*
X150985114Y-101202817D01*
X150772393Y-101377392D01*
X150597817Y-101590113D01*
X150495000Y-101782471D01*
X150392183Y-101590113D01*
X150217608Y-101377392D01*
X150004887Y-101202817D01*
X149762195Y-101073096D01*
X149498860Y-100993214D01*
X149225000Y-100966241D01*
X148951141Y-100993214D01*
X148687806Y-101073096D01*
X148445114Y-101202817D01*
X148232393Y-101377392D01*
X148057817Y-101590113D01*
X147955000Y-101782471D01*
X147852183Y-101590113D01*
X147677608Y-101377392D01*
X147464887Y-101202817D01*
X147222195Y-101073096D01*
X146958860Y-100993214D01*
X146685000Y-100966241D01*
X146411141Y-100993214D01*
X146147806Y-101073096D01*
X145905114Y-101202817D01*
X145692393Y-101377392D01*
X145517817Y-101590113D01*
X145415000Y-101782471D01*
X145312183Y-101590113D01*
X145137608Y-101377392D01*
X144924887Y-101202817D01*
X144682195Y-101073096D01*
X144418860Y-100993214D01*
X144145000Y-100966241D01*
X143871141Y-100993214D01*
X143607806Y-101073096D01*
X143365114Y-101202817D01*
X143152393Y-101377392D01*
X142977817Y-101590113D01*
X142875000Y-101782471D01*
X142772183Y-101590113D01*
X142597608Y-101377392D01*
X142384887Y-101202817D01*
X142142195Y-101073096D01*
X141878860Y-100993214D01*
X141605000Y-100966241D01*
X141331141Y-100993214D01*
X141067806Y-101073096D01*
X140825114Y-101202817D01*
X140612393Y-101377392D01*
X140437817Y-101590113D01*
X140335000Y-101782471D01*
X140232183Y-101590113D01*
X140057608Y-101377392D01*
X139844887Y-101202817D01*
X139602195Y-101073096D01*
X139338860Y-100993214D01*
X139065000Y-100966241D01*
X138791141Y-100993214D01*
X138527806Y-101073096D01*
X138285114Y-101202817D01*
X138072393Y-101377392D01*
X137897817Y-101590113D01*
X137795000Y-101782471D01*
X137692183Y-101590113D01*
X137517608Y-101377392D01*
X137304887Y-101202817D01*
X137062195Y-101073096D01*
X136798860Y-100993214D01*
X136525000Y-100966241D01*
X136251141Y-100993214D01*
X135987806Y-101073096D01*
X135745114Y-101202817D01*
X135532393Y-101377392D01*
X135357817Y-101590113D01*
X135255000Y-101782471D01*
X135152183Y-101590113D01*
X134977608Y-101377392D01*
X134920000Y-101330115D01*
X134920000Y-99060000D01*
X161402815Y-99060000D01*
X161431487Y-99351111D01*
X161516401Y-99631034D01*
X161654294Y-99889014D01*
X161839866Y-100115134D01*
X162065986Y-100300706D01*
X162323966Y-100438599D01*
X162603889Y-100523513D01*
X162822050Y-100545000D01*
X163357711Y-100545000D01*
X164800001Y-101987291D01*
X164800000Y-107131274D01*
X164679866Y-107229866D01*
X164655393Y-107259687D01*
X164634502Y-107190820D01*
X164575537Y-107080506D01*
X164496185Y-106983815D01*
X164399494Y-106904463D01*
X164289180Y-106845498D01*
X164169482Y-106809188D01*
X164045000Y-106796928D01*
X163480750Y-106800000D01*
X163322000Y-106958750D01*
X163322000Y-108458000D01*
X163342000Y-108458000D01*
X163342000Y-108712000D01*
X163322000Y-108712000D01*
X163322000Y-110211250D01*
X163480750Y-110370000D01*
X164045000Y-110373072D01*
X164169482Y-110360812D01*
X164289180Y-110324502D01*
X164399494Y-110265537D01*
X164496185Y-110186185D01*
X164575537Y-110089494D01*
X164634502Y-109979180D01*
X164655393Y-109910313D01*
X164679866Y-109940134D01*
X164800001Y-110038726D01*
X164800000Y-118896928D01*
X162985000Y-118896928D01*
X162860518Y-118909188D01*
X162740820Y-118945498D01*
X162630506Y-119004463D01*
X162533815Y-119083815D01*
X162454463Y-119180506D01*
X162395498Y-119290820D01*
X162359188Y-119410518D01*
X162346928Y-119535000D01*
X162346928Y-123035000D01*
X162359188Y-123159482D01*
X162395498Y-123279180D01*
X162454463Y-123389494D01*
X162533815Y-123486185D01*
X162630506Y-123565537D01*
X162740820Y-123624502D01*
X162860518Y-123660812D01*
X162985000Y-123673072D01*
X168485000Y-123673072D01*
X168609482Y-123660812D01*
X168729180Y-123624502D01*
X168839494Y-123565537D01*
X168936185Y-123486185D01*
X169015537Y-123389494D01*
X169074502Y-123279180D01*
X169110812Y-123159482D01*
X169123072Y-123035000D01*
X169123072Y-119535000D01*
X169110812Y-119410518D01*
X169074502Y-119290820D01*
X169015537Y-119180506D01*
X168936185Y-119083815D01*
X168839494Y-119004463D01*
X168729180Y-118945498D01*
X168609482Y-118909188D01*
X168485000Y-118896928D01*
X166670000Y-118896928D01*
X166670000Y-110038725D01*
X166790134Y-109940134D01*
X166975706Y-109714014D01*
X167113599Y-109456034D01*
X167198513Y-109176110D01*
X167220000Y-108957949D01*
X167220000Y-108212050D01*
X167198513Y-107993889D01*
X167113599Y-107713966D01*
X166975706Y-107455986D01*
X166790134Y-107229866D01*
X166670000Y-107131275D01*
X166670000Y-101645924D01*
X166674523Y-101599999D01*
X166670000Y-101554074D01*
X166670000Y-101554068D01*
X166656471Y-101416708D01*
X166603007Y-101240460D01*
X166516186Y-101078028D01*
X166399344Y-100935656D01*
X166363664Y-100906374D01*
X164923575Y-99466286D01*
X164958513Y-99351111D01*
X164987185Y-99060000D01*
X164958513Y-98768889D01*
X164873599Y-98488966D01*
X164735706Y-98230986D01*
X164550134Y-98004866D01*
X164520313Y-97980393D01*
X164589180Y-97959502D01*
X164699494Y-97900537D01*
X164796185Y-97821185D01*
X164875537Y-97724494D01*
X164934502Y-97614180D01*
X164970812Y-97494482D01*
X164983072Y-97370000D01*
X164980000Y-96805750D01*
X164821250Y-96647000D01*
X163322000Y-96647000D01*
X163322000Y-96667000D01*
X163068000Y-96667000D01*
X163068000Y-96647000D01*
X161568750Y-96647000D01*
X161410000Y-96805750D01*
X161406928Y-97370000D01*
X161419188Y-97494482D01*
X161455498Y-97614180D01*
X161514463Y-97724494D01*
X161593815Y-97821185D01*
X161690506Y-97900537D01*
X161800820Y-97959502D01*
X161869687Y-97980393D01*
X161839866Y-98004866D01*
X161654294Y-98230986D01*
X161516401Y-98488966D01*
X161431487Y-98768889D01*
X161402815Y-99060000D01*
X134920000Y-99060000D01*
X134920000Y-95670000D01*
X161406928Y-95670000D01*
X161410000Y-96234250D01*
X161568750Y-96393000D01*
X163068000Y-96393000D01*
X163068000Y-95193750D01*
X163322000Y-95193750D01*
X163322000Y-96393000D01*
X164821250Y-96393000D01*
X164980000Y-96234250D01*
X164982908Y-95700000D01*
X166251928Y-95700000D01*
X166264188Y-95824482D01*
X166300498Y-95944180D01*
X166359463Y-96054494D01*
X166438815Y-96151185D01*
X166535506Y-96230537D01*
X166645820Y-96289502D01*
X166765518Y-96325812D01*
X166890000Y-96338072D01*
X167354250Y-96335000D01*
X167513000Y-96176250D01*
X167513000Y-95377000D01*
X167767000Y-95377000D01*
X167767000Y-96176250D01*
X167925750Y-96335000D01*
X168390000Y-96338072D01*
X168514482Y-96325812D01*
X168634180Y-96289502D01*
X168744494Y-96230537D01*
X168841185Y-96151185D01*
X168920537Y-96054494D01*
X168979502Y-95944180D01*
X169015812Y-95824482D01*
X169028072Y-95700000D01*
X169025000Y-95535750D01*
X168866250Y-95377000D01*
X167767000Y-95377000D01*
X167513000Y-95377000D01*
X166413750Y-95377000D01*
X166255000Y-95535750D01*
X166251928Y-95700000D01*
X164982908Y-95700000D01*
X164983072Y-95670000D01*
X164970812Y-95545518D01*
X164934502Y-95425820D01*
X164875537Y-95315506D01*
X164796185Y-95218815D01*
X164699494Y-95139463D01*
X164589180Y-95080498D01*
X164469482Y-95044188D01*
X164345000Y-95031928D01*
X163480750Y-95035000D01*
X163322000Y-95193750D01*
X163068000Y-95193750D01*
X162909250Y-95035000D01*
X162045000Y-95031928D01*
X161920518Y-95044188D01*
X161800820Y-95080498D01*
X161690506Y-95139463D01*
X161593815Y-95218815D01*
X161514463Y-95315506D01*
X161455498Y-95425820D01*
X161419188Y-95545518D01*
X161406928Y-95670000D01*
X134920000Y-95670000D01*
X134920000Y-89580931D01*
X134924524Y-89534999D01*
X134906471Y-89351707D01*
X134856347Y-89186471D01*
X134853007Y-89175460D01*
X134766186Y-89013028D01*
X134649344Y-88870656D01*
X134613664Y-88841374D01*
X133408630Y-87636341D01*
X133379344Y-87600656D01*
X133236972Y-87483814D01*
X133074540Y-87396993D01*
X132898292Y-87343529D01*
X132760932Y-87330000D01*
X132715000Y-87325476D01*
X132669068Y-87330000D01*
X129927290Y-87330000D01*
X126030000Y-83432711D01*
X126030000Y-74259264D01*
X126096101Y-74223932D01*
X126314608Y-74044608D01*
X126493932Y-73826101D01*
X126627182Y-73576808D01*
X126709236Y-73306309D01*
X126736943Y-73025000D01*
X126709236Y-72743691D01*
X126627182Y-72473192D01*
X126493932Y-72223899D01*
X126314608Y-72005392D01*
X126096101Y-71826068D01*
X125846808Y-71692818D01*
X125576309Y-71610764D01*
X125365492Y-71590000D01*
X124824508Y-71590000D01*
X124613691Y-71610764D01*
X124343192Y-71692818D01*
X124093899Y-71826068D01*
X123875392Y-72005392D01*
X123805956Y-72090000D01*
X122574044Y-72090000D01*
X122504608Y-72005392D01*
X122403009Y-71922012D01*
X122441972Y-71901186D01*
X122584344Y-71784344D01*
X122613630Y-71748659D01*
X123577290Y-70785000D01*
X123805956Y-70785000D01*
X123875392Y-70869608D01*
X124093899Y-71048932D01*
X124343192Y-71182182D01*
X124613691Y-71264236D01*
X124824508Y-71285000D01*
X125365492Y-71285000D01*
X125576309Y-71264236D01*
X125846808Y-71182182D01*
X126096101Y-71048932D01*
X126314608Y-70869608D01*
X126384044Y-70785000D01*
X127247711Y-70785000D01*
X127970000Y-71507290D01*
X127970001Y-73614058D01*
X127965476Y-73660000D01*
X127983529Y-73843291D01*
X128012184Y-73937752D01*
X128036994Y-74019540D01*
X128123815Y-74181972D01*
X128240657Y-74324344D01*
X128276336Y-74353625D01*
X130116370Y-76193659D01*
X130145656Y-76229344D01*
X130288028Y-76346186D01*
X130450460Y-76433007D01*
X130590413Y-76475461D01*
X130626708Y-76486471D01*
X130740598Y-76497688D01*
X130615987Y-76564294D01*
X130389866Y-76749866D01*
X130204294Y-76975986D01*
X130066401Y-77233966D01*
X129981487Y-77513889D01*
X129960000Y-77732050D01*
X129960000Y-78477949D01*
X129981487Y-78696110D01*
X130066401Y-78976033D01*
X130204294Y-79234013D01*
X130389866Y-79460134D01*
X130510000Y-79558726D01*
X130510001Y-81010115D01*
X130452393Y-81057392D01*
X130277817Y-81270113D01*
X130148096Y-81512805D01*
X130068214Y-81776140D01*
X130048000Y-81981375D01*
X130048000Y-83118624D01*
X130068214Y-83323859D01*
X130148096Y-83587194D01*
X130277817Y-83829886D01*
X130452392Y-84042607D01*
X130665113Y-84217183D01*
X130907805Y-84346904D01*
X131171140Y-84426786D01*
X131445000Y-84453759D01*
X131718859Y-84426786D01*
X131982194Y-84346904D01*
X132224886Y-84217183D01*
X132437607Y-84042608D01*
X132612183Y-83829887D01*
X132715000Y-83637529D01*
X132817817Y-83829886D01*
X132992392Y-84042607D01*
X133205113Y-84217183D01*
X133447805Y-84346904D01*
X133711140Y-84426786D01*
X133985000Y-84453759D01*
X134258859Y-84426786D01*
X134522194Y-84346904D01*
X134764886Y-84217183D01*
X134977607Y-84042608D01*
X135152183Y-83829887D01*
X135255000Y-83637529D01*
X135357817Y-83829886D01*
X135532392Y-84042607D01*
X135590001Y-84089885D01*
X135590000Y-87584068D01*
X135585476Y-87630000D01*
X135590000Y-87675931D01*
X135590001Y-90357703D01*
X135529774Y-90503102D01*
X135490000Y-90703061D01*
X135490000Y-90906939D01*
X135529774Y-91106898D01*
X135607795Y-91295256D01*
X135721063Y-91464774D01*
X135865226Y-91608937D01*
X136034744Y-91722205D01*
X136223102Y-91800226D01*
X136423061Y-91840000D01*
X136626939Y-91840000D01*
X136826898Y-91800226D01*
X137015256Y-91722205D01*
X137184774Y-91608937D01*
X137328937Y-91464774D01*
X137345490Y-91440000D01*
X146686241Y-91440000D01*
X146713214Y-91713860D01*
X146793096Y-91977195D01*
X146922817Y-92219887D01*
X147097392Y-92432608D01*
X147310113Y-92607183D01*
X147502471Y-92710000D01*
X147310113Y-92812817D01*
X147097392Y-92987392D01*
X146922817Y-93200113D01*
X146793096Y-93442805D01*
X146713214Y-93706140D01*
X146686241Y-93980000D01*
X146713214Y-94253860D01*
X146793096Y-94517195D01*
X146922817Y-94759887D01*
X147097392Y-94972608D01*
X147310113Y-95147183D01*
X147552805Y-95276904D01*
X147816140Y-95356786D01*
X148021375Y-95377000D01*
X149158625Y-95377000D01*
X149363860Y-95356786D01*
X149627195Y-95276904D01*
X149869887Y-95147183D01*
X150082608Y-94972608D01*
X150129885Y-94915000D01*
X150946275Y-94915000D01*
X151044866Y-95035134D01*
X151270986Y-95220706D01*
X151528966Y-95358599D01*
X151808889Y-95443513D01*
X152027050Y-95465000D01*
X152772950Y-95465000D01*
X152991111Y-95443513D01*
X153271034Y-95358599D01*
X153529014Y-95220706D01*
X153755134Y-95035134D01*
X153940706Y-94809014D01*
X154078599Y-94551034D01*
X154163513Y-94271111D01*
X154192185Y-93980000D01*
X154163513Y-93688889D01*
X154078599Y-93408966D01*
X153940706Y-93150986D01*
X153755134Y-92924866D01*
X153725313Y-92900393D01*
X153794180Y-92879502D01*
X153904494Y-92820537D01*
X154001185Y-92741185D01*
X154080537Y-92644494D01*
X154139502Y-92534180D01*
X154175812Y-92414482D01*
X154188072Y-92290000D01*
X154188072Y-90590000D01*
X154175812Y-90465518D01*
X154139502Y-90345820D01*
X154080537Y-90235506D01*
X154001185Y-90138815D01*
X153904494Y-90059463D01*
X153794180Y-90000498D01*
X153674482Y-89964188D01*
X153550000Y-89951928D01*
X151250000Y-89951928D01*
X151125518Y-89964188D01*
X151005820Y-90000498D01*
X150895506Y-90059463D01*
X150798815Y-90138815D01*
X150719463Y-90235506D01*
X150660498Y-90345820D01*
X150624188Y-90465518D01*
X150620299Y-90505000D01*
X150129885Y-90505000D01*
X150082608Y-90447392D01*
X149869887Y-90272817D01*
X149627195Y-90143096D01*
X149363860Y-90063214D01*
X149158625Y-90043000D01*
X148021375Y-90043000D01*
X147816140Y-90063214D01*
X147552805Y-90143096D01*
X147310113Y-90272817D01*
X147097392Y-90447392D01*
X146922817Y-90660113D01*
X146793096Y-90902805D01*
X146713214Y-91166140D01*
X146686241Y-91440000D01*
X137345490Y-91440000D01*
X137442205Y-91295256D01*
X137520226Y-91106898D01*
X137560000Y-90906939D01*
X137560000Y-90703061D01*
X137520226Y-90503102D01*
X137460000Y-90357705D01*
X137460000Y-89775451D01*
X137558243Y-89805253D01*
X137611707Y-89821471D01*
X137794999Y-89839524D01*
X137840931Y-89835000D01*
X160267711Y-89835000D01*
X165041370Y-94608659D01*
X165070656Y-94644344D01*
X165213028Y-94761186D01*
X165375460Y-94848007D01*
X165515413Y-94890461D01*
X165551708Y-94901471D01*
X165735000Y-94919524D01*
X165780932Y-94915000D01*
X166254079Y-94915000D01*
X166255000Y-94964250D01*
X166413750Y-95123000D01*
X167513000Y-95123000D01*
X167513000Y-95103000D01*
X167767000Y-95103000D01*
X167767000Y-95123000D01*
X168866250Y-95123000D01*
X169025000Y-94964250D01*
X169028072Y-94800000D01*
X169015812Y-94675518D01*
X168979502Y-94555820D01*
X168920993Y-94446360D01*
X168947259Y-94397220D01*
X169009300Y-94192697D01*
X169030249Y-93980000D01*
X169009300Y-93767303D01*
X168947259Y-93562780D01*
X168846509Y-93374290D01*
X168822471Y-93345000D01*
X168846509Y-93315710D01*
X168947259Y-93127220D01*
X169009300Y-92922697D01*
X169030249Y-92710000D01*
X169009300Y-92497303D01*
X168947259Y-92292780D01*
X168846509Y-92104290D01*
X168710922Y-91939078D01*
X168575000Y-91827529D01*
X168575000Y-88945932D01*
X168579524Y-88900000D01*
X168561471Y-88716708D01*
X168546390Y-88666993D01*
X168508007Y-88540460D01*
X168421186Y-88378028D01*
X168304344Y-88235656D01*
X168268660Y-88206371D01*
X166758631Y-86696342D01*
X166729345Y-86660657D01*
X166586973Y-86543815D01*
X166424541Y-86456994D01*
X166248293Y-86403530D01*
X166110933Y-86390001D01*
X166065001Y-86385477D01*
X166019069Y-86390001D01*
X151212291Y-86390001D01*
X150160000Y-85337711D01*
X150160000Y-84089885D01*
X150217607Y-84042608D01*
X150392183Y-83829887D01*
X150495000Y-83637529D01*
X150597817Y-83829886D01*
X150772392Y-84042607D01*
X150985113Y-84217183D01*
X151227805Y-84346904D01*
X151491140Y-84426786D01*
X151765000Y-84453759D01*
X152038859Y-84426786D01*
X152302194Y-84346904D01*
X152544886Y-84217183D01*
X152757607Y-84042608D01*
X152932183Y-83829887D01*
X153035000Y-83637529D01*
X153137817Y-83829886D01*
X153312392Y-84042607D01*
X153525113Y-84217183D01*
X153767805Y-84346904D01*
X154031140Y-84426786D01*
X154305000Y-84453759D01*
X154578859Y-84426786D01*
X154842194Y-84346904D01*
X155084886Y-84217183D01*
X155297607Y-84042608D01*
X155472183Y-83829887D01*
X155576038Y-83635587D01*
X155602941Y-83701942D01*
X155753994Y-83931729D01*
X155946974Y-84127632D01*
X156174465Y-84282122D01*
X156427724Y-84389262D01*
X156501930Y-84404220D01*
X156718000Y-84281720D01*
X156718000Y-82677000D01*
X156972000Y-82677000D01*
X156972000Y-84281720D01*
X157188070Y-84404220D01*
X157262276Y-84389262D01*
X157515535Y-84282122D01*
X157743026Y-84127632D01*
X157936006Y-83931729D01*
X158087059Y-83701942D01*
X158190381Y-83447101D01*
X158242000Y-83177000D01*
X158242000Y-82677000D01*
X156972000Y-82677000D01*
X156718000Y-82677000D01*
X156698000Y-82677000D01*
X156698000Y-82423000D01*
X156718000Y-82423000D01*
X156718000Y-80818280D01*
X156972000Y-80818280D01*
X156972000Y-82423000D01*
X158242000Y-82423000D01*
X158242000Y-81923000D01*
X158190381Y-81652899D01*
X158087059Y-81398058D01*
X157936006Y-81168271D01*
X157743026Y-80972368D01*
X157515535Y-80817878D01*
X157262276Y-80710738D01*
X157188070Y-80695780D01*
X156972000Y-80818280D01*
X156718000Y-80818280D01*
X156501930Y-80695780D01*
X156427724Y-80710738D01*
X156174465Y-80817878D01*
X155946974Y-80972368D01*
X155753994Y-81168271D01*
X155602941Y-81398058D01*
X155576038Y-81464413D01*
X155472183Y-81270113D01*
X155297608Y-81057392D01*
X155240000Y-81010115D01*
X155240000Y-79558725D01*
X155360134Y-79460134D01*
X155384607Y-79430313D01*
X155405498Y-79499180D01*
X155464463Y-79609494D01*
X155543815Y-79706185D01*
X155640506Y-79785537D01*
X155750820Y-79844502D01*
X155870518Y-79880812D01*
X155995000Y-79893072D01*
X156559250Y-79890000D01*
X156718000Y-79731250D01*
X156718000Y-78232000D01*
X156972000Y-78232000D01*
X156972000Y-79731250D01*
X157130750Y-79890000D01*
X157695000Y-79893072D01*
X157819482Y-79880812D01*
X157939180Y-79844502D01*
X158049494Y-79785537D01*
X158146185Y-79706185D01*
X158225537Y-79609494D01*
X158284502Y-79499180D01*
X158320812Y-79379482D01*
X158333072Y-79255000D01*
X158330000Y-78390750D01*
X158171250Y-78232000D01*
X156972000Y-78232000D01*
X156718000Y-78232000D01*
X156698000Y-78232000D01*
X156698000Y-77978000D01*
X156718000Y-77978000D01*
X156718000Y-76478750D01*
X156972000Y-76478750D01*
X156972000Y-77978000D01*
X158171250Y-77978000D01*
X158330000Y-77819250D01*
X158333072Y-76955000D01*
X158320812Y-76830518D01*
X158284502Y-76710820D01*
X158225537Y-76600506D01*
X158146185Y-76503815D01*
X158049494Y-76424463D01*
X157939180Y-76365498D01*
X157819482Y-76329188D01*
X157695000Y-76316928D01*
X157130750Y-76320000D01*
X156972000Y-76478750D01*
X156718000Y-76478750D01*
X156559250Y-76320000D01*
X155995000Y-76316928D01*
X155870518Y-76329188D01*
X155750820Y-76365498D01*
X155640506Y-76424463D01*
X155543815Y-76503815D01*
X155464463Y-76600506D01*
X155405498Y-76710820D01*
X155384607Y-76779687D01*
X155360134Y-76749866D01*
X155240000Y-76651275D01*
X155240000Y-73893072D01*
X155805000Y-73893072D01*
X155929482Y-73880812D01*
X156049180Y-73844502D01*
X156159494Y-73785537D01*
X156256185Y-73706185D01*
X156335537Y-73609494D01*
X156394502Y-73499180D01*
X156430812Y-73379482D01*
X156443072Y-73255000D01*
X156443072Y-73246653D01*
X158072952Y-73246653D01*
X158228962Y-73562214D01*
X158603745Y-73753020D01*
X159008551Y-73867044D01*
X159427824Y-73899902D01*
X159845451Y-73850334D01*
X160245383Y-73720243D01*
X160541038Y-73562214D01*
X160697048Y-73246653D01*
X159385000Y-71934605D01*
X158072952Y-73246653D01*
X156443072Y-73246653D01*
X156443072Y-71797824D01*
X157240098Y-71797824D01*
X157289666Y-72215451D01*
X157419757Y-72615383D01*
X157577786Y-72911038D01*
X157893347Y-73067048D01*
X159205395Y-71755000D01*
X159564605Y-71755000D01*
X160876653Y-73067048D01*
X161192214Y-72911038D01*
X161383020Y-72536255D01*
X161497044Y-72131449D01*
X161529902Y-71712176D01*
X161480334Y-71294549D01*
X161350243Y-70894617D01*
X161192214Y-70598962D01*
X160876653Y-70442952D01*
X159564605Y-71755000D01*
X159205395Y-71755000D01*
X157893347Y-70442952D01*
X157577786Y-70598962D01*
X157386980Y-70973745D01*
X157272956Y-71378551D01*
X157240098Y-71797824D01*
X156443072Y-71797824D01*
X156443072Y-70263347D01*
X158072952Y-70263347D01*
X159385000Y-71575395D01*
X160697048Y-70263347D01*
X160541038Y-69947786D01*
X160166255Y-69756980D01*
X159761449Y-69642956D01*
X159594496Y-69629872D01*
X164135000Y-69629872D01*
X164135000Y-70070128D01*
X164220890Y-70501925D01*
X164389369Y-70908669D01*
X164633962Y-71274729D01*
X164945271Y-71586038D01*
X165311331Y-71830631D01*
X165718075Y-71999110D01*
X166149872Y-72085000D01*
X166590128Y-72085000D01*
X167021925Y-71999110D01*
X167428669Y-71830631D01*
X167794729Y-71586038D01*
X168106038Y-71274729D01*
X168350631Y-70908669D01*
X168519110Y-70501925D01*
X168605000Y-70070128D01*
X168605000Y-69629872D01*
X168519110Y-69198075D01*
X168350631Y-68791331D01*
X168106038Y-68425271D01*
X167794729Y-68113962D01*
X167428669Y-67869369D01*
X167021925Y-67700890D01*
X166590128Y-67615000D01*
X166149872Y-67615000D01*
X165718075Y-67700890D01*
X165311331Y-67869369D01*
X164945271Y-68113962D01*
X164633962Y-68425271D01*
X164389369Y-68791331D01*
X164220890Y-69198075D01*
X164135000Y-69629872D01*
X159594496Y-69629872D01*
X159342176Y-69610098D01*
X158924549Y-69659666D01*
X158524617Y-69789757D01*
X158228962Y-69947786D01*
X158072952Y-70263347D01*
X156443072Y-70263347D01*
X156443072Y-70255000D01*
X156430812Y-70130518D01*
X156394502Y-70010820D01*
X156335537Y-69900506D01*
X156256185Y-69803815D01*
X156159494Y-69724463D01*
X156049180Y-69665498D01*
X155929482Y-69629188D01*
X155805000Y-69616928D01*
X152805000Y-69616928D01*
X152680518Y-69629188D01*
X152560820Y-69665498D01*
X152450506Y-69724463D01*
X152353815Y-69803815D01*
X152274463Y-69900506D01*
X152215498Y-70010820D01*
X152179188Y-70130518D01*
X152166928Y-70255000D01*
X152166928Y-73255000D01*
X152179188Y-73379482D01*
X152215498Y-73499180D01*
X152274463Y-73609494D01*
X152353815Y-73706185D01*
X152450506Y-73785537D01*
X152560820Y-73844502D01*
X152680518Y-73880812D01*
X152805000Y-73893072D01*
X153370000Y-73893072D01*
X153370001Y-76651274D01*
X153249866Y-76749866D01*
X153064294Y-76975986D01*
X153035000Y-77030791D01*
X153005706Y-76975986D01*
X152820134Y-76749866D01*
X152700000Y-76651275D01*
X152700000Y-76245935D01*
X152704524Y-76200000D01*
X152686472Y-76016708D01*
X152633007Y-75840459D01*
X152602765Y-75783880D01*
X152546186Y-75678028D01*
X152429344Y-75535656D01*
X152393660Y-75506371D01*
X152065000Y-75177711D01*
X152065000Y-69260932D01*
X152069524Y-69215000D01*
X152051471Y-69031708D01*
X152016068Y-68915000D01*
X151998007Y-68855460D01*
X151911186Y-68693028D01*
X151794344Y-68550656D01*
X151758660Y-68521371D01*
X149937289Y-66700000D01*
X169520000Y-66700000D01*
X169520001Y-131420000D01*
G36*
X115963286Y-74186714D02*
G01*
X116212248Y-74391031D01*
X116496285Y-74542852D01*
X116804484Y-74636343D01*
X117044678Y-74660000D01*
X117905322Y-74660000D01*
X118145516Y-74636343D01*
X118453715Y-74542852D01*
X118737752Y-74391031D01*
X118986714Y-74186714D01*
X119172773Y-73960000D01*
X119995956Y-73960000D01*
X120065392Y-74044608D01*
X120283899Y-74223932D01*
X120533192Y-74357182D01*
X120803691Y-74439236D01*
X121014508Y-74460000D01*
X121555492Y-74460000D01*
X121766309Y-74439236D01*
X122036808Y-74357182D01*
X122286101Y-74223932D01*
X122504608Y-74044608D01*
X122574044Y-73960000D01*
X123805956Y-73960000D01*
X123875392Y-74044608D01*
X124093899Y-74223932D01*
X124160001Y-74259264D01*
X124160000Y-83774068D01*
X124155476Y-83820000D01*
X124160000Y-83865931D01*
X124173529Y-84003291D01*
X124226993Y-84179539D01*
X124313814Y-84341971D01*
X124430656Y-84484344D01*
X124466341Y-84513630D01*
X128846374Y-88893664D01*
X128875656Y-88929344D01*
X129018028Y-89046186D01*
X129180460Y-89133007D01*
X129303243Y-89170253D01*
X129356707Y-89186471D01*
X129539999Y-89204524D01*
X129585931Y-89200000D01*
X132327711Y-89200000D01*
X133050001Y-89922291D01*
X133050000Y-101330115D01*
X132992393Y-101377392D01*
X132817817Y-101590113D01*
X132715000Y-101782471D01*
X132612183Y-101590113D01*
X132437608Y-101377392D01*
X132224887Y-101202817D01*
X131982195Y-101073096D01*
X131718860Y-100993214D01*
X131445000Y-100966241D01*
X131171141Y-100993214D01*
X130907806Y-101073096D01*
X130665114Y-101202817D01*
X130452393Y-101377392D01*
X130277817Y-101590113D01*
X130148096Y-101832805D01*
X130068214Y-102096140D01*
X130048000Y-102301375D01*
X130048000Y-103438624D01*
X130068214Y-103643859D01*
X130148096Y-103907194D01*
X130277817Y-104149886D01*
X130452392Y-104362607D01*
X130510000Y-104409885D01*
X130510001Y-107131274D01*
X130389866Y-107229866D01*
X130204294Y-107455986D01*
X130066401Y-107713966D01*
X129981487Y-107993889D01*
X129960000Y-108212050D01*
X129960000Y-108957949D01*
X129981487Y-109176110D01*
X130066401Y-109456033D01*
X130204294Y-109714013D01*
X130389866Y-109940134D01*
X130615986Y-110125706D01*
X130873966Y-110263599D01*
X131153889Y-110348513D01*
X131445000Y-110377185D01*
X131736110Y-110348513D01*
X132016033Y-110263599D01*
X132274013Y-110125706D01*
X132500134Y-109940134D01*
X132685706Y-109714014D01*
X132715000Y-109659208D01*
X132744294Y-109714013D01*
X132929866Y-109940134D01*
X133155986Y-110125706D01*
X133413966Y-110263599D01*
X133693889Y-110348513D01*
X133985000Y-110377185D01*
X134276110Y-110348513D01*
X134556033Y-110263599D01*
X134814013Y-110125706D01*
X135040134Y-109940134D01*
X135225706Y-109714014D01*
X135255000Y-109659208D01*
X135284294Y-109714013D01*
X135469866Y-109940134D01*
X135590000Y-110038726D01*
X135590001Y-111372709D01*
X133597711Y-113365000D01*
X97542290Y-113365000D01*
X96820000Y-112642711D01*
X96820000Y-107360931D01*
X96824524Y-107314999D01*
X96806471Y-107131707D01*
X96779954Y-107044294D01*
X96753007Y-106955460D01*
X96666186Y-106793028D01*
X96549344Y-106650656D01*
X96513664Y-106621374D01*
X95308630Y-105416341D01*
X95279344Y-105380656D01*
X95136972Y-105263814D01*
X94974540Y-105176993D01*
X94798292Y-105123529D01*
X94660932Y-105110000D01*
X94615000Y-105105476D01*
X94569068Y-105110000D01*
X94163725Y-105110000D01*
X94065134Y-104989866D01*
X93839014Y-104804294D01*
X93784209Y-104775000D01*
X93839014Y-104745706D01*
X94065134Y-104560134D01*
X94250706Y-104334014D01*
X94388599Y-104076034D01*
X94473513Y-103796111D01*
X94502185Y-103505000D01*
X94473513Y-103213889D01*
X94388599Y-102933966D01*
X94250706Y-102675986D01*
X94065134Y-102449866D01*
X93839014Y-102264294D01*
X93784209Y-102235000D01*
X93839014Y-102205706D01*
X94065134Y-102020134D01*
X94163725Y-101900000D01*
X94227711Y-101900000D01*
X96855000Y-104527290D01*
X96855001Y-111079058D01*
X96850476Y-111125000D01*
X96868529Y-111308291D01*
X96914550Y-111460000D01*
X96921994Y-111484540D01*
X97008815Y-111646972D01*
X97125657Y-111789344D01*
X97161336Y-111818625D01*
X98366374Y-113023664D01*
X98395656Y-113059344D01*
X98538028Y-113176186D01*
X98700460Y-113263007D01*
X98823243Y-113300253D01*
X98876707Y-113316471D01*
X99059999Y-113334524D01*
X99105931Y-113330000D01*
X111714068Y-113330000D01*
X111760000Y-113334524D01*
X111805932Y-113330000D01*
X111943292Y-113316471D01*
X112119540Y-113263007D01*
X112281972Y-113176186D01*
X112424344Y-113059344D01*
X112453630Y-113023659D01*
X113023660Y-112453629D01*
X113059344Y-112424344D01*
X113176186Y-112281972D01*
X113240315Y-112161994D01*
X113263007Y-112119541D01*
X113316472Y-111943292D01*
X113334524Y-111760000D01*
X113330000Y-111714065D01*
X113330000Y-110364701D01*
X113369482Y-110360812D01*
X113489180Y-110324502D01*
X113599494Y-110265537D01*
X113696185Y-110186185D01*
X113775537Y-110089494D01*
X113834502Y-109979180D01*
X113870812Y-109859482D01*
X113883072Y-109735000D01*
X113883072Y-109520000D01*
X115605737Y-109520000D01*
X115641068Y-109586100D01*
X115820392Y-109804607D01*
X116038899Y-109983932D01*
X116288192Y-110117182D01*
X116558691Y-110199236D01*
X116840000Y-110226943D01*
X117121308Y-110199236D01*
X117391807Y-110117182D01*
X117641100Y-109983932D01*
X117859607Y-109804608D01*
X118038932Y-109586101D01*
X118074264Y-109520000D01*
X118699068Y-109520000D01*
X118745000Y-109524524D01*
X118790932Y-109520000D01*
X118928292Y-109506471D01*
X119104540Y-109453007D01*
X119266972Y-109366186D01*
X119409344Y-109249344D01*
X119438630Y-109213659D01*
X120360529Y-108291760D01*
X120368691Y-108294236D01*
X120650000Y-108321943D01*
X120931308Y-108294236D01*
X121201807Y-108212182D01*
X121451100Y-108078932D01*
X121669607Y-107899608D01*
X121848932Y-107681101D01*
X121884264Y-107615000D01*
X122590737Y-107615000D01*
X122626068Y-107681100D01*
X122805392Y-107899607D01*
X123023899Y-108078932D01*
X123273192Y-108212182D01*
X123543691Y-108294236D01*
X123825000Y-108321943D01*
X124106308Y-108294236D01*
X124376807Y-108212182D01*
X124626100Y-108078932D01*
X124844607Y-107899608D01*
X125023932Y-107681101D01*
X125157182Y-107431808D01*
X125239236Y-107161309D01*
X125260000Y-106950492D01*
X125260000Y-106409509D01*
X125239236Y-106198692D01*
X125157182Y-105928193D01*
X125040556Y-105710000D01*
X125049068Y-105710000D01*
X125095000Y-105714524D01*
X125140932Y-105710000D01*
X125278292Y-105696471D01*
X125454540Y-105643007D01*
X125616972Y-105556186D01*
X125759344Y-105439344D01*
X125788630Y-105403659D01*
X131154859Y-100037431D01*
X131300256Y-99977205D01*
X131469774Y-99863937D01*
X131613937Y-99719774D01*
X131727205Y-99550256D01*
X131805226Y-99361898D01*
X131845000Y-99161939D01*
X131845000Y-98958061D01*
X131805226Y-98758102D01*
X131727205Y-98569744D01*
X131613937Y-98400226D01*
X131469774Y-98256063D01*
X131300256Y-98142795D01*
X131111898Y-98064774D01*
X130911939Y-98025000D01*
X130708061Y-98025000D01*
X130607233Y-98045056D01*
X131154858Y-97497431D01*
X131300256Y-97437205D01*
X131469774Y-97323937D01*
X131613937Y-97179774D01*
X131727205Y-97010256D01*
X131805226Y-96821898D01*
X131845000Y-96621939D01*
X131845000Y-96418061D01*
X131805226Y-96218102D01*
X131727205Y-96029744D01*
X131613937Y-95860226D01*
X131469774Y-95716063D01*
X131300256Y-95602795D01*
X131111898Y-95524774D01*
X130911939Y-95485000D01*
X130708061Y-95485000D01*
X130508102Y-95524774D01*
X130319744Y-95602795D01*
X130150226Y-95716063D01*
X130006063Y-95860226D01*
X129892795Y-96029744D01*
X129832569Y-96175142D01*
X127872290Y-98135421D01*
X127921471Y-97973292D01*
X127927015Y-97917000D01*
X127939524Y-97790001D01*
X127935000Y-97744069D01*
X127935000Y-95295931D01*
X127939524Y-95249999D01*
X127921471Y-95066707D01*
X127905253Y-95013243D01*
X127875451Y-94915000D01*
X128224068Y-94915000D01*
X128270000Y-94919524D01*
X128315932Y-94915000D01*
X128453292Y-94901471D01*
X128629540Y-94848007D01*
X128791972Y-94761186D01*
X128934344Y-94644344D01*
X128963630Y-94608659D01*
X131154859Y-92417431D01*
X131300256Y-92357205D01*
X131469774Y-92243937D01*
X131613937Y-92099774D01*
X131727205Y-91930256D01*
X131805226Y-91741898D01*
X131845000Y-91541939D01*
X131845000Y-91338061D01*
X131805226Y-91138102D01*
X131727205Y-90949744D01*
X131613937Y-90780226D01*
X131469774Y-90636063D01*
X131300256Y-90522795D01*
X131111898Y-90444774D01*
X130911939Y-90405000D01*
X130708061Y-90405000D01*
X130508102Y-90444774D01*
X130319744Y-90522795D01*
X130150226Y-90636063D01*
X130006063Y-90780226D01*
X129892795Y-90949744D01*
X129832569Y-91095141D01*
X127882711Y-93045000D01*
X125775932Y-93045000D01*
X125730000Y-93040476D01*
X125684068Y-93045000D01*
X125157200Y-93045000D01*
X125194300Y-92922697D01*
X125215249Y-92710000D01*
X125194300Y-92497303D01*
X125132259Y-92292780D01*
X125031509Y-92104290D01*
X124895922Y-91939078D01*
X124730710Y-91803491D01*
X124542220Y-91702741D01*
X124337697Y-91640700D01*
X124178294Y-91625000D01*
X123471706Y-91625000D01*
X123312303Y-91640700D01*
X123107780Y-91702741D01*
X122972593Y-91775000D01*
X120315000Y-91775000D01*
X120315000Y-88310932D01*
X120319524Y-88265000D01*
X120301471Y-88081708D01*
X120301471Y-88081707D01*
X120248007Y-87905460D01*
X120161186Y-87743028D01*
X120044344Y-87600656D01*
X120008660Y-87571371D01*
X118168630Y-85731341D01*
X118139344Y-85695656D01*
X117996972Y-85578814D01*
X117834540Y-85491993D01*
X117658292Y-85438529D01*
X117520932Y-85425000D01*
X117475000Y-85420476D01*
X117429068Y-85425000D01*
X114268094Y-85425000D01*
X114246502Y-85353820D01*
X114187537Y-85243506D01*
X114108185Y-85146815D01*
X114011494Y-85067463D01*
X113901180Y-85008498D01*
X113781482Y-84972188D01*
X113657000Y-84959928D01*
X111133000Y-84959928D01*
X111008518Y-84972188D01*
X110888820Y-85008498D01*
X110778506Y-85067463D01*
X110681815Y-85146815D01*
X110602463Y-85243506D01*
X110543498Y-85353820D01*
X110507188Y-85473518D01*
X110494928Y-85598000D01*
X110494928Y-87122000D01*
X110507188Y-87246482D01*
X110543498Y-87366180D01*
X110602463Y-87476494D01*
X110681815Y-87573185D01*
X110778506Y-87652537D01*
X110888820Y-87711502D01*
X111008518Y-87747812D01*
X111087378Y-87755579D01*
X110902392Y-87907392D01*
X110727817Y-88120113D01*
X110598096Y-88362805D01*
X110518214Y-88626140D01*
X110491241Y-88900000D01*
X110518214Y-89173860D01*
X110598096Y-89437195D01*
X110727817Y-89679887D01*
X110902392Y-89892608D01*
X111115113Y-90067183D01*
X111309413Y-90171038D01*
X111243058Y-90197941D01*
X111013271Y-90348994D01*
X110817368Y-90541974D01*
X110662878Y-90769465D01*
X110555738Y-91022724D01*
X110540780Y-91096930D01*
X110663280Y-91313000D01*
X112268000Y-91313000D01*
X112268000Y-91293000D01*
X112522000Y-91293000D01*
X112522000Y-91313000D01*
X114126720Y-91313000D01*
X114249220Y-91096930D01*
X114234262Y-91022724D01*
X114127122Y-90769465D01*
X113972632Y-90541974D01*
X113776729Y-90348994D01*
X113546942Y-90197941D01*
X113480587Y-90171038D01*
X113674887Y-90067183D01*
X113887608Y-89892608D01*
X114062183Y-89679887D01*
X114191904Y-89437195D01*
X114271786Y-89173860D01*
X114298759Y-88900000D01*
X114271786Y-88626140D01*
X114191904Y-88362805D01*
X114062183Y-88120113D01*
X113887608Y-87907392D01*
X113702622Y-87755579D01*
X113781482Y-87747812D01*
X113901180Y-87711502D01*
X114011494Y-87652537D01*
X114108185Y-87573185D01*
X114187537Y-87476494D01*
X114246502Y-87366180D01*
X114268094Y-87295000D01*
X117087711Y-87295000D01*
X118445000Y-88652289D01*
X118445001Y-91827528D01*
X118309078Y-91939078D01*
X118173491Y-92104290D01*
X118072741Y-92292780D01*
X118010700Y-92497303D01*
X117989751Y-92710000D01*
X118010700Y-92922697D01*
X118072741Y-93127220D01*
X118173491Y-93315710D01*
X118197529Y-93345000D01*
X118173491Y-93374290D01*
X118072741Y-93562780D01*
X118010700Y-93767303D01*
X117989751Y-93980000D01*
X118010700Y-94192697D01*
X118072741Y-94397220D01*
X118099007Y-94446360D01*
X118040498Y-94555820D01*
X118004188Y-94675518D01*
X117991928Y-94800000D01*
X117995000Y-94964250D01*
X118153750Y-95123000D01*
X119253000Y-95123000D01*
X119253000Y-95103000D01*
X119507000Y-95103000D01*
X119507000Y-95123000D01*
X120606250Y-95123000D01*
X120765000Y-94964250D01*
X120765921Y-94915000D01*
X122439079Y-94915000D01*
X122440000Y-94964250D01*
X122598750Y-95123000D01*
X123698000Y-95123000D01*
X123698000Y-95103000D01*
X123952000Y-95103000D01*
X123952000Y-95123000D01*
X125051250Y-95123000D01*
X125210000Y-94964250D01*
X125210921Y-94915000D01*
X125342711Y-94915000D01*
X126065000Y-95637290D01*
X126065001Y-97402709D01*
X125342711Y-98125000D01*
X125059264Y-98125000D01*
X125023932Y-98058899D01*
X124844608Y-97840392D01*
X124626101Y-97661068D01*
X124376808Y-97527818D01*
X124106309Y-97445764D01*
X123825000Y-97418057D01*
X123543692Y-97445764D01*
X123273193Y-97527818D01*
X123023900Y-97661068D01*
X122805393Y-97840392D01*
X122626068Y-98058899D01*
X122492818Y-98308192D01*
X122410764Y-98578691D01*
X122390000Y-98789508D01*
X122390000Y-99330491D01*
X122410764Y-99541308D01*
X122492818Y-99811807D01*
X122626068Y-100061100D01*
X122805392Y-100279607D01*
X123023899Y-100458932D01*
X123273192Y-100592182D01*
X123513244Y-100665000D01*
X120961755Y-100665000D01*
X121201807Y-100592182D01*
X121451100Y-100458932D01*
X121669607Y-100279608D01*
X121848932Y-100061101D01*
X121982182Y-99811808D01*
X122064236Y-99541309D01*
X122085000Y-99330492D01*
X122085000Y-98789509D01*
X122064236Y-98578692D01*
X121982182Y-98308193D01*
X121848932Y-98058899D01*
X121669608Y-97840392D01*
X121451101Y-97661068D01*
X121201808Y-97527818D01*
X120931309Y-97445764D01*
X120650000Y-97418057D01*
X120368692Y-97445764D01*
X120183173Y-97502040D01*
X120060932Y-97490000D01*
X120015000Y-97485476D01*
X119969068Y-97490000D01*
X114980935Y-97490000D01*
X114935000Y-97485476D01*
X114751708Y-97503528D01*
X114575459Y-97556993D01*
X114541771Y-97575000D01*
X114413028Y-97643814D01*
X114270656Y-97760656D01*
X114241370Y-97796341D01*
X113924890Y-98112821D01*
X113887608Y-98067392D01*
X113674887Y-97892817D01*
X113482529Y-97790000D01*
X113674887Y-97687183D01*
X113887608Y-97512608D01*
X114062183Y-97299887D01*
X114191904Y-97057195D01*
X114271786Y-96793860D01*
X114298759Y-96520000D01*
X114271786Y-96246140D01*
X114191904Y-95982805D01*
X114062183Y-95740113D01*
X114029264Y-95700000D01*
X117991928Y-95700000D01*
X118004188Y-95824482D01*
X118040498Y-95944180D01*
X118099463Y-96054494D01*
X118178815Y-96151185D01*
X118275506Y-96230537D01*
X118385820Y-96289502D01*
X118505518Y-96325812D01*
X118630000Y-96338072D01*
X119094250Y-96335000D01*
X119253000Y-96176250D01*
X119253000Y-95377000D01*
X119507000Y-95377000D01*
X119507000Y-96176250D01*
X119665750Y-96335000D01*
X120130000Y-96338072D01*
X120254482Y-96325812D01*
X120374180Y-96289502D01*
X120484494Y-96230537D01*
X120581185Y-96151185D01*
X120660537Y-96054494D01*
X120719502Y-95944180D01*
X120755812Y-95824482D01*
X120768072Y-95700000D01*
X122436928Y-95700000D01*
X122449188Y-95824482D01*
X122485498Y-95944180D01*
X122544463Y-96054494D01*
X122623815Y-96151185D01*
X122720506Y-96230537D01*
X122830820Y-96289502D01*
X122950518Y-96325812D01*
X123075000Y-96338072D01*
X123539250Y-96335000D01*
X123698000Y-96176250D01*
X123698000Y-95377000D01*
X123952000Y-95377000D01*
X123952000Y-96176250D01*
X124110750Y-96335000D01*
X124575000Y-96338072D01*
X124699482Y-96325812D01*
X124819180Y-96289502D01*
X124929494Y-96230537D01*
X125026185Y-96151185D01*
X125105537Y-96054494D01*
X125164502Y-95944180D01*
X125200812Y-95824482D01*
X125213072Y-95700000D01*
X125210000Y-95535750D01*
X125051250Y-95377000D01*
X123952000Y-95377000D01*
X123698000Y-95377000D01*
X122598750Y-95377000D01*
X122440000Y-95535750D01*
X122436928Y-95700000D01*
X120768072Y-95700000D01*
X120765000Y-95535750D01*
X120606250Y-95377000D01*
X119507000Y-95377000D01*
X119253000Y-95377000D01*
X118153750Y-95377000D01*
X117995000Y-95535750D01*
X117991928Y-95700000D01*
X114029264Y-95700000D01*
X113887608Y-95527392D01*
X113674887Y-95352817D01*
X113482529Y-95250000D01*
X113674887Y-95147183D01*
X113887608Y-94972608D01*
X114062183Y-94759887D01*
X114191904Y-94517195D01*
X114271786Y-94253860D01*
X114298759Y-93980000D01*
X114271786Y-93706140D01*
X114191904Y-93442805D01*
X114062183Y-93200113D01*
X113887608Y-92987392D01*
X113674887Y-92812817D01*
X113480587Y-92708962D01*
X113546942Y-92682059D01*
X113776729Y-92531006D01*
X113972632Y-92338026D01*
X114127122Y-92110535D01*
X114234262Y-91857276D01*
X114249220Y-91783070D01*
X114126720Y-91567000D01*
X112522000Y-91567000D01*
X112522000Y-91587000D01*
X112268000Y-91587000D01*
X112268000Y-91567000D01*
X110663280Y-91567000D01*
X110540780Y-91783070D01*
X110555738Y-91857276D01*
X110662878Y-92110535D01*
X110817368Y-92338026D01*
X111013271Y-92531006D01*
X111243058Y-92682059D01*
X111309413Y-92708962D01*
X111115113Y-92812817D01*
X110902392Y-92987392D01*
X110727817Y-93200113D01*
X110598096Y-93442805D01*
X110518214Y-93706140D01*
X110491241Y-93980000D01*
X110518214Y-94253860D01*
X110598096Y-94517195D01*
X110727817Y-94759887D01*
X110902392Y-94972608D01*
X111115113Y-95147183D01*
X111307471Y-95250000D01*
X111115113Y-95352817D01*
X110902392Y-95527392D01*
X110727817Y-95740113D01*
X110598096Y-95982805D01*
X110518214Y-96246140D01*
X110491241Y-96520000D01*
X110518214Y-96793860D01*
X110598096Y-97057195D01*
X110727817Y-97299887D01*
X110902392Y-97512608D01*
X111115113Y-97687183D01*
X111307471Y-97790000D01*
X111115113Y-97892817D01*
X110902392Y-98067392D01*
X110727817Y-98280113D01*
X110598096Y-98522805D01*
X110518214Y-98786140D01*
X110491241Y-99060000D01*
X110518214Y-99333860D01*
X110598096Y-99597195D01*
X110727817Y-99839887D01*
X110902392Y-100052608D01*
X111115113Y-100227183D01*
X111307471Y-100330000D01*
X111115113Y-100432817D01*
X110902392Y-100607392D01*
X110855115Y-100665000D01*
X105710000Y-100665000D01*
X105710000Y-100375932D01*
X105714524Y-100330000D01*
X105710000Y-100284065D01*
X105710000Y-78288725D01*
X105830134Y-78190134D01*
X106015706Y-77964014D01*
X106045000Y-77909208D01*
X106074294Y-77964013D01*
X106259866Y-78190134D01*
X106485986Y-78375706D01*
X106743966Y-78513599D01*
X107023889Y-78598513D01*
X107315000Y-78627185D01*
X107606110Y-78598513D01*
X107886033Y-78513599D01*
X108144013Y-78375706D01*
X108370134Y-78190134D01*
X108555706Y-77964014D01*
X108586895Y-77905663D01*
X108690824Y-78065619D01*
X108894748Y-78274857D01*
X109135574Y-78440291D01*
X109404047Y-78555563D01*
X109498110Y-78576476D01*
X109728000Y-78455155D01*
X109728000Y-76962000D01*
X109708000Y-76962000D01*
X109708000Y-76708000D01*
X109728000Y-76708000D01*
X109728000Y-76688000D01*
X109982000Y-76688000D01*
X109982000Y-76708000D01*
X110002000Y-76708000D01*
X110002000Y-76962000D01*
X109982000Y-76962000D01*
X109982000Y-78455155D01*
X110211890Y-78576476D01*
X110305953Y-78555563D01*
X110574426Y-78440291D01*
X110815252Y-78274857D01*
X110932775Y-78154272D01*
X110955498Y-78229180D01*
X111014463Y-78339494D01*
X111093815Y-78436185D01*
X111190506Y-78515537D01*
X111300820Y-78574502D01*
X111420518Y-78610812D01*
X111545000Y-78623072D01*
X113245000Y-78623072D01*
X113369482Y-78610812D01*
X113489180Y-78574502D01*
X113599494Y-78515537D01*
X113696185Y-78436185D01*
X113775537Y-78339494D01*
X113834502Y-78229180D01*
X113870812Y-78109482D01*
X113883072Y-77985000D01*
X113883072Y-75685000D01*
X113870812Y-75560518D01*
X113834502Y-75440820D01*
X113775537Y-75330506D01*
X113696185Y-75233815D01*
X113599494Y-75154463D01*
X113489180Y-75095498D01*
X113369482Y-75059188D01*
X113245000Y-75046928D01*
X111545000Y-75046928D01*
X111420518Y-75059188D01*
X111300820Y-75095498D01*
X111190506Y-75154463D01*
X111093815Y-75233815D01*
X111014463Y-75330506D01*
X110955498Y-75440820D01*
X110932775Y-75515728D01*
X110815252Y-75395143D01*
X110754132Y-75353157D01*
X111451875Y-74655415D01*
X111645516Y-74636343D01*
X111953715Y-74542852D01*
X112237752Y-74391031D01*
X112486714Y-74186714D01*
X112672773Y-73960000D01*
X115777227Y-73960000D01*
X115963286Y-74186714D01*
G37*
X115963286Y-74186714D02*
X116212248Y-74391031D01*
X116496285Y-74542852D01*
X116804484Y-74636343D01*
X117044678Y-74660000D01*
X117905322Y-74660000D01*
X118145516Y-74636343D01*
X118453715Y-74542852D01*
X118737752Y-74391031D01*
X118986714Y-74186714D01*
X119172773Y-73960000D01*
X119995956Y-73960000D01*
X120065392Y-74044608D01*
X120283899Y-74223932D01*
X120533192Y-74357182D01*
X120803691Y-74439236D01*
X121014508Y-74460000D01*
X121555492Y-74460000D01*
X121766309Y-74439236D01*
X122036808Y-74357182D01*
X122286101Y-74223932D01*
X122504608Y-74044608D01*
X122574044Y-73960000D01*
X123805956Y-73960000D01*
X123875392Y-74044608D01*
X124093899Y-74223932D01*
X124160001Y-74259264D01*
X124160000Y-83774068D01*
X124155476Y-83820000D01*
X124160000Y-83865931D01*
X124173529Y-84003291D01*
X124226993Y-84179539D01*
X124313814Y-84341971D01*
X124430656Y-84484344D01*
X124466341Y-84513630D01*
X128846374Y-88893664D01*
X128875656Y-88929344D01*
X129018028Y-89046186D01*
X129180460Y-89133007D01*
X129303243Y-89170253D01*
X129356707Y-89186471D01*
X129539999Y-89204524D01*
X129585931Y-89200000D01*
X132327711Y-89200000D01*
X133050001Y-89922291D01*
X133050000Y-101330115D01*
X132992393Y-101377392D01*
X132817817Y-101590113D01*
X132715000Y-101782471D01*
X132612183Y-101590113D01*
X132437608Y-101377392D01*
X132224887Y-101202817D01*
X131982195Y-101073096D01*
X131718860Y-100993214D01*
X131445000Y-100966241D01*
X131171141Y-100993214D01*
X130907806Y-101073096D01*
X130665114Y-101202817D01*
X130452393Y-101377392D01*
X130277817Y-101590113D01*
X130148096Y-101832805D01*
X130068214Y-102096140D01*
X130048000Y-102301375D01*
X130048000Y-103438624D01*
X130068214Y-103643859D01*
X130148096Y-103907194D01*
X130277817Y-104149886D01*
X130452392Y-104362607D01*
X130510000Y-104409885D01*
X130510001Y-107131274D01*
X130389866Y-107229866D01*
X130204294Y-107455986D01*
X130066401Y-107713966D01*
X129981487Y-107993889D01*
X129960000Y-108212050D01*
X129960000Y-108957949D01*
X129981487Y-109176110D01*
X130066401Y-109456033D01*
X130204294Y-109714013D01*
X130389866Y-109940134D01*
X130615986Y-110125706D01*
X130873966Y-110263599D01*
X131153889Y-110348513D01*
X131445000Y-110377185D01*
X131736110Y-110348513D01*
X132016033Y-110263599D01*
X132274013Y-110125706D01*
X132500134Y-109940134D01*
X132685706Y-109714014D01*
X132715000Y-109659208D01*
X132744294Y-109714013D01*
X132929866Y-109940134D01*
X133155986Y-110125706D01*
X133413966Y-110263599D01*
X133693889Y-110348513D01*
X133985000Y-110377185D01*
X134276110Y-110348513D01*
X134556033Y-110263599D01*
X134814013Y-110125706D01*
X135040134Y-109940134D01*
X135225706Y-109714014D01*
X135255000Y-109659208D01*
X135284294Y-109714013D01*
X135469866Y-109940134D01*
X135590000Y-110038726D01*
X135590001Y-111372709D01*
X133597711Y-113365000D01*
X97542290Y-113365000D01*
X96820000Y-112642711D01*
X96820000Y-107360931D01*
X96824524Y-107314999D01*
X96806471Y-107131707D01*
X96779954Y-107044294D01*
X96753007Y-106955460D01*
X96666186Y-106793028D01*
X96549344Y-106650656D01*
X96513664Y-106621374D01*
X95308630Y-105416341D01*
X95279344Y-105380656D01*
X95136972Y-105263814D01*
X94974540Y-105176993D01*
X94798292Y-105123529D01*
X94660932Y-105110000D01*
X94615000Y-105105476D01*
X94569068Y-105110000D01*
X94163725Y-105110000D01*
X94065134Y-104989866D01*
X93839014Y-104804294D01*
X93784209Y-104775000D01*
X93839014Y-104745706D01*
X94065134Y-104560134D01*
X94250706Y-104334014D01*
X94388599Y-104076034D01*
X94473513Y-103796111D01*
X94502185Y-103505000D01*
X94473513Y-103213889D01*
X94388599Y-102933966D01*
X94250706Y-102675986D01*
X94065134Y-102449866D01*
X93839014Y-102264294D01*
X93784209Y-102235000D01*
X93839014Y-102205706D01*
X94065134Y-102020134D01*
X94163725Y-101900000D01*
X94227711Y-101900000D01*
X96855000Y-104527290D01*
X96855001Y-111079058D01*
X96850476Y-111125000D01*
X96868529Y-111308291D01*
X96914550Y-111460000D01*
X96921994Y-111484540D01*
X97008815Y-111646972D01*
X97125657Y-111789344D01*
X97161336Y-111818625D01*
X98366374Y-113023664D01*
X98395656Y-113059344D01*
X98538028Y-113176186D01*
X98700460Y-113263007D01*
X98823243Y-113300253D01*
X98876707Y-113316471D01*
X99059999Y-113334524D01*
X99105931Y-113330000D01*
X111714068Y-113330000D01*
X111760000Y-113334524D01*
X111805932Y-113330000D01*
X111943292Y-113316471D01*
X112119540Y-113263007D01*
X112281972Y-113176186D01*
X112424344Y-113059344D01*
X112453630Y-113023659D01*
X113023660Y-112453629D01*
X113059344Y-112424344D01*
X113176186Y-112281972D01*
X113240315Y-112161994D01*
X113263007Y-112119541D01*
X113316472Y-111943292D01*
X113334524Y-111760000D01*
X113330000Y-111714065D01*
X113330000Y-110364701D01*
X113369482Y-110360812D01*
X113489180Y-110324502D01*
X113599494Y-110265537D01*
X113696185Y-110186185D01*
X113775537Y-110089494D01*
X113834502Y-109979180D01*
X113870812Y-109859482D01*
X113883072Y-109735000D01*
X113883072Y-109520000D01*
X115605737Y-109520000D01*
X115641068Y-109586100D01*
X115820392Y-109804607D01*
X116038899Y-109983932D01*
X116288192Y-110117182D01*
X116558691Y-110199236D01*
X116840000Y-110226943D01*
X117121308Y-110199236D01*
X117391807Y-110117182D01*
X117641100Y-109983932D01*
X117859607Y-109804608D01*
X118038932Y-109586101D01*
X118074264Y-109520000D01*
X118699068Y-109520000D01*
X118745000Y-109524524D01*
X118790932Y-109520000D01*
X118928292Y-109506471D01*
X119104540Y-109453007D01*
X119266972Y-109366186D01*
X119409344Y-109249344D01*
X119438630Y-109213659D01*
X120360529Y-108291760D01*
X120368691Y-108294236D01*
X120650000Y-108321943D01*
X120931308Y-108294236D01*
X121201807Y-108212182D01*
X121451100Y-108078932D01*
X121669607Y-107899608D01*
X121848932Y-107681101D01*
X121884264Y-107615000D01*
X122590737Y-107615000D01*
X122626068Y-107681100D01*
X122805392Y-107899607D01*
X123023899Y-108078932D01*
X123273192Y-108212182D01*
X123543691Y-108294236D01*
X123825000Y-108321943D01*
X124106308Y-108294236D01*
X124376807Y-108212182D01*
X124626100Y-108078932D01*
X124844607Y-107899608D01*
X125023932Y-107681101D01*
X125157182Y-107431808D01*
X125239236Y-107161309D01*
X125260000Y-106950492D01*
X125260000Y-106409509D01*
X125239236Y-106198692D01*
X125157182Y-105928193D01*
X125040556Y-105710000D01*
X125049068Y-105710000D01*
X125095000Y-105714524D01*
X125140932Y-105710000D01*
X125278292Y-105696471D01*
X125454540Y-105643007D01*
X125616972Y-105556186D01*
X125759344Y-105439344D01*
X125788630Y-105403659D01*
X131154859Y-100037431D01*
X131300256Y-99977205D01*
X131469774Y-99863937D01*
X131613937Y-99719774D01*
X131727205Y-99550256D01*
X131805226Y-99361898D01*
X131845000Y-99161939D01*
X131845000Y-98958061D01*
X131805226Y-98758102D01*
X131727205Y-98569744D01*
X131613937Y-98400226D01*
X131469774Y-98256063D01*
X131300256Y-98142795D01*
X131111898Y-98064774D01*
X130911939Y-98025000D01*
X130708061Y-98025000D01*
X130607233Y-98045056D01*
X131154858Y-97497431D01*
X131300256Y-97437205D01*
X131469774Y-97323937D01*
X131613937Y-97179774D01*
X131727205Y-97010256D01*
X131805226Y-96821898D01*
X131845000Y-96621939D01*
X131845000Y-96418061D01*
X131805226Y-96218102D01*
X131727205Y-96029744D01*
X131613937Y-95860226D01*
X131469774Y-95716063D01*
X131300256Y-95602795D01*
X131111898Y-95524774D01*
X130911939Y-95485000D01*
X130708061Y-95485000D01*
X130508102Y-95524774D01*
X130319744Y-95602795D01*
X130150226Y-95716063D01*
X130006063Y-95860226D01*
X129892795Y-96029744D01*
X129832569Y-96175142D01*
X127872290Y-98135421D01*
X127921471Y-97973292D01*
X127927015Y-97917000D01*
X127939524Y-97790001D01*
X127935000Y-97744069D01*
X127935000Y-95295931D01*
X127939524Y-95249999D01*
X127921471Y-95066707D01*
X127905253Y-95013243D01*
X127875451Y-94915000D01*
X128224068Y-94915000D01*
X128270000Y-94919524D01*
X128315932Y-94915000D01*
X128453292Y-94901471D01*
X128629540Y-94848007D01*
X128791972Y-94761186D01*
X128934344Y-94644344D01*
X128963630Y-94608659D01*
X131154859Y-92417431D01*
X131300256Y-92357205D01*
X131469774Y-92243937D01*
X131613937Y-92099774D01*
X131727205Y-91930256D01*
X131805226Y-91741898D01*
X131845000Y-91541939D01*
X131845000Y-91338061D01*
X131805226Y-91138102D01*
X131727205Y-90949744D01*
X131613937Y-90780226D01*
X131469774Y-90636063D01*
X131300256Y-90522795D01*
X131111898Y-90444774D01*
X130911939Y-90405000D01*
X130708061Y-90405000D01*
X130508102Y-90444774D01*
X130319744Y-90522795D01*
X130150226Y-90636063D01*
X130006063Y-90780226D01*
X129892795Y-90949744D01*
X129832569Y-91095141D01*
X127882711Y-93045000D01*
X125775932Y-93045000D01*
X125730000Y-93040476D01*
X125684068Y-93045000D01*
X125157200Y-93045000D01*
X125194300Y-92922697D01*
X125215249Y-92710000D01*
X125194300Y-92497303D01*
X125132259Y-92292780D01*
X125031509Y-92104290D01*
X124895922Y-91939078D01*
X124730710Y-91803491D01*
X124542220Y-91702741D01*
X124337697Y-91640700D01*
X124178294Y-91625000D01*
X123471706Y-91625000D01*
X123312303Y-91640700D01*
X123107780Y-91702741D01*
X122972593Y-91775000D01*
X120315000Y-91775000D01*
X120315000Y-88310932D01*
X120319524Y-88265000D01*
X120301471Y-88081708D01*
X120301471Y-88081707D01*
X120248007Y-87905460D01*
X120161186Y-87743028D01*
X120044344Y-87600656D01*
X120008660Y-87571371D01*
X118168630Y-85731341D01*
X118139344Y-85695656D01*
X117996972Y-85578814D01*
X117834540Y-85491993D01*
X117658292Y-85438529D01*
X117520932Y-85425000D01*
X117475000Y-85420476D01*
X117429068Y-85425000D01*
X114268094Y-85425000D01*
X114246502Y-85353820D01*
X114187537Y-85243506D01*
X114108185Y-85146815D01*
X114011494Y-85067463D01*
X113901180Y-85008498D01*
X113781482Y-84972188D01*
X113657000Y-84959928D01*
X111133000Y-84959928D01*
X111008518Y-84972188D01*
X110888820Y-85008498D01*
X110778506Y-85067463D01*
X110681815Y-85146815D01*
X110602463Y-85243506D01*
X110543498Y-85353820D01*
X110507188Y-85473518D01*
X110494928Y-85598000D01*
X110494928Y-87122000D01*
X110507188Y-87246482D01*
X110543498Y-87366180D01*
X110602463Y-87476494D01*
X110681815Y-87573185D01*
X110778506Y-87652537D01*
X110888820Y-87711502D01*
X111008518Y-87747812D01*
X111087378Y-87755579D01*
X110902392Y-87907392D01*
X110727817Y-88120113D01*
X110598096Y-88362805D01*
X110518214Y-88626140D01*
X110491241Y-88900000D01*
X110518214Y-89173860D01*
X110598096Y-89437195D01*
X110727817Y-89679887D01*
X110902392Y-89892608D01*
X111115113Y-90067183D01*
X111309413Y-90171038D01*
X111243058Y-90197941D01*
X111013271Y-90348994D01*
X110817368Y-90541974D01*
X110662878Y-90769465D01*
X110555738Y-91022724D01*
X110540780Y-91096930D01*
X110663280Y-91313000D01*
X112268000Y-91313000D01*
X112268000Y-91293000D01*
X112522000Y-91293000D01*
X112522000Y-91313000D01*
X114126720Y-91313000D01*
X114249220Y-91096930D01*
X114234262Y-91022724D01*
X114127122Y-90769465D01*
X113972632Y-90541974D01*
X113776729Y-90348994D01*
X113546942Y-90197941D01*
X113480587Y-90171038D01*
X113674887Y-90067183D01*
X113887608Y-89892608D01*
X114062183Y-89679887D01*
X114191904Y-89437195D01*
X114271786Y-89173860D01*
X114298759Y-88900000D01*
X114271786Y-88626140D01*
X114191904Y-88362805D01*
X114062183Y-88120113D01*
X113887608Y-87907392D01*
X113702622Y-87755579D01*
X113781482Y-87747812D01*
X113901180Y-87711502D01*
X114011494Y-87652537D01*
X114108185Y-87573185D01*
X114187537Y-87476494D01*
X114246502Y-87366180D01*
X114268094Y-87295000D01*
X117087711Y-87295000D01*
X118445000Y-88652289D01*
X118445001Y-91827528D01*
X118309078Y-91939078D01*
X118173491Y-92104290D01*
X118072741Y-92292780D01*
X118010700Y-92497303D01*
X117989751Y-92710000D01*
X118010700Y-92922697D01*
X118072741Y-93127220D01*
X118173491Y-93315710D01*
X118197529Y-93345000D01*
X118173491Y-93374290D01*
X118072741Y-93562780D01*
X118010700Y-93767303D01*
X117989751Y-93980000D01*
X118010700Y-94192697D01*
X118072741Y-94397220D01*
X118099007Y-94446360D01*
X118040498Y-94555820D01*
X118004188Y-94675518D01*
X117991928Y-94800000D01*
X117995000Y-94964250D01*
X118153750Y-95123000D01*
X119253000Y-95123000D01*
X119253000Y-95103000D01*
X119507000Y-95103000D01*
X119507000Y-95123000D01*
X120606250Y-95123000D01*
X120765000Y-94964250D01*
X120765921Y-94915000D01*
X122439079Y-94915000D01*
X122440000Y-94964250D01*
X122598750Y-95123000D01*
X123698000Y-95123000D01*
X123698000Y-95103000D01*
X123952000Y-95103000D01*
X123952000Y-95123000D01*
X125051250Y-95123000D01*
X125210000Y-94964250D01*
X125210921Y-94915000D01*
X125342711Y-94915000D01*
X126065000Y-95637290D01*
X126065001Y-97402709D01*
X125342711Y-98125000D01*
X125059264Y-98125000D01*
X125023932Y-98058899D01*
X124844608Y-97840392D01*
X124626101Y-97661068D01*
X124376808Y-97527818D01*
X124106309Y-97445764D01*
X123825000Y-97418057D01*
X123543692Y-97445764D01*
X123273193Y-97527818D01*
X123023900Y-97661068D01*
X122805393Y-97840392D01*
X122626068Y-98058899D01*
X122492818Y-98308192D01*
X122410764Y-98578691D01*
X122390000Y-98789508D01*
X122390000Y-99330491D01*
X122410764Y-99541308D01*
X122492818Y-99811807D01*
X122626068Y-100061100D01*
X122805392Y-100279607D01*
X123023899Y-100458932D01*
X123273192Y-100592182D01*
X123513244Y-100665000D01*
X120961755Y-100665000D01*
X121201807Y-100592182D01*
X121451100Y-100458932D01*
X121669607Y-100279608D01*
X121848932Y-100061101D01*
X121982182Y-99811808D01*
X122064236Y-99541309D01*
X122085000Y-99330492D01*
X122085000Y-98789509D01*
X122064236Y-98578692D01*
X121982182Y-98308193D01*
X121848932Y-98058899D01*
X121669608Y-97840392D01*
X121451101Y-97661068D01*
X121201808Y-97527818D01*
X120931309Y-97445764D01*
X120650000Y-97418057D01*
X120368692Y-97445764D01*
X120183173Y-97502040D01*
X120060932Y-97490000D01*
X120015000Y-97485476D01*
X119969068Y-97490000D01*
X114980935Y-97490000D01*
X114935000Y-97485476D01*
X114751708Y-97503528D01*
X114575459Y-97556993D01*
X114541771Y-97575000D01*
X114413028Y-97643814D01*
X114270656Y-97760656D01*
X114241370Y-97796341D01*
X113924890Y-98112821D01*
X113887608Y-98067392D01*
X113674887Y-97892817D01*
X113482529Y-97790000D01*
X113674887Y-97687183D01*
X113887608Y-97512608D01*
X114062183Y-97299887D01*
X114191904Y-97057195D01*
X114271786Y-96793860D01*
X114298759Y-96520000D01*
X114271786Y-96246140D01*
X114191904Y-95982805D01*
X114062183Y-95740113D01*
X114029264Y-95700000D01*
X117991928Y-95700000D01*
X118004188Y-95824482D01*
X118040498Y-95944180D01*
X118099463Y-96054494D01*
X118178815Y-96151185D01*
X118275506Y-96230537D01*
X118385820Y-96289502D01*
X118505518Y-96325812D01*
X118630000Y-96338072D01*
X119094250Y-96335000D01*
X119253000Y-96176250D01*
X119253000Y-95377000D01*
X119507000Y-95377000D01*
X119507000Y-96176250D01*
X119665750Y-96335000D01*
X120130000Y-96338072D01*
X120254482Y-96325812D01*
X120374180Y-96289502D01*
X120484494Y-96230537D01*
X120581185Y-96151185D01*
X120660537Y-96054494D01*
X120719502Y-95944180D01*
X120755812Y-95824482D01*
X120768072Y-95700000D01*
X122436928Y-95700000D01*
X122449188Y-95824482D01*
X122485498Y-95944180D01*
X122544463Y-96054494D01*
X122623815Y-96151185D01*
X122720506Y-96230537D01*
X122830820Y-96289502D01*
X122950518Y-96325812D01*
X123075000Y-96338072D01*
X123539250Y-96335000D01*
X123698000Y-96176250D01*
X123698000Y-95377000D01*
X123952000Y-95377000D01*
X123952000Y-96176250D01*
X124110750Y-96335000D01*
X124575000Y-96338072D01*
X124699482Y-96325812D01*
X124819180Y-96289502D01*
X124929494Y-96230537D01*
X125026185Y-96151185D01*
X125105537Y-96054494D01*
X125164502Y-95944180D01*
X125200812Y-95824482D01*
X125213072Y-95700000D01*
X125210000Y-95535750D01*
X125051250Y-95377000D01*
X123952000Y-95377000D01*
X123698000Y-95377000D01*
X122598750Y-95377000D01*
X122440000Y-95535750D01*
X122436928Y-95700000D01*
X120768072Y-95700000D01*
X120765000Y-95535750D01*
X120606250Y-95377000D01*
X119507000Y-95377000D01*
X119253000Y-95377000D01*
X118153750Y-95377000D01*
X117995000Y-95535750D01*
X117991928Y-95700000D01*
X114029264Y-95700000D01*
X113887608Y-95527392D01*
X113674887Y-95352817D01*
X113482529Y-95250000D01*
X113674887Y-95147183D01*
X113887608Y-94972608D01*
X114062183Y-94759887D01*
X114191904Y-94517195D01*
X114271786Y-94253860D01*
X114298759Y-93980000D01*
X114271786Y-93706140D01*
X114191904Y-93442805D01*
X114062183Y-93200113D01*
X113887608Y-92987392D01*
X113674887Y-92812817D01*
X113480587Y-92708962D01*
X113546942Y-92682059D01*
X113776729Y-92531006D01*
X113972632Y-92338026D01*
X114127122Y-92110535D01*
X114234262Y-91857276D01*
X114249220Y-91783070D01*
X114126720Y-91567000D01*
X112522000Y-91567000D01*
X112522000Y-91587000D01*
X112268000Y-91587000D01*
X112268000Y-91567000D01*
X110663280Y-91567000D01*
X110540780Y-91783070D01*
X110555738Y-91857276D01*
X110662878Y-92110535D01*
X110817368Y-92338026D01*
X111013271Y-92531006D01*
X111243058Y-92682059D01*
X111309413Y-92708962D01*
X111115113Y-92812817D01*
X110902392Y-92987392D01*
X110727817Y-93200113D01*
X110598096Y-93442805D01*
X110518214Y-93706140D01*
X110491241Y-93980000D01*
X110518214Y-94253860D01*
X110598096Y-94517195D01*
X110727817Y-94759887D01*
X110902392Y-94972608D01*
X111115113Y-95147183D01*
X111307471Y-95250000D01*
X111115113Y-95352817D01*
X110902392Y-95527392D01*
X110727817Y-95740113D01*
X110598096Y-95982805D01*
X110518214Y-96246140D01*
X110491241Y-96520000D01*
X110518214Y-96793860D01*
X110598096Y-97057195D01*
X110727817Y-97299887D01*
X110902392Y-97512608D01*
X111115113Y-97687183D01*
X111307471Y-97790000D01*
X111115113Y-97892817D01*
X110902392Y-98067392D01*
X110727817Y-98280113D01*
X110598096Y-98522805D01*
X110518214Y-98786140D01*
X110491241Y-99060000D01*
X110518214Y-99333860D01*
X110598096Y-99597195D01*
X110727817Y-99839887D01*
X110902392Y-100052608D01*
X111115113Y-100227183D01*
X111307471Y-100330000D01*
X111115113Y-100432817D01*
X110902392Y-100607392D01*
X110855115Y-100665000D01*
X105710000Y-100665000D01*
X105710000Y-100375932D01*
X105714524Y-100330000D01*
X105710000Y-100284065D01*
X105710000Y-78288725D01*
X105830134Y-78190134D01*
X106015706Y-77964014D01*
X106045000Y-77909208D01*
X106074294Y-77964013D01*
X106259866Y-78190134D01*
X106485986Y-78375706D01*
X106743966Y-78513599D01*
X107023889Y-78598513D01*
X107315000Y-78627185D01*
X107606110Y-78598513D01*
X107886033Y-78513599D01*
X108144013Y-78375706D01*
X108370134Y-78190134D01*
X108555706Y-77964014D01*
X108586895Y-77905663D01*
X108690824Y-78065619D01*
X108894748Y-78274857D01*
X109135574Y-78440291D01*
X109404047Y-78555563D01*
X109498110Y-78576476D01*
X109728000Y-78455155D01*
X109728000Y-76962000D01*
X109708000Y-76962000D01*
X109708000Y-76708000D01*
X109728000Y-76708000D01*
X109728000Y-76688000D01*
X109982000Y-76688000D01*
X109982000Y-76708000D01*
X110002000Y-76708000D01*
X110002000Y-76962000D01*
X109982000Y-76962000D01*
X109982000Y-78455155D01*
X110211890Y-78576476D01*
X110305953Y-78555563D01*
X110574426Y-78440291D01*
X110815252Y-78274857D01*
X110932775Y-78154272D01*
X110955498Y-78229180D01*
X111014463Y-78339494D01*
X111093815Y-78436185D01*
X111190506Y-78515537D01*
X111300820Y-78574502D01*
X111420518Y-78610812D01*
X111545000Y-78623072D01*
X113245000Y-78623072D01*
X113369482Y-78610812D01*
X113489180Y-78574502D01*
X113599494Y-78515537D01*
X113696185Y-78436185D01*
X113775537Y-78339494D01*
X113834502Y-78229180D01*
X113870812Y-78109482D01*
X113883072Y-77985000D01*
X113883072Y-75685000D01*
X113870812Y-75560518D01*
X113834502Y-75440820D01*
X113775537Y-75330506D01*
X113696185Y-75233815D01*
X113599494Y-75154463D01*
X113489180Y-75095498D01*
X113369482Y-75059188D01*
X113245000Y-75046928D01*
X111545000Y-75046928D01*
X111420518Y-75059188D01*
X111300820Y-75095498D01*
X111190506Y-75154463D01*
X111093815Y-75233815D01*
X111014463Y-75330506D01*
X110955498Y-75440820D01*
X110932775Y-75515728D01*
X110815252Y-75395143D01*
X110754132Y-75353157D01*
X111451875Y-74655415D01*
X111645516Y-74636343D01*
X111953715Y-74542852D01*
X112237752Y-74391031D01*
X112486714Y-74186714D01*
X112672773Y-73960000D01*
X115777227Y-73960000D01*
X115963286Y-74186714D01*
G36*
X91169294Y-95444014D02*
G01*
X91354866Y-95670134D01*
X91580986Y-95855706D01*
X91838966Y-95993599D01*
X92118889Y-96078513D01*
X92337050Y-96100000D01*
X93082950Y-96100000D01*
X93301111Y-96078513D01*
X93581034Y-95993599D01*
X93839014Y-95855706D01*
X94065134Y-95670134D01*
X94163725Y-95550000D01*
X98672711Y-95550000D01*
X103840000Y-100717290D01*
X103840001Y-101554058D01*
X103835476Y-101600000D01*
X103840000Y-101645932D01*
X103840001Y-107131274D01*
X103719866Y-107229866D01*
X103534294Y-107455986D01*
X103396401Y-107713966D01*
X103311487Y-107993889D01*
X103290000Y-108212050D01*
X103290000Y-108957949D01*
X103311487Y-109176110D01*
X103396401Y-109456033D01*
X103534294Y-109714013D01*
X103719866Y-109940134D01*
X103945986Y-110125706D01*
X104203966Y-110263599D01*
X104483889Y-110348513D01*
X104775000Y-110377185D01*
X105066110Y-110348513D01*
X105346033Y-110263599D01*
X105604013Y-110125706D01*
X105830134Y-109940134D01*
X106015706Y-109714014D01*
X106045000Y-109659208D01*
X106074294Y-109714013D01*
X106259866Y-109940134D01*
X106485986Y-110125706D01*
X106743966Y-110263599D01*
X107023889Y-110348513D01*
X107315000Y-110377185D01*
X107606110Y-110348513D01*
X107886033Y-110263599D01*
X108144013Y-110125706D01*
X108370134Y-109940134D01*
X108555706Y-109714014D01*
X108586895Y-109655663D01*
X108690824Y-109815619D01*
X108894748Y-110024857D01*
X109135574Y-110190291D01*
X109404047Y-110305563D01*
X109498110Y-110326476D01*
X109728000Y-110205155D01*
X109728000Y-108712000D01*
X109708000Y-108712000D01*
X109708000Y-108458000D01*
X109728000Y-108458000D01*
X109728000Y-106964845D01*
X109498110Y-106843524D01*
X109404047Y-106864437D01*
X109135574Y-106979709D01*
X108894748Y-107145143D01*
X108690824Y-107354381D01*
X108586895Y-107514337D01*
X108555706Y-107455986D01*
X108370134Y-107229866D01*
X108250000Y-107131275D01*
X108250000Y-105857295D01*
X108292431Y-105754858D01*
X108337289Y-105710000D01*
X119434444Y-105710000D01*
X119317818Y-105928192D01*
X119235764Y-106198691D01*
X119215000Y-106409508D01*
X119215000Y-106792711D01*
X118357711Y-107650000D01*
X118074264Y-107650000D01*
X118038932Y-107583899D01*
X117859608Y-107365392D01*
X117641101Y-107186068D01*
X117391808Y-107052818D01*
X117121309Y-106970764D01*
X116840000Y-106943057D01*
X116558692Y-106970764D01*
X116288193Y-107052818D01*
X116038900Y-107186068D01*
X115820393Y-107365392D01*
X115641068Y-107583899D01*
X115605736Y-107650000D01*
X113883072Y-107650000D01*
X113883072Y-107435000D01*
X113870812Y-107310518D01*
X113834502Y-107190820D01*
X113775537Y-107080506D01*
X113696185Y-106983815D01*
X113599494Y-106904463D01*
X113489180Y-106845498D01*
X113369482Y-106809188D01*
X113245000Y-106796928D01*
X111545000Y-106796928D01*
X111420518Y-106809188D01*
X111300820Y-106845498D01*
X111190506Y-106904463D01*
X111093815Y-106983815D01*
X111014463Y-107080506D01*
X110955498Y-107190820D01*
X110932775Y-107265728D01*
X110815252Y-107145143D01*
X110574426Y-106979709D01*
X110305953Y-106864437D01*
X110211890Y-106843524D01*
X109982000Y-106964845D01*
X109982000Y-108458000D01*
X110002000Y-108458000D01*
X110002000Y-108712000D01*
X109982000Y-108712000D01*
X109982000Y-110205155D01*
X110211890Y-110326476D01*
X110305953Y-110305563D01*
X110574426Y-110190291D01*
X110815252Y-110024857D01*
X110932775Y-109904272D01*
X110955498Y-109979180D01*
X111014463Y-110089494D01*
X111093815Y-110186185D01*
X111190506Y-110265537D01*
X111300820Y-110324502D01*
X111420518Y-110360812D01*
X111460000Y-110364701D01*
X111460000Y-111372711D01*
X111372711Y-111460000D01*
X99447290Y-111460000D01*
X98725000Y-110737711D01*
X98725000Y-104185931D01*
X98729524Y-104139999D01*
X98711471Y-103956707D01*
X98676068Y-103840000D01*
X98658007Y-103780460D01*
X98642163Y-103750817D01*
X98997863Y-103898153D01*
X99459606Y-103990000D01*
X99930394Y-103990000D01*
X100392137Y-103898153D01*
X100827089Y-103717990D01*
X101218536Y-103456434D01*
X101551434Y-103123536D01*
X101812990Y-102732089D01*
X101993153Y-102297137D01*
X102085000Y-101835394D01*
X102085000Y-101364606D01*
X101993153Y-100902863D01*
X101812990Y-100467911D01*
X101551434Y-100076464D01*
X101218536Y-99743566D01*
X100827089Y-99482010D01*
X100392137Y-99301847D01*
X99930394Y-99210000D01*
X99459606Y-99210000D01*
X98997863Y-99301847D01*
X98562911Y-99482010D01*
X98171464Y-99743566D01*
X97838566Y-100076464D01*
X97577010Y-100467911D01*
X97396847Y-100902863D01*
X97305000Y-101364606D01*
X97305000Y-101835394D01*
X97396847Y-102297137D01*
X97486947Y-102514657D01*
X95308630Y-100336341D01*
X95279344Y-100300656D01*
X95136972Y-100183814D01*
X94974540Y-100096993D01*
X94798292Y-100043529D01*
X94660932Y-100030000D01*
X94615000Y-100025476D01*
X94569068Y-100030000D01*
X94163725Y-100030000D01*
X94065134Y-99909866D01*
X93839014Y-99724294D01*
X93581034Y-99586401D01*
X93301111Y-99501487D01*
X93082950Y-99480000D01*
X92337050Y-99480000D01*
X92118889Y-99501487D01*
X91838966Y-99586401D01*
X91580986Y-99724294D01*
X91354866Y-99909866D01*
X91256275Y-100030000D01*
X91192289Y-100030000D01*
X91105000Y-99942711D01*
X91105000Y-95323728D01*
X91169294Y-95444014D01*
G37*
X91169294Y-95444014D02*
X91354866Y-95670134D01*
X91580986Y-95855706D01*
X91838966Y-95993599D01*
X92118889Y-96078513D01*
X92337050Y-96100000D01*
X93082950Y-96100000D01*
X93301111Y-96078513D01*
X93581034Y-95993599D01*
X93839014Y-95855706D01*
X94065134Y-95670134D01*
X94163725Y-95550000D01*
X98672711Y-95550000D01*
X103840000Y-100717290D01*
X103840001Y-101554058D01*
X103835476Y-101600000D01*
X103840000Y-101645932D01*
X103840001Y-107131274D01*
X103719866Y-107229866D01*
X103534294Y-107455986D01*
X103396401Y-107713966D01*
X103311487Y-107993889D01*
X103290000Y-108212050D01*
X103290000Y-108957949D01*
X103311487Y-109176110D01*
X103396401Y-109456033D01*
X103534294Y-109714013D01*
X103719866Y-109940134D01*
X103945986Y-110125706D01*
X104203966Y-110263599D01*
X104483889Y-110348513D01*
X104775000Y-110377185D01*
X105066110Y-110348513D01*
X105346033Y-110263599D01*
X105604013Y-110125706D01*
X105830134Y-109940134D01*
X106015706Y-109714014D01*
X106045000Y-109659208D01*
X106074294Y-109714013D01*
X106259866Y-109940134D01*
X106485986Y-110125706D01*
X106743966Y-110263599D01*
X107023889Y-110348513D01*
X107315000Y-110377185D01*
X107606110Y-110348513D01*
X107886033Y-110263599D01*
X108144013Y-110125706D01*
X108370134Y-109940134D01*
X108555706Y-109714014D01*
X108586895Y-109655663D01*
X108690824Y-109815619D01*
X108894748Y-110024857D01*
X109135574Y-110190291D01*
X109404047Y-110305563D01*
X109498110Y-110326476D01*
X109728000Y-110205155D01*
X109728000Y-108712000D01*
X109708000Y-108712000D01*
X109708000Y-108458000D01*
X109728000Y-108458000D01*
X109728000Y-106964845D01*
X109498110Y-106843524D01*
X109404047Y-106864437D01*
X109135574Y-106979709D01*
X108894748Y-107145143D01*
X108690824Y-107354381D01*
X108586895Y-107514337D01*
X108555706Y-107455986D01*
X108370134Y-107229866D01*
X108250000Y-107131275D01*
X108250000Y-105857295D01*
X108292431Y-105754858D01*
X108337289Y-105710000D01*
X119434444Y-105710000D01*
X119317818Y-105928192D01*
X119235764Y-106198691D01*
X119215000Y-106409508D01*
X119215000Y-106792711D01*
X118357711Y-107650000D01*
X118074264Y-107650000D01*
X118038932Y-107583899D01*
X117859608Y-107365392D01*
X117641101Y-107186068D01*
X117391808Y-107052818D01*
X117121309Y-106970764D01*
X116840000Y-106943057D01*
X116558692Y-106970764D01*
X116288193Y-107052818D01*
X116038900Y-107186068D01*
X115820393Y-107365392D01*
X115641068Y-107583899D01*
X115605736Y-107650000D01*
X113883072Y-107650000D01*
X113883072Y-107435000D01*
X113870812Y-107310518D01*
X113834502Y-107190820D01*
X113775537Y-107080506D01*
X113696185Y-106983815D01*
X113599494Y-106904463D01*
X113489180Y-106845498D01*
X113369482Y-106809188D01*
X113245000Y-106796928D01*
X111545000Y-106796928D01*
X111420518Y-106809188D01*
X111300820Y-106845498D01*
X111190506Y-106904463D01*
X111093815Y-106983815D01*
X111014463Y-107080506D01*
X110955498Y-107190820D01*
X110932775Y-107265728D01*
X110815252Y-107145143D01*
X110574426Y-106979709D01*
X110305953Y-106864437D01*
X110211890Y-106843524D01*
X109982000Y-106964845D01*
X109982000Y-108458000D01*
X110002000Y-108458000D01*
X110002000Y-108712000D01*
X109982000Y-108712000D01*
X109982000Y-110205155D01*
X110211890Y-110326476D01*
X110305953Y-110305563D01*
X110574426Y-110190291D01*
X110815252Y-110024857D01*
X110932775Y-109904272D01*
X110955498Y-109979180D01*
X111014463Y-110089494D01*
X111093815Y-110186185D01*
X111190506Y-110265537D01*
X111300820Y-110324502D01*
X111420518Y-110360812D01*
X111460000Y-110364701D01*
X111460000Y-111372711D01*
X111372711Y-111460000D01*
X99447290Y-111460000D01*
X98725000Y-110737711D01*
X98725000Y-104185931D01*
X98729524Y-104139999D01*
X98711471Y-103956707D01*
X98676068Y-103840000D01*
X98658007Y-103780460D01*
X98642163Y-103750817D01*
X98997863Y-103898153D01*
X99459606Y-103990000D01*
X99930394Y-103990000D01*
X100392137Y-103898153D01*
X100827089Y-103717990D01*
X101218536Y-103456434D01*
X101551434Y-103123536D01*
X101812990Y-102732089D01*
X101993153Y-102297137D01*
X102085000Y-101835394D01*
X102085000Y-101364606D01*
X101993153Y-100902863D01*
X101812990Y-100467911D01*
X101551434Y-100076464D01*
X101218536Y-99743566D01*
X100827089Y-99482010D01*
X100392137Y-99301847D01*
X99930394Y-99210000D01*
X99459606Y-99210000D01*
X98997863Y-99301847D01*
X98562911Y-99482010D01*
X98171464Y-99743566D01*
X97838566Y-100076464D01*
X97577010Y-100467911D01*
X97396847Y-100902863D01*
X97305000Y-101364606D01*
X97305000Y-101835394D01*
X97396847Y-102297137D01*
X97486947Y-102514657D01*
X95308630Y-100336341D01*
X95279344Y-100300656D01*
X95136972Y-100183814D01*
X94974540Y-100096993D01*
X94798292Y-100043529D01*
X94660932Y-100030000D01*
X94615000Y-100025476D01*
X94569068Y-100030000D01*
X94163725Y-100030000D01*
X94065134Y-99909866D01*
X93839014Y-99724294D01*
X93581034Y-99586401D01*
X93301111Y-99501487D01*
X93082950Y-99480000D01*
X92337050Y-99480000D01*
X92118889Y-99501487D01*
X91838966Y-99586401D01*
X91580986Y-99724294D01*
X91354866Y-99909866D01*
X91256275Y-100030000D01*
X91192289Y-100030000D01*
X91105000Y-99942711D01*
X91105000Y-95323728D01*
X91169294Y-95444014D01*
G36*
X107060773Y-66760570D02*
G01*
X106827338Y-66919327D01*
X106629361Y-67120575D01*
X106474449Y-67356579D01*
X106410313Y-67515078D01*
X106370922Y-67458683D01*
X106138954Y-67236105D01*
X105868020Y-67063058D01*
X105568532Y-66946193D01*
X105252000Y-66890000D01*
X104902000Y-66890000D01*
X104902000Y-68398000D01*
X104922000Y-68398000D01*
X104922000Y-68652000D01*
X104902000Y-68652000D01*
X104902000Y-70160000D01*
X105252000Y-70160000D01*
X105568532Y-70103807D01*
X105868020Y-69986942D01*
X106138954Y-69813895D01*
X106370922Y-69591317D01*
X106555010Y-69327761D01*
X106684144Y-69033355D01*
X106693519Y-68994643D01*
X106827338Y-69130673D01*
X107060773Y-69289430D01*
X107320694Y-69399596D01*
X107597113Y-69456937D01*
X107823000Y-69304474D01*
X107823000Y-68152000D01*
X107803000Y-68152000D01*
X107803000Y-67898000D01*
X107823000Y-67898000D01*
X107823000Y-67878000D01*
X108077000Y-67878000D01*
X108077000Y-67898000D01*
X108097000Y-67898000D01*
X108097000Y-68152000D01*
X108077000Y-68152000D01*
X108077000Y-69304474D01*
X108302887Y-69456937D01*
X108579306Y-69399596D01*
X108839227Y-69289430D01*
X109072662Y-69130673D01*
X109097478Y-69105447D01*
X109194990Y-69327761D01*
X109379078Y-69591317D01*
X109611046Y-69813895D01*
X109881980Y-69986942D01*
X110181468Y-70103807D01*
X110498000Y-70160000D01*
X110848000Y-70160000D01*
X110848000Y-68652000D01*
X111102000Y-68652000D01*
X111102000Y-70160000D01*
X111452000Y-70160000D01*
X111768532Y-70103807D01*
X112068020Y-69986942D01*
X112338954Y-69813895D01*
X112570922Y-69591317D01*
X112755010Y-69327761D01*
X112884144Y-69033355D01*
X112915124Y-68905434D01*
X115534876Y-68905434D01*
X115565856Y-69033355D01*
X115694990Y-69327761D01*
X115879078Y-69591317D01*
X116111046Y-69813895D01*
X116381980Y-69986942D01*
X116681468Y-70103807D01*
X116998000Y-70160000D01*
X117348000Y-70160000D01*
X117348000Y-68652000D01*
X117602000Y-68652000D01*
X117602000Y-70160000D01*
X117952000Y-70160000D01*
X118268532Y-70103807D01*
X118568020Y-69986942D01*
X118838954Y-69813895D01*
X119070922Y-69591317D01*
X119255010Y-69327761D01*
X119384144Y-69033355D01*
X119415124Y-68905434D01*
X119295777Y-68652000D01*
X117602000Y-68652000D01*
X117348000Y-68652000D01*
X115654223Y-68652000D01*
X115534876Y-68905434D01*
X112915124Y-68905434D01*
X112795777Y-68652000D01*
X111102000Y-68652000D01*
X110848000Y-68652000D01*
X110828000Y-68652000D01*
X110828000Y-68398000D01*
X110848000Y-68398000D01*
X110848000Y-66890000D01*
X111102000Y-66890000D01*
X111102000Y-68398000D01*
X112795777Y-68398000D01*
X112915124Y-68144566D01*
X115534876Y-68144566D01*
X115654223Y-68398000D01*
X117348000Y-68398000D01*
X117348000Y-66890000D01*
X117602000Y-66890000D01*
X117602000Y-68398000D01*
X119295777Y-68398000D01*
X119307060Y-68374039D01*
X119693096Y-68374039D01*
X119703556Y-68431730D01*
X119809449Y-68693421D01*
X119964361Y-68929425D01*
X120162338Y-69130673D01*
X120395773Y-69289430D01*
X120655694Y-69399596D01*
X120932113Y-69456937D01*
X121158000Y-69304474D01*
X121158000Y-68152000D01*
X121412000Y-68152000D01*
X121412000Y-69304474D01*
X121637887Y-69456937D01*
X121914306Y-69399596D01*
X122174227Y-69289430D01*
X122407662Y-69130673D01*
X122605639Y-68929425D01*
X122760551Y-68693421D01*
X122866444Y-68431730D01*
X122876904Y-68374039D01*
X122754915Y-68152000D01*
X121412000Y-68152000D01*
X121158000Y-68152000D01*
X119815085Y-68152000D01*
X119693096Y-68374039D01*
X119307060Y-68374039D01*
X119415124Y-68144566D01*
X119384144Y-68016645D01*
X119255010Y-67722239D01*
X119070922Y-67458683D01*
X118838954Y-67236105D01*
X118568020Y-67063058D01*
X118268532Y-66946193D01*
X117952000Y-66890000D01*
X117602000Y-66890000D01*
X117348000Y-66890000D01*
X116998000Y-66890000D01*
X116681468Y-66946193D01*
X116381980Y-67063058D01*
X116111046Y-67236105D01*
X115879078Y-67458683D01*
X115694990Y-67722239D01*
X115565856Y-68016645D01*
X115534876Y-68144566D01*
X112915124Y-68144566D01*
X112884144Y-68016645D01*
X112755010Y-67722239D01*
X112570922Y-67458683D01*
X112338954Y-67236105D01*
X112068020Y-67063058D01*
X111768532Y-66946193D01*
X111452000Y-66890000D01*
X111102000Y-66890000D01*
X110848000Y-66890000D01*
X110498000Y-66890000D01*
X110181468Y-66946193D01*
X109881980Y-67063058D01*
X109611046Y-67236105D01*
X109442315Y-67398006D01*
X109425551Y-67356579D01*
X109270639Y-67120575D01*
X109072662Y-66919327D01*
X108839227Y-66760570D01*
X108696321Y-66700000D01*
X120538679Y-66700000D01*
X120395773Y-66760570D01*
X120162338Y-66919327D01*
X119964361Y-67120575D01*
X119809449Y-67356579D01*
X119703556Y-67618270D01*
X119693096Y-67675961D01*
X119815085Y-67898000D01*
X121158000Y-67898000D01*
X121158000Y-67878000D01*
X121412000Y-67878000D01*
X121412000Y-67898000D01*
X122754915Y-67898000D01*
X122876904Y-67675961D01*
X122866444Y-67618270D01*
X122760551Y-67356579D01*
X122605639Y-67120575D01*
X122407662Y-66919327D01*
X122174227Y-66760570D01*
X122031321Y-66700000D01*
X132637711Y-66700000D01*
X132086336Y-67251375D01*
X132050657Y-67280656D01*
X131933815Y-67423028D01*
X131846994Y-67585460D01*
X131793529Y-67761709D01*
X131775476Y-67945000D01*
X131780001Y-67990942D01*
X131780001Y-68615736D01*
X131713899Y-68651068D01*
X131495392Y-68830392D01*
X131316068Y-69048899D01*
X131182818Y-69298192D01*
X131100764Y-69568691D01*
X131073057Y-69850000D01*
X131100764Y-70131309D01*
X131182818Y-70401808D01*
X131316068Y-70651101D01*
X131495392Y-70869608D01*
X131713899Y-71048932D01*
X131780000Y-71084264D01*
X131780001Y-71790736D01*
X131713899Y-71826068D01*
X131495392Y-72005392D01*
X131316068Y-72223899D01*
X131182818Y-72473192D01*
X131100764Y-72743691D01*
X131073057Y-73025000D01*
X131100764Y-73306309D01*
X131182818Y-73576808D01*
X131316068Y-73826101D01*
X131495392Y-74044608D01*
X131713899Y-74223932D01*
X131963192Y-74357182D01*
X132233691Y-74439236D01*
X132444508Y-74460000D01*
X132985492Y-74460000D01*
X133196309Y-74439236D01*
X133466808Y-74357182D01*
X133716101Y-74223932D01*
X133934608Y-74044608D01*
X134113932Y-73826101D01*
X134247182Y-73576808D01*
X134329236Y-73306309D01*
X134356943Y-73025000D01*
X134329236Y-72743691D01*
X134247182Y-72473192D01*
X134113932Y-72223899D01*
X133934608Y-72005392D01*
X133716101Y-71826068D01*
X133650000Y-71790736D01*
X133650000Y-71084264D01*
X133716101Y-71048932D01*
X133934608Y-70869608D01*
X134113932Y-70651101D01*
X134247182Y-70401808D01*
X134329236Y-70131309D01*
X134356943Y-69850000D01*
X134329236Y-69568691D01*
X134247182Y-69298192D01*
X134113932Y-69048899D01*
X133934608Y-68830392D01*
X133716101Y-68651068D01*
X133650000Y-68615736D01*
X133650000Y-68332289D01*
X133737289Y-68245000D01*
X137085592Y-68245000D01*
X137189294Y-68439013D01*
X137374866Y-68665134D01*
X137600986Y-68850706D01*
X137688532Y-68897500D01*
X137600987Y-68944294D01*
X137374866Y-69129866D01*
X137189294Y-69355986D01*
X137051401Y-69613966D01*
X136966487Y-69893889D01*
X136945000Y-70112050D01*
X136945000Y-70857949D01*
X136966487Y-71076110D01*
X137051401Y-71356033D01*
X137189294Y-71614013D01*
X137374866Y-71840134D01*
X137600986Y-72025706D01*
X137686363Y-72071341D01*
X137469748Y-72220143D01*
X137265824Y-72429381D01*
X137106639Y-72674382D01*
X136998310Y-72945731D01*
X136945000Y-73233000D01*
X136945000Y-73533000D01*
X138303000Y-73533000D01*
X138303000Y-73513000D01*
X138557000Y-73513000D01*
X138557000Y-73533000D01*
X140843000Y-73533000D01*
X140843000Y-73513000D01*
X141097000Y-73513000D01*
X141097000Y-73533000D01*
X143383000Y-73533000D01*
X143383000Y-73513000D01*
X143637000Y-73513000D01*
X143637000Y-73533000D01*
X145923000Y-73533000D01*
X145923000Y-73513000D01*
X146177000Y-73513000D01*
X146177000Y-73533000D01*
X147376250Y-73533000D01*
X147535000Y-73374250D01*
X147538072Y-72510000D01*
X147525812Y-72385518D01*
X147489502Y-72265820D01*
X147430537Y-72155506D01*
X147362416Y-72072500D01*
X147430537Y-71989494D01*
X147489502Y-71879180D01*
X147525812Y-71759482D01*
X147538072Y-71635000D01*
X147538072Y-71420000D01*
X148202711Y-71420000D01*
X148290001Y-71507290D01*
X148290000Y-76651275D01*
X148169866Y-76749866D01*
X147984294Y-76975986D01*
X147953105Y-77034337D01*
X147849176Y-76874381D01*
X147645252Y-76665143D01*
X147404426Y-76499709D01*
X147135953Y-76384437D01*
X147041890Y-76363524D01*
X146812000Y-76484845D01*
X146812000Y-77978000D01*
X146832000Y-77978000D01*
X146832000Y-78232000D01*
X146812000Y-78232000D01*
X146812000Y-79725155D01*
X147041890Y-79846476D01*
X147135953Y-79825563D01*
X147404426Y-79710291D01*
X147645252Y-79544857D01*
X147849176Y-79335619D01*
X147953105Y-79175662D01*
X147984294Y-79234013D01*
X148169866Y-79460134D01*
X148290000Y-79558726D01*
X148290001Y-81010115D01*
X148232393Y-81057392D01*
X148057817Y-81270113D01*
X147953962Y-81464413D01*
X147927059Y-81398058D01*
X147776006Y-81168271D01*
X147583026Y-80972368D01*
X147355535Y-80817878D01*
X147102276Y-80710738D01*
X147028070Y-80695780D01*
X146812000Y-80818280D01*
X146812000Y-82423000D01*
X146832000Y-82423000D01*
X146832000Y-82677000D01*
X146812000Y-82677000D01*
X146812000Y-84281720D01*
X147028070Y-84404220D01*
X147102276Y-84389262D01*
X147355535Y-84282122D01*
X147583026Y-84127632D01*
X147776006Y-83931729D01*
X147927059Y-83701942D01*
X147953962Y-83635586D01*
X148057817Y-83829886D01*
X148232392Y-84042607D01*
X148290000Y-84089885D01*
X148290001Y-85679058D01*
X148285476Y-85725000D01*
X148303529Y-85908291D01*
X148349550Y-86060000D01*
X148356994Y-86084540D01*
X148443815Y-86246972D01*
X148560657Y-86389344D01*
X148561458Y-86390001D01*
X139905536Y-86390001D01*
X139868937Y-86335226D01*
X139724774Y-86191063D01*
X139555256Y-86077795D01*
X139366898Y-85999774D01*
X139166939Y-85960000D01*
X138963061Y-85960000D01*
X138763102Y-85999774D01*
X138574744Y-86077795D01*
X138405226Y-86191063D01*
X138261063Y-86335226D01*
X138147795Y-86504744D01*
X138069774Y-86693102D01*
X138030000Y-86893061D01*
X138030000Y-87096939D01*
X138069774Y-87296898D01*
X138147795Y-87485256D01*
X138261063Y-87654774D01*
X138405226Y-87798937D01*
X138574744Y-87912205D01*
X138702201Y-87965000D01*
X138182290Y-87965000D01*
X137460000Y-87242711D01*
X137460000Y-84089885D01*
X137517607Y-84042608D01*
X137692183Y-83829887D01*
X137795000Y-83637529D01*
X137897817Y-83829886D01*
X138072392Y-84042607D01*
X138285113Y-84217183D01*
X138527805Y-84346904D01*
X138791140Y-84426786D01*
X139065000Y-84453759D01*
X139338859Y-84426786D01*
X139602194Y-84346904D01*
X139844886Y-84217183D01*
X140057607Y-84042608D01*
X140232183Y-83829887D01*
X140335000Y-83637529D01*
X140437817Y-83829886D01*
X140612392Y-84042607D01*
X140825113Y-84217183D01*
X141067805Y-84346904D01*
X141331140Y-84426786D01*
X141605000Y-84453759D01*
X141878859Y-84426786D01*
X142142194Y-84346904D01*
X142384886Y-84217183D01*
X142597607Y-84042608D01*
X142772183Y-83829887D01*
X142875000Y-83637529D01*
X142977817Y-83829886D01*
X143152392Y-84042607D01*
X143365113Y-84217183D01*
X143607805Y-84346904D01*
X143871140Y-84426786D01*
X144145000Y-84453759D01*
X144418859Y-84426786D01*
X144682194Y-84346904D01*
X144924886Y-84217183D01*
X145137607Y-84042608D01*
X145312183Y-83829887D01*
X145416038Y-83635587D01*
X145442941Y-83701942D01*
X145593994Y-83931729D01*
X145786974Y-84127632D01*
X146014465Y-84282122D01*
X146267724Y-84389262D01*
X146341930Y-84404220D01*
X146558000Y-84281720D01*
X146558000Y-82677000D01*
X146538000Y-82677000D01*
X146538000Y-82423000D01*
X146558000Y-82423000D01*
X146558000Y-80818280D01*
X146341930Y-80695780D01*
X146267724Y-80710738D01*
X146014465Y-80817878D01*
X145786974Y-80972368D01*
X145593994Y-81168271D01*
X145442941Y-81398058D01*
X145416038Y-81464413D01*
X145312183Y-81270113D01*
X145137608Y-81057392D01*
X145080000Y-81010115D01*
X145080000Y-79558725D01*
X145200134Y-79460134D01*
X145385706Y-79234014D01*
X145416895Y-79175663D01*
X145520824Y-79335619D01*
X145724748Y-79544857D01*
X145965574Y-79710291D01*
X146234047Y-79825563D01*
X146328110Y-79846476D01*
X146558000Y-79725155D01*
X146558000Y-78232000D01*
X146538000Y-78232000D01*
X146538000Y-77978000D01*
X146558000Y-77978000D01*
X146558000Y-76484845D01*
X146328110Y-76363524D01*
X146234047Y-76384437D01*
X145965574Y-76499709D01*
X145724748Y-76665143D01*
X145520824Y-76874381D01*
X145416895Y-77034337D01*
X145385706Y-76975986D01*
X145200134Y-76749866D01*
X144974014Y-76564294D01*
X144716034Y-76426401D01*
X144436111Y-76341487D01*
X144145000Y-76312815D01*
X143853890Y-76341487D01*
X143573967Y-76426401D01*
X143315987Y-76564294D01*
X143089866Y-76749866D01*
X142904294Y-76975986D01*
X142875000Y-77030791D01*
X142845706Y-76975986D01*
X142660134Y-76749866D01*
X142434014Y-76564294D01*
X142176034Y-76426401D01*
X141896111Y-76341487D01*
X141605000Y-76312815D01*
X141313890Y-76341487D01*
X141033967Y-76426401D01*
X140775987Y-76564294D01*
X140549866Y-76749866D01*
X140364294Y-76975986D01*
X140335000Y-77030791D01*
X140305706Y-76975986D01*
X140120134Y-76749866D01*
X140000000Y-76651275D01*
X140000000Y-76245935D01*
X140004524Y-76200000D01*
X139986472Y-76016708D01*
X139933007Y-75840459D01*
X139902765Y-75783880D01*
X139846186Y-75678028D01*
X139729344Y-75535656D01*
X139693660Y-75506371D01*
X139329132Y-75141843D01*
X139390252Y-75099857D01*
X139594176Y-74890619D01*
X139700000Y-74727746D01*
X139805824Y-74890619D01*
X140009748Y-75099857D01*
X140250574Y-75265291D01*
X140519047Y-75380563D01*
X140613110Y-75401476D01*
X140843000Y-75280155D01*
X140843000Y-73787000D01*
X141097000Y-73787000D01*
X141097000Y-75280155D01*
X141326890Y-75401476D01*
X141420953Y-75380563D01*
X141689426Y-75265291D01*
X141930252Y-75099857D01*
X142134176Y-74890619D01*
X142240000Y-74727746D01*
X142345824Y-74890619D01*
X142549748Y-75099857D01*
X142790574Y-75265291D01*
X143059047Y-75380563D01*
X143153110Y-75401476D01*
X143383000Y-75280155D01*
X143383000Y-73787000D01*
X143637000Y-73787000D01*
X143637000Y-75280155D01*
X143866890Y-75401476D01*
X143960953Y-75380563D01*
X144229426Y-75265291D01*
X144470252Y-75099857D01*
X144587775Y-74979272D01*
X144610498Y-75054180D01*
X144669463Y-75164494D01*
X144748815Y-75261185D01*
X144845506Y-75340537D01*
X144955820Y-75399502D01*
X145075518Y-75435812D01*
X145200000Y-75448072D01*
X145764250Y-75445000D01*
X145923000Y-75286250D01*
X145923000Y-73787000D01*
X146177000Y-73787000D01*
X146177000Y-75286250D01*
X146335750Y-75445000D01*
X146900000Y-75448072D01*
X147024482Y-75435812D01*
X147144180Y-75399502D01*
X147254494Y-75340537D01*
X147351185Y-75261185D01*
X147430537Y-75164494D01*
X147489502Y-75054180D01*
X147525812Y-74934482D01*
X147538072Y-74810000D01*
X147535000Y-73945750D01*
X147376250Y-73787000D01*
X146177000Y-73787000D01*
X145923000Y-73787000D01*
X143637000Y-73787000D01*
X143383000Y-73787000D01*
X141097000Y-73787000D01*
X140843000Y-73787000D01*
X138557000Y-73787000D01*
X138557000Y-73807000D01*
X138303000Y-73807000D01*
X138303000Y-73787000D01*
X136945000Y-73787000D01*
X136945000Y-74087000D01*
X136998310Y-74374269D01*
X137100404Y-74630000D01*
X131197289Y-74630000D01*
X129840000Y-73272711D01*
X129840000Y-71165931D01*
X129844524Y-71119999D01*
X129826471Y-70936707D01*
X129810253Y-70883243D01*
X129773007Y-70760460D01*
X129686186Y-70598028D01*
X129569344Y-70455656D01*
X129533665Y-70426375D01*
X128328630Y-69221341D01*
X128299344Y-69185656D01*
X128156972Y-69068814D01*
X127994540Y-68981993D01*
X127818292Y-68928529D01*
X127680932Y-68915000D01*
X127635000Y-68910476D01*
X127589068Y-68915000D01*
X126384044Y-68915000D01*
X126314608Y-68830392D01*
X126096101Y-68651068D01*
X125846808Y-68517818D01*
X125576309Y-68435764D01*
X125365492Y-68415000D01*
X124824508Y-68415000D01*
X124613691Y-68435764D01*
X124343192Y-68517818D01*
X124093899Y-68651068D01*
X123875392Y-68830392D01*
X123805956Y-68915000D01*
X123235931Y-68915000D01*
X123189999Y-68910476D01*
X123006707Y-68928529D01*
X122953243Y-68944747D01*
X122830460Y-68981993D01*
X122668028Y-69068814D01*
X122525656Y-69185656D01*
X122496374Y-69221336D01*
X121532711Y-70185000D01*
X106725932Y-70185000D01*
X106680000Y-70180476D01*
X106634068Y-70185000D01*
X106496708Y-70198529D01*
X106320460Y-70251993D01*
X106158028Y-70338814D01*
X106015656Y-70455656D01*
X105986370Y-70491341D01*
X105087711Y-71390000D01*
X104344678Y-71390000D01*
X104104484Y-71413657D01*
X103796285Y-71507148D01*
X103512248Y-71658969D01*
X103263286Y-71863286D01*
X103077227Y-72090000D01*
X99972773Y-72090000D01*
X99786714Y-71863286D01*
X99537752Y-71658969D01*
X99253715Y-71507148D01*
X98945516Y-71413657D01*
X98705322Y-71390000D01*
X97844678Y-71390000D01*
X97604484Y-71413657D01*
X97296285Y-71507148D01*
X97012248Y-71658969D01*
X96763286Y-71863286D01*
X96577227Y-72090000D01*
X96565931Y-72090000D01*
X96519999Y-72085476D01*
X96336707Y-72103529D01*
X96307965Y-72112248D01*
X96160460Y-72156993D01*
X95998028Y-72243814D01*
X95855656Y-72360656D01*
X95826376Y-72396334D01*
X94621336Y-73601375D01*
X94585657Y-73630656D01*
X94468815Y-73773028D01*
X94404651Y-73893072D01*
X94381994Y-73935460D01*
X94328529Y-74111709D01*
X94310476Y-74295000D01*
X94315001Y-74340942D01*
X94315001Y-76808464D01*
X94311185Y-76803815D01*
X94214494Y-76724463D01*
X94104180Y-76665498D01*
X93984482Y-76629188D01*
X93860000Y-76616928D01*
X92995750Y-76620000D01*
X92837000Y-76778750D01*
X92837000Y-77978000D01*
X92857000Y-77978000D01*
X92857000Y-78232000D01*
X92837000Y-78232000D01*
X92837000Y-78252000D01*
X92583000Y-78252000D01*
X92583000Y-78232000D01*
X91083750Y-78232000D01*
X90925000Y-78390750D01*
X90921928Y-78955000D01*
X90934188Y-79079482D01*
X90970498Y-79199180D01*
X91029463Y-79309494D01*
X91108815Y-79406185D01*
X91205506Y-79485537D01*
X91315820Y-79544502D01*
X91384687Y-79565393D01*
X91354866Y-79589866D01*
X91169294Y-79815986D01*
X91031401Y-80073966D01*
X90946487Y-80353889D01*
X90917815Y-80645000D01*
X90946487Y-80936111D01*
X91031401Y-81216034D01*
X91169294Y-81474014D01*
X91354866Y-81700134D01*
X91580986Y-81885706D01*
X91838966Y-82023599D01*
X92118889Y-82108513D01*
X92337050Y-82130000D01*
X93082950Y-82130000D01*
X93301111Y-82108513D01*
X93581034Y-82023599D01*
X93839014Y-81885706D01*
X94065134Y-81700134D01*
X94178652Y-81561811D01*
X94339540Y-81513007D01*
X94501972Y-81426186D01*
X94644344Y-81309344D01*
X94673630Y-81273659D01*
X95878665Y-80068625D01*
X95914344Y-80039344D01*
X96031186Y-79896972D01*
X96118007Y-79734540D01*
X96171471Y-79558292D01*
X96177293Y-79499180D01*
X96186706Y-79403615D01*
X96188815Y-79406185D01*
X96285506Y-79485537D01*
X96395820Y-79544502D01*
X96464687Y-79565393D01*
X96434866Y-79589866D01*
X96249294Y-79815986D01*
X96111401Y-80073966D01*
X96026487Y-80353889D01*
X95997815Y-80645000D01*
X96026487Y-80936111D01*
X96111401Y-81216034D01*
X96249294Y-81474014D01*
X96434866Y-81700134D01*
X96660986Y-81885706D01*
X96918966Y-82023599D01*
X97198889Y-82108513D01*
X97417050Y-82130000D01*
X98162950Y-82130000D01*
X98381111Y-82108513D01*
X98661034Y-82023599D01*
X98919014Y-81885706D01*
X99145134Y-81700134D01*
X99243725Y-81580000D01*
X99649068Y-81580000D01*
X99695000Y-81584524D01*
X99740932Y-81580000D01*
X99878292Y-81566471D01*
X100054540Y-81513007D01*
X100216972Y-81426186D01*
X100359344Y-81309344D01*
X100388630Y-81273659D01*
X100958659Y-80703630D01*
X100994344Y-80674344D01*
X101111186Y-80531972D01*
X101167765Y-80426120D01*
X101198007Y-80369541D01*
X101251472Y-80193292D01*
X101269524Y-80010000D01*
X101265000Y-79964065D01*
X101265000Y-77857289D01*
X103257290Y-75865000D01*
X103449299Y-75865000D01*
X103396401Y-75963966D01*
X103311487Y-76243889D01*
X103290000Y-76462050D01*
X103290000Y-77207949D01*
X103311487Y-77426110D01*
X103396401Y-77706033D01*
X103534294Y-77964013D01*
X103719866Y-78190134D01*
X103840000Y-78288726D01*
X103840001Y-98072711D01*
X99753630Y-93986341D01*
X99724344Y-93950656D01*
X99581972Y-93833814D01*
X99419540Y-93746993D01*
X99243292Y-93693529D01*
X99105932Y-93680000D01*
X99060000Y-93675476D01*
X99014068Y-93680000D01*
X94163725Y-93680000D01*
X94065134Y-93559866D01*
X93839014Y-93374294D01*
X93784209Y-93345000D01*
X93839014Y-93315706D01*
X94065134Y-93130134D01*
X94250706Y-92904014D01*
X94388599Y-92646034D01*
X94473513Y-92366111D01*
X94502185Y-92075000D01*
X94473513Y-91783889D01*
X94388599Y-91503966D01*
X94250706Y-91245986D01*
X94065134Y-91019866D01*
X93839014Y-90834294D01*
X93780663Y-90803105D01*
X93940619Y-90699176D01*
X94149857Y-90495252D01*
X94315291Y-90254426D01*
X94430563Y-89985953D01*
X94451476Y-89891890D01*
X94330155Y-89662000D01*
X92837000Y-89662000D01*
X92837000Y-89682000D01*
X92583000Y-89682000D01*
X92583000Y-89662000D01*
X92563000Y-89662000D01*
X92563000Y-89408000D01*
X92583000Y-89408000D01*
X92583000Y-89388000D01*
X92837000Y-89388000D01*
X92837000Y-89408000D01*
X94330155Y-89408000D01*
X94451476Y-89178110D01*
X94430563Y-89084047D01*
X94315291Y-88815574D01*
X94149857Y-88574748D01*
X94029272Y-88457225D01*
X94104180Y-88434502D01*
X94214494Y-88375537D01*
X94311185Y-88296185D01*
X94390537Y-88199494D01*
X94449502Y-88089180D01*
X94485812Y-87969482D01*
X94498072Y-87845000D01*
X94498072Y-86145000D01*
X94496064Y-86124606D01*
X97305000Y-86124606D01*
X97305000Y-86595394D01*
X97396847Y-87057137D01*
X97577010Y-87492089D01*
X97838566Y-87883536D01*
X98171464Y-88216434D01*
X98562911Y-88477990D01*
X98997863Y-88658153D01*
X99459606Y-88750000D01*
X99930394Y-88750000D01*
X100392137Y-88658153D01*
X100827089Y-88477990D01*
X101218536Y-88216434D01*
X101551434Y-87883536D01*
X101812990Y-87492089D01*
X101993153Y-87057137D01*
X102085000Y-86595394D01*
X102085000Y-86124606D01*
X101993153Y-85662863D01*
X101812990Y-85227911D01*
X101551434Y-84836464D01*
X101218536Y-84503566D01*
X100827089Y-84242010D01*
X100392137Y-84061847D01*
X99930394Y-83970000D01*
X99459606Y-83970000D01*
X98997863Y-84061847D01*
X98562911Y-84242010D01*
X98171464Y-84503566D01*
X97838566Y-84836464D01*
X97577010Y-85227911D01*
X97396847Y-85662863D01*
X97305000Y-86124606D01*
X94496064Y-86124606D01*
X94485812Y-86020518D01*
X94449502Y-85900820D01*
X94390537Y-85790506D01*
X94311185Y-85693815D01*
X94214494Y-85614463D01*
X94104180Y-85555498D01*
X93984482Y-85519188D01*
X93860000Y-85506928D01*
X91560000Y-85506928D01*
X91435518Y-85519188D01*
X91315820Y-85555498D01*
X91205506Y-85614463D01*
X91108815Y-85693815D01*
X91029463Y-85790506D01*
X90970498Y-85900820D01*
X90934188Y-86020518D01*
X90930299Y-86060000D01*
X90850935Y-86060000D01*
X90805000Y-86055476D01*
X90621708Y-86073528D01*
X90445459Y-86126993D01*
X90411771Y-86145000D01*
X90283028Y-86213814D01*
X90140656Y-86330656D01*
X90111370Y-86366341D01*
X89560000Y-86917711D01*
X89560000Y-77255000D01*
X90921928Y-77255000D01*
X90925000Y-77819250D01*
X91083750Y-77978000D01*
X92583000Y-77978000D01*
X92583000Y-76778750D01*
X92424250Y-76620000D01*
X91560000Y-76616928D01*
X91435518Y-76629188D01*
X91315820Y-76665498D01*
X91205506Y-76724463D01*
X91108815Y-76803815D01*
X91029463Y-76900506D01*
X90970498Y-77010820D01*
X90934188Y-77130518D01*
X90921928Y-77255000D01*
X89560000Y-77255000D01*
X89560000Y-69629872D01*
X90475000Y-69629872D01*
X90475000Y-70070128D01*
X90560890Y-70501925D01*
X90729369Y-70908669D01*
X90973962Y-71274729D01*
X91285271Y-71586038D01*
X91651331Y-71830631D01*
X92058075Y-71999110D01*
X92489872Y-72085000D01*
X92930128Y-72085000D01*
X93361925Y-71999110D01*
X93768669Y-71830631D01*
X94134729Y-71586038D01*
X94446038Y-71274729D01*
X94690631Y-70908669D01*
X94859110Y-70501925D01*
X94945000Y-70070128D01*
X94945000Y-69629872D01*
X94859110Y-69198075D01*
X94737895Y-68905434D01*
X96334876Y-68905434D01*
X96365856Y-69033355D01*
X96494990Y-69327761D01*
X96679078Y-69591317D01*
X96911046Y-69813895D01*
X97181980Y-69986942D01*
X97481468Y-70103807D01*
X97798000Y-70160000D01*
X98148000Y-70160000D01*
X98148000Y-68652000D01*
X98402000Y-68652000D01*
X98402000Y-70160000D01*
X98752000Y-70160000D01*
X99068532Y-70103807D01*
X99368020Y-69986942D01*
X99638954Y-69813895D01*
X99870922Y-69591317D01*
X100055010Y-69327761D01*
X100184144Y-69033355D01*
X100215124Y-68905434D01*
X102834876Y-68905434D01*
X102865856Y-69033355D01*
X102994990Y-69327761D01*
X103179078Y-69591317D01*
X103411046Y-69813895D01*
X103681980Y-69986942D01*
X103981468Y-70103807D01*
X104298000Y-70160000D01*
X104648000Y-70160000D01*
X104648000Y-68652000D01*
X102954223Y-68652000D01*
X102834876Y-68905434D01*
X100215124Y-68905434D01*
X100095777Y-68652000D01*
X98402000Y-68652000D01*
X98148000Y-68652000D01*
X96454223Y-68652000D01*
X96334876Y-68905434D01*
X94737895Y-68905434D01*
X94690631Y-68791331D01*
X94446038Y-68425271D01*
X94165333Y-68144566D01*
X96334876Y-68144566D01*
X96454223Y-68398000D01*
X98148000Y-68398000D01*
X98148000Y-66890000D01*
X98402000Y-66890000D01*
X98402000Y-68398000D01*
X100095777Y-68398000D01*
X100215124Y-68144566D01*
X102834876Y-68144566D01*
X102954223Y-68398000D01*
X104648000Y-68398000D01*
X104648000Y-66890000D01*
X104298000Y-66890000D01*
X103981468Y-66946193D01*
X103681980Y-67063058D01*
X103411046Y-67236105D01*
X103179078Y-67458683D01*
X102994990Y-67722239D01*
X102865856Y-68016645D01*
X102834876Y-68144566D01*
X100215124Y-68144566D01*
X100184144Y-68016645D01*
X100055010Y-67722239D01*
X99870922Y-67458683D01*
X99638954Y-67236105D01*
X99368020Y-67063058D01*
X99068532Y-66946193D01*
X98752000Y-66890000D01*
X98402000Y-66890000D01*
X98148000Y-66890000D01*
X97798000Y-66890000D01*
X97481468Y-66946193D01*
X97181980Y-67063058D01*
X96911046Y-67236105D01*
X96679078Y-67458683D01*
X96494990Y-67722239D01*
X96365856Y-68016645D01*
X96334876Y-68144566D01*
X94165333Y-68144566D01*
X94134729Y-68113962D01*
X93768669Y-67869369D01*
X93361925Y-67700890D01*
X92930128Y-67615000D01*
X92489872Y-67615000D01*
X92058075Y-67700890D01*
X91651331Y-67869369D01*
X91285271Y-68113962D01*
X90973962Y-68425271D01*
X90729369Y-68791331D01*
X90560890Y-69198075D01*
X90475000Y-69629872D01*
X89560000Y-69629872D01*
X89560000Y-66700000D01*
X107203679Y-66700000D01*
X107060773Y-66760570D01*
G37*
X107060773Y-66760570D02*
X106827338Y-66919327D01*
X106629361Y-67120575D01*
X106474449Y-67356579D01*
X106410313Y-67515078D01*
X106370922Y-67458683D01*
X106138954Y-67236105D01*
X105868020Y-67063058D01*
X105568532Y-66946193D01*
X105252000Y-66890000D01*
X104902000Y-66890000D01*
X104902000Y-68398000D01*
X104922000Y-68398000D01*
X104922000Y-68652000D01*
X104902000Y-68652000D01*
X104902000Y-70160000D01*
X105252000Y-70160000D01*
X105568532Y-70103807D01*
X105868020Y-69986942D01*
X106138954Y-69813895D01*
X106370922Y-69591317D01*
X106555010Y-69327761D01*
X106684144Y-69033355D01*
X106693519Y-68994643D01*
X106827338Y-69130673D01*
X107060773Y-69289430D01*
X107320694Y-69399596D01*
X107597113Y-69456937D01*
X107823000Y-69304474D01*
X107823000Y-68152000D01*
X107803000Y-68152000D01*
X107803000Y-67898000D01*
X107823000Y-67898000D01*
X107823000Y-67878000D01*
X108077000Y-67878000D01*
X108077000Y-67898000D01*
X108097000Y-67898000D01*
X108097000Y-68152000D01*
X108077000Y-68152000D01*
X108077000Y-69304474D01*
X108302887Y-69456937D01*
X108579306Y-69399596D01*
X108839227Y-69289430D01*
X109072662Y-69130673D01*
X109097478Y-69105447D01*
X109194990Y-69327761D01*
X109379078Y-69591317D01*
X109611046Y-69813895D01*
X109881980Y-69986942D01*
X110181468Y-70103807D01*
X110498000Y-70160000D01*
X110848000Y-70160000D01*
X110848000Y-68652000D01*
X111102000Y-68652000D01*
X111102000Y-70160000D01*
X111452000Y-70160000D01*
X111768532Y-70103807D01*
X112068020Y-69986942D01*
X112338954Y-69813895D01*
X112570922Y-69591317D01*
X112755010Y-69327761D01*
X112884144Y-69033355D01*
X112915124Y-68905434D01*
X115534876Y-68905434D01*
X115565856Y-69033355D01*
X115694990Y-69327761D01*
X115879078Y-69591317D01*
X116111046Y-69813895D01*
X116381980Y-69986942D01*
X116681468Y-70103807D01*
X116998000Y-70160000D01*
X117348000Y-70160000D01*
X117348000Y-68652000D01*
X117602000Y-68652000D01*
X117602000Y-70160000D01*
X117952000Y-70160000D01*
X118268532Y-70103807D01*
X118568020Y-69986942D01*
X118838954Y-69813895D01*
X119070922Y-69591317D01*
X119255010Y-69327761D01*
X119384144Y-69033355D01*
X119415124Y-68905434D01*
X119295777Y-68652000D01*
X117602000Y-68652000D01*
X117348000Y-68652000D01*
X115654223Y-68652000D01*
X115534876Y-68905434D01*
X112915124Y-68905434D01*
X112795777Y-68652000D01*
X111102000Y-68652000D01*
X110848000Y-68652000D01*
X110828000Y-68652000D01*
X110828000Y-68398000D01*
X110848000Y-68398000D01*
X110848000Y-66890000D01*
X111102000Y-66890000D01*
X111102000Y-68398000D01*
X112795777Y-68398000D01*
X112915124Y-68144566D01*
X115534876Y-68144566D01*
X115654223Y-68398000D01*
X117348000Y-68398000D01*
X117348000Y-66890000D01*
X117602000Y-66890000D01*
X117602000Y-68398000D01*
X119295777Y-68398000D01*
X119307060Y-68374039D01*
X119693096Y-68374039D01*
X119703556Y-68431730D01*
X119809449Y-68693421D01*
X119964361Y-68929425D01*
X120162338Y-69130673D01*
X120395773Y-69289430D01*
X120655694Y-69399596D01*
X120932113Y-69456937D01*
X121158000Y-69304474D01*
X121158000Y-68152000D01*
X121412000Y-68152000D01*
X121412000Y-69304474D01*
X121637887Y-69456937D01*
X121914306Y-69399596D01*
X122174227Y-69289430D01*
X122407662Y-69130673D01*
X122605639Y-68929425D01*
X122760551Y-68693421D01*
X122866444Y-68431730D01*
X122876904Y-68374039D01*
X122754915Y-68152000D01*
X121412000Y-68152000D01*
X121158000Y-68152000D01*
X119815085Y-68152000D01*
X119693096Y-68374039D01*
X119307060Y-68374039D01*
X119415124Y-68144566D01*
X119384144Y-68016645D01*
X119255010Y-67722239D01*
X119070922Y-67458683D01*
X118838954Y-67236105D01*
X118568020Y-67063058D01*
X118268532Y-66946193D01*
X117952000Y-66890000D01*
X117602000Y-66890000D01*
X117348000Y-66890000D01*
X116998000Y-66890000D01*
X116681468Y-66946193D01*
X116381980Y-67063058D01*
X116111046Y-67236105D01*
X115879078Y-67458683D01*
X115694990Y-67722239D01*
X115565856Y-68016645D01*
X115534876Y-68144566D01*
X112915124Y-68144566D01*
X112884144Y-68016645D01*
X112755010Y-67722239D01*
X112570922Y-67458683D01*
X112338954Y-67236105D01*
X112068020Y-67063058D01*
X111768532Y-66946193D01*
X111452000Y-66890000D01*
X111102000Y-66890000D01*
X110848000Y-66890000D01*
X110498000Y-66890000D01*
X110181468Y-66946193D01*
X109881980Y-67063058D01*
X109611046Y-67236105D01*
X109442315Y-67398006D01*
X109425551Y-67356579D01*
X109270639Y-67120575D01*
X109072662Y-66919327D01*
X108839227Y-66760570D01*
X108696321Y-66700000D01*
X120538679Y-66700000D01*
X120395773Y-66760570D01*
X120162338Y-66919327D01*
X119964361Y-67120575D01*
X119809449Y-67356579D01*
X119703556Y-67618270D01*
X119693096Y-67675961D01*
X119815085Y-67898000D01*
X121158000Y-67898000D01*
X121158000Y-67878000D01*
X121412000Y-67878000D01*
X121412000Y-67898000D01*
X122754915Y-67898000D01*
X122876904Y-67675961D01*
X122866444Y-67618270D01*
X122760551Y-67356579D01*
X122605639Y-67120575D01*
X122407662Y-66919327D01*
X122174227Y-66760570D01*
X122031321Y-66700000D01*
X132637711Y-66700000D01*
X132086336Y-67251375D01*
X132050657Y-67280656D01*
X131933815Y-67423028D01*
X131846994Y-67585460D01*
X131793529Y-67761709D01*
X131775476Y-67945000D01*
X131780001Y-67990942D01*
X131780001Y-68615736D01*
X131713899Y-68651068D01*
X131495392Y-68830392D01*
X131316068Y-69048899D01*
X131182818Y-69298192D01*
X131100764Y-69568691D01*
X131073057Y-69850000D01*
X131100764Y-70131309D01*
X131182818Y-70401808D01*
X131316068Y-70651101D01*
X131495392Y-70869608D01*
X131713899Y-71048932D01*
X131780000Y-71084264D01*
X131780001Y-71790736D01*
X131713899Y-71826068D01*
X131495392Y-72005392D01*
X131316068Y-72223899D01*
X131182818Y-72473192D01*
X131100764Y-72743691D01*
X131073057Y-73025000D01*
X131100764Y-73306309D01*
X131182818Y-73576808D01*
X131316068Y-73826101D01*
X131495392Y-74044608D01*
X131713899Y-74223932D01*
X131963192Y-74357182D01*
X132233691Y-74439236D01*
X132444508Y-74460000D01*
X132985492Y-74460000D01*
X133196309Y-74439236D01*
X133466808Y-74357182D01*
X133716101Y-74223932D01*
X133934608Y-74044608D01*
X134113932Y-73826101D01*
X134247182Y-73576808D01*
X134329236Y-73306309D01*
X134356943Y-73025000D01*
X134329236Y-72743691D01*
X134247182Y-72473192D01*
X134113932Y-72223899D01*
X133934608Y-72005392D01*
X133716101Y-71826068D01*
X133650000Y-71790736D01*
X133650000Y-71084264D01*
X133716101Y-71048932D01*
X133934608Y-70869608D01*
X134113932Y-70651101D01*
X134247182Y-70401808D01*
X134329236Y-70131309D01*
X134356943Y-69850000D01*
X134329236Y-69568691D01*
X134247182Y-69298192D01*
X134113932Y-69048899D01*
X133934608Y-68830392D01*
X133716101Y-68651068D01*
X133650000Y-68615736D01*
X133650000Y-68332289D01*
X133737289Y-68245000D01*
X137085592Y-68245000D01*
X137189294Y-68439013D01*
X137374866Y-68665134D01*
X137600986Y-68850706D01*
X137688532Y-68897500D01*
X137600987Y-68944294D01*
X137374866Y-69129866D01*
X137189294Y-69355986D01*
X137051401Y-69613966D01*
X136966487Y-69893889D01*
X136945000Y-70112050D01*
X136945000Y-70857949D01*
X136966487Y-71076110D01*
X137051401Y-71356033D01*
X137189294Y-71614013D01*
X137374866Y-71840134D01*
X137600986Y-72025706D01*
X137686363Y-72071341D01*
X137469748Y-72220143D01*
X137265824Y-72429381D01*
X137106639Y-72674382D01*
X136998310Y-72945731D01*
X136945000Y-73233000D01*
X136945000Y-73533000D01*
X138303000Y-73533000D01*
X138303000Y-73513000D01*
X138557000Y-73513000D01*
X138557000Y-73533000D01*
X140843000Y-73533000D01*
X140843000Y-73513000D01*
X141097000Y-73513000D01*
X141097000Y-73533000D01*
X143383000Y-73533000D01*
X143383000Y-73513000D01*
X143637000Y-73513000D01*
X143637000Y-73533000D01*
X145923000Y-73533000D01*
X145923000Y-73513000D01*
X146177000Y-73513000D01*
X146177000Y-73533000D01*
X147376250Y-73533000D01*
X147535000Y-73374250D01*
X147538072Y-72510000D01*
X147525812Y-72385518D01*
X147489502Y-72265820D01*
X147430537Y-72155506D01*
X147362416Y-72072500D01*
X147430537Y-71989494D01*
X147489502Y-71879180D01*
X147525812Y-71759482D01*
X147538072Y-71635000D01*
X147538072Y-71420000D01*
X148202711Y-71420000D01*
X148290001Y-71507290D01*
X148290000Y-76651275D01*
X148169866Y-76749866D01*
X147984294Y-76975986D01*
X147953105Y-77034337D01*
X147849176Y-76874381D01*
X147645252Y-76665143D01*
X147404426Y-76499709D01*
X147135953Y-76384437D01*
X147041890Y-76363524D01*
X146812000Y-76484845D01*
X146812000Y-77978000D01*
X146832000Y-77978000D01*
X146832000Y-78232000D01*
X146812000Y-78232000D01*
X146812000Y-79725155D01*
X147041890Y-79846476D01*
X147135953Y-79825563D01*
X147404426Y-79710291D01*
X147645252Y-79544857D01*
X147849176Y-79335619D01*
X147953105Y-79175662D01*
X147984294Y-79234013D01*
X148169866Y-79460134D01*
X148290000Y-79558726D01*
X148290001Y-81010115D01*
X148232393Y-81057392D01*
X148057817Y-81270113D01*
X147953962Y-81464413D01*
X147927059Y-81398058D01*
X147776006Y-81168271D01*
X147583026Y-80972368D01*
X147355535Y-80817878D01*
X147102276Y-80710738D01*
X147028070Y-80695780D01*
X146812000Y-80818280D01*
X146812000Y-82423000D01*
X146832000Y-82423000D01*
X146832000Y-82677000D01*
X146812000Y-82677000D01*
X146812000Y-84281720D01*
X147028070Y-84404220D01*
X147102276Y-84389262D01*
X147355535Y-84282122D01*
X147583026Y-84127632D01*
X147776006Y-83931729D01*
X147927059Y-83701942D01*
X147953962Y-83635586D01*
X148057817Y-83829886D01*
X148232392Y-84042607D01*
X148290000Y-84089885D01*
X148290001Y-85679058D01*
X148285476Y-85725000D01*
X148303529Y-85908291D01*
X148349550Y-86060000D01*
X148356994Y-86084540D01*
X148443815Y-86246972D01*
X148560657Y-86389344D01*
X148561458Y-86390001D01*
X139905536Y-86390001D01*
X139868937Y-86335226D01*
X139724774Y-86191063D01*
X139555256Y-86077795D01*
X139366898Y-85999774D01*
X139166939Y-85960000D01*
X138963061Y-85960000D01*
X138763102Y-85999774D01*
X138574744Y-86077795D01*
X138405226Y-86191063D01*
X138261063Y-86335226D01*
X138147795Y-86504744D01*
X138069774Y-86693102D01*
X138030000Y-86893061D01*
X138030000Y-87096939D01*
X138069774Y-87296898D01*
X138147795Y-87485256D01*
X138261063Y-87654774D01*
X138405226Y-87798937D01*
X138574744Y-87912205D01*
X138702201Y-87965000D01*
X138182290Y-87965000D01*
X137460000Y-87242711D01*
X137460000Y-84089885D01*
X137517607Y-84042608D01*
X137692183Y-83829887D01*
X137795000Y-83637529D01*
X137897817Y-83829886D01*
X138072392Y-84042607D01*
X138285113Y-84217183D01*
X138527805Y-84346904D01*
X138791140Y-84426786D01*
X139065000Y-84453759D01*
X139338859Y-84426786D01*
X139602194Y-84346904D01*
X139844886Y-84217183D01*
X140057607Y-84042608D01*
X140232183Y-83829887D01*
X140335000Y-83637529D01*
X140437817Y-83829886D01*
X140612392Y-84042607D01*
X140825113Y-84217183D01*
X141067805Y-84346904D01*
X141331140Y-84426786D01*
X141605000Y-84453759D01*
X141878859Y-84426786D01*
X142142194Y-84346904D01*
X142384886Y-84217183D01*
X142597607Y-84042608D01*
X142772183Y-83829887D01*
X142875000Y-83637529D01*
X142977817Y-83829886D01*
X143152392Y-84042607D01*
X143365113Y-84217183D01*
X143607805Y-84346904D01*
X143871140Y-84426786D01*
X144145000Y-84453759D01*
X144418859Y-84426786D01*
X144682194Y-84346904D01*
X144924886Y-84217183D01*
X145137607Y-84042608D01*
X145312183Y-83829887D01*
X145416038Y-83635587D01*
X145442941Y-83701942D01*
X145593994Y-83931729D01*
X145786974Y-84127632D01*
X146014465Y-84282122D01*
X146267724Y-84389262D01*
X146341930Y-84404220D01*
X146558000Y-84281720D01*
X146558000Y-82677000D01*
X146538000Y-82677000D01*
X146538000Y-82423000D01*
X146558000Y-82423000D01*
X146558000Y-80818280D01*
X146341930Y-80695780D01*
X146267724Y-80710738D01*
X146014465Y-80817878D01*
X145786974Y-80972368D01*
X145593994Y-81168271D01*
X145442941Y-81398058D01*
X145416038Y-81464413D01*
X145312183Y-81270113D01*
X145137608Y-81057392D01*
X145080000Y-81010115D01*
X145080000Y-79558725D01*
X145200134Y-79460134D01*
X145385706Y-79234014D01*
X145416895Y-79175663D01*
X145520824Y-79335619D01*
X145724748Y-79544857D01*
X145965574Y-79710291D01*
X146234047Y-79825563D01*
X146328110Y-79846476D01*
X146558000Y-79725155D01*
X146558000Y-78232000D01*
X146538000Y-78232000D01*
X146538000Y-77978000D01*
X146558000Y-77978000D01*
X146558000Y-76484845D01*
X146328110Y-76363524D01*
X146234047Y-76384437D01*
X145965574Y-76499709D01*
X145724748Y-76665143D01*
X145520824Y-76874381D01*
X145416895Y-77034337D01*
X145385706Y-76975986D01*
X145200134Y-76749866D01*
X144974014Y-76564294D01*
X144716034Y-76426401D01*
X144436111Y-76341487D01*
X144145000Y-76312815D01*
X143853890Y-76341487D01*
X143573967Y-76426401D01*
X143315987Y-76564294D01*
X143089866Y-76749866D01*
X142904294Y-76975986D01*
X142875000Y-77030791D01*
X142845706Y-76975986D01*
X142660134Y-76749866D01*
X142434014Y-76564294D01*
X142176034Y-76426401D01*
X141896111Y-76341487D01*
X141605000Y-76312815D01*
X141313890Y-76341487D01*
X141033967Y-76426401D01*
X140775987Y-76564294D01*
X140549866Y-76749866D01*
X140364294Y-76975986D01*
X140335000Y-77030791D01*
X140305706Y-76975986D01*
X140120134Y-76749866D01*
X140000000Y-76651275D01*
X140000000Y-76245935D01*
X140004524Y-76200000D01*
X139986472Y-76016708D01*
X139933007Y-75840459D01*
X139902765Y-75783880D01*
X139846186Y-75678028D01*
X139729344Y-75535656D01*
X139693660Y-75506371D01*
X139329132Y-75141843D01*
X139390252Y-75099857D01*
X139594176Y-74890619D01*
X139700000Y-74727746D01*
X139805824Y-74890619D01*
X140009748Y-75099857D01*
X140250574Y-75265291D01*
X140519047Y-75380563D01*
X140613110Y-75401476D01*
X140843000Y-75280155D01*
X140843000Y-73787000D01*
X141097000Y-73787000D01*
X141097000Y-75280155D01*
X141326890Y-75401476D01*
X141420953Y-75380563D01*
X141689426Y-75265291D01*
X141930252Y-75099857D01*
X142134176Y-74890619D01*
X142240000Y-74727746D01*
X142345824Y-74890619D01*
X142549748Y-75099857D01*
X142790574Y-75265291D01*
X143059047Y-75380563D01*
X143153110Y-75401476D01*
X143383000Y-75280155D01*
X143383000Y-73787000D01*
X143637000Y-73787000D01*
X143637000Y-75280155D01*
X143866890Y-75401476D01*
X143960953Y-75380563D01*
X144229426Y-75265291D01*
X144470252Y-75099857D01*
X144587775Y-74979272D01*
X144610498Y-75054180D01*
X144669463Y-75164494D01*
X144748815Y-75261185D01*
X144845506Y-75340537D01*
X144955820Y-75399502D01*
X145075518Y-75435812D01*
X145200000Y-75448072D01*
X145764250Y-75445000D01*
X145923000Y-75286250D01*
X145923000Y-73787000D01*
X146177000Y-73787000D01*
X146177000Y-75286250D01*
X146335750Y-75445000D01*
X146900000Y-75448072D01*
X147024482Y-75435812D01*
X147144180Y-75399502D01*
X147254494Y-75340537D01*
X147351185Y-75261185D01*
X147430537Y-75164494D01*
X147489502Y-75054180D01*
X147525812Y-74934482D01*
X147538072Y-74810000D01*
X147535000Y-73945750D01*
X147376250Y-73787000D01*
X146177000Y-73787000D01*
X145923000Y-73787000D01*
X143637000Y-73787000D01*
X143383000Y-73787000D01*
X141097000Y-73787000D01*
X140843000Y-73787000D01*
X138557000Y-73787000D01*
X138557000Y-73807000D01*
X138303000Y-73807000D01*
X138303000Y-73787000D01*
X136945000Y-73787000D01*
X136945000Y-74087000D01*
X136998310Y-74374269D01*
X137100404Y-74630000D01*
X131197289Y-74630000D01*
X129840000Y-73272711D01*
X129840000Y-71165931D01*
X129844524Y-71119999D01*
X129826471Y-70936707D01*
X129810253Y-70883243D01*
X129773007Y-70760460D01*
X129686186Y-70598028D01*
X129569344Y-70455656D01*
X129533665Y-70426375D01*
X128328630Y-69221341D01*
X128299344Y-69185656D01*
X128156972Y-69068814D01*
X127994540Y-68981993D01*
X127818292Y-68928529D01*
X127680932Y-68915000D01*
X127635000Y-68910476D01*
X127589068Y-68915000D01*
X126384044Y-68915000D01*
X126314608Y-68830392D01*
X126096101Y-68651068D01*
X125846808Y-68517818D01*
X125576309Y-68435764D01*
X125365492Y-68415000D01*
X124824508Y-68415000D01*
X124613691Y-68435764D01*
X124343192Y-68517818D01*
X124093899Y-68651068D01*
X123875392Y-68830392D01*
X123805956Y-68915000D01*
X123235931Y-68915000D01*
X123189999Y-68910476D01*
X123006707Y-68928529D01*
X122953243Y-68944747D01*
X122830460Y-68981993D01*
X122668028Y-69068814D01*
X122525656Y-69185656D01*
X122496374Y-69221336D01*
X121532711Y-70185000D01*
X106725932Y-70185000D01*
X106680000Y-70180476D01*
X106634068Y-70185000D01*
X106496708Y-70198529D01*
X106320460Y-70251993D01*
X106158028Y-70338814D01*
X106015656Y-70455656D01*
X105986370Y-70491341D01*
X105087711Y-71390000D01*
X104344678Y-71390000D01*
X104104484Y-71413657D01*
X103796285Y-71507148D01*
X103512248Y-71658969D01*
X103263286Y-71863286D01*
X103077227Y-72090000D01*
X99972773Y-72090000D01*
X99786714Y-71863286D01*
X99537752Y-71658969D01*
X99253715Y-71507148D01*
X98945516Y-71413657D01*
X98705322Y-71390000D01*
X97844678Y-71390000D01*
X97604484Y-71413657D01*
X97296285Y-71507148D01*
X97012248Y-71658969D01*
X96763286Y-71863286D01*
X96577227Y-72090000D01*
X96565931Y-72090000D01*
X96519999Y-72085476D01*
X96336707Y-72103529D01*
X96307965Y-72112248D01*
X96160460Y-72156993D01*
X95998028Y-72243814D01*
X95855656Y-72360656D01*
X95826376Y-72396334D01*
X94621336Y-73601375D01*
X94585657Y-73630656D01*
X94468815Y-73773028D01*
X94404651Y-73893072D01*
X94381994Y-73935460D01*
X94328529Y-74111709D01*
X94310476Y-74295000D01*
X94315001Y-74340942D01*
X94315001Y-76808464D01*
X94311185Y-76803815D01*
X94214494Y-76724463D01*
X94104180Y-76665498D01*
X93984482Y-76629188D01*
X93860000Y-76616928D01*
X92995750Y-76620000D01*
X92837000Y-76778750D01*
X92837000Y-77978000D01*
X92857000Y-77978000D01*
X92857000Y-78232000D01*
X92837000Y-78232000D01*
X92837000Y-78252000D01*
X92583000Y-78252000D01*
X92583000Y-78232000D01*
X91083750Y-78232000D01*
X90925000Y-78390750D01*
X90921928Y-78955000D01*
X90934188Y-79079482D01*
X90970498Y-79199180D01*
X91029463Y-79309494D01*
X91108815Y-79406185D01*
X91205506Y-79485537D01*
X91315820Y-79544502D01*
X91384687Y-79565393D01*
X91354866Y-79589866D01*
X91169294Y-79815986D01*
X91031401Y-80073966D01*
X90946487Y-80353889D01*
X90917815Y-80645000D01*
X90946487Y-80936111D01*
X91031401Y-81216034D01*
X91169294Y-81474014D01*
X91354866Y-81700134D01*
X91580986Y-81885706D01*
X91838966Y-82023599D01*
X92118889Y-82108513D01*
X92337050Y-82130000D01*
X93082950Y-82130000D01*
X93301111Y-82108513D01*
X93581034Y-82023599D01*
X93839014Y-81885706D01*
X94065134Y-81700134D01*
X94178652Y-81561811D01*
X94339540Y-81513007D01*
X94501972Y-81426186D01*
X94644344Y-81309344D01*
X94673630Y-81273659D01*
X95878665Y-80068625D01*
X95914344Y-80039344D01*
X96031186Y-79896972D01*
X96118007Y-79734540D01*
X96171471Y-79558292D01*
X96177293Y-79499180D01*
X96186706Y-79403615D01*
X96188815Y-79406185D01*
X96285506Y-79485537D01*
X96395820Y-79544502D01*
X96464687Y-79565393D01*
X96434866Y-79589866D01*
X96249294Y-79815986D01*
X96111401Y-80073966D01*
X96026487Y-80353889D01*
X95997815Y-80645000D01*
X96026487Y-80936111D01*
X96111401Y-81216034D01*
X96249294Y-81474014D01*
X96434866Y-81700134D01*
X96660986Y-81885706D01*
X96918966Y-82023599D01*
X97198889Y-82108513D01*
X97417050Y-82130000D01*
X98162950Y-82130000D01*
X98381111Y-82108513D01*
X98661034Y-82023599D01*
X98919014Y-81885706D01*
X99145134Y-81700134D01*
X99243725Y-81580000D01*
X99649068Y-81580000D01*
X99695000Y-81584524D01*
X99740932Y-81580000D01*
X99878292Y-81566471D01*
X100054540Y-81513007D01*
X100216972Y-81426186D01*
X100359344Y-81309344D01*
X100388630Y-81273659D01*
X100958659Y-80703630D01*
X100994344Y-80674344D01*
X101111186Y-80531972D01*
X101167765Y-80426120D01*
X101198007Y-80369541D01*
X101251472Y-80193292D01*
X101269524Y-80010000D01*
X101265000Y-79964065D01*
X101265000Y-77857289D01*
X103257290Y-75865000D01*
X103449299Y-75865000D01*
X103396401Y-75963966D01*
X103311487Y-76243889D01*
X103290000Y-76462050D01*
X103290000Y-77207949D01*
X103311487Y-77426110D01*
X103396401Y-77706033D01*
X103534294Y-77964013D01*
X103719866Y-78190134D01*
X103840000Y-78288726D01*
X103840001Y-98072711D01*
X99753630Y-93986341D01*
X99724344Y-93950656D01*
X99581972Y-93833814D01*
X99419540Y-93746993D01*
X99243292Y-93693529D01*
X99105932Y-93680000D01*
X99060000Y-93675476D01*
X99014068Y-93680000D01*
X94163725Y-93680000D01*
X94065134Y-93559866D01*
X93839014Y-93374294D01*
X93784209Y-93345000D01*
X93839014Y-93315706D01*
X94065134Y-93130134D01*
X94250706Y-92904014D01*
X94388599Y-92646034D01*
X94473513Y-92366111D01*
X94502185Y-92075000D01*
X94473513Y-91783889D01*
X94388599Y-91503966D01*
X94250706Y-91245986D01*
X94065134Y-91019866D01*
X93839014Y-90834294D01*
X93780663Y-90803105D01*
X93940619Y-90699176D01*
X94149857Y-90495252D01*
X94315291Y-90254426D01*
X94430563Y-89985953D01*
X94451476Y-89891890D01*
X94330155Y-89662000D01*
X92837000Y-89662000D01*
X92837000Y-89682000D01*
X92583000Y-89682000D01*
X92583000Y-89662000D01*
X92563000Y-89662000D01*
X92563000Y-89408000D01*
X92583000Y-89408000D01*
X92583000Y-89388000D01*
X92837000Y-89388000D01*
X92837000Y-89408000D01*
X94330155Y-89408000D01*
X94451476Y-89178110D01*
X94430563Y-89084047D01*
X94315291Y-88815574D01*
X94149857Y-88574748D01*
X94029272Y-88457225D01*
X94104180Y-88434502D01*
X94214494Y-88375537D01*
X94311185Y-88296185D01*
X94390537Y-88199494D01*
X94449502Y-88089180D01*
X94485812Y-87969482D01*
X94498072Y-87845000D01*
X94498072Y-86145000D01*
X94496064Y-86124606D01*
X97305000Y-86124606D01*
X97305000Y-86595394D01*
X97396847Y-87057137D01*
X97577010Y-87492089D01*
X97838566Y-87883536D01*
X98171464Y-88216434D01*
X98562911Y-88477990D01*
X98997863Y-88658153D01*
X99459606Y-88750000D01*
X99930394Y-88750000D01*
X100392137Y-88658153D01*
X100827089Y-88477990D01*
X101218536Y-88216434D01*
X101551434Y-87883536D01*
X101812990Y-87492089D01*
X101993153Y-87057137D01*
X102085000Y-86595394D01*
X102085000Y-86124606D01*
X101993153Y-85662863D01*
X101812990Y-85227911D01*
X101551434Y-84836464D01*
X101218536Y-84503566D01*
X100827089Y-84242010D01*
X100392137Y-84061847D01*
X99930394Y-83970000D01*
X99459606Y-83970000D01*
X98997863Y-84061847D01*
X98562911Y-84242010D01*
X98171464Y-84503566D01*
X97838566Y-84836464D01*
X97577010Y-85227911D01*
X97396847Y-85662863D01*
X97305000Y-86124606D01*
X94496064Y-86124606D01*
X94485812Y-86020518D01*
X94449502Y-85900820D01*
X94390537Y-85790506D01*
X94311185Y-85693815D01*
X94214494Y-85614463D01*
X94104180Y-85555498D01*
X93984482Y-85519188D01*
X93860000Y-85506928D01*
X91560000Y-85506928D01*
X91435518Y-85519188D01*
X91315820Y-85555498D01*
X91205506Y-85614463D01*
X91108815Y-85693815D01*
X91029463Y-85790506D01*
X90970498Y-85900820D01*
X90934188Y-86020518D01*
X90930299Y-86060000D01*
X90850935Y-86060000D01*
X90805000Y-86055476D01*
X90621708Y-86073528D01*
X90445459Y-86126993D01*
X90411771Y-86145000D01*
X90283028Y-86213814D01*
X90140656Y-86330656D01*
X90111370Y-86366341D01*
X89560000Y-86917711D01*
X89560000Y-77255000D01*
X90921928Y-77255000D01*
X90925000Y-77819250D01*
X91083750Y-77978000D01*
X92583000Y-77978000D01*
X92583000Y-76778750D01*
X92424250Y-76620000D01*
X91560000Y-76616928D01*
X91435518Y-76629188D01*
X91315820Y-76665498D01*
X91205506Y-76724463D01*
X91108815Y-76803815D01*
X91029463Y-76900506D01*
X90970498Y-77010820D01*
X90934188Y-77130518D01*
X90921928Y-77255000D01*
X89560000Y-77255000D01*
X89560000Y-69629872D01*
X90475000Y-69629872D01*
X90475000Y-70070128D01*
X90560890Y-70501925D01*
X90729369Y-70908669D01*
X90973962Y-71274729D01*
X91285271Y-71586038D01*
X91651331Y-71830631D01*
X92058075Y-71999110D01*
X92489872Y-72085000D01*
X92930128Y-72085000D01*
X93361925Y-71999110D01*
X93768669Y-71830631D01*
X94134729Y-71586038D01*
X94446038Y-71274729D01*
X94690631Y-70908669D01*
X94859110Y-70501925D01*
X94945000Y-70070128D01*
X94945000Y-69629872D01*
X94859110Y-69198075D01*
X94737895Y-68905434D01*
X96334876Y-68905434D01*
X96365856Y-69033355D01*
X96494990Y-69327761D01*
X96679078Y-69591317D01*
X96911046Y-69813895D01*
X97181980Y-69986942D01*
X97481468Y-70103807D01*
X97798000Y-70160000D01*
X98148000Y-70160000D01*
X98148000Y-68652000D01*
X98402000Y-68652000D01*
X98402000Y-70160000D01*
X98752000Y-70160000D01*
X99068532Y-70103807D01*
X99368020Y-69986942D01*
X99638954Y-69813895D01*
X99870922Y-69591317D01*
X100055010Y-69327761D01*
X100184144Y-69033355D01*
X100215124Y-68905434D01*
X102834876Y-68905434D01*
X102865856Y-69033355D01*
X102994990Y-69327761D01*
X103179078Y-69591317D01*
X103411046Y-69813895D01*
X103681980Y-69986942D01*
X103981468Y-70103807D01*
X104298000Y-70160000D01*
X104648000Y-70160000D01*
X104648000Y-68652000D01*
X102954223Y-68652000D01*
X102834876Y-68905434D01*
X100215124Y-68905434D01*
X100095777Y-68652000D01*
X98402000Y-68652000D01*
X98148000Y-68652000D01*
X96454223Y-68652000D01*
X96334876Y-68905434D01*
X94737895Y-68905434D01*
X94690631Y-68791331D01*
X94446038Y-68425271D01*
X94165333Y-68144566D01*
X96334876Y-68144566D01*
X96454223Y-68398000D01*
X98148000Y-68398000D01*
X98148000Y-66890000D01*
X98402000Y-66890000D01*
X98402000Y-68398000D01*
X100095777Y-68398000D01*
X100215124Y-68144566D01*
X102834876Y-68144566D01*
X102954223Y-68398000D01*
X104648000Y-68398000D01*
X104648000Y-66890000D01*
X104298000Y-66890000D01*
X103981468Y-66946193D01*
X103681980Y-67063058D01*
X103411046Y-67236105D01*
X103179078Y-67458683D01*
X102994990Y-67722239D01*
X102865856Y-68016645D01*
X102834876Y-68144566D01*
X100215124Y-68144566D01*
X100184144Y-68016645D01*
X100055010Y-67722239D01*
X99870922Y-67458683D01*
X99638954Y-67236105D01*
X99368020Y-67063058D01*
X99068532Y-66946193D01*
X98752000Y-66890000D01*
X98402000Y-66890000D01*
X98148000Y-66890000D01*
X97798000Y-66890000D01*
X97481468Y-66946193D01*
X97181980Y-67063058D01*
X96911046Y-67236105D01*
X96679078Y-67458683D01*
X96494990Y-67722239D01*
X96365856Y-68016645D01*
X96334876Y-68144566D01*
X94165333Y-68144566D01*
X94134729Y-68113962D01*
X93768669Y-67869369D01*
X93361925Y-67700890D01*
X92930128Y-67615000D01*
X92489872Y-67615000D01*
X92058075Y-67700890D01*
X91651331Y-67869369D01*
X91285271Y-68113962D01*
X90973962Y-68425271D01*
X90729369Y-68791331D01*
X90560890Y-69198075D01*
X90475000Y-69629872D01*
X89560000Y-69629872D01*
X89560000Y-66700000D01*
X107203679Y-66700000D01*
X107060773Y-66760570D01*
G36*
X103105951Y-73995000D02*
G01*
X102915924Y-73995000D01*
X102869999Y-73990477D01*
X102824074Y-73995000D01*
X102824068Y-73995000D01*
X102705110Y-74006717D01*
X102686707Y-74008529D01*
X102650409Y-74019540D01*
X102510460Y-74061993D01*
X102348028Y-74148814D01*
X102205656Y-74265656D01*
X102176376Y-74301334D01*
X99701341Y-76776370D01*
X99665656Y-76805656D01*
X99548814Y-76948029D01*
X99522377Y-76997490D01*
X99470537Y-76900506D01*
X99391185Y-76803815D01*
X99294494Y-76724463D01*
X99184180Y-76665498D01*
X99064482Y-76629188D01*
X98940000Y-76616928D01*
X98075750Y-76620000D01*
X97917000Y-76778750D01*
X97917000Y-77978000D01*
X97937000Y-77978000D01*
X97937000Y-78232000D01*
X97917000Y-78232000D01*
X97917000Y-78252000D01*
X97663000Y-78252000D01*
X97663000Y-78232000D01*
X97643000Y-78232000D01*
X97643000Y-77978000D01*
X97663000Y-77978000D01*
X97663000Y-76778750D01*
X97504250Y-76620000D01*
X96640000Y-76616928D01*
X96515518Y-76629188D01*
X96395820Y-76665498D01*
X96285506Y-76724463D01*
X96188815Y-76803815D01*
X96185000Y-76808464D01*
X96185000Y-74682289D01*
X96726004Y-74141286D01*
X96763286Y-74186714D01*
X97012248Y-74391031D01*
X97296285Y-74542852D01*
X97604484Y-74636343D01*
X97844678Y-74660000D01*
X98705322Y-74660000D01*
X98945516Y-74636343D01*
X99253715Y-74542852D01*
X99537752Y-74391031D01*
X99786714Y-74186714D01*
X99972773Y-73960000D01*
X103077227Y-73960000D01*
X103105951Y-73995000D01*
G37*
X103105951Y-73995000D02*
X102915924Y-73995000D01*
X102869999Y-73990477D01*
X102824074Y-73995000D01*
X102824068Y-73995000D01*
X102705110Y-74006717D01*
X102686707Y-74008529D01*
X102650409Y-74019540D01*
X102510460Y-74061993D01*
X102348028Y-74148814D01*
X102205656Y-74265656D01*
X102176376Y-74301334D01*
X99701341Y-76776370D01*
X99665656Y-76805656D01*
X99548814Y-76948029D01*
X99522377Y-76997490D01*
X99470537Y-76900506D01*
X99391185Y-76803815D01*
X99294494Y-76724463D01*
X99184180Y-76665498D01*
X99064482Y-76629188D01*
X98940000Y-76616928D01*
X98075750Y-76620000D01*
X97917000Y-76778750D01*
X97917000Y-77978000D01*
X97937000Y-77978000D01*
X97937000Y-78232000D01*
X97917000Y-78232000D01*
X97917000Y-78252000D01*
X97663000Y-78252000D01*
X97663000Y-78232000D01*
X97643000Y-78232000D01*
X97643000Y-77978000D01*
X97663000Y-77978000D01*
X97663000Y-76778750D01*
X97504250Y-76620000D01*
X96640000Y-76616928D01*
X96515518Y-76629188D01*
X96395820Y-76665498D01*
X96285506Y-76724463D01*
X96188815Y-76803815D01*
X96185000Y-76808464D01*
X96185000Y-74682289D01*
X96726004Y-74141286D01*
X96763286Y-74186714D01*
X97012248Y-74391031D01*
X97296285Y-74542852D01*
X97604484Y-74636343D01*
X97844678Y-74660000D01*
X98705322Y-74660000D01*
X98945516Y-74636343D01*
X99253715Y-74542852D01*
X99537752Y-74391031D01*
X99786714Y-74186714D01*
X99972773Y-73960000D01*
X103077227Y-73960000D01*
X103105951Y-73995000D01*
M02*
