G04 #@! TF.GenerationSoftware,KiCad,Pcbnew,(5.1.6)-1*
G04 #@! TF.CreationDate,2020-10-11T12:38:22+02:00*
G04 #@! TF.ProjectId,AdaptaddorCubeCell,41646170-7461-4646-946f-724375626543,1.0*
G04 #@! TF.SameCoordinates,Original*
G04 #@! TF.FileFunction,Legend,Top*
G04 #@! TF.FilePolarity,Positive*
%FSLAX46Y46*%
G04 Gerber Fmt 4.6, Leading zero omitted, Abs format (unit mm)*
G04 Created by KiCad (PCBNEW (5.1.6)-1) date 2020-10-11 12:38:22*
%MOMM*%
%LPD*%
G01*
G04 APERTURE LIST*
%ADD10C,0.150000*%
%ADD11C,0.120000*%
%ADD12C,0.300000*%
G04 APERTURE END LIST*
D10*
X114387380Y-96622857D02*
X115387380Y-96289523D01*
X114387380Y-95956190D01*
X115387380Y-95146666D02*
X115387380Y-95622857D01*
X114387380Y-95622857D01*
X114387380Y-94384761D02*
X114387380Y-94575238D01*
X114435000Y-94670476D01*
X114482619Y-94718095D01*
X114625476Y-94813333D01*
X114815952Y-94860952D01*
X115196904Y-94860952D01*
X115292142Y-94813333D01*
X115339761Y-94765714D01*
X115387380Y-94670476D01*
X115387380Y-94480000D01*
X115339761Y-94384761D01*
X115292142Y-94337142D01*
X115196904Y-94289523D01*
X114958809Y-94289523D01*
X114863571Y-94337142D01*
X114815952Y-94384761D01*
X114768333Y-94480000D01*
X114768333Y-94670476D01*
X114815952Y-94765714D01*
X114863571Y-94813333D01*
X114958809Y-94860952D01*
X115387380Y-93337142D02*
X115387380Y-93908571D01*
X115387380Y-93622857D02*
X114387380Y-93622857D01*
X114530238Y-93718095D01*
X114625476Y-93813333D01*
X114673095Y-93908571D01*
X114815952Y-92765714D02*
X114768333Y-92860952D01*
X114720714Y-92908571D01*
X114625476Y-92956190D01*
X114577857Y-92956190D01*
X114482619Y-92908571D01*
X114435000Y-92860952D01*
X114387380Y-92765714D01*
X114387380Y-92575238D01*
X114435000Y-92480000D01*
X114482619Y-92432380D01*
X114577857Y-92384761D01*
X114625476Y-92384761D01*
X114720714Y-92432380D01*
X114768333Y-92480000D01*
X114815952Y-92575238D01*
X114815952Y-92765714D01*
X114863571Y-92860952D01*
X114911190Y-92908571D01*
X115006428Y-92956190D01*
X115196904Y-92956190D01*
X115292142Y-92908571D01*
X115339761Y-92860952D01*
X115387380Y-92765714D01*
X115387380Y-92575238D01*
X115339761Y-92480000D01*
X115292142Y-92432380D01*
X115196904Y-92384761D01*
X115006428Y-92384761D01*
X114911190Y-92432380D01*
X114863571Y-92480000D01*
X114815952Y-92575238D01*
X114387380Y-91765714D02*
X114387380Y-91670476D01*
X114435000Y-91575238D01*
X114482619Y-91527619D01*
X114577857Y-91480000D01*
X114768333Y-91432380D01*
X115006428Y-91432380D01*
X115196904Y-91480000D01*
X115292142Y-91527619D01*
X115339761Y-91575238D01*
X115387380Y-91670476D01*
X115387380Y-91765714D01*
X115339761Y-91860952D01*
X115292142Y-91908571D01*
X115196904Y-91956190D01*
X115006428Y-92003809D01*
X114768333Y-92003809D01*
X114577857Y-91956190D01*
X114482619Y-91908571D01*
X114435000Y-91860952D01*
X114387380Y-91765714D01*
X91710000Y-98560000D02*
X91614761Y-98512380D01*
X91471904Y-98512380D01*
X91329047Y-98560000D01*
X91233809Y-98655238D01*
X91186190Y-98750476D01*
X91138571Y-98940952D01*
X91138571Y-99083809D01*
X91186190Y-99274285D01*
X91233809Y-99369523D01*
X91329047Y-99464761D01*
X91471904Y-99512380D01*
X91567142Y-99512380D01*
X91710000Y-99464761D01*
X91757619Y-99417142D01*
X91757619Y-99083809D01*
X91567142Y-99083809D01*
X92186190Y-99512380D02*
X92186190Y-98512380D01*
X92567142Y-98512380D01*
X92662380Y-98560000D01*
X92710000Y-98607619D01*
X92757619Y-98702857D01*
X92757619Y-98845714D01*
X92710000Y-98940952D01*
X92662380Y-98988571D01*
X92567142Y-99036190D01*
X92186190Y-99036190D01*
X93186190Y-99512380D02*
X93186190Y-98512380D01*
X93852857Y-98512380D02*
X94043333Y-98512380D01*
X94138571Y-98560000D01*
X94233809Y-98655238D01*
X94281428Y-98845714D01*
X94281428Y-99179047D01*
X94233809Y-99369523D01*
X94138571Y-99464761D01*
X94043333Y-99512380D01*
X93852857Y-99512380D01*
X93757619Y-99464761D01*
X93662380Y-99369523D01*
X93614761Y-99179047D01*
X93614761Y-98845714D01*
X93662380Y-98655238D01*
X93757619Y-98560000D01*
X93852857Y-98512380D01*
X122427619Y-81740238D02*
X121760952Y-79740238D01*
X121094285Y-81740238D01*
X119380000Y-79740238D02*
X120522857Y-79740238D01*
X119951428Y-79740238D02*
X119951428Y-81740238D01*
X120141904Y-81454523D01*
X120332380Y-81264047D01*
X120522857Y-81168809D01*
X118522857Y-79930714D02*
X118427619Y-79835476D01*
X118522857Y-79740238D01*
X118618095Y-79835476D01*
X118522857Y-79930714D01*
X118522857Y-79740238D01*
X117189523Y-81740238D02*
X116999047Y-81740238D01*
X116808571Y-81645000D01*
X116713333Y-81549761D01*
X116618095Y-81359285D01*
X116522857Y-80978333D01*
X116522857Y-80502142D01*
X116618095Y-80121190D01*
X116713333Y-79930714D01*
X116808571Y-79835476D01*
X116999047Y-79740238D01*
X117189523Y-79740238D01*
X117380000Y-79835476D01*
X117475238Y-79930714D01*
X117570476Y-80121190D01*
X117665714Y-80502142D01*
X117665714Y-80978333D01*
X117570476Y-81359285D01*
X117475238Y-81549761D01*
X117380000Y-81645000D01*
X117189523Y-81740238D01*
X125157857Y-82915238D02*
X125157857Y-84915238D01*
X124395952Y-84915238D01*
X124205476Y-84820000D01*
X124110238Y-84724761D01*
X124015000Y-84534285D01*
X124015000Y-84248571D01*
X124110238Y-84058095D01*
X124205476Y-83962857D01*
X124395952Y-83867619D01*
X125157857Y-83867619D01*
X122300714Y-82915238D02*
X122300714Y-83962857D01*
X122395952Y-84153333D01*
X122586428Y-84248571D01*
X122967380Y-84248571D01*
X123157857Y-84153333D01*
X122300714Y-83010476D02*
X122491190Y-82915238D01*
X122967380Y-82915238D01*
X123157857Y-83010476D01*
X123253095Y-83200952D01*
X123253095Y-83391428D01*
X123157857Y-83581904D01*
X122967380Y-83677142D01*
X122491190Y-83677142D01*
X122300714Y-83772380D01*
X121348333Y-84248571D02*
X121348333Y-82534285D01*
X121443571Y-82343809D01*
X121634047Y-82248571D01*
X121729285Y-82248571D01*
X121348333Y-84915238D02*
X121443571Y-84820000D01*
X121348333Y-84724761D01*
X121253095Y-84820000D01*
X121348333Y-84915238D01*
X121348333Y-84724761D01*
X119538809Y-82915238D02*
X119538809Y-83962857D01*
X119634047Y-84153333D01*
X119824523Y-84248571D01*
X120205476Y-84248571D01*
X120395952Y-84153333D01*
X119538809Y-83010476D02*
X119729285Y-82915238D01*
X120205476Y-82915238D01*
X120395952Y-83010476D01*
X120491190Y-83200952D01*
X120491190Y-83391428D01*
X120395952Y-83581904D01*
X120205476Y-83677142D01*
X119729285Y-83677142D01*
X119538809Y-83772380D01*
X118586428Y-82915238D02*
X118586428Y-84248571D01*
X118586428Y-83867619D02*
X118491190Y-84058095D01*
X118395952Y-84153333D01*
X118205476Y-84248571D01*
X118015000Y-84248571D01*
X117062619Y-82915238D02*
X117253095Y-83010476D01*
X117348333Y-83105714D01*
X117443571Y-83296190D01*
X117443571Y-83867619D01*
X117348333Y-84058095D01*
X117253095Y-84153333D01*
X117062619Y-84248571D01*
X116776904Y-84248571D01*
X116586428Y-84153333D01*
X116491190Y-84058095D01*
X116395952Y-83867619D01*
X116395952Y-83296190D01*
X116491190Y-83105714D01*
X116586428Y-83010476D01*
X116776904Y-82915238D01*
X117062619Y-82915238D01*
X115634047Y-83010476D02*
X115443571Y-82915238D01*
X115062619Y-82915238D01*
X114872142Y-83010476D01*
X114776904Y-83200952D01*
X114776904Y-83296190D01*
X114872142Y-83486666D01*
X115062619Y-83581904D01*
X115348333Y-83581904D01*
X115538809Y-83677142D01*
X115634047Y-83867619D01*
X115634047Y-83962857D01*
X115538809Y-84153333D01*
X115348333Y-84248571D01*
X115062619Y-84248571D01*
X114872142Y-84153333D01*
X116927380Y-98503809D02*
X116927380Y-97932380D01*
X117927380Y-98218095D02*
X116927380Y-98218095D01*
X117879761Y-97218095D02*
X117927380Y-97313333D01*
X117927380Y-97503809D01*
X117879761Y-97599047D01*
X117784523Y-97646666D01*
X117403571Y-97646666D01*
X117308333Y-97599047D01*
X117260714Y-97503809D01*
X117260714Y-97313333D01*
X117308333Y-97218095D01*
X117403571Y-97170476D01*
X117498809Y-97170476D01*
X117594047Y-97646666D01*
X117927380Y-96741904D02*
X117260714Y-96741904D01*
X117355952Y-96741904D02*
X117308333Y-96694285D01*
X117260714Y-96599047D01*
X117260714Y-96456190D01*
X117308333Y-96360952D01*
X117403571Y-96313333D01*
X117927380Y-96313333D01*
X117403571Y-96313333D02*
X117308333Y-96265714D01*
X117260714Y-96170476D01*
X117260714Y-96027619D01*
X117308333Y-95932380D01*
X117403571Y-95884761D01*
X117927380Y-95884761D01*
X117260714Y-95408571D02*
X118260714Y-95408571D01*
X117308333Y-95408571D02*
X117260714Y-95313333D01*
X117260714Y-95122857D01*
X117308333Y-95027619D01*
X117355952Y-94980000D01*
X117451190Y-94932380D01*
X117736904Y-94932380D01*
X117832142Y-94980000D01*
X117879761Y-95027619D01*
X117927380Y-95122857D01*
X117927380Y-95313333D01*
X117879761Y-95408571D01*
X117879761Y-94122857D02*
X117927380Y-94218095D01*
X117927380Y-94408571D01*
X117879761Y-94503809D01*
X117784523Y-94551428D01*
X117403571Y-94551428D01*
X117308333Y-94503809D01*
X117260714Y-94408571D01*
X117260714Y-94218095D01*
X117308333Y-94122857D01*
X117403571Y-94075238D01*
X117498809Y-94075238D01*
X117594047Y-94551428D01*
X117927380Y-93646666D02*
X117260714Y-93646666D01*
X117451190Y-93646666D02*
X117355952Y-93599047D01*
X117308333Y-93551428D01*
X117260714Y-93456190D01*
X117260714Y-93360952D01*
X117927380Y-92599047D02*
X117403571Y-92599047D01*
X117308333Y-92646666D01*
X117260714Y-92741904D01*
X117260714Y-92932380D01*
X117308333Y-93027619D01*
X117879761Y-92599047D02*
X117927380Y-92694285D01*
X117927380Y-92932380D01*
X117879761Y-93027619D01*
X117784523Y-93075238D01*
X117689285Y-93075238D01*
X117594047Y-93027619D01*
X117546428Y-92932380D01*
X117546428Y-92694285D01*
X117498809Y-92599047D01*
X117260714Y-92265714D02*
X117260714Y-91884761D01*
X116927380Y-92122857D02*
X117784523Y-92122857D01*
X117879761Y-92075238D01*
X117927380Y-91980000D01*
X117927380Y-91884761D01*
X117260714Y-91122857D02*
X117927380Y-91122857D01*
X117260714Y-91551428D02*
X117784523Y-91551428D01*
X117879761Y-91503809D01*
X117927380Y-91408571D01*
X117927380Y-91265714D01*
X117879761Y-91170476D01*
X117832142Y-91122857D01*
X117927380Y-90646666D02*
X117260714Y-90646666D01*
X117451190Y-90646666D02*
X117355952Y-90599047D01*
X117308333Y-90551428D01*
X117260714Y-90456190D01*
X117260714Y-90360952D01*
X117927380Y-89599047D02*
X117403571Y-89599047D01*
X117308333Y-89646666D01*
X117260714Y-89741904D01*
X117260714Y-89932380D01*
X117308333Y-90027619D01*
X117879761Y-89599047D02*
X117927380Y-89694285D01*
X117927380Y-89932380D01*
X117879761Y-90027619D01*
X117784523Y-90075238D01*
X117689285Y-90075238D01*
X117594047Y-90027619D01*
X117546428Y-89932380D01*
X117546428Y-89694285D01*
X117498809Y-89599047D01*
X110672380Y-86907619D02*
X110339047Y-85907619D01*
X110005714Y-86907619D01*
X109291428Y-85955238D02*
X109386666Y-85907619D01*
X109577142Y-85907619D01*
X109672380Y-85955238D01*
X109720000Y-86050476D01*
X109720000Y-86431428D01*
X109672380Y-86526666D01*
X109577142Y-86574285D01*
X109386666Y-86574285D01*
X109291428Y-86526666D01*
X109243809Y-86431428D01*
X109243809Y-86336190D01*
X109720000Y-86240952D01*
X108910476Y-85907619D02*
X108386666Y-86574285D01*
X108910476Y-86574285D02*
X108386666Y-85907619D01*
X108148571Y-86574285D02*
X107767619Y-86574285D01*
X108005714Y-86907619D02*
X108005714Y-86050476D01*
X107958095Y-85955238D01*
X107862857Y-85907619D01*
X107767619Y-85907619D01*
X109981904Y-91940000D02*
X110077142Y-91987619D01*
X110220000Y-91987619D01*
X110362857Y-91940000D01*
X110458095Y-91844761D01*
X110505714Y-91749523D01*
X110553333Y-91559047D01*
X110553333Y-91416190D01*
X110505714Y-91225714D01*
X110458095Y-91130476D01*
X110362857Y-91035238D01*
X110220000Y-90987619D01*
X110124761Y-90987619D01*
X109981904Y-91035238D01*
X109934285Y-91082857D01*
X109934285Y-91416190D01*
X110124761Y-91416190D01*
X109505714Y-90987619D02*
X109505714Y-91987619D01*
X108934285Y-90987619D01*
X108934285Y-91987619D01*
X108458095Y-90987619D02*
X108458095Y-91987619D01*
X108220000Y-91987619D01*
X108077142Y-91940000D01*
X107981904Y-91844761D01*
X107934285Y-91749523D01*
X107886666Y-91559047D01*
X107886666Y-91416190D01*
X107934285Y-91225714D01*
X107981904Y-91130476D01*
X108077142Y-91035238D01*
X108220000Y-90987619D01*
X108458095Y-90987619D01*
X110434285Y-98655238D02*
X110291428Y-98607619D01*
X110053333Y-98607619D01*
X109958095Y-98655238D01*
X109910476Y-98702857D01*
X109862857Y-98798095D01*
X109862857Y-98893333D01*
X109910476Y-98988571D01*
X109958095Y-99036190D01*
X110053333Y-99083809D01*
X110243809Y-99131428D01*
X110339047Y-99179047D01*
X110386666Y-99226666D01*
X110434285Y-99321904D01*
X110434285Y-99417142D01*
X110386666Y-99512380D01*
X110339047Y-99560000D01*
X110243809Y-99607619D01*
X110005714Y-99607619D01*
X109862857Y-99560000D01*
X109434285Y-98607619D02*
X109434285Y-99607619D01*
X109196190Y-99607619D01*
X109053333Y-99560000D01*
X108958095Y-99464761D01*
X108910476Y-99369523D01*
X108862857Y-99179047D01*
X108862857Y-99036190D01*
X108910476Y-98845714D01*
X108958095Y-98750476D01*
X109053333Y-98655238D01*
X109196190Y-98607619D01*
X109434285Y-98607619D01*
X108481904Y-98893333D02*
X108005714Y-98893333D01*
X108577142Y-98607619D02*
X108243809Y-99607619D01*
X107910476Y-98607619D01*
X110434285Y-101195238D02*
X110291428Y-101147619D01*
X110053333Y-101147619D01*
X109958095Y-101195238D01*
X109910476Y-101242857D01*
X109862857Y-101338095D01*
X109862857Y-101433333D01*
X109910476Y-101528571D01*
X109958095Y-101576190D01*
X110053333Y-101623809D01*
X110243809Y-101671428D01*
X110339047Y-101719047D01*
X110386666Y-101766666D01*
X110434285Y-101861904D01*
X110434285Y-101957142D01*
X110386666Y-102052380D01*
X110339047Y-102100000D01*
X110243809Y-102147619D01*
X110005714Y-102147619D01*
X109862857Y-102100000D01*
X109434285Y-101147619D02*
X109434285Y-102147619D01*
X109196190Y-102147619D01*
X109053333Y-102100000D01*
X108958095Y-102004761D01*
X108910476Y-101909523D01*
X108862857Y-101719047D01*
X108862857Y-101576190D01*
X108910476Y-101385714D01*
X108958095Y-101290476D01*
X109053333Y-101195238D01*
X109196190Y-101147619D01*
X109434285Y-101147619D01*
X108481904Y-101433333D02*
X108005714Y-101433333D01*
X108577142Y-101147619D02*
X108243809Y-102147619D01*
X107910476Y-101147619D01*
X94432619Y-100417380D02*
X94765952Y-101417380D01*
X95099285Y-100417380D01*
X95813571Y-101369761D02*
X95718333Y-101417380D01*
X95527857Y-101417380D01*
X95432619Y-101369761D01*
X95385000Y-101274523D01*
X95385000Y-100893571D01*
X95432619Y-100798333D01*
X95527857Y-100750714D01*
X95718333Y-100750714D01*
X95813571Y-100798333D01*
X95861190Y-100893571D01*
X95861190Y-100988809D01*
X95385000Y-101084047D01*
X96194523Y-101417380D02*
X96718333Y-100750714D01*
X96194523Y-100750714D02*
X96718333Y-101417380D01*
X96956428Y-100750714D02*
X97337380Y-100750714D01*
X97099285Y-100417380D02*
X97099285Y-101274523D01*
X97146904Y-101369761D01*
X97242142Y-101417380D01*
X97337380Y-101417380D01*
X95123095Y-108085000D02*
X95027857Y-108037380D01*
X94885000Y-108037380D01*
X94742142Y-108085000D01*
X94646904Y-108180238D01*
X94599285Y-108275476D01*
X94551666Y-108465952D01*
X94551666Y-108608809D01*
X94599285Y-108799285D01*
X94646904Y-108894523D01*
X94742142Y-108989761D01*
X94885000Y-109037380D01*
X94980238Y-109037380D01*
X95123095Y-108989761D01*
X95170714Y-108942142D01*
X95170714Y-108608809D01*
X94980238Y-108608809D01*
X95599285Y-109037380D02*
X95599285Y-108037380D01*
X96170714Y-109037380D01*
X96170714Y-108037380D01*
X96646904Y-109037380D02*
X96646904Y-108037380D01*
X96885000Y-108037380D01*
X97027857Y-108085000D01*
X97123095Y-108180238D01*
X97170714Y-108275476D01*
X97218333Y-108465952D01*
X97218333Y-108608809D01*
X97170714Y-108799285D01*
X97123095Y-108894523D01*
X97027857Y-108989761D01*
X96885000Y-109037380D01*
X96646904Y-109037380D01*
X95043809Y-103005000D02*
X94948571Y-102957380D01*
X94805714Y-102957380D01*
X94662857Y-103005000D01*
X94567619Y-103100238D01*
X94520000Y-103195476D01*
X94472380Y-103385952D01*
X94472380Y-103528809D01*
X94520000Y-103719285D01*
X94567619Y-103814523D01*
X94662857Y-103909761D01*
X94805714Y-103957380D01*
X94900952Y-103957380D01*
X95043809Y-103909761D01*
X95091428Y-103862142D01*
X95091428Y-103528809D01*
X94900952Y-103528809D01*
X95520000Y-103957380D02*
X95520000Y-102957380D01*
X95900952Y-102957380D01*
X95996190Y-103005000D01*
X96043809Y-103052619D01*
X96091428Y-103147857D01*
X96091428Y-103290714D01*
X96043809Y-103385952D01*
X95996190Y-103433571D01*
X95900952Y-103481190D01*
X95520000Y-103481190D01*
X96520000Y-103957380D02*
X96520000Y-102957380D01*
X97186666Y-102957380D02*
X97377142Y-102957380D01*
X97472380Y-103005000D01*
X97567619Y-103100238D01*
X97615238Y-103290714D01*
X97615238Y-103624047D01*
X97567619Y-103814523D01*
X97472380Y-103909761D01*
X97377142Y-103957380D01*
X97186666Y-103957380D01*
X97091428Y-103909761D01*
X96996190Y-103814523D01*
X96948571Y-103624047D01*
X96948571Y-103290714D01*
X96996190Y-103100238D01*
X97091428Y-103005000D01*
X97186666Y-102957380D01*
X97948571Y-102957380D02*
X98567619Y-102957380D01*
X98234285Y-103338333D01*
X98377142Y-103338333D01*
X98472380Y-103385952D01*
X98520000Y-103433571D01*
X98567619Y-103528809D01*
X98567619Y-103766904D01*
X98520000Y-103862142D01*
X98472380Y-103909761D01*
X98377142Y-103957380D01*
X98091428Y-103957380D01*
X97996190Y-103909761D01*
X97948571Y-103862142D01*
X95043809Y-105545000D02*
X94948571Y-105497380D01*
X94805714Y-105497380D01*
X94662857Y-105545000D01*
X94567619Y-105640238D01*
X94520000Y-105735476D01*
X94472380Y-105925952D01*
X94472380Y-106068809D01*
X94520000Y-106259285D01*
X94567619Y-106354523D01*
X94662857Y-106449761D01*
X94805714Y-106497380D01*
X94900952Y-106497380D01*
X95043809Y-106449761D01*
X95091428Y-106402142D01*
X95091428Y-106068809D01*
X94900952Y-106068809D01*
X95520000Y-106497380D02*
X95520000Y-105497380D01*
X95900952Y-105497380D01*
X95996190Y-105545000D01*
X96043809Y-105592619D01*
X96091428Y-105687857D01*
X96091428Y-105830714D01*
X96043809Y-105925952D01*
X95996190Y-105973571D01*
X95900952Y-106021190D01*
X95520000Y-106021190D01*
X96520000Y-106497380D02*
X96520000Y-105497380D01*
X97186666Y-105497380D02*
X97377142Y-105497380D01*
X97472380Y-105545000D01*
X97567619Y-105640238D01*
X97615238Y-105830714D01*
X97615238Y-106164047D01*
X97567619Y-106354523D01*
X97472380Y-106449761D01*
X97377142Y-106497380D01*
X97186666Y-106497380D01*
X97091428Y-106449761D01*
X96996190Y-106354523D01*
X96948571Y-106164047D01*
X96948571Y-105830714D01*
X96996190Y-105640238D01*
X97091428Y-105545000D01*
X97186666Y-105497380D01*
X97996190Y-105592619D02*
X98043809Y-105545000D01*
X98139047Y-105497380D01*
X98377142Y-105497380D01*
X98472380Y-105545000D01*
X98520000Y-105592619D01*
X98567619Y-105687857D01*
X98567619Y-105783095D01*
X98520000Y-105925952D01*
X97948571Y-106497380D01*
X98567619Y-106497380D01*
X94488095Y-77605000D02*
X94392857Y-77557380D01*
X94250000Y-77557380D01*
X94107142Y-77605000D01*
X94011904Y-77700238D01*
X93964285Y-77795476D01*
X93916666Y-77985952D01*
X93916666Y-78128809D01*
X93964285Y-78319285D01*
X94011904Y-78414523D01*
X94107142Y-78509761D01*
X94250000Y-78557380D01*
X94345238Y-78557380D01*
X94488095Y-78509761D01*
X94535714Y-78462142D01*
X94535714Y-78128809D01*
X94345238Y-78128809D01*
X94964285Y-78557380D02*
X94964285Y-77557380D01*
X95535714Y-78557380D01*
X95535714Y-77557380D01*
X96011904Y-78557380D02*
X96011904Y-77557380D01*
X96250000Y-77557380D01*
X96392857Y-77605000D01*
X96488095Y-77700238D01*
X96535714Y-77795476D01*
X96583333Y-77985952D01*
X96583333Y-78128809D01*
X96535714Y-78319285D01*
X96488095Y-78414523D01*
X96392857Y-78509761D01*
X96250000Y-78557380D01*
X96011904Y-78557380D01*
X96313809Y-82050000D02*
X96218571Y-82002380D01*
X96075714Y-82002380D01*
X95932857Y-82050000D01*
X95837619Y-82145238D01*
X95790000Y-82240476D01*
X95742380Y-82430952D01*
X95742380Y-82573809D01*
X95790000Y-82764285D01*
X95837619Y-82859523D01*
X95932857Y-82954761D01*
X96075714Y-83002380D01*
X96170952Y-83002380D01*
X96313809Y-82954761D01*
X96361428Y-82907142D01*
X96361428Y-82573809D01*
X96170952Y-82573809D01*
X96790000Y-83002380D02*
X96790000Y-82002380D01*
X97170952Y-82002380D01*
X97266190Y-82050000D01*
X97313809Y-82097619D01*
X97361428Y-82192857D01*
X97361428Y-82335714D01*
X97313809Y-82430952D01*
X97266190Y-82478571D01*
X97170952Y-82526190D01*
X96790000Y-82526190D01*
X97790000Y-83002380D02*
X97790000Y-82002380D01*
X98456666Y-82002380D02*
X98647142Y-82002380D01*
X98742380Y-82050000D01*
X98837619Y-82145238D01*
X98885238Y-82335714D01*
X98885238Y-82669047D01*
X98837619Y-82859523D01*
X98742380Y-82954761D01*
X98647142Y-83002380D01*
X98456666Y-83002380D01*
X98361428Y-82954761D01*
X98266190Y-82859523D01*
X98218571Y-82669047D01*
X98218571Y-82335714D01*
X98266190Y-82145238D01*
X98361428Y-82050000D01*
X98456666Y-82002380D01*
X99837619Y-83002380D02*
X99266190Y-83002380D01*
X99551904Y-83002380D02*
X99551904Y-82002380D01*
X99456666Y-82145238D01*
X99361428Y-82240476D01*
X99266190Y-82288095D01*
X91233809Y-82050000D02*
X91138571Y-82002380D01*
X90995714Y-82002380D01*
X90852857Y-82050000D01*
X90757619Y-82145238D01*
X90710000Y-82240476D01*
X90662380Y-82430952D01*
X90662380Y-82573809D01*
X90710000Y-82764285D01*
X90757619Y-82859523D01*
X90852857Y-82954761D01*
X90995714Y-83002380D01*
X91090952Y-83002380D01*
X91233809Y-82954761D01*
X91281428Y-82907142D01*
X91281428Y-82573809D01*
X91090952Y-82573809D01*
X91710000Y-83002380D02*
X91710000Y-82002380D01*
X92090952Y-82002380D01*
X92186190Y-82050000D01*
X92233809Y-82097619D01*
X92281428Y-82192857D01*
X92281428Y-82335714D01*
X92233809Y-82430952D01*
X92186190Y-82478571D01*
X92090952Y-82526190D01*
X91710000Y-82526190D01*
X92710000Y-83002380D02*
X92710000Y-82002380D01*
X93376666Y-82002380D02*
X93567142Y-82002380D01*
X93662380Y-82050000D01*
X93757619Y-82145238D01*
X93805238Y-82335714D01*
X93805238Y-82669047D01*
X93757619Y-82859523D01*
X93662380Y-82954761D01*
X93567142Y-83002380D01*
X93376666Y-83002380D01*
X93281428Y-82954761D01*
X93186190Y-82859523D01*
X93138571Y-82669047D01*
X93138571Y-82335714D01*
X93186190Y-82145238D01*
X93281428Y-82050000D01*
X93376666Y-82002380D01*
X94424285Y-82002380D02*
X94519523Y-82002380D01*
X94614761Y-82050000D01*
X94662380Y-82097619D01*
X94710000Y-82192857D01*
X94757619Y-82383333D01*
X94757619Y-82621428D01*
X94710000Y-82811904D01*
X94662380Y-82907142D01*
X94614761Y-82954761D01*
X94519523Y-83002380D01*
X94424285Y-83002380D01*
X94329047Y-82954761D01*
X94281428Y-82907142D01*
X94233809Y-82811904D01*
X94186190Y-82621428D01*
X94186190Y-82383333D01*
X94233809Y-82192857D01*
X94281428Y-82097619D01*
X94329047Y-82050000D01*
X94424285Y-82002380D01*
X103076190Y-75430000D02*
X103171428Y-75477619D01*
X103314285Y-75477619D01*
X103457142Y-75430000D01*
X103552380Y-75334761D01*
X103600000Y-75239523D01*
X103647619Y-75049047D01*
X103647619Y-74906190D01*
X103600000Y-74715714D01*
X103552380Y-74620476D01*
X103457142Y-74525238D01*
X103314285Y-74477619D01*
X103219047Y-74477619D01*
X103076190Y-74525238D01*
X103028571Y-74572857D01*
X103028571Y-74906190D01*
X103219047Y-74906190D01*
X102600000Y-74477619D02*
X102600000Y-75477619D01*
X102219047Y-75477619D01*
X102123809Y-75430000D01*
X102076190Y-75382380D01*
X102028571Y-75287142D01*
X102028571Y-75144285D01*
X102076190Y-75049047D01*
X102123809Y-75001428D01*
X102219047Y-74953809D01*
X102600000Y-74953809D01*
X101600000Y-74477619D02*
X101600000Y-75477619D01*
X100933333Y-75477619D02*
X100742857Y-75477619D01*
X100647619Y-75430000D01*
X100552380Y-75334761D01*
X100504761Y-75144285D01*
X100504761Y-74810952D01*
X100552380Y-74620476D01*
X100647619Y-74525238D01*
X100742857Y-74477619D01*
X100933333Y-74477619D01*
X101028571Y-74525238D01*
X101123809Y-74620476D01*
X101171428Y-74810952D01*
X101171428Y-75144285D01*
X101123809Y-75334761D01*
X101028571Y-75430000D01*
X100933333Y-75477619D01*
X99885714Y-75477619D02*
X99790476Y-75477619D01*
X99695238Y-75430000D01*
X99647619Y-75382380D01*
X99600000Y-75287142D01*
X99552380Y-75096666D01*
X99552380Y-74858571D01*
X99600000Y-74668095D01*
X99647619Y-74572857D01*
X99695238Y-74525238D01*
X99790476Y-74477619D01*
X99885714Y-74477619D01*
X99980952Y-74525238D01*
X100028571Y-74572857D01*
X100076190Y-74668095D01*
X100123809Y-74858571D01*
X100123809Y-75096666D01*
X100076190Y-75287142D01*
X100028571Y-75382380D01*
X99980952Y-75430000D01*
X99885714Y-75477619D01*
X115776190Y-75430000D02*
X115871428Y-75477619D01*
X116014285Y-75477619D01*
X116157142Y-75430000D01*
X116252380Y-75334761D01*
X116300000Y-75239523D01*
X116347619Y-75049047D01*
X116347619Y-74906190D01*
X116300000Y-74715714D01*
X116252380Y-74620476D01*
X116157142Y-74525238D01*
X116014285Y-74477619D01*
X115919047Y-74477619D01*
X115776190Y-74525238D01*
X115728571Y-74572857D01*
X115728571Y-74906190D01*
X115919047Y-74906190D01*
X115300000Y-74477619D02*
X115300000Y-75477619D01*
X114919047Y-75477619D01*
X114823809Y-75430000D01*
X114776190Y-75382380D01*
X114728571Y-75287142D01*
X114728571Y-75144285D01*
X114776190Y-75049047D01*
X114823809Y-75001428D01*
X114919047Y-74953809D01*
X115300000Y-74953809D01*
X114300000Y-74477619D02*
X114300000Y-75477619D01*
X113633333Y-75477619D02*
X113442857Y-75477619D01*
X113347619Y-75430000D01*
X113252380Y-75334761D01*
X113204761Y-75144285D01*
X113204761Y-74810952D01*
X113252380Y-74620476D01*
X113347619Y-74525238D01*
X113442857Y-74477619D01*
X113633333Y-74477619D01*
X113728571Y-74525238D01*
X113823809Y-74620476D01*
X113871428Y-74810952D01*
X113871428Y-75144285D01*
X113823809Y-75334761D01*
X113728571Y-75430000D01*
X113633333Y-75477619D01*
X112252380Y-74477619D02*
X112823809Y-74477619D01*
X112538095Y-74477619D02*
X112538095Y-75477619D01*
X112633333Y-75334761D01*
X112728571Y-75239523D01*
X112823809Y-75191904D01*
X112942619Y-78557619D02*
X111942619Y-78890952D01*
X112942619Y-79224285D01*
X111990238Y-79938571D02*
X111942619Y-79843333D01*
X111942619Y-79652857D01*
X111990238Y-79557619D01*
X112085476Y-79510000D01*
X112466428Y-79510000D01*
X112561666Y-79557619D01*
X112609285Y-79652857D01*
X112609285Y-79843333D01*
X112561666Y-79938571D01*
X112466428Y-79986190D01*
X112371190Y-79986190D01*
X112275952Y-79510000D01*
X111942619Y-80319523D02*
X112609285Y-80843333D01*
X112609285Y-80319523D02*
X111942619Y-80843333D01*
X112609285Y-81081428D02*
X112609285Y-81462380D01*
X112942619Y-81224285D02*
X112085476Y-81224285D01*
X111990238Y-81271904D01*
X111942619Y-81367142D01*
X111942619Y-81462380D01*
X110355000Y-79248095D02*
X110402619Y-79152857D01*
X110402619Y-79010000D01*
X110355000Y-78867142D01*
X110259761Y-78771904D01*
X110164523Y-78724285D01*
X109974047Y-78676666D01*
X109831190Y-78676666D01*
X109640714Y-78724285D01*
X109545476Y-78771904D01*
X109450238Y-78867142D01*
X109402619Y-79010000D01*
X109402619Y-79105238D01*
X109450238Y-79248095D01*
X109497857Y-79295714D01*
X109831190Y-79295714D01*
X109831190Y-79105238D01*
X109402619Y-79724285D02*
X110402619Y-79724285D01*
X109402619Y-80295714D01*
X110402619Y-80295714D01*
X109402619Y-80771904D02*
X110402619Y-80771904D01*
X110402619Y-81010000D01*
X110355000Y-81152857D01*
X110259761Y-81248095D01*
X110164523Y-81295714D01*
X109974047Y-81343333D01*
X109831190Y-81343333D01*
X109640714Y-81295714D01*
X109545476Y-81248095D01*
X109450238Y-81152857D01*
X109402619Y-81010000D01*
X109402619Y-80771904D01*
X104370238Y-78795714D02*
X104322619Y-78938571D01*
X104322619Y-79176666D01*
X104370238Y-79271904D01*
X104417857Y-79319523D01*
X104513095Y-79367142D01*
X104608333Y-79367142D01*
X104703571Y-79319523D01*
X104751190Y-79271904D01*
X104798809Y-79176666D01*
X104846428Y-78986190D01*
X104894047Y-78890952D01*
X104941666Y-78843333D01*
X105036904Y-78795714D01*
X105132142Y-78795714D01*
X105227380Y-78843333D01*
X105275000Y-78890952D01*
X105322619Y-78986190D01*
X105322619Y-79224285D01*
X105275000Y-79367142D01*
X104322619Y-79795714D02*
X105322619Y-79795714D01*
X105322619Y-80033809D01*
X105275000Y-80176666D01*
X105179761Y-80271904D01*
X105084523Y-80319523D01*
X104894047Y-80367142D01*
X104751190Y-80367142D01*
X104560714Y-80319523D01*
X104465476Y-80271904D01*
X104370238Y-80176666D01*
X104322619Y-80033809D01*
X104322619Y-79795714D01*
X104608333Y-80748095D02*
X104608333Y-81224285D01*
X104322619Y-80652857D02*
X105322619Y-80986190D01*
X104322619Y-81319523D01*
X106910238Y-78819523D02*
X106862619Y-78962380D01*
X106862619Y-79200476D01*
X106910238Y-79295714D01*
X106957857Y-79343333D01*
X107053095Y-79390952D01*
X107148333Y-79390952D01*
X107243571Y-79343333D01*
X107291190Y-79295714D01*
X107338809Y-79200476D01*
X107386428Y-79010000D01*
X107434047Y-78914761D01*
X107481666Y-78867142D01*
X107576904Y-78819523D01*
X107672142Y-78819523D01*
X107767380Y-78867142D01*
X107815000Y-78914761D01*
X107862619Y-79010000D01*
X107862619Y-79248095D01*
X107815000Y-79390952D01*
X106957857Y-80390952D02*
X106910238Y-80343333D01*
X106862619Y-80200476D01*
X106862619Y-80105238D01*
X106910238Y-79962380D01*
X107005476Y-79867142D01*
X107100714Y-79819523D01*
X107291190Y-79771904D01*
X107434047Y-79771904D01*
X107624523Y-79819523D01*
X107719761Y-79867142D01*
X107815000Y-79962380D01*
X107862619Y-80105238D01*
X107862619Y-80200476D01*
X107815000Y-80343333D01*
X107767380Y-80390952D01*
X106862619Y-81295714D02*
X106862619Y-80819523D01*
X107862619Y-80819523D01*
X107608809Y-75382380D02*
X107608809Y-74382380D01*
X108037380Y-74477619D02*
X108085000Y-74430000D01*
X108180238Y-74382380D01*
X108418333Y-74382380D01*
X108513571Y-74430000D01*
X108561190Y-74477619D01*
X108608809Y-74572857D01*
X108608809Y-74668095D01*
X108561190Y-74810952D01*
X107989761Y-75382380D01*
X108608809Y-75382380D01*
X109608809Y-75287142D02*
X109561190Y-75334761D01*
X109418333Y-75382380D01*
X109323095Y-75382380D01*
X109180238Y-75334761D01*
X109085000Y-75239523D01*
X109037380Y-75144285D01*
X108989761Y-74953809D01*
X108989761Y-74810952D01*
X109037380Y-74620476D01*
X109085000Y-74525238D01*
X109180238Y-74430000D01*
X109323095Y-74382380D01*
X109418333Y-74382380D01*
X109561190Y-74430000D01*
X109608809Y-74477619D01*
X91733809Y-97607380D02*
X91733809Y-96607380D01*
X92162380Y-96702619D02*
X92210000Y-96655000D01*
X92305238Y-96607380D01*
X92543333Y-96607380D01*
X92638571Y-96655000D01*
X92686190Y-96702619D01*
X92733809Y-96797857D01*
X92733809Y-96893095D01*
X92686190Y-97035952D01*
X92114761Y-97607380D01*
X92733809Y-97607380D01*
X93733809Y-97512142D02*
X93686190Y-97559761D01*
X93543333Y-97607380D01*
X93448095Y-97607380D01*
X93305238Y-97559761D01*
X93210000Y-97464523D01*
X93162380Y-97369285D01*
X93114761Y-97178809D01*
X93114761Y-97035952D01*
X93162380Y-96845476D01*
X93210000Y-96750238D01*
X93305238Y-96655000D01*
X93448095Y-96607380D01*
X93543333Y-96607380D01*
X93686190Y-96655000D01*
X93733809Y-96702619D01*
X107608809Y-110942380D02*
X107608809Y-109942380D01*
X108037380Y-110037619D02*
X108085000Y-109990000D01*
X108180238Y-109942380D01*
X108418333Y-109942380D01*
X108513571Y-109990000D01*
X108561190Y-110037619D01*
X108608809Y-110132857D01*
X108608809Y-110228095D01*
X108561190Y-110370952D01*
X107989761Y-110942380D01*
X108608809Y-110942380D01*
X109608809Y-110847142D02*
X109561190Y-110894761D01*
X109418333Y-110942380D01*
X109323095Y-110942380D01*
X109180238Y-110894761D01*
X109085000Y-110799523D01*
X109037380Y-110704285D01*
X108989761Y-110513809D01*
X108989761Y-110370952D01*
X109037380Y-110180476D01*
X109085000Y-110085238D01*
X109180238Y-109990000D01*
X109323095Y-109942380D01*
X109418333Y-109942380D01*
X109561190Y-109990000D01*
X109608809Y-110037619D01*
X94432619Y-86447380D02*
X94765952Y-87447380D01*
X95099285Y-86447380D01*
X95813571Y-87399761D02*
X95718333Y-87447380D01*
X95527857Y-87447380D01*
X95432619Y-87399761D01*
X95385000Y-87304523D01*
X95385000Y-86923571D01*
X95432619Y-86828333D01*
X95527857Y-86780714D01*
X95718333Y-86780714D01*
X95813571Y-86828333D01*
X95861190Y-86923571D01*
X95861190Y-87018809D01*
X95385000Y-87114047D01*
X96194523Y-87447380D02*
X96718333Y-86780714D01*
X96194523Y-86780714D02*
X96718333Y-87447380D01*
X96956428Y-86780714D02*
X97337380Y-86780714D01*
X97099285Y-86447380D02*
X97099285Y-87304523D01*
X97146904Y-87399761D01*
X97242142Y-87447380D01*
X97337380Y-87447380D01*
X95123095Y-89035000D02*
X95027857Y-88987380D01*
X94885000Y-88987380D01*
X94742142Y-89035000D01*
X94646904Y-89130238D01*
X94599285Y-89225476D01*
X94551666Y-89415952D01*
X94551666Y-89558809D01*
X94599285Y-89749285D01*
X94646904Y-89844523D01*
X94742142Y-89939761D01*
X94885000Y-89987380D01*
X94980238Y-89987380D01*
X95123095Y-89939761D01*
X95170714Y-89892142D01*
X95170714Y-89558809D01*
X94980238Y-89558809D01*
X95599285Y-89987380D02*
X95599285Y-88987380D01*
X96170714Y-89987380D01*
X96170714Y-88987380D01*
X96646904Y-89987380D02*
X96646904Y-88987380D01*
X96885000Y-88987380D01*
X97027857Y-89035000D01*
X97123095Y-89130238D01*
X97170714Y-89225476D01*
X97218333Y-89415952D01*
X97218333Y-89558809D01*
X97170714Y-89749285D01*
X97123095Y-89844523D01*
X97027857Y-89939761D01*
X96885000Y-89987380D01*
X96646904Y-89987380D01*
X94670714Y-95019761D02*
X94813571Y-95067380D01*
X95051666Y-95067380D01*
X95146904Y-95019761D01*
X95194523Y-94972142D01*
X95242142Y-94876904D01*
X95242142Y-94781666D01*
X95194523Y-94686428D01*
X95146904Y-94638809D01*
X95051666Y-94591190D01*
X94861190Y-94543571D01*
X94765952Y-94495952D01*
X94718333Y-94448333D01*
X94670714Y-94353095D01*
X94670714Y-94257857D01*
X94718333Y-94162619D01*
X94765952Y-94115000D01*
X94861190Y-94067380D01*
X95099285Y-94067380D01*
X95242142Y-94115000D01*
X95670714Y-95067380D02*
X95670714Y-94067380D01*
X95908809Y-94067380D01*
X96051666Y-94115000D01*
X96146904Y-94210238D01*
X96194523Y-94305476D01*
X96242142Y-94495952D01*
X96242142Y-94638809D01*
X96194523Y-94829285D01*
X96146904Y-94924523D01*
X96051666Y-95019761D01*
X95908809Y-95067380D01*
X95670714Y-95067380D01*
X96623095Y-94781666D02*
X97099285Y-94781666D01*
X96527857Y-95067380D02*
X96861190Y-94067380D01*
X97194523Y-95067380D01*
X94694523Y-92479761D02*
X94837380Y-92527380D01*
X95075476Y-92527380D01*
X95170714Y-92479761D01*
X95218333Y-92432142D01*
X95265952Y-92336904D01*
X95265952Y-92241666D01*
X95218333Y-92146428D01*
X95170714Y-92098809D01*
X95075476Y-92051190D01*
X94885000Y-92003571D01*
X94789761Y-91955952D01*
X94742142Y-91908333D01*
X94694523Y-91813095D01*
X94694523Y-91717857D01*
X94742142Y-91622619D01*
X94789761Y-91575000D01*
X94885000Y-91527380D01*
X95123095Y-91527380D01*
X95265952Y-91575000D01*
X96265952Y-92432142D02*
X96218333Y-92479761D01*
X96075476Y-92527380D01*
X95980238Y-92527380D01*
X95837380Y-92479761D01*
X95742142Y-92384523D01*
X95694523Y-92289285D01*
X95646904Y-92098809D01*
X95646904Y-91955952D01*
X95694523Y-91765476D01*
X95742142Y-91670238D01*
X95837380Y-91575000D01*
X95980238Y-91527380D01*
X96075476Y-91527380D01*
X96218333Y-91575000D01*
X96265952Y-91622619D01*
X97170714Y-92527380D02*
X96694523Y-92527380D01*
X96694523Y-91527380D01*
X111847380Y-106862380D02*
X112847380Y-106529047D01*
X111847380Y-106195714D01*
X112799761Y-105481428D02*
X112847380Y-105576666D01*
X112847380Y-105767142D01*
X112799761Y-105862380D01*
X112704523Y-105910000D01*
X112323571Y-105910000D01*
X112228333Y-105862380D01*
X112180714Y-105767142D01*
X112180714Y-105576666D01*
X112228333Y-105481428D01*
X112323571Y-105433809D01*
X112418809Y-105433809D01*
X112514047Y-105910000D01*
X112847380Y-105100476D02*
X112180714Y-104576666D01*
X112180714Y-105100476D02*
X112847380Y-104576666D01*
X112180714Y-104338571D02*
X112180714Y-103957619D01*
X111847380Y-104195714D02*
X112704523Y-104195714D01*
X112799761Y-104148095D01*
X112847380Y-104052857D01*
X112847380Y-103957619D01*
X109355000Y-106171904D02*
X109307380Y-106267142D01*
X109307380Y-106410000D01*
X109355000Y-106552857D01*
X109450238Y-106648095D01*
X109545476Y-106695714D01*
X109735952Y-106743333D01*
X109878809Y-106743333D01*
X110069285Y-106695714D01*
X110164523Y-106648095D01*
X110259761Y-106552857D01*
X110307380Y-106410000D01*
X110307380Y-106314761D01*
X110259761Y-106171904D01*
X110212142Y-106124285D01*
X109878809Y-106124285D01*
X109878809Y-106314761D01*
X110307380Y-105695714D02*
X109307380Y-105695714D01*
X110307380Y-105124285D01*
X109307380Y-105124285D01*
X110307380Y-104648095D02*
X109307380Y-104648095D01*
X109307380Y-104410000D01*
X109355000Y-104267142D01*
X109450238Y-104171904D01*
X109545476Y-104124285D01*
X109735952Y-104076666D01*
X109878809Y-104076666D01*
X110069285Y-104124285D01*
X110164523Y-104171904D01*
X110259761Y-104267142D01*
X110307380Y-104410000D01*
X110307380Y-104648095D01*
X107719761Y-106600476D02*
X107767380Y-106457619D01*
X107767380Y-106219523D01*
X107719761Y-106124285D01*
X107672142Y-106076666D01*
X107576904Y-106029047D01*
X107481666Y-106029047D01*
X107386428Y-106076666D01*
X107338809Y-106124285D01*
X107291190Y-106219523D01*
X107243571Y-106410000D01*
X107195952Y-106505238D01*
X107148333Y-106552857D01*
X107053095Y-106600476D01*
X106957857Y-106600476D01*
X106862619Y-106552857D01*
X106815000Y-106505238D01*
X106767380Y-106410000D01*
X106767380Y-106171904D01*
X106815000Y-106029047D01*
X107672142Y-105029047D02*
X107719761Y-105076666D01*
X107767380Y-105219523D01*
X107767380Y-105314761D01*
X107719761Y-105457619D01*
X107624523Y-105552857D01*
X107529285Y-105600476D01*
X107338809Y-105648095D01*
X107195952Y-105648095D01*
X107005476Y-105600476D01*
X106910238Y-105552857D01*
X106815000Y-105457619D01*
X106767380Y-105314761D01*
X106767380Y-105219523D01*
X106815000Y-105076666D01*
X106862619Y-105029047D01*
X107767380Y-104124285D02*
X107767380Y-104600476D01*
X106767380Y-104600476D01*
X105179761Y-106624285D02*
X105227380Y-106481428D01*
X105227380Y-106243333D01*
X105179761Y-106148095D01*
X105132142Y-106100476D01*
X105036904Y-106052857D01*
X104941666Y-106052857D01*
X104846428Y-106100476D01*
X104798809Y-106148095D01*
X104751190Y-106243333D01*
X104703571Y-106433809D01*
X104655952Y-106529047D01*
X104608333Y-106576666D01*
X104513095Y-106624285D01*
X104417857Y-106624285D01*
X104322619Y-106576666D01*
X104275000Y-106529047D01*
X104227380Y-106433809D01*
X104227380Y-106195714D01*
X104275000Y-106052857D01*
X105227380Y-105624285D02*
X104227380Y-105624285D01*
X104227380Y-105386190D01*
X104275000Y-105243333D01*
X104370238Y-105148095D01*
X104465476Y-105100476D01*
X104655952Y-105052857D01*
X104798809Y-105052857D01*
X104989285Y-105100476D01*
X105084523Y-105148095D01*
X105179761Y-105243333D01*
X105227380Y-105386190D01*
X105227380Y-105624285D01*
X104941666Y-104671904D02*
X104941666Y-104195714D01*
X105227380Y-104767142D02*
X104227380Y-104433809D01*
X105227380Y-104100476D01*
X136493095Y-67857619D02*
X135874047Y-67857619D01*
X136207380Y-67476666D01*
X136064523Y-67476666D01*
X135969285Y-67429047D01*
X135921666Y-67381428D01*
X135874047Y-67286190D01*
X135874047Y-67048095D01*
X135921666Y-66952857D01*
X135969285Y-66905238D01*
X136064523Y-66857619D01*
X136350238Y-66857619D01*
X136445476Y-66905238D01*
X136493095Y-66952857D01*
X135588333Y-67857619D02*
X135255000Y-66857619D01*
X134921666Y-67857619D01*
X134683571Y-67857619D02*
X134064523Y-67857619D01*
X134397857Y-67476666D01*
X134255000Y-67476666D01*
X134159761Y-67429047D01*
X134112142Y-67381428D01*
X134064523Y-67286190D01*
X134064523Y-67048095D01*
X134112142Y-66952857D01*
X134159761Y-66905238D01*
X134255000Y-66857619D01*
X134540714Y-66857619D01*
X134635952Y-66905238D01*
X134683571Y-66952857D01*
X136707380Y-71032619D02*
X136374047Y-70032619D01*
X136040714Y-71032619D01*
X135326428Y-70080238D02*
X135421666Y-70032619D01*
X135612142Y-70032619D01*
X135707380Y-70080238D01*
X135755000Y-70175476D01*
X135755000Y-70556428D01*
X135707380Y-70651666D01*
X135612142Y-70699285D01*
X135421666Y-70699285D01*
X135326428Y-70651666D01*
X135278809Y-70556428D01*
X135278809Y-70461190D01*
X135755000Y-70365952D01*
X134945476Y-70032619D02*
X134421666Y-70699285D01*
X134945476Y-70699285D02*
X134421666Y-70032619D01*
X134183571Y-70699285D02*
X133802619Y-70699285D01*
X134040714Y-71032619D02*
X134040714Y-70175476D01*
X133993095Y-70080238D01*
X133897857Y-70032619D01*
X133802619Y-70032619D01*
X136016904Y-74160000D02*
X136112142Y-74207619D01*
X136255000Y-74207619D01*
X136397857Y-74160000D01*
X136493095Y-74064761D01*
X136540714Y-73969523D01*
X136588333Y-73779047D01*
X136588333Y-73636190D01*
X136540714Y-73445714D01*
X136493095Y-73350476D01*
X136397857Y-73255238D01*
X136255000Y-73207619D01*
X136159761Y-73207619D01*
X136016904Y-73255238D01*
X135969285Y-73302857D01*
X135969285Y-73636190D01*
X136159761Y-73636190D01*
X135540714Y-73207619D02*
X135540714Y-74207619D01*
X134969285Y-73207619D01*
X134969285Y-74207619D01*
X134493095Y-73207619D02*
X134493095Y-74207619D01*
X134255000Y-74207619D01*
X134112142Y-74160000D01*
X134016904Y-74064761D01*
X133969285Y-73969523D01*
X133921666Y-73779047D01*
X133921666Y-73636190D01*
X133969285Y-73445714D01*
X134016904Y-73350476D01*
X134112142Y-73255238D01*
X134255000Y-73207619D01*
X134493095Y-73207619D01*
X163266428Y-94995952D02*
X163266428Y-94234047D01*
X162814047Y-101036428D02*
X163575952Y-101036428D01*
X163195000Y-101417380D02*
X163195000Y-100655476D01*
X165171428Y-96837619D02*
X165123809Y-96980476D01*
X165076190Y-97028095D01*
X164980952Y-97075714D01*
X164838095Y-97075714D01*
X164742857Y-97028095D01*
X164695238Y-96980476D01*
X164647619Y-96885238D01*
X164647619Y-96504285D01*
X165647619Y-96504285D01*
X165647619Y-96837619D01*
X165600000Y-96932857D01*
X165552380Y-96980476D01*
X165457142Y-97028095D01*
X165361904Y-97028095D01*
X165266666Y-96980476D01*
X165219047Y-96932857D01*
X165171428Y-96837619D01*
X165171428Y-96504285D01*
X164647619Y-97932857D02*
X165171428Y-97932857D01*
X165266666Y-97885238D01*
X165314285Y-97790000D01*
X165314285Y-97599523D01*
X165266666Y-97504285D01*
X164695238Y-97932857D02*
X164647619Y-97837619D01*
X164647619Y-97599523D01*
X164695238Y-97504285D01*
X164790476Y-97456666D01*
X164885714Y-97456666D01*
X164980952Y-97504285D01*
X165028571Y-97599523D01*
X165028571Y-97837619D01*
X165076190Y-97932857D01*
X165314285Y-98266190D02*
X165314285Y-98647142D01*
X165647619Y-98409047D02*
X164790476Y-98409047D01*
X164695238Y-98456666D01*
X164647619Y-98551904D01*
X164647619Y-98647142D01*
X165314285Y-98837619D02*
X165314285Y-99218571D01*
X165647619Y-98980476D02*
X164790476Y-98980476D01*
X164695238Y-99028095D01*
X164647619Y-99123333D01*
X164647619Y-99218571D01*
X160909047Y-108656428D02*
X161670952Y-108656428D01*
X167259047Y-108656428D02*
X168020952Y-108656428D01*
X167640000Y-109037380D02*
X167640000Y-108275476D01*
X163512619Y-105973571D02*
X163655476Y-106021190D01*
X163703095Y-106068809D01*
X163750714Y-106164047D01*
X163750714Y-106306904D01*
X163703095Y-106402142D01*
X163655476Y-106449761D01*
X163560238Y-106497380D01*
X163179285Y-106497380D01*
X163179285Y-105497380D01*
X163512619Y-105497380D01*
X163607857Y-105545000D01*
X163655476Y-105592619D01*
X163703095Y-105687857D01*
X163703095Y-105783095D01*
X163655476Y-105878333D01*
X163607857Y-105925952D01*
X163512619Y-105973571D01*
X163179285Y-105973571D01*
X164607857Y-106497380D02*
X164607857Y-105973571D01*
X164560238Y-105878333D01*
X164465000Y-105830714D01*
X164274523Y-105830714D01*
X164179285Y-105878333D01*
X164607857Y-106449761D02*
X164512619Y-106497380D01*
X164274523Y-106497380D01*
X164179285Y-106449761D01*
X164131666Y-106354523D01*
X164131666Y-106259285D01*
X164179285Y-106164047D01*
X164274523Y-106116428D01*
X164512619Y-106116428D01*
X164607857Y-106068809D01*
X164941190Y-105830714D02*
X165322142Y-105830714D01*
X165084047Y-105497380D02*
X165084047Y-106354523D01*
X165131666Y-106449761D01*
X165226904Y-106497380D01*
X165322142Y-106497380D01*
X165512619Y-105830714D02*
X165893571Y-105830714D01*
X165655476Y-105497380D02*
X165655476Y-106354523D01*
X165703095Y-106449761D01*
X165798333Y-106497380D01*
X165893571Y-106497380D01*
X176442619Y-64230714D02*
X176442619Y-64849761D01*
X176061666Y-64516428D01*
X176061666Y-64659285D01*
X176014047Y-64754523D01*
X175966428Y-64802142D01*
X175871190Y-64849761D01*
X175633095Y-64849761D01*
X175537857Y-64802142D01*
X175490238Y-64754523D01*
X175442619Y-64659285D01*
X175442619Y-64373571D01*
X175490238Y-64278333D01*
X175537857Y-64230714D01*
X175490238Y-65325952D02*
X175442619Y-65325952D01*
X175347380Y-65278333D01*
X175299761Y-65230714D01*
X176014047Y-65897380D02*
X176061666Y-65802142D01*
X176109285Y-65754523D01*
X176204523Y-65706904D01*
X176252142Y-65706904D01*
X176347380Y-65754523D01*
X176395000Y-65802142D01*
X176442619Y-65897380D01*
X176442619Y-66087857D01*
X176395000Y-66183095D01*
X176347380Y-66230714D01*
X176252142Y-66278333D01*
X176204523Y-66278333D01*
X176109285Y-66230714D01*
X176061666Y-66183095D01*
X176014047Y-66087857D01*
X176014047Y-65897380D01*
X175966428Y-65802142D01*
X175918809Y-65754523D01*
X175823571Y-65706904D01*
X175633095Y-65706904D01*
X175537857Y-65754523D01*
X175490238Y-65802142D01*
X175442619Y-65897380D01*
X175442619Y-66087857D01*
X175490238Y-66183095D01*
X175537857Y-66230714D01*
X175633095Y-66278333D01*
X175823571Y-66278333D01*
X175918809Y-66230714D01*
X175966428Y-66183095D01*
X176014047Y-66087857D01*
X175442619Y-67230714D02*
X175442619Y-66659285D01*
X175442619Y-66945000D02*
X176442619Y-66945000D01*
X176299761Y-66849761D01*
X176204523Y-66754523D01*
X176156904Y-66659285D01*
X176442619Y-67849761D02*
X176442619Y-67945000D01*
X176395000Y-68040238D01*
X176347380Y-68087857D01*
X176252142Y-68135476D01*
X176061666Y-68183095D01*
X175823571Y-68183095D01*
X175633095Y-68135476D01*
X175537857Y-68087857D01*
X175490238Y-68040238D01*
X175442619Y-67945000D01*
X175442619Y-67849761D01*
X175490238Y-67754523D01*
X175537857Y-67706904D01*
X175633095Y-67659285D01*
X175823571Y-67611666D01*
X176061666Y-67611666D01*
X176252142Y-67659285D01*
X176347380Y-67706904D01*
X176395000Y-67754523D01*
X176442619Y-67849761D01*
X175442619Y-69373571D02*
X176109285Y-69373571D01*
X176014047Y-69373571D02*
X176061666Y-69421190D01*
X176109285Y-69516428D01*
X176109285Y-69659285D01*
X176061666Y-69754523D01*
X175966428Y-69802142D01*
X175442619Y-69802142D01*
X175966428Y-69802142D02*
X176061666Y-69849761D01*
X176109285Y-69945000D01*
X176109285Y-70087857D01*
X176061666Y-70183095D01*
X175966428Y-70230714D01*
X175442619Y-70230714D01*
X175442619Y-70706904D02*
X176109285Y-70706904D01*
X176014047Y-70706904D02*
X176061666Y-70754523D01*
X176109285Y-70849761D01*
X176109285Y-70992619D01*
X176061666Y-71087857D01*
X175966428Y-71135476D01*
X175442619Y-71135476D01*
X175966428Y-71135476D02*
X176061666Y-71183095D01*
X176109285Y-71278333D01*
X176109285Y-71421190D01*
X176061666Y-71516428D01*
X175966428Y-71564047D01*
X175442619Y-71564047D01*
D11*
X174625000Y-66040000D02*
X174625000Y-69850000D01*
X170180000Y-66040000D02*
X175211421Y-66040000D01*
X170180000Y-69850000D02*
X175211421Y-69850000D01*
X174625000Y-69850000D02*
X174038579Y-68723496D01*
X174625000Y-69850000D02*
X175211421Y-68723496D01*
X174625000Y-66040000D02*
X174038579Y-67166504D01*
X174625000Y-66040000D02*
X175211421Y-67166504D01*
D10*
X160146904Y-67175000D02*
X160242142Y-67222619D01*
X160385000Y-67222619D01*
X160527857Y-67175000D01*
X160623095Y-67079761D01*
X160670714Y-66984523D01*
X160718333Y-66794047D01*
X160718333Y-66651190D01*
X160670714Y-66460714D01*
X160623095Y-66365476D01*
X160527857Y-66270238D01*
X160385000Y-66222619D01*
X160289761Y-66222619D01*
X160146904Y-66270238D01*
X160099285Y-66317857D01*
X160099285Y-66651190D01*
X160289761Y-66651190D01*
X159670714Y-66222619D02*
X159670714Y-67222619D01*
X159099285Y-66222619D01*
X159099285Y-67222619D01*
X158623095Y-66222619D02*
X158623095Y-67222619D01*
X158385000Y-67222619D01*
X158242142Y-67175000D01*
X158146904Y-67079761D01*
X158099285Y-66984523D01*
X158051666Y-66794047D01*
X158051666Y-66651190D01*
X158099285Y-66460714D01*
X158146904Y-66365476D01*
X158242142Y-66270238D01*
X158385000Y-66222619D01*
X158623095Y-66222619D01*
X157019285Y-66603571D02*
X156257380Y-66603571D01*
X156638333Y-66222619D02*
X156638333Y-66984523D01*
X155828809Y-66270238D02*
X155685952Y-66222619D01*
X155447857Y-66222619D01*
X155352619Y-66270238D01*
X155305000Y-66317857D01*
X155257380Y-66413095D01*
X155257380Y-66508333D01*
X155305000Y-66603571D01*
X155352619Y-66651190D01*
X155447857Y-66698809D01*
X155638333Y-66746428D01*
X155733571Y-66794047D01*
X155781190Y-66841666D01*
X155828809Y-66936904D01*
X155828809Y-67032142D01*
X155781190Y-67127380D01*
X155733571Y-67175000D01*
X155638333Y-67222619D01*
X155400238Y-67222619D01*
X155257380Y-67175000D01*
X154638333Y-67222619D02*
X154447857Y-67222619D01*
X154352619Y-67175000D01*
X154257380Y-67079761D01*
X154209761Y-66889285D01*
X154209761Y-66555952D01*
X154257380Y-66365476D01*
X154352619Y-66270238D01*
X154447857Y-66222619D01*
X154638333Y-66222619D01*
X154733571Y-66270238D01*
X154828809Y-66365476D01*
X154876428Y-66555952D01*
X154876428Y-66889285D01*
X154828809Y-67079761D01*
X154733571Y-67175000D01*
X154638333Y-67222619D01*
X153305000Y-66222619D02*
X153781190Y-66222619D01*
X153781190Y-67222619D01*
X153019285Y-66508333D02*
X152543095Y-66508333D01*
X153114523Y-66222619D02*
X152781190Y-67222619D01*
X152447857Y-66222619D01*
X151543095Y-66222619D02*
X151876428Y-66698809D01*
X152114523Y-66222619D02*
X152114523Y-67222619D01*
X151733571Y-67222619D01*
X151638333Y-67175000D01*
X151590714Y-67127380D01*
X151543095Y-67032142D01*
X151543095Y-66889285D01*
X151590714Y-66794047D01*
X151638333Y-66746428D01*
X151733571Y-66698809D01*
X152114523Y-66698809D01*
X175982380Y-114045476D02*
X175982380Y-113426428D01*
X176363333Y-113759761D01*
X176363333Y-113616904D01*
X176410952Y-113521666D01*
X176458571Y-113474047D01*
X176553809Y-113426428D01*
X176791904Y-113426428D01*
X176887142Y-113474047D01*
X176934761Y-113521666D01*
X176982380Y-113616904D01*
X176982380Y-113902619D01*
X176934761Y-113997857D01*
X176887142Y-114045476D01*
X175982380Y-112569285D02*
X175982380Y-112759761D01*
X176030000Y-112855000D01*
X176077619Y-112902619D01*
X176220476Y-112997857D01*
X176410952Y-113045476D01*
X176791904Y-113045476D01*
X176887142Y-112997857D01*
X176934761Y-112950238D01*
X176982380Y-112855000D01*
X176982380Y-112664523D01*
X176934761Y-112569285D01*
X176887142Y-112521666D01*
X176791904Y-112474047D01*
X176553809Y-112474047D01*
X176458571Y-112521666D01*
X176410952Y-112569285D01*
X176363333Y-112664523D01*
X176363333Y-112855000D01*
X176410952Y-112950238D01*
X176458571Y-112997857D01*
X176553809Y-113045476D01*
X176934761Y-111997857D02*
X176982380Y-111997857D01*
X177077619Y-112045476D01*
X177125238Y-112093095D01*
X176410952Y-111426428D02*
X176363333Y-111521666D01*
X176315714Y-111569285D01*
X176220476Y-111616904D01*
X176172857Y-111616904D01*
X176077619Y-111569285D01*
X176030000Y-111521666D01*
X175982380Y-111426428D01*
X175982380Y-111235952D01*
X176030000Y-111140714D01*
X176077619Y-111093095D01*
X176172857Y-111045476D01*
X176220476Y-111045476D01*
X176315714Y-111093095D01*
X176363333Y-111140714D01*
X176410952Y-111235952D01*
X176410952Y-111426428D01*
X176458571Y-111521666D01*
X176506190Y-111569285D01*
X176601428Y-111616904D01*
X176791904Y-111616904D01*
X176887142Y-111569285D01*
X176934761Y-111521666D01*
X176982380Y-111426428D01*
X176982380Y-111235952D01*
X176934761Y-111140714D01*
X176887142Y-111093095D01*
X176791904Y-111045476D01*
X176601428Y-111045476D01*
X176506190Y-111093095D01*
X176458571Y-111140714D01*
X176410952Y-111235952D01*
X175982380Y-110712142D02*
X175982380Y-110093095D01*
X176363333Y-110426428D01*
X176363333Y-110283571D01*
X176410952Y-110188333D01*
X176458571Y-110140714D01*
X176553809Y-110093095D01*
X176791904Y-110093095D01*
X176887142Y-110140714D01*
X176934761Y-110188333D01*
X176982380Y-110283571D01*
X176982380Y-110569285D01*
X176934761Y-110664523D01*
X176887142Y-110712142D01*
X175982380Y-109474047D02*
X175982380Y-109378809D01*
X176030000Y-109283571D01*
X176077619Y-109235952D01*
X176172857Y-109188333D01*
X176363333Y-109140714D01*
X176601428Y-109140714D01*
X176791904Y-109188333D01*
X176887142Y-109235952D01*
X176934761Y-109283571D01*
X176982380Y-109378809D01*
X176982380Y-109474047D01*
X176934761Y-109569285D01*
X176887142Y-109616904D01*
X176791904Y-109664523D01*
X176601428Y-109712142D01*
X176363333Y-109712142D01*
X176172857Y-109664523D01*
X176077619Y-109616904D01*
X176030000Y-109569285D01*
X175982380Y-109474047D01*
X176982380Y-107950238D02*
X176315714Y-107950238D01*
X176410952Y-107950238D02*
X176363333Y-107902619D01*
X176315714Y-107807380D01*
X176315714Y-107664523D01*
X176363333Y-107569285D01*
X176458571Y-107521666D01*
X176982380Y-107521666D01*
X176458571Y-107521666D02*
X176363333Y-107474047D01*
X176315714Y-107378809D01*
X176315714Y-107235952D01*
X176363333Y-107140714D01*
X176458571Y-107093095D01*
X176982380Y-107093095D01*
X176982380Y-106616904D02*
X176315714Y-106616904D01*
X176410952Y-106616904D02*
X176363333Y-106569285D01*
X176315714Y-106474047D01*
X176315714Y-106331190D01*
X176363333Y-106235952D01*
X176458571Y-106188333D01*
X176982380Y-106188333D01*
X176458571Y-106188333D02*
X176363333Y-106140714D01*
X176315714Y-106045476D01*
X176315714Y-105902619D01*
X176363333Y-105807380D01*
X176458571Y-105759761D01*
X176982380Y-105759761D01*
D11*
X175260000Y-128270000D02*
X175260000Y-91440000D01*
X166370000Y-128270000D02*
X175846421Y-128270000D01*
X166370000Y-91440000D02*
X175846421Y-91440000D01*
X175260000Y-91440000D02*
X175846421Y-92566504D01*
X175260000Y-91440000D02*
X174673579Y-92566504D01*
X175260000Y-128270000D02*
X175846421Y-127143496D01*
X175260000Y-128270000D02*
X174673579Y-127143496D01*
D10*
X164560714Y-136612380D02*
X165179761Y-136612380D01*
X164846428Y-136993333D01*
X164989285Y-136993333D01*
X165084523Y-137040952D01*
X165132142Y-137088571D01*
X165179761Y-137183809D01*
X165179761Y-137421904D01*
X165132142Y-137517142D01*
X165084523Y-137564761D01*
X164989285Y-137612380D01*
X164703571Y-137612380D01*
X164608333Y-137564761D01*
X164560714Y-137517142D01*
X165655952Y-137564761D02*
X165655952Y-137612380D01*
X165608333Y-137707619D01*
X165560714Y-137755238D01*
X166227380Y-137040952D02*
X166132142Y-136993333D01*
X166084523Y-136945714D01*
X166036904Y-136850476D01*
X166036904Y-136802857D01*
X166084523Y-136707619D01*
X166132142Y-136660000D01*
X166227380Y-136612380D01*
X166417857Y-136612380D01*
X166513095Y-136660000D01*
X166560714Y-136707619D01*
X166608333Y-136802857D01*
X166608333Y-136850476D01*
X166560714Y-136945714D01*
X166513095Y-136993333D01*
X166417857Y-137040952D01*
X166227380Y-137040952D01*
X166132142Y-137088571D01*
X166084523Y-137136190D01*
X166036904Y-137231428D01*
X166036904Y-137421904D01*
X166084523Y-137517142D01*
X166132142Y-137564761D01*
X166227380Y-137612380D01*
X166417857Y-137612380D01*
X166513095Y-137564761D01*
X166560714Y-137517142D01*
X166608333Y-137421904D01*
X166608333Y-137231428D01*
X166560714Y-137136190D01*
X166513095Y-137088571D01*
X166417857Y-137040952D01*
X167560714Y-137612380D02*
X166989285Y-137612380D01*
X167275000Y-137612380D02*
X167275000Y-136612380D01*
X167179761Y-136755238D01*
X167084523Y-136850476D01*
X166989285Y-136898095D01*
X168179761Y-136612380D02*
X168275000Y-136612380D01*
X168370238Y-136660000D01*
X168417857Y-136707619D01*
X168465476Y-136802857D01*
X168513095Y-136993333D01*
X168513095Y-137231428D01*
X168465476Y-137421904D01*
X168417857Y-137517142D01*
X168370238Y-137564761D01*
X168275000Y-137612380D01*
X168179761Y-137612380D01*
X168084523Y-137564761D01*
X168036904Y-137517142D01*
X167989285Y-137421904D01*
X167941666Y-137231428D01*
X167941666Y-136993333D01*
X167989285Y-136802857D01*
X168036904Y-136707619D01*
X168084523Y-136660000D01*
X168179761Y-136612380D01*
X169703571Y-137612380D02*
X169703571Y-136945714D01*
X169703571Y-137040952D02*
X169751190Y-136993333D01*
X169846428Y-136945714D01*
X169989285Y-136945714D01*
X170084523Y-136993333D01*
X170132142Y-137088571D01*
X170132142Y-137612380D01*
X170132142Y-137088571D02*
X170179761Y-136993333D01*
X170275000Y-136945714D01*
X170417857Y-136945714D01*
X170513095Y-136993333D01*
X170560714Y-137088571D01*
X170560714Y-137612380D01*
X171036904Y-137612380D02*
X171036904Y-136945714D01*
X171036904Y-137040952D02*
X171084523Y-136993333D01*
X171179761Y-136945714D01*
X171322619Y-136945714D01*
X171417857Y-136993333D01*
X171465476Y-137088571D01*
X171465476Y-137612380D01*
X171465476Y-137088571D02*
X171513095Y-136993333D01*
X171608333Y-136945714D01*
X171751190Y-136945714D01*
X171846428Y-136993333D01*
X171894047Y-137088571D01*
X171894047Y-137612380D01*
D11*
X166370000Y-135890000D02*
X170180000Y-135890000D01*
X166370000Y-128270000D02*
X166370000Y-136476421D01*
X170180000Y-128270000D02*
X170180000Y-136476421D01*
X170180000Y-135890000D02*
X169053496Y-136476421D01*
X170180000Y-135890000D02*
X169053496Y-135303579D01*
X166370000Y-135890000D02*
X167496504Y-136476421D01*
X166370000Y-135890000D02*
X167496504Y-135303579D01*
D10*
X125349523Y-136612379D02*
X126016190Y-136612379D01*
X125587619Y-137612379D01*
X126301904Y-136612379D02*
X126920952Y-136612379D01*
X126587619Y-136993332D01*
X126730476Y-136993332D01*
X126825714Y-137040951D01*
X126873333Y-137088570D01*
X126920952Y-137183808D01*
X126920952Y-137421903D01*
X126873333Y-137517141D01*
X126825714Y-137564760D01*
X126730476Y-137612379D01*
X126444761Y-137612379D01*
X126349523Y-137564760D01*
X126301904Y-137517141D01*
X127397142Y-137564760D02*
X127397142Y-137612379D01*
X127349523Y-137707618D01*
X127301904Y-137755237D01*
X128254285Y-136612379D02*
X128063809Y-136612379D01*
X127968571Y-136659999D01*
X127920952Y-136707618D01*
X127825714Y-136850475D01*
X127778095Y-137040951D01*
X127778095Y-137421903D01*
X127825714Y-137517141D01*
X127873333Y-137564760D01*
X127968571Y-137612379D01*
X128159047Y-137612379D01*
X128254285Y-137564760D01*
X128301904Y-137517141D01*
X128349523Y-137421903D01*
X128349523Y-137183808D01*
X128301904Y-137088570D01*
X128254285Y-137040951D01*
X128159047Y-136993332D01*
X127968571Y-136993332D01*
X127873333Y-137040951D01*
X127825714Y-137088570D01*
X127778095Y-137183808D01*
X129206666Y-136612379D02*
X129016190Y-136612379D01*
X128920952Y-136659999D01*
X128873333Y-136707618D01*
X128778095Y-136850475D01*
X128730476Y-137040951D01*
X128730476Y-137421903D01*
X128778095Y-137517141D01*
X128825714Y-137564760D01*
X128920952Y-137612379D01*
X129111428Y-137612379D01*
X129206666Y-137564760D01*
X129254285Y-137517141D01*
X129301904Y-137421903D01*
X129301904Y-137183808D01*
X129254285Y-137088570D01*
X129206666Y-137040951D01*
X129111428Y-136993332D01*
X128920952Y-136993332D01*
X128825714Y-137040951D01*
X128778095Y-137088570D01*
X128730476Y-137183808D01*
X129920952Y-136612379D02*
X130016190Y-136612379D01*
X130111428Y-136659999D01*
X130159047Y-136707618D01*
X130206666Y-136802856D01*
X130254285Y-136993332D01*
X130254285Y-137231427D01*
X130206666Y-137421903D01*
X130159047Y-137517141D01*
X130111428Y-137564760D01*
X130016190Y-137612379D01*
X129920952Y-137612379D01*
X129825714Y-137564760D01*
X129778095Y-137517141D01*
X129730476Y-137421903D01*
X129682857Y-137231427D01*
X129682857Y-136993332D01*
X129730476Y-136802856D01*
X129778095Y-136707618D01*
X129825714Y-136659999D01*
X129920952Y-136612379D01*
X131444761Y-137612379D02*
X131444761Y-136945713D01*
X131444761Y-137040951D02*
X131492380Y-136993332D01*
X131587619Y-136945713D01*
X131730476Y-136945713D01*
X131825714Y-136993332D01*
X131873333Y-137088570D01*
X131873333Y-137612379D01*
X131873333Y-137088570D02*
X131920952Y-136993332D01*
X132016190Y-136945713D01*
X132159047Y-136945713D01*
X132254285Y-136993332D01*
X132301904Y-137088570D01*
X132301904Y-137612379D01*
X132778095Y-137612379D02*
X132778095Y-136945713D01*
X132778095Y-137040951D02*
X132825714Y-136993332D01*
X132920952Y-136945713D01*
X133063809Y-136945713D01*
X133159047Y-136993332D01*
X133206666Y-137088570D01*
X133206666Y-137612379D01*
X133206666Y-137088570D02*
X133254285Y-136993332D01*
X133349523Y-136945713D01*
X133492380Y-136945713D01*
X133587619Y-136993332D01*
X133635238Y-137088570D01*
X133635238Y-137612379D01*
D11*
X92710000Y-135889999D02*
X166370000Y-135889999D01*
X92710000Y-128270000D02*
X92710000Y-136476420D01*
X166370000Y-128270000D02*
X166370000Y-136476420D01*
X166370000Y-135889999D02*
X165243496Y-136476420D01*
X166370000Y-135889999D02*
X165243496Y-135303578D01*
X92710000Y-135889999D02*
X93836504Y-136476420D01*
X92710000Y-135889999D02*
X93836504Y-135303578D01*
D10*
X87090714Y-136612380D02*
X87709761Y-136612380D01*
X87376428Y-136993333D01*
X87519285Y-136993333D01*
X87614523Y-137040952D01*
X87662142Y-137088571D01*
X87709761Y-137183809D01*
X87709761Y-137421904D01*
X87662142Y-137517142D01*
X87614523Y-137564761D01*
X87519285Y-137612380D01*
X87233571Y-137612380D01*
X87138333Y-137564761D01*
X87090714Y-137517142D01*
X88185952Y-137564761D02*
X88185952Y-137612380D01*
X88138333Y-137707619D01*
X88090714Y-137755238D01*
X88757380Y-137040952D02*
X88662142Y-136993333D01*
X88614523Y-136945714D01*
X88566904Y-136850476D01*
X88566904Y-136802857D01*
X88614523Y-136707619D01*
X88662142Y-136660000D01*
X88757380Y-136612380D01*
X88947857Y-136612380D01*
X89043095Y-136660000D01*
X89090714Y-136707619D01*
X89138333Y-136802857D01*
X89138333Y-136850476D01*
X89090714Y-136945714D01*
X89043095Y-136993333D01*
X88947857Y-137040952D01*
X88757380Y-137040952D01*
X88662142Y-137088571D01*
X88614523Y-137136190D01*
X88566904Y-137231428D01*
X88566904Y-137421904D01*
X88614523Y-137517142D01*
X88662142Y-137564761D01*
X88757380Y-137612380D01*
X88947857Y-137612380D01*
X89043095Y-137564761D01*
X89090714Y-137517142D01*
X89138333Y-137421904D01*
X89138333Y-137231428D01*
X89090714Y-137136190D01*
X89043095Y-137088571D01*
X88947857Y-137040952D01*
X90090714Y-137612380D02*
X89519285Y-137612380D01*
X89805000Y-137612380D02*
X89805000Y-136612380D01*
X89709761Y-136755238D01*
X89614523Y-136850476D01*
X89519285Y-136898095D01*
X90709761Y-136612380D02*
X90805000Y-136612380D01*
X90900238Y-136660000D01*
X90947857Y-136707619D01*
X90995476Y-136802857D01*
X91043095Y-136993333D01*
X91043095Y-137231428D01*
X90995476Y-137421904D01*
X90947857Y-137517142D01*
X90900238Y-137564761D01*
X90805000Y-137612380D01*
X90709761Y-137612380D01*
X90614523Y-137564761D01*
X90566904Y-137517142D01*
X90519285Y-137421904D01*
X90471666Y-137231428D01*
X90471666Y-136993333D01*
X90519285Y-136802857D01*
X90566904Y-136707619D01*
X90614523Y-136660000D01*
X90709761Y-136612380D01*
X92233571Y-137612380D02*
X92233571Y-136945714D01*
X92233571Y-137040952D02*
X92281190Y-136993333D01*
X92376428Y-136945714D01*
X92519285Y-136945714D01*
X92614523Y-136993333D01*
X92662142Y-137088571D01*
X92662142Y-137612380D01*
X92662142Y-137088571D02*
X92709761Y-136993333D01*
X92805000Y-136945714D01*
X92947857Y-136945714D01*
X93043095Y-136993333D01*
X93090714Y-137088571D01*
X93090714Y-137612380D01*
X93566904Y-137612380D02*
X93566904Y-136945714D01*
X93566904Y-137040952D02*
X93614523Y-136993333D01*
X93709761Y-136945714D01*
X93852619Y-136945714D01*
X93947857Y-136993333D01*
X93995476Y-137088571D01*
X93995476Y-137612380D01*
X93995476Y-137088571D02*
X94043095Y-136993333D01*
X94138333Y-136945714D01*
X94281190Y-136945714D01*
X94376428Y-136993333D01*
X94424047Y-137088571D01*
X94424047Y-137612380D01*
D11*
X92710000Y-135890000D02*
X88900000Y-135890000D01*
X92710000Y-128270000D02*
X92710000Y-136476421D01*
X88900000Y-128270000D02*
X88900000Y-136476421D01*
X88900000Y-135890000D02*
X90026504Y-135303579D01*
X88900000Y-135890000D02*
X90026504Y-136476421D01*
X92710000Y-135890000D02*
X91583496Y-135303579D01*
X92710000Y-135890000D02*
X91583496Y-136476421D01*
D10*
X182967380Y-102726666D02*
X182967380Y-102917142D01*
X183015000Y-103012380D01*
X183062619Y-103060000D01*
X183205476Y-103155238D01*
X183395952Y-103202857D01*
X183776904Y-103202857D01*
X183872142Y-103155238D01*
X183919761Y-103107619D01*
X183967380Y-103012380D01*
X183967380Y-102821904D01*
X183919761Y-102726666D01*
X183872142Y-102679047D01*
X183776904Y-102631428D01*
X183538809Y-102631428D01*
X183443571Y-102679047D01*
X183395952Y-102726666D01*
X183348333Y-102821904D01*
X183348333Y-103012380D01*
X183395952Y-103107619D01*
X183443571Y-103155238D01*
X183538809Y-103202857D01*
X182967380Y-101774285D02*
X182967380Y-101964761D01*
X183015000Y-102060000D01*
X183062619Y-102107619D01*
X183205476Y-102202857D01*
X183395952Y-102250476D01*
X183776904Y-102250476D01*
X183872142Y-102202857D01*
X183919761Y-102155238D01*
X183967380Y-102060000D01*
X183967380Y-101869523D01*
X183919761Y-101774285D01*
X183872142Y-101726666D01*
X183776904Y-101679047D01*
X183538809Y-101679047D01*
X183443571Y-101726666D01*
X183395952Y-101774285D01*
X183348333Y-101869523D01*
X183348333Y-102060000D01*
X183395952Y-102155238D01*
X183443571Y-102202857D01*
X183538809Y-102250476D01*
X183919761Y-101202857D02*
X183967380Y-101202857D01*
X184062619Y-101250476D01*
X184110238Y-101298095D01*
X182967380Y-100583809D02*
X182967380Y-100488571D01*
X183015000Y-100393333D01*
X183062619Y-100345714D01*
X183157857Y-100298095D01*
X183348333Y-100250476D01*
X183586428Y-100250476D01*
X183776904Y-100298095D01*
X183872142Y-100345714D01*
X183919761Y-100393333D01*
X183967380Y-100488571D01*
X183967380Y-100583809D01*
X183919761Y-100679047D01*
X183872142Y-100726666D01*
X183776904Y-100774285D01*
X183586428Y-100821904D01*
X183348333Y-100821904D01*
X183157857Y-100774285D01*
X183062619Y-100726666D01*
X183015000Y-100679047D01*
X182967380Y-100583809D01*
X183300714Y-99393333D02*
X183967380Y-99393333D01*
X182919761Y-99631428D02*
X183634047Y-99869523D01*
X183634047Y-99250476D01*
X182967380Y-98679047D02*
X182967380Y-98583809D01*
X183015000Y-98488571D01*
X183062619Y-98440952D01*
X183157857Y-98393333D01*
X183348333Y-98345714D01*
X183586428Y-98345714D01*
X183776904Y-98393333D01*
X183872142Y-98440952D01*
X183919761Y-98488571D01*
X183967380Y-98583809D01*
X183967380Y-98679047D01*
X183919761Y-98774285D01*
X183872142Y-98821904D01*
X183776904Y-98869523D01*
X183586428Y-98917142D01*
X183348333Y-98917142D01*
X183157857Y-98869523D01*
X183062619Y-98821904D01*
X183015000Y-98774285D01*
X182967380Y-98679047D01*
X183967380Y-97155238D02*
X183300714Y-97155238D01*
X183395952Y-97155238D02*
X183348333Y-97107619D01*
X183300714Y-97012380D01*
X183300714Y-96869523D01*
X183348333Y-96774285D01*
X183443571Y-96726666D01*
X183967380Y-96726666D01*
X183443571Y-96726666D02*
X183348333Y-96679047D01*
X183300714Y-96583809D01*
X183300714Y-96440952D01*
X183348333Y-96345714D01*
X183443571Y-96298095D01*
X183967380Y-96298095D01*
X183967380Y-95821904D02*
X183300714Y-95821904D01*
X183395952Y-95821904D02*
X183348333Y-95774285D01*
X183300714Y-95679047D01*
X183300714Y-95536190D01*
X183348333Y-95440952D01*
X183443571Y-95393333D01*
X183967380Y-95393333D01*
X183443571Y-95393333D02*
X183348333Y-95345714D01*
X183300714Y-95250476D01*
X183300714Y-95107619D01*
X183348333Y-95012380D01*
X183443571Y-94964761D01*
X183967380Y-94964761D01*
D11*
X182245000Y-132080000D02*
X182245000Y-66040000D01*
X170180000Y-132080000D02*
X182831421Y-132080000D01*
X170180000Y-66040000D02*
X182831421Y-66040000D01*
X182245000Y-66040000D02*
X182831421Y-67166504D01*
X182245000Y-66040000D02*
X181658579Y-67166504D01*
X182245000Y-132080000D02*
X182831421Y-130953496D01*
X182245000Y-132080000D02*
X181658579Y-130953496D01*
D10*
X177077619Y-126460714D02*
X177077619Y-127079761D01*
X176696666Y-126746428D01*
X176696666Y-126889285D01*
X176649047Y-126984523D01*
X176601428Y-127032142D01*
X176506190Y-127079761D01*
X176268095Y-127079761D01*
X176172857Y-127032142D01*
X176125238Y-126984523D01*
X176077619Y-126889285D01*
X176077619Y-126603571D01*
X176125238Y-126508333D01*
X176172857Y-126460714D01*
X176125238Y-127555952D02*
X176077619Y-127555952D01*
X175982380Y-127508333D01*
X175934761Y-127460714D01*
X176649047Y-128127380D02*
X176696666Y-128032142D01*
X176744285Y-127984523D01*
X176839523Y-127936904D01*
X176887142Y-127936904D01*
X176982380Y-127984523D01*
X177030000Y-128032142D01*
X177077619Y-128127380D01*
X177077619Y-128317857D01*
X177030000Y-128413095D01*
X176982380Y-128460714D01*
X176887142Y-128508333D01*
X176839523Y-128508333D01*
X176744285Y-128460714D01*
X176696666Y-128413095D01*
X176649047Y-128317857D01*
X176649047Y-128127380D01*
X176601428Y-128032142D01*
X176553809Y-127984523D01*
X176458571Y-127936904D01*
X176268095Y-127936904D01*
X176172857Y-127984523D01*
X176125238Y-128032142D01*
X176077619Y-128127380D01*
X176077619Y-128317857D01*
X176125238Y-128413095D01*
X176172857Y-128460714D01*
X176268095Y-128508333D01*
X176458571Y-128508333D01*
X176553809Y-128460714D01*
X176601428Y-128413095D01*
X176649047Y-128317857D01*
X176077619Y-129460714D02*
X176077619Y-128889285D01*
X176077619Y-129175000D02*
X177077619Y-129175000D01*
X176934761Y-129079761D01*
X176839523Y-128984523D01*
X176791904Y-128889285D01*
X177077619Y-130079761D02*
X177077619Y-130175000D01*
X177030000Y-130270238D01*
X176982380Y-130317857D01*
X176887142Y-130365476D01*
X176696666Y-130413095D01*
X176458571Y-130413095D01*
X176268095Y-130365476D01*
X176172857Y-130317857D01*
X176125238Y-130270238D01*
X176077619Y-130175000D01*
X176077619Y-130079761D01*
X176125238Y-129984523D01*
X176172857Y-129936904D01*
X176268095Y-129889285D01*
X176458571Y-129841666D01*
X176696666Y-129841666D01*
X176887142Y-129889285D01*
X176982380Y-129936904D01*
X177030000Y-129984523D01*
X177077619Y-130079761D01*
X176077619Y-131603571D02*
X176744285Y-131603571D01*
X176649047Y-131603571D02*
X176696666Y-131651190D01*
X176744285Y-131746428D01*
X176744285Y-131889285D01*
X176696666Y-131984523D01*
X176601428Y-132032142D01*
X176077619Y-132032142D01*
X176601428Y-132032142D02*
X176696666Y-132079761D01*
X176744285Y-132175000D01*
X176744285Y-132317857D01*
X176696666Y-132413095D01*
X176601428Y-132460714D01*
X176077619Y-132460714D01*
X176077619Y-132936904D02*
X176744285Y-132936904D01*
X176649047Y-132936904D02*
X176696666Y-132984523D01*
X176744285Y-133079761D01*
X176744285Y-133222619D01*
X176696666Y-133317857D01*
X176601428Y-133365476D01*
X176077619Y-133365476D01*
X176601428Y-133365476D02*
X176696666Y-133413095D01*
X176744285Y-133508333D01*
X176744285Y-133651190D01*
X176696666Y-133746428D01*
X176601428Y-133794047D01*
X176077619Y-133794047D01*
D11*
X175260000Y-128270000D02*
X175260000Y-132080000D01*
X166370000Y-128270000D02*
X175846421Y-128270000D01*
X166370000Y-132080000D02*
X175846421Y-132080000D01*
X175260000Y-132080000D02*
X174673579Y-130953496D01*
X175260000Y-132080000D02*
X175846421Y-130953496D01*
X175260000Y-128270000D02*
X174673579Y-129396504D01*
X175260000Y-128270000D02*
X175846421Y-129396504D01*
D10*
X164560714Y-59142380D02*
X165179761Y-59142380D01*
X164846428Y-59523333D01*
X164989285Y-59523333D01*
X165084523Y-59570952D01*
X165132142Y-59618571D01*
X165179761Y-59713809D01*
X165179761Y-59951904D01*
X165132142Y-60047142D01*
X165084523Y-60094761D01*
X164989285Y-60142380D01*
X164703571Y-60142380D01*
X164608333Y-60094761D01*
X164560714Y-60047142D01*
X165655952Y-60094761D02*
X165655952Y-60142380D01*
X165608333Y-60237619D01*
X165560714Y-60285238D01*
X166227380Y-59570952D02*
X166132142Y-59523333D01*
X166084523Y-59475714D01*
X166036904Y-59380476D01*
X166036904Y-59332857D01*
X166084523Y-59237619D01*
X166132142Y-59190000D01*
X166227380Y-59142380D01*
X166417857Y-59142380D01*
X166513095Y-59190000D01*
X166560714Y-59237619D01*
X166608333Y-59332857D01*
X166608333Y-59380476D01*
X166560714Y-59475714D01*
X166513095Y-59523333D01*
X166417857Y-59570952D01*
X166227380Y-59570952D01*
X166132142Y-59618571D01*
X166084523Y-59666190D01*
X166036904Y-59761428D01*
X166036904Y-59951904D01*
X166084523Y-60047142D01*
X166132142Y-60094761D01*
X166227380Y-60142380D01*
X166417857Y-60142380D01*
X166513095Y-60094761D01*
X166560714Y-60047142D01*
X166608333Y-59951904D01*
X166608333Y-59761428D01*
X166560714Y-59666190D01*
X166513095Y-59618571D01*
X166417857Y-59570952D01*
X167560714Y-60142380D02*
X166989285Y-60142380D01*
X167275000Y-60142380D02*
X167275000Y-59142380D01*
X167179761Y-59285238D01*
X167084523Y-59380476D01*
X166989285Y-59428095D01*
X168179761Y-59142380D02*
X168275000Y-59142380D01*
X168370238Y-59190000D01*
X168417857Y-59237619D01*
X168465476Y-59332857D01*
X168513095Y-59523333D01*
X168513095Y-59761428D01*
X168465476Y-59951904D01*
X168417857Y-60047142D01*
X168370238Y-60094761D01*
X168275000Y-60142380D01*
X168179761Y-60142380D01*
X168084523Y-60094761D01*
X168036904Y-60047142D01*
X167989285Y-59951904D01*
X167941666Y-59761428D01*
X167941666Y-59523333D01*
X167989285Y-59332857D01*
X168036904Y-59237619D01*
X168084523Y-59190000D01*
X168179761Y-59142380D01*
X169703571Y-60142380D02*
X169703571Y-59475714D01*
X169703571Y-59570952D02*
X169751190Y-59523333D01*
X169846428Y-59475714D01*
X169989285Y-59475714D01*
X170084523Y-59523333D01*
X170132142Y-59618571D01*
X170132142Y-60142380D01*
X170132142Y-59618571D02*
X170179761Y-59523333D01*
X170275000Y-59475714D01*
X170417857Y-59475714D01*
X170513095Y-59523333D01*
X170560714Y-59618571D01*
X170560714Y-60142380D01*
X171036904Y-60142380D02*
X171036904Y-59475714D01*
X171036904Y-59570952D02*
X171084523Y-59523333D01*
X171179761Y-59475714D01*
X171322619Y-59475714D01*
X171417857Y-59523333D01*
X171465476Y-59618571D01*
X171465476Y-60142380D01*
X171465476Y-59618571D02*
X171513095Y-59523333D01*
X171608333Y-59475714D01*
X171751190Y-59475714D01*
X171846428Y-59523333D01*
X171894047Y-59618571D01*
X171894047Y-60142380D01*
D11*
X166370000Y-60960000D02*
X170180000Y-60960000D01*
X166370000Y-91440000D02*
X166370000Y-60373579D01*
X170180000Y-91440000D02*
X170180000Y-60373579D01*
X170180000Y-60960000D02*
X169053496Y-61546421D01*
X170180000Y-60960000D02*
X169053496Y-60373579D01*
X166370000Y-60960000D02*
X167496504Y-61546421D01*
X166370000Y-60960000D02*
X167496504Y-60373579D01*
D10*
X83097619Y-126460714D02*
X83097619Y-127079761D01*
X82716666Y-126746428D01*
X82716666Y-126889285D01*
X82669047Y-126984523D01*
X82621428Y-127032142D01*
X82526190Y-127079761D01*
X82288095Y-127079761D01*
X82192857Y-127032142D01*
X82145238Y-126984523D01*
X82097619Y-126889285D01*
X82097619Y-126603571D01*
X82145238Y-126508333D01*
X82192857Y-126460714D01*
X82145238Y-127555952D02*
X82097619Y-127555952D01*
X82002380Y-127508333D01*
X81954761Y-127460714D01*
X82669047Y-128127380D02*
X82716666Y-128032142D01*
X82764285Y-127984523D01*
X82859523Y-127936904D01*
X82907142Y-127936904D01*
X83002380Y-127984523D01*
X83050000Y-128032142D01*
X83097619Y-128127380D01*
X83097619Y-128317857D01*
X83050000Y-128413095D01*
X83002380Y-128460714D01*
X82907142Y-128508333D01*
X82859523Y-128508333D01*
X82764285Y-128460714D01*
X82716666Y-128413095D01*
X82669047Y-128317857D01*
X82669047Y-128127380D01*
X82621428Y-128032142D01*
X82573809Y-127984523D01*
X82478571Y-127936904D01*
X82288095Y-127936904D01*
X82192857Y-127984523D01*
X82145238Y-128032142D01*
X82097619Y-128127380D01*
X82097619Y-128317857D01*
X82145238Y-128413095D01*
X82192857Y-128460714D01*
X82288095Y-128508333D01*
X82478571Y-128508333D01*
X82573809Y-128460714D01*
X82621428Y-128413095D01*
X82669047Y-128317857D01*
X82097619Y-129460714D02*
X82097619Y-128889285D01*
X82097619Y-129175000D02*
X83097619Y-129175000D01*
X82954761Y-129079761D01*
X82859523Y-128984523D01*
X82811904Y-128889285D01*
X83097619Y-130079761D02*
X83097619Y-130175000D01*
X83050000Y-130270238D01*
X83002380Y-130317857D01*
X82907142Y-130365476D01*
X82716666Y-130413095D01*
X82478571Y-130413095D01*
X82288095Y-130365476D01*
X82192857Y-130317857D01*
X82145238Y-130270238D01*
X82097619Y-130175000D01*
X82097619Y-130079761D01*
X82145238Y-129984523D01*
X82192857Y-129936904D01*
X82288095Y-129889285D01*
X82478571Y-129841666D01*
X82716666Y-129841666D01*
X82907142Y-129889285D01*
X83002380Y-129936904D01*
X83050000Y-129984523D01*
X83097619Y-130079761D01*
X82097619Y-131603571D02*
X82764285Y-131603571D01*
X82669047Y-131603571D02*
X82716666Y-131651190D01*
X82764285Y-131746428D01*
X82764285Y-131889285D01*
X82716666Y-131984523D01*
X82621428Y-132032142D01*
X82097619Y-132032142D01*
X82621428Y-132032142D02*
X82716666Y-132079761D01*
X82764285Y-132175000D01*
X82764285Y-132317857D01*
X82716666Y-132413095D01*
X82621428Y-132460714D01*
X82097619Y-132460714D01*
X82097619Y-132936904D02*
X82764285Y-132936904D01*
X82669047Y-132936904D02*
X82716666Y-132984523D01*
X82764285Y-133079761D01*
X82764285Y-133222619D01*
X82716666Y-133317857D01*
X82621428Y-133365476D01*
X82097619Y-133365476D01*
X82621428Y-133365476D02*
X82716666Y-133413095D01*
X82764285Y-133508333D01*
X82764285Y-133651190D01*
X82716666Y-133746428D01*
X82621428Y-133794047D01*
X82097619Y-133794047D01*
D11*
X83820000Y-128270000D02*
X83820000Y-132080000D01*
X92710000Y-128270000D02*
X83233579Y-128270000D01*
X92710000Y-132080000D02*
X83233579Y-132080000D01*
X83820000Y-132080000D02*
X83233579Y-130953496D01*
X83820000Y-132080000D02*
X84406421Y-130953496D01*
X83820000Y-128270000D02*
X83233579Y-129396504D01*
X83820000Y-128270000D02*
X84406421Y-129396504D01*
D10*
X125587619Y-48775952D02*
X125492380Y-48728333D01*
X125444761Y-48680714D01*
X125397142Y-48585476D01*
X125397142Y-48537857D01*
X125444761Y-48442619D01*
X125492380Y-48395000D01*
X125587619Y-48347380D01*
X125778095Y-48347380D01*
X125873333Y-48395000D01*
X125920952Y-48442619D01*
X125968571Y-48537857D01*
X125968571Y-48585476D01*
X125920952Y-48680714D01*
X125873333Y-48728333D01*
X125778095Y-48775952D01*
X125587619Y-48775952D01*
X125492380Y-48823571D01*
X125444761Y-48871190D01*
X125397142Y-48966428D01*
X125397142Y-49156904D01*
X125444761Y-49252142D01*
X125492380Y-49299761D01*
X125587619Y-49347380D01*
X125778095Y-49347380D01*
X125873333Y-49299761D01*
X125920952Y-49252142D01*
X125968571Y-49156904D01*
X125968571Y-48966428D01*
X125920952Y-48871190D01*
X125873333Y-48823571D01*
X125778095Y-48775952D01*
X126920952Y-49347380D02*
X126349523Y-49347380D01*
X126635238Y-49347380D02*
X126635238Y-48347380D01*
X126540000Y-48490238D01*
X126444761Y-48585476D01*
X126349523Y-48633095D01*
X127397142Y-49299761D02*
X127397142Y-49347380D01*
X127349523Y-49442619D01*
X127301904Y-49490238D01*
X127778095Y-48442619D02*
X127825714Y-48395000D01*
X127920952Y-48347380D01*
X128159047Y-48347380D01*
X128254285Y-48395000D01*
X128301904Y-48442619D01*
X128349523Y-48537857D01*
X128349523Y-48633095D01*
X128301904Y-48775952D01*
X127730476Y-49347380D01*
X128349523Y-49347380D01*
X128920952Y-48775952D02*
X128825714Y-48728333D01*
X128778095Y-48680714D01*
X128730476Y-48585476D01*
X128730476Y-48537857D01*
X128778095Y-48442619D01*
X128825714Y-48395000D01*
X128920952Y-48347380D01*
X129111428Y-48347380D01*
X129206666Y-48395000D01*
X129254285Y-48442619D01*
X129301904Y-48537857D01*
X129301904Y-48585476D01*
X129254285Y-48680714D01*
X129206666Y-48728333D01*
X129111428Y-48775952D01*
X128920952Y-48775952D01*
X128825714Y-48823571D01*
X128778095Y-48871190D01*
X128730476Y-48966428D01*
X128730476Y-49156904D01*
X128778095Y-49252142D01*
X128825714Y-49299761D01*
X128920952Y-49347380D01*
X129111428Y-49347380D01*
X129206666Y-49299761D01*
X129254285Y-49252142D01*
X129301904Y-49156904D01*
X129301904Y-48966428D01*
X129254285Y-48871190D01*
X129206666Y-48823571D01*
X129111428Y-48775952D01*
X129920952Y-48347380D02*
X130016190Y-48347380D01*
X130111428Y-48395000D01*
X130159047Y-48442619D01*
X130206666Y-48537857D01*
X130254285Y-48728333D01*
X130254285Y-48966428D01*
X130206666Y-49156904D01*
X130159047Y-49252142D01*
X130111428Y-49299761D01*
X130016190Y-49347380D01*
X129920952Y-49347380D01*
X129825714Y-49299761D01*
X129778095Y-49252142D01*
X129730476Y-49156904D01*
X129682857Y-48966428D01*
X129682857Y-48728333D01*
X129730476Y-48537857D01*
X129778095Y-48442619D01*
X129825714Y-48395000D01*
X129920952Y-48347380D01*
X131444761Y-49347380D02*
X131444761Y-48680714D01*
X131444761Y-48775952D02*
X131492380Y-48728333D01*
X131587619Y-48680714D01*
X131730476Y-48680714D01*
X131825714Y-48728333D01*
X131873333Y-48823571D01*
X131873333Y-49347380D01*
X131873333Y-48823571D02*
X131920952Y-48728333D01*
X132016190Y-48680714D01*
X132159047Y-48680714D01*
X132254285Y-48728333D01*
X132301904Y-48823571D01*
X132301904Y-49347380D01*
X132778095Y-49347380D02*
X132778095Y-48680714D01*
X132778095Y-48775952D02*
X132825714Y-48728333D01*
X132920952Y-48680714D01*
X133063809Y-48680714D01*
X133159047Y-48728333D01*
X133206666Y-48823571D01*
X133206666Y-49347380D01*
X133206666Y-48823571D02*
X133254285Y-48728333D01*
X133349523Y-48680714D01*
X133492380Y-48680714D01*
X133587619Y-48728333D01*
X133635238Y-48823571D01*
X133635238Y-49347380D01*
D11*
X88900000Y-50165000D02*
X170180000Y-50165000D01*
X88900000Y-66040000D02*
X88900000Y-49578579D01*
X170180000Y-66040000D02*
X170180000Y-49578579D01*
X170180000Y-50165000D02*
X169053496Y-50751421D01*
X170180000Y-50165000D02*
X169053496Y-49578579D01*
X88900000Y-50165000D02*
X90026504Y-50751421D01*
X88900000Y-50165000D02*
X90026504Y-49578579D01*
X168735000Y-131335000D02*
X90735000Y-131335000D01*
X90735000Y-131335000D02*
X90735000Y-111235000D01*
X90735000Y-111235000D02*
X168735000Y-111235000D01*
X168735000Y-111235000D02*
X168735000Y-131335000D01*
X119915000Y-73145000D02*
X119915000Y-67905000D01*
X122655000Y-73145000D02*
X122655000Y-67905000D01*
X119915000Y-73145000D02*
X120230000Y-73145000D01*
X122340000Y-73145000D02*
X122655000Y-73145000D01*
X119915000Y-67905000D02*
X120230000Y-67905000D01*
X122340000Y-67905000D02*
X122655000Y-67905000D01*
X109005000Y-67905000D02*
X109320000Y-67905000D01*
X106580000Y-67905000D02*
X106895000Y-67905000D01*
X109005000Y-73145000D02*
X109320000Y-73145000D01*
X106580000Y-73145000D02*
X106895000Y-73145000D01*
X109320000Y-73145000D02*
X109320000Y-67905000D01*
X106580000Y-73145000D02*
X106580000Y-67905000D01*
X125635000Y-71985000D02*
X125635000Y-71655000D01*
X125635000Y-71655000D02*
X132175000Y-71655000D01*
X132175000Y-71655000D02*
X132175000Y-71985000D01*
X125635000Y-74065000D02*
X125635000Y-74395000D01*
X125635000Y-74395000D02*
X132175000Y-74395000D01*
X132175000Y-74395000D02*
X132175000Y-74065000D01*
X132175000Y-71220000D02*
X132175000Y-70890000D01*
X125635000Y-71220000D02*
X132175000Y-71220000D01*
X125635000Y-70890000D02*
X125635000Y-71220000D01*
X132175000Y-68480000D02*
X132175000Y-68810000D01*
X125635000Y-68480000D02*
X132175000Y-68480000D01*
X125635000Y-68810000D02*
X125635000Y-68480000D01*
X117880000Y-101505000D02*
X118210000Y-101505000D01*
X118210000Y-101505000D02*
X118210000Y-108045000D01*
X118210000Y-108045000D02*
X117880000Y-108045000D01*
X115800000Y-101505000D02*
X115470000Y-101505000D01*
X115470000Y-101505000D02*
X115470000Y-108045000D01*
X115470000Y-108045000D02*
X115800000Y-108045000D01*
X119280000Y-106140000D02*
X119610000Y-106140000D01*
X119280000Y-99600000D02*
X119280000Y-106140000D01*
X119610000Y-99600000D02*
X119280000Y-99600000D01*
X122020000Y-106140000D02*
X121690000Y-106140000D01*
X122020000Y-99600000D02*
X122020000Y-106140000D01*
X121690000Y-99600000D02*
X122020000Y-99600000D01*
X110725000Y-70025000D02*
X110725000Y-71525000D01*
X111975000Y-74025000D02*
X116475000Y-74025000D01*
X117725000Y-71525000D02*
X117725000Y-70025000D01*
X116475000Y-67525000D02*
X111975000Y-67525000D01*
X103775000Y-67525000D02*
X99275000Y-67525000D01*
X105025000Y-71525000D02*
X105025000Y-70025000D01*
X99275000Y-74025000D02*
X103775000Y-74025000D01*
X98025000Y-70025000D02*
X98025000Y-71525000D01*
X145415000Y-85090000D02*
X132715000Y-85090000D01*
X145415000Y-85090000D02*
X145415000Y-100330000D01*
X145415000Y-100330000D02*
X128905000Y-100330000D01*
X128905000Y-100330000D02*
X128905000Y-88900000D01*
X128905000Y-88900000D02*
X132715000Y-88900000D01*
X132715000Y-88900000D02*
X132715000Y-85090000D01*
X128270000Y-104775000D02*
X166370000Y-104775000D01*
X167640000Y-102870000D02*
G75*
G03*
X167640000Y-102870000I-1270000J0D01*
G01*
X128270000Y-80645000D02*
X166370000Y-80645000D01*
X167640000Y-82550000D02*
G75*
G03*
X167640000Y-82550000I-1270000J0D01*
G01*
X129540000Y-102870000D02*
G75*
G03*
X129540000Y-102870000I-1270000J0D01*
G01*
X129689903Y-82550000D02*
G75*
G03*
X129689903Y-82550000I-1419903J0D01*
G01*
X168910000Y-83185000D02*
X168910000Y-102235000D01*
X125730000Y-83185000D02*
X125730000Y-102235000D01*
X166370000Y-104775000D02*
G75*
G03*
X168910000Y-102235000I0J2540000D01*
G01*
X168910000Y-83185000D02*
G75*
G03*
X166370000Y-80645000I-2540000J0D01*
G01*
X125730000Y-102235000D02*
G75*
G03*
X128270000Y-104775000I2540000J0D01*
G01*
X128270000Y-80645000D02*
G75*
G03*
X125730000Y-83185000I0J-2540000D01*
G01*
X130115000Y-76775000D02*
X130115000Y-79435000D01*
X155575000Y-76775000D02*
X130115000Y-76775000D01*
X155575000Y-79435000D02*
X130115000Y-79435000D01*
X155575000Y-76775000D02*
X155575000Y-79435000D01*
X156845000Y-76775000D02*
X158175000Y-76775000D01*
X158175000Y-76775000D02*
X158175000Y-78105000D01*
X130115000Y-107255000D02*
X130115000Y-109915000D01*
X155575000Y-107255000D02*
X130115000Y-107255000D01*
X155575000Y-109915000D02*
X130115000Y-109915000D01*
X155575000Y-107255000D02*
X155575000Y-109915000D01*
X156845000Y-107255000D02*
X158175000Y-107255000D01*
X158175000Y-107255000D02*
X158175000Y-108585000D01*
X151070000Y-95310000D02*
X153730000Y-95310000D01*
X151070000Y-92710000D02*
X151070000Y-95310000D01*
X153730000Y-92710000D02*
X153730000Y-95310000D01*
X151070000Y-92710000D02*
X153730000Y-92710000D01*
X151070000Y-91440000D02*
X151070000Y-90110000D01*
X151070000Y-90110000D02*
X152400000Y-90110000D01*
X161865000Y-100390000D02*
X164525000Y-100390000D01*
X161865000Y-97790000D02*
X161865000Y-100390000D01*
X164525000Y-97790000D02*
X164525000Y-100390000D01*
X161865000Y-97790000D02*
X164525000Y-97790000D01*
X161865000Y-96520000D02*
X161865000Y-95190000D01*
X161865000Y-95190000D02*
X163195000Y-95190000D01*
X167065000Y-109915000D02*
X167065000Y-107255000D01*
X164465000Y-109915000D02*
X167065000Y-109915000D01*
X164465000Y-107255000D02*
X167065000Y-107255000D01*
X164465000Y-109915000D02*
X164465000Y-107255000D01*
X163195000Y-109915000D02*
X161865000Y-109915000D01*
X161865000Y-109915000D02*
X161865000Y-108585000D01*
X96460000Y-81975000D02*
X99120000Y-81975000D01*
X96460000Y-79375000D02*
X96460000Y-81975000D01*
X99120000Y-79375000D02*
X99120000Y-81975000D01*
X96460000Y-79375000D02*
X99120000Y-79375000D01*
X96460000Y-78105000D02*
X96460000Y-76775000D01*
X96460000Y-76775000D02*
X97790000Y-76775000D01*
X91380000Y-81975000D02*
X94040000Y-81975000D01*
X91380000Y-79375000D02*
X91380000Y-81975000D01*
X94040000Y-79375000D02*
X94040000Y-81975000D01*
X91380000Y-79375000D02*
X94040000Y-79375000D01*
X91380000Y-78105000D02*
X91380000Y-76775000D01*
X91380000Y-76775000D02*
X92710000Y-76775000D01*
X103445000Y-75505000D02*
X103445000Y-78165000D01*
X111125000Y-75505000D02*
X103445000Y-75505000D01*
X111125000Y-78165000D02*
X103445000Y-78165000D01*
X111125000Y-75505000D02*
X111125000Y-78165000D01*
X112395000Y-75505000D02*
X113725000Y-75505000D01*
X113725000Y-75505000D02*
X113725000Y-76835000D01*
X103445000Y-107255000D02*
X103445000Y-109915000D01*
X111125000Y-107255000D02*
X103445000Y-107255000D01*
X111125000Y-109915000D02*
X103445000Y-109915000D01*
X111125000Y-107255000D02*
X111125000Y-109915000D01*
X112395000Y-107255000D02*
X113725000Y-107255000D01*
X113725000Y-107255000D02*
X113725000Y-108585000D01*
X151765000Y-75565000D02*
X161925000Y-75565000D01*
X151765000Y-67945000D02*
X151765000Y-75565000D01*
X161925000Y-67945000D02*
X151765000Y-67945000D01*
X161925000Y-75565000D02*
X161925000Y-67945000D01*
X161925000Y-74295000D02*
X151765000Y-74295000D01*
X122455000Y-106140000D02*
X122785000Y-106140000D01*
X122455000Y-99600000D02*
X122455000Y-106140000D01*
X122785000Y-99600000D02*
X122455000Y-99600000D01*
X125195000Y-106140000D02*
X124865000Y-106140000D01*
X125195000Y-99600000D02*
X125195000Y-106140000D01*
X124865000Y-99600000D02*
X125195000Y-99600000D01*
X122755000Y-103775000D02*
X122755000Y-101775000D01*
X124895000Y-101775000D02*
X124895000Y-103775000D01*
X129810000Y-74095000D02*
X127810000Y-74095000D01*
X127810000Y-71955000D02*
X129810000Y-71955000D01*
X127810000Y-68780000D02*
X129810000Y-68780000D01*
X129810000Y-70920000D02*
X127810000Y-70920000D01*
X119580000Y-103965000D02*
X119580000Y-101965000D01*
X121720000Y-101965000D02*
X121720000Y-103965000D01*
X115770000Y-105680000D02*
X115770000Y-103680000D01*
X117910000Y-103680000D02*
X117910000Y-105680000D01*
X125675000Y-95780000D02*
X125675000Y-92180000D01*
X125663478Y-92141522D02*
G75*
G03*
X121225000Y-93980000I-1838478J-1838478D01*
G01*
X125663478Y-95818478D02*
G75*
G02*
X121225000Y-93980000I-1838478J1838478D01*
G01*
X169490000Y-95780000D02*
X169490000Y-92180000D01*
X169478478Y-92141522D02*
G75*
G03*
X165040000Y-93980000I-1838478J-1838478D01*
G01*
X169478478Y-95818478D02*
G75*
G02*
X165040000Y-93980000I-1838478J1838478D01*
G01*
X91380000Y-85665000D02*
X92710000Y-85665000D01*
X91380000Y-86995000D02*
X91380000Y-85665000D01*
X91380000Y-88265000D02*
X94040000Y-88265000D01*
X94040000Y-88265000D02*
X94040000Y-95945000D01*
X91380000Y-88265000D02*
X91380000Y-95945000D01*
X91380000Y-95945000D02*
X94040000Y-95945000D01*
X94040000Y-109915000D02*
X92710000Y-109915000D01*
X94040000Y-108585000D02*
X94040000Y-109915000D01*
X94040000Y-107315000D02*
X91380000Y-107315000D01*
X91380000Y-107315000D02*
X91380000Y-99635000D01*
X94040000Y-107315000D02*
X94040000Y-99635000D01*
X94040000Y-99635000D02*
X91380000Y-99635000D01*
X137100000Y-69155000D02*
X137100000Y-71815000D01*
X144780000Y-69155000D02*
X137100000Y-69155000D01*
X144780000Y-71815000D02*
X137100000Y-71815000D01*
X144780000Y-69155000D02*
X144780000Y-71815000D01*
X146050000Y-69155000D02*
X147380000Y-69155000D01*
X147380000Y-69155000D02*
X147380000Y-70485000D01*
X147380000Y-72330000D02*
X147380000Y-73660000D01*
X146050000Y-72330000D02*
X147380000Y-72330000D01*
X144780000Y-72330000D02*
X144780000Y-74990000D01*
X144780000Y-74990000D02*
X137100000Y-74990000D01*
X144780000Y-72330000D02*
X137100000Y-72330000D01*
X137100000Y-72330000D02*
X137100000Y-74990000D01*
X137100000Y-65980000D02*
X137100000Y-68640000D01*
X144780000Y-65980000D02*
X137100000Y-65980000D01*
X144780000Y-68640000D02*
X137100000Y-68640000D01*
X144780000Y-65980000D02*
X144780000Y-68640000D01*
X146050000Y-65980000D02*
X147380000Y-65980000D01*
X147380000Y-65980000D02*
X147380000Y-67310000D01*
D10*
X100266666Y-117537380D02*
X99933333Y-117061190D01*
X99695238Y-117537380D02*
X99695238Y-116537380D01*
X100076190Y-116537380D01*
X100171428Y-116585000D01*
X100219047Y-116632619D01*
X100266666Y-116727857D01*
X100266666Y-116870714D01*
X100219047Y-116965952D01*
X100171428Y-117013571D01*
X100076190Y-117061190D01*
X99695238Y-117061190D01*
X100695238Y-117013571D02*
X101028571Y-117013571D01*
X101171428Y-117537380D02*
X100695238Y-117537380D01*
X100695238Y-116537380D01*
X101171428Y-116537380D01*
X101933333Y-117013571D02*
X101600000Y-117013571D01*
X101600000Y-117537380D02*
X101600000Y-116537380D01*
X102076190Y-116537380D01*
X102600000Y-116537380D02*
X102600000Y-116775476D01*
X102361904Y-116680238D02*
X102600000Y-116775476D01*
X102838095Y-116680238D01*
X102457142Y-116965952D02*
X102600000Y-116775476D01*
X102742857Y-116965952D01*
X103361904Y-116537380D02*
X103361904Y-116775476D01*
X103123809Y-116680238D02*
X103361904Y-116775476D01*
X103600000Y-116680238D01*
X103219047Y-116965952D02*
X103361904Y-116775476D01*
X103504761Y-116965952D01*
X155511666Y-117537380D02*
X155178333Y-117061190D01*
X154940238Y-117537380D02*
X154940238Y-116537380D01*
X155321190Y-116537380D01*
X155416428Y-116585000D01*
X155464047Y-116632619D01*
X155511666Y-116727857D01*
X155511666Y-116870714D01*
X155464047Y-116965952D01*
X155416428Y-117013571D01*
X155321190Y-117061190D01*
X154940238Y-117061190D01*
X155940238Y-117013571D02*
X156273571Y-117013571D01*
X156416428Y-117537380D02*
X155940238Y-117537380D01*
X155940238Y-116537380D01*
X156416428Y-116537380D01*
X157178333Y-117013571D02*
X156845000Y-117013571D01*
X156845000Y-117537380D02*
X156845000Y-116537380D01*
X157321190Y-116537380D01*
X157845000Y-116537380D02*
X157845000Y-116775476D01*
X157606904Y-116680238D02*
X157845000Y-116775476D01*
X158083095Y-116680238D01*
X157702142Y-116965952D02*
X157845000Y-116775476D01*
X157987857Y-116965952D01*
X158606904Y-116537380D02*
X158606904Y-116775476D01*
X158368809Y-116680238D02*
X158606904Y-116775476D01*
X158845000Y-116680238D01*
X158464047Y-116965952D02*
X158606904Y-116775476D01*
X158749761Y-116965952D01*
X165036666Y-66102380D02*
X164703333Y-65626190D01*
X164465238Y-66102380D02*
X164465238Y-65102380D01*
X164846190Y-65102380D01*
X164941428Y-65150000D01*
X164989047Y-65197619D01*
X165036666Y-65292857D01*
X165036666Y-65435714D01*
X164989047Y-65530952D01*
X164941428Y-65578571D01*
X164846190Y-65626190D01*
X164465238Y-65626190D01*
X165465238Y-65578571D02*
X165798571Y-65578571D01*
X165941428Y-66102380D02*
X165465238Y-66102380D01*
X165465238Y-65102380D01*
X165941428Y-65102380D01*
X166703333Y-65578571D02*
X166370000Y-65578571D01*
X166370000Y-66102380D02*
X166370000Y-65102380D01*
X166846190Y-65102380D01*
X167370000Y-65102380D02*
X167370000Y-65340476D01*
X167131904Y-65245238D02*
X167370000Y-65340476D01*
X167608095Y-65245238D01*
X167227142Y-65530952D02*
X167370000Y-65340476D01*
X167512857Y-65530952D01*
X168131904Y-65102380D02*
X168131904Y-65340476D01*
X167893809Y-65245238D02*
X168131904Y-65340476D01*
X168370000Y-65245238D01*
X167989047Y-65530952D02*
X168131904Y-65340476D01*
X168274761Y-65530952D01*
X91376666Y-66102380D02*
X91043333Y-65626190D01*
X90805238Y-66102380D02*
X90805238Y-65102380D01*
X91186190Y-65102380D01*
X91281428Y-65150000D01*
X91329047Y-65197619D01*
X91376666Y-65292857D01*
X91376666Y-65435714D01*
X91329047Y-65530952D01*
X91281428Y-65578571D01*
X91186190Y-65626190D01*
X90805238Y-65626190D01*
X91805238Y-65578571D02*
X92138571Y-65578571D01*
X92281428Y-66102380D02*
X91805238Y-66102380D01*
X91805238Y-65102380D01*
X92281428Y-65102380D01*
X93043333Y-65578571D02*
X92710000Y-65578571D01*
X92710000Y-66102380D02*
X92710000Y-65102380D01*
X93186190Y-65102380D01*
X93710000Y-65102380D02*
X93710000Y-65340476D01*
X93471904Y-65245238D02*
X93710000Y-65340476D01*
X93948095Y-65245238D01*
X93567142Y-65530952D02*
X93710000Y-65340476D01*
X93852857Y-65530952D01*
X94471904Y-65102380D02*
X94471904Y-65340476D01*
X94233809Y-65245238D02*
X94471904Y-65340476D01*
X94710000Y-65245238D01*
X94329047Y-65530952D02*
X94471904Y-65340476D01*
X94614761Y-65530952D01*
X128949285Y-120213571D02*
X129092142Y-120261190D01*
X129139761Y-120308809D01*
X129187380Y-120404047D01*
X129187380Y-120546904D01*
X129139761Y-120642142D01*
X129092142Y-120689761D01*
X128996904Y-120737380D01*
X128615952Y-120737380D01*
X128615952Y-119737380D01*
X128949285Y-119737380D01*
X129044523Y-119785000D01*
X129092142Y-119832619D01*
X129139761Y-119927857D01*
X129139761Y-120023095D01*
X129092142Y-120118333D01*
X129044523Y-120165952D01*
X128949285Y-120213571D01*
X128615952Y-120213571D01*
X129473095Y-119737380D02*
X130044523Y-119737380D01*
X129758809Y-120737380D02*
X129758809Y-119737380D01*
X130901666Y-120737380D02*
X130330238Y-120737380D01*
X130615952Y-120737380D02*
X130615952Y-119737380D01*
X130520714Y-119880238D01*
X130425476Y-119975476D01*
X130330238Y-120023095D01*
X121642142Y-70651666D02*
X121689761Y-70699285D01*
X121737380Y-70842142D01*
X121737380Y-70937380D01*
X121689761Y-71080238D01*
X121594523Y-71175476D01*
X121499285Y-71223095D01*
X121308809Y-71270714D01*
X121165952Y-71270714D01*
X120975476Y-71223095D01*
X120880238Y-71175476D01*
X120785000Y-71080238D01*
X120737380Y-70937380D01*
X120737380Y-70842142D01*
X120785000Y-70699285D01*
X120832619Y-70651666D01*
X121737380Y-69699285D02*
X121737380Y-70270714D01*
X121737380Y-69985000D02*
X120737380Y-69985000D01*
X120880238Y-70080238D01*
X120975476Y-70175476D01*
X121023095Y-70270714D01*
X108307142Y-70691666D02*
X108354761Y-70739285D01*
X108402380Y-70882142D01*
X108402380Y-70977380D01*
X108354761Y-71120238D01*
X108259523Y-71215476D01*
X108164285Y-71263095D01*
X107973809Y-71310714D01*
X107830952Y-71310714D01*
X107640476Y-71263095D01*
X107545238Y-71215476D01*
X107450000Y-71120238D01*
X107402380Y-70977380D01*
X107402380Y-70882142D01*
X107450000Y-70739285D01*
X107497619Y-70691666D01*
X107497619Y-70310714D02*
X107450000Y-70263095D01*
X107402380Y-70167857D01*
X107402380Y-69929761D01*
X107450000Y-69834523D01*
X107497619Y-69786904D01*
X107592857Y-69739285D01*
X107688095Y-69739285D01*
X107830952Y-69786904D01*
X108402380Y-70358333D01*
X108402380Y-69739285D01*
X126833333Y-75382380D02*
X126500000Y-74906190D01*
X126261904Y-75382380D02*
X126261904Y-74382380D01*
X126642857Y-74382380D01*
X126738095Y-74430000D01*
X126785714Y-74477619D01*
X126833333Y-74572857D01*
X126833333Y-74715714D01*
X126785714Y-74810952D01*
X126738095Y-74858571D01*
X126642857Y-74906190D01*
X126261904Y-74906190D01*
X127785714Y-75382380D02*
X127214285Y-75382380D01*
X127500000Y-75382380D02*
X127500000Y-74382380D01*
X127404761Y-74525238D01*
X127309523Y-74620476D01*
X127214285Y-74668095D01*
X126833333Y-68397380D02*
X126500000Y-67921190D01*
X126261904Y-68397380D02*
X126261904Y-67397380D01*
X126642857Y-67397380D01*
X126738095Y-67445000D01*
X126785714Y-67492619D01*
X126833333Y-67587857D01*
X126833333Y-67730714D01*
X126785714Y-67825952D01*
X126738095Y-67873571D01*
X126642857Y-67921190D01*
X126261904Y-67921190D01*
X127214285Y-67492619D02*
X127261904Y-67445000D01*
X127357142Y-67397380D01*
X127595238Y-67397380D01*
X127690476Y-67445000D01*
X127738095Y-67492619D01*
X127785714Y-67587857D01*
X127785714Y-67683095D01*
X127738095Y-67825952D01*
X127166666Y-68397380D01*
X127785714Y-68397380D01*
X121102380Y-109386666D02*
X120626190Y-109720000D01*
X121102380Y-109958095D02*
X120102380Y-109958095D01*
X120102380Y-109577142D01*
X120150000Y-109481904D01*
X120197619Y-109434285D01*
X120292857Y-109386666D01*
X120435714Y-109386666D01*
X120530952Y-109434285D01*
X120578571Y-109481904D01*
X120626190Y-109577142D01*
X120626190Y-109958095D01*
X120102380Y-109053333D02*
X120102380Y-108434285D01*
X120483333Y-108767619D01*
X120483333Y-108624761D01*
X120530952Y-108529523D01*
X120578571Y-108481904D01*
X120673809Y-108434285D01*
X120911904Y-108434285D01*
X121007142Y-108481904D01*
X121054761Y-108529523D01*
X121102380Y-108624761D01*
X121102380Y-108910476D01*
X121054761Y-109005714D01*
X121007142Y-109053333D01*
X121102380Y-111291666D02*
X120626190Y-111625000D01*
X121102380Y-111863095D02*
X120102380Y-111863095D01*
X120102380Y-111482142D01*
X120150000Y-111386904D01*
X120197619Y-111339285D01*
X120292857Y-111291666D01*
X120435714Y-111291666D01*
X120530952Y-111339285D01*
X120578571Y-111386904D01*
X120626190Y-111482142D01*
X120626190Y-111863095D01*
X120435714Y-110434523D02*
X121102380Y-110434523D01*
X120054761Y-110672619D02*
X120769047Y-110910714D01*
X120769047Y-110291666D01*
X112966666Y-71524761D02*
X113109523Y-71572380D01*
X113347619Y-71572380D01*
X113442857Y-71524761D01*
X113490476Y-71477142D01*
X113538095Y-71381904D01*
X113538095Y-71286666D01*
X113490476Y-71191428D01*
X113442857Y-71143809D01*
X113347619Y-71096190D01*
X113157142Y-71048571D01*
X113061904Y-71000952D01*
X113014285Y-70953333D01*
X112966666Y-70858095D01*
X112966666Y-70762857D01*
X113014285Y-70667619D01*
X113061904Y-70620000D01*
X113157142Y-70572380D01*
X113395238Y-70572380D01*
X113538095Y-70620000D01*
X113871428Y-70572380D02*
X114109523Y-71572380D01*
X114300000Y-70858095D01*
X114490476Y-71572380D01*
X114728571Y-70572380D01*
X115633333Y-71572380D02*
X115061904Y-71572380D01*
X115347619Y-71572380D02*
X115347619Y-70572380D01*
X115252380Y-70715238D01*
X115157142Y-70810476D01*
X115061904Y-70858095D01*
X100191666Y-71524761D02*
X100334523Y-71572380D01*
X100572619Y-71572380D01*
X100667857Y-71524761D01*
X100715476Y-71477142D01*
X100763095Y-71381904D01*
X100763095Y-71286666D01*
X100715476Y-71191428D01*
X100667857Y-71143809D01*
X100572619Y-71096190D01*
X100382142Y-71048571D01*
X100286904Y-71000952D01*
X100239285Y-70953333D01*
X100191666Y-70858095D01*
X100191666Y-70762857D01*
X100239285Y-70667619D01*
X100286904Y-70620000D01*
X100382142Y-70572380D01*
X100620238Y-70572380D01*
X100763095Y-70620000D01*
X101096428Y-70572380D02*
X101334523Y-71572380D01*
X101525000Y-70858095D01*
X101715476Y-71572380D01*
X101953571Y-70572380D01*
X102286904Y-70667619D02*
X102334523Y-70620000D01*
X102429761Y-70572380D01*
X102667857Y-70572380D01*
X102763095Y-70620000D01*
X102810714Y-70667619D01*
X102858333Y-70762857D01*
X102858333Y-70858095D01*
X102810714Y-71000952D01*
X102239285Y-71572380D01*
X102858333Y-71572380D01*
X158202380Y-93471904D02*
X159011904Y-93471904D01*
X159107142Y-93424285D01*
X159154761Y-93376666D01*
X159202380Y-93281428D01*
X159202380Y-93090952D01*
X159154761Y-92995714D01*
X159107142Y-92948095D01*
X159011904Y-92900476D01*
X158202380Y-92900476D01*
X159202380Y-91900476D02*
X159202380Y-92471904D01*
X159202380Y-92186190D02*
X158202380Y-92186190D01*
X158345238Y-92281428D01*
X158440476Y-92376666D01*
X158488095Y-92471904D01*
D12*
X131445714Y-97948571D02*
X131350476Y-98139047D01*
X131064761Y-98329523D01*
X130874285Y-98329523D01*
X130588571Y-98139047D01*
X130398095Y-97758095D01*
X130302857Y-97377142D01*
X130207619Y-96615238D01*
X130207619Y-96043809D01*
X130302857Y-95281904D01*
X130398095Y-94900952D01*
X130588571Y-94520000D01*
X130874285Y-94329523D01*
X131064761Y-94329523D01*
X131350476Y-94520000D01*
X131445714Y-94710476D01*
X133160000Y-95662857D02*
X133160000Y-98329523D01*
X132302857Y-95662857D02*
X132302857Y-97758095D01*
X132398095Y-98139047D01*
X132588571Y-98329523D01*
X132874285Y-98329523D01*
X133064761Y-98139047D01*
X133160000Y-97948571D01*
X134112380Y-98329523D02*
X134112380Y-94329523D01*
X134112380Y-95853333D02*
X134302857Y-95662857D01*
X134683809Y-95662857D01*
X134874285Y-95853333D01*
X134969523Y-96043809D01*
X135064761Y-96424761D01*
X135064761Y-97567619D01*
X134969523Y-97948571D01*
X134874285Y-98139047D01*
X134683809Y-98329523D01*
X134302857Y-98329523D01*
X134112380Y-98139047D01*
X136683809Y-98139047D02*
X136493333Y-98329523D01*
X136112380Y-98329523D01*
X135921904Y-98139047D01*
X135826666Y-97758095D01*
X135826666Y-96234285D01*
X135921904Y-95853333D01*
X136112380Y-95662857D01*
X136493333Y-95662857D01*
X136683809Y-95853333D01*
X136779047Y-96234285D01*
X136779047Y-96615238D01*
X135826666Y-96996190D01*
X140302857Y-97948571D02*
X140207619Y-98139047D01*
X139921904Y-98329523D01*
X139731428Y-98329523D01*
X139445714Y-98139047D01*
X139255238Y-97758095D01*
X139160000Y-97377142D01*
X139064761Y-96615238D01*
X139064761Y-96043809D01*
X139160000Y-95281904D01*
X139255238Y-94900952D01*
X139445714Y-94520000D01*
X139731428Y-94329523D01*
X139921904Y-94329523D01*
X140207619Y-94520000D01*
X140302857Y-94710476D01*
X141921904Y-98139047D02*
X141731428Y-98329523D01*
X141350476Y-98329523D01*
X141160000Y-98139047D01*
X141064761Y-97758095D01*
X141064761Y-96234285D01*
X141160000Y-95853333D01*
X141350476Y-95662857D01*
X141731428Y-95662857D01*
X141921904Y-95853333D01*
X142017142Y-96234285D01*
X142017142Y-96615238D01*
X141064761Y-96996190D01*
X143160000Y-98329523D02*
X142969523Y-98139047D01*
X142874285Y-97758095D01*
X142874285Y-94329523D01*
X144207619Y-98329523D02*
X144017142Y-98139047D01*
X143921904Y-97758095D01*
X143921904Y-94329523D01*
D10*
X158627380Y-78438333D02*
X159341666Y-78438333D01*
X159484523Y-78485952D01*
X159579761Y-78581190D01*
X159627380Y-78724047D01*
X159627380Y-78819285D01*
X158722619Y-78009761D02*
X158675000Y-77962142D01*
X158627380Y-77866904D01*
X158627380Y-77628809D01*
X158675000Y-77533571D01*
X158722619Y-77485952D01*
X158817857Y-77438333D01*
X158913095Y-77438333D01*
X159055952Y-77485952D01*
X159627380Y-78057380D01*
X159627380Y-77438333D01*
X158627380Y-108918333D02*
X159341666Y-108918333D01*
X159484523Y-108965952D01*
X159579761Y-109061190D01*
X159627380Y-109204047D01*
X159627380Y-109299285D01*
X158627380Y-108537380D02*
X158627380Y-107918333D01*
X159008333Y-108251666D01*
X159008333Y-108108809D01*
X159055952Y-108013571D01*
X159103571Y-107965952D01*
X159198809Y-107918333D01*
X159436904Y-107918333D01*
X159532142Y-107965952D01*
X159579761Y-108013571D01*
X159627380Y-108108809D01*
X159627380Y-108394523D01*
X159579761Y-108489761D01*
X159532142Y-108537380D01*
X152066666Y-88562380D02*
X152066666Y-89276666D01*
X152019047Y-89419523D01*
X151923809Y-89514761D01*
X151780952Y-89562380D01*
X151685714Y-89562380D01*
X152971428Y-88895714D02*
X152971428Y-89562380D01*
X152733333Y-88514761D02*
X152495238Y-89229047D01*
X153114285Y-89229047D01*
X160107380Y-99409047D02*
X160821666Y-99409047D01*
X160964523Y-99456666D01*
X161059761Y-99551904D01*
X161107380Y-99694761D01*
X161107380Y-99790000D01*
X161107380Y-98409047D02*
X161107380Y-98980476D01*
X161107380Y-98694761D02*
X160107380Y-98694761D01*
X160250238Y-98790000D01*
X160345476Y-98885238D01*
X160393095Y-98980476D01*
X161202619Y-98218571D02*
X161202619Y-97456666D01*
X160821666Y-97266190D02*
X160821666Y-96790000D01*
X161107380Y-97361428D02*
X160107380Y-97028095D01*
X161107380Y-96694761D01*
X161107380Y-95837619D02*
X161107380Y-96409047D01*
X161107380Y-96123333D02*
X160107380Y-96123333D01*
X160250238Y-96218571D01*
X160345476Y-96313809D01*
X160393095Y-96409047D01*
X162774523Y-109942380D02*
X162774523Y-110656666D01*
X162726904Y-110799523D01*
X162631666Y-110894761D01*
X162488809Y-110942380D01*
X162393571Y-110942380D01*
X163774523Y-110942380D02*
X163203095Y-110942380D01*
X163488809Y-110942380D02*
X163488809Y-109942380D01*
X163393571Y-110085238D01*
X163298333Y-110180476D01*
X163203095Y-110228095D01*
X163965000Y-111037619D02*
X164726904Y-111037619D01*
X165298333Y-110418571D02*
X165441190Y-110466190D01*
X165488809Y-110513809D01*
X165536428Y-110609047D01*
X165536428Y-110751904D01*
X165488809Y-110847142D01*
X165441190Y-110894761D01*
X165345952Y-110942380D01*
X164965000Y-110942380D01*
X164965000Y-109942380D01*
X165298333Y-109942380D01*
X165393571Y-109990000D01*
X165441190Y-110037619D01*
X165488809Y-110132857D01*
X165488809Y-110228095D01*
X165441190Y-110323333D01*
X165393571Y-110370952D01*
X165298333Y-110418571D01*
X164965000Y-110418571D01*
X166488809Y-110942380D02*
X165917380Y-110942380D01*
X166203095Y-110942380D02*
X166203095Y-109942380D01*
X166107857Y-110085238D01*
X166012619Y-110180476D01*
X165917380Y-110228095D01*
X95535952Y-75652380D02*
X95535952Y-76366666D01*
X95488333Y-76509523D01*
X95393095Y-76604761D01*
X95250238Y-76652380D01*
X95155000Y-76652380D01*
X96488333Y-75652380D02*
X96012142Y-75652380D01*
X95964523Y-76128571D01*
X96012142Y-76080952D01*
X96107380Y-76033333D01*
X96345476Y-76033333D01*
X96440714Y-76080952D01*
X96488333Y-76128571D01*
X96535952Y-76223809D01*
X96535952Y-76461904D01*
X96488333Y-76557142D01*
X96440714Y-76604761D01*
X96345476Y-76652380D01*
X96107380Y-76652380D01*
X96012142Y-76604761D01*
X95964523Y-76557142D01*
X96726428Y-76747619D02*
X97488333Y-76747619D01*
X97678809Y-76366666D02*
X98155000Y-76366666D01*
X97583571Y-76652380D02*
X97916904Y-75652380D01*
X98250238Y-76652380D01*
X99107380Y-76652380D02*
X98535952Y-76652380D01*
X98821666Y-76652380D02*
X98821666Y-75652380D01*
X98726428Y-75795238D01*
X98631190Y-75890476D01*
X98535952Y-75938095D01*
X91019523Y-75652380D02*
X91019523Y-76366666D01*
X90971904Y-76509523D01*
X90876666Y-76604761D01*
X90733809Y-76652380D01*
X90638571Y-76652380D01*
X91971904Y-75652380D02*
X91495714Y-75652380D01*
X91448095Y-76128571D01*
X91495714Y-76080952D01*
X91590952Y-76033333D01*
X91829047Y-76033333D01*
X91924285Y-76080952D01*
X91971904Y-76128571D01*
X92019523Y-76223809D01*
X92019523Y-76461904D01*
X91971904Y-76557142D01*
X91924285Y-76604761D01*
X91829047Y-76652380D01*
X91590952Y-76652380D01*
X91495714Y-76604761D01*
X91448095Y-76557142D01*
X92210000Y-76747619D02*
X92971904Y-76747619D01*
X93543333Y-76128571D02*
X93686190Y-76176190D01*
X93733809Y-76223809D01*
X93781428Y-76319047D01*
X93781428Y-76461904D01*
X93733809Y-76557142D01*
X93686190Y-76604761D01*
X93590952Y-76652380D01*
X93210000Y-76652380D01*
X93210000Y-75652380D01*
X93543333Y-75652380D01*
X93638571Y-75700000D01*
X93686190Y-75747619D01*
X93733809Y-75842857D01*
X93733809Y-75938095D01*
X93686190Y-76033333D01*
X93638571Y-76080952D01*
X93543333Y-76128571D01*
X93210000Y-76128571D01*
X94733809Y-76652380D02*
X94162380Y-76652380D01*
X94448095Y-76652380D02*
X94448095Y-75652380D01*
X94352857Y-75795238D01*
X94257619Y-75890476D01*
X94162380Y-75938095D01*
X114177380Y-79724047D02*
X114891666Y-79724047D01*
X115034523Y-79771666D01*
X115129761Y-79866904D01*
X115177380Y-80009761D01*
X115177380Y-80105000D01*
X114177380Y-78819285D02*
X114177380Y-79009761D01*
X114225000Y-79105000D01*
X114272619Y-79152619D01*
X114415476Y-79247857D01*
X114605952Y-79295476D01*
X114986904Y-79295476D01*
X115082142Y-79247857D01*
X115129761Y-79200238D01*
X115177380Y-79105000D01*
X115177380Y-78914523D01*
X115129761Y-78819285D01*
X115082142Y-78771666D01*
X114986904Y-78724047D01*
X114748809Y-78724047D01*
X114653571Y-78771666D01*
X114605952Y-78819285D01*
X114558333Y-78914523D01*
X114558333Y-79105000D01*
X114605952Y-79200238D01*
X114653571Y-79247857D01*
X114748809Y-79295476D01*
X115272619Y-78533571D02*
X115272619Y-77771666D01*
X114891666Y-77581190D02*
X114891666Y-77105000D01*
X115177380Y-77676428D02*
X114177380Y-77343095D01*
X115177380Y-77009761D01*
X115177380Y-76152619D02*
X115177380Y-76724047D01*
X115177380Y-76438333D02*
X114177380Y-76438333D01*
X114320238Y-76533571D01*
X114415476Y-76628809D01*
X114463095Y-76724047D01*
X114177380Y-110275476D02*
X114891666Y-110275476D01*
X115034523Y-110323095D01*
X115129761Y-110418333D01*
X115177380Y-110561190D01*
X115177380Y-110656428D01*
X114177380Y-109370714D02*
X114177380Y-109561190D01*
X114225000Y-109656428D01*
X114272619Y-109704047D01*
X114415476Y-109799285D01*
X114605952Y-109846904D01*
X114986904Y-109846904D01*
X115082142Y-109799285D01*
X115129761Y-109751666D01*
X115177380Y-109656428D01*
X115177380Y-109465952D01*
X115129761Y-109370714D01*
X115082142Y-109323095D01*
X114986904Y-109275476D01*
X114748809Y-109275476D01*
X114653571Y-109323095D01*
X114605952Y-109370714D01*
X114558333Y-109465952D01*
X114558333Y-109656428D01*
X114605952Y-109751666D01*
X114653571Y-109799285D01*
X114748809Y-109846904D01*
X115272619Y-109085000D02*
X115272619Y-108323095D01*
X114653571Y-107751666D02*
X114701190Y-107608809D01*
X114748809Y-107561190D01*
X114844047Y-107513571D01*
X114986904Y-107513571D01*
X115082142Y-107561190D01*
X115129761Y-107608809D01*
X115177380Y-107704047D01*
X115177380Y-108085000D01*
X114177380Y-108085000D01*
X114177380Y-107751666D01*
X114225000Y-107656428D01*
X114272619Y-107608809D01*
X114367857Y-107561190D01*
X114463095Y-107561190D01*
X114558333Y-107608809D01*
X114605952Y-107656428D01*
X114653571Y-107751666D01*
X114653571Y-108085000D01*
X115177380Y-106561190D02*
X115177380Y-107132619D01*
X115177380Y-106846904D02*
X114177380Y-106846904D01*
X114320238Y-106942142D01*
X114415476Y-107037380D01*
X114463095Y-107132619D01*
X156511666Y-73112380D02*
X156511666Y-73826666D01*
X156464047Y-73969523D01*
X156368809Y-74064761D01*
X156225952Y-74112380D01*
X156130714Y-74112380D01*
X157511666Y-74112380D02*
X156940238Y-74112380D01*
X157225952Y-74112380D02*
X157225952Y-73112380D01*
X157130714Y-73255238D01*
X157035476Y-73350476D01*
X156940238Y-73398095D01*
X124277380Y-109386666D02*
X123801190Y-109720000D01*
X124277380Y-109958095D02*
X123277380Y-109958095D01*
X123277380Y-109577142D01*
X123325000Y-109481904D01*
X123372619Y-109434285D01*
X123467857Y-109386666D01*
X123610714Y-109386666D01*
X123705952Y-109434285D01*
X123753571Y-109481904D01*
X123801190Y-109577142D01*
X123801190Y-109958095D01*
X123277380Y-108481904D02*
X123277380Y-108958095D01*
X123753571Y-109005714D01*
X123705952Y-108958095D01*
X123658333Y-108862857D01*
X123658333Y-108624761D01*
X123705952Y-108529523D01*
X123753571Y-108481904D01*
X123848809Y-108434285D01*
X124086904Y-108434285D01*
X124182142Y-108481904D01*
X124229761Y-108529523D01*
X124277380Y-108624761D01*
X124277380Y-108862857D01*
X124229761Y-108958095D01*
X124182142Y-109005714D01*
X124277380Y-111291666D02*
X123801190Y-111625000D01*
X124277380Y-111863095D02*
X123277380Y-111863095D01*
X123277380Y-111482142D01*
X123325000Y-111386904D01*
X123372619Y-111339285D01*
X123467857Y-111291666D01*
X123610714Y-111291666D01*
X123705952Y-111339285D01*
X123753571Y-111386904D01*
X123801190Y-111482142D01*
X123801190Y-111863095D01*
X123277380Y-110434523D02*
X123277380Y-110625000D01*
X123325000Y-110720238D01*
X123372619Y-110767857D01*
X123515476Y-110863095D01*
X123705952Y-110910714D01*
X124086904Y-110910714D01*
X124182142Y-110863095D01*
X124229761Y-110815476D01*
X124277380Y-110720238D01*
X124277380Y-110529761D01*
X124229761Y-110434523D01*
X124182142Y-110386904D01*
X124086904Y-110339285D01*
X123848809Y-110339285D01*
X123753571Y-110386904D01*
X123705952Y-110434523D01*
X123658333Y-110529761D01*
X123658333Y-110720238D01*
X123705952Y-110815476D01*
X123753571Y-110863095D01*
X123848809Y-110910714D01*
X130008333Y-75382380D02*
X129675000Y-74906190D01*
X129436904Y-75382380D02*
X129436904Y-74382380D01*
X129817857Y-74382380D01*
X129913095Y-74430000D01*
X129960714Y-74477619D01*
X130008333Y-74572857D01*
X130008333Y-74715714D01*
X129960714Y-74810952D01*
X129913095Y-74858571D01*
X129817857Y-74906190D01*
X129436904Y-74906190D01*
X130341666Y-74382380D02*
X131008333Y-74382380D01*
X130579761Y-75382380D01*
X130008333Y-68452380D02*
X129675000Y-67976190D01*
X129436904Y-68452380D02*
X129436904Y-67452380D01*
X129817857Y-67452380D01*
X129913095Y-67500000D01*
X129960714Y-67547619D01*
X130008333Y-67642857D01*
X130008333Y-67785714D01*
X129960714Y-67880952D01*
X129913095Y-67928571D01*
X129817857Y-67976190D01*
X129436904Y-67976190D01*
X130579761Y-67880952D02*
X130484523Y-67833333D01*
X130436904Y-67785714D01*
X130389285Y-67690476D01*
X130389285Y-67642857D01*
X130436904Y-67547619D01*
X130484523Y-67500000D01*
X130579761Y-67452380D01*
X130770238Y-67452380D01*
X130865476Y-67500000D01*
X130913095Y-67547619D01*
X130960714Y-67642857D01*
X130960714Y-67690476D01*
X130913095Y-67785714D01*
X130865476Y-67833333D01*
X130770238Y-67880952D01*
X130579761Y-67880952D01*
X130484523Y-67928571D01*
X130436904Y-67976190D01*
X130389285Y-68071428D01*
X130389285Y-68261904D01*
X130436904Y-68357142D01*
X130484523Y-68404761D01*
X130579761Y-68452380D01*
X130770238Y-68452380D01*
X130865476Y-68404761D01*
X130913095Y-68357142D01*
X130960714Y-68261904D01*
X130960714Y-68071428D01*
X130913095Y-67976190D01*
X130865476Y-67928571D01*
X130770238Y-67880952D01*
X117292380Y-113831666D02*
X116816190Y-114165000D01*
X117292380Y-114403095D02*
X116292380Y-114403095D01*
X116292380Y-114022142D01*
X116340000Y-113926904D01*
X116387619Y-113879285D01*
X116482857Y-113831666D01*
X116625714Y-113831666D01*
X116720952Y-113879285D01*
X116768571Y-113926904D01*
X116816190Y-114022142D01*
X116816190Y-114403095D01*
X117292380Y-113355476D02*
X117292380Y-113165000D01*
X117244761Y-113069761D01*
X117197142Y-113022142D01*
X117054285Y-112926904D01*
X116863809Y-112879285D01*
X116482857Y-112879285D01*
X116387619Y-112926904D01*
X116340000Y-112974523D01*
X116292380Y-113069761D01*
X116292380Y-113260238D01*
X116340000Y-113355476D01*
X116387619Y-113403095D01*
X116482857Y-113450714D01*
X116720952Y-113450714D01*
X116816190Y-113403095D01*
X116863809Y-113355476D01*
X116911428Y-113260238D01*
X116911428Y-113069761D01*
X116863809Y-112974523D01*
X116816190Y-112926904D01*
X116720952Y-112879285D01*
X117292380Y-111767857D02*
X116816190Y-112101190D01*
X117292380Y-112339285D02*
X116292380Y-112339285D01*
X116292380Y-111958333D01*
X116340000Y-111863095D01*
X116387619Y-111815476D01*
X116482857Y-111767857D01*
X116625714Y-111767857D01*
X116720952Y-111815476D01*
X116768571Y-111863095D01*
X116816190Y-111958333D01*
X116816190Y-112339285D01*
X117292380Y-110815476D02*
X117292380Y-111386904D01*
X117292380Y-111101190D02*
X116292380Y-111101190D01*
X116435238Y-111196428D01*
X116530476Y-111291666D01*
X116578095Y-111386904D01*
X116292380Y-110196428D02*
X116292380Y-110101190D01*
X116340000Y-110005952D01*
X116387619Y-109958333D01*
X116482857Y-109910714D01*
X116673333Y-109863095D01*
X116911428Y-109863095D01*
X117101904Y-109910714D01*
X117197142Y-109958333D01*
X117244761Y-110005952D01*
X117292380Y-110101190D01*
X117292380Y-110196428D01*
X117244761Y-110291666D01*
X117197142Y-110339285D01*
X117101904Y-110386904D01*
X116911428Y-110434523D01*
X116673333Y-110434523D01*
X116482857Y-110386904D01*
X116387619Y-110339285D01*
X116340000Y-110291666D01*
X116292380Y-110196428D01*
X119717380Y-94741904D02*
X120526904Y-94741904D01*
X120622142Y-94694285D01*
X120669761Y-94646666D01*
X120717380Y-94551428D01*
X120717380Y-94360952D01*
X120669761Y-94265714D01*
X120622142Y-94218095D01*
X120526904Y-94170476D01*
X119717380Y-94170476D01*
X119812619Y-93741904D02*
X119765000Y-93694285D01*
X119717380Y-93599047D01*
X119717380Y-93360952D01*
X119765000Y-93265714D01*
X119812619Y-93218095D01*
X119907857Y-93170476D01*
X120003095Y-93170476D01*
X120145952Y-93218095D01*
X120717380Y-93789523D01*
X120717380Y-93170476D01*
X167092380Y-98551904D02*
X167901904Y-98551904D01*
X167997142Y-98504285D01*
X168044761Y-98456666D01*
X168092380Y-98361428D01*
X168092380Y-98170952D01*
X168044761Y-98075714D01*
X167997142Y-98028095D01*
X167901904Y-97980476D01*
X167092380Y-97980476D01*
X167425714Y-97075714D02*
X168092380Y-97075714D01*
X167044761Y-97313809D02*
X167759047Y-97551904D01*
X167759047Y-96932857D01*
X91019523Y-84117380D02*
X91019523Y-84831666D01*
X90971904Y-84974523D01*
X90876666Y-85069761D01*
X90733809Y-85117380D01*
X90638571Y-85117380D01*
X91924285Y-84117380D02*
X91733809Y-84117380D01*
X91638571Y-84165000D01*
X91590952Y-84212619D01*
X91495714Y-84355476D01*
X91448095Y-84545952D01*
X91448095Y-84926904D01*
X91495714Y-85022142D01*
X91543333Y-85069761D01*
X91638571Y-85117380D01*
X91829047Y-85117380D01*
X91924285Y-85069761D01*
X91971904Y-85022142D01*
X92019523Y-84926904D01*
X92019523Y-84688809D01*
X91971904Y-84593571D01*
X91924285Y-84545952D01*
X91829047Y-84498333D01*
X91638571Y-84498333D01*
X91543333Y-84545952D01*
X91495714Y-84593571D01*
X91448095Y-84688809D01*
X92210000Y-85212619D02*
X92971904Y-85212619D01*
X93543333Y-84593571D02*
X93686190Y-84641190D01*
X93733809Y-84688809D01*
X93781428Y-84784047D01*
X93781428Y-84926904D01*
X93733809Y-85022142D01*
X93686190Y-85069761D01*
X93590952Y-85117380D01*
X93210000Y-85117380D01*
X93210000Y-84117380D01*
X93543333Y-84117380D01*
X93638571Y-84165000D01*
X93686190Y-84212619D01*
X93733809Y-84307857D01*
X93733809Y-84403095D01*
X93686190Y-84498333D01*
X93638571Y-84545952D01*
X93543333Y-84593571D01*
X93210000Y-84593571D01*
X94162380Y-84212619D02*
X94210000Y-84165000D01*
X94305238Y-84117380D01*
X94543333Y-84117380D01*
X94638571Y-84165000D01*
X94686190Y-84212619D01*
X94733809Y-84307857D01*
X94733809Y-84403095D01*
X94686190Y-84545952D01*
X94114761Y-85117380D01*
X94733809Y-85117380D01*
X91090952Y-109942380D02*
X91090952Y-110656666D01*
X91043333Y-110799523D01*
X90948095Y-110894761D01*
X90805238Y-110942380D01*
X90710000Y-110942380D01*
X91995714Y-109942380D02*
X91805238Y-109942380D01*
X91710000Y-109990000D01*
X91662380Y-110037619D01*
X91567142Y-110180476D01*
X91519523Y-110370952D01*
X91519523Y-110751904D01*
X91567142Y-110847142D01*
X91614761Y-110894761D01*
X91710000Y-110942380D01*
X91900476Y-110942380D01*
X91995714Y-110894761D01*
X92043333Y-110847142D01*
X92090952Y-110751904D01*
X92090952Y-110513809D01*
X92043333Y-110418571D01*
X91995714Y-110370952D01*
X91900476Y-110323333D01*
X91710000Y-110323333D01*
X91614761Y-110370952D01*
X91567142Y-110418571D01*
X91519523Y-110513809D01*
X92281428Y-111037619D02*
X93043333Y-111037619D01*
X93233809Y-110656666D02*
X93710000Y-110656666D01*
X93138571Y-110942380D02*
X93471904Y-109942380D01*
X93805238Y-110942380D01*
X94090952Y-110037619D02*
X94138571Y-109990000D01*
X94233809Y-109942380D01*
X94471904Y-109942380D01*
X94567142Y-109990000D01*
X94614761Y-110037619D01*
X94662380Y-110132857D01*
X94662380Y-110228095D01*
X94614761Y-110370952D01*
X94043333Y-110942380D01*
X94662380Y-110942380D01*
X147832380Y-72104047D02*
X148546666Y-72104047D01*
X148689523Y-72151666D01*
X148784761Y-72246904D01*
X148832380Y-72389761D01*
X148832380Y-72485000D01*
X147832380Y-71199285D02*
X147832380Y-71389761D01*
X147880000Y-71485000D01*
X147927619Y-71532619D01*
X148070476Y-71627857D01*
X148260952Y-71675476D01*
X148641904Y-71675476D01*
X148737142Y-71627857D01*
X148784761Y-71580238D01*
X148832380Y-71485000D01*
X148832380Y-71294523D01*
X148784761Y-71199285D01*
X148737142Y-71151666D01*
X148641904Y-71104047D01*
X148403809Y-71104047D01*
X148308571Y-71151666D01*
X148260952Y-71199285D01*
X148213333Y-71294523D01*
X148213333Y-71485000D01*
X148260952Y-71580238D01*
X148308571Y-71627857D01*
X148403809Y-71675476D01*
X148927619Y-70913571D02*
X148927619Y-70151666D01*
X148546666Y-69961190D02*
X148546666Y-69485000D01*
X148832380Y-70056428D02*
X147832380Y-69723095D01*
X148832380Y-69389761D01*
X147832380Y-69151666D02*
X147832380Y-68532619D01*
X148213333Y-68865952D01*
X148213333Y-68723095D01*
X148260952Y-68627857D01*
X148308571Y-68580238D01*
X148403809Y-68532619D01*
X148641904Y-68532619D01*
X148737142Y-68580238D01*
X148784761Y-68627857D01*
X148832380Y-68723095D01*
X148832380Y-69008809D01*
X148784761Y-69104047D01*
X148737142Y-69151666D01*
X147407380Y-75914047D02*
X148121666Y-75914047D01*
X148264523Y-75961666D01*
X148359761Y-76056904D01*
X148407380Y-76199761D01*
X148407380Y-76295000D01*
X147407380Y-75009285D02*
X147407380Y-75199761D01*
X147455000Y-75295000D01*
X147502619Y-75342619D01*
X147645476Y-75437857D01*
X147835952Y-75485476D01*
X148216904Y-75485476D01*
X148312142Y-75437857D01*
X148359761Y-75390238D01*
X148407380Y-75295000D01*
X148407380Y-75104523D01*
X148359761Y-75009285D01*
X148312142Y-74961666D01*
X148216904Y-74914047D01*
X147978809Y-74914047D01*
X147883571Y-74961666D01*
X147835952Y-75009285D01*
X147788333Y-75104523D01*
X147788333Y-75295000D01*
X147835952Y-75390238D01*
X147883571Y-75437857D01*
X147978809Y-75485476D01*
X148502619Y-74723571D02*
X148502619Y-73961666D01*
X148121666Y-73771190D02*
X148121666Y-73295000D01*
X148407380Y-73866428D02*
X147407380Y-73533095D01*
X148407380Y-73199761D01*
X147740714Y-72437857D02*
X148407380Y-72437857D01*
X147359761Y-72675952D02*
X148074047Y-72914047D01*
X148074047Y-72295000D01*
X146772380Y-69564047D02*
X147486666Y-69564047D01*
X147629523Y-69611666D01*
X147724761Y-69706904D01*
X147772380Y-69849761D01*
X147772380Y-69945000D01*
X146772380Y-68659285D02*
X146772380Y-68849761D01*
X146820000Y-68945000D01*
X146867619Y-68992619D01*
X147010476Y-69087857D01*
X147200952Y-69135476D01*
X147581904Y-69135476D01*
X147677142Y-69087857D01*
X147724761Y-69040238D01*
X147772380Y-68945000D01*
X147772380Y-68754523D01*
X147724761Y-68659285D01*
X147677142Y-68611666D01*
X147581904Y-68564047D01*
X147343809Y-68564047D01*
X147248571Y-68611666D01*
X147200952Y-68659285D01*
X147153333Y-68754523D01*
X147153333Y-68945000D01*
X147200952Y-69040238D01*
X147248571Y-69087857D01*
X147343809Y-69135476D01*
X147867619Y-68373571D02*
X147867619Y-67611666D01*
X147486666Y-67421190D02*
X147486666Y-66945000D01*
X147772380Y-67516428D02*
X146772380Y-67183095D01*
X147772380Y-66849761D01*
X146772380Y-66040238D02*
X146772380Y-66516428D01*
X147248571Y-66564047D01*
X147200952Y-66516428D01*
X147153333Y-66421190D01*
X147153333Y-66183095D01*
X147200952Y-66087857D01*
X147248571Y-66040238D01*
X147343809Y-65992619D01*
X147581904Y-65992619D01*
X147677142Y-66040238D01*
X147724761Y-66087857D01*
X147772380Y-66183095D01*
X147772380Y-66421190D01*
X147724761Y-66516428D01*
X147677142Y-66564047D01*
M02*
