<?xml version="1.0" encoding="UTF-8" standalone="no"?>
<svg
   xmlns:dc="http://purl.org/dc/elements/1.1/"
   xmlns:cc="http://creativecommons.org/ns#"
   xmlns:rdf="http://www.w3.org/1999/02/22-rdf-syntax-ns#"
   xmlns:svg="http://www.w3.org/2000/svg"
   xmlns="http://www.w3.org/2000/svg"
   xmlns:sodipodi="http://sodipodi.sourceforge.net/DTD/sodipodi-0.dtd"
   xmlns:inkscape="http://www.inkscape.org/namespaces/inkscape"
   width="50.618313mm"
   height="31.147015mm"
   viewBox="0 0 50.618313 31.147015"
   version="1.1"
   id="svg878"
   inkscape:version="1.0.1 (3bc2e813f5, 2020-09-07)"
   sodipodi:docname="ibercivis_logo_trazos.svg">
  <defs
     id="defs872" />
  <sodipodi:namedview
     id="base"
     pagecolor="#ffffff"
     bordercolor="#666666"
     borderopacity="1.0"
     inkscape:pageopacity="0.0"
     inkscape:pageshadow="2"
     inkscape:zoom="1.4"
     inkscape:cx="156.94713"
     inkscape:cy="31.765902"
     inkscape:document-units="mm"
     inkscape:current-layer="layer1"
     inkscape:document-rotation="0"
     showgrid="false"
     fit-margin-top="0"
     fit-margin-left="0"
     fit-margin-right="0"
     fit-margin-bottom="0"
     inkscape:window-width="2193"
     inkscape:window-height="1493"
     inkscape:window-x="3250"
     inkscape:window-y="470"
     inkscape:window-maximized="0" />
  <metadata
     id="metadata875">
    <rdf:RDF>
      <cc:Work
         rdf:about="">
        <dc:format>image/svg+xml</dc:format>
        <dc:type
           rdf:resource="http://purl.org/dc/dcmitype/StillImage" />
        <dc:title></dc:title>
      </cc:Work>
    </rdf:RDF>
  </metadata>
  <g
     inkscape:label="Capa 1"
     inkscape:groupmode="layer"
     id="layer1"
     transform="translate(115.26749,-156.78364)">
    <g
       id="g1162"
       transform="matrix(0,0.26458333,-0.26458333,0,280.12296,-38.238594)"
       style="display:inline;fill:none;stroke:#ff0000;stroke-width:0.0755906;stroke-miterlimit:4;stroke-dasharray:none;stroke-opacity:1">
      <g
         id="g1015"
         transform="matrix(0,-0.65333332,-0.65333332,0,792.1579,1456.9914)"
         style="fill:none;stroke:#ff0000;stroke-width:0.1157;stroke-miterlimit:4;stroke-dasharray:none;stroke-opacity:1">
        <path
           d="M 1.0874591,-30.215826 1.425,-33.824 c 0.025,-0.591 -0.447,-1.083 -1.039,-1.083 h -2.85 c -0.591,0 -1.063,0.492 -1.038,1.083 l 0.4918922,3.685849"
           style="fill:none;fill-opacity:1;fill-rule:nonzero;stroke:#ff0000;stroke-width:0.1157;stroke-miterlimit:4;stroke-dasharray:none;stroke-opacity:1"
           id="path1017"
           inkscape:connector-curvature="0"
           sodipodi:nodetypes="ccsscc" />
      </g>
      <g
         id="g1019"
         transform="matrix(0,-0.65333332,-0.65333332,0,791.32562,1462.2493)"
         style="fill:none;stroke:#ff0000;stroke-width:0.1157;stroke-miterlimit:4;stroke-dasharray:none;stroke-opacity:1">
        <path
           style="fill:none;fill-opacity:1;fill-rule:nonzero;stroke:#ff0000;stroke-width:0.154266;stroke-miterlimit:4;stroke-dasharray:none;stroke-opacity:1"
           d="m 170.83448,196.84302 -1.25371,3.86991 -10.99093,28.1191 c -0.28266,0.71733 0.0736,1.52869 0.79493,1.80469 l 3.58398,1.36914 c 0.75333,0.288 1.5916,-0.12315 1.82227,-0.89648 l 6.31191,-22.02617 0.0518,-0.82854 c -0.042,-15.9683 0.0497,-32.77851 -0.32025,-11.41165 z"
           transform="matrix(0.75000002,0,0,-0.75000002,-133.3091,140.91432)"
           id="path1021"
           inkscape:connector-curvature="0"
           sodipodi:nodetypes="ccccccccc" />
      </g>
      <g
         id="g1023"
         transform="matrix(0,-0.65333332,-0.65333332,0,788.57162,1466.8128)"
         style="fill:none;stroke:#ff0000;stroke-width:0.1157;stroke-miterlimit:4;stroke-dasharray:none;stroke-opacity:1">
        <path
           d="m 0,0 -19.88,-27.233 c -0.361,-0.495 -1.068,-0.572 -1.527,-0.167 l -2.212,1.948 c -0.43,0.379 -0.473,1.034 -0.096,1.465 L -1.623,1.297 C -0.75,2.296 0.782,1.072 0,0"
           style="fill:none;fill-opacity:1;fill-rule:nonzero;stroke:#ff0000;stroke-width:0.1157;stroke-miterlimit:4;stroke-dasharray:none;stroke-opacity:1"
           id="path1025"
           inkscape:connector-curvature="0" />
      </g>
      <g
         id="g1027"
         transform="matrix(0,-0.65333332,-0.65333332,0,784.3948,1470.1353)"
         style="fill:none;stroke:#ff0000;stroke-width:0.1157;stroke-miterlimit:4;stroke-dasharray:none;stroke-opacity:1">
        <path
           d="m 0,0 -27.856,-18.656 c -0.507,-0.34 -1.196,-0.172 -1.49,0.363 l -1.46,2.655 c -0.277,0.504 -0.092,1.138 0.413,1.413 L -1.077,1.776 C 0.086,2.411 1.101,0.737 0,0"
           style="fill:none;fill-opacity:1;fill-rule:nonzero;stroke:#ff0000;stroke-width:0.1157;stroke-miterlimit:4;stroke-dasharray:none;stroke-opacity:1"
           id="path1029"
           inkscape:connector-curvature="0" />
      </g>
      <g
         id="g1031"
         transform="matrix(0,-0.65333332,-0.65333332,0,779.38184,1471.959)"
         style="fill:none;stroke:#ff0000;stroke-width:0.1157;stroke-miterlimit:4;stroke-dasharray:none;stroke-opacity:1">
        <path
           d="m 0,0 -32.487,-7.582 c -0.584,-0.136 -1.162,0.249 -1.262,0.84 l -0.51,3.041 c -0.097,0.578 0.302,1.122 0.883,1.202 L -0.378,2.042 C 0.933,2.223 1.289,0.301 0,0"
           style="fill:none;fill-opacity:1;fill-rule:nonzero;stroke:#ff0000;stroke-width:0.1157;stroke-miterlimit:4;stroke-dasharray:none;stroke-opacity:1"
           id="path1033"
           inkscape:connector-curvature="0" />
      </g>
      <g
         id="g1035"
         transform="matrix(0,-0.65333332,-0.65333332,0,774.04639,1472.2063)"
         style="fill:none;stroke:#ff0000;stroke-width:0.1157;stroke-miterlimit:4;stroke-dasharray:none;stroke-opacity:1">
        <path
           d="m 0,0 -32.998,4.542 c -0.58,0.079 -0.98,0.624 -0.883,1.202 l 0.51,3.04 c 0.1,0.592 0.678,0.977 1.262,0.841 L 0.378,2.042 C 1.667,1.742 1.312,-0.18 0,0"
           style="fill:none;fill-opacity:1;fill-rule:nonzero;stroke:#ff0000;stroke-width:0.1157;stroke-miterlimit:4;stroke-dasharray:none;stroke-opacity:1"
           id="path1037"
           inkscape:connector-curvature="0" />
      </g>
      <g
         id="g1039"
         transform="matrix(0,-0.65333332,-0.65333332,0,768.85932,1470.8387)"
         style="fill:none;stroke:#ff0000;stroke-width:0.1157;stroke-miterlimit:4;stroke-dasharray:none;stroke-opacity:1">
        <path
           d="m 0,0 -29.316,16.001 c -0.505,0.276 -0.69,0.909 -0.413,1.414 l 1.46,2.654 c 0.294,0.535 0.982,0.703 1.489,0.363 L 1.077,1.776 C 2.178,1.039 1.163,-0.635 0,0"
           style="fill:none;fill-opacity:1;fill-rule:nonzero;stroke:#ff0000;stroke-width:0.1157;stroke-miterlimit:4;stroke-dasharray:none;stroke-opacity:1"
           id="path1041"
           inkscape:connector-curvature="0" />
      </g>
      <g
         id="g1043"
         transform="matrix(0,-0.65333332,-0.65333332,0,764.36954,1467.8728)"
         style="fill:none;stroke:#ff0000;stroke-width:0.1157;stroke-miterlimit:4;stroke-dasharray:none;stroke-opacity:1">
        <path
           d="m 0,0 -22.092,25.284 c -0.377,0.431 -0.334,1.086 0.095,1.465 l 2.213,1.949 c 0.459,0.404 1.166,0.327 1.527,-0.167 L 1.623,1.297 C 2.405,0.225 0.873,-1 0,0"
           style="fill:none;fill-opacity:1;fill-rule:nonzero;stroke:#ff0000;stroke-width:0.1157;stroke-miterlimit:4;stroke-dasharray:none;stroke-opacity:1"
           id="path1045"
           inkscape:connector-curvature="0" />
      </g>
      <g
         id="g1047"
         transform="matrix(0,-0.65333332,-0.65333332,0,761.21264,1463.5318)"
         style="fill:none;stroke:#ff0000;stroke-width:0.1157;stroke-miterlimit:4;stroke-dasharray:none;stroke-opacity:1">
        <path
           d="m 0,0 -12.404,31.39 c -0.212,0.539 0.055,1.147 0.596,1.354 l 2.688,1.027 c 0.565,0.215 1.194,-0.094 1.367,-0.673 L 1.963,0.68 C 2.344,-0.592 0.488,-1.236 0,0"
           style="fill:none;fill-opacity:1;fill-rule:nonzero;stroke:#ff0000;stroke-width:0.1157;stroke-miterlimit:4;stroke-dasharray:none;stroke-opacity:1"
           id="path1049"
           inkscape:connector-curvature="0" />
      </g>
      <g
         id="g1051"
         transform="matrix(0,-0.65333332,-0.65333332,0,759.93563,1458.3488)"
         style="fill:none;stroke:#ff0000;stroke-width:0.1157;stroke-miterlimit:4;stroke-dasharray:none;stroke-opacity:1">
        <path
           d="m 0,0 -1.425,33.824 c -0.025,0.591 0.447,1.083 1.039,1.083 h 2.85 c 0.591,0 1.063,-0.492 1.038,-1.083 L 2.078,0 C 2.021,-1.328 0.056,-1.328 0,0"
           style="fill:none;fill-opacity:1;fill-rule:nonzero;stroke:#ff0000;stroke-width:0.1157;stroke-miterlimit:4;stroke-dasharray:none;stroke-opacity:1"
           id="path1053"
           inkscape:connector-curvature="0" />
      </g>
      <path
         d="m 811.94397,1465.5147 v -15.092 h -43.68644 v 15.092 z"
         style="fill:none;fill-opacity:1;fill-rule:nonzero;stroke:#ff0000;stroke-width:0.0755906;stroke-miterlimit:4;stroke-dasharray:none;stroke-opacity:1"
         id="path1055"
         inkscape:connector-curvature="0" />
      <g
         id="g1057"
         transform="matrix(0,-0.65333332,-0.65333332,0,791.12269,1419.1906)"
         style="fill:none;stroke:#ff0000;stroke-width:0.1157;stroke-miterlimit:4;stroke-dasharray:none;stroke-opacity:1">
        <path
           d="m 0,0 c 0,8.029 -5.312,14.082 -12.847,14.082 -7.412,0 -12.846,-6.053 -12.846,-14.082 0,-8.03 5.434,-14.082 12.846,-14.082 C -5.312,-14.082 0,-8.03 0,0 m -23.47,-24.458 h -1.236 v -7.412 h -23.099 v 92.151 h 23.099 V 24.458 h 1.236 c 4.2,5.806 10.376,10.761 18.529,10.761 16.676,0 28.164,-14.96 28.164,-35.219 0,-20.505 -11.365,-31.85 -28.287,-31.85 -8.277,0 -14.206,1.586 -18.406,7.392"
           style="fill:none;fill-opacity:1;fill-rule:nonzero;stroke:#ff0000;stroke-width:0.1157;stroke-miterlimit:4;stroke-dasharray:none;stroke-opacity:1"
           id="path1059"
           inkscape:connector-curvature="0" />
      </g>
      <g
         id="g1061"
         transform="matrix(0,-0.65333332,-0.65333332,0,787.22314,1372.8731)"
         style="fill:none;stroke:#ff0000;stroke-width:0.1157;stroke-miterlimit:4;stroke-dasharray:none;stroke-opacity:1">
        <path
           d="M 0,0 C -0.621,6.3 -5.462,11.488 -12.042,11.488 -18.499,11.488 -22.719,7.041 -23.96,0 Z m -47.671,-5.806 c 0,20.259 14.462,34.834 35.691,34.834 21.103,0 35.444,-14.699 35.444,-35.081 0,-1.853 0.249,-5.047 0,-6.282 l -47.175,-0.018 c 1.488,-6.917 6.206,-11.241 13.158,-11.241 5.588,0 9.56,2.841 11.547,6.918 L 20.98,-20.259 C 17.752,-32.24 4.241,-37.838 -12.146,-37.838 c -21.228,0 -35.525,11.526 -35.525,32.032"
           style="fill:none;fill-opacity:1;fill-rule:nonzero;stroke:#ff0000;stroke-width:0.1157;stroke-miterlimit:4;stroke-dasharray:none;stroke-opacity:1"
           id="path1063"
           inkscape:connector-curvature="0" />
      </g>
      <g
         id="g1065"
         transform="matrix(0,-0.65333332,-0.65333332,0,833.37343,1464.772)"
         style="fill:none;stroke:#ff0000;stroke-width:0.1157;stroke-miterlimit:4;stroke-dasharray:none;stroke-opacity:1">
        <path
           d="m 0,0 c 0,20.014 12.111,32.673 32.848,32.673 17.844,0 30.864,-9.283 32.794,-24.837 L 44.784,5.184 C 43.579,10.73 38.635,14.589 33.21,14.589 26.097,14.589 20.792,8.56 20.792,0 c 0,-8.56 5.185,-14.588 12.297,-14.588 5.667,0 10.49,3.858 11.695,9.283 L 65.642,-7.837 C 63.592,-23.39 50.571,-32.673 32.848,-32.673 12.473,-32.673 0,-19.772 0,0"
           style="fill:none;fill-opacity:1;fill-rule:nonzero;stroke:#ff0000;stroke-width:0.1157;stroke-miterlimit:4;stroke-dasharray:none;stroke-opacity:1"
           id="path1067"
           inkscape:connector-curvature="0" />
      </g>
      <g
         id="g1069"
         transform="matrix(0,-0.65333332,-0.65333332,0,840.19384,1342.3796)"
         style="fill:none;stroke:#ff0000;stroke-width:0.1157;stroke-miterlimit:4;stroke-dasharray:none;stroke-opacity:1">
        <path
           d="m 0,0 h 18.483 c 0,-5.251 4.417,-8.712 11.278,-8.712 5.114,0 8.718,2.267 8.718,5.967 0,4.415 -5.116,5.131 -11.392,5.727 C 16.274,4.057 0,5.009 0,22.073 0,35.08 11.625,43.197 28.714,43.197 45.338,43.197 57.66,35.202 57.66,22.553 H 38.362 c -0.116,4.296 -4.069,7.159 -9.648,7.159 -4.883,0 -8.37,-2.267 -8.37,-5.608 0,-4.654 7.092,-4.893 15.113,-5.847 10.928,-1.193 24.644,-3.938 24.644,-18.496 0,-13.723 -11.741,-22.076 -30.805,-22.076 C 11.276,-22.315 0,-13.843 0,0"
           style="fill:none;fill-opacity:1;fill-rule:nonzero;stroke:#ff0000;stroke-width:0.1157;stroke-miterlimit:4;stroke-dasharray:none;stroke-opacity:1"
           id="path1071"
           inkscape:connector-curvature="0" />
      </g>
      <g
         id="g1073"
         transform="matrix(0,-0.65333332,-0.65333332,0,811.972,1421.8202)"
         style="fill:none;stroke:#ff0000;stroke-width:0.1157;stroke-miterlimit:4;stroke-dasharray:none;stroke-opacity:1">
        <path
           d="M 0,0 -0.068,-65.515 H 23.099 L 23.1,0 Z"
           style="fill:none;fill-opacity:1;fill-rule:nonzero;stroke:#ff0000;stroke-width:0.1157;stroke-miterlimit:4;stroke-dasharray:none;stroke-opacity:1"
           id="path1075"
           inkscape:connector-curvature="0" />
      </g>
      <g
         id="g1077"
         transform="matrix(0,-0.65333332,-0.65333332,0,819.24732,1406.7068)"
         style="fill:none;stroke:#ff0000;stroke-width:0.1157;stroke-miterlimit:4;stroke-dasharray:none;stroke-opacity:1">
        <path
           d="m 0,0 c 0,-6.545 -4.799,-11.235 -11.671,-11.235 -6.654,0 -11.562,4.69 -11.562,11.235 0,6.544 4.908,11.126 11.562,11.126 C -4.799,11.126 0,6.544 0,0"
           style="fill:none;fill-opacity:1;fill-rule:nonzero;stroke:#ff0000;stroke-width:0.1157;stroke-miterlimit:4;stroke-dasharray:none;stroke-opacity:1"
           id="path1079"
           inkscape:connector-curvature="0" />
      </g>
      <g
         id="g1081"
         transform="matrix(0,-0.65333332,-0.65333332,0,811.972,1357.4713)"
         style="fill:none;stroke:#ff0000;stroke-width:0.1157;stroke-miterlimit:4;stroke-dasharray:none;stroke-opacity:1">
        <path
           d="M 0,0 V -65.474 H 23.099 L 23.1,0 Z"
           style="fill:none;fill-opacity:1;fill-rule:nonzero;stroke:#ff0000;stroke-width:0.1157;stroke-miterlimit:4;stroke-dasharray:none;stroke-opacity:1"
           id="path1083"
           inkscape:connector-curvature="0" />
      </g>
      <g
         id="g1085"
         transform="matrix(0,-0.65333332,-0.65333332,0,819.18382,1342.3955)"
         style="fill:none;stroke:#ff0000;stroke-width:0.1157;stroke-miterlimit:4;stroke-dasharray:none;stroke-opacity:1">
        <path
           d="m 0,0 c 0,-6.493 -4.762,-11.146 -11.579,-11.146 -6.602,0 -11.472,4.653 -11.472,11.146 0,6.493 4.87,11.039 11.472,11.039 C -4.762,11.039 0,6.493 0,0"
           style="fill:none;fill-opacity:1;fill-rule:nonzero;stroke:#ff0000;stroke-width:0.1157;stroke-miterlimit:4;stroke-dasharray:none;stroke-opacity:1"
           id="path1087"
           inkscape:connector-curvature="0" />
      </g>
      <g
         id="g1089"
         transform="matrix(0,-0.65333332,-0.65333332,0,811.95952,1406.9425)"
         style="fill:none;stroke:#ff0000;stroke-width:0.1157;stroke-miterlimit:4;stroke-dasharray:none;stroke-opacity:1">
        <path
           d="m 0,0 h 24.458 l 12.723,-44.593 h 1.235 L 51.14,0 H 75.721 L 54.722,-65.515 H 21 Z"
           style="fill:none;fill-opacity:1;fill-rule:nonzero;stroke:#ff0000;stroke-width:0.1157;stroke-miterlimit:4;stroke-dasharray:none;stroke-opacity:1"
           id="path1091"
           inkscape:connector-curvature="0" />
      </g>
      <g
         id="g1093"
         transform="matrix(0,-0.65333332,-0.65333332,0,775.52697,1450.3793)"
         style="fill:none;stroke:#ff0000;stroke-width:0.1157;stroke-miterlimit:4;stroke-dasharray:none;stroke-opacity:1">
        <path
           d="m 0,0 c 0,-6.544 -4.799,-11.235 -11.671,-11.235 -6.654,0 -11.562,4.691 -11.562,11.235 0,6.545 4.908,11.126 11.562,11.126 C -4.799,11.126 0,6.545 0,0"
           style="fill:none;fill-opacity:1;fill-rule:nonzero;stroke:#ff0000;stroke-width:0.1157;stroke-miterlimit:4;stroke-dasharray:none;stroke-opacity:1"
           id="path1095"
           inkscape:connector-curvature="0" />
      </g>
      <g
         id="g1097"
         transform="matrix(0,-0.65333332,-0.65333332,0,768.23721,1357.4713)"
         style="fill:none;stroke:#ff0000;stroke-width:0.1157;stroke-miterlimit:4;stroke-dasharray:none;stroke-opacity:1">
        <path
           d="m 0,0 h 22.977 v -10.242 h 1.359 c 2.717,6.3 8.399,10.253 14.822,10.253 2.472,0 5.065,-0.618 7.042,-1.607 v -20.505 c -3.706,1.606 -8.154,2.594 -11.118,2.594 -7.041,0 -11.981,-5.559 -11.981,-13.835 V -66.941 H 0 Z"
           style="fill:none;fill-opacity:1;fill-rule:nonzero;stroke:#ff0000;stroke-width:0.1157;stroke-miterlimit:4;stroke-dasharray:none;stroke-opacity:1"
           id="path1099"
           inkscape:connector-curvature="0" />
      </g>
    </g>
  </g>
</svg>
