<?xml version="1.0" encoding="UTF-8" standalone="no"?>
<svg
   xmlns:dc="http://purl.org/dc/elements/1.1/"
   xmlns:cc="http://creativecommons.org/ns#"
   xmlns:rdf="http://www.w3.org/1999/02/22-rdf-syntax-ns#"
   xmlns:svg="http://www.w3.org/2000/svg"
   xmlns="http://www.w3.org/2000/svg"
   xmlns:sodipodi="http://sodipodi.sourceforge.net/DTD/sodipodi-0.dtd"
   xmlns:inkscape="http://www.inkscape.org/namespaces/inkscape"
   viewBox="0 0 769.04077 245.16653"
   height="261.51096"
   width="820.31018"
   xml:space="preserve"
   id="svg2"
   version="1.1"
   inkscape:version="1.0.1 (3bc2e813f5, 2020-09-07)"
   sodipodi:docname="LogoUZ.svg"><sodipodi:namedview
     pagecolor="#ffffff"
     bordercolor="#666666"
     borderopacity="1"
     objecttolerance="10"
     gridtolerance="10"
     guidetolerance="10"
     inkscape:pageopacity="0"
     inkscape:pageshadow="2"
     inkscape:window-width="3840"
     inkscape:window-height="2126"
     id="namedview60"
     showgrid="false"
     fit-margin-left="20"
     fit-margin-top="20"
     fit-margin-bottom="20"
     fit-margin-right="20"
     inkscape:zoom="2.9631813"
     inkscape:cx="359.85162"
     inkscape:cy="130.83635"
     inkscape:window-x="2389"
     inkscape:window-y="-11"
     inkscape:window-maximized="1"
     inkscape:current-layer="svg2"
     inkscape:document-rotation="0" /><metadata
     id="metadata8"><rdf:RDF><cc:Work
         rdf:about=""><dc:format>image/svg+xml</dc:format><dc:type
           rdf:resource="http://purl.org/dc/dcmitype/StillImage" /><dc:title /></cc:Work></rdf:RDF></metadata><defs
     id="defs6"><clipPath
       id="clipPath18"
       clipPathUnits="userSpaceOnUse"><path
         id="path16"
         d="M 0,595.275 H 841.89 V 0 H 0 Z"
         inkscape:connector-curvature="0" /></clipPath></defs><g
     transform="matrix(1.3333333,0,0,-1.3333333,-205.53853,500.10465)"
     id="g10"
     style="fill:none;stroke:#fe0000;stroke-opacity:1;stroke-width:0.05314961;stroke-miterlimit:4;stroke-dasharray:none"><g
       id="g12"
       style="fill:none;stroke:#fe0000;stroke-opacity:1;stroke-width:0.05314961;stroke-miterlimit:4;stroke-dasharray:none"><g
         clip-path="url(#clipPath18)"
         id="g14"
         style="fill:none;stroke:#fe0000;stroke-opacity:1;stroke-width:0.05314961;stroke-miterlimit:4;stroke-dasharray:none"><g
           transform="translate(326.8267,356.0918)"
           id="g20"
           style="fill:none;stroke:#fe0000;stroke-opacity:1;stroke-width:0.05314961;stroke-miterlimit:4;stroke-dasharray:none"><path
             id="path22"
             style="fill:none;fill-opacity:1;fill-rule:evenodd;stroke:#fe0000;stroke-opacity:1;stroke-width:0.05314961;stroke-miterlimit:4;stroke-dasharray:none"
             d="m 0,0 v -32.623 c 0,-16.682 7.717,-24.088 20.973,-24.088 13.718,0 21.904,7.717 21.904,23.934 V 0 H 31.029 v -33.484 c 0,-9.35 -3.432,-13.719 -9.669,-13.719 -6,0 -9.51,4.599 -9.51,13.719 V 0 Z"
             inkscape:connector-curvature="0" /></g><g
           transform="translate(377.4307,300.2363)"
           id="g24"
           style="fill:none;stroke:#fe0000;stroke-opacity:1;stroke-width:0.05314961;stroke-miterlimit:4;stroke-dasharray:none"><path
             id="path26"
             style="fill:none;fill-opacity:1;fill-rule:evenodd;stroke:#fe0000;stroke-opacity:1;stroke-width:0.05314961;stroke-miterlimit:4;stroke-dasharray:none"
             d="m 0,0 h 11.848 v 21.982 c 0,1.096 0.08,2.182 0.394,2.965 0.854,2.184 2.8,4.44 6.079,4.44 4.286,0 6,-3.35 6,-8.26 V 0 h 11.85 v 22.529 c 0,11.225 -5.847,16.45 -13.641,16.45 -6.392,0 -10.214,-3.666 -11.77,-6.159 H 10.524 L 9.976,38.119 H -0.311 C -0.155,34.691 0,30.715 0,25.959 Z"
             inkscape:connector-curvature="0" /></g><g
           transform="translate(426.9473,356.0918)"
           id="g28"
           style="fill:none;stroke:#fe0000;stroke-opacity:1;stroke-width:0.05314961;stroke-miterlimit:4;stroke-dasharray:none"><path
             id="path30"
             style="fill:none;fill-opacity:1;fill-rule:evenodd;stroke:#fe0000;stroke-opacity:1;stroke-width:0.05314961;stroke-miterlimit:4;stroke-dasharray:none"
             d="m 0,0 c -3.822,0 -6.317,-2.57 -6.317,-5.924 0,-3.273 2.415,-5.924 6.159,-5.924 3.975,0 6.392,2.651 6.392,5.924 C 6.152,-2.57 3.817,0 0,0"
             inkscape:connector-curvature="0" /></g><path
           id="path32"
           style="fill:none;fill-opacity:1;fill-rule:evenodd;stroke:#fe0000;stroke-opacity:1;stroke-width:0.05314961;stroke-miterlimit:4;stroke-dasharray:none"
           d="m 432.791,338.355 h -11.85 v -38.119 h 11.85 z"
           inkscape:connector-curvature="0" /><g
           transform="translate(436.0781,338.3555)"
           id="g34"
           style="fill:none;stroke:#fe0000;stroke-opacity:1;stroke-width:0.05314961;stroke-miterlimit:4;stroke-dasharray:none"><path
             id="path36"
             style="fill:none;fill-opacity:1;fill-rule:evenodd;stroke:#fe0000;stroke-opacity:1;stroke-width:0.05314961;stroke-miterlimit:4;stroke-dasharray:none"
             d="M 0,0 13.874,-38.119 H 25.722 L 39.911,0 H 27.435 l -4.91,-17.693 c -0.858,-3.274 -1.481,-6.159 -2.103,-9.278 h -0.234 c -0.626,3.039 -1.25,6.004 -2.187,9.278 L 12.86,0 Z"
             inkscape:connector-curvature="0" /></g><g
           transform="translate(487.1455,323.625)"
           id="g38"
           style="fill:none;stroke:#fe0000;stroke-opacity:1;stroke-width:0.05314961;stroke-miterlimit:4;stroke-dasharray:none"><path
             id="path40"
             style="fill:none;fill-opacity:1;fill-rule:evenodd;stroke:#fe0000;stroke-opacity:1;stroke-width:0.05314961;stroke-miterlimit:4;stroke-dasharray:none"
             d="M 0,0 C 0.311,3.117 2.342,7.717 7.327,7.717 12.786,7.717 14.03,2.885 14.03,0 Z m 24.632,-8.107 c 0.156,0.855 0.389,2.65 0.389,4.677 0,9.428 -4.672,19.02 -16.991,19.02 -13.249,0 -19.257,-10.68 -19.257,-20.35 0,-11.924 7.411,-19.406 20.347,-19.406 5.149,0 9.902,0.777 13.797,2.416 l -1.557,8.027 c -3.195,-1.088 -6.47,-1.638 -10.525,-1.638 -5.534,0 -10.442,2.343 -10.754,7.254 z"
             inkscape:connector-curvature="0" /></g><g
           transform="translate(517.0947,300.2363)"
           id="g42"
           style="fill:none;stroke:#fe0000;stroke-opacity:1;stroke-width:0.05314961;stroke-miterlimit:4;stroke-dasharray:none"><path
             id="path44"
             style="fill:none;fill-opacity:1;fill-rule:evenodd;stroke:#fe0000;stroke-opacity:1;stroke-width:0.05314961;stroke-miterlimit:4;stroke-dasharray:none"
             d="m 0,0 h 11.848 v 19.334 c 0,0.936 0.08,1.871 0.232,2.648 0.783,3.666 3.746,6.006 8.109,6.006 1.323,0 2.26,-0.158 3.196,-0.314 v 11.148 c -0.856,0.157 -1.405,0.235 -2.496,0.235 -3.741,0 -8.342,-2.34 -10.287,-7.952 H 10.285 L 9.82,38.119 H -0.316 C -0.078,34.848 0,31.182 0,25.57 Z"
             inkscape:connector-curvature="0" /></g><g
           transform="translate(542.3643,302.1094)"
           id="g46"
           style="fill:none;stroke:#fe0000;stroke-opacity:1;stroke-width:0.05314961;stroke-miterlimit:4;stroke-dasharray:none"><path
             id="path48"
             style="fill:none;fill-opacity:1;fill-rule:evenodd;stroke:#fe0000;stroke-opacity:1;stroke-width:0.05314961;stroke-miterlimit:4;stroke-dasharray:none"
             d="m 0,0 c 2.881,-1.563 7.322,-2.729 12.314,-2.729 10.913,0 16.448,5.219 16.448,12.395 -0.078,5.531 -3.035,9.275 -10.289,11.772 -4.678,1.636 -6.159,2.572 -6.159,4.445 0,1.871 1.637,3.039 4.518,3.039 3.203,0 6.551,-1.248 8.266,-2.184 l 2.029,8.184 c -2.344,1.168 -6.234,2.262 -10.682,2.262 -9.431,0 -15.509,-5.379 -15.509,-12.551 -0.081,-4.524 2.959,-8.809 10.91,-11.459 4.363,-1.481 5.533,-2.416 5.533,-4.447 0,-1.948 -1.479,-3.118 -5.065,-3.118 -3.509,0 -8.031,1.487 -10.212,2.809 z"
             inkscape:connector-curvature="0" /></g><g
           transform="translate(582.2061,356.0918)"
           id="g50"
           style="fill:none;stroke:#fe0000;stroke-opacity:1;stroke-width:0.05314961;stroke-miterlimit:4;stroke-dasharray:none"><path
             id="path52"
             style="fill:none;fill-opacity:1;fill-rule:evenodd;stroke:#fe0000;stroke-opacity:1;stroke-width:0.05314961;stroke-miterlimit:4;stroke-dasharray:none"
             d="m 0,0 c -3.82,0 -6.314,-2.57 -6.314,-5.924 0,-3.273 2.419,-5.924 6.16,-5.924 3.978,0 6.392,2.651 6.392,5.924 C 6.16,-2.57 3.824,0 0,0"
             inkscape:connector-curvature="0" /></g><path
           id="path54"
           style="fill:none;fill-opacity:1;fill-rule:evenodd;stroke:#fe0000;stroke-opacity:1;stroke-width:0.05314961;stroke-miterlimit:4;stroke-dasharray:none"
           d="m 588.052,338.355 h -11.846 v -38.119 h 11.846 z"
           inkscape:connector-curvature="0" /><g
           transform="translate(620.4932,317.2324)"
           id="g56"
           style="fill:none;stroke:#fe0000;stroke-opacity:1;stroke-width:0.05314961;stroke-miterlimit:4;stroke-dasharray:none"><path
             id="path58"
             style="fill:none;fill-opacity:1;fill-rule:evenodd;stroke:#fe0000;stroke-opacity:1;stroke-width:0.05314961;stroke-miterlimit:4;stroke-dasharray:none"
             d="m 0,0 c 0,-0.936 -0.08,-1.871 -0.234,-2.729 -0.702,-3.351 -3.508,-5.689 -6.938,-5.689 -4.91,0 -8.107,4.053 -8.107,10.522 0,6.005 2.73,10.835 8.187,10.835 3.66,0 6.235,-2.648 6.936,-5.771 C 0,6.471 0,5.611 0,4.986 Z M 0,38.43 V 17.771 h -0.156 c -1.715,2.575 -5.299,4.29 -10.053,4.29 -9.125,0 -17.152,-7.483 -17.074,-20.346 0,-11.85 7.25,-19.567 16.291,-19.567 4.914,0 9.59,2.182 11.93,6.395 h 0.23 l 0.473,-5.539 h 10.521 c -0.156,2.576 -0.314,7.094 -0.314,11.381 V 38.43 Z"
             inkscape:connector-curvature="0" /></g><g
           transform="translate(659.9482,314.1133)"
           id="g60"
           style="fill:none;stroke:#fe0000;stroke-opacity:1;stroke-width:0.05314961;stroke-miterlimit:4;stroke-dasharray:none"><path
             id="path62"
             style="fill:none;fill-opacity:1;fill-rule:evenodd;stroke:#fe0000;stroke-opacity:1;stroke-width:0.05314961;stroke-miterlimit:4;stroke-dasharray:none"
             d="m 0,0 c 0,-0.699 -0.076,-1.402 -0.23,-2.027 -0.782,-2.418 -3.276,-4.368 -6.161,-4.368 -2.65,0 -4.673,1.487 -4.673,4.526 0,4.517 4.83,6 11.064,6 z m 11.459,8.652 c 0,9.045 -3.975,16.528 -16.68,16.528 -6.939,0 -12.16,-1.95 -14.816,-3.43 l 2.187,-7.639 c 2.493,1.559 6.627,2.883 10.524,2.883 5.846,0 6.935,-2.883 6.935,-4.988 v -0.469 c -13.486,0 -22.373,-4.676 -22.373,-14.578 0,-6.08 4.604,-11.691 12.321,-11.691 4.521,0 8.414,1.634 10.914,4.673 h 0.23 l 0.705,-3.818 h 10.678 c -0.471,2.107 -0.625,5.613 -0.625,9.201 z"
             inkscape:connector-curvature="0" /></g><g
           transform="translate(703.7705,317.2324)"
           id="g64"
           style="fill:none;stroke:#fe0000;stroke-opacity:1;stroke-width:0.05314961;stroke-miterlimit:4;stroke-dasharray:none"><path
             id="path66"
             style="fill:none;fill-opacity:1;fill-rule:evenodd;stroke:#fe0000;stroke-opacity:1;stroke-width:0.05314961;stroke-miterlimit:4;stroke-dasharray:none"
             d="m 0,0 c 0,-0.936 -0.074,-1.871 -0.23,-2.729 -0.706,-3.351 -3.514,-5.689 -6.942,-5.689 -4.912,0 -8.103,4.053 -8.103,10.522 0,6.005 2.728,10.835 8.187,10.835 3.66,0 6.229,-2.648 6.93,-5.771 C 0,6.471 0,5.611 0,4.986 Z M 0,38.43 V 17.771 h -0.158 c -1.713,2.575 -5.297,4.29 -10.055,4.29 -9.119,0 -17.148,-7.483 -17.07,-20.346 0,-11.85 7.252,-19.567 16.293,-19.567 4.912,0 9.586,2.182 11.926,6.395 h 0.232 l 0.473,-5.539 h 10.523 c -0.16,2.576 -0.312,7.094 -0.312,11.381 V 38.43 Z"
             inkscape:connector-curvature="0" /></g><g
           transform="translate(390.5942,262.8828)"
           id="g68"
           style="fill:none;stroke:#fe0000;stroke-opacity:1;stroke-width:0.05314961;stroke-miterlimit:4;stroke-dasharray:none"><path
             id="path70"
             style="fill:none;fill-opacity:1;fill-rule:evenodd;stroke:#fe0000;stroke-opacity:1;stroke-width:0.05314961;stroke-miterlimit:4;stroke-dasharray:none"
             d="m 0,0 c 0,5.873 -2.199,12.051 -11.257,12.051 -3.728,0 -7.337,-1.041 -9.786,-2.569 l 1.227,-3.609 c 2.077,1.408 4.951,2.199 7.764,2.199 6.051,0.065 6.734,-4.404 6.734,-6.791 V 0.674 c -11.443,0.056 -17.801,-3.856 -17.801,-11.012 0,-4.277 3.057,-8.508 9.047,-8.508 4.223,0 7.404,2.082 9.057,4.407 h 0.182 l 0.427,-3.733 H 0.427 C 0.125,-16.15 0,-13.643 0,-11.066 Z m -5.202,-8.197 c 0,-0.491 -0.063,-1.104 -0.243,-1.717 -0.853,-2.504 -3.359,-4.955 -7.278,-4.955 -2.689,0 -5.016,1.592 -5.016,5.144 0,5.745 6.663,6.789 12.537,6.662 v -5.134"
             inkscape:connector-curvature="0" /></g><g
           transform="translate(400.9814,244.7109)"
           id="g72"
           style="fill:none;stroke:#fe0000;stroke-opacity:1;stroke-width:0.05314961;stroke-miterlimit:4;stroke-dasharray:none"><path
             id="path74"
             style="fill:none;fill-opacity:1;fill-rule:nonzero;stroke:#fe0000;stroke-opacity:1;stroke-width:0.05314961;stroke-miterlimit:4;stroke-dasharray:none"
             d="m 0,0 h 5.38 v 15.789 c 0,0.854 0.064,1.775 0.187,2.506 0.735,4.039 3.426,6.848 7.221,6.848 0.734,0 1.281,0 1.837,-0.12 V 30.1 c -0.494,0.058 -0.924,0.123 -1.471,0.123 -3.61,0 -6.912,-2.516 -8.257,-6.489 H 4.708 L 4.462,29.607 H -0.246 C -0.056,26.857 0,23.859 0,20.379 V 0"
             inkscape:connector-curvature="0" /></g><g
           transform="translate(443.1777,262.8828)"
           id="g76"
           style="fill:none;stroke:#fe0000;stroke-opacity:1;stroke-width:0.05314961;stroke-miterlimit:4;stroke-dasharray:none"><path
             id="path78"
             style="fill:none;fill-opacity:1;fill-rule:evenodd;stroke:#fe0000;stroke-opacity:1;stroke-width:0.05314961;stroke-miterlimit:4;stroke-dasharray:none"
             d="m 0,0 c 0,5.873 -2.197,12.051 -11.253,12.051 -3.733,0 -7.343,-1.041 -9.786,-2.569 l 1.225,-3.609 c 2.078,1.408 4.954,2.199 7.765,2.199 6.062,0.065 6.732,-4.404 6.732,-6.791 V 0.674 c -11.439,0.056 -17.798,-3.856 -17.798,-11.012 0,-4.277 3.056,-8.508 9.049,-8.508 4.219,0 7.405,2.082 9.052,4.407 h 0.187 l 0.426,-3.733 H 0.433 C 0.126,-16.15 0,-13.643 0,-11.066 Z m -5.201,-8.197 c 0,-0.491 -0.059,-1.104 -0.243,-1.717 -0.856,-2.504 -3.355,-4.955 -7.279,-4.955 -2.691,0 -5.013,1.592 -5.013,5.144 0,5.745 6.664,6.789 12.535,6.662 v -5.134"
             inkscape:connector-curvature="0" /></g><g
           transform="translate(478.8965,266.2461)"
           id="g80"
           style="fill:none;stroke:#fe0000;stroke-opacity:1;stroke-width:0.05314961;stroke-miterlimit:4;stroke-dasharray:none"><path
             id="path82"
             style="fill:none;fill-opacity:1;fill-rule:evenodd;stroke:#fe0000;stroke-opacity:1;stroke-width:0.05314961;stroke-miterlimit:4;stroke-dasharray:none"
             d="m 0,0 c 0,3.547 0.06,5.99 0.237,8.072 h -4.77 L -4.716,3.607 h -0.116 c -1.348,2.45 -4.102,5.081 -9.239,5.081 -6.854,0 -13.4,-5.631 -13.4,-15.653 0,-8.203 5.259,-14.445 12.607,-14.445 4.58,0 7.822,2.201 9.414,4.951 h 0.131 v -3.242 c 0,-7.522 -4.042,-10.397 -9.545,-10.397 -3.674,0 -6.736,1.106 -8.692,2.387 l -1.343,-4.162 c 2.384,-1.592 6.297,-2.44 9.847,-2.44 3.731,0 7.897,0.913 10.828,3.547 2.811,2.627 4.224,6.727 4.224,13.578 z m -5.388,-8.934 c 0,-0.912 -0.123,-1.957 -0.427,-2.871 -1.103,-3.424 -4.1,-5.509 -7.465,-5.509 -5.749,0 -8.742,4.834 -8.742,10.65 0,6.848 3.667,11.195 8.804,11.195 3.981,0 6.543,-2.574 7.529,-5.754 0.239,-0.675 0.301,-1.466 0.301,-2.384 v -5.327"
             inkscape:connector-curvature="0" /></g><g
           transform="translate(502.0098,274.9336)"
           id="g84"
           style="fill:none;stroke:#fe0000;stroke-opacity:1;stroke-width:0.05314961;stroke-miterlimit:4;stroke-dasharray:none"><path
             id="path86"
             style="fill:none;fill-opacity:1;fill-rule:evenodd;stroke:#fe0000;stroke-opacity:1;stroke-width:0.05314961;stroke-miterlimit:4;stroke-dasharray:none"
             d="m 0,0 c -8.142,0 -14.687,-5.809 -14.687,-15.652 0,-9.364 6.243,-15.244 14.191,-15.244 7.094,0 14.743,4.773 14.743,15.726 C 14.247,-6.178 8.492,0 0,0 m -0.131,-4.041 c 6.361,0 8.871,-6.299 8.871,-11.311 0,-6.671 -3.851,-11.503 -8.994,-11.503 -5.254,0 -8.929,4.89 -8.929,11.376 0,5.569 2.755,11.438 9.052,11.438"
             inkscape:connector-curvature="0" /></g><g
           transform="translate(520.958,244.7109)"
           id="g88"
           style="fill:none;stroke:#fe0000;stroke-opacity:1;stroke-width:0.05314961;stroke-miterlimit:4;stroke-dasharray:none"><path
             id="path90"
             style="fill:none;fill-opacity:1;fill-rule:nonzero;stroke:#fe0000;stroke-opacity:1;stroke-width:0.05314961;stroke-miterlimit:4;stroke-dasharray:none"
             d="M 0,0 H 23.98 V 4.283 H 6.729 v 0.125 c 1.347,1.463 2.507,2.998 3.789,4.647 l 11.515,17.189 v 3.363 H -0.48 v -4.283 h 16.025 v -0.115 c -1.35,-1.588 -0.863,-3 -2.211,-4.65 L 0,3.119 V 0"
             inkscape:connector-curvature="0" /></g><g
           transform="translate(573.001,262.8828)"
           id="g92"
           style="fill:none;stroke:#fe0000;stroke-opacity:1;stroke-width:0.05314961;stroke-miterlimit:4;stroke-dasharray:none"><path
             id="path94"
             style="fill:none;fill-opacity:1;fill-rule:evenodd;stroke:#fe0000;stroke-opacity:1;stroke-width:0.05314961;stroke-miterlimit:4;stroke-dasharray:none"
             d="m 0,0 c 0,5.873 -2.199,12.051 -11.25,12.051 -3.732,0 -7.348,-1.041 -9.797,-2.569 l 1.225,-3.609 c 2.084,1.408 4.961,2.199 7.775,2.199 6.055,0.065 6.727,-4.404 6.727,-6.791 V 0.674 c -11.442,0.056 -17.797,-3.856 -17.797,-11.012 0,-4.277 3.054,-8.508 9.053,-8.508 4.212,0 7.398,2.082 9.044,4.407 h 0.19 l 0.428,-3.733 H 0.43 C 0.123,-16.15 0,-13.643 0,-11.066 Z m -5.195,-8.197 c 0,-0.491 -0.069,-1.104 -0.25,-1.717 -0.852,-2.504 -3.364,-4.955 -7.276,-4.955 -2.697,0 -5.017,1.592 -5.017,5.144 0,5.745 6.664,6.789 12.543,6.662 v -5.134"
             inkscape:connector-curvature="0" /></g><g
           transform="translate(328.5146,244.7109)"
           id="g96"
           style="fill:none;stroke:#fe0000;stroke-opacity:1;stroke-width:0.05314961;stroke-miterlimit:4;stroke-dasharray:none"><path
             id="path98"
             style="fill:none;fill-opacity:1;fill-rule:nonzero;stroke:#fe0000;stroke-opacity:1;stroke-width:0.05314961;stroke-miterlimit:4;stroke-dasharray:none"
             d="M 0,0 H 33.633 V 4.471 H 7.032 v 0.183 l 26.393,33.33 V 41.23 H -0.007 V 36.768 H 26.444 V 36.586 L 0,3.119 Z"
             inkscape:connector-curvature="0" /></g><g
           transform="translate(195.7954,206.418)"
           id="g100"
           style="fill:none;stroke:#fe0000;stroke-opacity:1;stroke-width:0.05314961;stroke-miterlimit:4;stroke-dasharray:none"><path
             id="path102"
             style="fill:none;fill-opacity:1;fill-rule:evenodd;stroke:#fe0000;stroke-opacity:1;stroke-width:0.05314961;stroke-miterlimit:4;stroke-dasharray:none"
             d="M 0,0 H 2.875 V 12.682 H 0.434 l -3.377,-1.559 0.484,-2.228 2.419,1.156 H 0 Z"
             inkscape:connector-curvature="0" /></g><g
           transform="translate(215.9946,219.0996)"
           id="g104"
           style="fill:none;stroke:#fe0000;stroke-opacity:1;stroke-width:0.05314961;stroke-miterlimit:4;stroke-dasharray:none"><path
             id="path106"
             style="fill:none;fill-opacity:1;fill-rule:evenodd;stroke:#fe0000;stroke-opacity:1;stroke-width:0.05314961;stroke-miterlimit:4;stroke-dasharray:none"
             d="m 0,0 h -6.984 l -0.821,-6.629 c 0.508,0.076 0.992,0.111 1.7,0.111 2.534,0 3.567,-0.796 3.567,-2.127 0,-1.339 -1.306,-1.931 -2.538,-1.931 -1.153,0 -2.3,0.355 -2.844,0.625 l -0.544,-2.221 c 0.7,-0.373 1.984,-0.724 3.526,-0.724 3.416,0 5.443,2.083 5.443,4.449 0,1.502 -0.584,2.554 -1.536,3.199 -0.885,0.643 -2.131,0.918 -3.342,0.918 -0.313,0 -0.544,-0.02 -0.816,-0.039 l 0.272,1.933 H 0 Z"
             inkscape:connector-curvature="0" /></g><g
           transform="translate(225.4194,211.6699)"
           id="g108"
           style="fill:none;stroke:#fe0000;stroke-opacity:1;stroke-width:0.05314961;stroke-miterlimit:4;stroke-dasharray:none"><path
             id="path110"
             style="fill:none;fill-opacity:1;fill-rule:evenodd;stroke:#fe0000;stroke-opacity:1;stroke-width:0.05314961;stroke-miterlimit:4;stroke-dasharray:none"
             d="M 0,0 0.019,0.033 1.698,2.807 C 2.128,3.605 2.481,4.348 2.893,5.17 H 2.941 C 2.907,4.348 2.873,3.568 2.873,2.807 V 0 Z m 5.679,-5.252 v 3.031 H 7.183 V 0 H 5.679 V 7.43 H 2.032 l -4.784,-7.727 v -1.924 h 5.625 v -3.031 z"
             inkscape:connector-curvature="0" /></g><g
           transform="translate(247.5688,206.418)"
           id="g112"
           style="fill:none;stroke:#fe0000;stroke-opacity:1;stroke-width:0.05314961;stroke-miterlimit:4;stroke-dasharray:none"><path
             id="path114"
             style="fill:none;fill-opacity:1;fill-rule:evenodd;stroke:#fe0000;stroke-opacity:1;stroke-width:0.05314961;stroke-miterlimit:4;stroke-dasharray:none"
             d="M 0,0 V 2.439 H -4.803 V 2.48 l 1.171,0.973 c 1.86,1.643 3.376,3.336 3.376,5.461 0,2.313 -1.558,3.982 -4.446,3.982 -1.697,0 -3.198,-0.583 -4.137,-1.304 l 0.842,-2.106 c 0.661,0.489 1.611,1.034 2.71,1.034 1.464,0 2.066,-0.823 2.066,-1.856 C -3.24,7.18 -4.586,5.758 -7.377,3.262 L -8.995,1.793 V 0 Z"
             inkscape:connector-curvature="0" /></g><g
           transform="translate(230.6929,288.6055)"
           id="g116"
           style="fill:none;stroke:#fe0000;stroke-opacity:1;stroke-width:0.05314961;stroke-miterlimit:4;stroke-dasharray:none"><path
             id="path118"
             style="fill:none;fill-opacity:1;fill-rule:nonzero;stroke:#fe0000;stroke-opacity:1;stroke-width:0.05314961;stroke-miterlimit:4;stroke-dasharray:none"
             d="m 0,0 c 0,0.996 -0.809,1.805 -1.808,1.805 -0.996,0 -1.805,-0.809 -1.805,-1.805 0,-1 0.809,-1.809 1.805,-1.809 C -0.809,-1.809 0,-1 0,0 m -17.504,-1.809 c 1,0 1.807,0.809 1.807,1.809 0,0.996 -0.807,1.805 -1.807,1.805 -0.996,0 -1.805,-0.809 -1.805,-1.805 0,-1 0.809,-1.809 1.805,-1.809 m 0.181,-34.435 h 15.824 c 0.871,0 1.738,0.586 1.738,1.736 v 22.096 c 0,5.348 -4.312,9.644 -9.652,9.644 -5.343,0 -9.643,-4.296 -9.643,-9.644 v -22.096 c 0,-1.15 0.864,-1.736 1.733,-1.736 m 29.224,91.433 c -1.89,0 -3.41,-1.521 -3.41,-3.412 v -6.086 c 0,-0.406 0.304,-0.613 0.612,-0.613 H 14.7 c 0.308,0 0.615,0.207 0.615,0.613 v 6.086 c 0,1.891 -1.525,3.412 -3.414,3.412 M 10.151,-36.1 h 11.277 c 0.619,0 1.239,0.418 1.239,1.237 v 21.379 c 0,3.808 -3.073,6.873 -6.879,6.873 -3.809,0 -6.872,-3.065 -6.872,-6.873 v -21.379 c 0,-0.819 0.616,-1.237 1.235,-1.237 m 12.282,33.03 c 0,0.998 -0.808,1.806 -1.808,1.806 -0.996,0 -1.805,-0.808 -1.805,-1.806 0,-1 0.809,-1.807 1.805,-1.807 1,0 1.808,0.807 1.808,1.807 m -11.83,-1.807 c 0.998,0 1.807,0.807 1.807,1.807 0,0.998 -0.809,1.806 -1.807,1.806 -0.997,0 -1.806,-0.808 -1.806,-1.806 0,-1 0.809,-1.807 1.806,-1.807 m -58.491,-35.994 h 77.674 v 3.34 h -77.674 z m 73.417,85.949 c 0.307,0 0.615,0.207 0.615,0.613 v 6.086 c 0,1.891 -1.526,3.412 -3.415,3.412 -1.89,0 -3.41,-1.521 -3.41,-3.412 v -6.086 c 0,-0.406 0.305,-0.613 0.612,-0.613 z m -80.164,-93.012 h 91.168 v 5.09 h -91.168 z m 13.542,12.926 c 0,-0.818 0.617,-1.236 1.235,-1.236 h 11.277 c 0.619,0 1.239,0.418 1.239,1.236 v 20.819 c 0,3.808 -3.073,6.873 -6.879,6.873 -3.809,0 -6.872,-3.065 -6.872,-6.873 z m 1.131,90.197 c -1.891,0 -3.411,-1.521 -3.411,-3.412 v -6.086 c 0,-0.406 0.306,-0.613 0.613,-0.613 h 5.597 c 0.309,0 0.617,0.207 0.617,0.613 v 6.086 c 0,1.891 -1.526,3.412 -3.416,3.412 M -37.43,-3.07 c 0,0.998 -0.808,1.806 -1.807,1.806 -0.996,0 -1.805,-0.808 -1.805,-1.806 0,-1 0.809,-1.807 1.805,-1.807 0.999,0 1.807,0.807 1.807,1.807 m 7.727,58.259 c -1.89,0 -3.412,-1.521 -3.412,-3.412 v -6.086 c 0,-0.406 0.307,-0.613 0.613,-0.613 h 5.598 c 0.308,0 0.615,0.207 0.615,0.613 v 6.086 c 0,1.891 -1.525,3.412 -3.414,3.412 M -41.093,28.18 V 15.92 c 0,-0.818 0.617,-1.236 1.235,-1.236 h 11.277 c 0.619,0 1.239,0.418 1.239,1.236 v 12.26 c 0,3.808 -3.073,6.873 -6.879,6.873 -3.809,0 -6.872,-3.065 -6.872,-6.873 m 13.685,-31.25 c 0,0.998 -0.807,1.806 -1.806,1.806 -0.997,0 -1.806,-0.808 -1.806,-1.806 0,-1 0.809,-1.807 1.806,-1.807 0.999,0 1.806,0.807 1.806,1.807 M -61.539,-56.457 H 43.435 v 6.359 H -61.539 Z m 50.542,67.311 h 3.679 c 0.202,0 0.402,-0.137 0.402,-0.403 V 7.564 c 0,-1.242 -0.999,-2.242 -2.241,-2.242 -1.24,0 -2.243,1 -2.243,2.242 v 2.887 c 0,0.266 0.2,0.403 0.403,0.403 M 8.832,4.02 -9.122,13.721 -27.362,4.164 Z m -28.802,7.855 c 0,-0.445 0.359,-0.805 0.802,-0.805 0.444,0 0.804,0.36 0.804,0.805 0,0.441 -0.36,0.801 -0.804,0.801 -0.443,0 -0.802,-0.36 -0.802,-0.801 m 13.773,33.203 c 0.308,0 0.615,0.207 0.615,0.613 v 6.086 c 0,1.891 -1.524,3.412 -3.415,3.412 -1.889,0 -3.409,-1.521 -3.409,-3.412 v -6.086 c 0,-0.406 0.305,-0.613 0.612,-0.613 z M 8.973,28.18 V 15.92 c 0,-0.818 0.616,-1.236 1.235,-1.236 h 11.277 c 0.62,0 1.239,0.418 1.239,1.236 v 12.26 c 0,3.808 -3.074,6.873 -6.879,6.873 -3.808,0 -6.872,-3.065 -6.872,-6.873 m -26.05,-14.119 c -0.675,0 -1.224,-0.549 -1.224,-1.225 0,-0.676 0.549,-1.225 1.224,-1.225 0.676,0 1.223,0.549 1.223,1.225 0,0.676 -0.547,1.225 -1.223,1.225 m 45.684,54.861 4.769,2.551 h -85.042 l 3.021,-2.551 z m 8.072,-7.125 5.698,5.697 H -59.245 l 3.611,-5.697 z M -15.84,51.777 c 0,1.891 -1.525,3.412 -3.415,3.412 -1.89,0 -3.411,-1.521 -3.411,-3.412 v -6.086 c 0,-0.406 0.306,-0.613 0.614,-0.613 h 5.598 c 0.306,0 0.614,0.207 0.614,0.613 z M -15.827,28.18 V 16.305 l 6.705,3.164 7.046,-3.438 V 28.18 c 0,3.808 -3.072,6.873 -6.879,6.873 -3.808,0 -6.872,-3.065 -6.872,-6.873 m 3.661,-14.034 c 0.676,0 1.224,0.547 1.224,1.225 0,0.674 -0.548,1.223 -1.224,1.223 -0.677,0 -1.224,-0.549 -1.224,-1.223 0,-0.678 0.547,-1.225 1.224,-1.225 m -2.418,1.059 c -0.675,0 -1.224,-0.549 -1.224,-1.225 0,-0.675 0.549,-1.222 1.224,-1.222 0.676,0 1.225,0.547 1.225,1.222 0,0.676 -0.549,1.225 -1.225,1.225 m 3.721,1.117 c 0,-0.937 0.76,-1.699 1.697,-1.699 0.939,0 1.698,0.762 1.698,1.699 0,0.938 -0.759,1.698 -1.698,1.698 -0.937,0 -1.697,-0.76 -1.697,-1.698 m 15.92,29.369 v 6.086 c 0,1.891 -1.526,3.412 -3.415,3.412 -1.89,0 -3.411,-1.521 -3.411,-3.412 v -6.086 c 0,-0.406 0.306,-0.613 0.614,-0.613 h 5.597 c 0.308,0 0.615,0.207 0.615,0.613 M 0.151,11.875 c 0,-0.445 0.36,-0.805 0.803,-0.805 0.444,0 0.802,0.36 0.802,0.805 0,0.441 -0.358,0.801 -0.802,0.801 -0.443,0 -0.803,-0.36 -0.803,-0.801 m -6.324,4.719 c -0.676,0 -1.224,-0.549 -1.224,-1.223 0,-0.678 0.548,-1.225 1.224,-1.225 0.675,0 1.224,0.547 1.224,1.225 0,0.674 -0.549,1.223 -1.224,1.223 m 3.638,-3.758 c 0,-0.676 0.55,-1.225 1.225,-1.225 0.676,0 1.224,0.549 1.224,1.225 0,0.676 -0.548,1.225 -1.224,1.225 -0.675,0 -1.225,-0.549 -1.225,-1.225 m -1.248,-0.078 c 0.676,0 1.223,0.547 1.223,1.222 0,0.676 -0.547,1.225 -1.223,1.225 -0.677,0 -1.224,-0.549 -1.224,-1.225 0,-0.675 0.547,-1.222 1.224,-1.222"
             inkscape:connector-curvature="0" /></g></g></g></g></svg>
