<?xml version="1.0" encoding="UTF-8" standalone="no"?>
<svg
   xmlns:dc="http://purl.org/dc/elements/1.1/"
   xmlns:cc="http://creativecommons.org/ns#"
   xmlns:rdf="http://www.w3.org/1999/02/22-rdf-syntax-ns#"
   xmlns:svg="http://www.w3.org/2000/svg"
   xmlns="http://www.w3.org/2000/svg"
   xmlns:sodipodi="http://sodipodi.sourceforge.net/DTD/sodipodi-0.dtd"
   xmlns:inkscape="http://www.inkscape.org/namespaces/inkscape"
   version="1.1"
   id="Capa_1"
   x="0px"
   y="0px"
   viewBox="0 0 566.93 566.93"
   style="enable-background:new 0 0 566.93 566.93;"
   xml:space="preserve"
   sodipodi:docname="pajaros en la nube logo_trazos.svg"
   inkscape:version="1.0.1 (3bc2e813f5, 2020-09-07)"><metadata
   id="metadata61"><rdf:RDF><cc:Work
       rdf:about=""><dc:format>image/svg+xml</dc:format><dc:type
         rdf:resource="http://purl.org/dc/dcmitype/StillImage" /><dc:title></dc:title></cc:Work></rdf:RDF></metadata><defs
   id="defs59" /><sodipodi:namedview
   pagecolor="#ffffff"
   bordercolor="#666666"
   borderopacity="1"
   objecttolerance="10"
   gridtolerance="10"
   guidetolerance="10"
   inkscape:pageopacity="0"
   inkscape:pageshadow="2"
   inkscape:window-width="3840"
   inkscape:window-height="2126"
   id="namedview57"
   showgrid="false"
   inkscape:zoom="1.7779973"
   inkscape:cx="203.44454"
   inkscape:cy="338.76974"
   inkscape:window-x="2389"
   inkscape:window-y="-11"
   inkscape:window-maximized="1"
   inkscape:current-layer="Capa_1"
   inkscape:document-rotation="0" />
<style
   type="text/css"
   id="style2">
	.st0{fill:#6FC9DF;}
	.st1{fill:#165FA3;}
</style>
<g
   id="g22"
   style="fill:none;stroke:#ff0000;stroke-opacity:1;stroke-width:0.076;stroke-miterlimit:4;stroke-dasharray:none">
	<g
   id="g14"
   style="fill:none;stroke:#ff0000;stroke-opacity:1;stroke-width:0.076;stroke-miterlimit:4;stroke-dasharray:none">
		<path
   d="M220.66,245.14c0.02,0.02,0.03,0.05,0.03,0.09c0.04,0.01,0.07,0.02,0.11,0.03l-0.06-0.05    C220.72,245.18,220.66,245.13,220.66,245.14z"
   id="path4"
   style="fill:none;stroke:#ff0000;stroke-opacity:1;stroke-width:0.076;stroke-miterlimit:4;stroke-dasharray:none" />
		<path
   class="st0"
   d="M382.38,278.22c-0.82-3.28-2.06-6.5-3.66-9.52c-3.21-6.05-7.94-11.31-13.85-14.78    c-5.86-3.51-13-5.05-19.98-4.83c-3.46,0.15-6.86,0.99-9.95,2.56c-3.09,1.58-5.85,3.88-8.15,6.64c-2.31,2.76-4.14,5.98-5.61,9.36    c-1.48,3.39-2.59,6.97-3.28,10.66c0.41-7.49,2.45-15.07,6.75-21.62c2.15-3.26,4.98-6.19,8.42-8.32c3.42-2.14,7.36-3.5,11.36-4.03    c2.3-0.31,4.57-0.38,6.84-0.29c1.49-1.82,2.65-3.83,3.45-5.94c1.16-3.05,1.68-6.27,1.79-9.48c0.18-6.44-1.22-12.88-3.56-18.79    c-1.2-2.94-2.63-5.77-4.36-8.33c-0.85-1.28-1.77-2.5-2.77-3.61c-0.5-0.55-1.01-1.09-1.53-1.59l-1.74-1.63    c-4.76-4.27-10.1-7.79-15.91-10.15c-2.89-1.21-5.9-2.09-8.97-2.68c-3.06-0.61-6.2-0.92-9.34-0.91c-3.14-0.02-6.3,0.3-9.41,0.89    c-3.12,0.56-6.2,1.45-9.19,2.59c-3.01,1.12-5.88,2.54-8.68,4.19c-2.87,1.62-5.62,3.42-8.28,5.37c-2.61,2-5.1,4.18-7.31,6.67    c-1.09,1.24-2.17,2.54-3.06,3.96c-0.62,0.96-1.21,1.96-1.71,3.02c-0.17-0.13-0.32-0.28-0.49-0.41c0.36-2.86,1.46-5.66,2.78-8.27    c1.34-2.52,2.98-4.88,4.81-7.08c-1.61-6.76-4.98-12.82-9.74-17.39c-2.8-2.83-6.07-5.14-9.57-7c-3.48-1.88-7.2-3.33-11.03-4.4    c-7.65-2.15-15.77-2.87-23.77-2.6c-7.86,0.25-15.51,2.09-21.93,5.96c-6.42,3.86-11.53,9.73-14.9,16.7    c-3.37,6.97-5.23,14.85-5.71,22.89c-0.27,4.03-0.2,8.09,0.17,12.11c0.42,4.01,1.21,8,2.49,11.84c1.21,3.88,3.02,7.56,5.25,11.03    c1.12,1.73,2.38,3.38,3.78,4.93c0.02,0.02,0.03,0.03,0.05,0.05c0.36,0.03,0.71,0.07,1.04,0.13c1.02,0.16,1.99,0.41,2.94,0.68    c3.78,1.15,7.16,2.94,10.27,5.06c3.1,2.14,5.94,4.63,8.32,7.51c2.39,2.86,4.41,6.05,5.72,9.52c1.32,3.45,1.9,7.17,1.64,10.76    c-0.32-3.59-1.32-7.06-3.02-10.13c-1.64-3.1-3.85-5.85-6.37-8.23c-2.53-2.38-5.36-4.41-8.35-6.09c-3-1.66-6.21-2.94-9.41-3.58    c-0.8-0.15-1.59-0.26-2.36-0.31c-0.8-0.06-1.42-0.04-2.35,0c-1.73,0.08-3.44,0.24-5.12,0.48c-3.36,0.48-6.62,1.31-9.59,2.6    c-2.99,1.27-5.64,3.04-7.87,5.18c-2.2,2.18-3.94,4.76-5.15,7.65c-1.25,2.87-2.04,6-2.44,9.25l-0.24,2.45l-0.12,2.49    c-0.01,1.68-0.05,3.38,0.09,4.87c0.49,6.18,3.31,11.58,7.93,15.62c4.61,4.06,10.71,6.84,17.11,8.73c3.21,0.94,6.53,1.66,9.88,2.22    c3.33,0.55,6.8,0.93,10.06,1.06l21.43,0.04l21.57,0.17c14.38,0.19,28.76,0.42,43.14,0.83c14.48,0.4,28.96,0.89,43.44,1.56    c-3.98-2.05-7.77-4.38-11.4-6.91c-3.21-2.25-6.31-4.65-9.29-7.19c-1.49-1.28-2.95-2.59-4.37-3.95c-0.71-0.68-1.41-1.38-2.1-2.07    l-1.97-2c-44.64-44.64-59.31-13.91-57.3-18.03c0.98-2.05,2.4-4,4.13-5.65c1.51-1.46,3.3-2.6,5.16-3.47    c0.26-0.12,0.52-0.26,0.78-0.37c1.21-0.52,2.45-0.9,3.69-1.2c-2.01-0.44-4.02-0.97-6.01-1.65c-4.6-1.64-9.1-3.84-13.4-6.47    c-1.91-1.18-3.8-2.43-5.65-3.74c-0.22-0.16-0.45-0.31-0.68-0.47c-0.88-0.64-1.76-1.3-2.62-1.96c0.46,0.19,0.93,0.35,1.4,0.52    c2.58,0.97,5.24,1.79,8,2.34c0.99,0.19,1.99,0.36,3.01,0.48c4.57,0.54,9.47,0.12,13.96-1.56c4.5-1.65,8.48-4.31,11.96-7.3    c0.85-0.77,1.78-1.48,2.56-2.3l2.4-2.42c1.5-1.68,3.01-3.37,4.35-5.15l2-2.69c0.66-0.9,1.25-1.84,1.88-2.75    c0.62-0.91,1.24-1.85,1.84-2.77c0.59-0.86,1.14-1.77,1.76-2.61c2.44-3.4,5.32-6.54,8.9-8.66c1.78-1.04,3.74-1.78,5.76-2.13    c2.03-0.33,4.12-0.24,6.12,0.25c2.01,0.46,3.94,1.31,5.68,2.44c0.37,0.23,0.73,0.51,1.09,0.77c0.82,0.59,1.61,1.23,2.31,1.92    c-1.84,1.14-3.58,2.55-4.98,4.32c-0.9,1.13-1.64,2.37-2.29,3.64c-0.61,1.27-1.13,2.57-1.57,3.85c-1.72,5.14-2.78,9.89-5.03,14    c-2.17,4.14-5.34,7.64-9.08,10.63c-1.84,1.52-3.87,2.87-5.94,4.16c-1.04,0.62-2.09,1.32-3.12,1.83l-1.54,0.83l-1.59,0.71    c-1.81,0.8-3.68,1.39-5.59,1.85c1.87,0.33,3.72,0.75,5.54,1.3c0.6,0.19,1.19,0.41,1.78,0.62c3.34,1.19,6.53,2.74,9.49,4.56    c7.01,4.29,12.69,9.83,18.06,15.09l2.01,1.97c0.64,0.62,1.27,1.24,1.93,1.84c1.3,1.22,2.63,2.41,3.99,3.56    c2.73,2.31,5.58,4.49,8.51,6.52c5.88,4.04,12.11,7.57,18.59,9.97c3.24,1.2,6.53,2.09,9.8,2.6c1.64,0.24,3.26,0.38,4.87,0.4    c1.56,0,3.12-0.13,4.68-0.4c6.21-1.11,12.24-4.38,16.92-9.03c2.35-2.31,4.38-4.95,5.92-7.8c1.55-2.84,2.6-5.9,2.9-8.92    C383.55,284.91,383.17,281.47,382.38,278.22z M220.7,245.23c0-0.04-0.01-0.07-0.03-0.09c0-0.01,0.05,0.04,0.07,0.06l0.06,0.05    C220.76,245.24,220.73,245.23,220.7,245.23z M261.28,241.08c-5.42,5.42-10.14,7.77-14.75,7.77c-1.48-0.7-2.91-1.49-4.27-2.35    c-1.35-0.85-2.64-1.77-3.87-2.73c-0.39-0.32-0.76-0.65-1.13-0.98c-2.66-2.3-5.02-4.89-7-7.73c-2.24-3.26-4.07-6.8-5.44-10.54    c-0.73-1.97-1.35-4-1.88-6.05c0.45,0.34,0.92,0.66,1.38,0.98c0.87,0.61,1.75,1.2,2.67,1.74c1.56,0.96,3.21,1.78,4.92,2.45    c1.71,0.65,3.52,1.15,5.34,1.18c-2.61-1.48-4.98-3.29-6.89-5.45c-0.35-0.39-0.71-0.77-1.02-1.19c-2.07-2.68-3.39-5.82-4.1-9.07    c-0.6-2.77-0.78-5.64-0.65-8.5c0.02-0.5,0.03-1,0.08-1.5c0.09-1.35,0.27-2.7,0.49-4.04c0.51,0.75,1.04,1.47,1.61,2.16    c0.97,1.15,2.02,2.22,3.13,3.21c1.13,0.97,2.33,1.85,3.56,2.66c2.47,1.62,5.12,2.9,7.83,3.94c1.37,0.49,2.75,0.92,4.14,1.29    c1.44,0.38,2.68,0.65,3.93,1.04c2.49,0.79,4.94,1.75,7.22,3.07c2.27,1.32,4.44,2.86,6.41,4.67c2.62,2.42,4.93,5.25,6.86,8.36    c0.44,0.7,0.88,1.41,1.27,2.14C270.61,229.53,268.76,233.6,261.28,241.08z"
   id="path6"
   style="fill:none;stroke:#ff0000;stroke-opacity:1;stroke-width:0.076;stroke-miterlimit:4;stroke-dasharray:none" />
		<path
   class="st1"
   d="M226.61,253.34c0.22,0.16,0.45,0.31,0.68,0.47c-0.65-0.63-1.28-1.26-1.9-1.91c-0.47-0.18-0.94-0.34-1.4-0.52    C224.86,252.05,225.74,252.7,226.61,253.34z"
   id="path8"
   style="fill:none;stroke:#ff0000;stroke-opacity:1;stroke-width:0.076;stroke-miterlimit:4;stroke-dasharray:none" />
		<path
   class="st1"
   d="M390.42,276.03c-1.18-3.94-2.82-7.7-4.93-11.19c-2.1-3.49-4.65-6.71-7.59-9.55c-2.97-2.8-6.33-5.21-9.99-7.01    c-3.64-1.84-7.56-3.05-11.53-3.7c-1.22-0.2-2.43-0.33-3.64-0.42c0.28-0.21,0.55-0.43,0.82-0.66c1.34-1.19,2.54-2.58,3.58-4.09    c2.06-3.04,3.37-6.57,4.13-10.16c1.48-7.23,0.9-14.75-1.16-21.84c-1.02-3.56-2.48-7.02-4.35-10.32c-0.96-1.64-2.03-3.24-3.23-4.77    c-0.61-0.76-1.24-1.52-1.93-2.23l-1.97-1.95c-5.3-5.09-11.58-9.33-18.52-12.16c-3.47-1.41-7.1-2.45-10.79-3.11    c-3.7-0.63-7.45-0.89-11.18-0.78c-7.46,0.3-14.8,2.1-21.46,5.24c-3.31,1.58-6.54,3.41-9.42,5.62c-2.87,2.17-5.55,4.6-8.02,7.23    c-0.16,0.18-0.31,0.37-0.47,0.55c-0.01-0.33-0.02-0.66-0.04-1c-0.19-2.16-0.58-4.32-1.15-6.45c-1.21-4.24-3.28-8.3-6-11.88    c-2.75-3.57-6.12-6.65-9.81-9.25c-3.73-2.54-7.77-4.62-11.99-6.15c-8.45-3.15-17.38-4.4-26.27-4.42    c-4.52,0.04-9.11,0.49-13.61,1.63c-4.5,1.12-8.9,2.9-12.94,5.34c-8.1,4.9-14.38,12.54-17.99,20.97    c-3.71,8.43-5.11,17.52-4.97,26.38c0.12,4.43,0.53,8.85,1.48,13.19c0.98,4.32,2.28,8.6,4.24,12.57c1.94,3.97,4.38,7.71,7.37,10.9    c1.1,1.18,2.27,2.3,3.5,3.34c-1.77-0.04-3.57-0.01-5.37,0.1c-3.79,0.25-7.64,0.9-11.38,2.19c-3.74,1.26-7.37,3.24-10.48,5.93    c-3.09,2.7-5.65,6.05-7.44,9.69c-1.8,3.64-2.97,7.51-3.64,11.37l-0.43,2.9l-0.28,2.89c-0.09,1.92-0.22,3.82-0.11,5.91    c0.19,4.1,1.12,8.3,2.93,12.15c1.8,3.85,4.43,7.27,7.44,10.08c6.08,5.66,13.43,8.99,20.72,11.29c3.67,1.14,7.39,2.02,11.13,2.65    c3.76,0.63,7.46,1.08,11.38,1.26l5.54,0.03l5.4-0.01l10.79-0.03l21.58-0.17c14.39-0.19,28.78-0.42,43.17-0.83    c18.12-0.5,61.29-0.01,64.97,0.49c2.08,0.27,4.19,0.43,6.33,0.42c2.19-0.03,4.37-0.25,6.5-0.66c8.56-1.65,16.12-6.2,21.92-12.23    c2.92-3.01,5.4-6.47,7.29-10.28c1.9-3.8,3.22-8.01,3.5-12.47C392.3,284.08,391.55,280,390.42,276.03z M383.26,287.89    c-0.29,3.02-1.34,6.09-2.9,8.92c-1.55,2.84-3.58,5.48-5.92,7.8c-4.68,4.65-10.71,7.92-16.92,9.03c-1.55,0.27-3.12,0.4-4.68,0.4    c-1.61-0.02-3.24-0.16-4.87-0.4c-3.27-0.51-6.57-1.4-9.8-2.6c-6.49-2.4-12.71-5.94-18.59-9.97c-2.94-2.03-5.78-4.22-8.51-6.52    c-1.36-1.16-2.69-2.35-3.99-3.56c-0.65-0.61-1.29-1.22-1.93-1.84l-2.01-1.97c-5.38-5.26-11.05-10.8-18.06-15.09    c-2.96-1.82-6.15-3.37-9.49-4.56c-0.59-0.21-1.18-0.44-1.78-0.62c-1.82-0.55-3.67-0.98-5.54-1.3c1.91-0.46,3.79-1.05,5.59-1.85    l1.59-0.71l1.54-0.83c1.03-0.5,2.08-1.2,3.12-1.83c2.07-1.29,4.09-2.64,5.94-4.16c3.74-2.99,6.92-6.49,9.08-10.63    c2.25-4.11,3.32-8.87,5.03-14c0.44-1.28,0.96-2.58,1.57-3.85c0.65-1.27,1.39-2.51,2.29-3.64c1.4-1.77,3.14-3.18,4.98-4.32    c-0.71-0.69-1.5-1.33-2.31-1.92c-0.36-0.26-0.72-0.54-1.09-0.77c-1.74-1.13-3.67-1.98-5.68-2.44c-2-0.49-4.09-0.58-6.12-0.25    c-2.03,0.35-3.98,1.09-5.76,2.13c-3.57,2.12-6.46,5.25-8.9,8.66c-0.62,0.84-1.18,1.75-1.76,2.61c-0.59,0.92-1.22,1.85-1.84,2.77    c-0.63,0.92-1.22,1.85-1.88,2.75l-2,2.69c-1.34,1.78-2.85,3.47-4.35,5.15l-2.4,2.42c-0.78,0.82-1.71,1.53-2.56,2.3    c-3.49,2.98-7.46,5.65-11.96,7.3c-4.49,1.68-9.4,2.09-13.96,1.56c-1.02-0.12-2.02-0.29-3.01-0.48c-2.77-0.54-5.42-1.36-8-2.34    c0.62,0.65,1.26,1.28,1.9,1.91c1.85,1.31,3.74,2.57,5.65,3.74c4.3,2.63,8.8,4.83,13.4,6.47c1.99,0.68,4,1.21,6.01,1.65    c-1.24,0.3-2.47,0.68-3.69,1.2c-0.26,0.11-0.52,0.25-0.78,0.37c-1.86,0.87-3.65,2.01-5.16,3.47c-1.73,1.65-3.15,3.6-4.13,5.65    c-2.01,4.12,12.66-26.61,57.3,18.03l1.97,2c0.69,0.69,1.39,1.4,2.1,2.07c1.43,1.36,2.89,2.67,4.37,3.95    c2.98,2.54,6.07,4.94,9.29,7.19c3.62,2.54,7.42,4.86,11.4,6.91c-14.48-0.67-28.96-1.16-43.44-1.56    c-14.38-0.41-28.76-0.64-43.14-0.83l-21.57-0.17l-21.43-0.04c-3.26-0.13-6.72-0.51-10.06-1.06c-3.35-0.56-6.67-1.28-9.88-2.22    c-6.4-1.89-12.49-4.67-17.11-8.73c-4.62-4.04-7.44-9.44-7.93-15.62c-0.15-1.49-0.11-3.19-0.09-4.87l0.12-2.49l0.24-2.45    c0.4-3.25,1.2-6.38,2.44-9.25c1.21-2.89,2.96-5.47,5.15-7.65c2.22-2.14,4.88-3.91,7.87-5.18c2.98-1.29,6.23-2.12,9.59-2.6    c1.68-0.24,3.39-0.4,5.12-0.48c0.93-0.05,1.55-0.06,2.35,0c0.77,0.05,1.56,0.16,2.36,0.31c3.2,0.64,6.41,1.93,9.41,3.58    c2.99,1.68,5.83,3.71,8.35,6.09c2.52,2.38,4.73,5.13,6.37,8.23c1.7,3.07,2.7,6.54,3.02,10.13c0.27-3.6-0.32-7.31-1.64-10.76    c-1.31-3.47-3.33-6.66-5.72-9.52c-2.39-2.88-5.23-5.37-8.32-7.51c-3.11-2.13-6.49-3.91-10.27-5.06c-0.95-0.28-1.92-0.52-2.94-0.68    c-0.33-0.06-0.69-0.1-1.04-0.13c-0.02-0.02-0.03-0.03-0.05-0.05c-1.4-1.55-2.66-3.2-3.78-4.93c-2.22-3.47-4.04-7.15-5.25-11.03    c-1.28-3.85-2.07-7.83-2.49-11.84c-0.36-4.02-0.44-8.08-0.17-12.11c0.49-8.04,2.34-15.92,5.71-22.89    c3.37-6.97,8.48-12.84,14.9-16.7c6.43-3.88,14.07-5.71,21.93-5.96c8-0.27,16.12,0.45,23.77,2.6c3.83,1.07,7.54,2.52,11.03,4.4    c3.49,1.86,6.77,4.17,9.57,7c4.76,4.57,8.13,10.64,9.74,17.39c-1.83,2.2-3.47,4.56-4.81,7.08c-1.32,2.61-2.42,5.41-2.78,8.27    c0.17,0.13,0.32,0.27,0.49,0.41c0.49-1.06,1.08-2.06,1.71-3.02c0.89-1.42,1.97-2.72,3.06-3.96c2.21-2.48,4.7-4.67,7.31-6.67    c2.66-1.96,5.41-3.75,8.28-5.37c2.8-1.65,5.68-3.07,8.68-4.19c2.99-1.14,6.06-2.03,9.19-2.59c3.11-0.59,6.27-0.91,9.41-0.89    c3.14-0.01,6.27,0.3,9.34,0.91c3.07,0.59,6.08,1.47,8.97,2.68c5.8,2.36,11.14,5.87,15.91,10.15l1.74,1.63    c0.53,0.5,1.04,1.04,1.53,1.59c0.99,1.11,1.92,2.33,2.77,3.61c1.73,2.55,3.16,5.38,4.36,8.33c2.34,5.91,3.75,12.35,3.56,18.79    c-0.1,3.21-0.63,6.43-1.79,9.48c-0.79,2.12-1.95,4.13-3.45,5.94c-2.27-0.1-4.54-0.02-6.84,0.29c-4,0.53-7.94,1.88-11.36,4.03    c-3.44,2.13-6.27,5.06-8.42,8.32c-4.3,6.55-6.34,14.13-6.75,21.62c0.69-3.69,1.81-7.27,3.28-10.66c1.47-3.39,3.31-6.6,5.61-9.36    c2.3-2.76,5.06-5.06,8.15-6.64c3.09-1.57,6.49-2.41,9.95-2.56c6.98-0.23,14.12,1.32,19.98,4.83c5.91,3.47,10.64,8.73,13.85,14.78    c1.6,3.03,2.84,6.24,3.66,9.52C383.17,281.47,383.55,284.91,383.26,287.89z"
   id="path10"
   style="fill:none;stroke:#ff0000;stroke-opacity:1;stroke-width:0.076;stroke-miterlimit:4;stroke-dasharray:none" />
		<path
   class="st1"
   d="M269.84,225.46c-1.93-3.11-4.24-5.94-6.86-8.36c-1.97-1.8-4.13-3.35-6.41-4.67    c-2.28-1.32-4.73-2.28-7.22-3.07c-1.25-0.39-2.49-0.67-3.93-1.04c-1.39-0.37-2.77-0.8-4.14-1.29c-2.71-1.04-5.36-2.32-7.83-3.94    c-1.24-0.81-2.43-1.69-3.56-2.66c-1.12-0.99-2.17-2.06-3.13-3.21c-0.58-0.69-1.11-1.41-1.61-2.16c-0.22,1.34-0.4,2.69-0.49,4.04    c-0.04,0.5-0.05,1-0.08,1.5c-0.13,2.86,0.05,5.72,0.65,8.5c0.71,3.25,2.03,6.39,4.1,9.07c0.31,0.42,0.67,0.8,1.02,1.19    c1.91,2.16,4.28,3.96,6.89,5.45c-1.81-0.03-3.62-0.52-5.34-1.18c-1.71-0.68-3.36-1.5-4.92-2.45c-0.91-0.55-1.8-1.13-2.67-1.74    c-0.46-0.32-0.93-0.64-1.38-0.98c0.54,2.05,1.16,4.08,1.88,6.05c1.36,3.75,3.2,7.28,5.44,10.54c1.98,2.84,4.34,5.42,7,7.73    c0.38,0.33,0.74,0.67,1.13,0.98c1.24,0.97,2.53,1.88,3.87,2.73c1.36,0.86,2.78,1.65,4.27,2.35c4.61,0,9.33-2.35,14.75-7.77    c7.48-7.48,9.33-11.54,9.84-13.47C270.72,226.87,270.28,226.17,269.84,225.46z"
   id="path12"
   style="fill:none;stroke:#ff0000;stroke-opacity:1;stroke-width:0.076;stroke-miterlimit:4;stroke-dasharray:none" />
	</g>
	<g
   id="g20"
   style="fill:none;stroke:#ff0000;stroke-opacity:1;stroke-width:0.076;stroke-miterlimit:4;stroke-dasharray:none">
		<path
   class="st1"
   d="M428.87,185.17c1.83,7.81,2.48,15.74,2.51,23.77c0.03,5.78-5.34,10.43-10.92,10.45    c-3.91,0.01-7.03-1.13-9.35-4.1c-1.36-1.75-1.95-3.75-1.88-5.95c0.14-4.4-0.12-8.77-0.71-13.13c-0.57-4.22-1.49-8.36-2.71-12.41    c-1.98-6.58-4.74-12.86-8.42-18.72c-12.67-20.15-31.16-32.72-55.06-38.16c-5.46-1.24-11.02-1.96-16.65-1.94    c-5.71,0.02-10.37-5.18-9.96-10.54c0.25-3.3,1.42-6.08,4.13-8.2c2.01-1.57,4.29-2.34,6.9-2.27c17.46,0.46,33.81,4.67,49.01,12.59    c20.4,10.64,35.39,26.21,45.3,46.32c2.34,4.74,4.26,9.65,5.8,14.71C427.62,180.1,428.26,182.63,428.87,185.17z"
   id="path16"
   style="fill:none;stroke:#ff0000;stroke-opacity:1;stroke-width:0.076;stroke-miterlimit:4;stroke-dasharray:none" />
		<path
   class="st1"
   d="M392.04,191.52c1.23,5.36,1.72,10.8,1.5,16.3c-0.23,5.64-4.85,9.95-10.75,10.12    c-4.47,0.13-7.86-1.51-10.12-5.18c-0.96-1.56-1.27-3.27-1.22-5.1c0.29-11.13-2.92-21.14-10.22-29.7    c-8.36-9.8-19.37-14.86-32.6-15.74c-0.67-0.04-1.34-0.04-2.01-0.08c-7.97-0.4-12.56-7.35-9.6-14.54c1.21-2.92,3.23-5.08,6.39-6.15    c1.04-0.35,2.12-0.43,3.21-0.46c11.51-0.27,22.19,2.49,32.16,7.69c13.23,6.91,22.86,17.04,28.98,30.24    C389.63,182.99,391.07,187.18,392.04,191.52z"
   id="path18"
   style="fill:none;stroke:#ff0000;stroke-opacity:1;stroke-width:0.076;stroke-miterlimit:4;stroke-dasharray:none" />
	</g>
</g>
<g
   id="g54"
   style="fill:none;stroke:#ff0000;stroke-opacity:1;stroke-width:0.07559055;stroke-miterlimit:4;stroke-dasharray:none">
	<path
   class="st1"
   d="M199.58,344c2.71,0,5.01,0.46,6.88,1.36c1.88,0.91,3.31,2.19,4.29,3.84s1.48,3.61,1.48,5.88   c0,1.34-0.2,2.69-0.6,4.05c-0.4,1.36-1.04,2.59-1.92,3.69c-0.88,1.1-2.05,1.99-3.53,2.66c-1.48,0.67-3.29,1.01-5.43,1.01h-4.65   v10.41h-6.48V344H199.58z M200.69,360.18c0.98,0,1.8-0.17,2.46-0.52c0.65-0.34,1.17-0.77,1.54-1.3c0.37-0.52,0.64-1.07,0.8-1.63   c0.16-0.57,0.25-1.06,0.25-1.47c0-0.33-0.05-0.77-0.16-1.32c-0.1-0.55-0.32-1.11-0.65-1.68c-0.33-0.57-0.83-1.04-1.5-1.43   c-0.67-0.39-1.57-0.58-2.7-0.58h-4.65v9.92H200.69z"
   id="path24"
   style="fill:none;stroke:#ff0000;stroke-opacity:1;stroke-width:0.07559055;stroke-miterlimit:4;stroke-dasharray:none" />
	<path
   class="st1"
   d="M225.23,377.43c-1.82,0-3.46-0.36-4.94-1.09c-1.48-0.73-2.65-1.85-3.51-3.37c-0.86-1.52-1.3-3.46-1.3-5.81   c0-2.21,0.45-4.11,1.34-5.72c0.89-1.61,2.07-2.85,3.53-3.73s3.01-1.32,4.65-1.32c1.94,0,3.4,0.32,4.4,0.96   c1,0.64,1.82,1.35,2.48,2.12l-0.27,0.76l0.58-2.86h5.81v19.53h-6.26v-4.25l0.49,1.34c-0.06,0-0.24,0.17-0.54,0.51   c-0.3,0.34-0.74,0.75-1.32,1.21c-0.58,0.46-1.3,0.86-2.14,1.21C227.4,377.26,226.39,377.43,225.23,377.43z M227.02,372.33   c0.74,0,1.41-0.11,2.01-0.34c0.6-0.22,1.12-0.55,1.56-0.98c0.45-0.43,0.83-0.98,1.16-1.63v-4.78c-0.24-0.65-0.6-1.21-1.07-1.68   c-0.48-0.46-1.04-0.82-1.7-1.07c-0.66-0.25-1.39-0.38-2.19-0.38c-0.89,0-1.72,0.23-2.48,0.69c-0.76,0.46-1.36,1.09-1.81,1.9   s-0.67,1.73-0.67,2.77c0,1.04,0.24,1.98,0.72,2.82c0.47,0.83,1.11,1.49,1.9,1.97C225.24,372.1,226.09,372.33,227.02,372.33z    M234.97,348.11l-6.61,6.03h-3.8l3.48-6.03H234.97z"
   id="path26"
   style="fill:none;stroke:#ff0000;stroke-opacity:1;stroke-width:0.07559055;stroke-miterlimit:4;stroke-dasharray:none" />
	<path
   class="st1"
   d="M245.75,386.32l-3.62-3.89c0.89-0.65,1.59-1.46,2.08-2.41c0.49-0.95,0.74-2.12,0.74-3.49v-19.17h6.26v19.53   c0,2.32-0.42,4.25-1.25,5.79C249.11,384.22,247.71,385.43,245.75,386.32z M244.72,350.43c0-0.92,0.36-1.68,1.09-2.28   c0.73-0.6,1.51-0.89,2.35-0.89c0.83,0,1.6,0.3,2.3,0.89c0.7,0.6,1.05,1.36,1.05,2.28c0,0.92-0.35,1.68-1.05,2.26   c-0.7,0.58-1.47,0.87-2.3,0.87c-0.83,0-1.62-0.29-2.35-0.87C245.08,352.11,244.72,351.36,244.72,350.43z"
   id="path28"
   style="fill:none;stroke:#ff0000;stroke-opacity:1;stroke-width:0.07559055;stroke-miterlimit:4;stroke-dasharray:none" />
	<path
   class="st1"
   d="M265.86,377.43c-1.82,0-3.46-0.36-4.94-1.09c-1.48-0.73-2.65-1.85-3.51-3.37c-0.86-1.52-1.3-3.46-1.3-5.81   c0-2.21,0.45-4.11,1.34-5.72c0.89-1.61,2.07-2.85,3.53-3.73c1.46-0.88,3.01-1.32,4.65-1.32c1.94,0,3.4,0.32,4.4,0.96   c1,0.64,1.82,1.35,2.48,2.12l-0.27,0.76l0.58-2.86h5.81v19.53h-6.26v-4.25l0.49,1.34c-0.06,0-0.24,0.17-0.54,0.51   c-0.3,0.34-0.74,0.75-1.32,1.21c-0.58,0.46-1.3,0.86-2.14,1.21C268.03,377.26,267.02,377.43,265.86,377.43z M267.65,372.33   c0.74,0,1.41-0.11,2.01-0.34c0.6-0.22,1.12-0.55,1.56-0.98c0.45-0.43,0.83-0.98,1.16-1.63v-4.78c-0.24-0.65-0.6-1.21-1.07-1.68   c-0.48-0.46-1.04-0.82-1.7-1.07c-0.66-0.25-1.39-0.38-2.19-0.38c-0.89,0-1.72,0.23-2.48,0.69s-1.36,1.09-1.81,1.9   s-0.67,1.73-0.67,2.77c0,1.04,0.24,1.98,0.72,2.82c0.47,0.83,1.11,1.49,1.9,1.97C265.87,372.1,266.72,372.33,267.65,372.33z"
   id="path30"
   style="fill:none;stroke:#ff0000;stroke-opacity:1;stroke-width:0.07559055;stroke-miterlimit:4;stroke-dasharray:none" />
	<path
   class="st1"
   d="M290.71,357.36l0.58,5.36l-0.13-0.8c0.57-1.16,1.34-2.15,2.32-2.97c0.98-0.82,1.96-1.45,2.93-1.9   c0.97-0.45,1.71-0.67,2.21-0.67l-0.31,6.26c-1.46-0.18-2.71,0.06-3.76,0.71c-1.04,0.66-1.85,1.52-2.41,2.59   c-0.57,1.07-0.85,2.18-0.85,3.31v7.64h-6.21v-19.53H290.71z"
   id="path32"
   style="fill:none;stroke:#ff0000;stroke-opacity:1;stroke-width:0.07559055;stroke-miterlimit:4;stroke-dasharray:none" />
	<path
   class="st1"
   d="M300.99,366.88c0-2,0.47-3.79,1.41-5.36c0.94-1.58,2.26-2.82,3.96-3.73c1.7-0.91,3.65-1.36,5.85-1.36   c2.23,0,4.17,0.46,5.81,1.36c1.64,0.91,2.9,2.15,3.78,3.73c0.88,1.58,1.32,3.37,1.32,5.36c0,2-0.44,3.79-1.32,5.38   c-0.88,1.6-2.14,2.85-3.78,3.78c-1.64,0.92-3.61,1.38-5.9,1.38c-2.15,0-4.06-0.42-5.74-1.25c-1.68-0.83-3-2.04-3.96-3.62   C301.47,370.98,300.99,369.09,300.99,366.88z M307.29,366.93c0,1.01,0.21,1.93,0.63,2.75c0.42,0.82,0.98,1.47,1.7,1.94   c0.71,0.48,1.52,0.72,2.41,0.72c0.98,0,1.83-0.24,2.55-0.72c0.72-0.48,1.27-1.12,1.65-1.94c0.39-0.82,0.58-1.74,0.58-2.75   c0-1.04-0.19-1.97-0.58-2.77c-0.39-0.8-0.94-1.45-1.65-1.92c-0.71-0.48-1.56-0.71-2.55-0.71c-0.89,0-1.7,0.24-2.41,0.71   c-0.72,0.48-1.28,1.12-1.7,1.92C307.5,364.96,307.29,365.88,307.29,366.93z"
   id="path34"
   style="fill:none;stroke:#ff0000;stroke-opacity:1;stroke-width:0.07559055;stroke-miterlimit:4;stroke-dasharray:none" />
	<path
   class="st1"
   d="M334.38,377.29c-1.61,0-3.11-0.28-4.49-0.85c-1.39-0.57-2.56-1.35-3.51-2.37l2.59-3.44   c0.95,0.86,1.84,1.48,2.66,1.85c0.82,0.37,1.56,0.56,2.21,0.56c0.51,0,0.96-0.05,1.36-0.16c0.4-0.1,0.72-0.27,0.96-0.49   c0.24-0.22,0.36-0.51,0.36-0.87c0-0.51-0.2-0.91-0.6-1.21c-0.4-0.3-0.92-0.54-1.54-0.74c-0.63-0.19-1.3-0.39-2.01-0.6   c-1.79-0.57-3.08-1.39-3.87-2.48c-0.79-1.09-1.18-2.27-1.18-3.55c0-0.98,0.26-1.97,0.78-2.97c0.52-1,1.35-1.83,2.5-2.5   c1.15-0.67,2.63-1.01,4.45-1.01c1.64,0,3.02,0.16,4.16,0.49c1.13,0.33,2.21,0.87,3.22,1.61l-2.37,3.66   c-0.57-0.45-1.2-0.83-1.9-1.14c-0.7-0.31-1.35-0.48-1.94-0.51c-0.54-0.03-0.99,0.03-1.36,0.18c-0.37,0.15-0.66,0.34-0.87,0.58   c-0.21,0.24-0.31,0.49-0.31,0.76c-0.03,0.57,0.19,1.01,0.65,1.34c0.46,0.33,1.05,0.58,1.77,0.76c0.72,0.18,1.42,0.39,2.1,0.63   c0.95,0.3,1.77,0.7,2.46,1.21c0.69,0.51,1.22,1.11,1.59,1.81c0.37,0.7,0.56,1.54,0.56,2.52c0,1.19-0.31,2.32-0.92,3.37   c-0.61,1.06-1.53,1.92-2.77,2.57C337.86,376.97,336.28,377.29,334.38,377.29z"
   id="path36"
   style="fill:none;stroke:#ff0000;stroke-opacity:1;stroke-width:0.07559055;stroke-miterlimit:4;stroke-dasharray:none" />
	<path
   class="st1"
   d="M165.05,431.06c-2.38,0-4.4-0.45-6.06-1.34c-1.65-0.89-2.91-2.13-3.78-3.71c-0.86-1.58-1.3-3.4-1.3-5.45   c0-1.97,0.51-3.74,1.52-5.32c1.01-1.58,2.37-2.84,4.07-3.78c1.7-0.94,3.59-1.41,5.68-1.41c2.8,0,5.1,0.81,6.91,2.44   c1.8,1.63,2.97,3.97,3.51,7.04l-15.2,4.83l-1.39-3.4l11-3.71l-1.3,0.58c-0.24-0.78-0.66-1.45-1.27-2.03   c-0.61-0.58-1.53-0.87-2.75-0.87c-0.92,0-1.74,0.22-2.44,0.65s-1.24,1.04-1.61,1.83c-0.37,0.79-0.56,1.72-0.56,2.79   c0,1.22,0.22,2.24,0.67,3.06c0.45,0.82,1.06,1.44,1.83,1.85c0.78,0.42,1.64,0.63,2.59,0.63c0.68,0,1.35-0.12,1.99-0.36   c0.64-0.24,1.27-0.55,1.9-0.94l2.77,4.65c-1.04,0.6-2.17,1.07-3.37,1.43C167.26,430.89,166.12,431.06,165.05,431.06z"
   id="path38"
   style="fill:none;stroke:#ff0000;stroke-opacity:1;stroke-width:0.07559055;stroke-miterlimit:4;stroke-dasharray:none" />
	<path
   class="st1"
   d="M185.83,411l0.49,3.49l-0.09-0.31c0.68-1.22,1.65-2.21,2.91-2.97c1.25-0.76,2.78-1.14,4.6-1.14   c1.85,0,3.39,0.54,4.63,1.63c1.24,1.09,1.87,2.49,1.9,4.22v14.62h-6.26v-12.29c-0.03-0.86-0.26-1.56-0.69-2.08   c-0.43-0.52-1.15-0.78-2.17-0.78c-0.96,0-1.79,0.31-2.5,0.94c-0.71,0.63-1.27,1.48-1.65,2.55c-0.39,1.07-0.58,2.31-0.58,3.71v7.96   h-6.26V411H185.83z"
   id="path40"
   style="fill:none;stroke:#ff0000;stroke-opacity:1;stroke-width:0.07559055;stroke-miterlimit:4;stroke-dasharray:none" />
	<path
   class="st1"
   d="M221.23,395.26h6.26v35.26h-6.26V395.26z"
   id="path42"
   style="fill:none;stroke:#ff0000;stroke-opacity:1;stroke-width:0.07559055;stroke-miterlimit:4;stroke-dasharray:none" />
	<path
   class="st1"
   d="M242.15,431.06c-1.82,0-3.46-0.36-4.94-1.09c-1.48-0.73-2.65-1.85-3.51-3.37c-0.86-1.52-1.3-3.46-1.3-5.81   c0-2.21,0.45-4.11,1.34-5.72c0.89-1.61,2.07-2.85,3.53-3.73s3.01-1.32,4.65-1.32c1.94,0,3.4,0.32,4.4,0.96   c1,0.64,1.82,1.35,2.48,2.12l-0.27,0.76l0.58-2.86h5.81v19.53h-6.26v-4.25l0.49,1.34c-0.06,0-0.24,0.17-0.54,0.51   c-0.3,0.34-0.74,0.75-1.32,1.21c-0.58,0.46-1.3,0.86-2.14,1.21C244.32,430.89,243.31,431.06,242.15,431.06z M243.94,425.97   c0.74,0,1.41-0.11,2.01-0.34c0.6-0.22,1.12-0.55,1.56-0.98c0.45-0.43,0.83-0.98,1.16-1.63v-4.78c-0.24-0.65-0.6-1.21-1.07-1.68   c-0.48-0.46-1.04-0.82-1.7-1.07c-0.66-0.25-1.39-0.38-2.19-0.38c-0.89,0-1.72,0.23-2.48,0.69c-0.76,0.46-1.36,1.09-1.81,1.9   c-0.45,0.8-0.67,1.73-0.67,2.77c0,1.04,0.24,1.98,0.72,2.82c0.47,0.83,1.11,1.49,1.9,1.97   C242.16,425.73,243.01,425.97,243.94,425.97z"
   id="path44"
   style="fill:none;stroke:#ff0000;stroke-opacity:1;stroke-width:0.07559055;stroke-miterlimit:4;stroke-dasharray:none" />
	<path
   class="st1"
   d="M281.57,411l0.49,3.49l-0.09-0.31c0.68-1.22,1.65-2.21,2.91-2.97c1.25-0.76,2.78-1.14,4.6-1.14   c1.85,0,3.39,0.54,4.63,1.63c1.24,1.09,1.87,2.49,1.9,4.22v14.62h-6.26v-12.29c-0.03-0.86-0.26-1.56-0.69-2.08   c-0.43-0.52-1.15-0.78-2.17-0.78c-0.96,0-1.79,0.31-2.5,0.94c-0.71,0.63-1.27,1.48-1.65,2.55c-0.39,1.07-0.58,2.31-0.58,3.71v7.96   h-6.26V411H281.57z"
   id="path46"
   style="fill:none;stroke:#ff0000;stroke-opacity:1;stroke-width:0.07559055;stroke-miterlimit:4;stroke-dasharray:none" />
	<path
   class="st1"
   d="M308.75,431.47c-1.76,0-3.23-0.54-4.43-1.63c-1.19-1.09-1.82-2.49-1.88-4.22V411h6.26v12.29   c0.06,0.86,0.28,1.56,0.67,2.08c0.39,0.52,1.04,0.78,1.97,0.78c0.92,0,1.72-0.31,2.39-0.94c0.67-0.63,1.19-1.48,1.56-2.57   c0.37-1.09,0.56-2.32,0.56-3.69V411h6.26v19.53h-5.68l-0.49-3.58l0.09,0.4c-0.45,0.8-1.01,1.52-1.7,2.15   c-0.69,0.63-1.5,1.11-2.44,1.45C310.96,431.29,309.91,431.47,308.75,431.47z"
   id="path48"
   style="fill:none;stroke:#ff0000;stroke-opacity:1;stroke-width:0.07559055;stroke-miterlimit:4;stroke-dasharray:none" />
	<path
   class="st1"
   d="M341.37,431.06c-1.64,0-3.02-0.28-4.13-0.83c-1.12-0.55-2.09-1.27-2.93-2.17l0.49-1.34v3.8h-6.26v-35.26h6.21   v19.08v-2.01c0.77-0.65,1.8-1.21,3.08-1.65s2.74-0.67,4.38-0.67c1.7,0,3.25,0.4,4.65,1.21c1.4,0.8,2.53,1.97,3.37,3.51   c0.85,1.54,1.27,3.4,1.27,5.61c0,2.21-0.47,4.11-1.41,5.72c-0.94,1.61-2.18,2.85-3.73,3.71   C344.83,430.63,343.16,431.06,341.37,431.06z M339.99,425.79c0.92,0,1.78-0.24,2.57-0.71c0.79-0.48,1.42-1.13,1.9-1.97   c0.48-0.83,0.71-1.77,0.71-2.81c0-1.04-0.24-1.97-0.71-2.77c-0.48-0.8-1.11-1.44-1.9-1.9c-0.79-0.46-1.65-0.69-2.57-0.69   c-0.8,0-1.56,0.13-2.26,0.38c-0.7,0.25-1.3,0.61-1.79,1.07c-0.49,0.46-0.87,1.02-1.14,1.68v4.78c0.36,0.65,0.78,1.2,1.27,1.63   c0.49,0.43,1.07,0.76,1.72,0.98C338.45,425.68,339.18,425.79,339.99,425.79z"
   id="path50"
   style="fill:none;stroke:#ff0000;stroke-opacity:1;stroke-width:0.07559055;stroke-miterlimit:4;stroke-dasharray:none" />
	<path
   class="st1"
   d="M366.04,431.06c-2.38,0-4.4-0.45-6.06-1.34c-1.65-0.89-2.91-2.13-3.78-3.71c-0.86-1.58-1.3-3.4-1.3-5.45   c0-1.97,0.51-3.74,1.52-5.32c1.01-1.58,2.37-2.84,4.07-3.78c1.7-0.94,3.59-1.41,5.68-1.41c2.8,0,5.1,0.81,6.91,2.44   c1.8,1.63,2.97,3.97,3.51,7.04l-15.2,4.83l-1.39-3.4l11-3.71l-1.3,0.58c-0.24-0.78-0.66-1.45-1.27-2.03   c-0.61-0.58-1.53-0.87-2.75-0.87c-0.92,0-1.74,0.22-2.44,0.65c-0.7,0.43-1.24,1.04-1.61,1.83c-0.37,0.79-0.56,1.72-0.56,2.79   c0,1.22,0.22,2.24,0.67,3.06c0.45,0.82,1.06,1.44,1.83,1.85c0.78,0.42,1.64,0.63,2.59,0.63c0.68,0,1.35-0.12,1.99-0.36   c0.64-0.24,1.27-0.55,1.9-0.94l2.77,4.65c-1.04,0.6-2.17,1.07-3.37,1.43C368.26,430.89,367.12,431.06,366.04,431.06z"
   id="path52"
   style="fill:none;stroke:#ff0000;stroke-opacity:1;stroke-width:0.07559055;stroke-miterlimit:4;stroke-dasharray:none" />
</g>
<g
   id="g3157"
   transform="matrix(1.4686888,0,0,1.4686888,-1589.0327,-1038.6598)"
   style="display:inline;fill:none;stroke:#ff0000;stroke-width:0.051468;stroke-miterlimit:4;stroke-dasharray:none;stroke-opacity:1"><path
     style="fill:none;stroke:#ff0000;stroke-width:0.051468;stroke-linecap:round;stroke-linejoin:round;stroke-miterlimit:4;stroke-dasharray:none;stroke-opacity:1"
     d="m 1127.1,1024.16 v 14 m 0,-12 1.34,-1.33 1.33,-0.67 h 2 l 1.33,0.67 1.34,1.33 0.66,2 v 1.34 l -0.66,2 -1.34,1.33 -1.33,0.67 h -2 l -1.33,-0.67 -1.34,-1.33"
     id="path3101" /><path
     style="fill:none;stroke:#ff0000;stroke-width:0.051468;stroke-linecap:round;stroke-linejoin:round;stroke-miterlimit:4;stroke-dasharray:none;stroke-opacity:1"
     d="m 1147.1,1024.16 v 9.34 m 0,-7.34 -1.33,-1.33 -1.33,-0.67 h -2 l -1.34,0.67 -1.33,1.33 -0.67,2 v 1.34 l 0.67,2 1.33,1.33 1.34,0.67 h 2 l 1.33,-0.67 1.33,-1.33"
     id="path3103" /><path
     style="fill:none;stroke:#ff0000;stroke-width:0.051468;stroke-linecap:round;stroke-linejoin:round;stroke-miterlimit:4;stroke-dasharray:none;stroke-opacity:1"
     d="m 1153.1,1019.5 0.67,0.66 0.67,-0.66 -0.67,-0.67 z m 0.67,4.66 v 11.34 l -0.67,2 -1.33,0.66 h -1.33"
     id="path3105" /><path
     style="fill:none;stroke:#ff0000;stroke-width:0.051468;stroke-linecap:round;stroke-linejoin:round;stroke-miterlimit:4;stroke-dasharray:none;stroke-opacity:1"
     d="m 1166.44,1024.16 v 9.34 m 0,-7.34 -1.34,-1.33 -1.33,-0.67 h -2 l -1.33,0.67 -1.34,1.33 -0.66,2 v 1.34 l 0.66,2 1.34,1.33 1.33,0.67 h 2 l 1.33,-0.67 1.34,-1.33"
     id="path3107" /><path
     style="fill:none;stroke:#ff0000;stroke-width:0.051468;stroke-linecap:round;stroke-linejoin:round;stroke-miterlimit:4;stroke-dasharray:none;stroke-opacity:1"
     d="m 1171.77,1024.16 v 9.34 m 0,-5.34 0.67,-2 1.33,-1.33 1.33,-0.67 h 2"
     id="path3109" /><path
     style="fill:none;stroke:#ff0000;stroke-width:0.051468;stroke-linecap:round;stroke-linejoin:round;stroke-miterlimit:4;stroke-dasharray:none;stroke-opacity:1"
     d="m 1183.1,1024.16 -1.33,0.67 -1.33,1.33 -0.67,2 v 1.34 l 0.67,2 1.33,1.33 1.33,0.67 h 2 l 1.34,-0.67 1.33,-1.33 0.67,-2 v -1.34 l -0.67,-2 -1.33,-1.33 -1.34,-0.67 z"
     id="path3111" /><path
     style="fill:none;stroke:#ff0000;stroke-width:0.051468;stroke-linecap:round;stroke-linejoin:round;stroke-miterlimit:4;stroke-dasharray:none;stroke-opacity:1"
     d="m 1199.77,1026.16 -0.66,-1.33 -2,-0.67 h -2 l -2,0.67 -0.67,1.33 0.67,1.34 1.33,0.66 3.33,0.67 1.34,0.67 0.66,1.33 v 0.67 l -0.66,1.33 -2,0.67 h -2 l -2,-0.67 -0.67,-1.33"
     id="path3113" /><path
     style="fill:none;stroke:#ff0000;stroke-width:0.051468;stroke-linecap:round;stroke-linejoin:round;stroke-miterlimit:4;stroke-dasharray:none;stroke-opacity:1"
     d="m 1203.77,1028.16 h 8 v -1.33 l -0.67,-1.33 -0.66,-0.67 -1.34,-0.67 h -2 l -1.33,0.67 -1.33,1.33 -0.67,2 v 1.34 l 0.67,2 1.33,1.33 1.33,0.67 h 2 l 1.34,-0.67 1.33,-1.33"
     id="path3115" /><path
     style="fill:none;stroke:#ff0000;stroke-width:0.051468;stroke-linecap:round;stroke-linejoin:round;stroke-miterlimit:4;stroke-dasharray:none;stroke-opacity:1"
     d="m 1216.44,1024.16 v 9.34 m 0,-6.67 2,-2 1.33,-0.67 h 2 l 1.33,0.67 0.67,2 v 6.67"
     id="path3117" /><path
     style="fill:none;stroke:#ff0000;stroke-width:0.051468;stroke-linecap:round;stroke-linejoin:round;stroke-miterlimit:4;stroke-dasharray:none;stroke-opacity:1"
     d="m 1229.11,1019.5 v 14"
     id="path3119" /><path
     style="fill:none;stroke:#ff0000;stroke-width:0.051468;stroke-linecap:round;stroke-linejoin:round;stroke-miterlimit:4;stroke-dasharray:none;stroke-opacity:1"
     d="m 1241.77,1024.16 v 9.34 m 0,-7.34 -1.33,-1.33 -1.34,-0.67 h -2 l -1.33,0.67 -1.33,1.33 -0.67,2 v 1.34 l 0.67,2 1.33,1.33 1.33,0.67 h 2 l 1.34,-0.67 1.33,-1.33"
     id="path3121" /><path
     style="fill:none;stroke:#ff0000;stroke-width:0.051468;stroke-linecap:round;stroke-linejoin:round;stroke-miterlimit:4;stroke-dasharray:none;stroke-opacity:1"
     d="m 1247.11,1024.16 v 9.34 m 0,-6.67 2,-2 1.33,-0.67 h 2 l 1.33,0.67 0.67,2 v 6.67"
     id="path3123" /><path
     style="fill:none;stroke:#ff0000;stroke-width:0.051468;stroke-linecap:round;stroke-linejoin:round;stroke-miterlimit:4;stroke-dasharray:none;stroke-opacity:1"
     d="m 1259.77,1024.16 v 6.67 l 0.67,2 1.33,0.67 h 2 l 1.33,-0.67 2,-2 m 0,-6.67 v 9.34"
     id="path3125" /><path
     style="fill:none;stroke:#ff0000;stroke-width:0.051468;stroke-linecap:round;stroke-linejoin:round;stroke-miterlimit:4;stroke-dasharray:none;stroke-opacity:1"
     d="m 1272.44,1019.5 v 14 m 0,-7.34 1.33,-1.33 1.33,-0.67 h 2 l 1.34,0.67 1.33,1.33 0.67,2 v 1.34 l -0.67,2 -1.33,1.33 -1.34,0.67 h -2 l -1.33,-0.67 -1.33,-1.33"
     id="path3127" /><path
     style="fill:none;stroke:#ff0000;stroke-width:0.051468;stroke-linecap:round;stroke-linejoin:round;stroke-miterlimit:4;stroke-dasharray:none;stroke-opacity:1"
     d="m 1284.44,1028.16 h 8 v -1.33 l -0.67,-1.33 -0.67,-0.67 -1.33,-0.67 h -2 l -1.33,0.67 -1.34,1.33 -0.66,2 v 1.34 l 0.66,2 1.34,1.33 1.33,0.67 h 2 l 1.33,-0.67 1.34,-1.33"
     id="path3129" /><path
     style="fill:none;stroke:#ff0000;stroke-width:0.051468;stroke-linecap:round;stroke-linejoin:round;stroke-miterlimit:4;stroke-dasharray:none;stroke-opacity:1"
     d="m 1297.11,1030.16 -0.67,0.67 0.67,0.67 0.66,-0.67 z"
     id="path3131" /><path
     style="fill:none;stroke:#ff0000;stroke-width:0.051468;stroke-linecap:round;stroke-linejoin:round;stroke-miterlimit:4;stroke-dasharray:none;stroke-opacity:1"
     d="m 1301.77,1019.5 0.67,0.66 0.66,-0.66 -0.66,-0.67 z m 0.67,4.66 v 9.34"
     id="path3133" /><path
     style="fill:none;stroke:#ff0000;stroke-width:0.051468;stroke-linecap:round;stroke-linejoin:round;stroke-miterlimit:4;stroke-dasharray:none;stroke-opacity:1"
     d="m 1307.77,1019.5 v 14 m 0,-7.34 1.33,-1.33 1.34,-0.67 h 2 l 1.33,0.67 1.33,1.33 0.67,2 v 1.34 l -0.67,2 -1.33,1.33 -1.33,0.67 h -2 l -1.34,-0.67 -1.33,-1.33"
     id="path3135" /><path
     style="fill:none;stroke:#ff0000;stroke-width:0.051468;stroke-linecap:round;stroke-linejoin:round;stroke-miterlimit:4;stroke-dasharray:none;stroke-opacity:1"
     d="m 1319.77,1028.16 h 8 v -1.33 l -0.67,-1.33 -0.66,-0.67 -1.34,-0.67 h -2 l -1.33,0.67 -1.33,1.33 -0.67,2 v 1.34 l 0.67,2 1.33,1.33 1.33,0.67 h 2 l 1.34,-0.67 1.33,-1.33"
     id="path3137" /><path
     style="fill:none;stroke:#ff0000;stroke-width:0.051468;stroke-linecap:round;stroke-linejoin:round;stroke-miterlimit:4;stroke-dasharray:none;stroke-opacity:1"
     d="m 1332.44,1024.16 v 9.34 m 0,-5.34 0.66,-2 1.34,-1.33 1.33,-0.67 h 2"
     id="path3139" /><path
     style="fill:none;stroke:#ff0000;stroke-width:0.051468;stroke-linecap:round;stroke-linejoin:round;stroke-miterlimit:4;stroke-dasharray:none;stroke-opacity:1"
     d="m 1348.44,1026.16 -1.34,-1.33 -1.33,-0.67 h -2 l -1.33,0.67 -1.34,1.33 -0.66,2 v 1.34 l 0.66,2 1.34,1.33 1.33,0.67 h 2 l 1.33,-0.67 1.34,-1.33"
     id="path3141" /><path
     style="fill:none;stroke:#ff0000;stroke-width:0.051468;stroke-linecap:round;stroke-linejoin:round;stroke-miterlimit:4;stroke-dasharray:none;stroke-opacity:1"
     d="m 1352.44,1019.5 0.67,0.66 0.66,-0.66 -0.66,-0.67 z m 0.67,4.66 v 9.34"
     id="path3143" /><path
     style="fill:none;stroke:#ff0000;stroke-width:0.051468;stroke-linecap:round;stroke-linejoin:round;stroke-miterlimit:4;stroke-dasharray:none;stroke-opacity:1"
     d="m 1357.1,1024.16 4,9.34 m 4,-9.34 -4,9.34"
     id="path3145" /><path
     style="fill:none;stroke:#ff0000;stroke-width:0.051468;stroke-linecap:round;stroke-linejoin:round;stroke-miterlimit:4;stroke-dasharray:none;stroke-opacity:1"
     d="m 1368.44,1019.5 0.67,0.66 0.66,-0.66 -0.66,-0.67 z m 0.67,4.66 v 9.34"
     id="path3147" /><path
     style="fill:none;stroke:#ff0000;stroke-width:0.051468;stroke-linecap:round;stroke-linejoin:round;stroke-miterlimit:4;stroke-dasharray:none;stroke-opacity:1"
     d="m 1381.1,1026.16 -0.66,-1.33 -2,-0.67 h -2 l -2,0.67 -0.67,1.33 0.67,1.34 1.33,0.66 3.33,0.67 1.34,0.67 0.66,1.33 v 0.67 l -0.66,1.33 -2,0.67 h -2 l -2,-0.67 -0.67,-1.33"
     id="path3149" /><path
     style="fill:none;stroke:#ff0000;stroke-width:0.051468;stroke-linecap:round;stroke-linejoin:round;stroke-miterlimit:4;stroke-dasharray:none;stroke-opacity:1"
     d="m 1385.77,1030.16 -0.67,0.67 0.67,0.67 0.67,-0.67 z"
     id="path3151" /><path
     style="fill:none;stroke:#ff0000;stroke-width:0.051468;stroke-linecap:round;stroke-linejoin:round;stroke-miterlimit:4;stroke-dasharray:none;stroke-opacity:1"
     d="m 1390.44,1028.16 h 8 v -1.33 l -0.67,-1.33 -0.67,-0.67 -1.33,-0.67 h -2 l -1.33,0.67 -1.34,1.33 -0.66,2 v 1.34 l 0.66,2 1.34,1.33 1.33,0.67 h 2 l 1.33,-0.67 1.34,-1.33"
     id="path3153" /><path
     style="fill:none;stroke:#ff0000;stroke-width:0.051468;stroke-linecap:round;stroke-linejoin:round;stroke-miterlimit:4;stroke-dasharray:none;stroke-opacity:1"
     d="m 1409.77,1026.16 -0.66,-1.33 -2,-0.67 h -2 l -2,0.67 -0.67,1.33 0.67,1.34 1.33,0.66 3.33,0.67 1.34,0.67 0.66,1.33 v 0.67 l -0.66,1.33 -2,0.67 h -2 l -2,-0.67 -0.67,-1.33"
     id="path3155" /></g></svg>
