<?xml version="1.0" encoding="UTF-8" standalone="no"?>
<svg
   xmlns:dc="http://purl.org/dc/elements/1.1/"
   xmlns:cc="http://creativecommons.org/ns#"
   xmlns:rdf="http://www.w3.org/1999/02/22-rdf-syntax-ns#"
   xmlns:svg="http://www.w3.org/2000/svg"
   xmlns="http://www.w3.org/2000/svg"
   xmlns:sodipodi="http://sodipodi.sourceforge.net/DTD/sodipodi-0.dtd"
   xmlns:inkscape="http://www.inkscape.org/namespaces/inkscape"
   width="49.581722mm"
   height="38.184994mm"
   viewBox="0 0 49.581722 38.184994"
   version="1.1"
   id="svg878"
   inkscape:version="1.0.1 (3bc2e813f5, 2020-09-07)"
   sodipodi:docname="The_Things_Network_logo_trazos.svg">
  <defs
     id="defs872" />
  <sodipodi:namedview
     id="base"
     pagecolor="#ffffff"
     bordercolor="#666666"
     borderopacity="1.0"
     inkscape:pageopacity="0.0"
     inkscape:pageshadow="2"
     inkscape:zoom="1.4"
     inkscape:cx="-67.212035"
     inkscape:cy="-59.644789"
     inkscape:document-units="mm"
     inkscape:current-layer="layer1"
     inkscape:document-rotation="0"
     showgrid="false"
     fit-margin-top="0"
     fit-margin-left="0"
     fit-margin-right="0"
     fit-margin-bottom="0"
     inkscape:window-width="2193"
     inkscape:window-height="1493"
     inkscape:window-x="3250"
     inkscape:window-y="470"
     inkscape:window-maximized="0" />
  <metadata
     id="metadata875">
    <rdf:RDF>
      <cc:Work
         rdf:about="">
        <dc:format>image/svg+xml</dc:format>
        <dc:type
           rdf:resource="http://purl.org/dc/dcmitype/StillImage" />
        <dc:title></dc:title>
      </cc:Work>
    </rdf:RDF>
  </metadata>
  <g
     inkscape:label="Capa 1"
     inkscape:groupmode="layer"
     id="layer1"
     transform="translate(55.958712,-180.96939)">
    <g
       id="g891"
       transform="matrix(0.16028976,0,0,0.16028976,-46.924271,137.86144)"
       style="display:inline;fill:none;stroke:#ff0000;stroke-width:0.124774;stroke-miterlimit:4;stroke-dasharray:none;stroke-opacity:1">
      <g
         id="g18"
         style="fill:none;stroke:#ff0000;stroke-width:0.124774;stroke-miterlimit:4;stroke-dasharray:none;stroke-opacity:1">
        <path
           class="st0"
           d="m -47.3,506.8 h -5.4 v -23.7 h 5.4 l 9.5,14.8 v 0 -14.8 h 5.4 v 23.7 h -5.4 L -47.3,492 v 0 z"
           id="path4"
           style="fill:none;stroke:#ff0000;stroke-width:0.124774;stroke-miterlimit:4;stroke-dasharray:none;stroke-opacity:1" />
        <path
           class="st0"
           d="M 9.2,487.7 H 1 v 4.6 h 7.8 v 4.8 H 1 v 4.8 h 8.2 v 4.8 H -4.4 V 483 H 9.2 Z"
           id="path6"
           style="fill:none;stroke:#ff0000;stroke-width:0.124774;stroke-miterlimit:4;stroke-dasharray:none;stroke-opacity:1" />
        <path
           class="st0"
           d="m 35.2,483 h 16.7 v 4.8 h -5.6 v 18.9 H 40.9 V 487.8 H 35.3 V 483 Z"
           id="path8"
           style="fill:none;stroke:#ff0000;stroke-width:0.124774;stroke-miterlimit:4;stroke-dasharray:none;stroke-opacity:1" />
        <path
           class="st0"
           d="m 92.9,493.5 -3.8,13.3 h -6 l -6.7,-23.7 h 5.9 l 4,16.4 h 0.1 l 4.3,-16.4 h 4 l 4.3,16.4 h 0.4 l 4,-16.4 h 6 l -6.7,23.7 h -6 z"
           id="path10"
           style="fill:none;stroke:#ff0000;stroke-width:0.124774;stroke-miterlimit:4;stroke-dasharray:none;stroke-opacity:1" />
        <path
           class="st0"
           d="m 145.2,482.6 c 6.6,0 12,5.4 12,12.2 0,7 -5.1,12.3 -12,12.3 -7.1,0 -12,-5.4 -12,-12.3 0,-6.9 5.4,-12.2 12,-12.2 z m 0,19.3 c 4.3,0 6.1,-3.5 6.1,-7.1 0,-3.4 -2,-7.1 -6.1,-7.1 -4.2,0 -6.1,3.5 -6.1,7.1 0,3.6 1.7,7.1 6.1,7.1 z"
           id="path12"
           style="fill:none;stroke:#ff0000;stroke-width:0.124774;stroke-miterlimit:4;stroke-dasharray:none;stroke-opacity:1" />
        <path
           class="st0"
           d="m 192.5,483 c 4.4,0 7.8,2.4 7.8,7.1 0,3.5 -2,6 -4.9,6.8 l 8.2,9.9 h -6.8 l -7.2,-9.4 v 9.4 h -5.4 v -23.7 z m -2.5,10.6 c 2.1,0 4.4,-0.1 4.4,-3.2 0,-3.1 -2.4,-3.2 -4.4,-3.2 h -0.6 v 6.2 h 0.6 z"
           id="path14"
           style="fill:none;stroke:#ff0000;stroke-width:0.124774;stroke-miterlimit:4;stroke-dasharray:none;stroke-opacity:1" />
        <path
           class="st0"
           d="m 243.2,506.8 -8.8,-10.1 v 10.1 H 229 v -23.7 h 5.4 v 9.8 l 8.2,-9.8 h 6.6 l -9.7,11.2 11,12.5 z"
           id="path16"
           style="fill:none;stroke:#ff0000;stroke-width:0.124774;stroke-miterlimit:4;stroke-dasharray:none;stroke-opacity:1" />
      </g>
      <path
         class="st1"
         d="m 223.8,379 c 0.7,8.6 -2,16.7 -7.5,22.9 -5.9,6.6 -14.7,10.2 -24.6,10.2 H -22.6 v 0 c -0.1,0 -0.2,0 -0.3,0 h -0.1 -0.2 v 0 c -8.7,-0.1 -16.9,-3.5 -23,-9.6 -6.5,-6.4 -10,-15 -10.1,-24.1 v 0 c 0,-16.9 11.5,-30.6 27.2,-33.2 2.1,-14.1 14.4,-25.6 29.6,-28 0.9,-5.6 3.6,-11 7.9,-15.4 6.2,-6.4 14.6,-10 23.2,-10 11.1,0 20.8,6 26,15 6.1,-21.8 26.1,-37.8 49.8,-37.8 25.9,0 47.5,19.2 51.1,44.2 13,-9.7 30.3,-8.8 43.3,3.4 l -1.4,-1.2 c 10.4,8.4 14,19.8 13.5,29.4 -0.3,5.7 -2.2,10.7 -5.6,14.8 3.3,1.1 6,3 8.6,5.6 3.6,3.6 6.1,8.1 6.8,13.1 v 0 c 0,0.2 0,0.4 0,0.6 0.1,-0.2 0.1,-0.1 0.1,0.1 z m 16.1,-80.7 C 232.3,288 221,280.4 208.6,277.2 c -2.8,-0.6 -5.7,1.3 -6.3,4 -1.1,2.8 0.7,6.4 3.7,7 12.5,3.3 23.3,12.1 29,23.7 4.7,9.5 5.9,20.7 3.3,31 -0.7,2.9 1.4,6 4.4,6.4 2.7,0.8 5.7,-0.8 6.6,-3.4 4.1,-16.1 0.6,-34.2 -9.4,-47.6 z m -35.7,-1.6 c -4.3,-0.8 -7.6,4.5 -5.7,8.2 0.7,1.6 2.3,2.7 4,3.1 6.5,1.7 12.2,6.2 15.2,12.2 2.7,5.3 3.3,11.5 1.8,17.2 -0.8,2.9 1.3,6.1 4.3,6.6 2.7,0.8 5.9,-0.8 6.7,-3.6 2.8,-10.2 0.7,-21.6 -5.5,-30.1 -5,-6.8 -12.5,-12 -20.8,-13.6 z"
         id="path20-3"
         style="fill:none;stroke:#ff0000;stroke-width:0.124774;stroke-miterlimit:4;stroke-dasharray:none;stroke-opacity:1" />
      <g
         id="g40"
         style="fill:none;stroke:#ff0000;stroke-width:0.124774;stroke-miterlimit:4;stroke-dasharray:none;stroke-opacity:1">
        <path
           class="st2"
           d="m -56.2,429.9 h 27.7 v 7.9 h -9.4 v 31.5 h -9 v -31.5 h -9.4 z"
           id="path22-3"
           style="fill:none;stroke:#ff0000;stroke-width:0.124774;stroke-miterlimit:4;stroke-dasharray:none;stroke-opacity:1" />
        <path
           class="st2"
           d="m -14.3,469.4 h -9 v -39.5 h 9 v 15.8 h 12.7 v -15.8 h 9 v 39.5 h -9 v -15.9 h -12.7 z"
           id="path24-7"
           style="fill:none;stroke:#ff0000;stroke-width:0.124774;stroke-miterlimit:4;stroke-dasharray:none;stroke-opacity:1" />
        <path
           class="st2"
           d="M 37.6,437.9 H 24.1 v 7.8 h 13 v 7.9 h -13 v 7.9 h 13.6 v 7.9 H 15 v -39.5 h 22.6 z"
           id="path26-9"
           style="fill:none;stroke:#ff0000;stroke-width:0.124774;stroke-miterlimit:4;stroke-dasharray:none;stroke-opacity:1" />
        <path
           class="st2"
           d="m 54.9,429.9 h 27.7 v 7.9 h -9.4 v 31.5 h -9 v -31.5 h -9.4 z"
           id="path28-9"
           style="fill:none;stroke:#ff0000;stroke-width:0.124774;stroke-miterlimit:4;stroke-dasharray:none;stroke-opacity:1" />
        <path
           class="st2"
           d="m 96.8,469.4 h -9 v -39.5 h 9 v 15.8 h 12.7 v -15.8 h 9 v 39.5 h -9 V 453.5 H 96.8 Z"
           id="path30-9"
           style="fill:none;stroke:#ff0000;stroke-width:0.124774;stroke-miterlimit:4;stroke-dasharray:none;stroke-opacity:1" />
        <path
           class="st2"
           d="m 135.2,469.4 h -9 v -39.5 h 9 z"
           id="path32-9"
           style="fill:none;stroke:#ff0000;stroke-width:0.124774;stroke-miterlimit:4;stroke-dasharray:none;stroke-opacity:1" />
        <path
           class="st2"
           d="m 151.8,469.4 h -9 v -39.5 h 9 l 15.6,24.4 h 0.1 v -24.4 h 9 v 39.5 h -9 L 151.9,445 h -0.1 z"
           id="path34-1"
           style="fill:none;stroke:#ff0000;stroke-width:0.124774;stroke-miterlimit:4;stroke-dasharray:none;stroke-opacity:1" />
        <path
           class="st2"
           d="m 219.8,455.8 c -2.2,10 -10.5,14.3 -18.2,14.3 -10.6,0 -19.2,-9.2 -19.2,-20.4 0,-11.4 8.2,-20.4 19.2,-20.4 7,0 11.7,2.6 15.2,6.7 l -5.9,6.5 c -2.3,-3.7 -5.3,-5 -8.8,-5 -5.5,0 -10,5.5 -10,12.3 0,6.7 4.5,12.1 10,12.1 4.3,0 8.6,-2.8 8.6,-7.6 h -9 v -7 h 18.2 v 8.5 z"
           id="path36-4"
           style="fill:none;stroke:#ff0000;stroke-width:0.124774;stroke-miterlimit:4;stroke-dasharray:none;stroke-opacity:1" />
        <path
           class="st2"
           d="m 251.6,433 -3.7,7.2 c 0,0 -3.9,-2.7 -7.9,-2.7 -3.1,0 -4.6,1.3 -4.6,3.5 0,2.2 3.8,3.8 8.2,5.7 4.4,1.8 9.3,5.6 9.3,10.8 0,9.4 -7.2,12.7 -14.9,12.7 -9.3,0 -14.8,-5.3 -14.8,-5.3 l 4.5,-7.6 c 0,0 5.3,4.4 9.7,4.4 2,0 5.7,-0.2 5.7,-3.9 0,-2.8 -4.2,-4.2 -8.9,-6.5 -4.8,-2.3 -7.5,-6 -7.5,-10.1 0,-7.3 6.5,-12.1 12.8,-12.1 7,0.1 12.1,3.9 12.1,3.9 z"
           id="path38-0"
           style="fill:none;stroke:#ff0000;stroke-width:0.124774;stroke-miterlimit:4;stroke-dasharray:none;stroke-opacity:1" />
      </g>
    </g>
  </g>
</svg>
