M48
; DRILL file {KiCad (5.1.6)-1} date 10/11/20 12:38:25
; FORMAT={-:-/ absolute / inch / decimal}
; #@! TF.CreationDate,2020-10-11T12:38:25+02:00
; #@! TF.GenerationSoftware,Kicad,Pcbnew,(5.1.6)-1
; #@! TF.FileFunction,Plated,1,2,PTH
FMAT,2
INCH
T1C0.0157
T2C0.0236
T3C0.0315
T4C0.0354
T5C0.0433
T6C0.0598
T7C0.0787
T8C0.0984
%
G90
G05
T1
X4.225Y-4.15
X5.15Y-3.6
X5.15Y-3.8
X5.15Y-3.9
X5.375Y-3.575
X5.475Y-3.425
T2
X6.6Y-3.65
X6.6Y-3.7
X6.6Y-3.75
X4.7Y-3.65
X4.7Y-3.7
X4.7Y-3.75
X4.875Y-3.65
X4.875Y-3.7
X4.875Y-3.75
T3
X6.175Y-3.375
X4.25Y-2.6781
X4.25Y-2.875
X4.925Y-2.75
X5.225Y-2.75
X4.75Y-3.9
X4.75Y-4.2
X4.875Y-3.9
X4.875Y-4.2
X4.775Y-2.6781
X4.775Y-2.875
X4.925Y-2.875
X5.225Y-2.875
X4.6Y-3.975
X4.6Y-4.275
T4
X4.125Y-4.275
X4.225Y-4.275
X4.325Y-4.275
X4.425Y-4.275
X5.175Y-4.275
X5.275Y-4.275
X5.375Y-4.275
X5.475Y-4.275
X5.575Y-4.275
X5.675Y-4.275
X5.775Y-4.275
X5.875Y-4.275
X5.975Y-4.275
X6.075Y-4.275
X6.175Y-4.275
X4.425Y-3.4
X4.425Y-3.5
X4.425Y-3.6
X4.425Y-3.7
X4.425Y-3.8
X4.425Y-3.9
X4.425Y-4.0
X3.65Y-3.975
X3.65Y-4.075
X3.65Y-4.175
X3.65Y-4.275
X6.425Y-3.8
X6.425Y-3.9
X5.45Y-2.9
X5.55Y-2.9
X5.65Y-2.9
X5.75Y-2.9
X3.85Y-3.075
X3.85Y-3.175
X4.125Y-3.025
X4.225Y-3.025
X4.325Y-3.025
X4.425Y-3.025
X5.175Y-3.075
X5.275Y-3.075
X5.375Y-3.075
X5.475Y-3.075
X5.575Y-3.075
X5.675Y-3.075
X5.775Y-3.075
X5.875Y-3.075
X5.975Y-3.075
X6.075Y-3.075
X6.175Y-3.075
X3.65Y-3.425
X3.65Y-3.525
X3.65Y-3.625
X3.65Y-3.725
X6.0Y-3.6
X6.0Y-3.7
X5.45Y-2.775
X5.55Y-2.775
X5.65Y-2.775
X5.75Y-2.775
X6.425Y-4.275
X6.525Y-4.275
X5.45Y-2.65
X5.55Y-2.65
X5.65Y-2.65
X5.75Y-2.65
X3.65Y-3.075
X3.65Y-3.175
X5.175Y-3.25
X5.175Y-4.05
X5.275Y-3.25
X5.275Y-4.05
X5.375Y-3.25
X5.375Y-4.05
X5.475Y-3.25
X5.475Y-4.05
X5.575Y-3.25
X5.575Y-4.05
X5.675Y-3.25
X5.675Y-4.05
X5.775Y-3.25
X5.775Y-4.05
X5.85Y-3.6
X5.85Y-3.7
X5.875Y-3.25
X5.875Y-4.05
X5.975Y-3.25
X5.975Y-4.05
X6.075Y-3.25
X6.075Y-4.05
X6.175Y-3.25
X6.175Y-4.05
T5
X3.8691Y-2.6978
X3.8691Y-2.875
X4.125Y-2.6978
X4.125Y-2.875
X4.3691Y-2.6978
X4.3691Y-2.875
X4.625Y-2.6978
X4.625Y-2.875
T6
X6.075Y-2.825
X6.275Y-2.825
T7
X3.6904Y-4.775
X6.525Y-4.775
T8
X3.925Y-3.4
X3.925Y-4.0
T0
M30
