G04 #@! TF.GenerationSoftware,KiCad,Pcbnew,(5.1.6)-1*
G04 #@! TF.CreationDate,2020-10-11T12:38:22+02:00*
G04 #@! TF.ProjectId,AdaptaddorCubeCell,41646170-7461-4646-946f-724375626543,1.0*
G04 #@! TF.SameCoordinates,Original*
G04 #@! TF.FileFunction,Soldermask,Top*
G04 #@! TF.FilePolarity,Negative*
%FSLAX46Y46*%
G04 Gerber Fmt 4.6, Leading zero omitted, Abs format (unit mm)*
G04 Created by KiCad (PCBNEW (5.1.6)-1) date 2020-10-11 12:38:22*
%MOMM*%
%LPD*%
G01*
G04 APERTURE LIST*
%ADD10C,0.100000*%
G04 APERTURE END LIST*
D10*
G36*
X168536000Y-123086000D02*
G01*
X162934000Y-123086000D01*
X162934000Y-119484000D01*
X168536000Y-119484000D01*
X168536000Y-123086000D01*
G37*
G36*
X94911669Y-119492686D02*
G01*
X95088058Y-119510059D01*
X95427548Y-119613042D01*
X95427550Y-119613043D01*
X95740422Y-119780277D01*
X95740424Y-119780278D01*
X95740423Y-119780278D01*
X96014661Y-120005339D01*
X96239722Y-120279577D01*
X96406958Y-120592452D01*
X96509941Y-120931942D01*
X96544714Y-121285000D01*
X96509941Y-121638058D01*
X96406958Y-121977548D01*
X96406957Y-121977550D01*
X96239723Y-122290422D01*
X96014661Y-122564661D01*
X95740422Y-122789723D01*
X95427550Y-122956957D01*
X95427548Y-122956958D01*
X95088058Y-123059941D01*
X94911669Y-123077314D01*
X94823476Y-123086000D01*
X92646524Y-123086000D01*
X92558331Y-123077314D01*
X92381942Y-123059941D01*
X92042452Y-122956958D01*
X92042450Y-122956957D01*
X91729578Y-122789723D01*
X91455339Y-122564661D01*
X91230277Y-122290422D01*
X91063043Y-121977550D01*
X91063042Y-121977548D01*
X90960059Y-121638058D01*
X90925286Y-121285000D01*
X90960059Y-120931942D01*
X91063042Y-120592452D01*
X91230278Y-120279577D01*
X91455339Y-120005339D01*
X91729577Y-119780278D01*
X91729576Y-119780278D01*
X91729578Y-119780277D01*
X92042450Y-119613043D01*
X92042452Y-119613042D01*
X92381942Y-119510059D01*
X92558331Y-119492686D01*
X92646524Y-119484000D01*
X94823476Y-119484000D01*
X94911669Y-119492686D01*
G37*
G36*
X101975256Y-119676298D02*
G01*
X102081579Y-119697447D01*
X102382042Y-119821903D01*
X102652451Y-120002585D01*
X102882415Y-120232549D01*
X103063097Y-120502958D01*
X103187553Y-120803421D01*
X103251000Y-121122391D01*
X103251000Y-121447609D01*
X103187553Y-121766579D01*
X103063097Y-122067042D01*
X102882415Y-122337451D01*
X102652451Y-122567415D01*
X102382042Y-122748097D01*
X102081579Y-122872553D01*
X101975256Y-122893702D01*
X101762611Y-122936000D01*
X101317389Y-122936000D01*
X101104744Y-122893702D01*
X100998421Y-122872553D01*
X100697958Y-122748097D01*
X100427549Y-122567415D01*
X100197585Y-122337451D01*
X100016903Y-122067042D01*
X99892447Y-121766579D01*
X99829000Y-121447609D01*
X99829000Y-121122391D01*
X99892447Y-120803421D01*
X100016903Y-120502958D01*
X100197585Y-120232549D01*
X100427549Y-120002585D01*
X100697958Y-119821903D01*
X100998421Y-119697447D01*
X101104744Y-119676298D01*
X101317389Y-119634000D01*
X101762611Y-119634000D01*
X101975256Y-119676298D01*
G37*
G36*
X157465256Y-119676298D02*
G01*
X157571579Y-119697447D01*
X157872042Y-119821903D01*
X158142451Y-120002585D01*
X158372415Y-120232549D01*
X158553097Y-120502958D01*
X158677553Y-120803421D01*
X158741000Y-121122391D01*
X158741000Y-121447609D01*
X158677553Y-121766579D01*
X158553097Y-122067042D01*
X158372415Y-122337451D01*
X158142451Y-122567415D01*
X157872042Y-122748097D01*
X157571579Y-122872553D01*
X157465256Y-122893702D01*
X157252611Y-122936000D01*
X156682389Y-122936000D01*
X156469744Y-122893702D01*
X156363421Y-122872553D01*
X156062958Y-122748097D01*
X155792549Y-122567415D01*
X155562585Y-122337451D01*
X155381903Y-122067042D01*
X155257447Y-121766579D01*
X155194000Y-121447609D01*
X155194000Y-121122391D01*
X155257447Y-120803421D01*
X155381903Y-120502958D01*
X155562585Y-120232549D01*
X155792549Y-120002585D01*
X156062958Y-119821903D01*
X156363421Y-119697447D01*
X156469744Y-119676298D01*
X156682389Y-119634000D01*
X157252611Y-119634000D01*
X157465256Y-119676298D01*
G37*
G36*
X107491627Y-107397037D02*
G01*
X107661466Y-107448557D01*
X107817991Y-107532222D01*
X107835162Y-107546314D01*
X107955186Y-107644814D01*
X108030333Y-107736382D01*
X108067778Y-107782009D01*
X108151443Y-107938534D01*
X108202963Y-108108373D01*
X108202963Y-108108376D01*
X108216000Y-108240741D01*
X108216000Y-108929260D01*
X108209481Y-108995443D01*
X108202963Y-109061627D01*
X108151443Y-109231466D01*
X108067778Y-109387991D01*
X108038448Y-109423729D01*
X107955186Y-109525186D01*
X107817989Y-109637779D01*
X107661467Y-109721442D01*
X107661465Y-109721443D01*
X107491626Y-109772963D01*
X107315000Y-109790359D01*
X107138373Y-109772963D01*
X106968534Y-109721443D01*
X106812009Y-109637778D01*
X106776271Y-109608448D01*
X106674814Y-109525186D01*
X106562221Y-109387989D01*
X106478558Y-109231467D01*
X106478557Y-109231465D01*
X106427037Y-109061626D01*
X106416223Y-108951825D01*
X106414000Y-108929259D01*
X106414000Y-108240740D01*
X106427037Y-108108377D01*
X106427037Y-108108373D01*
X106478557Y-107938534D01*
X106562223Y-107782009D01*
X106599668Y-107736382D01*
X106674815Y-107644814D01*
X106794839Y-107546314D01*
X106812010Y-107532222D01*
X106968535Y-107448557D01*
X107138374Y-107397037D01*
X107315000Y-107379641D01*
X107491627Y-107397037D01*
G37*
G36*
X104951627Y-107397037D02*
G01*
X105121466Y-107448557D01*
X105277991Y-107532222D01*
X105295162Y-107546314D01*
X105415186Y-107644814D01*
X105490333Y-107736382D01*
X105527778Y-107782009D01*
X105611443Y-107938534D01*
X105662963Y-108108373D01*
X105662963Y-108108376D01*
X105676000Y-108240741D01*
X105676000Y-108929260D01*
X105669481Y-108995443D01*
X105662963Y-109061627D01*
X105611443Y-109231466D01*
X105527778Y-109387991D01*
X105498448Y-109423729D01*
X105415186Y-109525186D01*
X105277989Y-109637779D01*
X105121467Y-109721442D01*
X105121465Y-109721443D01*
X104951626Y-109772963D01*
X104775000Y-109790359D01*
X104598373Y-109772963D01*
X104428534Y-109721443D01*
X104272009Y-109637778D01*
X104236271Y-109608448D01*
X104134814Y-109525186D01*
X104022221Y-109387989D01*
X103938558Y-109231467D01*
X103938557Y-109231465D01*
X103887037Y-109061626D01*
X103876223Y-108951825D01*
X103874000Y-108929259D01*
X103874000Y-108240740D01*
X103887037Y-108108377D01*
X103887037Y-108108373D01*
X103938557Y-107938534D01*
X104022223Y-107782009D01*
X104059668Y-107736382D01*
X104134815Y-107644814D01*
X104254839Y-107546314D01*
X104272010Y-107532222D01*
X104428535Y-107448557D01*
X104598374Y-107397037D01*
X104775000Y-107379641D01*
X104951627Y-107397037D01*
G37*
G36*
X110031627Y-107397037D02*
G01*
X110201466Y-107448557D01*
X110357991Y-107532222D01*
X110375162Y-107546314D01*
X110495186Y-107644814D01*
X110570333Y-107736382D01*
X110607778Y-107782009D01*
X110691443Y-107938534D01*
X110742963Y-108108373D01*
X110742963Y-108108376D01*
X110756000Y-108240741D01*
X110756000Y-108929260D01*
X110749481Y-108995443D01*
X110742963Y-109061627D01*
X110691443Y-109231466D01*
X110607778Y-109387991D01*
X110578448Y-109423729D01*
X110495186Y-109525186D01*
X110357989Y-109637779D01*
X110201467Y-109721442D01*
X110201465Y-109721443D01*
X110031626Y-109772963D01*
X109855000Y-109790359D01*
X109678373Y-109772963D01*
X109508534Y-109721443D01*
X109352009Y-109637778D01*
X109316271Y-109608448D01*
X109214814Y-109525186D01*
X109102221Y-109387989D01*
X109018558Y-109231467D01*
X109018557Y-109231465D01*
X108967037Y-109061626D01*
X108956223Y-108951825D01*
X108954000Y-108929259D01*
X108954000Y-108240740D01*
X108967037Y-108108377D01*
X108967037Y-108108373D01*
X109018557Y-107938534D01*
X109102223Y-107782009D01*
X109139668Y-107736382D01*
X109214815Y-107644814D01*
X109334839Y-107546314D01*
X109352010Y-107532222D01*
X109508535Y-107448557D01*
X109678374Y-107397037D01*
X109855000Y-107379641D01*
X110031627Y-107397037D01*
G37*
G36*
X165911626Y-107397037D02*
G01*
X166081465Y-107448557D01*
X166081467Y-107448558D01*
X166237989Y-107532221D01*
X166375186Y-107644814D01*
X166450333Y-107736382D01*
X166487778Y-107782009D01*
X166571443Y-107938534D01*
X166622963Y-108108373D01*
X166622963Y-108108375D01*
X166636000Y-108240740D01*
X166636000Y-108929259D01*
X166633777Y-108951825D01*
X166622963Y-109061627D01*
X166571443Y-109231466D01*
X166487778Y-109387991D01*
X166458448Y-109423729D01*
X166375186Y-109525186D01*
X166273729Y-109608448D01*
X166237991Y-109637778D01*
X166081466Y-109721443D01*
X165911627Y-109772963D01*
X165735000Y-109790359D01*
X165558374Y-109772963D01*
X165388535Y-109721443D01*
X165232010Y-109637778D01*
X165196272Y-109608448D01*
X165094815Y-109525186D01*
X165011553Y-109423729D01*
X164982223Y-109387991D01*
X164898557Y-109231466D01*
X164847037Y-109061627D01*
X164836223Y-108951825D01*
X164834000Y-108929260D01*
X164834000Y-108240741D01*
X164847037Y-108108376D01*
X164847037Y-108108374D01*
X164898557Y-107938535D01*
X164936125Y-107868251D01*
X164982221Y-107782011D01*
X165094814Y-107644814D01*
X165214838Y-107546314D01*
X165232009Y-107532222D01*
X165388534Y-107448557D01*
X165558373Y-107397037D01*
X165735000Y-107379641D01*
X165911626Y-107397037D01*
G37*
G36*
X131621627Y-107397037D02*
G01*
X131791466Y-107448557D01*
X131947991Y-107532222D01*
X131965162Y-107546314D01*
X132085186Y-107644814D01*
X132160333Y-107736382D01*
X132197778Y-107782009D01*
X132281443Y-107938534D01*
X132332963Y-108108373D01*
X132332963Y-108108376D01*
X132346000Y-108240741D01*
X132346000Y-108929260D01*
X132339481Y-108995443D01*
X132332963Y-109061627D01*
X132281443Y-109231466D01*
X132197778Y-109387991D01*
X132168448Y-109423729D01*
X132085186Y-109525186D01*
X131947989Y-109637779D01*
X131791467Y-109721442D01*
X131791465Y-109721443D01*
X131621626Y-109772963D01*
X131445000Y-109790359D01*
X131268373Y-109772963D01*
X131098534Y-109721443D01*
X130942009Y-109637778D01*
X130906271Y-109608448D01*
X130804814Y-109525186D01*
X130692221Y-109387989D01*
X130608558Y-109231467D01*
X130608557Y-109231465D01*
X130557037Y-109061626D01*
X130546223Y-108951825D01*
X130544000Y-108929259D01*
X130544000Y-108240740D01*
X130557037Y-108108377D01*
X130557037Y-108108373D01*
X130608557Y-107938534D01*
X130692223Y-107782009D01*
X130729668Y-107736382D01*
X130804815Y-107644814D01*
X130924839Y-107546314D01*
X130942010Y-107532222D01*
X131098535Y-107448557D01*
X131268374Y-107397037D01*
X131445000Y-107379641D01*
X131621627Y-107397037D01*
G37*
G36*
X134161627Y-107397037D02*
G01*
X134331466Y-107448557D01*
X134487991Y-107532222D01*
X134505162Y-107546314D01*
X134625186Y-107644814D01*
X134700333Y-107736382D01*
X134737778Y-107782009D01*
X134821443Y-107938534D01*
X134872963Y-108108373D01*
X134872963Y-108108376D01*
X134886000Y-108240741D01*
X134886000Y-108929260D01*
X134879481Y-108995443D01*
X134872963Y-109061627D01*
X134821443Y-109231466D01*
X134737778Y-109387991D01*
X134708448Y-109423729D01*
X134625186Y-109525186D01*
X134487989Y-109637779D01*
X134331467Y-109721442D01*
X134331465Y-109721443D01*
X134161626Y-109772963D01*
X133985000Y-109790359D01*
X133808373Y-109772963D01*
X133638534Y-109721443D01*
X133482009Y-109637778D01*
X133446271Y-109608448D01*
X133344814Y-109525186D01*
X133232221Y-109387989D01*
X133148558Y-109231467D01*
X133148557Y-109231465D01*
X133097037Y-109061626D01*
X133086223Y-108951825D01*
X133084000Y-108929259D01*
X133084000Y-108240740D01*
X133097037Y-108108377D01*
X133097037Y-108108373D01*
X133148557Y-107938534D01*
X133232223Y-107782009D01*
X133269668Y-107736382D01*
X133344815Y-107644814D01*
X133464839Y-107546314D01*
X133482010Y-107532222D01*
X133638535Y-107448557D01*
X133808374Y-107397037D01*
X133985000Y-107379641D01*
X134161627Y-107397037D01*
G37*
G36*
X136701627Y-107397037D02*
G01*
X136871466Y-107448557D01*
X137027991Y-107532222D01*
X137045162Y-107546314D01*
X137165186Y-107644814D01*
X137240333Y-107736382D01*
X137277778Y-107782009D01*
X137361443Y-107938534D01*
X137412963Y-108108373D01*
X137412963Y-108108376D01*
X137426000Y-108240741D01*
X137426000Y-108929260D01*
X137419481Y-108995443D01*
X137412963Y-109061627D01*
X137361443Y-109231466D01*
X137277778Y-109387991D01*
X137248448Y-109423729D01*
X137165186Y-109525186D01*
X137027989Y-109637779D01*
X136871467Y-109721442D01*
X136871465Y-109721443D01*
X136701626Y-109772963D01*
X136525000Y-109790359D01*
X136348373Y-109772963D01*
X136178534Y-109721443D01*
X136022009Y-109637778D01*
X135986271Y-109608448D01*
X135884814Y-109525186D01*
X135772221Y-109387989D01*
X135688558Y-109231467D01*
X135688557Y-109231465D01*
X135637037Y-109061626D01*
X135626223Y-108951825D01*
X135624000Y-108929259D01*
X135624000Y-108240740D01*
X135637037Y-108108377D01*
X135637037Y-108108373D01*
X135688557Y-107938534D01*
X135772223Y-107782009D01*
X135809668Y-107736382D01*
X135884815Y-107644814D01*
X136004839Y-107546314D01*
X136022010Y-107532222D01*
X136178535Y-107448557D01*
X136348374Y-107397037D01*
X136525000Y-107379641D01*
X136701627Y-107397037D01*
G37*
G36*
X139241627Y-107397037D02*
G01*
X139411466Y-107448557D01*
X139567991Y-107532222D01*
X139585162Y-107546314D01*
X139705186Y-107644814D01*
X139780333Y-107736382D01*
X139817778Y-107782009D01*
X139901443Y-107938534D01*
X139952963Y-108108373D01*
X139952963Y-108108376D01*
X139966000Y-108240741D01*
X139966000Y-108929260D01*
X139959481Y-108995443D01*
X139952963Y-109061627D01*
X139901443Y-109231466D01*
X139817778Y-109387991D01*
X139788448Y-109423729D01*
X139705186Y-109525186D01*
X139567989Y-109637779D01*
X139411467Y-109721442D01*
X139411465Y-109721443D01*
X139241626Y-109772963D01*
X139065000Y-109790359D01*
X138888373Y-109772963D01*
X138718534Y-109721443D01*
X138562009Y-109637778D01*
X138526271Y-109608448D01*
X138424814Y-109525186D01*
X138312221Y-109387989D01*
X138228558Y-109231467D01*
X138228557Y-109231465D01*
X138177037Y-109061626D01*
X138166223Y-108951825D01*
X138164000Y-108929259D01*
X138164000Y-108240740D01*
X138177037Y-108108377D01*
X138177037Y-108108373D01*
X138228557Y-107938534D01*
X138312223Y-107782009D01*
X138349668Y-107736382D01*
X138424815Y-107644814D01*
X138544839Y-107546314D01*
X138562010Y-107532222D01*
X138718535Y-107448557D01*
X138888374Y-107397037D01*
X139065000Y-107379641D01*
X139241627Y-107397037D01*
G37*
G36*
X141781627Y-107397037D02*
G01*
X141951466Y-107448557D01*
X142107991Y-107532222D01*
X142125162Y-107546314D01*
X142245186Y-107644814D01*
X142320333Y-107736382D01*
X142357778Y-107782009D01*
X142441443Y-107938534D01*
X142492963Y-108108373D01*
X142492963Y-108108376D01*
X142506000Y-108240741D01*
X142506000Y-108929260D01*
X142499481Y-108995443D01*
X142492963Y-109061627D01*
X142441443Y-109231466D01*
X142357778Y-109387991D01*
X142328448Y-109423729D01*
X142245186Y-109525186D01*
X142107989Y-109637779D01*
X141951467Y-109721442D01*
X141951465Y-109721443D01*
X141781626Y-109772963D01*
X141605000Y-109790359D01*
X141428373Y-109772963D01*
X141258534Y-109721443D01*
X141102009Y-109637778D01*
X141066271Y-109608448D01*
X140964814Y-109525186D01*
X140852221Y-109387989D01*
X140768558Y-109231467D01*
X140768557Y-109231465D01*
X140717037Y-109061626D01*
X140706223Y-108951825D01*
X140704000Y-108929259D01*
X140704000Y-108240740D01*
X140717037Y-108108377D01*
X140717037Y-108108373D01*
X140768557Y-107938534D01*
X140852223Y-107782009D01*
X140889668Y-107736382D01*
X140964815Y-107644814D01*
X141084839Y-107546314D01*
X141102010Y-107532222D01*
X141258535Y-107448557D01*
X141428374Y-107397037D01*
X141605000Y-107379641D01*
X141781627Y-107397037D01*
G37*
G36*
X144321627Y-107397037D02*
G01*
X144491466Y-107448557D01*
X144647991Y-107532222D01*
X144665162Y-107546314D01*
X144785186Y-107644814D01*
X144860333Y-107736382D01*
X144897778Y-107782009D01*
X144981443Y-107938534D01*
X145032963Y-108108373D01*
X145032963Y-108108376D01*
X145046000Y-108240741D01*
X145046000Y-108929260D01*
X145039481Y-108995443D01*
X145032963Y-109061627D01*
X144981443Y-109231466D01*
X144897778Y-109387991D01*
X144868448Y-109423729D01*
X144785186Y-109525186D01*
X144647989Y-109637779D01*
X144491467Y-109721442D01*
X144491465Y-109721443D01*
X144321626Y-109772963D01*
X144145000Y-109790359D01*
X143968373Y-109772963D01*
X143798534Y-109721443D01*
X143642009Y-109637778D01*
X143606271Y-109608448D01*
X143504814Y-109525186D01*
X143392221Y-109387989D01*
X143308558Y-109231467D01*
X143308557Y-109231465D01*
X143257037Y-109061626D01*
X143246223Y-108951825D01*
X143244000Y-108929259D01*
X143244000Y-108240740D01*
X143257037Y-108108377D01*
X143257037Y-108108373D01*
X143308557Y-107938534D01*
X143392223Y-107782009D01*
X143429668Y-107736382D01*
X143504815Y-107644814D01*
X143624839Y-107546314D01*
X143642010Y-107532222D01*
X143798535Y-107448557D01*
X143968374Y-107397037D01*
X144145000Y-107379641D01*
X144321627Y-107397037D01*
G37*
G36*
X146861627Y-107397037D02*
G01*
X147031466Y-107448557D01*
X147187991Y-107532222D01*
X147205162Y-107546314D01*
X147325186Y-107644814D01*
X147400333Y-107736382D01*
X147437778Y-107782009D01*
X147521443Y-107938534D01*
X147572963Y-108108373D01*
X147572963Y-108108376D01*
X147586000Y-108240741D01*
X147586000Y-108929260D01*
X147579481Y-108995443D01*
X147572963Y-109061627D01*
X147521443Y-109231466D01*
X147437778Y-109387991D01*
X147408448Y-109423729D01*
X147325186Y-109525186D01*
X147187989Y-109637779D01*
X147031467Y-109721442D01*
X147031465Y-109721443D01*
X146861626Y-109772963D01*
X146685000Y-109790359D01*
X146508373Y-109772963D01*
X146338534Y-109721443D01*
X146182009Y-109637778D01*
X146146271Y-109608448D01*
X146044814Y-109525186D01*
X145932221Y-109387989D01*
X145848558Y-109231467D01*
X145848557Y-109231465D01*
X145797037Y-109061626D01*
X145786223Y-108951825D01*
X145784000Y-108929259D01*
X145784000Y-108240740D01*
X145797037Y-108108377D01*
X145797037Y-108108373D01*
X145848557Y-107938534D01*
X145932223Y-107782009D01*
X145969668Y-107736382D01*
X146044815Y-107644814D01*
X146164839Y-107546314D01*
X146182010Y-107532222D01*
X146338535Y-107448557D01*
X146508374Y-107397037D01*
X146685000Y-107379641D01*
X146861627Y-107397037D01*
G37*
G36*
X149401627Y-107397037D02*
G01*
X149571466Y-107448557D01*
X149727991Y-107532222D01*
X149745162Y-107546314D01*
X149865186Y-107644814D01*
X149940333Y-107736382D01*
X149977778Y-107782009D01*
X150061443Y-107938534D01*
X150112963Y-108108373D01*
X150112963Y-108108376D01*
X150126000Y-108240741D01*
X150126000Y-108929260D01*
X150119481Y-108995443D01*
X150112963Y-109061627D01*
X150061443Y-109231466D01*
X149977778Y-109387991D01*
X149948448Y-109423729D01*
X149865186Y-109525186D01*
X149727989Y-109637779D01*
X149571467Y-109721442D01*
X149571465Y-109721443D01*
X149401626Y-109772963D01*
X149225000Y-109790359D01*
X149048373Y-109772963D01*
X148878534Y-109721443D01*
X148722009Y-109637778D01*
X148686271Y-109608448D01*
X148584814Y-109525186D01*
X148472221Y-109387989D01*
X148388558Y-109231467D01*
X148388557Y-109231465D01*
X148337037Y-109061626D01*
X148326223Y-108951825D01*
X148324000Y-108929259D01*
X148324000Y-108240740D01*
X148337037Y-108108377D01*
X148337037Y-108108373D01*
X148388557Y-107938534D01*
X148472223Y-107782009D01*
X148509668Y-107736382D01*
X148584815Y-107644814D01*
X148704839Y-107546314D01*
X148722010Y-107532222D01*
X148878535Y-107448557D01*
X149048374Y-107397037D01*
X149225000Y-107379641D01*
X149401627Y-107397037D01*
G37*
G36*
X151941627Y-107397037D02*
G01*
X152111466Y-107448557D01*
X152267991Y-107532222D01*
X152285162Y-107546314D01*
X152405186Y-107644814D01*
X152480333Y-107736382D01*
X152517778Y-107782009D01*
X152601443Y-107938534D01*
X152652963Y-108108373D01*
X152652963Y-108108376D01*
X152666000Y-108240741D01*
X152666000Y-108929260D01*
X152659481Y-108995443D01*
X152652963Y-109061627D01*
X152601443Y-109231466D01*
X152517778Y-109387991D01*
X152488448Y-109423729D01*
X152405186Y-109525186D01*
X152267989Y-109637779D01*
X152111467Y-109721442D01*
X152111465Y-109721443D01*
X151941626Y-109772963D01*
X151765000Y-109790359D01*
X151588373Y-109772963D01*
X151418534Y-109721443D01*
X151262009Y-109637778D01*
X151226271Y-109608448D01*
X151124814Y-109525186D01*
X151012221Y-109387989D01*
X150928558Y-109231467D01*
X150928557Y-109231465D01*
X150877037Y-109061626D01*
X150866223Y-108951825D01*
X150864000Y-108929259D01*
X150864000Y-108240740D01*
X150877037Y-108108377D01*
X150877037Y-108108373D01*
X150928557Y-107938534D01*
X151012223Y-107782009D01*
X151049668Y-107736382D01*
X151124815Y-107644814D01*
X151244839Y-107546314D01*
X151262010Y-107532222D01*
X151418535Y-107448557D01*
X151588374Y-107397037D01*
X151765000Y-107379641D01*
X151941627Y-107397037D01*
G37*
G36*
X154481627Y-107397037D02*
G01*
X154651466Y-107448557D01*
X154807991Y-107532222D01*
X154825162Y-107546314D01*
X154945186Y-107644814D01*
X155020333Y-107736382D01*
X155057778Y-107782009D01*
X155141443Y-107938534D01*
X155192963Y-108108373D01*
X155192963Y-108108376D01*
X155206000Y-108240741D01*
X155206000Y-108929260D01*
X155199481Y-108995443D01*
X155192963Y-109061627D01*
X155141443Y-109231466D01*
X155057778Y-109387991D01*
X155028448Y-109423729D01*
X154945186Y-109525186D01*
X154807989Y-109637779D01*
X154651467Y-109721442D01*
X154651465Y-109721443D01*
X154481626Y-109772963D01*
X154305000Y-109790359D01*
X154128373Y-109772963D01*
X153958534Y-109721443D01*
X153802009Y-109637778D01*
X153766271Y-109608448D01*
X153664814Y-109525186D01*
X153552221Y-109387989D01*
X153468558Y-109231467D01*
X153468557Y-109231465D01*
X153417037Y-109061626D01*
X153406223Y-108951825D01*
X153404000Y-108929259D01*
X153404000Y-108240740D01*
X153417037Y-108108377D01*
X153417037Y-108108373D01*
X153468557Y-107938534D01*
X153552223Y-107782009D01*
X153589668Y-107736382D01*
X153664815Y-107644814D01*
X153784839Y-107546314D01*
X153802010Y-107532222D01*
X153958535Y-107448557D01*
X154128374Y-107397037D01*
X154305000Y-107379641D01*
X154481627Y-107397037D01*
G37*
G36*
X113296000Y-109786000D02*
G01*
X111494000Y-109786000D01*
X111494000Y-107384000D01*
X113296000Y-107384000D01*
X113296000Y-109786000D01*
G37*
G36*
X157746000Y-109786000D02*
G01*
X155944000Y-109786000D01*
X155944000Y-107384000D01*
X157746000Y-107384000D01*
X157746000Y-109786000D01*
G37*
G36*
X164096000Y-109786000D02*
G01*
X162294000Y-109786000D01*
X162294000Y-107384000D01*
X164096000Y-107384000D01*
X164096000Y-109786000D01*
G37*
G36*
X117741000Y-107731000D02*
G01*
X117663916Y-107731000D01*
X117639530Y-107733402D01*
X117616081Y-107740515D01*
X117594470Y-107752066D01*
X117575528Y-107767611D01*
X117559983Y-107786553D01*
X117548432Y-107808164D01*
X117541319Y-107831613D01*
X117538917Y-107855999D01*
X117541319Y-107880385D01*
X117548432Y-107903834D01*
X117553677Y-107914923D01*
X117630024Y-108057758D01*
X117678687Y-108218178D01*
X117691000Y-108343197D01*
X117691000Y-108826804D01*
X117678687Y-108951823D01*
X117630024Y-109112242D01*
X117566298Y-109231465D01*
X117551004Y-109260078D01*
X117446030Y-109387989D01*
X117444659Y-109389659D01*
X117315077Y-109496005D01*
X117167241Y-109575024D01*
X117006822Y-109623687D01*
X116840000Y-109640117D01*
X116673177Y-109623687D01*
X116512758Y-109575024D01*
X116364924Y-109496005D01*
X116364922Y-109496004D01*
X116235341Y-109389659D01*
X116233970Y-109387989D01*
X116128995Y-109260077D01*
X116049976Y-109112241D01*
X116001313Y-108951822D01*
X115989000Y-108826803D01*
X115989000Y-108343196D01*
X116001313Y-108218177D01*
X116049976Y-108057758D01*
X116126323Y-107914923D01*
X116135701Y-107892284D01*
X116140481Y-107868251D01*
X116140481Y-107843747D01*
X116135701Y-107819714D01*
X116126323Y-107797075D01*
X116112710Y-107776701D01*
X116095383Y-107759374D01*
X116075008Y-107745760D01*
X116052369Y-107736382D01*
X116028336Y-107731602D01*
X116016084Y-107731000D01*
X115939000Y-107731000D01*
X115939000Y-105629000D01*
X117741000Y-105629000D01*
X117741000Y-107731000D01*
G37*
G36*
X93911000Y-109486000D02*
G01*
X91509000Y-109486000D01*
X91509000Y-107684000D01*
X93911000Y-107684000D01*
X93911000Y-109486000D01*
G37*
G36*
X121551000Y-106017584D02*
G01*
X121542695Y-106018402D01*
X121519246Y-106025515D01*
X121497635Y-106037066D01*
X121478693Y-106052611D01*
X121463148Y-106071553D01*
X121451597Y-106093164D01*
X121444484Y-106116613D01*
X121442082Y-106140999D01*
X121447464Y-106177284D01*
X121488687Y-106313178D01*
X121501000Y-106438197D01*
X121501000Y-106921804D01*
X121488687Y-107046823D01*
X121440024Y-107207242D01*
X121369114Y-107339906D01*
X121361004Y-107355078D01*
X121337268Y-107384000D01*
X121254659Y-107484659D01*
X121125077Y-107591005D01*
X120977241Y-107670024D01*
X120816822Y-107718687D01*
X120650000Y-107735117D01*
X120483177Y-107718687D01*
X120322758Y-107670024D01*
X120174924Y-107591005D01*
X120174922Y-107591004D01*
X120045341Y-107484659D01*
X119938995Y-107355077D01*
X119859976Y-107207241D01*
X119811313Y-107046822D01*
X119799000Y-106921803D01*
X119799000Y-106438196D01*
X119811313Y-106313177D01*
X119852536Y-106177284D01*
X119857316Y-106153251D01*
X119857316Y-106128747D01*
X119852536Y-106104714D01*
X119843158Y-106082075D01*
X119829545Y-106061701D01*
X119812218Y-106044374D01*
X119791843Y-106030760D01*
X119769204Y-106021382D01*
X119749000Y-106017364D01*
X119749000Y-103914000D01*
X121551000Y-103914000D01*
X121551000Y-106017584D01*
G37*
G36*
X124726000Y-105826000D02*
G01*
X124648916Y-105826000D01*
X124624530Y-105828402D01*
X124601081Y-105835515D01*
X124579470Y-105847066D01*
X124560528Y-105862611D01*
X124544983Y-105881553D01*
X124533432Y-105903164D01*
X124526319Y-105926613D01*
X124523917Y-105950999D01*
X124526319Y-105975385D01*
X124533432Y-105998834D01*
X124538677Y-106009923D01*
X124615024Y-106152758D01*
X124663687Y-106313178D01*
X124676000Y-106438197D01*
X124676000Y-106921804D01*
X124663687Y-107046823D01*
X124615024Y-107207242D01*
X124544114Y-107339906D01*
X124536004Y-107355078D01*
X124512268Y-107384000D01*
X124429659Y-107484659D01*
X124300077Y-107591005D01*
X124152241Y-107670024D01*
X123991822Y-107718687D01*
X123825000Y-107735117D01*
X123658177Y-107718687D01*
X123497758Y-107670024D01*
X123349924Y-107591005D01*
X123349922Y-107591004D01*
X123220341Y-107484659D01*
X123113995Y-107355077D01*
X123034976Y-107207241D01*
X122986313Y-107046822D01*
X122974000Y-106921803D01*
X122974000Y-106438196D01*
X122986313Y-106313177D01*
X123034976Y-106152758D01*
X123111323Y-106009923D01*
X123120701Y-105987284D01*
X123125481Y-105963251D01*
X123125481Y-105938747D01*
X123120701Y-105914714D01*
X123111323Y-105892075D01*
X123097710Y-105871701D01*
X123080383Y-105854374D01*
X123060008Y-105840760D01*
X123037369Y-105831382D01*
X123013336Y-105826602D01*
X123001084Y-105826000D01*
X122924000Y-105826000D01*
X122924000Y-103724000D01*
X124726000Y-103724000D01*
X124726000Y-105826000D01*
G37*
G36*
X93120443Y-105150519D02*
G01*
X93186627Y-105157037D01*
X93356466Y-105208557D01*
X93512991Y-105292222D01*
X93548729Y-105321552D01*
X93650186Y-105404814D01*
X93733448Y-105506271D01*
X93762778Y-105542009D01*
X93846443Y-105698534D01*
X93897963Y-105868373D01*
X93915359Y-106045000D01*
X93897963Y-106221627D01*
X93846443Y-106391466D01*
X93762778Y-106547991D01*
X93733448Y-106583729D01*
X93650186Y-106685186D01*
X93548729Y-106768448D01*
X93512991Y-106797778D01*
X93356466Y-106881443D01*
X93186627Y-106932963D01*
X93120442Y-106939482D01*
X93054260Y-106946000D01*
X92365740Y-106946000D01*
X92299558Y-106939482D01*
X92233373Y-106932963D01*
X92063534Y-106881443D01*
X91907009Y-106797778D01*
X91871271Y-106768448D01*
X91769814Y-106685186D01*
X91686552Y-106583729D01*
X91657222Y-106547991D01*
X91573557Y-106391466D01*
X91522037Y-106221627D01*
X91504641Y-106045000D01*
X91522037Y-105868373D01*
X91573557Y-105698534D01*
X91657222Y-105542009D01*
X91686552Y-105506271D01*
X91769814Y-105404814D01*
X91871271Y-105321552D01*
X91907009Y-105292222D01*
X92063534Y-105208557D01*
X92233373Y-105157037D01*
X92299558Y-105150518D01*
X92365740Y-105144000D01*
X93054260Y-105144000D01*
X93120443Y-105150519D01*
G37*
G36*
X93120442Y-102610518D02*
G01*
X93186627Y-102617037D01*
X93356466Y-102668557D01*
X93512991Y-102752222D01*
X93548729Y-102781552D01*
X93650186Y-102864814D01*
X93733448Y-102966271D01*
X93762778Y-103002009D01*
X93846443Y-103158534D01*
X93897963Y-103328373D01*
X93915359Y-103505000D01*
X93897963Y-103681627D01*
X93846443Y-103851466D01*
X93762778Y-104007991D01*
X93733448Y-104043729D01*
X93650186Y-104145186D01*
X93548729Y-104228448D01*
X93512991Y-104257778D01*
X93356466Y-104341443D01*
X93186627Y-104392963D01*
X93120442Y-104399482D01*
X93054260Y-104406000D01*
X92365740Y-104406000D01*
X92299558Y-104399482D01*
X92233373Y-104392963D01*
X92063534Y-104341443D01*
X91907009Y-104257778D01*
X91871271Y-104228448D01*
X91769814Y-104145186D01*
X91686552Y-104043729D01*
X91657222Y-104007991D01*
X91573557Y-103851466D01*
X91522037Y-103681627D01*
X91504641Y-103505000D01*
X91522037Y-103328373D01*
X91573557Y-103158534D01*
X91657222Y-103002009D01*
X91686552Y-102966271D01*
X91769814Y-102864814D01*
X91871271Y-102781552D01*
X91907009Y-102752222D01*
X92063534Y-102668557D01*
X92233373Y-102617037D01*
X92299558Y-102610518D01*
X92365740Y-102604000D01*
X93054260Y-102604000D01*
X93120442Y-102610518D01*
G37*
G36*
X131604376Y-101568764D02*
G01*
X131754291Y-101614240D01*
X131757630Y-101615253D01*
X131898863Y-101690744D01*
X132022659Y-101792341D01*
X132124256Y-101916137D01*
X132199747Y-102057370D01*
X132199748Y-102057373D01*
X132246236Y-102210624D01*
X132258000Y-102330067D01*
X132258000Y-103409933D01*
X132246236Y-103529376D01*
X132200052Y-103681625D01*
X132199747Y-103682630D01*
X132124256Y-103823863D01*
X132022659Y-103947659D01*
X131898863Y-104049256D01*
X131757629Y-104124747D01*
X131757626Y-104124748D01*
X131604375Y-104171236D01*
X131445000Y-104186933D01*
X131285624Y-104171236D01*
X131132373Y-104124748D01*
X131132370Y-104124747D01*
X130991137Y-104049256D01*
X130867341Y-103947659D01*
X130765744Y-103823863D01*
X130690253Y-103682629D01*
X130689948Y-103681625D01*
X130643764Y-103529375D01*
X130632000Y-103409932D01*
X130632001Y-102330067D01*
X130643765Y-102210624D01*
X130690253Y-102057373D01*
X130690254Y-102057370D01*
X130765745Y-101916137D01*
X130867342Y-101792341D01*
X130991138Y-101690744D01*
X131132371Y-101615253D01*
X131135710Y-101614240D01*
X131285625Y-101568764D01*
X131445000Y-101553067D01*
X131604376Y-101568764D01*
G37*
G36*
X146844376Y-101568764D02*
G01*
X146994291Y-101614240D01*
X146997630Y-101615253D01*
X147138863Y-101690744D01*
X147262659Y-101792341D01*
X147364256Y-101916137D01*
X147439747Y-102057370D01*
X147439748Y-102057373D01*
X147486236Y-102210624D01*
X147498000Y-102330067D01*
X147498000Y-103409933D01*
X147486236Y-103529376D01*
X147440052Y-103681625D01*
X147439747Y-103682630D01*
X147364256Y-103823863D01*
X147262659Y-103947659D01*
X147138863Y-104049256D01*
X146997629Y-104124747D01*
X146997626Y-104124748D01*
X146844375Y-104171236D01*
X146685000Y-104186933D01*
X146525624Y-104171236D01*
X146372373Y-104124748D01*
X146372370Y-104124747D01*
X146231137Y-104049256D01*
X146107341Y-103947659D01*
X146005744Y-103823863D01*
X145930253Y-103682629D01*
X145929948Y-103681625D01*
X145883764Y-103529375D01*
X145872000Y-103409932D01*
X145872001Y-102330067D01*
X145883765Y-102210624D01*
X145930253Y-102057373D01*
X145930254Y-102057370D01*
X146005745Y-101916137D01*
X146107342Y-101792341D01*
X146231138Y-101690744D01*
X146372371Y-101615253D01*
X146375710Y-101614240D01*
X146525625Y-101568764D01*
X146685000Y-101553067D01*
X146844376Y-101568764D01*
G37*
G36*
X149384376Y-101568764D02*
G01*
X149534291Y-101614240D01*
X149537630Y-101615253D01*
X149678863Y-101690744D01*
X149802659Y-101792341D01*
X149904256Y-101916137D01*
X149979747Y-102057370D01*
X149979748Y-102057373D01*
X150026236Y-102210624D01*
X150038000Y-102330067D01*
X150038000Y-103409933D01*
X150026236Y-103529376D01*
X149980052Y-103681625D01*
X149979747Y-103682630D01*
X149904256Y-103823863D01*
X149802659Y-103947659D01*
X149678863Y-104049256D01*
X149537629Y-104124747D01*
X149537626Y-104124748D01*
X149384375Y-104171236D01*
X149225000Y-104186933D01*
X149065624Y-104171236D01*
X148912373Y-104124748D01*
X148912370Y-104124747D01*
X148771137Y-104049256D01*
X148647341Y-103947659D01*
X148545744Y-103823863D01*
X148470253Y-103682629D01*
X148469948Y-103681625D01*
X148423764Y-103529375D01*
X148412000Y-103409932D01*
X148412001Y-102330067D01*
X148423765Y-102210624D01*
X148470253Y-102057373D01*
X148470254Y-102057370D01*
X148545745Y-101916137D01*
X148647342Y-101792341D01*
X148771138Y-101690744D01*
X148912371Y-101615253D01*
X148915710Y-101614240D01*
X149065625Y-101568764D01*
X149225000Y-101553067D01*
X149384376Y-101568764D01*
G37*
G36*
X151924376Y-101568764D02*
G01*
X152074291Y-101614240D01*
X152077630Y-101615253D01*
X152218863Y-101690744D01*
X152342659Y-101792341D01*
X152444256Y-101916137D01*
X152519747Y-102057370D01*
X152519748Y-102057373D01*
X152566236Y-102210624D01*
X152578000Y-102330067D01*
X152578000Y-103409933D01*
X152566236Y-103529376D01*
X152520052Y-103681625D01*
X152519747Y-103682630D01*
X152444256Y-103823863D01*
X152342659Y-103947659D01*
X152218863Y-104049256D01*
X152077629Y-104124747D01*
X152077626Y-104124748D01*
X151924375Y-104171236D01*
X151765000Y-104186933D01*
X151605624Y-104171236D01*
X151452373Y-104124748D01*
X151452370Y-104124747D01*
X151311137Y-104049256D01*
X151187341Y-103947659D01*
X151085744Y-103823863D01*
X151010253Y-103682629D01*
X151009948Y-103681625D01*
X150963764Y-103529375D01*
X150952000Y-103409932D01*
X150952001Y-102330067D01*
X150963765Y-102210624D01*
X151010253Y-102057373D01*
X151010254Y-102057370D01*
X151085745Y-101916137D01*
X151187342Y-101792341D01*
X151311138Y-101690744D01*
X151452371Y-101615253D01*
X151455710Y-101614240D01*
X151605625Y-101568764D01*
X151765000Y-101553067D01*
X151924376Y-101568764D01*
G37*
G36*
X154464376Y-101568764D02*
G01*
X154614291Y-101614240D01*
X154617630Y-101615253D01*
X154758863Y-101690744D01*
X154882659Y-101792341D01*
X154984256Y-101916137D01*
X155059747Y-102057370D01*
X155059748Y-102057373D01*
X155106236Y-102210624D01*
X155118000Y-102330067D01*
X155118000Y-103409933D01*
X155106236Y-103529376D01*
X155060052Y-103681625D01*
X155059747Y-103682630D01*
X154984256Y-103823863D01*
X154882659Y-103947659D01*
X154758863Y-104049256D01*
X154617629Y-104124747D01*
X154617626Y-104124748D01*
X154464375Y-104171236D01*
X154305000Y-104186933D01*
X154145624Y-104171236D01*
X153992373Y-104124748D01*
X153992370Y-104124747D01*
X153851137Y-104049256D01*
X153727341Y-103947659D01*
X153625744Y-103823863D01*
X153550253Y-103682629D01*
X153549948Y-103681625D01*
X153503764Y-103529375D01*
X153492000Y-103409932D01*
X153492001Y-102330067D01*
X153503765Y-102210624D01*
X153550253Y-102057373D01*
X153550254Y-102057370D01*
X153625745Y-101916137D01*
X153727342Y-101792341D01*
X153851138Y-101690744D01*
X153992371Y-101615253D01*
X153995710Y-101614240D01*
X154145625Y-101568764D01*
X154305000Y-101553067D01*
X154464376Y-101568764D01*
G37*
G36*
X157004376Y-101568764D02*
G01*
X157154291Y-101614240D01*
X157157630Y-101615253D01*
X157298863Y-101690744D01*
X157422659Y-101792341D01*
X157524256Y-101916137D01*
X157599747Y-102057370D01*
X157599748Y-102057373D01*
X157646236Y-102210624D01*
X157658000Y-102330067D01*
X157658000Y-103409933D01*
X157646236Y-103529376D01*
X157600052Y-103681625D01*
X157599747Y-103682630D01*
X157524256Y-103823863D01*
X157422659Y-103947659D01*
X157298863Y-104049256D01*
X157157629Y-104124747D01*
X157157626Y-104124748D01*
X157004375Y-104171236D01*
X156845000Y-104186933D01*
X156685624Y-104171236D01*
X156532373Y-104124748D01*
X156532370Y-104124747D01*
X156391137Y-104049256D01*
X156267341Y-103947659D01*
X156165744Y-103823863D01*
X156090253Y-103682629D01*
X156089948Y-103681625D01*
X156043764Y-103529375D01*
X156032000Y-103409932D01*
X156032001Y-102330067D01*
X156043765Y-102210624D01*
X156090253Y-102057373D01*
X156090254Y-102057370D01*
X156165745Y-101916137D01*
X156267342Y-101792341D01*
X156391138Y-101690744D01*
X156532371Y-101615253D01*
X156535710Y-101614240D01*
X156685625Y-101568764D01*
X156845000Y-101553067D01*
X157004376Y-101568764D01*
G37*
G36*
X139224376Y-101568764D02*
G01*
X139374291Y-101614240D01*
X139377630Y-101615253D01*
X139518863Y-101690744D01*
X139642659Y-101792341D01*
X139744256Y-101916137D01*
X139819747Y-102057370D01*
X139819748Y-102057373D01*
X139866236Y-102210624D01*
X139878000Y-102330067D01*
X139878000Y-103409933D01*
X139866236Y-103529376D01*
X139820052Y-103681625D01*
X139819747Y-103682630D01*
X139744256Y-103823863D01*
X139642659Y-103947659D01*
X139518863Y-104049256D01*
X139377629Y-104124747D01*
X139377626Y-104124748D01*
X139224375Y-104171236D01*
X139065000Y-104186933D01*
X138905624Y-104171236D01*
X138752373Y-104124748D01*
X138752370Y-104124747D01*
X138611137Y-104049256D01*
X138487341Y-103947659D01*
X138385744Y-103823863D01*
X138310253Y-103682629D01*
X138309948Y-103681625D01*
X138263764Y-103529375D01*
X138252000Y-103409932D01*
X138252001Y-102330067D01*
X138263765Y-102210624D01*
X138310253Y-102057373D01*
X138310254Y-102057370D01*
X138385745Y-101916137D01*
X138487342Y-101792341D01*
X138611138Y-101690744D01*
X138752371Y-101615253D01*
X138755710Y-101614240D01*
X138905625Y-101568764D01*
X139065000Y-101553067D01*
X139224376Y-101568764D01*
G37*
G36*
X141764376Y-101568764D02*
G01*
X141914291Y-101614240D01*
X141917630Y-101615253D01*
X142058863Y-101690744D01*
X142182659Y-101792341D01*
X142284256Y-101916137D01*
X142359747Y-102057370D01*
X142359748Y-102057373D01*
X142406236Y-102210624D01*
X142418000Y-102330067D01*
X142418000Y-103409933D01*
X142406236Y-103529376D01*
X142360052Y-103681625D01*
X142359747Y-103682630D01*
X142284256Y-103823863D01*
X142182659Y-103947659D01*
X142058863Y-104049256D01*
X141917629Y-104124747D01*
X141917626Y-104124748D01*
X141764375Y-104171236D01*
X141605000Y-104186933D01*
X141445624Y-104171236D01*
X141292373Y-104124748D01*
X141292370Y-104124747D01*
X141151137Y-104049256D01*
X141027341Y-103947659D01*
X140925744Y-103823863D01*
X140850253Y-103682629D01*
X140849948Y-103681625D01*
X140803764Y-103529375D01*
X140792000Y-103409932D01*
X140792001Y-102330067D01*
X140803765Y-102210624D01*
X140850253Y-102057373D01*
X140850254Y-102057370D01*
X140925745Y-101916137D01*
X141027342Y-101792341D01*
X141151138Y-101690744D01*
X141292371Y-101615253D01*
X141295710Y-101614240D01*
X141445625Y-101568764D01*
X141605000Y-101553067D01*
X141764376Y-101568764D01*
G37*
G36*
X144304376Y-101568764D02*
G01*
X144454291Y-101614240D01*
X144457630Y-101615253D01*
X144598863Y-101690744D01*
X144722659Y-101792341D01*
X144824256Y-101916137D01*
X144899747Y-102057370D01*
X144899748Y-102057373D01*
X144946236Y-102210624D01*
X144958000Y-102330067D01*
X144958000Y-103409933D01*
X144946236Y-103529376D01*
X144900052Y-103681625D01*
X144899747Y-103682630D01*
X144824256Y-103823863D01*
X144722659Y-103947659D01*
X144598863Y-104049256D01*
X144457629Y-104124747D01*
X144457626Y-104124748D01*
X144304375Y-104171236D01*
X144145000Y-104186933D01*
X143985624Y-104171236D01*
X143832373Y-104124748D01*
X143832370Y-104124747D01*
X143691137Y-104049256D01*
X143567341Y-103947659D01*
X143465744Y-103823863D01*
X143390253Y-103682629D01*
X143389948Y-103681625D01*
X143343764Y-103529375D01*
X143332000Y-103409932D01*
X143332001Y-102330067D01*
X143343765Y-102210624D01*
X143390253Y-102057373D01*
X143390254Y-102057370D01*
X143465745Y-101916137D01*
X143567342Y-101792341D01*
X143691138Y-101690744D01*
X143832371Y-101615253D01*
X143835710Y-101614240D01*
X143985625Y-101568764D01*
X144145000Y-101553067D01*
X144304376Y-101568764D01*
G37*
G36*
X134144376Y-101568764D02*
G01*
X134294291Y-101614240D01*
X134297630Y-101615253D01*
X134438863Y-101690744D01*
X134562659Y-101792341D01*
X134664256Y-101916137D01*
X134739747Y-102057370D01*
X134739748Y-102057373D01*
X134786236Y-102210624D01*
X134798000Y-102330067D01*
X134798000Y-103409933D01*
X134786236Y-103529376D01*
X134740052Y-103681625D01*
X134739747Y-103682630D01*
X134664256Y-103823863D01*
X134562659Y-103947659D01*
X134438863Y-104049256D01*
X134297629Y-104124747D01*
X134297626Y-104124748D01*
X134144375Y-104171236D01*
X133985000Y-104186933D01*
X133825624Y-104171236D01*
X133672373Y-104124748D01*
X133672370Y-104124747D01*
X133531137Y-104049256D01*
X133407341Y-103947659D01*
X133305744Y-103823863D01*
X133230253Y-103682629D01*
X133229948Y-103681625D01*
X133183764Y-103529375D01*
X133172000Y-103409932D01*
X133172001Y-102330067D01*
X133183765Y-102210624D01*
X133230253Y-102057373D01*
X133230254Y-102057370D01*
X133305745Y-101916137D01*
X133407342Y-101792341D01*
X133531138Y-101690744D01*
X133672371Y-101615253D01*
X133675710Y-101614240D01*
X133825625Y-101568764D01*
X133985000Y-101553067D01*
X134144376Y-101568764D01*
G37*
G36*
X136684376Y-101568764D02*
G01*
X136834291Y-101614240D01*
X136837630Y-101615253D01*
X136978863Y-101690744D01*
X137102659Y-101792341D01*
X137204256Y-101916137D01*
X137279747Y-102057370D01*
X137279748Y-102057373D01*
X137326236Y-102210624D01*
X137338000Y-102330067D01*
X137338000Y-103409933D01*
X137326236Y-103529376D01*
X137280052Y-103681625D01*
X137279747Y-103682630D01*
X137204256Y-103823863D01*
X137102659Y-103947659D01*
X136978863Y-104049256D01*
X136837629Y-104124747D01*
X136837626Y-104124748D01*
X136684375Y-104171236D01*
X136525000Y-104186933D01*
X136365624Y-104171236D01*
X136212373Y-104124748D01*
X136212370Y-104124747D01*
X136071137Y-104049256D01*
X135947341Y-103947659D01*
X135845744Y-103823863D01*
X135770253Y-103682629D01*
X135769948Y-103681625D01*
X135723764Y-103529375D01*
X135712000Y-103409932D01*
X135712001Y-102330067D01*
X135723765Y-102210624D01*
X135770253Y-102057373D01*
X135770254Y-102057370D01*
X135845745Y-101916137D01*
X135947342Y-101792341D01*
X136071138Y-101690744D01*
X136212371Y-101615253D01*
X136215710Y-101614240D01*
X136365625Y-101568764D01*
X136525000Y-101553067D01*
X136684376Y-101568764D01*
G37*
G36*
X117006823Y-99926313D02*
G01*
X117167242Y-99974976D01*
X117213205Y-99999544D01*
X117315078Y-100053996D01*
X117444659Y-100160341D01*
X117551004Y-100289922D01*
X117551005Y-100289924D01*
X117630024Y-100437758D01*
X117630025Y-100437761D01*
X117637381Y-100462011D01*
X117678687Y-100598178D01*
X117691000Y-100723197D01*
X117691000Y-101206804D01*
X117678687Y-101331823D01*
X117637464Y-101467716D01*
X117632684Y-101491749D01*
X117632684Y-101516253D01*
X117637464Y-101540286D01*
X117646842Y-101562925D01*
X117660455Y-101583299D01*
X117677782Y-101600626D01*
X117698157Y-101614240D01*
X117720796Y-101623618D01*
X117741000Y-101627636D01*
X117741000Y-103731000D01*
X115939000Y-103731000D01*
X115939000Y-101627416D01*
X115947305Y-101626598D01*
X115970754Y-101619485D01*
X115992365Y-101607934D01*
X116011307Y-101592389D01*
X116026852Y-101573447D01*
X116038403Y-101551836D01*
X116045516Y-101528387D01*
X116047918Y-101504001D01*
X116042536Y-101467716D01*
X116001313Y-101331822D01*
X115989000Y-101206803D01*
X115989000Y-100723196D01*
X116001313Y-100598177D01*
X116049976Y-100437758D01*
X116128995Y-100289924D01*
X116128996Y-100289922D01*
X116235342Y-100160341D01*
X116364923Y-100053996D01*
X116466796Y-99999544D01*
X116512759Y-99974976D01*
X116673178Y-99926313D01*
X116840000Y-99909883D01*
X117006823Y-99926313D01*
G37*
G36*
X100221790Y-99863403D02*
G01*
X100491150Y-99974976D01*
X100550462Y-99999544D01*
X100631955Y-100053996D01*
X100791112Y-100160341D01*
X100846258Y-100197189D01*
X101097811Y-100448742D01*
X101281196Y-100723196D01*
X101295457Y-100744540D01*
X101431597Y-101073210D01*
X101501000Y-101422123D01*
X101501000Y-101777877D01*
X101431597Y-102126790D01*
X101295457Y-102455460D01*
X101153070Y-102668558D01*
X101097811Y-102751258D01*
X100846258Y-103002811D01*
X100550462Y-103200456D01*
X100550461Y-103200457D01*
X100550460Y-103200457D01*
X100221790Y-103336597D01*
X99872877Y-103406000D01*
X99517123Y-103406000D01*
X99168210Y-103336597D01*
X98839540Y-103200457D01*
X98839539Y-103200457D01*
X98839538Y-103200456D01*
X98543742Y-103002811D01*
X98292189Y-102751258D01*
X98236931Y-102668558D01*
X98094543Y-102455460D01*
X97958403Y-102126790D01*
X97889000Y-101777877D01*
X97889000Y-101422123D01*
X97958403Y-101073210D01*
X98094543Y-100744540D01*
X98108805Y-100723196D01*
X98292189Y-100448742D01*
X98543742Y-100197189D01*
X98598889Y-100160341D01*
X98758045Y-100053996D01*
X98839538Y-99999544D01*
X98898850Y-99974976D01*
X99168210Y-99863403D01*
X99517123Y-99794000D01*
X99872877Y-99794000D01*
X100221790Y-99863403D01*
G37*
G36*
X112948894Y-100788375D02*
G01*
X113054376Y-100798764D01*
X113207627Y-100845252D01*
X113207630Y-100845253D01*
X113348863Y-100920744D01*
X113472659Y-101022341D01*
X113574256Y-101146137D01*
X113649747Y-101287370D01*
X113649748Y-101287373D01*
X113696236Y-101440624D01*
X113711933Y-101600000D01*
X113696236Y-101759376D01*
X113686236Y-101792341D01*
X113649747Y-101912630D01*
X113574256Y-102053863D01*
X113472659Y-102177659D01*
X113348863Y-102279256D01*
X113207630Y-102354747D01*
X113207627Y-102354748D01*
X113054376Y-102401236D01*
X112974747Y-102409079D01*
X112934934Y-102413000D01*
X111855066Y-102413000D01*
X111815253Y-102409079D01*
X111735624Y-102401236D01*
X111582373Y-102354748D01*
X111582370Y-102354747D01*
X111441137Y-102279256D01*
X111317341Y-102177659D01*
X111215744Y-102053863D01*
X111140253Y-101912630D01*
X111103764Y-101792341D01*
X111093764Y-101759376D01*
X111078067Y-101600000D01*
X111093764Y-101440624D01*
X111140252Y-101287373D01*
X111140253Y-101287370D01*
X111215744Y-101146137D01*
X111317341Y-101022341D01*
X111441137Y-100920744D01*
X111582370Y-100845253D01*
X111582373Y-100845252D01*
X111735624Y-100798764D01*
X111841106Y-100788375D01*
X111855066Y-100787000D01*
X112934934Y-100787000D01*
X112948894Y-100788375D01*
G37*
G36*
X120816823Y-98021313D02*
G01*
X120977242Y-98069976D01*
X121109906Y-98140886D01*
X121125078Y-98148996D01*
X121254659Y-98255341D01*
X121361004Y-98384922D01*
X121361005Y-98384924D01*
X121440024Y-98532758D01*
X121440025Y-98532761D01*
X121447381Y-98557011D01*
X121488687Y-98693178D01*
X121501000Y-98818197D01*
X121501000Y-99301804D01*
X121488687Y-99426823D01*
X121440024Y-99587242D01*
X121363677Y-99730077D01*
X121354299Y-99752716D01*
X121349519Y-99776749D01*
X121349519Y-99801253D01*
X121354299Y-99825286D01*
X121363677Y-99847925D01*
X121377290Y-99868299D01*
X121394617Y-99885626D01*
X121414992Y-99899240D01*
X121437631Y-99908618D01*
X121461664Y-99913398D01*
X121473916Y-99914000D01*
X121551000Y-99914000D01*
X121551000Y-102016000D01*
X119749000Y-102016000D01*
X119749000Y-99914000D01*
X119826084Y-99914000D01*
X119850470Y-99911598D01*
X119873919Y-99904485D01*
X119895530Y-99892934D01*
X119914472Y-99877389D01*
X119930017Y-99858447D01*
X119941568Y-99836836D01*
X119948681Y-99813387D01*
X119951083Y-99789001D01*
X119948681Y-99764615D01*
X119936323Y-99730077D01*
X119859976Y-99587241D01*
X119811313Y-99426822D01*
X119799000Y-99301803D01*
X119799000Y-98818196D01*
X119811313Y-98693177D01*
X119859976Y-98532758D01*
X119938995Y-98384924D01*
X119938996Y-98384922D01*
X120045342Y-98255341D01*
X120174923Y-98148996D01*
X120190095Y-98140886D01*
X120322759Y-98069976D01*
X120483178Y-98021313D01*
X120650000Y-98004883D01*
X120816823Y-98021313D01*
G37*
G36*
X93120442Y-100070518D02*
G01*
X93186627Y-100077037D01*
X93356466Y-100128557D01*
X93512991Y-100212222D01*
X93548729Y-100241552D01*
X93650186Y-100324814D01*
X93733448Y-100426271D01*
X93762778Y-100462009D01*
X93846443Y-100618534D01*
X93897963Y-100788373D01*
X93915359Y-100965000D01*
X93897963Y-101141627D01*
X93846443Y-101311466D01*
X93762778Y-101467991D01*
X93743280Y-101491749D01*
X93650186Y-101605186D01*
X93548729Y-101688448D01*
X93512991Y-101717778D01*
X93356466Y-101801443D01*
X93186627Y-101852963D01*
X93120443Y-101859481D01*
X93054260Y-101866000D01*
X92365740Y-101866000D01*
X92299558Y-101859482D01*
X92233373Y-101852963D01*
X92063534Y-101801443D01*
X91907009Y-101717778D01*
X91871271Y-101688448D01*
X91769814Y-101605186D01*
X91676720Y-101491749D01*
X91657222Y-101467991D01*
X91573557Y-101311466D01*
X91522037Y-101141627D01*
X91504641Y-100965000D01*
X91522037Y-100788373D01*
X91573557Y-100618534D01*
X91657222Y-100462009D01*
X91686552Y-100426271D01*
X91769814Y-100324814D01*
X91871271Y-100241552D01*
X91907009Y-100212222D01*
X92063534Y-100128557D01*
X92233373Y-100077037D01*
X92299557Y-100070519D01*
X92365740Y-100064000D01*
X93054260Y-100064000D01*
X93120442Y-100070518D01*
G37*
G36*
X123991823Y-98021313D02*
G01*
X124152242Y-98069976D01*
X124284906Y-98140886D01*
X124300078Y-98148996D01*
X124429659Y-98255341D01*
X124536004Y-98384922D01*
X124536005Y-98384924D01*
X124615024Y-98532758D01*
X124615025Y-98532761D01*
X124622381Y-98557011D01*
X124663687Y-98693178D01*
X124676000Y-98818197D01*
X124676000Y-99301804D01*
X124663687Y-99426823D01*
X124622464Y-99562716D01*
X124617684Y-99586749D01*
X124617684Y-99611253D01*
X124622464Y-99635286D01*
X124631842Y-99657925D01*
X124645455Y-99678299D01*
X124662782Y-99695626D01*
X124683157Y-99709240D01*
X124705796Y-99718618D01*
X124726000Y-99722636D01*
X124726000Y-101826000D01*
X122924000Y-101826000D01*
X122924000Y-99722416D01*
X122932305Y-99721598D01*
X122955754Y-99714485D01*
X122977365Y-99702934D01*
X122996307Y-99687389D01*
X123011852Y-99668447D01*
X123023403Y-99646836D01*
X123030516Y-99623387D01*
X123032918Y-99599001D01*
X123027536Y-99562716D01*
X122986313Y-99426822D01*
X122974000Y-99301803D01*
X122974000Y-98818196D01*
X122986313Y-98693177D01*
X123034976Y-98532758D01*
X123113995Y-98384924D01*
X123113996Y-98384922D01*
X123220342Y-98255341D01*
X123349923Y-98148996D01*
X123365095Y-98140886D01*
X123497759Y-98069976D01*
X123658178Y-98021313D01*
X123825000Y-98004883D01*
X123991823Y-98021313D01*
G37*
G36*
X163605443Y-98165519D02*
G01*
X163671627Y-98172037D01*
X163841466Y-98223557D01*
X163997991Y-98307222D01*
X164033729Y-98336552D01*
X164135186Y-98419814D01*
X164218448Y-98521271D01*
X164247778Y-98557009D01*
X164331443Y-98713534D01*
X164382963Y-98883373D01*
X164400359Y-99060000D01*
X164382963Y-99236627D01*
X164331443Y-99406466D01*
X164247778Y-99562991D01*
X164218448Y-99598729D01*
X164135186Y-99700186D01*
X164041892Y-99776749D01*
X163997991Y-99812778D01*
X163841466Y-99896443D01*
X163671627Y-99947963D01*
X163605443Y-99954481D01*
X163539260Y-99961000D01*
X162850740Y-99961000D01*
X162784557Y-99954481D01*
X162718373Y-99947963D01*
X162548534Y-99896443D01*
X162392009Y-99812778D01*
X162348108Y-99776749D01*
X162254814Y-99700186D01*
X162171552Y-99598729D01*
X162142222Y-99562991D01*
X162058557Y-99406466D01*
X162007037Y-99236627D01*
X161989641Y-99060000D01*
X162007037Y-98883373D01*
X162058557Y-98713534D01*
X162142222Y-98557009D01*
X162171552Y-98521271D01*
X162254814Y-98419814D01*
X162356271Y-98336552D01*
X162392009Y-98307222D01*
X162548534Y-98223557D01*
X162718373Y-98172037D01*
X162784557Y-98165519D01*
X162850740Y-98159000D01*
X163539260Y-98159000D01*
X163605443Y-98165519D01*
G37*
G36*
X112974747Y-98250921D02*
G01*
X113054376Y-98258764D01*
X113207627Y-98305252D01*
X113207630Y-98305253D01*
X113348863Y-98380744D01*
X113472659Y-98482341D01*
X113574256Y-98606137D01*
X113649747Y-98747370D01*
X113649748Y-98747373D01*
X113696236Y-98900624D01*
X113711933Y-99060000D01*
X113696236Y-99219376D01*
X113671233Y-99301799D01*
X113649747Y-99372630D01*
X113574256Y-99513863D01*
X113472659Y-99637659D01*
X113348863Y-99739256D01*
X113207630Y-99814747D01*
X113207627Y-99814748D01*
X113054376Y-99861236D01*
X112982663Y-99868299D01*
X112934934Y-99873000D01*
X111855066Y-99873000D01*
X111807337Y-99868299D01*
X111735624Y-99861236D01*
X111582373Y-99814748D01*
X111582370Y-99814747D01*
X111441137Y-99739256D01*
X111317341Y-99637659D01*
X111215744Y-99513863D01*
X111140253Y-99372630D01*
X111118767Y-99301799D01*
X111093764Y-99219376D01*
X111078067Y-99060000D01*
X111093764Y-98900624D01*
X111140252Y-98747373D01*
X111140253Y-98747370D01*
X111215744Y-98606137D01*
X111317341Y-98482341D01*
X111441137Y-98380744D01*
X111582370Y-98305253D01*
X111582373Y-98305252D01*
X111735624Y-98258764D01*
X111815253Y-98250921D01*
X111855066Y-98247000D01*
X112934934Y-98247000D01*
X112974747Y-98250921D01*
G37*
G36*
X164396000Y-97421000D02*
G01*
X161994000Y-97421000D01*
X161994000Y-95619000D01*
X164396000Y-95619000D01*
X164396000Y-97421000D01*
G37*
G36*
X112974747Y-95710921D02*
G01*
X113054376Y-95718764D01*
X113207627Y-95765252D01*
X113207630Y-95765253D01*
X113348863Y-95840744D01*
X113472659Y-95942341D01*
X113574256Y-96066137D01*
X113649747Y-96207370D01*
X113649748Y-96207373D01*
X113696236Y-96360624D01*
X113711933Y-96520000D01*
X113696236Y-96679376D01*
X113649748Y-96832627D01*
X113649747Y-96832630D01*
X113574256Y-96973863D01*
X113472659Y-97097659D01*
X113348863Y-97199256D01*
X113207630Y-97274747D01*
X113207627Y-97274748D01*
X113054376Y-97321236D01*
X112974747Y-97329079D01*
X112934934Y-97333000D01*
X111855066Y-97333000D01*
X111815253Y-97329079D01*
X111735624Y-97321236D01*
X111582373Y-97274748D01*
X111582370Y-97274747D01*
X111441137Y-97199256D01*
X111317341Y-97097659D01*
X111215744Y-96973863D01*
X111140253Y-96832630D01*
X111140252Y-96832627D01*
X111093764Y-96679376D01*
X111078067Y-96520000D01*
X111093764Y-96360624D01*
X111140252Y-96207373D01*
X111140253Y-96207370D01*
X111215744Y-96066137D01*
X111317341Y-95942341D01*
X111441137Y-95840744D01*
X111582370Y-95765253D01*
X111582373Y-95765252D01*
X111735624Y-95718764D01*
X111815253Y-95710921D01*
X111855066Y-95707000D01*
X112934934Y-95707000D01*
X112974747Y-95710921D01*
G37*
G36*
X168441000Y-95751000D02*
G01*
X166839000Y-95751000D01*
X166839000Y-94749000D01*
X168441000Y-94749000D01*
X168441000Y-95751000D01*
G37*
G36*
X120181000Y-95751000D02*
G01*
X118579000Y-95751000D01*
X118579000Y-94749000D01*
X120181000Y-94749000D01*
X120181000Y-95751000D01*
G37*
G36*
X124626000Y-95751000D02*
G01*
X123024000Y-95751000D01*
X123024000Y-94749000D01*
X124626000Y-94749000D01*
X124626000Y-95751000D01*
G37*
G36*
X93120443Y-93720519D02*
G01*
X93186627Y-93727037D01*
X93356466Y-93778557D01*
X93356468Y-93778558D01*
X93402893Y-93803373D01*
X93512991Y-93862222D01*
X93536831Y-93881787D01*
X93650186Y-93974814D01*
X93733448Y-94076271D01*
X93762778Y-94112009D01*
X93846443Y-94268534D01*
X93897963Y-94438373D01*
X93915359Y-94615000D01*
X93897963Y-94791627D01*
X93846443Y-94961466D01*
X93762778Y-95117991D01*
X93733448Y-95153729D01*
X93650186Y-95255186D01*
X93548729Y-95338448D01*
X93512991Y-95367778D01*
X93356466Y-95451443D01*
X93186627Y-95502963D01*
X93120443Y-95509481D01*
X93054260Y-95516000D01*
X92365740Y-95516000D01*
X92299557Y-95509481D01*
X92233373Y-95502963D01*
X92063534Y-95451443D01*
X91907009Y-95367778D01*
X91871271Y-95338448D01*
X91769814Y-95255186D01*
X91686552Y-95153729D01*
X91657222Y-95117991D01*
X91573557Y-94961466D01*
X91522037Y-94791627D01*
X91504641Y-94615000D01*
X91522037Y-94438373D01*
X91573557Y-94268534D01*
X91657222Y-94112009D01*
X91686552Y-94076271D01*
X91769814Y-93974814D01*
X91883169Y-93881787D01*
X91907009Y-93862222D01*
X92017107Y-93803373D01*
X92063532Y-93778558D01*
X92063534Y-93778557D01*
X92233373Y-93727037D01*
X92299557Y-93720519D01*
X92365740Y-93714000D01*
X93054260Y-93714000D01*
X93120443Y-93720519D01*
G37*
G36*
X152810443Y-93085519D02*
G01*
X152876627Y-93092037D01*
X153046466Y-93143557D01*
X153202991Y-93227222D01*
X153238729Y-93256552D01*
X153340186Y-93339814D01*
X153423448Y-93441271D01*
X153452778Y-93477009D01*
X153536443Y-93633534D01*
X153587963Y-93803373D01*
X153605359Y-93980000D01*
X153587963Y-94156627D01*
X153536443Y-94326466D01*
X153452778Y-94482991D01*
X153423448Y-94518729D01*
X153340186Y-94620186D01*
X153238729Y-94703448D01*
X153202991Y-94732778D01*
X153046466Y-94816443D01*
X152876627Y-94867963D01*
X152810443Y-94874481D01*
X152744260Y-94881000D01*
X152055740Y-94881000D01*
X151989557Y-94874481D01*
X151923373Y-94867963D01*
X151753534Y-94816443D01*
X151597009Y-94732778D01*
X151561271Y-94703448D01*
X151459814Y-94620186D01*
X151376552Y-94518729D01*
X151347222Y-94482991D01*
X151263557Y-94326466D01*
X151212037Y-94156627D01*
X151194641Y-93980000D01*
X151212037Y-93803373D01*
X151263557Y-93633534D01*
X151347222Y-93477009D01*
X151376552Y-93441271D01*
X151459814Y-93339814D01*
X151561271Y-93256552D01*
X151597009Y-93227222D01*
X151753534Y-93143557D01*
X151923373Y-93092037D01*
X151989557Y-93085519D01*
X152055740Y-93079000D01*
X152744260Y-93079000D01*
X152810443Y-93085519D01*
G37*
G36*
X149169747Y-93170921D02*
G01*
X149249376Y-93178764D01*
X149402627Y-93225252D01*
X149402630Y-93225253D01*
X149543863Y-93300744D01*
X149667659Y-93402341D01*
X149769256Y-93526137D01*
X149844747Y-93667370D01*
X149844748Y-93667373D01*
X149891236Y-93820624D01*
X149906933Y-93980000D01*
X149891236Y-94139376D01*
X149844748Y-94292627D01*
X149844747Y-94292630D01*
X149769256Y-94433863D01*
X149667659Y-94557659D01*
X149543863Y-94659256D01*
X149402630Y-94734747D01*
X149402627Y-94734748D01*
X149249376Y-94781236D01*
X149169747Y-94789079D01*
X149129934Y-94793000D01*
X148050066Y-94793000D01*
X148010253Y-94789079D01*
X147930624Y-94781236D01*
X147777373Y-94734748D01*
X147777370Y-94734747D01*
X147636137Y-94659256D01*
X147512341Y-94557659D01*
X147410744Y-94433863D01*
X147335253Y-94292630D01*
X147335252Y-94292627D01*
X147288764Y-94139376D01*
X147273067Y-93980000D01*
X147288764Y-93820624D01*
X147335252Y-93667373D01*
X147335253Y-93667370D01*
X147410744Y-93526137D01*
X147512341Y-93402341D01*
X147636137Y-93300744D01*
X147777370Y-93225253D01*
X147777373Y-93225252D01*
X147930624Y-93178764D01*
X148010253Y-93170921D01*
X148050066Y-93167000D01*
X149129934Y-93167000D01*
X149169747Y-93170921D01*
G37*
G36*
X112974747Y-93170921D02*
G01*
X113054376Y-93178764D01*
X113207627Y-93225252D01*
X113207630Y-93225253D01*
X113348863Y-93300744D01*
X113472659Y-93402341D01*
X113574256Y-93526137D01*
X113649747Y-93667370D01*
X113649748Y-93667373D01*
X113696236Y-93820624D01*
X113711933Y-93980000D01*
X113696236Y-94139376D01*
X113649748Y-94292627D01*
X113649747Y-94292630D01*
X113574256Y-94433863D01*
X113472659Y-94557659D01*
X113348863Y-94659256D01*
X113207630Y-94734747D01*
X113207627Y-94734748D01*
X113054376Y-94781236D01*
X112974747Y-94789079D01*
X112934934Y-94793000D01*
X111855066Y-94793000D01*
X111815253Y-94789079D01*
X111735624Y-94781236D01*
X111582373Y-94734748D01*
X111582370Y-94734747D01*
X111441137Y-94659256D01*
X111317341Y-94557659D01*
X111215744Y-94433863D01*
X111140253Y-94292630D01*
X111140252Y-94292627D01*
X111093764Y-94139376D01*
X111078067Y-93980000D01*
X111093764Y-93820624D01*
X111140252Y-93667373D01*
X111140253Y-93667370D01*
X111215744Y-93526137D01*
X111317341Y-93402341D01*
X111441137Y-93300744D01*
X111582370Y-93225253D01*
X111582373Y-93225252D01*
X111735624Y-93178764D01*
X111815253Y-93170921D01*
X111855066Y-93167000D01*
X112934934Y-93167000D01*
X112974747Y-93170921D01*
G37*
G36*
X119778213Y-93486249D02*
G01*
X119872652Y-93514897D01*
X119959687Y-93561418D01*
X120035975Y-93624025D01*
X120098582Y-93700313D01*
X120145103Y-93787348D01*
X120173751Y-93881787D01*
X120183424Y-93980000D01*
X120173751Y-94078213D01*
X120145103Y-94172652D01*
X120098582Y-94259687D01*
X120035975Y-94335975D01*
X119959687Y-94398582D01*
X119872652Y-94445103D01*
X119778213Y-94473751D01*
X119704612Y-94481000D01*
X119055388Y-94481000D01*
X118981787Y-94473751D01*
X118887348Y-94445103D01*
X118800313Y-94398582D01*
X118724025Y-94335975D01*
X118661418Y-94259687D01*
X118614897Y-94172652D01*
X118586249Y-94078213D01*
X118576576Y-93980000D01*
X118586249Y-93881787D01*
X118614897Y-93787348D01*
X118661418Y-93700313D01*
X118724025Y-93624025D01*
X118800313Y-93561418D01*
X118887348Y-93514897D01*
X118981787Y-93486249D01*
X119055388Y-93479000D01*
X119704612Y-93479000D01*
X119778213Y-93486249D01*
G37*
G36*
X124223213Y-93486249D02*
G01*
X124317652Y-93514897D01*
X124404687Y-93561418D01*
X124480975Y-93624025D01*
X124543582Y-93700313D01*
X124590103Y-93787348D01*
X124618751Y-93881787D01*
X124628424Y-93980000D01*
X124618751Y-94078213D01*
X124590103Y-94172652D01*
X124543582Y-94259687D01*
X124480975Y-94335975D01*
X124404687Y-94398582D01*
X124317652Y-94445103D01*
X124223213Y-94473751D01*
X124149612Y-94481000D01*
X123500388Y-94481000D01*
X123426787Y-94473751D01*
X123332348Y-94445103D01*
X123245313Y-94398582D01*
X123169025Y-94335975D01*
X123106418Y-94259687D01*
X123059897Y-94172652D01*
X123031249Y-94078213D01*
X123021576Y-93980000D01*
X123031249Y-93881787D01*
X123059897Y-93787348D01*
X123106418Y-93700313D01*
X123169025Y-93624025D01*
X123245313Y-93561418D01*
X123332348Y-93514897D01*
X123426787Y-93486249D01*
X123500388Y-93479000D01*
X124149612Y-93479000D01*
X124223213Y-93486249D01*
G37*
G36*
X168038213Y-93486249D02*
G01*
X168132652Y-93514897D01*
X168219687Y-93561418D01*
X168295975Y-93624025D01*
X168358582Y-93700313D01*
X168405103Y-93787348D01*
X168433751Y-93881787D01*
X168443424Y-93980000D01*
X168433751Y-94078213D01*
X168405103Y-94172652D01*
X168358582Y-94259687D01*
X168295975Y-94335975D01*
X168219687Y-94398582D01*
X168132652Y-94445103D01*
X168038213Y-94473751D01*
X167964612Y-94481000D01*
X167315388Y-94481000D01*
X167241787Y-94473751D01*
X167147348Y-94445103D01*
X167060313Y-94398582D01*
X166984025Y-94335975D01*
X166921418Y-94259687D01*
X166874897Y-94172652D01*
X166846249Y-94078213D01*
X166836576Y-93980000D01*
X166846249Y-93881787D01*
X166874897Y-93787348D01*
X166921418Y-93700313D01*
X166984025Y-93624025D01*
X167060313Y-93561418D01*
X167147348Y-93514897D01*
X167241787Y-93486249D01*
X167315388Y-93479000D01*
X167964612Y-93479000D01*
X168038213Y-93486249D01*
G37*
G36*
X124223213Y-92216249D02*
G01*
X124317652Y-92244897D01*
X124404687Y-92291418D01*
X124480975Y-92354025D01*
X124543582Y-92430313D01*
X124590103Y-92517348D01*
X124618751Y-92611787D01*
X124628424Y-92710000D01*
X124618751Y-92808213D01*
X124590103Y-92902652D01*
X124543582Y-92989687D01*
X124480975Y-93065975D01*
X124404687Y-93128582D01*
X124317652Y-93175103D01*
X124223213Y-93203751D01*
X124149612Y-93211000D01*
X123500388Y-93211000D01*
X123426787Y-93203751D01*
X123332348Y-93175103D01*
X123245313Y-93128582D01*
X123169025Y-93065975D01*
X123106418Y-92989687D01*
X123059897Y-92902652D01*
X123031249Y-92808213D01*
X123021576Y-92710000D01*
X123031249Y-92611787D01*
X123059897Y-92517348D01*
X123106418Y-92430313D01*
X123169025Y-92354025D01*
X123245313Y-92291418D01*
X123332348Y-92244897D01*
X123426787Y-92216249D01*
X123500388Y-92209000D01*
X124149612Y-92209000D01*
X124223213Y-92216249D01*
G37*
G36*
X168038213Y-92216249D02*
G01*
X168132652Y-92244897D01*
X168219687Y-92291418D01*
X168295975Y-92354025D01*
X168358582Y-92430313D01*
X168405103Y-92517348D01*
X168433751Y-92611787D01*
X168443424Y-92710000D01*
X168433751Y-92808213D01*
X168405103Y-92902652D01*
X168358582Y-92989687D01*
X168295975Y-93065975D01*
X168219687Y-93128582D01*
X168132652Y-93175103D01*
X168038213Y-93203751D01*
X167964612Y-93211000D01*
X167315388Y-93211000D01*
X167241787Y-93203751D01*
X167147348Y-93175103D01*
X167060313Y-93128582D01*
X166984025Y-93065975D01*
X166921418Y-92989687D01*
X166874897Y-92902652D01*
X166846249Y-92808213D01*
X166836576Y-92710000D01*
X166846249Y-92611787D01*
X166874897Y-92517348D01*
X166921418Y-92430313D01*
X166984025Y-92354025D01*
X167060313Y-92291418D01*
X167147348Y-92244897D01*
X167241787Y-92216249D01*
X167315388Y-92209000D01*
X167964612Y-92209000D01*
X168038213Y-92216249D01*
G37*
G36*
X119778213Y-92216249D02*
G01*
X119872652Y-92244897D01*
X119959687Y-92291418D01*
X120035975Y-92354025D01*
X120098582Y-92430313D01*
X120145103Y-92517348D01*
X120173751Y-92611787D01*
X120183424Y-92710000D01*
X120173751Y-92808213D01*
X120145103Y-92902652D01*
X120098582Y-92989687D01*
X120035975Y-93065975D01*
X119959687Y-93128582D01*
X119872652Y-93175103D01*
X119778213Y-93203751D01*
X119704612Y-93211000D01*
X119055388Y-93211000D01*
X118981787Y-93203751D01*
X118887348Y-93175103D01*
X118800313Y-93128582D01*
X118724025Y-93065975D01*
X118661418Y-92989687D01*
X118614897Y-92902652D01*
X118586249Y-92808213D01*
X118576576Y-92710000D01*
X118586249Y-92611787D01*
X118614897Y-92517348D01*
X118661418Y-92430313D01*
X118724025Y-92354025D01*
X118800313Y-92291418D01*
X118887348Y-92244897D01*
X118981787Y-92216249D01*
X119055388Y-92209000D01*
X119704612Y-92209000D01*
X119778213Y-92216249D01*
G37*
G36*
X93120442Y-91180518D02*
G01*
X93186627Y-91187037D01*
X93356466Y-91238557D01*
X93512991Y-91322222D01*
X93548729Y-91351552D01*
X93650186Y-91434814D01*
X93733448Y-91536271D01*
X93762778Y-91572009D01*
X93846443Y-91728534D01*
X93897963Y-91898373D01*
X93915359Y-92075000D01*
X93897963Y-92251627D01*
X93846443Y-92421466D01*
X93762778Y-92577991D01*
X93733448Y-92613729D01*
X93650186Y-92715186D01*
X93548729Y-92798448D01*
X93512991Y-92827778D01*
X93512989Y-92827779D01*
X93372917Y-92902650D01*
X93356466Y-92911443D01*
X93186627Y-92962963D01*
X93120442Y-92969482D01*
X93054260Y-92976000D01*
X92365740Y-92976000D01*
X92299558Y-92969482D01*
X92233373Y-92962963D01*
X92063534Y-92911443D01*
X92047084Y-92902650D01*
X91907011Y-92827779D01*
X91907009Y-92827778D01*
X91871271Y-92798448D01*
X91769814Y-92715186D01*
X91686552Y-92613729D01*
X91657222Y-92577991D01*
X91573557Y-92421466D01*
X91522037Y-92251627D01*
X91504641Y-92075000D01*
X91522037Y-91898373D01*
X91573557Y-91728534D01*
X91657222Y-91572009D01*
X91686552Y-91536271D01*
X91769814Y-91434814D01*
X91871271Y-91351552D01*
X91907009Y-91322222D01*
X92063534Y-91238557D01*
X92233373Y-91187037D01*
X92299558Y-91180518D01*
X92365740Y-91174000D01*
X93054260Y-91174000D01*
X93120442Y-91180518D01*
G37*
G36*
X153601000Y-92341000D02*
G01*
X151199000Y-92341000D01*
X151199000Y-90539000D01*
X153601000Y-90539000D01*
X153601000Y-92341000D01*
G37*
G36*
X149169747Y-90630921D02*
G01*
X149249376Y-90638764D01*
X149402627Y-90685252D01*
X149402630Y-90685253D01*
X149543863Y-90760744D01*
X149667659Y-90862341D01*
X149769256Y-90986137D01*
X149844747Y-91127370D01*
X149844748Y-91127373D01*
X149891236Y-91280624D01*
X149906933Y-91440000D01*
X149891236Y-91599376D01*
X149844748Y-91752627D01*
X149844747Y-91752630D01*
X149769256Y-91893863D01*
X149667659Y-92017659D01*
X149543863Y-92119256D01*
X149402630Y-92194747D01*
X149402627Y-92194748D01*
X149249376Y-92241236D01*
X149169747Y-92249079D01*
X149129934Y-92253000D01*
X148050066Y-92253000D01*
X148010253Y-92249079D01*
X147930624Y-92241236D01*
X147777373Y-92194748D01*
X147777370Y-92194747D01*
X147636137Y-92119256D01*
X147512341Y-92017659D01*
X147410744Y-91893863D01*
X147335253Y-91752630D01*
X147335252Y-91752627D01*
X147288764Y-91599376D01*
X147273067Y-91440000D01*
X147288764Y-91280624D01*
X147335252Y-91127373D01*
X147335253Y-91127370D01*
X147410744Y-90986137D01*
X147512341Y-90862341D01*
X147636137Y-90760744D01*
X147777370Y-90685253D01*
X147777373Y-90685252D01*
X147930624Y-90638764D01*
X148010253Y-90630921D01*
X148050066Y-90627000D01*
X149129934Y-90627000D01*
X149169747Y-90630921D01*
G37*
G36*
X112974747Y-90630921D02*
G01*
X113054376Y-90638764D01*
X113207627Y-90685252D01*
X113207630Y-90685253D01*
X113348863Y-90760744D01*
X113472659Y-90862341D01*
X113574256Y-90986137D01*
X113649747Y-91127370D01*
X113649748Y-91127373D01*
X113696236Y-91280624D01*
X113711933Y-91440000D01*
X113696236Y-91599376D01*
X113649748Y-91752627D01*
X113649747Y-91752630D01*
X113574256Y-91893863D01*
X113472659Y-92017659D01*
X113348863Y-92119256D01*
X113207630Y-92194747D01*
X113207627Y-92194748D01*
X113054376Y-92241236D01*
X112974747Y-92249079D01*
X112934934Y-92253000D01*
X111855066Y-92253000D01*
X111815253Y-92249079D01*
X111735624Y-92241236D01*
X111582373Y-92194748D01*
X111582370Y-92194747D01*
X111441137Y-92119256D01*
X111317341Y-92017659D01*
X111215744Y-91893863D01*
X111140253Y-91752630D01*
X111140252Y-91752627D01*
X111093764Y-91599376D01*
X111078067Y-91440000D01*
X111093764Y-91280624D01*
X111140252Y-91127373D01*
X111140253Y-91127370D01*
X111215744Y-90986137D01*
X111317341Y-90862341D01*
X111441137Y-90760744D01*
X111582370Y-90685253D01*
X111582373Y-90685252D01*
X111735624Y-90638764D01*
X111815253Y-90630921D01*
X111855066Y-90627000D01*
X112934934Y-90627000D01*
X112974747Y-90630921D01*
G37*
G36*
X93120443Y-88640519D02*
G01*
X93186627Y-88647037D01*
X93356466Y-88698557D01*
X93512991Y-88782222D01*
X93548729Y-88811552D01*
X93650186Y-88894814D01*
X93733448Y-88996271D01*
X93762778Y-89032009D01*
X93846443Y-89188534D01*
X93897963Y-89358373D01*
X93915359Y-89535000D01*
X93897963Y-89711627D01*
X93846443Y-89881466D01*
X93762778Y-90037991D01*
X93733448Y-90073729D01*
X93650186Y-90175186D01*
X93548729Y-90258448D01*
X93512991Y-90287778D01*
X93356466Y-90371443D01*
X93186627Y-90422963D01*
X93120443Y-90429481D01*
X93054260Y-90436000D01*
X92365740Y-90436000D01*
X92299557Y-90429481D01*
X92233373Y-90422963D01*
X92063534Y-90371443D01*
X91907009Y-90287778D01*
X91871271Y-90258448D01*
X91769814Y-90175186D01*
X91686552Y-90073729D01*
X91657222Y-90037991D01*
X91573557Y-89881466D01*
X91522037Y-89711627D01*
X91504641Y-89535000D01*
X91522037Y-89358373D01*
X91573557Y-89188534D01*
X91657222Y-89032009D01*
X91686552Y-88996271D01*
X91769814Y-88894814D01*
X91871271Y-88811552D01*
X91907009Y-88782222D01*
X92063534Y-88698557D01*
X92233373Y-88647037D01*
X92299557Y-88640519D01*
X92365740Y-88634000D01*
X93054260Y-88634000D01*
X93120443Y-88640519D01*
G37*
G36*
X112974747Y-88090921D02*
G01*
X113054376Y-88098764D01*
X113207627Y-88145252D01*
X113207630Y-88145253D01*
X113348863Y-88220744D01*
X113472659Y-88322341D01*
X113574256Y-88446137D01*
X113649747Y-88587370D01*
X113649748Y-88587373D01*
X113696236Y-88740624D01*
X113711933Y-88900000D01*
X113696236Y-89059376D01*
X113649748Y-89212627D01*
X113649747Y-89212630D01*
X113574256Y-89353863D01*
X113472659Y-89477659D01*
X113348863Y-89579256D01*
X113207630Y-89654747D01*
X113207627Y-89654748D01*
X113054376Y-89701236D01*
X112974747Y-89709079D01*
X112934934Y-89713000D01*
X111855066Y-89713000D01*
X111815253Y-89709079D01*
X111735624Y-89701236D01*
X111582373Y-89654748D01*
X111582370Y-89654747D01*
X111441137Y-89579256D01*
X111317341Y-89477659D01*
X111215744Y-89353863D01*
X111140253Y-89212630D01*
X111140252Y-89212627D01*
X111093764Y-89059376D01*
X111078067Y-88900000D01*
X111093764Y-88740624D01*
X111140252Y-88587373D01*
X111140253Y-88587370D01*
X111215744Y-88446137D01*
X111317341Y-88322341D01*
X111441137Y-88220744D01*
X111582370Y-88145253D01*
X111582373Y-88145252D01*
X111735624Y-88098764D01*
X111815253Y-88090921D01*
X111855066Y-88087000D01*
X112934934Y-88087000D01*
X112974747Y-88090921D01*
G37*
G36*
X100221790Y-84623403D02*
G01*
X100550460Y-84759543D01*
X100550462Y-84759544D01*
X100699363Y-84859037D01*
X100846257Y-84957188D01*
X101097812Y-85208743D01*
X101295457Y-85504540D01*
X101431597Y-85833210D01*
X101501000Y-86182123D01*
X101501000Y-86537877D01*
X101431597Y-86886790D01*
X101295457Y-87215460D01*
X101295456Y-87215462D01*
X101097811Y-87511258D01*
X100846258Y-87762811D01*
X100550462Y-87960456D01*
X100550461Y-87960457D01*
X100550460Y-87960457D01*
X100221790Y-88096597D01*
X99872877Y-88166000D01*
X99517123Y-88166000D01*
X99168210Y-88096597D01*
X98839540Y-87960457D01*
X98839539Y-87960457D01*
X98839538Y-87960456D01*
X98543742Y-87762811D01*
X98292189Y-87511258D01*
X98094544Y-87215462D01*
X98094543Y-87215460D01*
X97958403Y-86886790D01*
X97889000Y-86537877D01*
X97889000Y-86182123D01*
X97958403Y-85833210D01*
X98094543Y-85504540D01*
X98292188Y-85208743D01*
X98543743Y-84957188D01*
X98690637Y-84859037D01*
X98839538Y-84759544D01*
X98839540Y-84759543D01*
X99168210Y-84623403D01*
X99517123Y-84554000D01*
X99872877Y-84554000D01*
X100221790Y-84623403D01*
G37*
G36*
X93911000Y-87896000D02*
G01*
X91509000Y-87896000D01*
X91509000Y-86094000D01*
X93911000Y-86094000D01*
X93911000Y-87896000D01*
G37*
G36*
X113708000Y-87173000D02*
G01*
X111082000Y-87173000D01*
X111082000Y-85547000D01*
X113708000Y-85547000D01*
X113708000Y-87173000D01*
G37*
G36*
X134144376Y-81248764D02*
G01*
X134297627Y-81295252D01*
X134297630Y-81295253D01*
X134438863Y-81370744D01*
X134562659Y-81472341D01*
X134664256Y-81596137D01*
X134739747Y-81737370D01*
X134739748Y-81737373D01*
X134786236Y-81890624D01*
X134798000Y-82010067D01*
X134798000Y-83089933D01*
X134786236Y-83209376D01*
X134739748Y-83362626D01*
X134739747Y-83362630D01*
X134664256Y-83503863D01*
X134562659Y-83627659D01*
X134438863Y-83729256D01*
X134297629Y-83804747D01*
X134297626Y-83804748D01*
X134144375Y-83851236D01*
X133985000Y-83866933D01*
X133825624Y-83851236D01*
X133672373Y-83804748D01*
X133672370Y-83804747D01*
X133531137Y-83729256D01*
X133407341Y-83627659D01*
X133305744Y-83503863D01*
X133230253Y-83362629D01*
X133230252Y-83362626D01*
X133183764Y-83209375D01*
X133172000Y-83089932D01*
X133172001Y-82010067D01*
X133183765Y-81890624D01*
X133230253Y-81737373D01*
X133230254Y-81737370D01*
X133305745Y-81596137D01*
X133407342Y-81472341D01*
X133531138Y-81370744D01*
X133672371Y-81295253D01*
X133672374Y-81295252D01*
X133825625Y-81248764D01*
X133985000Y-81233067D01*
X134144376Y-81248764D01*
G37*
G36*
X149384376Y-81248764D02*
G01*
X149537627Y-81295252D01*
X149537630Y-81295253D01*
X149678863Y-81370744D01*
X149802659Y-81472341D01*
X149904256Y-81596137D01*
X149979747Y-81737370D01*
X149979748Y-81737373D01*
X150026236Y-81890624D01*
X150038000Y-82010067D01*
X150038000Y-83089933D01*
X150026236Y-83209376D01*
X149979748Y-83362626D01*
X149979747Y-83362630D01*
X149904256Y-83503863D01*
X149802659Y-83627659D01*
X149678863Y-83729256D01*
X149537629Y-83804747D01*
X149537626Y-83804748D01*
X149384375Y-83851236D01*
X149225000Y-83866933D01*
X149065624Y-83851236D01*
X148912373Y-83804748D01*
X148912370Y-83804747D01*
X148771137Y-83729256D01*
X148647341Y-83627659D01*
X148545744Y-83503863D01*
X148470253Y-83362629D01*
X148470252Y-83362626D01*
X148423764Y-83209375D01*
X148412000Y-83089932D01*
X148412001Y-82010067D01*
X148423765Y-81890624D01*
X148470253Y-81737373D01*
X148470254Y-81737370D01*
X148545745Y-81596137D01*
X148647342Y-81472341D01*
X148771138Y-81370744D01*
X148912371Y-81295253D01*
X148912374Y-81295252D01*
X149065625Y-81248764D01*
X149225000Y-81233067D01*
X149384376Y-81248764D01*
G37*
G36*
X157004376Y-81248764D02*
G01*
X157157627Y-81295252D01*
X157157630Y-81295253D01*
X157298863Y-81370744D01*
X157422659Y-81472341D01*
X157524256Y-81596137D01*
X157599747Y-81737370D01*
X157599748Y-81737373D01*
X157646236Y-81890624D01*
X157658000Y-82010067D01*
X157658000Y-83089933D01*
X157646236Y-83209376D01*
X157599748Y-83362626D01*
X157599747Y-83362630D01*
X157524256Y-83503863D01*
X157422659Y-83627659D01*
X157298863Y-83729256D01*
X157157629Y-83804747D01*
X157157626Y-83804748D01*
X157004375Y-83851236D01*
X156845000Y-83866933D01*
X156685624Y-83851236D01*
X156532373Y-83804748D01*
X156532370Y-83804747D01*
X156391137Y-83729256D01*
X156267341Y-83627659D01*
X156165744Y-83503863D01*
X156090253Y-83362629D01*
X156090252Y-83362626D01*
X156043764Y-83209375D01*
X156032000Y-83089932D01*
X156032001Y-82010067D01*
X156043765Y-81890624D01*
X156090253Y-81737373D01*
X156090254Y-81737370D01*
X156165745Y-81596137D01*
X156267342Y-81472341D01*
X156391138Y-81370744D01*
X156532371Y-81295253D01*
X156532374Y-81295252D01*
X156685625Y-81248764D01*
X156845000Y-81233067D01*
X157004376Y-81248764D01*
G37*
G36*
X154464376Y-81248764D02*
G01*
X154617627Y-81295252D01*
X154617630Y-81295253D01*
X154758863Y-81370744D01*
X154882659Y-81472341D01*
X154984256Y-81596137D01*
X155059747Y-81737370D01*
X155059748Y-81737373D01*
X155106236Y-81890624D01*
X155118000Y-82010067D01*
X155118000Y-83089933D01*
X155106236Y-83209376D01*
X155059748Y-83362626D01*
X155059747Y-83362630D01*
X154984256Y-83503863D01*
X154882659Y-83627659D01*
X154758863Y-83729256D01*
X154617629Y-83804747D01*
X154617626Y-83804748D01*
X154464375Y-83851236D01*
X154305000Y-83866933D01*
X154145624Y-83851236D01*
X153992373Y-83804748D01*
X153992370Y-83804747D01*
X153851137Y-83729256D01*
X153727341Y-83627659D01*
X153625744Y-83503863D01*
X153550253Y-83362629D01*
X153550252Y-83362626D01*
X153503764Y-83209375D01*
X153492000Y-83089932D01*
X153492001Y-82010067D01*
X153503765Y-81890624D01*
X153550253Y-81737373D01*
X153550254Y-81737370D01*
X153625745Y-81596137D01*
X153727342Y-81472341D01*
X153851138Y-81370744D01*
X153992371Y-81295253D01*
X153992374Y-81295252D01*
X154145625Y-81248764D01*
X154305000Y-81233067D01*
X154464376Y-81248764D01*
G37*
G36*
X151924376Y-81248764D02*
G01*
X152077627Y-81295252D01*
X152077630Y-81295253D01*
X152218863Y-81370744D01*
X152342659Y-81472341D01*
X152444256Y-81596137D01*
X152519747Y-81737370D01*
X152519748Y-81737373D01*
X152566236Y-81890624D01*
X152578000Y-82010067D01*
X152578000Y-83089933D01*
X152566236Y-83209376D01*
X152519748Y-83362626D01*
X152519747Y-83362630D01*
X152444256Y-83503863D01*
X152342659Y-83627659D01*
X152218863Y-83729256D01*
X152077629Y-83804747D01*
X152077626Y-83804748D01*
X151924375Y-83851236D01*
X151765000Y-83866933D01*
X151605624Y-83851236D01*
X151452373Y-83804748D01*
X151452370Y-83804747D01*
X151311137Y-83729256D01*
X151187341Y-83627659D01*
X151085744Y-83503863D01*
X151010253Y-83362629D01*
X151010252Y-83362626D01*
X150963764Y-83209375D01*
X150952000Y-83089932D01*
X150952001Y-82010067D01*
X150963765Y-81890624D01*
X151010253Y-81737373D01*
X151010254Y-81737370D01*
X151085745Y-81596137D01*
X151187342Y-81472341D01*
X151311138Y-81370744D01*
X151452371Y-81295253D01*
X151452374Y-81295252D01*
X151605625Y-81248764D01*
X151765000Y-81233067D01*
X151924376Y-81248764D01*
G37*
G36*
X144304376Y-81248764D02*
G01*
X144457627Y-81295252D01*
X144457630Y-81295253D01*
X144598863Y-81370744D01*
X144722659Y-81472341D01*
X144824256Y-81596137D01*
X144899747Y-81737370D01*
X144899748Y-81737373D01*
X144946236Y-81890624D01*
X144958000Y-82010067D01*
X144958000Y-83089933D01*
X144946236Y-83209376D01*
X144899748Y-83362626D01*
X144899747Y-83362630D01*
X144824256Y-83503863D01*
X144722659Y-83627659D01*
X144598863Y-83729256D01*
X144457629Y-83804747D01*
X144457626Y-83804748D01*
X144304375Y-83851236D01*
X144145000Y-83866933D01*
X143985624Y-83851236D01*
X143832373Y-83804748D01*
X143832370Y-83804747D01*
X143691137Y-83729256D01*
X143567341Y-83627659D01*
X143465744Y-83503863D01*
X143390253Y-83362629D01*
X143390252Y-83362626D01*
X143343764Y-83209375D01*
X143332000Y-83089932D01*
X143332001Y-82010067D01*
X143343765Y-81890624D01*
X143390253Y-81737373D01*
X143390254Y-81737370D01*
X143465745Y-81596137D01*
X143567342Y-81472341D01*
X143691138Y-81370744D01*
X143832371Y-81295253D01*
X143832374Y-81295252D01*
X143985625Y-81248764D01*
X144145000Y-81233067D01*
X144304376Y-81248764D01*
G37*
G36*
X131604376Y-81248764D02*
G01*
X131757627Y-81295252D01*
X131757630Y-81295253D01*
X131898863Y-81370744D01*
X132022659Y-81472341D01*
X132124256Y-81596137D01*
X132199747Y-81737370D01*
X132199748Y-81737373D01*
X132246236Y-81890624D01*
X132258000Y-82010067D01*
X132258000Y-83089933D01*
X132246236Y-83209376D01*
X132199748Y-83362626D01*
X132199747Y-83362630D01*
X132124256Y-83503863D01*
X132022659Y-83627659D01*
X131898863Y-83729256D01*
X131757629Y-83804747D01*
X131757626Y-83804748D01*
X131604375Y-83851236D01*
X131445000Y-83866933D01*
X131285624Y-83851236D01*
X131132373Y-83804748D01*
X131132370Y-83804747D01*
X130991137Y-83729256D01*
X130867341Y-83627659D01*
X130765744Y-83503863D01*
X130690253Y-83362629D01*
X130690252Y-83362626D01*
X130643764Y-83209375D01*
X130632000Y-83089932D01*
X130632001Y-82010067D01*
X130643765Y-81890624D01*
X130690253Y-81737373D01*
X130690254Y-81737370D01*
X130765745Y-81596137D01*
X130867342Y-81472341D01*
X130991138Y-81370744D01*
X131132371Y-81295253D01*
X131132374Y-81295252D01*
X131285625Y-81248764D01*
X131445000Y-81233067D01*
X131604376Y-81248764D01*
G37*
G36*
X141764376Y-81248764D02*
G01*
X141917627Y-81295252D01*
X141917630Y-81295253D01*
X142058863Y-81370744D01*
X142182659Y-81472341D01*
X142284256Y-81596137D01*
X142359747Y-81737370D01*
X142359748Y-81737373D01*
X142406236Y-81890624D01*
X142418000Y-82010067D01*
X142418000Y-83089933D01*
X142406236Y-83209376D01*
X142359748Y-83362626D01*
X142359747Y-83362630D01*
X142284256Y-83503863D01*
X142182659Y-83627659D01*
X142058863Y-83729256D01*
X141917629Y-83804747D01*
X141917626Y-83804748D01*
X141764375Y-83851236D01*
X141605000Y-83866933D01*
X141445624Y-83851236D01*
X141292373Y-83804748D01*
X141292370Y-83804747D01*
X141151137Y-83729256D01*
X141027341Y-83627659D01*
X140925744Y-83503863D01*
X140850253Y-83362629D01*
X140850252Y-83362626D01*
X140803764Y-83209375D01*
X140792000Y-83089932D01*
X140792001Y-82010067D01*
X140803765Y-81890624D01*
X140850253Y-81737373D01*
X140850254Y-81737370D01*
X140925745Y-81596137D01*
X141027342Y-81472341D01*
X141151138Y-81370744D01*
X141292371Y-81295253D01*
X141292374Y-81295252D01*
X141445625Y-81248764D01*
X141605000Y-81233067D01*
X141764376Y-81248764D01*
G37*
G36*
X146844376Y-81248764D02*
G01*
X146997627Y-81295252D01*
X146997630Y-81295253D01*
X147138863Y-81370744D01*
X147262659Y-81472341D01*
X147364256Y-81596137D01*
X147439747Y-81737370D01*
X147439748Y-81737373D01*
X147486236Y-81890624D01*
X147498000Y-82010067D01*
X147498000Y-83089933D01*
X147486236Y-83209376D01*
X147439748Y-83362626D01*
X147439747Y-83362630D01*
X147364256Y-83503863D01*
X147262659Y-83627659D01*
X147138863Y-83729256D01*
X146997629Y-83804747D01*
X146997626Y-83804748D01*
X146844375Y-83851236D01*
X146685000Y-83866933D01*
X146525624Y-83851236D01*
X146372373Y-83804748D01*
X146372370Y-83804747D01*
X146231137Y-83729256D01*
X146107341Y-83627659D01*
X146005744Y-83503863D01*
X145930253Y-83362629D01*
X145930252Y-83362626D01*
X145883764Y-83209375D01*
X145872000Y-83089932D01*
X145872001Y-82010067D01*
X145883765Y-81890624D01*
X145930253Y-81737373D01*
X145930254Y-81737370D01*
X146005745Y-81596137D01*
X146107342Y-81472341D01*
X146231138Y-81370744D01*
X146372371Y-81295253D01*
X146372374Y-81295252D01*
X146525625Y-81248764D01*
X146685000Y-81233067D01*
X146844376Y-81248764D01*
G37*
G36*
X136684376Y-81248764D02*
G01*
X136837627Y-81295252D01*
X136837630Y-81295253D01*
X136978863Y-81370744D01*
X137102659Y-81472341D01*
X137204256Y-81596137D01*
X137279747Y-81737370D01*
X137279748Y-81737373D01*
X137326236Y-81890624D01*
X137338000Y-82010067D01*
X137338000Y-83089933D01*
X137326236Y-83209376D01*
X137279748Y-83362626D01*
X137279747Y-83362630D01*
X137204256Y-83503863D01*
X137102659Y-83627659D01*
X136978863Y-83729256D01*
X136837629Y-83804747D01*
X136837626Y-83804748D01*
X136684375Y-83851236D01*
X136525000Y-83866933D01*
X136365624Y-83851236D01*
X136212373Y-83804748D01*
X136212370Y-83804747D01*
X136071137Y-83729256D01*
X135947341Y-83627659D01*
X135845744Y-83503863D01*
X135770253Y-83362629D01*
X135770252Y-83362626D01*
X135723764Y-83209375D01*
X135712000Y-83089932D01*
X135712001Y-82010067D01*
X135723765Y-81890624D01*
X135770253Y-81737373D01*
X135770254Y-81737370D01*
X135845745Y-81596137D01*
X135947342Y-81472341D01*
X136071138Y-81370744D01*
X136212371Y-81295253D01*
X136212374Y-81295252D01*
X136365625Y-81248764D01*
X136525000Y-81233067D01*
X136684376Y-81248764D01*
G37*
G36*
X139224376Y-81248764D02*
G01*
X139377627Y-81295252D01*
X139377630Y-81295253D01*
X139518863Y-81370744D01*
X139642659Y-81472341D01*
X139744256Y-81596137D01*
X139819747Y-81737370D01*
X139819748Y-81737373D01*
X139866236Y-81890624D01*
X139878000Y-82010067D01*
X139878000Y-83089933D01*
X139866236Y-83209376D01*
X139819748Y-83362626D01*
X139819747Y-83362630D01*
X139744256Y-83503863D01*
X139642659Y-83627659D01*
X139518863Y-83729256D01*
X139377629Y-83804747D01*
X139377626Y-83804748D01*
X139224375Y-83851236D01*
X139065000Y-83866933D01*
X138905624Y-83851236D01*
X138752373Y-83804748D01*
X138752370Y-83804747D01*
X138611137Y-83729256D01*
X138487341Y-83627659D01*
X138385744Y-83503863D01*
X138310253Y-83362629D01*
X138310252Y-83362626D01*
X138263764Y-83209375D01*
X138252000Y-83089932D01*
X138252001Y-82010067D01*
X138263765Y-81890624D01*
X138310253Y-81737373D01*
X138310254Y-81737370D01*
X138385745Y-81596137D01*
X138487342Y-81472341D01*
X138611138Y-81370744D01*
X138752371Y-81295253D01*
X138752374Y-81295252D01*
X138905625Y-81248764D01*
X139065000Y-81233067D01*
X139224376Y-81248764D01*
G37*
G36*
X98200442Y-79750518D02*
G01*
X98266627Y-79757037D01*
X98436466Y-79808557D01*
X98592991Y-79892222D01*
X98628729Y-79921552D01*
X98730186Y-80004814D01*
X98813448Y-80106271D01*
X98842778Y-80142009D01*
X98926443Y-80298534D01*
X98977963Y-80468373D01*
X98995359Y-80645000D01*
X98977963Y-80821627D01*
X98926443Y-80991466D01*
X98842778Y-81147991D01*
X98813448Y-81183729D01*
X98730186Y-81285186D01*
X98628729Y-81368448D01*
X98592991Y-81397778D01*
X98436466Y-81481443D01*
X98266627Y-81532963D01*
X98200442Y-81539482D01*
X98134260Y-81546000D01*
X97445740Y-81546000D01*
X97379558Y-81539482D01*
X97313373Y-81532963D01*
X97143534Y-81481443D01*
X96987009Y-81397778D01*
X96951271Y-81368448D01*
X96849814Y-81285186D01*
X96766552Y-81183729D01*
X96737222Y-81147991D01*
X96653557Y-80991466D01*
X96602037Y-80821627D01*
X96584641Y-80645000D01*
X96602037Y-80468373D01*
X96653557Y-80298534D01*
X96737222Y-80142009D01*
X96766552Y-80106271D01*
X96849814Y-80004814D01*
X96951271Y-79921552D01*
X96987009Y-79892222D01*
X97143534Y-79808557D01*
X97313373Y-79757037D01*
X97379558Y-79750518D01*
X97445740Y-79744000D01*
X98134260Y-79744000D01*
X98200442Y-79750518D01*
G37*
G36*
X93120442Y-79750518D02*
G01*
X93186627Y-79757037D01*
X93356466Y-79808557D01*
X93512991Y-79892222D01*
X93548729Y-79921552D01*
X93650186Y-80004814D01*
X93733448Y-80106271D01*
X93762778Y-80142009D01*
X93846443Y-80298534D01*
X93897963Y-80468373D01*
X93915359Y-80645000D01*
X93897963Y-80821627D01*
X93846443Y-80991466D01*
X93762778Y-81147991D01*
X93733448Y-81183729D01*
X93650186Y-81285186D01*
X93548729Y-81368448D01*
X93512991Y-81397778D01*
X93356466Y-81481443D01*
X93186627Y-81532963D01*
X93120442Y-81539482D01*
X93054260Y-81546000D01*
X92365740Y-81546000D01*
X92299558Y-81539482D01*
X92233373Y-81532963D01*
X92063534Y-81481443D01*
X91907009Y-81397778D01*
X91871271Y-81368448D01*
X91769814Y-81285186D01*
X91686552Y-81183729D01*
X91657222Y-81147991D01*
X91573557Y-80991466D01*
X91522037Y-80821627D01*
X91504641Y-80645000D01*
X91522037Y-80468373D01*
X91573557Y-80298534D01*
X91657222Y-80142009D01*
X91686552Y-80106271D01*
X91769814Y-80004814D01*
X91871271Y-79921552D01*
X91907009Y-79892222D01*
X92063534Y-79808557D01*
X92233373Y-79757037D01*
X92299558Y-79750518D01*
X92365740Y-79744000D01*
X93054260Y-79744000D01*
X93120442Y-79750518D01*
G37*
G36*
X149401627Y-76917037D02*
G01*
X149571466Y-76968557D01*
X149727991Y-77052222D01*
X149763729Y-77081552D01*
X149865186Y-77164814D01*
X149948448Y-77266271D01*
X149977778Y-77302009D01*
X150061443Y-77458534D01*
X150112963Y-77628373D01*
X150126000Y-77760742D01*
X150126000Y-78449258D01*
X150112963Y-78581627D01*
X150061443Y-78751466D01*
X149977778Y-78907991D01*
X149948448Y-78943729D01*
X149865186Y-79045186D01*
X149727989Y-79157779D01*
X149571467Y-79241442D01*
X149571465Y-79241443D01*
X149401626Y-79292963D01*
X149225000Y-79310359D01*
X149048373Y-79292963D01*
X148878534Y-79241443D01*
X148722009Y-79157778D01*
X148686271Y-79128448D01*
X148584814Y-79045186D01*
X148472221Y-78907989D01*
X148388558Y-78751467D01*
X148388557Y-78751465D01*
X148337037Y-78581626D01*
X148324000Y-78449257D01*
X148324000Y-77760742D01*
X148337037Y-77628373D01*
X148388557Y-77458534D01*
X148472223Y-77302009D01*
X148501553Y-77266271D01*
X148584815Y-77164814D01*
X148686272Y-77081552D01*
X148722010Y-77052222D01*
X148878535Y-76968557D01*
X149048374Y-76917037D01*
X149225000Y-76899641D01*
X149401627Y-76917037D01*
G37*
G36*
X131621627Y-76917037D02*
G01*
X131791466Y-76968557D01*
X131947991Y-77052222D01*
X131983729Y-77081552D01*
X132085186Y-77164814D01*
X132168448Y-77266271D01*
X132197778Y-77302009D01*
X132281443Y-77458534D01*
X132332963Y-77628373D01*
X132346000Y-77760742D01*
X132346000Y-78449258D01*
X132332963Y-78581627D01*
X132281443Y-78751466D01*
X132197778Y-78907991D01*
X132168448Y-78943729D01*
X132085186Y-79045186D01*
X131947989Y-79157779D01*
X131791467Y-79241442D01*
X131791465Y-79241443D01*
X131621626Y-79292963D01*
X131445000Y-79310359D01*
X131268373Y-79292963D01*
X131098534Y-79241443D01*
X130942009Y-79157778D01*
X130906271Y-79128448D01*
X130804814Y-79045186D01*
X130692221Y-78907989D01*
X130608558Y-78751467D01*
X130608557Y-78751465D01*
X130557037Y-78581626D01*
X130544000Y-78449257D01*
X130544000Y-77760742D01*
X130557037Y-77628373D01*
X130608557Y-77458534D01*
X130692223Y-77302009D01*
X130721553Y-77266271D01*
X130804815Y-77164814D01*
X130906272Y-77081552D01*
X130942010Y-77052222D01*
X131098535Y-76968557D01*
X131268374Y-76917037D01*
X131445000Y-76899641D01*
X131621627Y-76917037D01*
G37*
G36*
X134161627Y-76917037D02*
G01*
X134331466Y-76968557D01*
X134487991Y-77052222D01*
X134523729Y-77081552D01*
X134625186Y-77164814D01*
X134708448Y-77266271D01*
X134737778Y-77302009D01*
X134821443Y-77458534D01*
X134872963Y-77628373D01*
X134886000Y-77760742D01*
X134886000Y-78449258D01*
X134872963Y-78581627D01*
X134821443Y-78751466D01*
X134737778Y-78907991D01*
X134708448Y-78943729D01*
X134625186Y-79045186D01*
X134487989Y-79157779D01*
X134331467Y-79241442D01*
X134331465Y-79241443D01*
X134161626Y-79292963D01*
X133985000Y-79310359D01*
X133808373Y-79292963D01*
X133638534Y-79241443D01*
X133482009Y-79157778D01*
X133446271Y-79128448D01*
X133344814Y-79045186D01*
X133232221Y-78907989D01*
X133148558Y-78751467D01*
X133148557Y-78751465D01*
X133097037Y-78581626D01*
X133084000Y-78449257D01*
X133084000Y-77760742D01*
X133097037Y-77628373D01*
X133148557Y-77458534D01*
X133232223Y-77302009D01*
X133261553Y-77266271D01*
X133344815Y-77164814D01*
X133446272Y-77081552D01*
X133482010Y-77052222D01*
X133638535Y-76968557D01*
X133808374Y-76917037D01*
X133985000Y-76899641D01*
X134161627Y-76917037D01*
G37*
G36*
X136701627Y-76917037D02*
G01*
X136871466Y-76968557D01*
X137027991Y-77052222D01*
X137063729Y-77081552D01*
X137165186Y-77164814D01*
X137248448Y-77266271D01*
X137277778Y-77302009D01*
X137361443Y-77458534D01*
X137412963Y-77628373D01*
X137426000Y-77760742D01*
X137426000Y-78449258D01*
X137412963Y-78581627D01*
X137361443Y-78751466D01*
X137277778Y-78907991D01*
X137248448Y-78943729D01*
X137165186Y-79045186D01*
X137027989Y-79157779D01*
X136871467Y-79241442D01*
X136871465Y-79241443D01*
X136701626Y-79292963D01*
X136525000Y-79310359D01*
X136348373Y-79292963D01*
X136178534Y-79241443D01*
X136022009Y-79157778D01*
X135986271Y-79128448D01*
X135884814Y-79045186D01*
X135772221Y-78907989D01*
X135688558Y-78751467D01*
X135688557Y-78751465D01*
X135637037Y-78581626D01*
X135624000Y-78449257D01*
X135624000Y-77760742D01*
X135637037Y-77628373D01*
X135688557Y-77458534D01*
X135772223Y-77302009D01*
X135801553Y-77266271D01*
X135884815Y-77164814D01*
X135986272Y-77081552D01*
X136022010Y-77052222D01*
X136178535Y-76968557D01*
X136348374Y-76917037D01*
X136525000Y-76899641D01*
X136701627Y-76917037D01*
G37*
G36*
X139241627Y-76917037D02*
G01*
X139411466Y-76968557D01*
X139567991Y-77052222D01*
X139603729Y-77081552D01*
X139705186Y-77164814D01*
X139788448Y-77266271D01*
X139817778Y-77302009D01*
X139901443Y-77458534D01*
X139952963Y-77628373D01*
X139966000Y-77760742D01*
X139966000Y-78449258D01*
X139952963Y-78581627D01*
X139901443Y-78751466D01*
X139817778Y-78907991D01*
X139788448Y-78943729D01*
X139705186Y-79045186D01*
X139567989Y-79157779D01*
X139411467Y-79241442D01*
X139411465Y-79241443D01*
X139241626Y-79292963D01*
X139065000Y-79310359D01*
X138888373Y-79292963D01*
X138718534Y-79241443D01*
X138562009Y-79157778D01*
X138526271Y-79128448D01*
X138424814Y-79045186D01*
X138312221Y-78907989D01*
X138228558Y-78751467D01*
X138228557Y-78751465D01*
X138177037Y-78581626D01*
X138164000Y-78449257D01*
X138164000Y-77760742D01*
X138177037Y-77628373D01*
X138228557Y-77458534D01*
X138312223Y-77302009D01*
X138341553Y-77266271D01*
X138424815Y-77164814D01*
X138526272Y-77081552D01*
X138562010Y-77052222D01*
X138718535Y-76968557D01*
X138888374Y-76917037D01*
X139065000Y-76899641D01*
X139241627Y-76917037D01*
G37*
G36*
X141781627Y-76917037D02*
G01*
X141951466Y-76968557D01*
X142107991Y-77052222D01*
X142143729Y-77081552D01*
X142245186Y-77164814D01*
X142328448Y-77266271D01*
X142357778Y-77302009D01*
X142441443Y-77458534D01*
X142492963Y-77628373D01*
X142506000Y-77760742D01*
X142506000Y-78449258D01*
X142492963Y-78581627D01*
X142441443Y-78751466D01*
X142357778Y-78907991D01*
X142328448Y-78943729D01*
X142245186Y-79045186D01*
X142107989Y-79157779D01*
X141951467Y-79241442D01*
X141951465Y-79241443D01*
X141781626Y-79292963D01*
X141605000Y-79310359D01*
X141428373Y-79292963D01*
X141258534Y-79241443D01*
X141102009Y-79157778D01*
X141066271Y-79128448D01*
X140964814Y-79045186D01*
X140852221Y-78907989D01*
X140768558Y-78751467D01*
X140768557Y-78751465D01*
X140717037Y-78581626D01*
X140704000Y-78449257D01*
X140704000Y-77760742D01*
X140717037Y-77628373D01*
X140768557Y-77458534D01*
X140852223Y-77302009D01*
X140881553Y-77266271D01*
X140964815Y-77164814D01*
X141066272Y-77081552D01*
X141102010Y-77052222D01*
X141258535Y-76968557D01*
X141428374Y-76917037D01*
X141605000Y-76899641D01*
X141781627Y-76917037D01*
G37*
G36*
X144321627Y-76917037D02*
G01*
X144491466Y-76968557D01*
X144647991Y-77052222D01*
X144683729Y-77081552D01*
X144785186Y-77164814D01*
X144868448Y-77266271D01*
X144897778Y-77302009D01*
X144981443Y-77458534D01*
X145032963Y-77628373D01*
X145046000Y-77760742D01*
X145046000Y-78449258D01*
X145032963Y-78581627D01*
X144981443Y-78751466D01*
X144897778Y-78907991D01*
X144868448Y-78943729D01*
X144785186Y-79045186D01*
X144647989Y-79157779D01*
X144491467Y-79241442D01*
X144491465Y-79241443D01*
X144321626Y-79292963D01*
X144145000Y-79310359D01*
X143968373Y-79292963D01*
X143798534Y-79241443D01*
X143642009Y-79157778D01*
X143606271Y-79128448D01*
X143504814Y-79045186D01*
X143392221Y-78907989D01*
X143308558Y-78751467D01*
X143308557Y-78751465D01*
X143257037Y-78581626D01*
X143244000Y-78449257D01*
X143244000Y-77760742D01*
X143257037Y-77628373D01*
X143308557Y-77458534D01*
X143392223Y-77302009D01*
X143421553Y-77266271D01*
X143504815Y-77164814D01*
X143606272Y-77081552D01*
X143642010Y-77052222D01*
X143798535Y-76968557D01*
X143968374Y-76917037D01*
X144145000Y-76899641D01*
X144321627Y-76917037D01*
G37*
G36*
X146861627Y-76917037D02*
G01*
X147031466Y-76968557D01*
X147187991Y-77052222D01*
X147223729Y-77081552D01*
X147325186Y-77164814D01*
X147408448Y-77266271D01*
X147437778Y-77302009D01*
X147521443Y-77458534D01*
X147572963Y-77628373D01*
X147586000Y-77760742D01*
X147586000Y-78449258D01*
X147572963Y-78581627D01*
X147521443Y-78751466D01*
X147437778Y-78907991D01*
X147408448Y-78943729D01*
X147325186Y-79045186D01*
X147187989Y-79157779D01*
X147031467Y-79241442D01*
X147031465Y-79241443D01*
X146861626Y-79292963D01*
X146685000Y-79310359D01*
X146508373Y-79292963D01*
X146338534Y-79241443D01*
X146182009Y-79157778D01*
X146146271Y-79128448D01*
X146044814Y-79045186D01*
X145932221Y-78907989D01*
X145848558Y-78751467D01*
X145848557Y-78751465D01*
X145797037Y-78581626D01*
X145784000Y-78449257D01*
X145784000Y-77760742D01*
X145797037Y-77628373D01*
X145848557Y-77458534D01*
X145932223Y-77302009D01*
X145961553Y-77266271D01*
X146044815Y-77164814D01*
X146146272Y-77081552D01*
X146182010Y-77052222D01*
X146338535Y-76968557D01*
X146508374Y-76917037D01*
X146685000Y-76899641D01*
X146861627Y-76917037D01*
G37*
G36*
X151941627Y-76917037D02*
G01*
X152111466Y-76968557D01*
X152267991Y-77052222D01*
X152303729Y-77081552D01*
X152405186Y-77164814D01*
X152488448Y-77266271D01*
X152517778Y-77302009D01*
X152601443Y-77458534D01*
X152652963Y-77628373D01*
X152666000Y-77760742D01*
X152666000Y-78449258D01*
X152652963Y-78581627D01*
X152601443Y-78751466D01*
X152517778Y-78907991D01*
X152488448Y-78943729D01*
X152405186Y-79045186D01*
X152267989Y-79157779D01*
X152111467Y-79241442D01*
X152111465Y-79241443D01*
X151941626Y-79292963D01*
X151765000Y-79310359D01*
X151588373Y-79292963D01*
X151418534Y-79241443D01*
X151262009Y-79157778D01*
X151226271Y-79128448D01*
X151124814Y-79045186D01*
X151012221Y-78907989D01*
X150928558Y-78751467D01*
X150928557Y-78751465D01*
X150877037Y-78581626D01*
X150864000Y-78449257D01*
X150864000Y-77760742D01*
X150877037Y-77628373D01*
X150928557Y-77458534D01*
X151012223Y-77302009D01*
X151041553Y-77266271D01*
X151124815Y-77164814D01*
X151226272Y-77081552D01*
X151262010Y-77052222D01*
X151418535Y-76968557D01*
X151588374Y-76917037D01*
X151765000Y-76899641D01*
X151941627Y-76917037D01*
G37*
G36*
X154481627Y-76917037D02*
G01*
X154651466Y-76968557D01*
X154807991Y-77052222D01*
X154843729Y-77081552D01*
X154945186Y-77164814D01*
X155028448Y-77266271D01*
X155057778Y-77302009D01*
X155141443Y-77458534D01*
X155192963Y-77628373D01*
X155206000Y-77760742D01*
X155206000Y-78449258D01*
X155192963Y-78581627D01*
X155141443Y-78751466D01*
X155057778Y-78907991D01*
X155028448Y-78943729D01*
X154945186Y-79045186D01*
X154807989Y-79157779D01*
X154651467Y-79241442D01*
X154651465Y-79241443D01*
X154481626Y-79292963D01*
X154305000Y-79310359D01*
X154128373Y-79292963D01*
X153958534Y-79241443D01*
X153802009Y-79157778D01*
X153766271Y-79128448D01*
X153664814Y-79045186D01*
X153552221Y-78907989D01*
X153468558Y-78751467D01*
X153468557Y-78751465D01*
X153417037Y-78581626D01*
X153404000Y-78449257D01*
X153404000Y-77760742D01*
X153417037Y-77628373D01*
X153468557Y-77458534D01*
X153552223Y-77302009D01*
X153581553Y-77266271D01*
X153664815Y-77164814D01*
X153766272Y-77081552D01*
X153802010Y-77052222D01*
X153958535Y-76968557D01*
X154128374Y-76917037D01*
X154305000Y-76899641D01*
X154481627Y-76917037D01*
G37*
G36*
X157746000Y-79306000D02*
G01*
X155944000Y-79306000D01*
X155944000Y-76904000D01*
X157746000Y-76904000D01*
X157746000Y-79306000D01*
G37*
G36*
X98991000Y-79006000D02*
G01*
X96589000Y-79006000D01*
X96589000Y-77204000D01*
X98991000Y-77204000D01*
X98991000Y-79006000D01*
G37*
G36*
X93911000Y-79006000D02*
G01*
X91509000Y-79006000D01*
X91509000Y-77204000D01*
X93911000Y-77204000D01*
X93911000Y-79006000D01*
G37*
G36*
X110031627Y-75647037D02*
G01*
X110201466Y-75698557D01*
X110357991Y-75782222D01*
X110393729Y-75811552D01*
X110495186Y-75894814D01*
X110578448Y-75996271D01*
X110607778Y-76032009D01*
X110691443Y-76188534D01*
X110742963Y-76358373D01*
X110756000Y-76490742D01*
X110756000Y-77179258D01*
X110742963Y-77311627D01*
X110691443Y-77481466D01*
X110607778Y-77637991D01*
X110578448Y-77673729D01*
X110495186Y-77775186D01*
X110357989Y-77887779D01*
X110201467Y-77971442D01*
X110201465Y-77971443D01*
X110031626Y-78022963D01*
X109855000Y-78040359D01*
X109678373Y-78022963D01*
X109508534Y-77971443D01*
X109352009Y-77887778D01*
X109316271Y-77858448D01*
X109214814Y-77775186D01*
X109102221Y-77637989D01*
X109018558Y-77481467D01*
X109011600Y-77458531D01*
X108967037Y-77311626D01*
X108954000Y-77179257D01*
X108954000Y-76490742D01*
X108967037Y-76358373D01*
X109018557Y-76188534D01*
X109102223Y-76032009D01*
X109131553Y-75996271D01*
X109214815Y-75894814D01*
X109316272Y-75811552D01*
X109352010Y-75782222D01*
X109508535Y-75698557D01*
X109678374Y-75647037D01*
X109855000Y-75629641D01*
X110031627Y-75647037D01*
G37*
G36*
X107491627Y-75647037D02*
G01*
X107661466Y-75698557D01*
X107817991Y-75782222D01*
X107853729Y-75811552D01*
X107955186Y-75894814D01*
X108038448Y-75996271D01*
X108067778Y-76032009D01*
X108151443Y-76188534D01*
X108202963Y-76358373D01*
X108216000Y-76490742D01*
X108216000Y-77179258D01*
X108202963Y-77311627D01*
X108151443Y-77481466D01*
X108067778Y-77637991D01*
X108038448Y-77673729D01*
X107955186Y-77775186D01*
X107817989Y-77887779D01*
X107661467Y-77971442D01*
X107661465Y-77971443D01*
X107491626Y-78022963D01*
X107315000Y-78040359D01*
X107138373Y-78022963D01*
X106968534Y-77971443D01*
X106812009Y-77887778D01*
X106776271Y-77858448D01*
X106674814Y-77775186D01*
X106562221Y-77637989D01*
X106478558Y-77481467D01*
X106471600Y-77458531D01*
X106427037Y-77311626D01*
X106414000Y-77179257D01*
X106414000Y-76490742D01*
X106427037Y-76358373D01*
X106478557Y-76188534D01*
X106562223Y-76032009D01*
X106591553Y-75996271D01*
X106674815Y-75894814D01*
X106776272Y-75811552D01*
X106812010Y-75782222D01*
X106968535Y-75698557D01*
X107138374Y-75647037D01*
X107315000Y-75629641D01*
X107491627Y-75647037D01*
G37*
G36*
X104951627Y-75647037D02*
G01*
X105121466Y-75698557D01*
X105277991Y-75782222D01*
X105313729Y-75811552D01*
X105415186Y-75894814D01*
X105498448Y-75996271D01*
X105527778Y-76032009D01*
X105611443Y-76188534D01*
X105662963Y-76358373D01*
X105676000Y-76490742D01*
X105676000Y-77179258D01*
X105662963Y-77311627D01*
X105611443Y-77481466D01*
X105527778Y-77637991D01*
X105498448Y-77673729D01*
X105415186Y-77775186D01*
X105277989Y-77887779D01*
X105121467Y-77971442D01*
X105121465Y-77971443D01*
X104951626Y-78022963D01*
X104775000Y-78040359D01*
X104598373Y-78022963D01*
X104428534Y-77971443D01*
X104272009Y-77887778D01*
X104236271Y-77858448D01*
X104134814Y-77775186D01*
X104022221Y-77637989D01*
X103938558Y-77481467D01*
X103931600Y-77458531D01*
X103887037Y-77311626D01*
X103874000Y-77179257D01*
X103874000Y-76490742D01*
X103887037Y-76358373D01*
X103938557Y-76188534D01*
X104022223Y-76032009D01*
X104051553Y-75996271D01*
X104134815Y-75894814D01*
X104236272Y-75811552D01*
X104272010Y-75782222D01*
X104428535Y-75698557D01*
X104598374Y-75647037D01*
X104775000Y-75629641D01*
X104951627Y-75647037D01*
G37*
G36*
X113296000Y-78036000D02*
G01*
X111494000Y-78036000D01*
X111494000Y-75634000D01*
X113296000Y-75634000D01*
X113296000Y-78036000D01*
G37*
G36*
X138606627Y-72472037D02*
G01*
X138776466Y-72523557D01*
X138932991Y-72607222D01*
X138968729Y-72636552D01*
X139070186Y-72719814D01*
X139151558Y-72818968D01*
X139182778Y-72857009D01*
X139266443Y-73013534D01*
X139317963Y-73183373D01*
X139331000Y-73315742D01*
X139331000Y-74004258D01*
X139317963Y-74136627D01*
X139266443Y-74306466D01*
X139182778Y-74462991D01*
X139153448Y-74498729D01*
X139070186Y-74600186D01*
X138932989Y-74712779D01*
X138776467Y-74796442D01*
X138776465Y-74796443D01*
X138606626Y-74847963D01*
X138430000Y-74865359D01*
X138253373Y-74847963D01*
X138083534Y-74796443D01*
X137927009Y-74712778D01*
X137891271Y-74683448D01*
X137789814Y-74600186D01*
X137677221Y-74462989D01*
X137593558Y-74306467D01*
X137593557Y-74306465D01*
X137542037Y-74136626D01*
X137529000Y-74004257D01*
X137529000Y-73315742D01*
X137542037Y-73183373D01*
X137593557Y-73013534D01*
X137677223Y-72857009D01*
X137708443Y-72818968D01*
X137789815Y-72719814D01*
X137891272Y-72636552D01*
X137927010Y-72607222D01*
X138083535Y-72523557D01*
X138253374Y-72472037D01*
X138430000Y-72454641D01*
X138606627Y-72472037D01*
G37*
G36*
X141146627Y-72472037D02*
G01*
X141316466Y-72523557D01*
X141472991Y-72607222D01*
X141508729Y-72636552D01*
X141610186Y-72719814D01*
X141691558Y-72818968D01*
X141722778Y-72857009D01*
X141806443Y-73013534D01*
X141857963Y-73183373D01*
X141871000Y-73315742D01*
X141871000Y-74004258D01*
X141857963Y-74136627D01*
X141806443Y-74306466D01*
X141722778Y-74462991D01*
X141693448Y-74498729D01*
X141610186Y-74600186D01*
X141472989Y-74712779D01*
X141316467Y-74796442D01*
X141316465Y-74796443D01*
X141146626Y-74847963D01*
X140970000Y-74865359D01*
X140793373Y-74847963D01*
X140623534Y-74796443D01*
X140467009Y-74712778D01*
X140431271Y-74683448D01*
X140329814Y-74600186D01*
X140217221Y-74462989D01*
X140133558Y-74306467D01*
X140133557Y-74306465D01*
X140082037Y-74136626D01*
X140069000Y-74004257D01*
X140069000Y-73315742D01*
X140082037Y-73183373D01*
X140133557Y-73013534D01*
X140217223Y-72857009D01*
X140248443Y-72818968D01*
X140329815Y-72719814D01*
X140431272Y-72636552D01*
X140467010Y-72607222D01*
X140623535Y-72523557D01*
X140793374Y-72472037D01*
X140970000Y-72454641D01*
X141146627Y-72472037D01*
G37*
G36*
X143686627Y-72472037D02*
G01*
X143856466Y-72523557D01*
X144012991Y-72607222D01*
X144048729Y-72636552D01*
X144150186Y-72719814D01*
X144231558Y-72818968D01*
X144262778Y-72857009D01*
X144346443Y-73013534D01*
X144397963Y-73183373D01*
X144411000Y-73315742D01*
X144411000Y-74004258D01*
X144397963Y-74136627D01*
X144346443Y-74306466D01*
X144262778Y-74462991D01*
X144233448Y-74498729D01*
X144150186Y-74600186D01*
X144012989Y-74712779D01*
X143856467Y-74796442D01*
X143856465Y-74796443D01*
X143686626Y-74847963D01*
X143510000Y-74865359D01*
X143333373Y-74847963D01*
X143163534Y-74796443D01*
X143007009Y-74712778D01*
X142971271Y-74683448D01*
X142869814Y-74600186D01*
X142757221Y-74462989D01*
X142673558Y-74306467D01*
X142673557Y-74306465D01*
X142622037Y-74136626D01*
X142609000Y-74004257D01*
X142609000Y-73315742D01*
X142622037Y-73183373D01*
X142673557Y-73013534D01*
X142757223Y-72857009D01*
X142788443Y-72818968D01*
X142869815Y-72719814D01*
X142971272Y-72636552D01*
X143007010Y-72607222D01*
X143163535Y-72523557D01*
X143333374Y-72472037D01*
X143510000Y-72454641D01*
X143686627Y-72472037D01*
G37*
G36*
X146951000Y-74861000D02*
G01*
X145149000Y-74861000D01*
X145149000Y-72459000D01*
X146951000Y-72459000D01*
X146951000Y-74861000D01*
G37*
G36*
X98728097Y-71979069D02*
G01*
X98831032Y-71989207D01*
X99029146Y-72049305D01*
X99029149Y-72049306D01*
X99125975Y-72101061D01*
X99211729Y-72146897D01*
X99371765Y-72278235D01*
X99503103Y-72438271D01*
X99521151Y-72472037D01*
X99600694Y-72620851D01*
X99600695Y-72620854D01*
X99660793Y-72818968D01*
X99681085Y-73025000D01*
X99660793Y-73231032D01*
X99624024Y-73352242D01*
X99600694Y-73429149D01*
X99562781Y-73500078D01*
X99503103Y-73611729D01*
X99371765Y-73771765D01*
X99211729Y-73903103D01*
X99168891Y-73926000D01*
X99029149Y-74000694D01*
X99029146Y-74000695D01*
X98831032Y-74060793D01*
X98728097Y-74070931D01*
X98676631Y-74076000D01*
X97873369Y-74076000D01*
X97821903Y-74070931D01*
X97718968Y-74060793D01*
X97520854Y-74000695D01*
X97520851Y-74000694D01*
X97381109Y-73926000D01*
X97338271Y-73903103D01*
X97178235Y-73771765D01*
X97046897Y-73611729D01*
X96987219Y-73500078D01*
X96949306Y-73429149D01*
X96925976Y-73352242D01*
X96889207Y-73231032D01*
X96868915Y-73025000D01*
X96889207Y-72818968D01*
X96949305Y-72620854D01*
X96949306Y-72620851D01*
X97028849Y-72472037D01*
X97046897Y-72438271D01*
X97178235Y-72278235D01*
X97338271Y-72146897D01*
X97424025Y-72101061D01*
X97520851Y-72049306D01*
X97520854Y-72049305D01*
X97718968Y-71989207D01*
X97821903Y-71979069D01*
X97873369Y-71974000D01*
X98676631Y-71974000D01*
X98728097Y-71979069D01*
G37*
G36*
X105228097Y-71979069D02*
G01*
X105331032Y-71989207D01*
X105529146Y-72049305D01*
X105529149Y-72049306D01*
X105625975Y-72101061D01*
X105711729Y-72146897D01*
X105871765Y-72278235D01*
X106003103Y-72438271D01*
X106021151Y-72472037D01*
X106100694Y-72620851D01*
X106100695Y-72620854D01*
X106160793Y-72818968D01*
X106181085Y-73025000D01*
X106160793Y-73231032D01*
X106124024Y-73352242D01*
X106100694Y-73429149D01*
X106062781Y-73500078D01*
X106003103Y-73611729D01*
X105871765Y-73771765D01*
X105711729Y-73903103D01*
X105668891Y-73926000D01*
X105529149Y-74000694D01*
X105529146Y-74000695D01*
X105331032Y-74060793D01*
X105228097Y-74070931D01*
X105176631Y-74076000D01*
X104373369Y-74076000D01*
X104321903Y-74070931D01*
X104218968Y-74060793D01*
X104020854Y-74000695D01*
X104020851Y-74000694D01*
X103881109Y-73926000D01*
X103838271Y-73903103D01*
X103678235Y-73771765D01*
X103546897Y-73611729D01*
X103487219Y-73500078D01*
X103449306Y-73429149D01*
X103425976Y-73352242D01*
X103389207Y-73231032D01*
X103368915Y-73025000D01*
X103389207Y-72818968D01*
X103449305Y-72620854D01*
X103449306Y-72620851D01*
X103528849Y-72472037D01*
X103546897Y-72438271D01*
X103678235Y-72278235D01*
X103838271Y-72146897D01*
X103924025Y-72101061D01*
X104020851Y-72049306D01*
X104020854Y-72049305D01*
X104218968Y-71989207D01*
X104321903Y-71979069D01*
X104373369Y-71974000D01*
X105176631Y-71974000D01*
X105228097Y-71979069D01*
G37*
G36*
X117928097Y-71979069D02*
G01*
X118031032Y-71989207D01*
X118229146Y-72049305D01*
X118229149Y-72049306D01*
X118325975Y-72101061D01*
X118411729Y-72146897D01*
X118571765Y-72278235D01*
X118703103Y-72438271D01*
X118721151Y-72472037D01*
X118800694Y-72620851D01*
X118800695Y-72620854D01*
X118860793Y-72818968D01*
X118881085Y-73025000D01*
X118860793Y-73231032D01*
X118824024Y-73352242D01*
X118800694Y-73429149D01*
X118762781Y-73500078D01*
X118703103Y-73611729D01*
X118571765Y-73771765D01*
X118411729Y-73903103D01*
X118368891Y-73926000D01*
X118229149Y-74000694D01*
X118229146Y-74000695D01*
X118031032Y-74060793D01*
X117928097Y-74070931D01*
X117876631Y-74076000D01*
X117073369Y-74076000D01*
X117021903Y-74070931D01*
X116918968Y-74060793D01*
X116720854Y-74000695D01*
X116720851Y-74000694D01*
X116581109Y-73926000D01*
X116538271Y-73903103D01*
X116378235Y-73771765D01*
X116246897Y-73611729D01*
X116187219Y-73500078D01*
X116149306Y-73429149D01*
X116125976Y-73352242D01*
X116089207Y-73231032D01*
X116068915Y-73025000D01*
X116089207Y-72818968D01*
X116149305Y-72620854D01*
X116149306Y-72620851D01*
X116228849Y-72472037D01*
X116246897Y-72438271D01*
X116378235Y-72278235D01*
X116538271Y-72146897D01*
X116624025Y-72101061D01*
X116720851Y-72049306D01*
X116720854Y-72049305D01*
X116918968Y-71989207D01*
X117021903Y-71979069D01*
X117073369Y-71974000D01*
X117876631Y-71974000D01*
X117928097Y-71979069D01*
G37*
G36*
X111428097Y-71979069D02*
G01*
X111531032Y-71989207D01*
X111729146Y-72049305D01*
X111729149Y-72049306D01*
X111825975Y-72101061D01*
X111911729Y-72146897D01*
X112071765Y-72278235D01*
X112203103Y-72438271D01*
X112221151Y-72472037D01*
X112300694Y-72620851D01*
X112300695Y-72620854D01*
X112360793Y-72818968D01*
X112381085Y-73025000D01*
X112360793Y-73231032D01*
X112324024Y-73352242D01*
X112300694Y-73429149D01*
X112262781Y-73500078D01*
X112203103Y-73611729D01*
X112071765Y-73771765D01*
X111911729Y-73903103D01*
X111868891Y-73926000D01*
X111729149Y-74000694D01*
X111729146Y-74000695D01*
X111531032Y-74060793D01*
X111428097Y-74070931D01*
X111376631Y-74076000D01*
X110573369Y-74076000D01*
X110521903Y-74070931D01*
X110418968Y-74060793D01*
X110220854Y-74000695D01*
X110220851Y-74000694D01*
X110081109Y-73926000D01*
X110038271Y-73903103D01*
X109878235Y-73771765D01*
X109746897Y-73611729D01*
X109687219Y-73500078D01*
X109649306Y-73429149D01*
X109625976Y-73352242D01*
X109589207Y-73231032D01*
X109568915Y-73025000D01*
X109589207Y-72818968D01*
X109649305Y-72620854D01*
X109649306Y-72620851D01*
X109728849Y-72472037D01*
X109746897Y-72438271D01*
X109878235Y-72278235D01*
X110038271Y-72146897D01*
X110124025Y-72101061D01*
X110220851Y-72049306D01*
X110220854Y-72049305D01*
X110418968Y-71989207D01*
X110521903Y-71979069D01*
X110573369Y-71974000D01*
X111376631Y-71974000D01*
X111428097Y-71979069D01*
G37*
G36*
X127861000Y-73926000D02*
G01*
X125757416Y-73926000D01*
X125756598Y-73917695D01*
X125749485Y-73894246D01*
X125737934Y-73872635D01*
X125722389Y-73853693D01*
X125703447Y-73838148D01*
X125681836Y-73826597D01*
X125658387Y-73819484D01*
X125634001Y-73817082D01*
X125609615Y-73819484D01*
X125597716Y-73822464D01*
X125461823Y-73863687D01*
X125336804Y-73876000D01*
X124853196Y-73876000D01*
X124728177Y-73863687D01*
X124592284Y-73822464D01*
X124567761Y-73815025D01*
X124567758Y-73815024D01*
X124419924Y-73736005D01*
X124419922Y-73736004D01*
X124290341Y-73629659D01*
X124183996Y-73500078D01*
X124146082Y-73429146D01*
X124104976Y-73352242D01*
X124056313Y-73191823D01*
X124039883Y-73025000D01*
X124056313Y-72858177D01*
X124104976Y-72697758D01*
X124183995Y-72549924D01*
X124183996Y-72549922D01*
X124290341Y-72420341D01*
X124419922Y-72313996D01*
X124436721Y-72305017D01*
X124567758Y-72234976D01*
X124728177Y-72186313D01*
X124853196Y-72174000D01*
X125336804Y-72174000D01*
X125461823Y-72186313D01*
X125597716Y-72227536D01*
X125621749Y-72232316D01*
X125646253Y-72232316D01*
X125670286Y-72227536D01*
X125692925Y-72218158D01*
X125713299Y-72204545D01*
X125730626Y-72187218D01*
X125744240Y-72166843D01*
X125753618Y-72144204D01*
X125757636Y-72124000D01*
X127861000Y-72124000D01*
X127861000Y-73926000D01*
G37*
G36*
X131861000Y-72201084D02*
G01*
X131863402Y-72225470D01*
X131870515Y-72248919D01*
X131882066Y-72270530D01*
X131897611Y-72289472D01*
X131916553Y-72305017D01*
X131938164Y-72316568D01*
X131961613Y-72323681D01*
X131985999Y-72326083D01*
X132010385Y-72323681D01*
X132033834Y-72316568D01*
X132044923Y-72311323D01*
X132187758Y-72234976D01*
X132348177Y-72186313D01*
X132473196Y-72174000D01*
X132956804Y-72174000D01*
X133081823Y-72186313D01*
X133242242Y-72234976D01*
X133373279Y-72305017D01*
X133390078Y-72313996D01*
X133519659Y-72420341D01*
X133626004Y-72549922D01*
X133626005Y-72549924D01*
X133705024Y-72697758D01*
X133753687Y-72858177D01*
X133770117Y-73025000D01*
X133753687Y-73191823D01*
X133705024Y-73352242D01*
X133663918Y-73429146D01*
X133626004Y-73500078D01*
X133519659Y-73629659D01*
X133390078Y-73736004D01*
X133390076Y-73736005D01*
X133242242Y-73815024D01*
X133242239Y-73815025D01*
X133217716Y-73822464D01*
X133081823Y-73863687D01*
X132956804Y-73876000D01*
X132473196Y-73876000D01*
X132348177Y-73863687D01*
X132212284Y-73822464D01*
X132187761Y-73815025D01*
X132187758Y-73815024D01*
X132044923Y-73738677D01*
X132022284Y-73729299D01*
X131998251Y-73724519D01*
X131973747Y-73724519D01*
X131949714Y-73729299D01*
X131927075Y-73738677D01*
X131906701Y-73752290D01*
X131889374Y-73769617D01*
X131875760Y-73789992D01*
X131866382Y-73812631D01*
X131861602Y-73836664D01*
X131861000Y-73848916D01*
X131861000Y-73926000D01*
X129759000Y-73926000D01*
X129759000Y-72124000D01*
X131861000Y-72124000D01*
X131861000Y-72201084D01*
G37*
G36*
X121651823Y-72186313D02*
G01*
X121812242Y-72234976D01*
X121943279Y-72305017D01*
X121960078Y-72313996D01*
X122089659Y-72420341D01*
X122196004Y-72549922D01*
X122196005Y-72549924D01*
X122275024Y-72697758D01*
X122323687Y-72858177D01*
X122340117Y-73025000D01*
X122323687Y-73191823D01*
X122275024Y-73352242D01*
X122233918Y-73429146D01*
X122196004Y-73500078D01*
X122089659Y-73629659D01*
X121960078Y-73736004D01*
X121960076Y-73736005D01*
X121812242Y-73815024D01*
X121812239Y-73815025D01*
X121787716Y-73822464D01*
X121651823Y-73863687D01*
X121526804Y-73876000D01*
X121043196Y-73876000D01*
X120918177Y-73863687D01*
X120782284Y-73822464D01*
X120757761Y-73815025D01*
X120757758Y-73815024D01*
X120609924Y-73736005D01*
X120609922Y-73736004D01*
X120480341Y-73629659D01*
X120373996Y-73500078D01*
X120336082Y-73429146D01*
X120294976Y-73352242D01*
X120246313Y-73191823D01*
X120229883Y-73025000D01*
X120246313Y-72858177D01*
X120294976Y-72697758D01*
X120373995Y-72549924D01*
X120373996Y-72549922D01*
X120480341Y-72420341D01*
X120609922Y-72313996D01*
X120626721Y-72305017D01*
X120757758Y-72234976D01*
X120918177Y-72186313D01*
X121043196Y-72174000D01*
X121526804Y-72174000D01*
X121651823Y-72186313D01*
G37*
G36*
X108316823Y-72186313D02*
G01*
X108477242Y-72234976D01*
X108608279Y-72305017D01*
X108625078Y-72313996D01*
X108754659Y-72420341D01*
X108861004Y-72549922D01*
X108861005Y-72549924D01*
X108940024Y-72697758D01*
X108988687Y-72858177D01*
X109005117Y-73025000D01*
X108988687Y-73191823D01*
X108940024Y-73352242D01*
X108898918Y-73429146D01*
X108861004Y-73500078D01*
X108754659Y-73629659D01*
X108625078Y-73736004D01*
X108625076Y-73736005D01*
X108477242Y-73815024D01*
X108477239Y-73815025D01*
X108452716Y-73822464D01*
X108316823Y-73863687D01*
X108191804Y-73876000D01*
X107708196Y-73876000D01*
X107583177Y-73863687D01*
X107447284Y-73822464D01*
X107422761Y-73815025D01*
X107422758Y-73815024D01*
X107274924Y-73736005D01*
X107274922Y-73736004D01*
X107145341Y-73629659D01*
X107038996Y-73500078D01*
X107001082Y-73429146D01*
X106959976Y-73352242D01*
X106911313Y-73191823D01*
X106894883Y-73025000D01*
X106911313Y-72858177D01*
X106959976Y-72697758D01*
X107038995Y-72549924D01*
X107038996Y-72549922D01*
X107145341Y-72420341D01*
X107274922Y-72313996D01*
X107291721Y-72305017D01*
X107422758Y-72234976D01*
X107583177Y-72186313D01*
X107708196Y-72174000D01*
X108191804Y-72174000D01*
X108316823Y-72186313D01*
G37*
G36*
X159687585Y-70233802D02*
G01*
X159837410Y-70263604D01*
X160119674Y-70380521D01*
X160373705Y-70550259D01*
X160589741Y-70766295D01*
X160759479Y-71020326D01*
X160876396Y-71302590D01*
X160936000Y-71602240D01*
X160936000Y-71907760D01*
X160876396Y-72207410D01*
X160759479Y-72489674D01*
X160589741Y-72743705D01*
X160373705Y-72959741D01*
X160119674Y-73129479D01*
X159837410Y-73246396D01*
X159687585Y-73276198D01*
X159537761Y-73306000D01*
X159232239Y-73306000D01*
X159082415Y-73276198D01*
X158932590Y-73246396D01*
X158650326Y-73129479D01*
X158396295Y-72959741D01*
X158180259Y-72743705D01*
X158010521Y-72489674D01*
X157893604Y-72207410D01*
X157834000Y-71907760D01*
X157834000Y-71602240D01*
X157893604Y-71302590D01*
X158010521Y-71020326D01*
X158180259Y-70766295D01*
X158396295Y-70550259D01*
X158650326Y-70380521D01*
X158932590Y-70263604D01*
X159082415Y-70233802D01*
X159232239Y-70204000D01*
X159537761Y-70204000D01*
X159687585Y-70233802D01*
G37*
G36*
X155856000Y-73306000D02*
G01*
X152754000Y-73306000D01*
X152754000Y-70204000D01*
X155856000Y-70204000D01*
X155856000Y-73306000D01*
G37*
G36*
X138606627Y-69297037D02*
G01*
X138776466Y-69348557D01*
X138932991Y-69432222D01*
X138968729Y-69461552D01*
X139070186Y-69544814D01*
X139153448Y-69646271D01*
X139182778Y-69682009D01*
X139266443Y-69838534D01*
X139317963Y-70008373D01*
X139331000Y-70140742D01*
X139331000Y-70829258D01*
X139317963Y-70961627D01*
X139266443Y-71131466D01*
X139182778Y-71287991D01*
X139170796Y-71302591D01*
X139070186Y-71425186D01*
X138932989Y-71537779D01*
X138812393Y-71602239D01*
X138776465Y-71621443D01*
X138606626Y-71672963D01*
X138430000Y-71690359D01*
X138253373Y-71672963D01*
X138083534Y-71621443D01*
X137927009Y-71537778D01*
X137882195Y-71501000D01*
X137789814Y-71425186D01*
X137677221Y-71287989D01*
X137593558Y-71131467D01*
X137593557Y-71131465D01*
X137542037Y-70961626D01*
X137529000Y-70829257D01*
X137529000Y-70140742D01*
X137542037Y-70008373D01*
X137593557Y-69838534D01*
X137677223Y-69682009D01*
X137706553Y-69646271D01*
X137789815Y-69544814D01*
X137891272Y-69461552D01*
X137927010Y-69432222D01*
X138083535Y-69348557D01*
X138253374Y-69297037D01*
X138430000Y-69279641D01*
X138606627Y-69297037D01*
G37*
G36*
X141146627Y-69297037D02*
G01*
X141316466Y-69348557D01*
X141472991Y-69432222D01*
X141508729Y-69461552D01*
X141610186Y-69544814D01*
X141693448Y-69646271D01*
X141722778Y-69682009D01*
X141806443Y-69838534D01*
X141857963Y-70008373D01*
X141871000Y-70140742D01*
X141871000Y-70829258D01*
X141857963Y-70961627D01*
X141806443Y-71131466D01*
X141722778Y-71287991D01*
X141710796Y-71302591D01*
X141610186Y-71425186D01*
X141472989Y-71537779D01*
X141352393Y-71602239D01*
X141316465Y-71621443D01*
X141146626Y-71672963D01*
X140970000Y-71690359D01*
X140793373Y-71672963D01*
X140623534Y-71621443D01*
X140467009Y-71537778D01*
X140422195Y-71501000D01*
X140329814Y-71425186D01*
X140217221Y-71287989D01*
X140133558Y-71131467D01*
X140133557Y-71131465D01*
X140082037Y-70961626D01*
X140069000Y-70829257D01*
X140069000Y-70140742D01*
X140082037Y-70008373D01*
X140133557Y-69838534D01*
X140217223Y-69682009D01*
X140246553Y-69646271D01*
X140329815Y-69544814D01*
X140431272Y-69461552D01*
X140467010Y-69432222D01*
X140623535Y-69348557D01*
X140793374Y-69297037D01*
X140970000Y-69279641D01*
X141146627Y-69297037D01*
G37*
G36*
X143686627Y-69297037D02*
G01*
X143856466Y-69348557D01*
X144012991Y-69432222D01*
X144048729Y-69461552D01*
X144150186Y-69544814D01*
X144233448Y-69646271D01*
X144262778Y-69682009D01*
X144346443Y-69838534D01*
X144397963Y-70008373D01*
X144411000Y-70140742D01*
X144411000Y-70829258D01*
X144397963Y-70961627D01*
X144346443Y-71131466D01*
X144262778Y-71287991D01*
X144250796Y-71302591D01*
X144150186Y-71425186D01*
X144012989Y-71537779D01*
X143892393Y-71602239D01*
X143856465Y-71621443D01*
X143686626Y-71672963D01*
X143510000Y-71690359D01*
X143333373Y-71672963D01*
X143163534Y-71621443D01*
X143007009Y-71537778D01*
X142962195Y-71501000D01*
X142869814Y-71425186D01*
X142757221Y-71287989D01*
X142673558Y-71131467D01*
X142673557Y-71131465D01*
X142622037Y-70961626D01*
X142609000Y-70829257D01*
X142609000Y-70140742D01*
X142622037Y-70008373D01*
X142673557Y-69838534D01*
X142757223Y-69682009D01*
X142786553Y-69646271D01*
X142869815Y-69544814D01*
X142971272Y-69461552D01*
X143007010Y-69432222D01*
X143163535Y-69348557D01*
X143333374Y-69297037D01*
X143510000Y-69279641D01*
X143686627Y-69297037D01*
G37*
G36*
X146951000Y-71686000D02*
G01*
X145149000Y-71686000D01*
X145149000Y-69284000D01*
X146951000Y-69284000D01*
X146951000Y-71686000D01*
G37*
G36*
X166745256Y-68241298D02*
G01*
X166851579Y-68262447D01*
X167152042Y-68386903D01*
X167422451Y-68567585D01*
X167652415Y-68797549D01*
X167833097Y-69067958D01*
X167957553Y-69368421D01*
X167964452Y-69403103D01*
X168021000Y-69687389D01*
X168021000Y-70012611D01*
X167995513Y-70140740D01*
X167957553Y-70331579D01*
X167833097Y-70632042D01*
X167652415Y-70902451D01*
X167422451Y-71132415D01*
X167152042Y-71313097D01*
X166851579Y-71437553D01*
X166745256Y-71458702D01*
X166532611Y-71501000D01*
X166207389Y-71501000D01*
X165994744Y-71458702D01*
X165888421Y-71437553D01*
X165587958Y-71313097D01*
X165317549Y-71132415D01*
X165087585Y-70902451D01*
X164906903Y-70632042D01*
X164782447Y-70331579D01*
X164744487Y-70140740D01*
X164719000Y-70012611D01*
X164719000Y-69687389D01*
X164775548Y-69403103D01*
X164782447Y-69368421D01*
X164906903Y-69067958D01*
X165087585Y-68797549D01*
X165317549Y-68567585D01*
X165587958Y-68386903D01*
X165888421Y-68262447D01*
X165994744Y-68241298D01*
X166207389Y-68199000D01*
X166532611Y-68199000D01*
X166745256Y-68241298D01*
G37*
G36*
X93085256Y-68241298D02*
G01*
X93191579Y-68262447D01*
X93492042Y-68386903D01*
X93762451Y-68567585D01*
X93992415Y-68797549D01*
X94173097Y-69067958D01*
X94297553Y-69368421D01*
X94304452Y-69403103D01*
X94361000Y-69687389D01*
X94361000Y-70012611D01*
X94335513Y-70140740D01*
X94297553Y-70331579D01*
X94173097Y-70632042D01*
X93992415Y-70902451D01*
X93762451Y-71132415D01*
X93492042Y-71313097D01*
X93191579Y-71437553D01*
X93085256Y-71458702D01*
X92872611Y-71501000D01*
X92547389Y-71501000D01*
X92334744Y-71458702D01*
X92228421Y-71437553D01*
X91927958Y-71313097D01*
X91657549Y-71132415D01*
X91427585Y-70902451D01*
X91246903Y-70632042D01*
X91122447Y-70331579D01*
X91084487Y-70140740D01*
X91059000Y-70012611D01*
X91059000Y-69687389D01*
X91115548Y-69403103D01*
X91122447Y-69368421D01*
X91246903Y-69067958D01*
X91427585Y-68797549D01*
X91657549Y-68567585D01*
X91927958Y-68386903D01*
X92228421Y-68262447D01*
X92334744Y-68241298D01*
X92547389Y-68199000D01*
X92872611Y-68199000D01*
X93085256Y-68241298D01*
G37*
G36*
X131861000Y-69026084D02*
G01*
X131863402Y-69050470D01*
X131870515Y-69073919D01*
X131882066Y-69095530D01*
X131897611Y-69114472D01*
X131916553Y-69130017D01*
X131938164Y-69141568D01*
X131961613Y-69148681D01*
X131985999Y-69151083D01*
X132010385Y-69148681D01*
X132033834Y-69141568D01*
X132044923Y-69136323D01*
X132187758Y-69059976D01*
X132348177Y-69011313D01*
X132473196Y-68999000D01*
X132956804Y-68999000D01*
X133081823Y-69011313D01*
X133242242Y-69059976D01*
X133373279Y-69130017D01*
X133390078Y-69138996D01*
X133519659Y-69245341D01*
X133626004Y-69374922D01*
X133626005Y-69374924D01*
X133705024Y-69522758D01*
X133753687Y-69683177D01*
X133770117Y-69850000D01*
X133753687Y-70016823D01*
X133705024Y-70177242D01*
X133634114Y-70309906D01*
X133626004Y-70325078D01*
X133519659Y-70454659D01*
X133390078Y-70561004D01*
X133390076Y-70561005D01*
X133242242Y-70640024D01*
X133242239Y-70640025D01*
X133217716Y-70647464D01*
X133081823Y-70688687D01*
X132956804Y-70701000D01*
X132473196Y-70701000D01*
X132348177Y-70688687D01*
X132212284Y-70647464D01*
X132187761Y-70640025D01*
X132187758Y-70640024D01*
X132044923Y-70563677D01*
X132022284Y-70554299D01*
X131998251Y-70549519D01*
X131973747Y-70549519D01*
X131949714Y-70554299D01*
X131927075Y-70563677D01*
X131906701Y-70577290D01*
X131889374Y-70594617D01*
X131875760Y-70614992D01*
X131866382Y-70637631D01*
X131861602Y-70661664D01*
X131861000Y-70673916D01*
X131861000Y-70751000D01*
X129759000Y-70751000D01*
X129759000Y-68949000D01*
X131861000Y-68949000D01*
X131861000Y-69026084D01*
G37*
G36*
X127861000Y-70751000D02*
G01*
X125757416Y-70751000D01*
X125756598Y-70742695D01*
X125749485Y-70719246D01*
X125737934Y-70697635D01*
X125722389Y-70678693D01*
X125703447Y-70663148D01*
X125681836Y-70651597D01*
X125658387Y-70644484D01*
X125634001Y-70642082D01*
X125609615Y-70644484D01*
X125597716Y-70647464D01*
X125461823Y-70688687D01*
X125336804Y-70701000D01*
X124853196Y-70701000D01*
X124728177Y-70688687D01*
X124592284Y-70647464D01*
X124567761Y-70640025D01*
X124567758Y-70640024D01*
X124419924Y-70561005D01*
X124419922Y-70561004D01*
X124290341Y-70454659D01*
X124183996Y-70325078D01*
X124175886Y-70309906D01*
X124104976Y-70177242D01*
X124056313Y-70016823D01*
X124039883Y-69850000D01*
X124056313Y-69683177D01*
X124104976Y-69522758D01*
X124183995Y-69374924D01*
X124183996Y-69374922D01*
X124290341Y-69245341D01*
X124419922Y-69138996D01*
X124436721Y-69130017D01*
X124567758Y-69059976D01*
X124728177Y-69011313D01*
X124853196Y-68999000D01*
X125336804Y-68999000D01*
X125461823Y-69011313D01*
X125597716Y-69052536D01*
X125621749Y-69057316D01*
X125646253Y-69057316D01*
X125670286Y-69052536D01*
X125692925Y-69043158D01*
X125713299Y-69029545D01*
X125730626Y-69012218D01*
X125744240Y-68991843D01*
X125753618Y-68969204D01*
X125757636Y-68949000D01*
X127861000Y-68949000D01*
X127861000Y-70751000D01*
G37*
G36*
X111428097Y-67479069D02*
G01*
X111531032Y-67489207D01*
X111729146Y-67549305D01*
X111729149Y-67549306D01*
X111825975Y-67601061D01*
X111911729Y-67646897D01*
X112071765Y-67778235D01*
X112203103Y-67938271D01*
X112212829Y-67956468D01*
X112300694Y-68120851D01*
X112300695Y-68120854D01*
X112360793Y-68318968D01*
X112381085Y-68525000D01*
X112360793Y-68731032D01*
X112320552Y-68863686D01*
X112300694Y-68929149D01*
X112290083Y-68949000D01*
X112203103Y-69111729D01*
X112071765Y-69271765D01*
X111911729Y-69403103D01*
X111825975Y-69448939D01*
X111729149Y-69500694D01*
X111729146Y-69500695D01*
X111531032Y-69560793D01*
X111428097Y-69570931D01*
X111376631Y-69576000D01*
X110573369Y-69576000D01*
X110521903Y-69570931D01*
X110418968Y-69560793D01*
X110220854Y-69500695D01*
X110220851Y-69500694D01*
X110124025Y-69448939D01*
X110038271Y-69403103D01*
X109878235Y-69271765D01*
X109746897Y-69111729D01*
X109659917Y-68949000D01*
X109649306Y-68929149D01*
X109629448Y-68863686D01*
X109589207Y-68731032D01*
X109568915Y-68525000D01*
X109589207Y-68318968D01*
X109649305Y-68120854D01*
X109649306Y-68120851D01*
X109737171Y-67956468D01*
X109746897Y-67938271D01*
X109878235Y-67778235D01*
X110038271Y-67646897D01*
X110124025Y-67601061D01*
X110220851Y-67549306D01*
X110220854Y-67549305D01*
X110418968Y-67489207D01*
X110521903Y-67479069D01*
X110573369Y-67474000D01*
X111376631Y-67474000D01*
X111428097Y-67479069D01*
G37*
G36*
X117928097Y-67479069D02*
G01*
X118031032Y-67489207D01*
X118229146Y-67549305D01*
X118229149Y-67549306D01*
X118325975Y-67601061D01*
X118411729Y-67646897D01*
X118571765Y-67778235D01*
X118703103Y-67938271D01*
X118712829Y-67956468D01*
X118800694Y-68120851D01*
X118800695Y-68120854D01*
X118860793Y-68318968D01*
X118881085Y-68525000D01*
X118860793Y-68731032D01*
X118820552Y-68863686D01*
X118800694Y-68929149D01*
X118790083Y-68949000D01*
X118703103Y-69111729D01*
X118571765Y-69271765D01*
X118411729Y-69403103D01*
X118325975Y-69448939D01*
X118229149Y-69500694D01*
X118229146Y-69500695D01*
X118031032Y-69560793D01*
X117928097Y-69570931D01*
X117876631Y-69576000D01*
X117073369Y-69576000D01*
X117021903Y-69570931D01*
X116918968Y-69560793D01*
X116720854Y-69500695D01*
X116720851Y-69500694D01*
X116624025Y-69448939D01*
X116538271Y-69403103D01*
X116378235Y-69271765D01*
X116246897Y-69111729D01*
X116159917Y-68949000D01*
X116149306Y-68929149D01*
X116129448Y-68863686D01*
X116089207Y-68731032D01*
X116068915Y-68525000D01*
X116089207Y-68318968D01*
X116149305Y-68120854D01*
X116149306Y-68120851D01*
X116237171Y-67956468D01*
X116246897Y-67938271D01*
X116378235Y-67778235D01*
X116538271Y-67646897D01*
X116624025Y-67601061D01*
X116720851Y-67549306D01*
X116720854Y-67549305D01*
X116918968Y-67489207D01*
X117021903Y-67479069D01*
X117073369Y-67474000D01*
X117876631Y-67474000D01*
X117928097Y-67479069D01*
G37*
G36*
X105228097Y-67479069D02*
G01*
X105331032Y-67489207D01*
X105529146Y-67549305D01*
X105529149Y-67549306D01*
X105625975Y-67601061D01*
X105711729Y-67646897D01*
X105871765Y-67778235D01*
X106003103Y-67938271D01*
X106012829Y-67956468D01*
X106100694Y-68120851D01*
X106100695Y-68120854D01*
X106160793Y-68318968D01*
X106181085Y-68525000D01*
X106160793Y-68731032D01*
X106120552Y-68863686D01*
X106100694Y-68929149D01*
X106090083Y-68949000D01*
X106003103Y-69111729D01*
X105871765Y-69271765D01*
X105711729Y-69403103D01*
X105625975Y-69448939D01*
X105529149Y-69500694D01*
X105529146Y-69500695D01*
X105331032Y-69560793D01*
X105228097Y-69570931D01*
X105176631Y-69576000D01*
X104373369Y-69576000D01*
X104321903Y-69570931D01*
X104218968Y-69560793D01*
X104020854Y-69500695D01*
X104020851Y-69500694D01*
X103924025Y-69448939D01*
X103838271Y-69403103D01*
X103678235Y-69271765D01*
X103546897Y-69111729D01*
X103459917Y-68949000D01*
X103449306Y-68929149D01*
X103429448Y-68863686D01*
X103389207Y-68731032D01*
X103368915Y-68525000D01*
X103389207Y-68318968D01*
X103449305Y-68120854D01*
X103449306Y-68120851D01*
X103537171Y-67956468D01*
X103546897Y-67938271D01*
X103678235Y-67778235D01*
X103838271Y-67646897D01*
X103924025Y-67601061D01*
X104020851Y-67549306D01*
X104020854Y-67549305D01*
X104218968Y-67489207D01*
X104321903Y-67479069D01*
X104373369Y-67474000D01*
X105176631Y-67474000D01*
X105228097Y-67479069D01*
G37*
G36*
X98728097Y-67479069D02*
G01*
X98831032Y-67489207D01*
X99029146Y-67549305D01*
X99029149Y-67549306D01*
X99125975Y-67601061D01*
X99211729Y-67646897D01*
X99371765Y-67778235D01*
X99503103Y-67938271D01*
X99512829Y-67956468D01*
X99600694Y-68120851D01*
X99600695Y-68120854D01*
X99660793Y-68318968D01*
X99681085Y-68525000D01*
X99660793Y-68731032D01*
X99620552Y-68863686D01*
X99600694Y-68929149D01*
X99590083Y-68949000D01*
X99503103Y-69111729D01*
X99371765Y-69271765D01*
X99211729Y-69403103D01*
X99125975Y-69448939D01*
X99029149Y-69500694D01*
X99029146Y-69500695D01*
X98831032Y-69560793D01*
X98728097Y-69570931D01*
X98676631Y-69576000D01*
X97873369Y-69576000D01*
X97821903Y-69570931D01*
X97718968Y-69560793D01*
X97520854Y-69500695D01*
X97520851Y-69500694D01*
X97424025Y-69448939D01*
X97338271Y-69403103D01*
X97178235Y-69271765D01*
X97046897Y-69111729D01*
X96959917Y-68949000D01*
X96949306Y-68929149D01*
X96929448Y-68863686D01*
X96889207Y-68731032D01*
X96868915Y-68525000D01*
X96889207Y-68318968D01*
X96949305Y-68120854D01*
X96949306Y-68120851D01*
X97037171Y-67956468D01*
X97046897Y-67938271D01*
X97178235Y-67778235D01*
X97338271Y-67646897D01*
X97424025Y-67601061D01*
X97520851Y-67549306D01*
X97520854Y-67549305D01*
X97718968Y-67489207D01*
X97821903Y-67479069D01*
X97873369Y-67474000D01*
X98676631Y-67474000D01*
X98728097Y-67479069D01*
G37*
G36*
X121651823Y-67186313D02*
G01*
X121812242Y-67234976D01*
X121944906Y-67305886D01*
X121960078Y-67313996D01*
X122089659Y-67420341D01*
X122196004Y-67549922D01*
X122196005Y-67549924D01*
X122275024Y-67697758D01*
X122323687Y-67858177D01*
X122340117Y-68025000D01*
X122323687Y-68191823D01*
X122275024Y-68352242D01*
X122256497Y-68386903D01*
X122196004Y-68500078D01*
X122089659Y-68629659D01*
X121960078Y-68736004D01*
X121960076Y-68736005D01*
X121812242Y-68815024D01*
X121651823Y-68863687D01*
X121526804Y-68876000D01*
X121043196Y-68876000D01*
X120918177Y-68863687D01*
X120757758Y-68815024D01*
X120609924Y-68736005D01*
X120609922Y-68736004D01*
X120480341Y-68629659D01*
X120373996Y-68500078D01*
X120313503Y-68386903D01*
X120294976Y-68352242D01*
X120246313Y-68191823D01*
X120229883Y-68025000D01*
X120246313Y-67858177D01*
X120294976Y-67697758D01*
X120373995Y-67549924D01*
X120373996Y-67549922D01*
X120480341Y-67420341D01*
X120609922Y-67313996D01*
X120625094Y-67305886D01*
X120757758Y-67234976D01*
X120918177Y-67186313D01*
X121043196Y-67174000D01*
X121526804Y-67174000D01*
X121651823Y-67186313D01*
G37*
G36*
X108316823Y-67186313D02*
G01*
X108477242Y-67234976D01*
X108609906Y-67305886D01*
X108625078Y-67313996D01*
X108754659Y-67420341D01*
X108861004Y-67549922D01*
X108861005Y-67549924D01*
X108940024Y-67697758D01*
X108988687Y-67858177D01*
X109005117Y-68025000D01*
X108988687Y-68191823D01*
X108940024Y-68352242D01*
X108921497Y-68386903D01*
X108861004Y-68500078D01*
X108754659Y-68629659D01*
X108625078Y-68736004D01*
X108625076Y-68736005D01*
X108477242Y-68815024D01*
X108316823Y-68863687D01*
X108191804Y-68876000D01*
X107708196Y-68876000D01*
X107583177Y-68863687D01*
X107422758Y-68815024D01*
X107274924Y-68736005D01*
X107274922Y-68736004D01*
X107145341Y-68629659D01*
X107038996Y-68500078D01*
X106978503Y-68386903D01*
X106959976Y-68352242D01*
X106911313Y-68191823D01*
X106894883Y-68025000D01*
X106911313Y-67858177D01*
X106959976Y-67697758D01*
X107038995Y-67549924D01*
X107038996Y-67549922D01*
X107145341Y-67420341D01*
X107274922Y-67313996D01*
X107290094Y-67305886D01*
X107422758Y-67234976D01*
X107583177Y-67186313D01*
X107708196Y-67174000D01*
X108191804Y-67174000D01*
X108316823Y-67186313D01*
G37*
G36*
X138606627Y-66122037D02*
G01*
X138776466Y-66173557D01*
X138932991Y-66257222D01*
X138968729Y-66286552D01*
X139070186Y-66369814D01*
X139153448Y-66471271D01*
X139182778Y-66507009D01*
X139266443Y-66663534D01*
X139317963Y-66833373D01*
X139331000Y-66965742D01*
X139331000Y-67654258D01*
X139317963Y-67786627D01*
X139266443Y-67956466D01*
X139182778Y-68112991D01*
X139153448Y-68148729D01*
X139070186Y-68250186D01*
X138932989Y-68362779D01*
X138887858Y-68386902D01*
X138776465Y-68446443D01*
X138606626Y-68497963D01*
X138430000Y-68515359D01*
X138253373Y-68497963D01*
X138083534Y-68446443D01*
X137927009Y-68362778D01*
X137873629Y-68318970D01*
X137789814Y-68250186D01*
X137677221Y-68112989D01*
X137593558Y-67956467D01*
X137593557Y-67956465D01*
X137542037Y-67786626D01*
X137529000Y-67654257D01*
X137529000Y-66965742D01*
X137542037Y-66833373D01*
X137593557Y-66663534D01*
X137677223Y-66507009D01*
X137706553Y-66471271D01*
X137789815Y-66369814D01*
X137891272Y-66286552D01*
X137927010Y-66257222D01*
X138083535Y-66173557D01*
X138253374Y-66122037D01*
X138430000Y-66104641D01*
X138606627Y-66122037D01*
G37*
G36*
X141146627Y-66122037D02*
G01*
X141316466Y-66173557D01*
X141472991Y-66257222D01*
X141508729Y-66286552D01*
X141610186Y-66369814D01*
X141693448Y-66471271D01*
X141722778Y-66507009D01*
X141806443Y-66663534D01*
X141857963Y-66833373D01*
X141871000Y-66965742D01*
X141871000Y-67654258D01*
X141857963Y-67786627D01*
X141806443Y-67956466D01*
X141722778Y-68112991D01*
X141693448Y-68148729D01*
X141610186Y-68250186D01*
X141472989Y-68362779D01*
X141427858Y-68386902D01*
X141316465Y-68446443D01*
X141146626Y-68497963D01*
X140970000Y-68515359D01*
X140793373Y-68497963D01*
X140623534Y-68446443D01*
X140467009Y-68362778D01*
X140413629Y-68318970D01*
X140329814Y-68250186D01*
X140217221Y-68112989D01*
X140133558Y-67956467D01*
X140133557Y-67956465D01*
X140082037Y-67786626D01*
X140069000Y-67654257D01*
X140069000Y-66965742D01*
X140082037Y-66833373D01*
X140133557Y-66663534D01*
X140217223Y-66507009D01*
X140246553Y-66471271D01*
X140329815Y-66369814D01*
X140431272Y-66286552D01*
X140467010Y-66257222D01*
X140623535Y-66173557D01*
X140793374Y-66122037D01*
X140970000Y-66104641D01*
X141146627Y-66122037D01*
G37*
G36*
X143686627Y-66122037D02*
G01*
X143856466Y-66173557D01*
X144012991Y-66257222D01*
X144048729Y-66286552D01*
X144150186Y-66369814D01*
X144233448Y-66471271D01*
X144262778Y-66507009D01*
X144346443Y-66663534D01*
X144397963Y-66833373D01*
X144411000Y-66965742D01*
X144411000Y-67654258D01*
X144397963Y-67786627D01*
X144346443Y-67956466D01*
X144262778Y-68112991D01*
X144233448Y-68148729D01*
X144150186Y-68250186D01*
X144012989Y-68362779D01*
X143967858Y-68386902D01*
X143856465Y-68446443D01*
X143686626Y-68497963D01*
X143510000Y-68515359D01*
X143333373Y-68497963D01*
X143163534Y-68446443D01*
X143007009Y-68362778D01*
X142953629Y-68318970D01*
X142869814Y-68250186D01*
X142757221Y-68112989D01*
X142673558Y-67956467D01*
X142673557Y-67956465D01*
X142622037Y-67786626D01*
X142609000Y-67654257D01*
X142609000Y-66965742D01*
X142622037Y-66833373D01*
X142673557Y-66663534D01*
X142757223Y-66507009D01*
X142786553Y-66471271D01*
X142869815Y-66369814D01*
X142971272Y-66286552D01*
X143007010Y-66257222D01*
X143163535Y-66173557D01*
X143333374Y-66122037D01*
X143510000Y-66104641D01*
X143686627Y-66122037D01*
G37*
G36*
X146951000Y-68511000D02*
G01*
X145149000Y-68511000D01*
X145149000Y-66109000D01*
X146951000Y-66109000D01*
X146951000Y-68511000D01*
G37*
M02*
